<svg width="266" height="43" viewBox="0 0 266 43" fill="none" xmlns="http://www.w3.org/2000/svg">
<path d="M68.8255 33.5424C67.052 33.5424 65.3796 33.2239 63.8082 32.587C62.248 31.9386 60.9066 31.0627 59.7842 29.9594C58.6618 28.856 57.775 27.5366 57.124 26.001C56.4842 24.454 56.1643 22.8047 56.1643 21.053C56.1643 18.7212 56.7143 16.6054 57.8143 14.7059C58.9143 12.7949 60.4296 11.2991 62.3602 10.2185C64.302 9.12655 66.4571 8.58057 68.8255 8.58057C71.1939 8.58057 73.3434 9.12655 75.274 10.2185C77.2046 11.2991 78.7199 12.7949 79.8199 14.7059C80.9199 16.6054 81.4699 18.7212 81.4699 21.053C81.4699 23.3848 80.9199 25.5062 79.8199 27.4171C78.7199 29.3281 77.2046 30.8296 75.274 31.9215C73.3434 33.0021 71.1939 33.5424 68.8255 33.5424ZM64.6163 25.3868C65.75 26.5356 67.1531 27.11 68.8255 27.11C70.4979 27.11 71.8954 26.5356 73.0178 25.3868C74.1515 24.2265 74.7183 22.7819 74.7183 21.053C74.7183 19.324 74.1571 17.8851 73.0347 16.7363C71.9122 15.5874 70.5092 15.013 68.8255 15.013C67.1418 15.013 65.7388 15.5874 64.6163 16.7363C63.4939 17.8851 62.9327 19.324 62.9327 21.053C62.9327 22.7819 63.4939 24.2265 64.6163 25.3868Z" fill="#02CDD7"/>
<path d="M95.8652 33.5424C94.0918 33.5424 92.4193 33.2239 90.8479 32.587C89.2877 31.9386 87.9464 31.0627 86.8239 29.9594C85.7015 28.856 84.8148 27.5366 84.1637 26.001C83.5239 24.454 83.204 22.8047 83.204 21.053C83.204 18.7212 83.754 16.6054 84.854 14.7059C85.954 12.7949 87.4693 11.2991 89.3999 10.2185C91.3418 9.12655 93.4969 8.58057 95.8652 8.58057C98.0877 8.58057 100.125 9.06399 101.977 10.0308C103.829 10.9977 105.322 12.3229 106.456 14.0063L100.765 17.5723C100.226 16.7761 99.53 16.1505 98.677 15.6955C97.8239 15.2405 96.8867 15.013 95.8652 15.013C94.1816 15.013 92.7785 15.5874 91.6561 16.7363C90.5336 17.8851 89.9724 19.324 89.9724 21.053C89.9724 22.7819 90.5336 24.2265 91.6561 25.3868C92.7897 26.5356 94.1928 27.11 95.8652 27.11C96.8867 27.11 97.8239 26.8825 98.677 26.4275C99.53 25.9725 100.226 25.3469 100.765 24.5507L106.456 28.1167C105.322 29.8002 103.829 31.1253 101.977 32.0922C100.125 33.059 98.0877 33.5424 95.8652 33.5424Z" fill="#02CDD7"/>
<path d="M115.379 26.82H125.414V33.1159H108.796V9.00712H125.245V15.303H115.379V17.8453H124.134V24.1412H115.379V26.82Z" fill="#02CDD7"/>
<path d="M144.49 33.1159L143.412 29.7888H134.96L133.899 33.1159H126.828L135.381 9.00712H143.143L151.696 33.1159H144.49ZM136.896 23.6464H141.476L139.203 16.4121L136.896 23.6464Z" fill="#02CDD7"/>
<path d="M168.095 9.00712H174.678V33.1159H168.095L160.232 20.78V33.1159H153.649V9.00712H160.232L168.095 21.343V9.00712Z" fill="#02CDD7"/>
<path d="M194.141 9.00712H201.347L192.323 33.1159H185.588L176.564 9.00712H183.904L189.04 24.0388L194.141 9.00712Z" fill="#02CDD7"/>
<path d="M203.25 33.1159V9.00712H209.833V33.1159H203.25Z" fill="#02CDD7"/>
<path d="M220.339 26.82H230.374V33.1159H213.756V9.00712H230.205V15.303H220.339V17.8453H229.094V24.1412H220.339V26.82Z" fill="#02CDD7"/>
<path d="M259.198 9.00712H266L258.794 33.1159H252.245L248.928 19.7051L245.577 33.1159H239.061L231.822 9.00712H238.792L242.479 23.6464L246.133 9.00712H251.857L255.544 23.6464L259.198 9.00712Z" fill="#02CDD7"/>
<path fill-rule="evenodd" clip-rule="evenodd" d="M0 21.1055C0 9.44956 9.80102 0 21.8638 0C33.9009 0 43.6833 9.42952 43.6833 21.0612C43.6833 32.6937 33.9238 42.1232 21.8867 42.1232H0V21.1055ZM33.4044 21.0612C33.4044 27.2199 28.2271 32.2119 21.8424 32.2119C15.4562 32.2119 10.2788 27.2199 10.2788 21.0612C10.2788 14.9032 15.4562 9.91129 21.8424 9.91129C23.3545 9.91129 24.7994 10.1912 26.1227 10.7007C23.2987 11.3518 21.1986 13.8021 21.1986 16.7253C21.1986 20.1468 24.0741 22.9199 27.622 22.9199C30.0883 22.9199 32.2299 21.5796 33.3072 19.6125L33.3301 19.7908C33.3544 19.9982 33.373 20.2076 33.3844 20.4184L33.393 20.5677C33.4002 20.7315 33.4044 20.896 33.4044 21.0612Z" fill="#02CDD7"/>
</svg>
