<svg width="1002" height="1096" viewBox="0 0 1002 1096" fill="none" xmlns="http://www.w3.org/2000/svg">
<path opacity="0.05" fill-rule="evenodd" clip-rule="evenodd" d="M-196 519.703C-196 200.103 72.7899 -59 403.608 -59C733.72 -59 1002 199.554 1002 518.491C1002 837.446 734.348 1096 404.236 1096H-196V519.703ZM720.106 518.491C720.106 687.36 578.119 824.236 403.02 824.236C227.881 824.236 85.8939 687.36 85.8939 518.491C85.8939 349.64 227.881 212.764 403.02 212.764C444.49 212.764 484.116 220.439 520.407 234.408C442.959 252.261 385.364 319.449 385.364 399.6C385.364 493.416 464.224 569.454 561.524 569.454C629.162 569.454 687.895 532.705 717.438 478.766L718.066 483.655C718.733 489.341 719.243 495.084 719.557 500.864L719.792 504.958C719.988 509.45 720.106 513.961 720.106 518.491Z" fill="#02CDD7"/>
</svg>
