<svg width="225" height="21" viewBox="0 0 225 21" fill="none" xmlns="http://www.w3.org/2000/svg">
<path d="M26.0446 21H21.9435L13.0223 12.0844L4.10109 21H0L10.6788 10.5L0 0H4.31413L13.0223 8.86189L21.7304 0H26.0446L15.3658 10.5L26.0446 21Z" fill="#105CAD"/>
<path d="M53.8607 21H50.7449V2.76598L33.0356 21H28.3487V0H31.4378V18.422L49.3068 0H53.8607V21Z" fill="#105CAD"/>
<path d="M90.8903 21H87.8012V2.84655H87.1887L75.5246 21H73.5806L61.9164 2.84655H61.3306V21H58.2414V0H63.7806L74.5659 17.2404L85.3512 0H90.8903V21Z" fill="#105CAD"/>
<path d="M116.205 2.84655H106.884V21H103.768V2.84655H94.4475V0H116.205V2.84655Z" fill="#105CAD"/>
<path d="M138.274 21H118.355V0H138.274V2.84655H121.444V8.94246H137.688V11.7621H121.444V18.1803H138.274V21Z" fill="#105CAD"/>
<path d="M167.048 21H162.947L154.026 12.0844L145.105 21H141.004L151.682 10.5L141.004 0H145.318L154.026 8.86189L162.734 0H167.048L156.369 10.5L167.048 21Z" fill="#105CAD"/>
<path d="M225 6.71355C225 8.77238 224.512 10.3747 223.535 11.5205C222.506 12.7379 220.979 13.3465 218.955 13.3465H205.214V21H202.098V0H219.088C223.029 0 225 2.23785 225 6.71355ZM221.884 6.71355C221.884 4.13555 220.899 2.84655 218.928 2.84655H205.214V10.5269H218.955C220.908 10.5269 221.884 9.25575 221.884 6.71355Z" fill="#105CAD"/>
<path d="M184.198 3.66644L185.792 8.61354H190.95L186.777 11.671L188.371 16.6181L184.198 13.5606L180.024 16.6181L181.618 11.671L177.445 8.61354H182.604L184.198 3.66644Z" fill="#105CAD"/>
</svg>
