{
    "asset" : {
        "generator" : "Khronos glTF Blender I/O v3.4.50",
        "version" : "2.0"
    },
    "extensionsUsed" : [
        "KHR_materials_transmission",
        "KHR_materials_specular",
        "KHR_materials_ior"
    ],
    "scene" : 0,
    "scenes" : [
        {
            "name" : "Scene",
            "nodes" : [
                3
            ]
        }
    ],
    "nodes" : [
        {
            "mesh" : 0,
            "name" : "Code_Shape",
            "rotation" : [
                0.70710688829422,
                0,
                0,
                0.7071066498756409
            ],
            "translation" : [
                0.0005638003349304199,
                -0.05078873038291931,
                0
            ]
        },
        {
            "mesh" : 1,
            "name" : "Dot_Shape",
            "rotation" : [
                0.70710688829422,
                0,
                0,
                0.7071066498756409
            ],
            "translation" : [
                -0.16000007092952728,
                0.06999997794628143,
                0
            ]
        },
        {
            "mesh" : 2,
            "name" : "Line_Shape",
            "rotation" : [
                0.70710688829422,
                0,
                0,
                0.7071066498756409
            ],
            "scale" : [
                1,
                0.9688416719436646,
                1
            ],
            "translation" : [
                0.15999990701675415,
                0.06790696084499359,
                -0.001211242051795125
            ]
        },
        {
            "children" : [
                0,
                1,
                2
            ],
            "name" : "Empty",
            "translation" : [
                0.3799999952316284,
                0.07999999821186066,
                0
            ]
        }
    ],
    "animations" : [
        {
            "channels" : [
                {
                    "sampler" : 0,
                    "target" : {
                        "node" : 3,
                        "path" : "translation"
                    }
                },
                {
                    "sampler" : 1,
                    "target" : {
                        "node" : 3,
                        "path" : "rotation"
                    }
                },
                {
                    "sampler" : 2,
                    "target" : {
                        "node" : 3,
                        "path" : "scale"
                    }
                }
            ],
            "name" : "Empty_Action",
            "samplers" : [
                {
                    "input" : 12,
                    "interpolation" : "LINEAR",
                    "output" : 13
                },
                {
                    "input" : 12,
                    "interpolation" : "LINEAR",
                    "output" : 14
                },
                {
                    "input" : 12,
                    "interpolation" : "LINEAR",
                    "output" : 15
                }
            ]
        },
        {
            "channels" : [
                {
                    "sampler" : 0,
                    "target" : {
                        "node" : 0,
                        "path" : "translation"
                    }
                },
                {
                    "sampler" : 1,
                    "target" : {
                        "node" : 0,
                        "path" : "rotation"
                    }
                },
                {
                    "sampler" : 2,
                    "target" : {
                        "node" : 0,
                        "path" : "scale"
                    }
                }
            ],
            "name" : "Code_ShapeAction",
            "samplers" : [
                {
                    "input" : 12,
                    "interpolation" : "LINEAR",
                    "output" : 16
                },
                {
                    "input" : 12,
                    "interpolation" : "LINEAR",
                    "output" : 17
                },
                {
                    "input" : 12,
                    "interpolation" : "LINEAR",
                    "output" : 18
                }
            ]
        },
        {
            "channels" : [
                {
                    "sampler" : 0,
                    "target" : {
                        "node" : 1,
                        "path" : "translation"
                    }
                },
                {
                    "sampler" : 1,
                    "target" : {
                        "node" : 1,
                        "path" : "rotation"
                    }
                },
                {
                    "sampler" : 2,
                    "target" : {
                        "node" : 1,
                        "path" : "scale"
                    }
                }
            ],
            "name" : "Dot_ShapeAction",
            "samplers" : [
                {
                    "input" : 12,
                    "interpolation" : "LINEAR",
                    "output" : 19
                },
                {
                    "input" : 12,
                    "interpolation" : "LINEAR",
                    "output" : 20
                },
                {
                    "input" : 12,
                    "interpolation" : "LINEAR",
                    "output" : 21
                }
            ]
        },
        {
            "channels" : [
                {
                    "sampler" : 0,
                    "target" : {
                        "node" : 2,
                        "path" : "translation"
                    }
                },
                {
                    "sampler" : 1,
                    "target" : {
                        "node" : 2,
                        "path" : "rotation"
                    }
                },
                {
                    "sampler" : 2,
                    "target" : {
                        "node" : 2,
                        "path" : "scale"
                    }
                }
            ],
            "name" : "Line_ShapeAction",
            "samplers" : [
                {
                    "input" : 12,
                    "interpolation" : "LINEAR",
                    "output" : 22
                },
                {
                    "input" : 12,
                    "interpolation" : "LINEAR",
                    "output" : 23
                },
                {
                    "input" : 12,
                    "interpolation" : "LINEAR",
                    "output" : 24
                }
            ]
        }
    ],
    "materials" : [
        {
            "alphaMode" : "BLEND",
            "doubleSided" : true,
            "extensions" : {
                "KHR_materials_transmission" : {
                    "transmissionFactor" : 0.5
                },
                "KHR_materials_specular" : {
                    "specularColorFactor" : [
                        0.7047990657380485,
                        0.7047990657380485,
                        0.7047990657380485
                    ]
                },
                "KHR_materials_ior" : {
                    "ior" : 1.4500000476837158
                }
            },
            "name" : "Glass",
            "pbrMetallicRoughness" : {
                "baseColorFactor" : [
                    0.46207642555236816,
                    0.4620765149593353,
                    0.46207696199417114,
                    1
                ],
                "metallicFactor" : 0.9900000095367432,
                "roughnessFactor" : 0
            }
        }
    ],
    "meshes" : [
        {
            "name" : "Code_Curve",
            "primitives" : [
                {
                    "attributes" : {
                        "POSITION" : 0,
                        "TEXCOORD_0" : 1,
                        "NORMAL" : 2
                    },
                    "indices" : 3,
                    "material" : 0
                }
            ]
        },
        {
            "name" : "Dot_Curve",
            "primitives" : [
                {
                    "attributes" : {
                        "POSITION" : 4,
                        "TEXCOORD_0" : 5,
                        "NORMAL" : 6
                    },
                    "indices" : 7,
                    "material" : 0
                }
            ]
        },
        {
            "name" : "Line_Curve",
            "primitives" : [
                {
                    "attributes" : {
                        "POSITION" : 8,
                        "TEXCOORD_0" : 9,
                        "NORMAL" : 10
                    },
                    "indices" : 11,
                    "material" : 0
                }
            ]
        }
    ],
    "accessors" : [
        {
            "bufferView" : 0,
            "componentType" : 5126,
            "count" : 4095,
            "max" : [
                0.19863729178905487,
                0.012211276218295097,
                0.20152594149112701
            ],
            "min" : [
                -0.19863417744636536,
                -0.066367007791996,
                -0.001734615652821958
            ],
            "type" : "VEC3"
        },
        {
            "bufferView" : 1,
            "componentType" : 5126,
            "count" : 4095,
            "type" : "VEC2"
        },
        {
            "bufferView" : 2,
            "componentType" : 5126,
            "count" : 4095,
            "type" : "VEC3"
        },
        {
            "bufferView" : 3,
            "componentType" : 5123,
            "count" : 24558,
            "type" : "SCALAR"
        },
        {
            "bufferView" : 4,
            "componentType" : 5126,
            "count" : 4482,
            "max" : [
                0.04767586663365364,
                0.012915313243865967,
                0.04767587035894394
            ],
            "min" : [
                -0.04767586663365364,
                -0.06557192653417587,
                -0.04767586290836334
            ],
            "type" : "VEC3"
        },
        {
            "bufferView" : 5,
            "componentType" : 5126,
            "count" : 4482,
            "type" : "VEC2"
        },
        {
            "bufferView" : 6,
            "componentType" : 5126,
            "count" : 4482,
            "type" : "VEC3"
        },
        {
            "bufferView" : 7,
            "componentType" : 5123,
            "count" : 26880,
            "type" : "SCALAR"
        },
        {
            "bufferView" : 8,
            "componentType" : 5126,
            "count" : 1812,
            "max" : [
                0.06880466639995575,
                0.012085041031241417,
                0.032919786870479584
            ],
            "min" : [
                -0.06680002808570862,
                -0.06673606485128403,
                -0.036553505808115005
            ],
            "type" : "VEC3"
        },
        {
            "bufferView" : 9,
            "componentType" : 5126,
            "count" : 1812,
            "type" : "VEC2"
        },
        {
            "bufferView" : 10,
            "componentType" : 5126,
            "count" : 1812,
            "type" : "VEC3"
        },
        {
            "bufferView" : 11,
            "componentType" : 5123,
            "count" : 7332,
            "type" : "SCALAR"
        },
        {
            "bufferView" : 12,
            "componentType" : 5126,
            "count" : 281,
            "max" : [
                11.666666666666666
            ],
            "min" : [
                0
            ],
            "type" : "SCALAR"
        },
        {
            "bufferView" : 13,
            "componentType" : 5126,
            "count" : 281,
            "type" : "VEC3"
        },
        {
            "bufferView" : 14,
            "componentType" : 5126,
            "count" : 281,
            "type" : "VEC4"
        },
        {
            "bufferView" : 15,
            "componentType" : 5126,
            "count" : 281,
            "type" : "VEC3"
        },
        {
            "bufferView" : 16,
            "componentType" : 5126,
            "count" : 281,
            "type" : "VEC3"
        },
        {
            "bufferView" : 17,
            "componentType" : 5126,
            "count" : 281,
            "type" : "VEC4"
        },
        {
            "bufferView" : 18,
            "componentType" : 5126,
            "count" : 281,
            "type" : "VEC3"
        },
        {
            "bufferView" : 19,
            "componentType" : 5126,
            "count" : 281,
            "type" : "VEC3"
        },
        {
            "bufferView" : 20,
            "componentType" : 5126,
            "count" : 281,
            "type" : "VEC4"
        },
        {
            "bufferView" : 21,
            "componentType" : 5126,
            "count" : 281,
            "type" : "VEC3"
        },
        {
            "bufferView" : 22,
            "componentType" : 5126,
            "count" : 281,
            "type" : "VEC3"
        },
        {
            "bufferView" : 23,
            "componentType" : 5126,
            "count" : 281,
            "type" : "VEC4"
        },
        {
            "bufferView" : 24,
            "componentType" : 5126,
            "count" : 281,
            "type" : "VEC3"
        }
    ],
    "bufferViews" : [
        {
            "buffer" : 0,
            "byteLength" : 49140,
            "byteOffset" : 0,
            "target" : 34962
        },
        {
            "buffer" : 0,
            "byteLength" : 32760,
            "byteOffset" : 49140,
            "target" : 34962
        },
        {
            "buffer" : 0,
            "byteLength" : 49140,
            "byteOffset" : 81900,
            "target" : 34962
        },
        {
            "buffer" : 0,
            "byteLength" : 49116,
            "byteOffset" : 131040,
            "target" : 34963
        },
        {
            "buffer" : 0,
            "byteLength" : 53784,
            "byteOffset" : 180156,
            "target" : 34962
        },
        {
            "buffer" : 0,
            "byteLength" : 35856,
            "byteOffset" : 233940,
            "target" : 34962
        },
        {
            "buffer" : 0,
            "byteLength" : 53784,
            "byteOffset" : 269796,
            "target" : 34962
        },
        {
            "buffer" : 0,
            "byteLength" : 53760,
            "byteOffset" : 323580,
            "target" : 34963
        },
        {
            "buffer" : 0,
            "byteLength" : 21744,
            "byteOffset" : 377340,
            "target" : 34962
        },
        {
            "buffer" : 0,
            "byteLength" : 14496,
            "byteOffset" : 399084,
            "target" : 34962
        },
        {
            "buffer" : 0,
            "byteLength" : 21744,
            "byteOffset" : 413580,
            "target" : 34962
        },
        {
            "buffer" : 0,
            "byteLength" : 14664,
            "byteOffset" : 435324,
            "target" : 34963
        },
        {
            "buffer" : 0,
            "byteLength" : 1124,
            "byteOffset" : 449988
        },
        {
            "buffer" : 0,
            "byteLength" : 3372,
            "byteOffset" : 451112
        },
        {
            "buffer" : 0,
            "byteLength" : 4496,
            "byteOffset" : 454484
        },
        {
            "buffer" : 0,
            "byteLength" : 3372,
            "byteOffset" : 458980
        },
        {
            "buffer" : 0,
            "byteLength" : 3372,
            "byteOffset" : 462352
        },
        {
            "buffer" : 0,
            "byteLength" : 4496,
            "byteOffset" : 465724
        },
        {
            "buffer" : 0,
            "byteLength" : 3372,
            "byteOffset" : 470220
        },
        {
            "buffer" : 0,
            "byteLength" : 3372,
            "byteOffset" : 473592
        },
        {
            "buffer" : 0,
            "byteLength" : 4496,
            "byteOffset" : 476964
        },
        {
            "buffer" : 0,
            "byteLength" : 3372,
            "byteOffset" : 481460
        },
        {
            "buffer" : 0,
            "byteLength" : 3372,
            "byteOffset" : 484832
        },
        {
            "buffer" : 0,
            "byteLength" : 4496,
            "byteOffset" : 488204
        },
        {
            "buffer" : 0,
            "byteLength" : 3372,
            "byteOffset" : 492700
        }
    ],
    "buffers" : [
        {
            "byteLength" : 496072,
            "uri" : "data:application/octet-stream;base64,"
        }
    ]
}
