{
    "asset" : {
        "generator" : "Khronos glTF Blender I/O v3.3.36",
        "version" : "2.0"
    },
    "extensionsUsed" : [
        "KHR_materials_transmission",
        "KHR_materials_specular",
        "KHR_materials_ior"
    ],
    "scene" : 0,
    "scenes" : [
        {
            "name" : "Scene",
            "nodes" : [
                1
            ]
        }
    ],
    "nodes" : [
        {
            "mesh" : 0,
            "name" : "Cube.009",
            "rotation" : [
                -1,
                0,
                0,
                4.371138828673793e-08
            ],
            "translation" : [
                -0.003245864063501358,
                0,
                0.026204075664281845
            ]
        },
        {
            "children" : [
                0
            ],
            "mesh" : 1,
            "name" : "Cube.008",
            "translation" : [
                0.0016229338943958282,
                0,
                -0.013102037832140923
            ]
        }
    ],
    "animations" : [
        {
            "channels" : [
                {
                    "sampler" : 0,
                    "target" : {
                        "node" : 1,
                        "path" : "translation"
                    }
                },
                {
                    "sampler" : 1,
                    "target" : {
                        "node" : 1,
                        "path" : "rotation"
                    }
                },
                {
                    "sampler" : 2,
                    "target" : {
                        "node" : 1,
                        "path" : "scale"
                    }
                }
            ],
            "name" : "Cube.008",
            "samplers" : [
                {
                    "input" : 10,
                    "interpolation" : "LINEAR",
                    "output" : 11
                },
                {
                    "input" : 10,
                    "interpolation" : "LINEAR",
                    "output" : 12
                },
                {
                    "input" : 10,
                    "interpolation" : "LINEAR",
                    "output" : 13
                }
            ]
        },
        {
            "channels" : [
                {
                    "sampler" : 0,
                    "target" : {
                        "node" : 0,
                        "path" : "translation"
                    }
                },
                {
                    "sampler" : 1,
                    "target" : {
                        "node" : 0,
                        "path" : "rotation"
                    }
                },
                {
                    "sampler" : 2,
                    "target" : {
                        "node" : 0,
                        "path" : "scale"
                    }
                }
            ],
            "name" : "Cube.009",
            "samplers" : [
                {
                    "input" : 10,
                    "interpolation" : "LINEAR",
                    "output" : 14
                },
                {
                    "input" : 10,
                    "interpolation" : "LINEAR",
                    "output" : 15
                },
                {
                    "input" : 10,
                    "interpolation" : "LINEAR",
                    "output" : 16
                }
            ]
        }
    ],
    "materials" : [
        {
            "alphaMode" : "BLEND",
            "doubleSided" : true,
            "extensions" : {
                "KHR_materials_transmission" : {
                    "transmissionFactor" : 0.5
                },
                "KHR_materials_specular" : {
                    "specularColorFactor" : [
                        0.7047990657380485,
                        0.7047990657380485,
                        0.7047990657380485
                    ]
                },
                "KHR_materials_ior" : {
                    "ior" : 1.4500000476837158
                }
            },
            "name" : "Basic glass.003",
            "pbrMetallicRoughness" : {
                "baseColorFactor" : [
                    0.46207642555236816,
                    0.4620765149593353,
                    0.46207696199417114,
                    1
                ],
                "metallicFactor" : 0.9900000095367432,
                "roughnessFactor" : 0
            }
        }
    ],
    "meshes" : [
        {
            "name" : "Cube.009",
            "primitives" : [
                {
                    "attributes" : {
                        "POSITION" : 0,
                        "NORMAL" : 1,
                        "TEXCOORD_0" : 2,
                        "TEXCOORD_1" : 3
                    },
                    "indices" : 4,
                    "material" : 0
                }
            ]
        },
        {
            "name" : "Cube.008",
            "primitives" : [
                {
                    "attributes" : {
                        "POSITION" : 5,
                        "NORMAL" : 6,
                        "TEXCOORD_0" : 7,
                        "TEXCOORD_1" : 8
                    },
                    "indices" : 9,
                    "material" : 0
                }
            ]
        }
    ],
    "accessors" : [
        {
            "bufferView" : 0,
            "componentType" : 5126,
            "count" : 1765,
            "max" : [
                0.006838133092969656,
                0.0017896677600219846,
                0.038971103727817535
            ],
            "min" : [
                -0.006664763204753399,
                -0.0017896677600219846,
                -0.03966110199689865
            ],
            "type" : "VEC3"
        },
        {
            "bufferView" : 1,
            "componentType" : 5126,
            "count" : 1765,
            "type" : "VEC3"
        },
        {
            "bufferView" : 2,
            "componentType" : 5126,
            "count" : 1765,
            "type" : "VEC2"
        },
        {
            "bufferView" : 3,
            "componentType" : 5126,
            "count" : 1765,
            "type" : "VEC2"
        },
        {
            "bufferView" : 4,
            "componentType" : 5123,
            "count" : 8832,
            "type" : "SCALAR"
        },
        {
            "bufferView" : 5,
            "componentType" : 5126,
            "count" : 9284,
            "max" : [
                0.018899936228990555,
                0.0018511993112042546,
                0.04492209479212761
            ],
            "min" : [
                -0.019165607169270515,
                -0.001851199078373611,
                -0.04490254074335098
            ],
            "type" : "VEC3"
        },
        {
            "bufferView" : 6,
            "componentType" : 5126,
            "count" : 9284,
            "type" : "VEC3"
        },
        {
            "bufferView" : 7,
            "componentType" : 5126,
            "count" : 9284,
            "type" : "VEC2"
        },
        {
            "bufferView" : 8,
            "componentType" : 5126,
            "count" : 9284,
            "type" : "VEC2"
        },
        {
            "bufferView" : 9,
            "componentType" : 5123,
            "count" : 47712,
            "type" : "SCALAR"
        },
        {
            "bufferView" : 10,
            "componentType" : 5126,
            "count" : 301,
            "max" : [
                12.5
            ],
            "min" : [
                0
            ],
            "type" : "SCALAR"
        },
        {
            "bufferView" : 11,
            "componentType" : 5126,
            "count" : 301,
            "type" : "VEC3"
        },
        {
            "bufferView" : 12,
            "componentType" : 5126,
            "count" : 301,
            "type" : "VEC4"
        },
        {
            "bufferView" : 13,
            "componentType" : 5126,
            "count" : 301,
            "type" : "VEC3"
        },
        {
            "bufferView" : 14,
            "componentType" : 5126,
            "count" : 301,
            "type" : "VEC3"
        },
        {
            "bufferView" : 15,
            "componentType" : 5126,
            "count" : 301,
            "type" : "VEC4"
        },
        {
            "bufferView" : 16,
            "componentType" : 5126,
            "count" : 301,
            "type" : "VEC3"
        }
    ],
    "bufferViews" : [
        {
            "buffer" : 0,
            "byteLength" : 21180,
            "byteOffset" : 0,
            "target" : 34962
        },
        {
            "buffer" : 0,
            "byteLength" : 21180,
            "byteOffset" : 21180,
            "target" : 34962
        },
        {
            "buffer" : 0,
            "byteLength" : 14120,
            "byteOffset" : 42360,
            "target" : 34962
        },
        {
            "buffer" : 0,
            "byteLength" : 14120,
            "byteOffset" : 56480,
            "target" : 34962
        },
        {
            "buffer" : 0,
            "byteLength" : 17664,
            "byteOffset" : 70600,
            "target" : 34963
        },
        {
            "buffer" : 0,
            "byteLength" : 111408,
            "byteOffset" : 88264,
            "target" : 34962
        },
        {
            "buffer" : 0,
            "byteLength" : 111408,
            "byteOffset" : 199672,
            "target" : 34962
        },
        {
            "buffer" : 0,
            "byteLength" : 74272,
            "byteOffset" : 311080,
            "target" : 34962
        },
        {
            "buffer" : 0,
            "byteLength" : 74272,
            "byteOffset" : 385352,
            "target" : 34962
        },
        {
            "buffer" : 0,
            "byteLength" : 95424,
            "byteOffset" : 459624,
            "target" : 34963
        },
        {
            "buffer" : 0,
            "byteLength" : 1204,
            "byteOffset" : 555048
        },
        {
            "buffer" : 0,
            "byteLength" : 3612,
            "byteOffset" : 556252
        },
        {
            "buffer" : 0,
            "byteLength" : 4816,
            "byteOffset" : 559864
        },
        {
            "buffer" : 0,
            "byteLength" : 3612,
            "byteOffset" : 564680
        },
        {
            "buffer" : 0,
            "byteLength" : 3612,
            "byteOffset" : 568292
        },
        {
            "buffer" : 0,
            "byteLength" : 4816,
            "byteOffset" : 571904
        },
        {
            "buffer" : 0,
            "byteLength" : 3612,
            "byteOffset" : 576720
        }
    ],
    "buffers" : [
        {
            "byteLength" : 580332,
            "uri" : "data:application/octet-stream;base64,"
        }
    ]
}
