<svg width="239" height="39" viewBox="0 0 239 39" fill="none" xmlns="http://www.w3.org/2000/svg">
<path d="M17.6453 37.8096V21.6427L9.96569 31.4031L2.29977 21.6427V37.8096H0V17.2759H1.28678L9.96569 28.3367L18.6446 17.2759H20.0135V37.8096H17.6453Z" fill="#532A29"/>
<path d="M42.3586 37.8096H39.8398L48.3682 17.2759H49.655L58.1559 37.8096H55.6234L53.3921 32.3339H44.6037L42.3586 37.8096ZM45.425 30.1984H52.5981L49.0116 21.4648L45.425 30.1984Z" fill="#532A29"/>
<path d="M84.6764 17.2207C89.9193 17.2207 93.5606 20.0544 93.5606 24.6402C93.588 26.1811 93.0784 27.6835 92.1194 28.8899C91.1603 30.0962 89.8114 30.9314 88.304 31.2521C89.7575 32.0254 90.9451 33.2177 91.7126 34.6743L93.7659 37.8092H91.1513L89.4812 35.1945C87.7427 32.5252 86.7434 32.0734 84.5668 32.046H80.3643V37.8092H78.0234V17.2755L84.6764 17.2207ZM80.3643 29.8968H84.868C88.4272 29.8968 91.3977 28.3089 91.3977 24.6402C91.3977 20.9715 88.4135 19.3699 84.868 19.3699H80.3643V29.8968Z" fill="#532A29"/>
<path d="M130.457 28.966C130.457 34.5785 126.98 38.0145 122.065 38.0145C117.151 38.0145 113.688 34.5785 113.688 28.966V17.2207H115.987V28.8975C115.987 33.4013 118.369 35.879 122.065 35.879C125.761 35.879 128.157 33.4013 128.157 28.8975V17.2207H130.457V28.966Z" fill="#532A29"/>
<path d="M158.287 17.0156C159.71 17.0136 161.115 17.3282 162.401 17.9367C163.686 18.5453 164.82 19.4324 165.721 20.5337L164.228 21.9027C163.483 21.0578 162.57 20.3779 161.547 19.9065C160.524 19.435 159.414 19.1824 158.287 19.1648H157.959C155.782 19.1648 153.168 20.3147 153.168 22.7514C153.168 24.5447 154.536 25.4892 157.575 25.8177L159.807 26.1052C163.914 26.6391 166.432 28.227 166.432 31.9642C166.432 35.7013 162.983 37.9874 158.835 38.0148H158.671C154.564 38.0148 151.662 36.1393 150.375 33.5521L151.867 32.1832C152.812 34.2639 155.166 35.8929 158.712 35.8929H158.794C161.71 35.8929 164.092 34.4145 164.092 31.9779C164.092 29.5412 162.449 28.6514 159.506 28.2407L157.274 27.9806C153.168 27.4468 150.827 25.9136 150.827 22.8335C150.827 19.2743 154.153 17.0567 157.918 17.0293L158.287 17.0156Z" fill="#532A29"/>
<path d="M192.498 37.8092V30.7593L184.668 17.2207H187.283L193.675 27.9941L200.027 17.2207H202.601L194.743 30.7593V37.8092H192.498Z" fill="#532A29"/>
<path d="M223.134 37.8096H220.602L229.13 17.2759H230.499L239 37.8096H236.413L234.181 32.3339H225.379L223.134 37.8096ZM226.187 30.1984H233.374L229.773 21.4648L226.187 30.1984Z" fill="#532A29"/>
<path d="M203.559 1.013L196.071 12.6077L194.305 11.5947L201.793 0L203.559 1.013Z" fill="#532A29"/>
</svg>
