<svg width="1002" height="1096" viewBox="0 0 1002 1096" fill="none" xmlns="http://www.w3.org/2000/svg">
<g opacity="0.1">
<path fill-rule="evenodd" clip-rule="evenodd" d="M1001.65 511C1001.65 834.087 739.735 1096 416.648 1096C93.5619 1096 -168.352 834.087 -168.352 511C-168.352 187.913 93.5619 -74 416.648 -74C739.735 -74 1001.65 187.913 1001.65 511ZM978.248 511C978.248 821.163 726.812 1072.6 416.648 1072.6C106.485 1072.6 -144.952 821.163 -144.952 511C-144.952 200.837 106.485 -50.6 416.648 -50.6C726.812 -50.6 978.248 200.837 978.248 511Z" fill="#532A29"/>
<path d="M595.548 757.488V379.184L415.846 607.576L236.463 379.184V757.488H182.648V277H212.759L415.846 535.823L618.932 277H650.964V757.488H595.548Z" fill="#532A29"/>
</g>
</svg>
