<svg width="734" height="1096" viewBox="0 0 734 1096" fill="none" xmlns="http://www.w3.org/2000/svg">
<g opacity="0.05">
<path d="M657.725 781.9C657.725 882.958 632.488 960.8 582.697 1014.74C532.906 1068.69 461.289 1096 367.845 1096C274.401 1096 202.784 1068.69 152.993 1014.74C103.202 960.8 77.9651 882.275 77.9651 781.216C77.9651 679.475 103.202 602.316 152.993 548.373C203.466 495.112 275.084 467.799 368.527 467.799C461.971 467.799 533.588 495.112 583.379 549.055C633.171 602.999 657.725 680.158 657.725 781.9ZM213.015 781.9C213.015 850.182 225.974 901.394 251.893 936.218C277.812 971.042 316.69 988.113 367.845 988.113C470.838 988.113 522.675 919.83 522.675 782.582C522.675 645.334 471.52 576.368 368.527 576.368C317.372 576.368 278.494 593.439 251.893 628.263C225.974 662.405 213.015 713.617 213.015 781.9Z" fill="#222222"/>
<path d="M528.213 325.088C513.89 325.088 498.884 319.626 487.971 309.383C455.232 278.656 412.262 262.268 367.245 262.268C322.228 262.268 279.258 279.339 246.518 309.383C222.646 331.917 184.45 330.551 161.942 305.969C139.433 282.07 140.797 243.832 165.352 221.298C220.6 170.086 292.217 142.091 367.245 142.091C442.273 142.091 513.89 170.086 569.138 221.298C593.01 243.832 595.056 281.387 572.548 305.969C560.271 318.26 544.583 325.088 528.213 325.088Z" fill="#FFC030"/>
<path d="M59.6413 167.355C43.9536 167.355 27.584 161.209 15.9888 148.236C-6.51953 124.337 -5.15539 86.0987 19.3991 63.5654C114.207 -24.5193 237.662 -73 367.255 -73C496.848 -73 620.303 -24.5193 715.111 63.5654C738.984 86.0987 740.348 123.654 718.521 148.236C696.013 172.135 658.499 173.5 633.945 151.65C560.963 84.05 466.155 46.4947 367.255 46.4947C268.355 46.4947 172.865 84.05 100.565 151.65C88.9703 161.892 73.9648 167.355 59.6413 167.355Z" fill="#FFC030"/>
</g>
</svg>
