<svg width="188" height="52" viewBox="0 0 188 52" fill="none" xmlns="http://www.w3.org/2000/svg">
<path d="M29.102 37.779C29.102 42.2449 27.9855 45.6849 25.7828 48.0687C23.58 50.4526 20.4116 51.6596 16.2776 51.6596C12.1436 51.6596 8.97518 50.4526 6.77239 48.0687C4.56961 45.6849 3.45312 42.2148 3.45312 37.7488C3.45312 33.2527 4.56961 29.8429 6.77239 27.4591C9.00536 25.1054 12.1738 23.8984 16.3078 23.8984C20.4418 23.8984 23.6101 25.1054 25.8129 27.4893C28.0157 29.8731 29.102 33.2829 29.102 37.779ZM9.42782 37.779C9.42782 40.7965 10.0011 43.0597 11.1478 44.5986C12.2945 46.1375 14.0144 46.8919 16.2776 46.8919C20.834 46.8919 23.1273 43.8744 23.1273 37.8092C23.1273 31.744 20.8642 28.6963 16.3078 28.6963C14.0446 28.6963 12.3246 29.4507 11.1478 30.9896C10.0011 32.4984 9.42782 34.7615 9.42782 37.779Z" fill="#222222"/>
<path d="M60.9669 51.2969H54.449L50.7979 37.1448C50.6772 36.6318 50.4357 35.6058 50.1038 34.0066C49.7719 32.4374 49.5908 31.3511 49.5305 30.8382C49.4701 31.502 49.2589 32.5581 48.9873 34.0367C48.6856 35.5153 48.4744 36.5413 48.2933 37.1749L44.6723 51.2969H38.1846L31.3047 24.3203H36.9173L40.3572 39.0458C40.9607 41.7616 41.3832 44.1152 41.6548 46.1068C41.7151 45.4128 41.8962 44.3265 42.1677 42.8479C42.4393 41.3693 42.6807 40.2528 42.9221 39.4381L46.8449 24.3203H52.2463L56.169 39.4381C56.3501 40.1019 56.5613 41.1581 56.8027 42.5461C57.0743 43.9342 57.2553 45.1412 57.4062 46.137C57.5269 45.1714 57.7381 43.9945 58.0097 42.5461C58.2813 41.1279 58.5227 39.9511 58.7339 39.076L62.1739 24.3505H67.7865L60.9669 51.2969Z" fill="#222222"/>
<path d="M95.1568 51.298H87.8846L76.1464 30.8996H75.9956C76.237 34.4904 76.3577 37.0855 76.3577 38.6244V51.3282H71.2581V24.3516H78.4699L90.1779 44.5387H90.2986C90.1175 41.0384 90.027 38.5641 90.027 37.1157V24.3516H95.187V51.298H95.1568Z" fill="#222222"/>
<path d="M138.006 51.2969H131.488L127.837 37.1448C127.716 36.6318 127.475 35.6058 127.143 34.0066C126.811 32.4374 126.63 31.3511 126.57 30.8382C126.509 31.502 126.298 32.5581 126.026 34.0367C125.725 35.5153 125.513 36.5413 125.332 37.1749L121.711 51.2969H115.224L108.344 24.3203H113.956L117.396 39.0458C118 41.7616 118.422 44.1152 118.694 46.1068C118.754 45.4128 118.935 44.3265 119.207 42.8479C119.478 41.3693 119.72 40.2528 119.961 39.4381L123.884 24.3203H129.285L133.208 39.4381C133.389 40.1019 133.6 41.1581 133.842 42.5461C134.113 43.9342 134.294 45.1412 134.445 46.137C134.566 45.1714 134.777 43.9945 135.049 42.5461C135.32 41.1279 135.562 39.9511 135.773 39.076L139.213 24.3505H144.886L138.006 51.2969Z" fill="#222222"/>
<path d="M148.262 51.2969V24.3203H153.965V51.2969H148.262Z" fill="#222222"/>
<path d="M166.402 51.2969H160.789V24.3203H176.239V28.9975H166.402V35.9378H175.545V40.6149H166.402V51.2969Z" fill="#222222"/>
<path d="M181.52 51.2969V24.3203H187.223V51.2969H181.52Z" fill="#222222"/>
<path d="M23.3684 17.5928C22.7348 17.5928 22.0709 17.3514 21.5881 16.8988C20.1397 15.5409 18.2387 14.8167 16.2471 14.8167C14.2556 14.8167 12.3545 15.5711 10.9061 16.8988C9.84997 17.8946 8.16017 17.8342 7.16438 16.7479C6.1686 15.6918 6.22895 14.002 7.31526 13.0062C9.75945 10.743 12.9278 9.50586 16.2471 9.50586C19.5664 9.50586 22.7348 10.743 25.179 13.0062C26.2351 14.002 26.3256 15.6616 25.3298 16.7479C24.7867 17.2911 24.0927 17.5928 23.3684 17.5928Z" fill="#FFC030"/>
<path d="M2.63856 10.6217C1.94453 10.6217 1.22033 10.3501 0.707353 9.77675C-0.288428 8.72061 -0.228077 7.03082 0.858229 6.03504C5.05258 2.14244 10.5143 0 16.2476 0C21.9809 0 27.4426 2.14244 31.6369 6.03504C32.693 7.03082 32.7534 8.69044 31.7878 9.77675C30.792 10.8329 29.1324 10.8932 28.0461 9.92762C24.8173 6.94028 20.623 5.28066 16.2476 5.28066C11.8722 5.28066 7.64764 6.94028 4.44907 9.92762C3.93609 10.3802 3.27224 10.6217 2.63856 10.6217Z" fill="#FFC030"/>
</svg>
