<svg width="245" height="53" viewBox="0 0 245 53" fill="none" xmlns="http://www.w3.org/2000/svg">
<path d="M66.9693 35.3086L72.9218 43.0875H69.5916L64.9985 37.0776L62.2797 39.4863V43.0875H59.6172V30.0332H62.2797V35.9957L68.9883 30.0332H72.9218L66.9693 35.3086Z" fill="#0B9791"/>
<path d="M88.109 33.9503C88.109 31.7864 86.3233 30.0332 84.1193 30.0332H74.8125V43.0875H84.1193C86.3233 43.0875 88.109 41.3343 88.109 39.1704C88.109 38.1596 87.7069 37.2514 87.0633 36.5564C87.7149 35.8693 88.109 34.9533 88.109 33.9503ZM84.1193 40.4735H77.467V37.8595H84.1193C84.8432 37.8595 85.4465 38.4597 85.4465 39.1625C85.4546 39.897 84.8432 40.4735 84.1193 40.4735ZM84.1193 35.2533H77.467V32.6393H84.1193C84.8432 32.6393 85.4465 33.2395 85.4465 33.9424C85.4546 34.6768 84.8432 35.2533 84.1193 35.2533Z" fill="#0B9791"/>
<path d="M98.1997 30.0332H95.1189L88.6758 43.0875H91.5474L92.8345 40.4735H100.476L101.771 43.0875H104.643L98.1997 30.0332ZM94.1295 37.8674L94.1054 37.9069L96.6634 32.7341L99.1891 37.8674H94.1295Z" fill="#0B9791"/>
<path d="M116.81 30.0332V35.2533H108.83V30.0332H106.168V43.0875H108.83V37.8674H116.81V43.0875H119.465V30.0332H116.81Z" fill="#0B9791"/>
<path d="M134.82 32.6393H129.503V43.0875H126.84V32.6393H121.523V30.0332H134.82V32.6393Z" fill="#0B9791"/>
<path d="M150.183 32.6393H144.866V43.0875H142.204V32.6393H136.887V30.0332H150.183V32.6393Z" fill="#0B9791"/>
<path d="M155.178 40.4735V37.8674H163.857V35.2533H155.178V32.6393H164.203L165.82 30.0332H152.523V43.0875H165.82L164.203 40.4735H155.178Z" fill="#0B9791"/>
<path d="M182.584 43.0875H179.712L174.605 32.7341L169.489 43.0875H166.625L173.06 30.0332H176.141L182.584 43.0875Z" fill="#0B9791"/>
<path d="M207.321 35.3086L213.266 43.0875H209.935L205.342 37.0776L202.623 39.4863V43.0875H199.961V30.0332H202.623V35.9957L209.332 30.0332H213.266L207.321 35.3086Z" fill="#0B9791"/>
<path d="M227.625 33.9503V39.1704C227.625 41.3343 225.839 43.0875 223.635 43.0875H218.318C216.114 43.0875 214.328 41.3343 214.328 39.1704V33.9503C214.328 31.7864 216.114 30.0332 218.318 30.0332H223.635C225.839 30.0332 227.625 31.7864 227.625 33.9503ZM224.97 33.9503C224.97 33.2395 224.359 32.6472 223.643 32.6472H218.326C217.586 32.6472 216.999 33.2474 216.999 33.9503V39.1704C216.999 39.897 217.586 40.4735 218.326 40.4735H223.643C224.367 40.4735 224.97 39.897 224.97 39.1704V33.9503Z" fill="#0B9791"/>
<path d="M244.921 30.0332V43.0875H242.258V34.7321L237.601 41.6344L232.952 34.7321V43.0875H230.289V30.0332H232.952L237.601 36.9355L242.258 30.0332H244.921Z" fill="#0B9791"/>
<path d="M186.608 40.4735V37.8674H195.287V35.2533H186.608V32.6393H195.625L197.242 30.0332H183.945V43.0875H197.242L195.625 40.4735H186.608Z" fill="#0B9791"/>
<path d="M121.621 13.0558C121.621 10.8761 119.811 9.13867 117.631 9.13867H108.324V22.193H110.987V16.9728H117.631C119.755 16.9728 121.621 15.2354 121.621 13.0558ZM110.979 11.7527H117.623C117.985 11.7527 118.95 12.0449 118.95 13.0558C118.95 13.7823 118.339 14.3588 117.623 14.3588H110.979V11.7527Z" fill="#0B9791"/>
<path d="M70.2629 14.3666V13.0636C70.2629 12.3528 69.6516 11.7605 68.9357 11.7605H63.6187C62.8786 11.7605 62.2914 12.3607 62.2914 13.0636V18.2837C62.2914 19.0103 62.8786 19.5868 63.6187 19.5868H68.9357C69.6596 19.5868 70.2629 19.0103 70.2629 18.2837V16.9806H72.9255V18.2837C72.9255 20.4476 71.1397 22.2008 68.9357 22.2008H63.6187C61.4146 22.2008 59.6289 20.4476 59.6289 18.2837V13.0636C59.6289 10.8997 61.4146 9.14648 63.6187 9.14648H68.9357C71.1397 9.14648 72.9255 10.8997 72.9255 13.0636V14.3666H70.2629Z" fill="#0B9791"/>
<path d="M89.8975 9.13672V22.1989H87.2349V13.8435L82.5856 20.7379L77.9282 13.8435V22.1989H75.2656V9.13672H77.9282L82.5856 16.039L87.2349 9.13672H89.8975Z" fill="#0B9791"/>
<path d="M100.672 9.13672H97.5916L91.1484 22.191H94.0201L95.3071 19.577H102.949L104.244 22.191H107.116L100.672 9.13672ZM96.6022 16.9709L96.5781 17.0183L99.128 11.8455L101.654 16.9709H96.6022Z" fill="#0B9791"/>
<path d="M135.64 11.7507H130.323V22.191H127.661V11.7507H122.344V9.13672H135.64V11.7507Z" fill="#0B9791"/>
<path d="M147.489 14.3666V13.0636C147.489 12.3528 146.878 11.7605 146.162 11.7605H140.845C140.105 11.7605 139.518 12.3607 139.518 13.0636V18.2837C139.518 19.0103 140.105 19.5868 140.845 19.5868H146.162C146.886 19.5868 147.489 19.0103 147.489 18.2837V16.9806H150.152V18.2837C150.152 20.4476 148.366 22.2008 146.162 22.2008H140.845C138.641 22.2008 136.855 20.4476 136.855 18.2837V13.0636C136.855 10.8997 138.641 9.14648 140.845 9.14648H146.162C148.366 9.14648 150.152 10.8997 150.152 13.0636V14.3666H147.489Z" fill="#0B9791"/>
<path d="M46.3224 39.1866V13.0306L33.5487 5.82824L10.5593 18.8115V33.3979L23.3008 40.6239L36.0986 33.3979L36.0906 18.8036L33.5809 17.4373L20.7589 24.6239V27.5696L23.3008 28.9832L29.4946 25.619V29.6387L23.2927 33.0504L17.1794 29.6308V22.5706L33.597 13.386L39.6942 16.7424L39.6701 35.4275L23.3008 44.6989L6.98777 35.4433V16.1343L29.1969 3.29319L23.3812 0L0.351562 13.0227V39.1866L23.3008 52.2251L46.3224 39.1866Z" fill="#0B9791"/>
</svg>
