<svg width="1003" height="1096" viewBox="0 0 1003 1096" fill="none" xmlns="http://www.w3.org/2000/svg">
<g opacity="0.05">
<path fill-rule="evenodd" clip-rule="evenodd" d="M198.23 1000.81C139.754 1019.45 101.819 980.921 112.849 920.256C119.53 883.504 217.033 445.4 217.033 445.4C228.257 403.092 273.336 380.75 313.151 397.198C324.791 402.003 334.151 412.883 336.427 415.669C338.707 418.452 341.996 416.936 345.284 415.416C387.617 395.873 439.068 382.875 483.652 402.913C526.518 422.184 545.551 467.563 538.008 520.368C536.025 534.236 501.632 678.302 499.613 695.471C495.272 732.354 490.138 783.828 540.972 776.898C556.055 774.84 561.446 760.22 562.819 752.855C564.188 745.485 645.259 372.403 645.259 372.403C652.355 328.686 686.511 305.363 729.346 312.336C765.005 318.138 781.382 353.37 778.228 386.786C776.973 400.072 719.23 657.706 719.23 657.706C704.78 710.344 742.529 731.701 789.029 729.544C864.297 726.049 867.946 786.29 833.364 808.948C825.06 814.39 785.641 830.775 752.922 843.313C723.116 854.74 686.06 868.267 653.602 860.961C629.669 855.578 635.131 855.646 619.09 867.297C503.963 950.933 321.035 957.748 349.464 758.799C354.969 720.267 385.064 629.8 368.097 602.891C359.714 589.597 342.609 583.799 320.097 589.201C296.125 698.258 272.153 807.314 248.177 916.366C241.54 946.571 232.187 989.988 198.23 1000.82V1000.81ZM-354.511 269.865C-362.795 271.797 -403.116 277.876 -419.137 277.322C-454.005 276.119 -469.385 233.062 -456.253 204.661C-437.145 163.342 -279.543 105.171 -240.334 102.369C-145.684 87.369 -99.6867 117.796 -113.958 217.714C-116.258 233.798 -127.379 273.538 -132.805 298.413C-138.231 323.283 -252.69 810.373 -252.69 810.373C-266.122 879.899 -226.422 918.752 -181.153 922.773C-100.245 929.961 -77.0167 849.654 -62.4323 787.149C-14.959 583.558 35.7202 361.59 82.3704 157.793C82.3704 157.793 97.576 83.5181 132.527 45.4721C185.81 -12.5328 269.45 -51.6316 348.055 -58.3954C383.129 -61.4152 415.511 -53.8558 429.142 -18.988C445.178 21.1873 424.214 50.0948 390.68 68.0155C357.015 86.0115 320.461 86.2569 285.574 101.126C248.102 117.1 231.194 142.544 215.339 202.572C209.905 223.152 69.5076 861.673 69.5076 861.673C44.364 1002.59 -40.6369 1101.98 -190.957 1095.72C-316.366 1090.5 -411.772 996.59 -407.684 869.846C-405.855 813.151 -384.183 737.578 -378.661 711.191C-373.14 684.805 -278.886 321.847 -278.886 321.847C-264.927 265.508 -315.61 263.181 -354.511 269.861V269.865Z" fill="#2B2A29"/>
<path fill-rule="evenodd" clip-rule="evenodd" d="M770.161 -21.3916C813.938 -21.3916 852.819 -0.455042 877.357 31.9432C951.537 45.6014 1002.22 73.1079 1002.22 104.817C1002.22 134.801 956.896 161.026 889.246 175.341C866.778 218.176 821.885 247.404 770.157 247.404C718.259 247.404 673.236 217.982 650.843 174.913C584.309 160.507 539.887 134.505 539.887 104.817C539.887 73.4087 589.62 46.1239 662.653 32.339C687.175 -0.288816 726.198 -21.3916 770.153 -21.3916H770.161ZM902.54 89.7107C903.862 97.2779 904.559 105.059 904.559 113.006C904.559 115.179 904.5 117.336 904.401 119.481C921.589 115.29 931.626 110.244 931.626 104.817C931.626 99.1975 920.865 93.9851 902.54 89.7107ZM635.906 119.03C635.819 117.031 635.764 115.025 635.764 113.006C635.764 105.217 636.432 97.5827 637.707 90.1579C620.522 94.3492 610.493 99.3914 610.493 104.817C610.493 110.054 619.826 114.93 635.906 119.03ZM816.946 185.247C802.116 186.308 786.772 186.866 771.06 186.866C754.635 186.866 738.61 186.256 723.155 185.097C736.671 193.926 752.814 199.068 770.165 199.068C787.413 199.068 803.478 193.99 816.946 185.247ZM685.251 127.06C710.074 129.637 739.5 131.129 771.06 131.129C801.851 131.129 830.612 129.708 855.043 127.246C855.815 122.612 856.223 117.858 856.223 113.002C856.223 65.4734 817.69 26.9406 770.161 26.9406C722.632 26.9406 684.1 65.4694 684.1 113.002C684.1 117.791 684.495 122.485 685.247 127.06H685.251Z" fill="#2B2A29"/>
</g>
</svg>
