<svg width="83" height="78" viewBox="0 0 83 78" fill="none" xmlns="http://www.w3.org/2000/svg">
<path d="M6.78864 74.326C6.78864 74.6891 6.75846 75.0299 6.69787 75.3482C6.63751 75.6666 6.5281 75.9454 6.37031 76.185C6.2123 76.4243 5.99659 76.6125 5.72296 76.7494C5.44933 76.8863 5.09936 76.9547 4.67304 76.9547H3.19703C3.13378 76.9547 3.09028 76.9442 3.06676 76.9232C3.04301 76.9021 3.03125 76.8679 3.03125 76.8204V71.8553C3.03125 71.771 3.07852 71.7288 3.17328 71.7288H4.67304C5.09403 71.7288 5.44134 71.7961 5.71497 71.9301C5.9886 72.0644 6.20431 72.2483 6.36232 72.4827C6.52011 72.7168 6.63063 72.9918 6.69388 73.3076C6.75713 73.6234 6.78864 73.9627 6.78864 74.3258V74.326ZM6.14151 74.3892C6.14151 73.9472 6.10068 73.5894 6.01923 73.3158C5.93756 73.0422 5.82838 72.8291 5.69167 72.6764C5.55474 72.5238 5.39829 72.4212 5.22208 72.3686C5.04565 72.316 4.86301 72.2896 4.67348 72.2896H3.64731V76.3863H4.61823C4.7971 76.3863 4.97597 76.3639 5.15506 76.3191C5.33393 76.2745 5.49704 76.1824 5.6444 76.0428C5.79176 75.9034 5.91138 75.7019 6.00347 75.4389C6.09557 75.176 6.14173 74.826 6.14173 74.3892H6.14151ZM20.3076 76.8284C20.2918 76.881 20.2707 76.9152 20.2445 76.9309C20.2181 76.9467 20.184 76.9547 20.142 76.9547H19.7314C19.6578 76.9547 19.6367 76.9125 19.6684 76.8284L21.3182 71.8475C21.3393 71.7685 21.3892 71.729 21.4682 71.729H21.9103C21.9629 71.729 21.9986 71.7395 22.0168 71.7606C22.0352 71.7816 22.0497 71.8105 22.0603 71.8473L23.7101 76.8439C23.7259 76.9176 23.7048 76.9545 23.6468 76.9545H23.1653C23.1231 76.9545 23.0929 76.9465 23.0745 76.9307C23.0561 76.915 23.0417 76.8888 23.031 76.8517L22.6442 75.557H20.7181L20.3076 76.828V76.8284ZM22.0758 73.6789L21.697 72.4001H21.6733L21.3022 73.6553L20.8997 74.9973H22.4707L22.0758 73.6791V73.6789ZM37.2998 72.8265H37.2761V76.8206C37.2761 76.9101 37.2312 76.9549 37.1418 76.9549H36.8182C36.7235 76.9549 36.6762 76.9103 36.6762 76.8206V71.8398C36.6762 71.7608 36.7184 71.7213 36.8025 71.7213H37.126C37.184 71.7213 37.2248 71.7333 37.2483 71.7568C37.2721 71.7805 37.2971 71.8107 37.3233 71.8475L39.4625 75.1471L39.8808 75.8102H39.9045V71.8635C39.9045 71.8056 39.915 71.7674 39.936 71.749C39.9571 71.7306 39.9913 71.7213 40.0386 71.7213H40.3701C40.4123 71.7213 40.4438 71.7306 40.4649 71.749C40.486 71.7674 40.4964 71.8056 40.4964 71.8635V76.8286C40.4964 76.9127 40.4545 76.9549 40.3701 76.9549H40.0703C40.0124 76.9549 39.9702 76.9445 39.944 76.9234C39.9176 76.9023 39.8914 76.8708 39.865 76.8286L37.7576 73.5763L37.2998 72.8265ZM55.8311 71.666C55.9101 71.666 56.0075 71.6687 56.1231 71.674C56.239 71.6793 56.3626 71.6898 56.4942 71.7055C56.6258 71.7213 56.7574 71.7424 56.889 71.7685C57.0206 71.795 57.1389 71.8291 57.2443 71.8711C57.3022 71.8975 57.3364 71.9237 57.3471 71.9501C57.3575 71.9765 57.3575 72.008 57.3471 72.0448L57.2996 72.2659C57.2891 72.2923 57.2745 72.3158 57.2561 72.3369C57.2377 72.358 57.2021 72.3633 57.1495 72.3529C56.976 72.3265 56.7721 72.3016 56.5377 72.2779C56.3036 72.2541 56.0681 72.2424 55.8311 72.2424C55.526 72.2424 55.2838 72.3003 55.105 72.4161C54.9261 72.532 54.7892 72.6884 54.6944 72.8857C54.5996 73.083 54.5391 73.3118 54.5129 73.5726C54.4867 73.8331 54.4734 74.1078 54.4734 74.3974C54.4734 74.6606 54.4891 74.9156 54.5209 75.1631C54.5524 75.4103 54.617 75.6289 54.7144 75.8182C54.8118 76.0077 54.9498 76.1591 55.1287 76.2723C55.3076 76.3854 55.5419 76.4418 55.8311 76.4418C56.0732 76.4418 56.3049 76.43 56.5257 76.4063C56.7468 76.3826 56.952 76.3575 57.1413 76.3313C57.1993 76.3209 57.2374 76.3273 57.2558 76.351C57.2743 76.3748 57.2887 76.3996 57.2993 76.4261L57.3388 76.6313C57.3493 76.6733 57.3506 76.7077 57.3428 76.7339C57.3349 76.7603 57.3047 76.7838 57.2521 76.8049C57.1573 76.847 57.0441 76.8812 56.9128 76.9076C56.7812 76.9338 56.6482 76.9549 56.5142 76.9707C56.3799 76.9864 56.2523 76.9984 56.1314 77.0062C56.0104 77.0142 55.9103 77.0179 55.8313 77.0179C55.4157 77.0179 55.0777 76.9456 54.8171 76.8009C54.5566 76.6562 54.3526 76.4627 54.2053 76.2206C54.0579 75.9784 53.9581 75.6995 53.9052 75.3839C53.8526 75.0681 53.8262 74.7392 53.8262 74.3972C53.8262 74.0499 53.8513 73.7119 53.9013 73.3828C53.9512 73.0539 54.0473 72.7632 54.1893 72.5107C54.3313 72.2581 54.534 72.0542 54.7972 71.8988C55.0604 71.7435 55.405 71.666 55.8311 71.666ZM73.431 76.8284C73.431 76.881 73.4205 76.9152 73.3995 76.9309C73.3784 76.9467 73.3442 76.9547 73.2969 76.9547H70.5262C70.4315 76.9547 70.3842 76.9125 70.3842 76.8284V71.8555C70.3842 71.7661 70.4315 71.7213 70.5262 71.7213H73.2497C73.3391 71.7213 73.3837 71.7634 73.3837 71.8475V72.1554C73.3837 72.2448 73.3364 72.2896 73.2417 72.2896H71V73.9552H73.0129C73.1023 73.9552 73.1471 73.9973 73.1471 74.0817V74.3895C73.1471 74.4736 73.1025 74.5157 73.0129 74.5157H71V76.3945H73.3049C73.389 76.3945 73.4312 76.4391 73.4312 76.5288V76.8286L73.431 76.8284Z" fill="#2B2A29"/>
<path fill-rule="evenodd" clip-rule="evenodd" d="M36.9597 59.4269C33.6808 60.4721 31.5537 58.3115 32.1722 54.9098C32.5468 52.8491 38.0141 28.2832 38.0141 28.2832C38.6435 25.9109 41.1712 24.6581 43.4037 25.5804C44.0564 25.8498 44.5813 26.4599 44.7089 26.6161C44.8367 26.7721 45.0211 26.6872 45.2055 26.6019C47.5792 25.5061 50.4642 24.7773 52.9642 25.9009C55.3679 26.9814 56.4351 29.526 56.0121 32.4869C55.9009 33.2645 53.9724 41.3428 53.8592 42.3055C53.6158 44.3736 53.3279 47.2599 56.1783 46.8713C57.0241 46.7559 57.3263 45.9361 57.4034 45.5231C57.4801 45.1099 62.026 24.1901 62.026 24.1901C62.4239 21.7387 64.3391 20.4309 66.741 20.8219C68.7405 21.1473 69.6589 23.1228 69.482 24.9965C69.4116 25.7415 66.1738 40.1879 66.1738 40.1879C65.3635 43.1395 67.4802 44.337 70.0876 44.216C74.3082 44.0201 74.5128 47.3979 72.5736 48.6685C72.108 48.9736 69.8977 49.8924 68.063 50.5954C66.3917 51.2361 64.3138 51.9947 62.4938 51.585C61.1519 51.2832 61.4581 51.2869 60.5587 51.9403C54.1031 56.63 43.8458 57.0121 45.4399 45.8565C45.7486 43.6958 47.4361 38.6231 46.4847 37.1142C46.0147 36.3688 45.0555 36.0437 43.7932 36.3466C42.449 42.4617 41.1048 48.5768 39.7604 54.6917C39.3883 56.3854 38.8638 58.8199 36.9597 59.4271V59.4269ZM5.96589 18.4405C5.50141 18.5488 3.24045 18.8896 2.3421 18.8586C0.386954 18.7911 -0.475441 16.3768 0.260901 14.7843C1.33235 12.4674 10.1696 9.20556 12.3682 9.04844C17.6755 8.20735 20.2547 9.9135 19.4544 15.5162C19.3255 16.4181 18.7019 18.6464 18.3976 20.0412C18.0934 21.4358 11.6753 48.7484 11.6753 48.7484C10.9221 52.6469 13.1482 54.8255 15.6866 55.051C20.2234 55.454 21.5258 50.9509 22.3436 47.4461C25.0056 36.0301 27.8473 23.5838 30.4632 12.1563C30.4632 12.1563 31.3158 7.99142 33.2756 5.85807C36.2634 2.60555 40.9533 0.41317 45.3609 0.0339021C47.3276 -0.135426 49.1434 0.288449 49.9077 2.2436C50.8069 4.49634 49.6314 6.11727 47.751 7.12214C45.8633 8.13123 43.8136 8.14499 41.8574 8.97876C39.7562 9.87444 38.8081 11.3012 37.9191 14.6671C37.6144 15.8211 29.7419 51.6249 29.7419 51.6249C28.332 59.5263 23.5658 65.0999 15.1369 64.7486C8.10479 64.4557 2.7551 59.1901 2.98435 52.0832C3.08688 48.9041 4.30213 44.6665 4.61171 43.187C4.9213 41.7074 10.2064 21.3552 10.2064 21.3552C10.9891 18.1961 8.14718 18.0656 5.96589 18.4402V18.4405Z" fill="#2B2A29"/>
<path fill-rule="evenodd" clip-rule="evenodd" d="M69.0294 2.10938C71.4841 2.10938 73.6642 3.28335 75.0402 5.10002C79.1997 5.86588 82.0416 7.40825 82.0416 9.1863C82.0416 10.8676 79.5002 12.3381 75.7068 13.1408C74.447 15.5426 71.9297 17.1815 69.0292 17.1815C66.1191 17.1815 63.5945 15.5318 62.3388 13.1168C58.6081 12.309 56.1172 10.8509 56.1172 9.1863C56.1172 7.42511 58.9059 5.89517 63.001 5.12221C64.3761 3.29267 66.5642 2.10938 69.0289 2.10938H69.0294ZM76.4523 8.33922C76.5264 8.76353 76.5655 9.19984 76.5655 9.64546C76.5655 9.76729 76.5621 9.88824 76.5566 10.0085C77.5204 9.77351 78.0832 9.49056 78.0832 9.1863C78.0832 8.87117 77.4798 8.57889 76.4523 8.33922ZM61.5013 9.98323C61.4964 9.87115 61.4933 9.75864 61.4933 9.64546C61.4933 9.20871 61.5308 8.78062 61.6023 8.36429C60.6387 8.59931 60.0763 8.88204 60.0763 9.1863C60.0763 9.4799 60.5996 9.75331 61.5013 9.98323ZM71.6527 13.6962C70.8212 13.7557 69.9608 13.787 69.0798 13.787C68.1588 13.787 67.2602 13.7528 66.3936 13.6878C67.1515 14.1829 68.0567 14.4712 69.0296 14.4712C69.9967 14.4712 70.8975 14.1865 71.6527 13.6962ZM64.2682 10.4335C65.6601 10.578 67.3101 10.6616 69.0798 10.6616C70.8063 10.6616 72.419 10.582 73.789 10.4439C73.8322 10.1841 73.8551 9.91754 73.8551 9.64524C73.8551 6.98016 71.6945 4.81951 69.0294 4.81951C66.3643 4.81951 64.2036 6.97993 64.2036 9.64524C64.2036 9.91376 64.2258 10.177 64.268 10.4335H64.2682Z" fill="#2B2A29"/>
</svg>
