<svg width="1003" height="1097" viewBox="0 0 1003 1097" fill="none" xmlns="http://www.w3.org/2000/svg">
<g opacity="0.05">
<path d="M-216.719 363.494C-226.787 359.299 -237.904 355.943 -250.069 353.426C-261.816 350.909 -277.337 349.65 -296.634 349.65C-318.029 349.65 -335.019 355.104 -347.604 366.011C-360.189 376.499 -366.482 388.454 -366.482 401.879C-366.482 415.303 -360.609 427.468 -348.863 438.375C-337.117 449.283 -314.254 458.721 -280.274 466.692C-250.069 473.404 -226.787 482.004 -210.426 492.491C-193.646 502.979 -181.9 514.935 -175.188 528.359C-168.476 541.364 -165.12 555.837 -165.12 571.778C-165.12 587.299 -169.105 602.192 -177.076 616.455C-184.627 630.299 -197.212 641.835 -214.831 651.064C-232.031 659.874 -255.104 664.278 -284.049 664.278C-325.161 664.278 -363.126 654.63 -397.945 635.333C-403.398 631.977 -406.125 627.362 -406.125 621.489C-406.125 617.713 -404.657 614.148 -401.72 610.792C-398.784 607.436 -395.008 605.758 -390.394 605.758C-387.877 605.758 -385.36 606.387 -382.843 607.645C-353.058 624.425 -320.127 632.816 -284.049 632.816C-255.523 632.816 -233.919 626.943 -219.236 615.196C-204.134 603.031 -196.583 588.558 -196.583 571.778C-196.583 554.159 -203.714 539.476 -217.977 527.73C-231.821 515.984 -254.684 506.125 -286.566 498.155C-316.351 490.604 -339.424 482.004 -355.785 472.355C-371.726 462.707 -382.843 451.8 -389.135 439.634C-395.008 427.468 -397.945 414.044 -397.945 399.362C-397.945 385.937 -394.169 373.143 -386.618 360.977C-378.647 348.392 -367.111 338.114 -352.009 330.143C-336.907 322.173 -318.449 318.188 -296.634 318.188C-273.562 318.188 -255.104 320.075 -241.26 323.851C-226.997 327.207 -212.104 332.031 -196.583 338.324C-189.871 340.841 -186.515 345.665 -186.515 352.797C-186.515 356.992 -188.193 360.767 -191.549 364.123C-194.485 367.06 -198.051 368.528 -202.246 368.528C-203.085 368.528 -204.344 368.318 -206.022 367.899C-207.7 367.06 -211.265 365.591 -216.719 363.494Z" fill="#222222"/>
<path d="M-41.5399 658.615C-45.735 658.615 -49.5105 657.147 -52.8665 654.21C-55.803 650.854 -57.2713 647.079 -57.2713 642.884V337.694C-57.2713 333.08 -55.803 329.304 -52.8665 326.368C-49.5105 323.431 -45.735 321.963 -41.5399 321.963H48.4437C73.1945 321.963 94.799 326.997 113.257 337.065C131.715 346.714 145.978 359.928 156.047 376.708C166.534 393.488 171.778 412.786 171.778 434.6C171.778 454.736 167.163 473.404 157.934 490.604C149.125 507.803 135.491 521.647 117.033 532.135C98.994 542.622 76.131 547.866 48.4437 547.866H-25.8085V642.884C-25.8085 647.079 -27.2768 650.854 -30.2133 654.21C-33.1498 657.147 -36.9254 658.615 -41.5399 658.615ZM-25.8085 353.426V516.403H48.4437C78.2285 516.403 100.882 508.642 116.403 493.121C132.345 477.18 140.315 457.673 140.315 434.6C140.315 410.269 131.715 390.762 114.516 376.079C97.3159 360.977 75.292 353.426 48.4437 353.426H-25.8085Z" fill="#222222"/>
<path d="M298.111 666.011C298.111 670.206 296.643 673.981 293.706 677.337C290.77 680.274 286.994 681.742 282.38 681.742C278.185 681.742 274.409 680.274 271.053 677.337C268.116 673.981 266.648 670.206 266.648 666.011V333.919C266.648 329.305 268.116 325.529 271.053 322.593C274.409 319.656 278.185 318.188 282.38 318.188C286.994 318.188 290.77 319.656 293.706 322.593C296.643 325.529 298.111 329.305 298.111 333.919V666.011Z" fill="#222222"/>
<path d="M595.661 363.494C585.592 359.299 574.476 355.943 562.31 353.426C550.564 350.909 535.042 349.65 515.745 349.65C494.35 349.65 477.36 355.104 464.775 366.011C452.19 376.499 445.898 388.454 445.898 401.879C445.898 415.303 451.771 427.468 463.517 438.375C475.263 449.283 498.126 458.721 532.106 466.692C562.31 473.404 585.593 482.004 601.953 492.491C618.733 502.979 630.479 514.935 637.192 528.359C643.904 541.364 647.26 555.837 647.26 571.778C647.26 587.299 643.274 602.192 635.304 616.455C627.753 630.299 615.168 641.835 597.548 651.064C580.349 659.874 557.276 664.278 528.33 664.278C487.219 664.278 449.254 654.63 414.435 635.333C408.981 631.977 406.254 627.362 406.254 621.489C406.254 617.713 407.723 614.148 410.659 610.792C413.596 607.436 417.371 605.758 421.986 605.758C424.503 605.758 427.02 606.387 429.537 607.645C459.322 624.425 492.253 632.816 528.33 632.816C556.856 632.816 578.461 626.943 593.144 615.196C608.246 603.031 615.797 588.558 615.797 571.778C615.797 554.159 608.665 539.476 594.402 527.73C580.558 515.984 557.695 506.125 525.813 498.155C496.028 490.604 472.956 482.004 456.595 472.355C440.654 462.707 429.537 451.8 423.244 439.634C417.371 427.468 414.435 414.044 414.435 399.362C414.435 385.937 418.21 373.143 425.761 360.977C433.732 348.392 445.268 338.114 460.371 330.143C475.473 322.173 493.931 318.188 515.745 318.188C538.818 318.188 557.276 320.075 571.12 323.851C585.383 327.207 600.275 332.031 615.797 338.324C622.509 340.841 625.865 345.665 625.865 352.797C625.865 356.992 624.187 360.767 620.831 364.123C617.894 367.06 614.329 368.528 610.133 368.528C609.294 368.528 608.036 368.318 606.358 367.899C604.68 367.06 601.114 365.591 595.661 363.494Z" fill="#222222"/>
<path d="M858.601 658.615C854.406 658.615 850.631 657.147 847.275 654.21C844.338 650.854 842.87 647.079 842.87 642.884V537.169C835.738 527.94 826.299 514.935 814.553 498.155C802.807 481.375 790.432 463.336 777.427 444.039C764.842 424.742 752.676 406.283 740.93 388.664C729.604 371.045 720.794 356.782 714.501 345.875C713.243 343.358 712.614 340.631 712.614 337.694C712.614 333.919 713.872 330.563 716.389 327.626C718.906 324.27 722.682 322.592 727.716 322.592C734.008 322.592 738.413 324.9 740.93 329.514C746.803 339.163 754.564 351.748 764.213 367.269C774.281 382.372 784.978 398.523 796.305 415.722C808.051 432.922 819.378 449.492 830.285 465.433C841.611 481.375 851.26 495.008 859.23 506.335C868.04 494.169 877.689 480.116 888.176 464.175C899.083 447.814 909.99 431.244 920.897 414.464C931.805 397.264 941.873 381.323 951.102 366.64C960.75 351.538 968.302 339.163 973.755 329.514C976.272 324.9 980.677 322.592 986.969 322.592C997.037 322.592 1002.07 327.626 1002.07 337.694C1002.07 340.631 1001.44 343.358 1000.18 345.875C993.891 356.362 985.291 370.206 974.384 387.406C963.897 404.186 952.36 422.225 939.775 441.522C927.19 460.399 915.025 478.438 903.278 495.638C891.952 512.837 882.303 527.101 874.333 538.427V642.884C874.333 647.079 872.864 650.854 869.928 654.21C866.991 657.147 863.216 658.615 858.601 658.615Z" fill="#222222"/>
<path fill-rule="evenodd" clip-rule="evenodd" d="M293.711 677.337C296.501 674.149 297.966 670.582 298.105 666.636C298.105 666.635 298.105 666.634 298.105 666.633V911.206C298.128 911.67 298.149 912.134 298.168 912.6C298.307 915.858 298.376 919.156 298.376 922.493C298.376 924.538 298.35 926.571 298.3 928.592C297.538 958.899 291.061 986.441 278.869 1011.22C278.082 1012.84 277.273 1014.45 276.44 1016.03C263.953 1039.8 246.305 1058.96 223.494 1073.51C220.505 1075.4 217.438 1077.17 214.291 1078.82C192.267 1090.39 166.389 1096.17 136.657 1096.17C104.775 1096.17 76.4581 1088.62 51.7073 1073.51C26.9566 1057.99 7.44968 1037.23 -6.81345 1011.22C-20.6571 985.209 -27.5789 956.263 -27.5789 924.381C-27.5789 889.143 -20.6571 858.309 -6.81345 831.88C7.03018 805.452 26.1176 784.896 50.4488 770.213C75.1996 755.531 103.936 748.189 136.657 748.189C166.442 748.189 193.5 755.531 217.831 770.213C219.054 770.939 220.264 771.678 221.461 772.432C239.418 783.743 254.496 798.279 266.695 816.04V667.222C266.711 667.454 266.732 667.685 266.757 667.914C267.139 671.356 268.572 674.497 271.058 677.337C271.477 677.704 271.903 678.048 272.336 678.369C275.364 680.618 278.714 681.742 282.384 681.742C286.999 681.742 290.775 680.273 293.711 677.337C293.711 677.337 293.711 677.337 293.711 677.337ZM124.305 770.568C165.573 770.568 202.741 789.519 228.747 819.797C229.739 820.859 230.714 821.94 231.672 823.039C238.377 830.735 244.251 839.345 249.294 848.87C250.762 851.545 252.139 854.268 253.423 857.041C262.416 876.449 266.913 898.267 266.913 922.493C266.913 924.145 266.893 925.788 266.854 927.422C266.264 951.928 261.25 974.407 251.811 994.858C251.475 995.57 251.135 996.278 250.788 996.981C245.596 1007.53 239.199 1016.97 231.597 1025.32C228.334 1029.35 224.879 1033.2 221.248 1036.84C195.829 1062.36 161.755 1077.97 124.305 1077.97C45.6648 1077.97 -18.0855 1009.15 -18.0855 924.267C-18.0855 839.382 45.6648 770.568 124.305 770.568Z" fill="#505050"/>
<path d="M-205.774 1023.86C-188.346 1046 -172.947 1066.12 -159.575 1084.21C-158.841 1085.26 -157.937 1086.18 -156.862 1086.97C-153.637 1089.32 -148.878 1090.5 -142.585 1090.5C-138.39 1090.5 -134.824 1089.04 -131.888 1086.1C-128.951 1082.74 -127.483 1078.97 -127.483 1074.77V769.584C-127.483 764.969 -128.951 761.194 -131.888 758.257C-134.824 755.321 -138.6 753.853 -143.215 753.853C-147.41 753.853 -151.185 755.321 -154.541 758.257C-154.908 758.624 -155.252 759.005 -155.574 759.398C-157.822 762.151 -158.946 765.546 -158.946 769.584V1033.24C-176.146 1010.59 -195.023 986.468 -215.579 960.878C-235.715 934.869 -255.851 909.279 -275.988 884.109C-295.704 858.519 -313.953 835.027 -330.733 813.632C-347.512 791.819 -361.146 773.99 -371.633 760.147C-371.634 760.146 -371.634 760.146 -371.635 760.145C-372.997 758.198 -374.947 756.703 -377.484 755.66C-380.414 754.455 -384.128 753.853 -388.624 753.853C-390.512 753.853 -392.348 754.22 -394.13 754.954C-395.913 755.688 -397.644 756.789 -399.322 758.257C-402.258 761.194 -403.727 764.969 -403.727 769.584V1074.77C-403.727 1074.77 -403.727 1074.77 -403.727 1074.77C-403.726 1076.87 -403.359 1078.86 -402.625 1080.75C-401.891 1082.64 -400.79 1084.42 -399.322 1086.1C-398.902 1086.47 -398.476 1086.81 -398.044 1087.13C-395.015 1089.38 -391.666 1090.5 -387.995 1090.5C-383.381 1090.5 -379.605 1089.04 -376.669 1086.1C-373.732 1082.74 -372.264 1078.97 -372.264 1074.77V811.115C-370.481 813.37 -368.668 815.667 -366.827 818.007C-353.933 834.388 -339.595 852.856 -323.811 873.411C-321.504 876.348 -319.187 879.297 -316.86 882.26C-300.571 902.999 -283.801 924.381 -266.549 946.405C-265.316 947.952 -264.087 949.497 -262.859 951.041C-244.449 974.195 -226.591 996.981 -209.286 1019.4C-208.107 1020.89 -206.936 1022.38 -205.774 1023.86Z" fill="#505050"/>
<path d="M481.042 1087.13C484.07 1089.38 487.42 1090.5 491.09 1090.5C495.705 1090.5 499.48 1089.04 502.417 1086.1C505.353 1082.74 506.822 1078.97 506.822 1074.77V785.315H627.01C631.624 785.315 635.399 783.847 638.336 780.911C638.336 780.911 638.336 780.911 638.336 780.911C641.273 777.555 642.741 773.779 642.741 769.585C642.741 769.584 642.741 769.584 642.741 769.584C642.741 764.97 641.273 761.194 638.337 758.258C638.337 758.258 638.336 758.258 638.336 758.257C635.4 755.321 631.624 753.853 627.01 753.853H357.688C353.493 753.853 349.717 755.321 346.361 758.257C345.994 758.624 345.65 759.005 345.329 759.398C343.081 762.151 341.957 765.546 341.957 769.584C341.957 769.846 341.962 770.107 341.974 770.366C342.146 774.249 343.608 777.764 346.361 780.911C346.781 781.278 347.207 781.622 347.64 781.943C350.668 784.191 354.017 785.315 357.688 785.315H475.359V1074.77C475.359 1075.04 475.365 1075.3 475.376 1075.55C475.548 1079.44 477.011 1082.95 479.764 1086.1C480.183 1086.47 480.609 1086.81 481.042 1087.13Z" fill="#505050"/>
<path d="M731.422 1087.13C734.45 1089.38 737.8 1090.5 741.47 1090.5H917.033C921.647 1090.5 925.422 1089.04 928.359 1086.1C928.359 1086.1 928.359 1086.1 928.359 1086.1C931.296 1082.74 932.764 1078.97 932.764 1074.77C932.764 1070.16 931.296 1066.38 928.36 1063.45C928.36 1063.45 928.36 1063.45 928.359 1063.45C925.423 1060.51 921.647 1059.04 917.033 1059.04H757.202V926.269H888.716C893.331 926.269 897.106 924.801 900.042 921.865C900.042 921.864 900.043 921.864 900.043 921.864C902.979 918.508 904.448 914.732 904.448 910.537C904.448 905.925 902.981 902.151 900.047 899.215C900.046 899.214 900.044 899.212 900.043 899.211C897.106 896.274 893.331 894.806 888.716 894.806H757.202V785.315H915.774C920.389 785.315 924.164 783.847 927.1 780.911C927.101 780.911 927.101 780.911 927.101 780.911C930.037 777.555 931.506 773.779 931.506 769.584C931.506 764.97 930.038 761.194 927.101 758.258C927.101 758.258 927.101 758.258 927.101 758.257C924.164 755.321 920.389 753.853 915.774 753.853H739.583C735.807 753.853 732.451 755.531 729.515 758.887C729.2 759.254 728.905 759.631 728.63 760.017C726.703 762.724 725.739 765.913 725.739 769.584V1074.77C725.739 1075.04 725.745 1075.3 725.756 1075.55C725.928 1079.44 727.391 1082.95 730.144 1086.1C730.563 1086.47 730.989 1086.81 731.422 1087.13Z" fill="#505050"/>
<path fill-rule="evenodd" clip-rule="evenodd" d="M293.711 677.337C296.501 674.149 297.966 670.582 298.105 666.636C298.105 666.635 298.105 666.634 298.105 666.633V911.206C298.128 911.67 298.149 912.134 298.168 912.6C298.307 915.858 298.376 919.156 298.376 922.493C298.376 924.538 298.35 926.571 298.3 928.592C297.538 958.899 291.061 986.441 278.869 1011.22C278.082 1012.84 277.273 1014.45 276.44 1016.03C263.953 1039.8 246.305 1058.96 223.494 1073.51C220.505 1075.4 217.438 1077.17 214.291 1078.82C192.267 1090.39 166.389 1096.17 136.657 1096.17C104.775 1096.17 76.4581 1088.62 51.7073 1073.51C26.9566 1057.99 7.44968 1037.23 -6.81345 1011.22C-20.6571 985.209 -27.5789 956.263 -27.5789 924.381C-27.5789 889.143 -20.6571 858.309 -6.81345 831.88C7.03018 805.452 26.1176 784.896 50.4488 770.213C75.1996 755.531 103.936 748.189 136.657 748.189C166.442 748.189 193.5 755.531 217.831 770.213C219.054 770.939 220.264 771.678 221.461 772.432C239.418 783.743 254.496 798.279 266.695 816.04V667.222C266.711 667.454 266.732 667.685 266.757 667.914C267.139 671.356 268.572 674.497 271.058 677.337C271.477 677.704 271.903 678.048 272.336 678.369C275.364 680.618 278.714 681.742 282.384 681.742C286.999 681.742 290.775 680.273 293.711 677.337C293.711 677.337 293.711 677.337 293.711 677.337ZM124.305 770.568C165.573 770.568 202.741 789.519 228.747 819.797C229.739 820.859 230.714 821.94 231.672 823.039C238.377 830.735 244.251 839.345 249.294 848.87C250.762 851.545 252.139 854.268 253.423 857.041C262.416 876.449 266.913 898.267 266.913 922.493C266.913 924.145 266.893 925.788 266.854 927.422C266.264 951.928 261.25 974.407 251.811 994.858C251.475 995.57 251.135 996.278 250.788 996.981C245.596 1007.53 239.199 1016.97 231.597 1025.32C228.334 1029.35 224.879 1033.2 221.248 1036.84C195.829 1062.36 161.755 1077.97 124.305 1077.97C45.6648 1077.97 -18.0855 1009.15 -18.0855 924.267C-18.0855 839.382 45.6648 770.568 124.305 770.568Z" fill="#505050"/>
<path d="M-205.774 1023.86C-188.346 1046 -172.947 1066.12 -159.575 1084.21C-158.841 1085.26 -157.937 1086.18 -156.862 1086.97C-153.637 1089.32 -148.878 1090.5 -142.585 1090.5C-138.39 1090.5 -134.824 1089.04 -131.888 1086.1C-128.951 1082.74 -127.483 1078.97 -127.483 1074.77V769.584C-127.483 764.969 -128.951 761.194 -131.888 758.257C-134.824 755.321 -138.6 753.853 -143.215 753.853C-147.41 753.853 -151.185 755.321 -154.541 758.257C-154.908 758.624 -155.252 759.005 -155.574 759.398C-157.822 762.151 -158.946 765.546 -158.946 769.584V1033.24C-176.146 1010.59 -195.023 986.468 -215.579 960.878C-235.715 934.869 -255.851 909.279 -275.988 884.109C-295.704 858.519 -313.953 835.027 -330.733 813.632C-347.512 791.819 -361.146 773.99 -371.633 760.147C-371.634 760.146 -371.634 760.146 -371.635 760.145C-372.997 758.198 -374.947 756.703 -377.484 755.66C-380.414 754.455 -384.128 753.853 -388.624 753.853C-390.512 753.853 -392.348 754.22 -394.13 754.954C-395.913 755.688 -397.644 756.789 -399.322 758.257C-402.258 761.194 -403.727 764.969 -403.727 769.584V1074.77C-403.727 1074.77 -403.727 1074.77 -403.727 1074.77C-403.726 1076.87 -403.359 1078.86 -402.625 1080.75C-401.891 1082.64 -400.79 1084.42 -399.322 1086.1C-398.902 1086.47 -398.476 1086.81 -398.044 1087.13C-395.015 1089.38 -391.666 1090.5 -387.995 1090.5C-383.381 1090.5 -379.605 1089.04 -376.669 1086.1C-373.732 1082.74 -372.264 1078.97 -372.264 1074.77V811.115C-370.481 813.37 -368.668 815.667 -366.827 818.007C-353.933 834.388 -339.595 852.856 -323.811 873.411C-321.504 876.348 -319.187 879.297 -316.86 882.26C-300.571 902.999 -283.801 924.381 -266.549 946.405C-265.316 947.952 -264.087 949.497 -262.859 951.041C-244.449 974.195 -226.591 996.981 -209.286 1019.4C-208.107 1020.89 -206.936 1022.38 -205.774 1023.86Z" fill="#505050"/>
<path d="M481.042 1087.13C484.07 1089.38 487.42 1090.5 491.09 1090.5C495.705 1090.5 499.48 1089.04 502.417 1086.1C505.353 1082.74 506.822 1078.97 506.822 1074.77V785.315H627.01C631.624 785.315 635.399 783.847 638.336 780.911C638.336 780.911 638.336 780.911 638.336 780.911C641.273 777.555 642.741 773.779 642.741 769.585C642.741 769.584 642.741 769.585 642.741 769.585C642.741 764.97 641.273 761.194 638.337 758.258C638.337 758.258 638.336 758.258 638.336 758.257C635.4 755.321 631.624 753.853 627.01 753.853H357.688C353.493 753.853 349.717 755.321 346.361 758.257C345.994 758.624 345.65 759.005 345.329 759.398C343.081 762.151 341.957 765.546 341.957 769.584C341.957 769.846 341.962 770.107 341.974 770.366C342.146 774.249 343.608 777.764 346.361 780.911C346.781 781.278 347.207 781.622 347.64 781.943C350.668 784.191 354.017 785.315 357.688 785.315H475.359V1074.77C475.359 1075.04 475.365 1075.3 475.376 1075.55C475.548 1079.44 477.011 1082.95 479.764 1086.1C480.183 1086.47 480.609 1086.81 481.042 1087.13Z" fill="#505050"/>
<path d="M731.422 1087.13C734.45 1089.38 737.8 1090.5 741.47 1090.5H917.033C921.647 1090.5 925.422 1089.04 928.359 1086.1C928.359 1086.1 928.359 1086.1 928.359 1086.1C931.296 1082.74 932.764 1078.97 932.764 1074.77C932.764 1070.16 931.296 1066.38 928.36 1063.45C928.36 1063.45 928.36 1063.45 928.359 1063.45C925.423 1060.51 921.647 1059.04 917.033 1059.04H757.202V926.269H888.716C893.331 926.269 897.106 924.801 900.042 921.865C900.042 921.864 900.043 921.864 900.043 921.864C902.979 918.508 904.448 914.732 904.448 910.537C904.448 905.925 902.981 902.151 900.047 899.215C900.046 899.214 900.044 899.212 900.043 899.211C897.106 896.274 893.331 894.806 888.716 894.806H757.202V785.315H915.774C920.389 785.315 924.164 783.847 927.1 780.911C927.101 780.911 927.101 780.911 927.101 780.911C930.037 777.555 931.506 773.779 931.506 769.584C931.506 764.97 930.038 761.194 927.101 758.258C927.101 758.258 927.101 758.258 927.101 758.257C924.164 755.321 920.389 753.853 915.774 753.853H739.583C735.807 753.853 732.451 755.531 729.515 758.887C729.2 759.254 728.905 759.631 728.63 760.017C726.703 762.724 725.739 765.913 725.739 769.584V1074.77C725.739 1075.04 725.745 1075.3 725.756 1075.55C725.928 1079.44 727.391 1082.95 730.144 1086.1C730.563 1086.47 730.989 1086.81 731.422 1087.13Z" fill="#505050"/>
<path fill-rule="evenodd" clip-rule="evenodd" d="M556.018 60.2696C567.155 21.1232 575.99 -18.6783 579.496 -59C539.647 -51.9177 501.58 -38.8523 463.58 -24.2742C426.371 -8.97349 390.087 10.0751 358.678 36.4847C326.411 60.6589 298.365 94.4968 283.48 134.568C275.281 154.638 273.2 175.95 272.632 197.195C272.064 218.439 276.034 239.482 282.239 259.667C283.164 263.414 286.324 266.305 290.14 266.893C292.037 267.157 293.941 267.428 295.851 267.699C314.667 270.374 334.054 273.13 353.219 270.9C374.329 268.442 395.303 262.96 414.631 254.519C453.218 236.126 482.912 205.246 505.63 170.888C528.348 136.53 544.091 98.6934 556.018 60.2696ZM467.01 -15.3332C503.362 -32.8691 541.362 -47.4472 579.496 -59C572.174 -19.2659 561.037 19.8804 545.95 55.4138C531.72 93.1825 513.607 128.851 491.544 160.906C468.691 192.239 439.652 220.816 405.468 235.982C388.376 243.565 369.636 248.19 350.762 249.79C338.039 250.868 324.897 250.243 312.06 248.58L378.175 172.37C389.389 173.05 400.545 172.444 411.644 170.551C423.678 168.499 434.921 165.724 446.888 162.159C458.854 158.594 469.24 153.583 479.559 147.06C489.878 140.537 498.616 132.569 506.565 123.879C497.894 133.359 488.365 140.605 477.979 145.615C467.593 150.625 456.416 154.913 445.173 157.688C433.206 161.253 421.895 162.516 409.794 163.055C406.881 162.991 403.922 162.979 400.938 162.967C396.178 162.947 391.357 162.927 386.567 162.696L567.222 -45.5442L297.242 234.521C294.33 221.843 291.865 209.145 290.784 196.385C290.697 177.443 293.635 158.366 299.666 140.667C312.451 104.478 337.607 73.8006 366.781 48.2486C397.467 22.6292 430.659 2.2028 467.01 -15.3332Z" fill="#222222"/>
<path fill-rule="evenodd" clip-rule="evenodd" d="M556.018 60.2696C567.155 21.1232 575.99 -18.6783 579.496 -59C539.647 -51.9177 501.58 -38.8523 463.58 -24.2742C426.371 -8.97349 390.087 10.0751 358.678 36.4847C326.411 60.6589 298.365 94.4968 283.48 134.568C275.281 154.638 273.2 175.95 272.632 197.195C272.064 218.439 276.034 239.482 282.239 259.667C283.164 263.414 286.324 266.305 290.14 266.893C292.037 267.157 293.941 267.428 295.851 267.699C314.667 270.374 334.054 273.13 353.219 270.9C374.329 268.442 395.303 262.96 414.631 254.519C453.218 236.126 482.912 205.246 505.63 170.888C528.348 136.53 544.091 98.6934 556.018 60.2696ZM467.01 -15.3332C503.362 -32.8691 541.362 -47.4472 579.496 -59C572.174 -19.2659 561.037 19.8804 545.95 55.4138C531.72 93.1825 513.607 128.851 491.544 160.906C468.691 192.239 439.652 220.816 405.468 235.982C388.376 243.565 369.636 248.19 350.762 249.79C338.039 250.868 324.897 250.243 312.06 248.58L378.175 172.37C389.389 173.05 400.545 172.444 411.644 170.551C423.678 168.499 434.921 165.724 446.888 162.159C458.854 158.594 469.24 153.583 479.559 147.06C489.878 140.537 498.616 132.569 506.565 123.879C497.894 133.359 488.365 140.605 477.979 145.615C467.593 150.625 456.416 154.913 445.173 157.688C433.206 161.253 421.895 162.516 409.794 163.055C406.881 162.991 403.922 162.979 400.938 162.967C396.178 162.947 391.357 162.927 386.567 162.696L567.222 -45.5442L297.242 234.521C294.33 221.843 291.865 209.145 290.784 196.385C290.697 177.443 293.635 158.366 299.666 140.667C312.451 104.478 337.607 73.8006 366.781 48.2486C397.467 22.6292 430.659 2.2028 467.01 -15.3332Z" fill="#222222"/>
</g>
</svg>
