<svg width="94" height="78" viewBox="0 0 94 78" fill="none" xmlns="http://www.w3.org/2000/svg">
<path fill-rule="evenodd" clip-rule="evenodd" d="M46.6882 49.152C46.8744 48.9392 46.9722 48.7011 46.9815 48.4377L46.9815 48.4375V64.7633C46.983 64.7942 46.9844 64.8252 46.9857 64.8563C46.995 65.0738 46.9996 65.2939 46.9996 65.5167C46.9996 65.6532 46.9979 65.7889 46.9945 65.9238C46.9436 67.9469 46.5113 69.7854 45.6975 71.4393C45.6449 71.5478 45.5909 71.6549 45.5353 71.7607C44.7018 73.3474 43.5237 74.6263 42.0011 75.5977C41.8016 75.7237 41.5968 75.8418 41.3868 75.9521C39.9166 76.7239 38.1892 77.1098 36.2045 77.1098C34.0763 77.1098 32.1861 76.6058 30.534 75.5977C28.8818 74.5616 27.5797 73.1755 26.6276 71.4393C25.7035 69.7031 25.2414 67.7709 25.2414 65.6427C25.2414 63.2905 25.7035 61.2323 26.6276 59.4681C27.5517 57.7039 28.8258 56.3318 30.4499 55.3517C32.1021 54.3716 34.0203 53.8816 36.2045 53.8816C38.1927 53.8816 39.9989 54.3716 41.6231 55.3517C41.7047 55.4001 41.7854 55.4495 41.8654 55.4998C43.0641 56.2548 44.0705 57.2251 44.8848 58.4107V48.4768C44.8859 48.4923 44.8873 48.5077 44.889 48.523C44.9145 48.7528 45.0101 48.9624 45.1761 49.152C45.2041 49.1765 45.2325 49.1995 45.2614 49.2209C45.4635 49.371 45.6871 49.4461 45.9321 49.4461C46.2402 49.4461 46.4922 49.348 46.6882 49.152ZM35.38 55.3754C38.1347 55.3754 40.6157 56.6404 42.3517 58.6615C42.4179 58.7324 42.483 58.8046 42.5469 58.878C42.9945 59.3917 43.3867 59.9664 43.7233 60.6022C43.8213 60.7807 43.9132 60.9625 43.9989 61.1476C44.5992 62.4432 44.8994 63.8995 44.8994 65.5167C44.8994 65.627 44.8981 65.7366 44.8954 65.8457C44.8561 67.4815 44.5213 68.982 43.8913 70.3472C43.8689 70.3948 43.8461 70.442 43.823 70.4889C43.4764 71.1929 43.0494 71.8234 42.542 72.3804C42.3242 72.6496 42.0936 72.9065 41.8512 73.1498C40.1543 74.853 37.8799 75.8948 35.38 75.8948C30.1306 75.8948 25.8751 71.3014 25.8751 65.6351C25.8751 59.9688 30.1306 55.3754 35.38 55.3754Z" fill="#505050"/>
<path d="M13.3466 72.2828C14.5099 73.7612 15.5378 75.1041 16.4304 76.3118C16.4794 76.3818 16.5398 76.443 16.6116 76.4955C16.8268 76.653 17.1445 76.7318 17.5645 76.7318C17.8446 76.7318 18.0826 76.6338 18.2786 76.4378C18.4746 76.2138 18.5726 75.9617 18.5726 75.6817V55.3097C18.5726 55.0017 18.4746 54.7496 18.2786 54.5536C18.0826 54.3576 17.8306 54.2596 17.5225 54.2596C17.2425 54.2596 16.9905 54.3576 16.7665 54.5536C16.7419 54.5781 16.719 54.6035 16.6975 54.6298C16.5475 54.8135 16.4724 55.0402 16.4724 55.3097V72.9094C15.3243 71.3973 14.0642 69.7871 12.692 68.079C11.3479 66.3428 10.0038 64.6346 8.65965 62.9545C7.34352 61.2463 6.1254 59.6781 5.00529 58.25C3.88523 56.7939 2.97517 55.6038 2.27511 54.6798L2.27502 54.6796C2.18406 54.5497 2.0539 54.4499 1.88455 54.3803C1.68895 54.2998 1.44108 54.2596 1.14091 54.2596C1.0149 54.2596 0.892387 54.2841 0.773376 54.3331C0.654364 54.3821 0.538852 54.4556 0.426841 54.5536C0.230822 54.7496 0.132812 55.0017 0.132812 55.3097V75.6817L0.132813 75.6818C0.132826 75.8218 0.157328 75.9548 0.20632 76.0807C0.255325 76.2068 0.328832 76.3258 0.426841 76.4378C0.454844 76.4623 0.483284 76.4853 0.512162 76.5067C0.714307 76.6568 0.937892 76.7318 1.18292 76.7318C1.49095 76.7318 1.74297 76.6338 1.93899 76.4378C2.13501 76.2138 2.23302 75.9617 2.23302 75.6817V58.082C2.35203 58.2325 2.47301 58.3858 2.59596 58.542C3.45661 59.6355 4.41373 60.8682 5.46734 62.2404C5.62135 62.4364 5.77602 62.6333 5.93135 62.8311C7.01865 64.2155 8.1381 65.6427 9.28971 67.1129C9.37197 67.2161 9.45407 67.3193 9.536 67.4223C10.7649 68.9679 11.957 70.4889 13.1121 71.9853C13.1908 72.0851 13.269 72.1843 13.3466 72.2828Z" fill="#505050"/>
<path fill-rule="evenodd" clip-rule="evenodd" d="M46.6882 49.152C46.8744 48.9392 46.9722 48.7011 46.9815 48.4377L46.9815 48.4375V64.7633C46.983 64.7942 46.9844 64.8252 46.9857 64.8563C46.995 65.0738 46.9996 65.2939 46.9996 65.5167C46.9996 65.6532 46.9979 65.7889 46.9945 65.9238C46.9436 67.9469 46.5113 69.7854 45.6975 71.4393C45.6449 71.5478 45.5909 71.6549 45.5353 71.7607C44.7018 73.3474 43.5237 74.6263 42.0011 75.5977C41.8016 75.7237 41.5968 75.8418 41.3868 75.9521C39.9166 76.7239 38.1892 77.1098 36.2045 77.1098C34.0763 77.1098 32.1861 76.6058 30.534 75.5977C28.8818 74.5616 27.5797 73.1755 26.6276 71.4393C25.7035 69.7031 25.2414 67.7709 25.2414 65.6427C25.2414 63.2905 25.7035 61.2323 26.6276 59.4681C27.5517 57.7039 28.8258 56.3318 30.4499 55.3517C32.1021 54.3716 34.0203 53.8816 36.2045 53.8816C38.1927 53.8816 39.9989 54.3716 41.6231 55.3517C41.7047 55.4001 41.7854 55.4495 41.8654 55.4998C43.0641 56.2548 44.0705 57.2251 44.8848 58.4107V48.4768C44.8859 48.4923 44.8873 48.5077 44.889 48.523C44.9145 48.7528 45.0101 48.9624 45.1761 49.152C45.2041 49.1765 45.2325 49.1995 45.2614 49.2209C45.4635 49.371 45.6871 49.4461 45.9321 49.4461C46.2402 49.4461 46.4922 49.348 46.6882 49.152ZM35.38 55.3754C38.1347 55.3754 40.6157 56.6404 42.3517 58.6615C42.4179 58.7324 42.483 58.8046 42.5469 58.878C42.9945 59.3917 43.3867 59.9664 43.7233 60.6022C43.8213 60.7807 43.9132 60.9625 43.9989 61.1476C44.5992 62.4432 44.8994 63.8995 44.8994 65.5167C44.8994 65.627 44.8981 65.7366 44.8954 65.8457C44.8561 67.4815 44.5213 68.982 43.8913 70.3472C43.8689 70.3948 43.8461 70.442 43.823 70.4889C43.4764 71.1929 43.0494 71.8234 42.542 72.3804C42.3242 72.6496 42.0936 72.9065 41.8512 73.1498C40.1543 74.853 37.8799 75.8948 35.38 75.8948C30.1306 75.8948 25.8751 71.3014 25.8751 65.6351C25.8751 59.9688 30.1306 55.3754 35.38 55.3754Z" fill="#505050"/>
<path d="M13.3466 72.2828C14.5099 73.7612 15.5378 75.1041 16.4304 76.3118C16.4794 76.3818 16.5398 76.443 16.6116 76.4955C16.8268 76.653 17.1445 76.7318 17.5645 76.7318C17.8446 76.7318 18.0826 76.6338 18.2786 76.4378C18.4746 76.2138 18.5726 75.9617 18.5726 75.6817V55.3097C18.5726 55.0017 18.4746 54.7496 18.2786 54.5536C18.0826 54.3576 17.8306 54.2596 17.5225 54.2596C17.2425 54.2596 16.9905 54.3576 16.7665 54.5536C16.7419 54.5781 16.719 54.6035 16.6975 54.6298C16.5475 54.8135 16.4724 55.0402 16.4724 55.3097V72.9094C15.3243 71.3973 14.0642 69.7871 12.692 68.079C11.3479 66.3428 10.0038 64.6346 8.65965 62.9545C7.34352 61.2463 6.1254 59.6781 5.00529 58.25C3.88523 56.7939 2.97517 55.6038 2.27511 54.6798L2.27502 54.6796C2.18406 54.5497 2.0539 54.4499 1.88455 54.3803C1.68895 54.2998 1.44108 54.2596 1.14091 54.2596C1.0149 54.2596 0.892387 54.2841 0.773376 54.3331C0.654364 54.3821 0.538852 54.4556 0.426841 54.5536C0.230822 54.7496 0.132812 55.0017 0.132812 55.3097V75.6817L0.132813 75.6818C0.132826 75.8218 0.157328 75.9548 0.20632 76.0807C0.255325 76.2068 0.328832 76.3258 0.426841 76.4378C0.454844 76.4623 0.483284 76.4853 0.512162 76.5067C0.714307 76.6568 0.937892 76.7318 1.18292 76.7318C1.49095 76.7318 1.74297 76.6338 1.93899 76.4378C2.13501 76.2138 2.23302 75.9617 2.23302 75.6817V58.082C2.35203 58.2325 2.47301 58.3858 2.59596 58.542C3.45661 59.6355 4.41373 60.8682 5.46734 62.2404C5.62135 62.4364 5.77602 62.6333 5.93135 62.8311C7.01865 64.2155 8.1381 65.6427 9.28971 67.1129C9.37197 67.2161 9.45407 67.3193 9.536 67.4223C10.7649 68.9679 11.957 70.4889 13.1121 71.9853C13.1908 72.0851 13.269 72.1843 13.3466 72.2828Z" fill="#505050"/>
<path d="M62.502 76.5069C62.7041 76.6569 62.9277 76.732 63.1727 76.732C63.4808 76.732 63.7328 76.634 63.9288 76.438C64.1248 76.2139 64.2228 75.9619 64.2228 75.6819V56.36H72.2456C72.5537 56.36 72.8057 56.262 73.0017 56.066L73.0017 56.0659C73.1977 55.8419 73.2957 55.5899 73.2957 55.3099V55.3099C73.2957 55.0019 73.1978 54.7498 73.0018 54.5538L73.0017 54.5538C72.8057 54.3578 72.5537 54.2598 72.2456 54.2598H54.2679C53.9878 54.2598 53.7358 54.3578 53.5118 54.5538C53.4873 54.5783 53.4643 54.6037 53.4429 54.6299C53.2928 54.8137 53.2178 55.0403 53.2178 55.3099C53.2178 55.3274 53.2182 55.3448 53.2189 55.362C53.2304 55.6213 53.328 55.8559 53.5118 56.0659C53.5398 56.0904 53.5682 56.1134 53.5971 56.1349C53.7993 56.2849 54.0228 56.36 54.2679 56.36H62.1226V75.6819C62.1226 75.6994 62.123 75.7168 62.1238 75.7341C62.1353 75.9933 62.2329 76.2279 62.4167 76.438C62.4447 76.4625 62.4731 76.4854 62.502 76.5069Z" fill="#505050"/>
<path d="M79.2154 76.5069C79.4175 76.6569 79.6411 76.732 79.8861 76.732H91.6053C91.9133 76.732 92.1653 76.634 92.3613 76.438L92.3614 76.438C92.5574 76.2139 92.6554 75.9619 92.6554 75.6819C92.6554 75.3739 92.5574 75.1219 92.3614 74.9258L92.3614 74.9258C92.1653 74.7298 91.9133 74.6318 91.6053 74.6318H80.9362V65.7689H89.7151C90.0231 65.7689 90.2751 65.6709 90.4711 65.4749L90.4712 65.4749C90.6672 65.2508 90.7652 64.9988 90.7652 64.7188C90.7652 64.4109 90.6673 64.159 90.4715 63.963C90.4714 63.9629 90.4713 63.9628 90.4712 63.9627C90.2751 63.7667 90.0231 63.6687 89.7151 63.6687H80.9362V56.36H91.5213C91.8293 56.36 92.0813 56.262 92.2773 56.066L92.2773 56.0659C92.4734 55.8419 92.5714 55.5899 92.5714 55.3099C92.5714 55.0019 92.4734 54.7498 92.2774 54.5538L92.2773 54.5538C92.0813 54.3578 91.8293 54.2598 91.5213 54.2598H79.7601C79.5081 54.2598 79.2841 54.3718 79.088 54.5958C79.067 54.6203 79.0474 54.6455 79.029 54.6713C78.9003 54.852 78.836 55.0648 78.836 55.3099V75.6819C78.836 75.6994 78.8364 75.7168 78.8372 75.7341C78.8487 75.9933 78.9463 76.2279 79.13 76.438C79.158 76.4625 79.1865 76.4854 79.2154 76.5069Z" fill="#505050"/>
<path d="M62.502 76.5069C62.7041 76.6569 62.9277 76.732 63.1727 76.732C63.4808 76.732 63.7328 76.634 63.9288 76.438C64.1248 76.2139 64.2228 75.9619 64.2228 75.6819V56.36H72.2456C72.5537 56.36 72.8057 56.262 73.0017 56.066L73.0017 56.0659C73.1977 55.8419 73.2957 55.5899 73.2957 55.3099C73.2957 55.0019 73.1978 54.7498 73.0018 54.5538L73.0017 54.5538C72.8057 54.3578 72.5537 54.2598 72.2456 54.2598H54.2679C53.9878 54.2598 53.7358 54.3578 53.5118 54.5538C53.4873 54.5783 53.4643 54.6037 53.4429 54.6299C53.2928 54.8137 53.2178 55.0403 53.2178 55.3099C53.2178 55.3274 53.2182 55.3448 53.2189 55.362C53.2304 55.6213 53.328 55.8559 53.5118 56.0659C53.5398 56.0904 53.5682 56.1134 53.5971 56.1349C53.7993 56.2849 54.0228 56.36 54.2679 56.36H62.1226V75.6819C62.1226 75.6994 62.123 75.7168 62.1238 75.7341C62.1353 75.9933 62.2329 76.2279 62.4167 76.438C62.4447 76.4625 62.4731 76.4854 62.502 76.5069Z" fill="#505050"/>
<path d="M79.2154 76.5069C79.4175 76.6569 79.6411 76.732 79.8861 76.732H91.6053C91.9133 76.732 92.1653 76.634 92.3613 76.438L92.3614 76.438C92.5574 76.2139 92.6554 75.9619 92.6554 75.6819C92.6554 75.3739 92.5574 75.1219 92.3614 74.9258L92.3614 74.9258C92.1653 74.7298 91.9133 74.6318 91.6053 74.6318H80.9362V65.7689H89.7151C90.0231 65.7689 90.2751 65.6709 90.4711 65.4749L90.4712 65.4749C90.6672 65.2508 90.7652 64.9988 90.7652 64.7188C90.7652 64.4109 90.6673 64.159 90.4715 63.963C90.4714 63.9629 90.4713 63.9628 90.4712 63.9627C90.2751 63.7667 90.0231 63.6687 89.7151 63.6687H80.9362V56.36H91.5213C91.8293 56.36 92.0813 56.262 92.2773 56.066L92.2773 56.0659C92.4734 55.8419 92.5714 55.5899 92.5714 55.3099C92.5714 55.0019 92.4734 54.7498 92.2774 54.5538L92.2773 54.5538C92.0813 54.3578 91.8293 54.2598 91.5213 54.2598H79.7601C79.5081 54.2598 79.2841 54.3718 79.088 54.5958C79.067 54.6203 79.0474 54.6455 79.029 54.6713C78.9003 54.852 78.836 55.0648 78.836 55.3099V75.6819C78.836 75.6994 78.8364 75.7168 78.8372 75.7341C78.8487 75.9933 78.9463 76.2279 79.13 76.438C79.158 76.4625 79.1865 76.4854 79.2154 76.5069Z" fill="#505050"/>
<path fill-rule="evenodd" clip-rule="evenodd" d="M64.1985 7.96149C64.9419 5.34839 65.5317 2.69156 65.7657 0C63.1057 0.472755 60.5646 1.3449 58.0281 2.31802C55.5443 3.33937 53.1223 4.61091 51.0256 6.3738C48.8718 7.98748 46.9996 10.2462 46.006 12.9211C45.4587 14.2608 45.3198 15.6834 45.2819 17.1015C45.244 18.5196 45.509 19.9243 45.9232 21.2716C45.985 21.5218 46.1959 21.7148 46.4506 21.754C46.5772 21.7716 46.7043 21.7897 46.8318 21.8078C48.0879 21.9864 49.382 22.1704 50.6613 22.0215C52.0704 21.8574 53.4705 21.4915 54.7606 20.9281C57.3364 19.7002 59.3185 17.6389 60.835 15.3455C62.3515 13.052 63.4024 10.5264 64.1985 7.96149ZM58.2571 2.91485C60.6836 1.74429 63.2202 0.771172 65.7657 0C65.277 2.65233 64.5336 5.26543 63.5264 7.63736C62.5766 10.1585 61.3675 12.5394 59.8947 14.6792C58.3692 16.7707 56.4308 18.6783 54.149 19.6907C53.008 20.1968 51.7571 20.5056 50.4972 20.6123C49.648 20.6843 48.7707 20.6426 47.9138 20.5316L52.3271 15.4444C53.0757 15.4898 53.8204 15.4494 54.5612 15.323C55.3645 15.186 56.1151 15.0008 56.9138 14.7628C57.7126 14.5248 58.4059 14.1904 59.0947 13.755C59.7835 13.3195 60.3668 12.7876 60.8974 12.2075C60.3186 12.8404 59.6825 13.324 58.9892 13.6585C58.2959 13.9929 57.5499 14.2791 56.7994 14.4644C56.0006 14.7024 55.2455 14.7866 54.4377 14.8226C54.2433 14.8184 54.0458 14.8175 53.8466 14.8167C53.5289 14.8154 53.207 14.8141 52.8873 14.7987L64.9464 0.898204L46.9247 19.5932C46.7303 18.7469 46.5658 17.8992 46.4936 17.0475C46.4878 15.7831 46.6839 14.5096 47.0865 13.3282C47.9399 10.9125 49.6191 8.86471 51.5665 7.15906C53.6149 5.44891 55.8305 4.08541 58.2571 2.91485Z" fill="#222222"/>
<path fill-rule="evenodd" clip-rule="evenodd" d="M64.1985 7.96149C64.9419 5.34839 65.5317 2.69156 65.7657 0C63.1057 0.472755 60.5646 1.3449 58.0281 2.31802C55.5443 3.33937 53.1223 4.61091 51.0256 6.3738C48.8718 7.98748 46.9996 10.2462 46.006 12.9211C45.4587 14.2608 45.3198 15.6834 45.2819 17.1015C45.244 18.5196 45.509 19.9243 45.9232 21.2716C45.985 21.5218 46.1959 21.7148 46.4506 21.754C46.5772 21.7716 46.7043 21.7897 46.8318 21.8078C48.0879 21.9864 49.382 22.1704 50.6613 22.0215C52.0704 21.8574 53.4705 21.4915 54.7606 20.9281C57.3364 19.7002 59.3185 17.6389 60.835 15.3455C62.3515 13.052 63.4024 10.5264 64.1985 7.96149ZM58.2571 2.91485C60.6836 1.74429 63.2202 0.771172 65.7657 0C65.277 2.65233 64.5336 5.26543 63.5264 7.63736C62.5766 10.1585 61.3675 12.5394 59.8947 14.6792C58.3692 16.7707 56.4308 18.6783 54.149 19.6907C53.008 20.1968 51.7571 20.5056 50.4972 20.6123C49.648 20.6843 48.7707 20.6426 47.9138 20.5316L52.3271 15.4444C53.0757 15.4898 53.8204 15.4494 54.5612 15.323C55.3645 15.186 56.1151 15.0008 56.9138 14.7628C57.7126 14.5248 58.4059 14.1904 59.0947 13.755C59.7835 13.3195 60.3668 12.7876 60.8974 12.2075C60.3186 12.8404 59.6825 13.324 58.9892 13.6585C58.2959 13.9929 57.5499 14.2791 56.7994 14.4644C56.0006 14.7024 55.2455 14.7866 54.4377 14.8226C54.2433 14.8184 54.0458 14.8175 53.8466 14.8167C53.5289 14.8154 53.207 14.8141 52.8873 14.7987L64.9464 0.898204L46.9247 19.5932C46.7303 18.7469 46.5658 17.8992 46.4936 17.0475C46.4878 15.7831 46.6839 14.5096 47.0865 13.3282C47.9399 10.9125 49.6191 8.86471 51.5665 7.15906C53.6149 5.44891 55.8305 4.08541 58.2571 2.91485Z" fill="#222222"/>
<path d="M12.6432 28.202C11.9712 27.922 11.2291 27.698 10.417 27.53C9.63295 27.3619 8.59685 27.2779 7.30872 27.2779C5.88058 27.2779 4.74647 27.642 3.90638 28.37C3.0663 29.0701 2.64626 29.8682 2.64626 30.7643C2.64626 31.6604 3.0383 32.4725 3.82238 33.2005C4.60645 33.9286 6.1326 34.5587 8.40083 35.0907C10.417 35.5388 11.9712 36.1128 13.0633 36.8129C14.1834 37.5129 14.9675 38.311 15.4155 39.2071C15.8636 40.0752 16.0876 41.0413 16.0876 42.1054C16.0876 43.1415 15.8216 44.1356 15.2895 45.0877C14.7855 46.0118 13.9454 46.7819 12.7693 47.3979C11.6211 47.986 10.081 48.28 8.1488 48.28C5.40453 48.28 2.87028 47.6359 0.546054 46.3478C0.182018 46.1238 0 45.8158 0 45.4237C0 45.1717 0.0980096 44.9337 0.294029 44.7097C0.490048 44.4856 0.742073 44.3736 1.0501 44.3736C1.21812 44.3736 1.38614 44.4156 1.55415 44.4996C3.54235 45.6197 5.74057 46.1798 8.1488 46.1798C10.053 46.1798 11.4951 45.7878 12.4752 45.0037C13.4833 44.1916 13.9874 43.2255 13.9874 42.1054C13.9874 40.9293 13.5113 39.9492 12.5592 39.1651C11.6351 38.381 10.109 37.723 7.98079 37.1909C5.99259 36.6869 4.45244 36.1128 3.36033 35.4687C2.29623 34.8247 1.55415 34.0966 1.13411 33.2845C0.742073 32.4725 0.546054 31.5764 0.546054 30.5963C0.546054 29.7002 0.798078 28.8461 1.30213 28.034C1.83418 27.1939 2.60426 26.5079 3.61236 25.9758C4.62045 25.4438 5.85258 25.1777 7.30872 25.1777C8.84887 25.1777 10.081 25.3037 11.0051 25.5558C11.9572 25.7798 12.9513 26.1018 13.9874 26.5219C14.4354 26.6899 14.6594 27.0119 14.6594 27.488C14.6594 27.768 14.5474 28.02 14.3234 28.244C14.1274 28.4401 13.8894 28.5381 13.6093 28.5381C13.5533 28.5381 13.4693 28.5241 13.3573 28.4961C13.2453 28.4401 13.0073 28.342 12.6432 28.202Z" fill="#222222"/>
<path d="M24.3368 47.902C24.0568 47.902 23.8047 47.804 23.5807 47.6079C23.3847 47.3839 23.2867 47.1319 23.2867 46.8519V26.4799C23.2867 26.1718 23.3847 25.9198 23.5807 25.7238C23.8047 25.5278 24.0568 25.4298 24.3368 25.4298H30.3434C31.9956 25.4298 33.4377 25.7658 34.6698 26.4379C35.9019 27.0819 36.854 27.964 37.5261 29.0841C38.2262 30.2042 38.5762 31.4924 38.5762 32.9485C38.5762 34.2926 38.2682 35.5388 37.6521 36.6869C37.0641 37.835 36.154 38.7591 34.9218 39.4591C33.7177 40.1592 32.1916 40.5092 30.3434 40.5092H25.3869V46.8519C25.3869 47.1319 25.2889 47.3839 25.0929 47.6079C24.8969 47.804 24.6448 47.902 24.3368 47.902ZM25.3869 27.53V38.409H30.3434C32.3316 38.409 33.8437 37.891 34.8798 36.8549C35.9439 35.7908 36.476 34.4887 36.476 32.9485C36.476 31.3243 35.9019 30.0222 34.7538 29.0421C33.6057 28.034 32.1356 27.53 30.3434 27.53H25.3869Z" fill="#222222"/>
<path d="M47.0092 48.3956C47.0092 48.6757 46.9112 48.9277 46.7152 49.1517C46.5191 49.3477 46.2671 49.4457 45.9591 49.4457C45.6791 49.4457 45.427 49.3477 45.203 49.1517C45.007 48.9277 44.909 48.6757 44.909 48.3956V26.2279C44.909 25.9198 45.007 25.6678 45.203 25.4718C45.427 25.2758 45.6791 25.1777 45.9591 25.1777C46.2671 25.1777 46.5191 25.2758 46.7152 25.4718C46.9112 25.6678 47.0092 25.9198 47.0092 26.2279V48.3956Z" fill="#222222"/>
<path d="M84.4231 47.902C84.143 47.902 83.891 47.804 83.667 47.6079C83.471 47.3839 83.3729 47.1319 83.3729 46.8519V39.7952C82.8969 39.1791 82.2668 38.311 81.4828 37.1909C80.6987 36.0708 79.8726 34.8667 79.0045 33.5786C78.1644 32.2904 77.3524 31.0583 76.5683 29.8822C75.8122 28.7061 75.2242 27.754 74.8041 27.0259C74.7201 26.8579 74.6781 26.6759 74.6781 26.4799C74.6781 26.2278 74.7621 26.0038 74.9301 25.8078C75.0981 25.5838 75.3502 25.4718 75.6862 25.4718C76.1062 25.4718 76.4003 25.6258 76.5683 25.9338C76.9603 26.5779 77.4784 27.418 78.1224 28.4541C78.7945 29.4622 79.5086 30.5403 80.2646 31.6884C81.0487 32.8365 81.8048 33.9426 82.5329 35.0067C83.2889 36.0708 83.933 36.9809 84.4651 37.737C85.0531 36.9249 85.6972 35.9868 86.3973 34.9227C87.1253 33.8306 87.8534 32.7245 88.5815 31.6044C89.3095 30.4563 89.9816 29.3921 90.5977 28.4121C91.2417 27.404 91.7458 26.5779 92.1098 25.9338C92.2778 25.6258 92.5719 25.4718 92.9919 25.4718C93.664 25.4718 94 25.8078 94 26.4799C94 26.6759 93.958 26.8579 93.874 27.0259C93.4539 27.726 92.8799 28.6501 92.1518 29.7982C91.4517 30.9183 90.6817 32.1224 89.8416 33.4105C89.0015 34.6707 88.1894 35.8748 87.4054 37.0229C86.6493 38.171 86.0052 39.1231 85.4732 39.8792V46.8519C85.4732 47.1319 85.3751 47.3839 85.1791 47.6079C84.9831 47.804 84.7311 47.902 84.4231 47.902Z" fill="#222222"/>
<path d="M69.6418 28.3559C68.2752 27.6319 66.5461 27.27 64.4544 27.27C62.7811 27.27 61.2332 27.6737 59.8109 28.4812C58.4164 29.2886 57.2869 30.4163 56.4223 31.8642C55.5577 33.2842 55.1255 34.9548 55.1255 36.876C55.1255 38.6301 55.502 40.2172 56.255 41.6373C57.008 43.0294 58.0957 44.1432 59.518 44.9785C60.9683 45.7859 62.6974 46.1897 64.7054 46.1897C65.7094 46.1897 66.6437 46.0922 67.5083 45.8973C68.4007 45.7024 69.1956 45.424 69.8928 45.062C70.0323 44.9785 70.1856 44.9367 70.353 44.9367C70.6598 44.9367 70.9108 45.0342 71.106 45.2291C71.3012 45.424 71.3988 45.6746 71.3988 45.9809C71.3988 46.4263 71.2036 46.7326 70.8132 46.8997C69.9765 47.3452 69.0422 47.6793 68.0103 47.9021C66.9784 48.1526 65.8768 48.2779 64.7054 48.2779C62.2512 48.2779 60.1455 47.7768 58.3885 46.7744C56.6594 45.772 55.3346 44.4077 54.4143 42.6814C53.4939 40.9551 53.0338 39.02 53.0338 36.876C53.0338 34.5371 53.5637 32.4906 54.6235 30.7365C55.6832 28.9824 57.0777 27.618 58.8068 26.6435C60.536 25.669 62.4185 25.1817 64.4544 25.1817C66.9644 25.1817 69.0283 25.6272 70.6458 26.5182C71.0084 26.7409 71.1897 27.0472 71.1897 27.437C71.1897 27.6876 71.0921 27.9243 70.8968 28.147C70.7016 28.3698 70.4506 28.4812 70.1438 28.4812C69.9765 28.4812 69.8091 28.4394 69.6418 28.3559Z" fill="#222222"/>
</svg>
