<svg width="891" height="1096" viewBox="0 0 891 1096" fill="none" xmlns="http://www.w3.org/2000/svg">
<g opacity="0.05">
<path d="M816.81 405.836C816.431 404.398 815.961 402.987 815.401 401.61L643.968 109.411C642.813 107.45 641.165 105.824 639.189 104.695C637.213 103.566 634.976 102.971 632.7 102.971C630.424 102.971 628.188 103.566 626.211 104.695C624.235 105.824 622.588 107.45 621.432 109.411L586.824 168.173L464.688 -39.908L457.243 -53.1898C455.965 -55.2708 454.175 -56.9895 452.044 -58.1817C449.913 -59.374 447.512 -60 445.07 -60C442.628 -60 440.227 -59.374 438.096 -58.1817C435.964 -56.9895 434.174 -55.2708 432.896 -53.1898L257.238 246.656L246.775 251.888L218.001 202.987C216.883 201.109 215.332 199.526 213.476 198.37C211.621 197.215 209.516 196.521 207.337 196.346H205.124C202.945 196.521 200.84 197.215 198.985 198.37C197.129 199.526 195.578 201.109 194.46 202.987L87.4146 385.511C38.9755 450.922 9.39662 528.364 1.89492 609.415C-5.60678 690.466 9.25592 772.023 44.8666 845.215C80.4772 918.407 135.472 980.433 203.871 1024.55C272.27 1068.66 351.453 1093.17 432.809 1095.42C514.165 1097.66 594.579 1077.55 665.305 1037.28C736.031 997.002 794.362 938.103 833.953 866.986C873.544 795.868 892.88 715.255 889.857 633.914C886.835 552.572 861.57 473.617 816.81 405.634V405.836ZM632.7 141.207L730.49 308.034L780.994 394.365H484.407L632.7 141.207ZM274.341 273.018L299.895 229.551L360.259 127.321V185.077H398.69V60.7113L426.659 13.219V291.935H465.09V15.2314L490.242 58.0952V185.077H528.674V124.705L570.928 196.749L557.246 220.092L540.947 248.065L450.402 402.415C449.187 404.436 448.532 406.745 448.505 409.103C448.478 411.462 449.079 413.785 450.247 415.834C451.414 417.883 453.107 419.584 455.15 420.763C457.193 421.941 459.513 422.554 461.871 422.538H703.326L766.708 530.604H124.035L194.46 409.86H315.187C317.449 409.711 319.634 408.986 321.536 407.753C323.438 406.52 324.993 404.821 326.053 402.817L327.26 400.603C328.299 398.688 328.843 396.544 328.843 394.365C328.843 392.186 328.299 390.042 327.26 388.127L266.896 285.495L274.341 273.018ZM168.101 302.198L206.331 237.399L222.629 265.17L234.501 285.294L238.123 291.532L250.799 313.065L291.042 381.687H120.816L168.101 302.198ZM445.17 1064.29C369.058 1064.32 294.41 1043.36 229.435 1003.72C164.46 964.07 111.674 907.273 76.88 839.57C42.0864 771.866 26.6331 695.878 32.219 619.961C37.8049 544.044 64.2138 471.137 108.542 409.257H162.064L87.4146 536.44C86.1784 538.581 85.5276 541.01 85.5276 543.483C85.5276 545.956 86.1784 548.385 87.4146 550.526C88.6082 552.677 90.3594 554.466 92.4839 555.706C94.6085 556.945 97.0278 557.589 99.4874 557.57H790.652C793.114 557.548 795.527 556.881 797.651 555.636C799.775 554.391 801.535 552.61 802.756 550.472C803.978 548.335 804.618 545.914 804.612 543.452C804.607 540.99 803.956 538.572 802.725 536.44L735.319 421.532H790.048C831.41 483.899 855.092 556.314 858.576 631.071C862.059 705.829 845.213 780.132 809.83 846.076C774.447 912.019 721.852 967.136 657.639 1005.56C593.426 1043.99 519.999 1064.28 445.17 1064.29Z" fill="#CCB300"/>
<path d="M178.165 692.802C174.667 689.545 170.468 687.135 165.891 685.759C170.057 683.802 173.607 680.74 176.153 676.905C179.662 672.138 181.436 666.316 181.183 660.403C181.255 656.645 180.54 652.913 179.085 649.448C177.629 645.982 175.466 642.859 172.732 640.279C168.673 636.664 163.924 633.909 158.772 632.179C153.619 630.45 148.169 629.783 142.752 630.217C134.711 630.166 126.731 631.599 119.21 634.443C113.841 636.493 108.713 639.125 103.918 642.292L114.984 663.623C117.842 661.224 120.944 659.133 124.24 657.384C128.308 655.382 132.785 654.349 137.319 654.366C141.076 654.212 144.792 655.194 147.983 657.183C149.303 658.033 150.396 659.192 151.168 660.559C151.939 661.927 152.365 663.462 152.41 665.032C152.429 666.333 152.189 667.626 151.706 668.835C151.222 670.044 150.504 671.145 149.593 672.075C144.452 675.56 138.279 677.192 132.087 676.703H124.844V699.242H135.709C140.493 698.746 145.317 699.656 149.593 701.858C151.072 702.733 152.307 703.966 153.186 705.442C154.065 706.919 154.559 708.593 154.623 710.31C154.583 712.138 154.083 713.926 153.168 715.509C152.254 717.092 150.955 718.418 149.392 719.366C145.605 721.331 141.382 722.3 137.118 722.183C131.866 722.233 126.684 720.989 122.027 718.561C117.689 716.087 113.753 712.965 110.356 709.304L95.668 729.428C101.055 734.343 107.249 738.292 113.978 741.1C122.607 744.218 131.786 745.52 140.941 744.923C151.929 745.529 162.851 742.869 172.33 737.276C176.662 734.344 180.199 730.382 182.622 725.746C185.045 721.11 186.279 715.944 186.214 710.713C186.141 707.34 185.392 704.017 184.009 700.94C182.626 697.863 180.639 695.096 178.165 692.802Z" fill="#CCB300"/>
<path d="M305.129 645.914C293.013 635.149 277.37 629.204 261.164 629.204C244.958 629.204 229.315 635.149 217.199 645.914C211.603 651.302 207.165 657.776 204.155 664.938C201.145 672.1 199.627 679.801 199.693 687.57C199.662 695.334 201.196 703.024 204.204 710.181C207.212 717.339 211.631 723.816 217.199 729.226C229.373 739.87 244.994 745.735 261.164 745.735C277.334 745.735 292.955 739.87 305.129 729.226C310.587 723.765 314.895 717.265 317.799 710.11C320.702 702.955 322.141 695.291 322.031 687.57C322.175 679.844 320.752 672.17 317.847 665.01C314.942 657.85 310.615 651.354 305.129 645.914ZM283.599 709.102C280.637 711.955 277.136 714.189 273.302 715.675C269.467 717.16 265.375 717.868 261.264 717.756C257.078 717.85 252.915 717.116 249.013 715.597C245.111 714.077 241.548 711.802 238.528 708.901C233.048 703.617 229.868 696.388 229.674 688.777C229.653 680.591 232.83 672.72 238.528 666.842C241.566 663.812 245.176 661.415 249.148 659.791C253.121 658.167 257.376 657.349 261.667 657.384C269.952 657.463 277.912 660.619 284.002 666.239C286.859 669.009 289.133 672.324 290.688 675.987C292.243 679.651 293.049 683.59 293.056 687.57C292.877 695.716 289.476 703.459 283.599 709.102Z" fill="#CCB300"/>
<path d="M369.113 735.264C377.826 724.443 382.009 710.667 380.784 696.827V656.579H408.752V743.716H437.928V631.827H352.01V693.406C352.01 708.097 347.986 713.53 346.175 713.53C343.49 715.825 340.049 717.044 336.517 716.951C334.191 716.878 331.887 716.471 329.676 715.744V742.508C333.756 743.674 337.93 744.482 342.151 744.923C347.065 745.219 351.987 744.516 356.621 742.855C361.256 741.195 365.505 738.613 369.113 735.264Z" fill="#CCB300"/>
<path d="M517.806 744.923C534.057 745.22 549.812 739.32 561.871 728.422C567.402 722.984 571.798 716.501 574.803 709.35C577.808 702.199 579.363 694.522 579.377 686.765C579.397 679.003 577.857 671.316 574.85 664.161C571.843 657.005 567.43 650.526 561.871 645.109C549.831 634.155 534.08 628.185 517.806 628.406C501.586 628.155 485.887 634.132 473.941 645.109C468.319 650.488 463.849 656.955 460.805 664.116C457.761 671.278 456.206 678.984 456.235 686.765C456.241 694.542 457.812 702.237 460.854 709.394C463.896 716.55 468.347 723.021 473.941 728.422C485.907 739.343 501.61 745.25 517.806 744.923ZM495.27 665.434C501.332 659.644 509.424 656.464 517.806 656.58C526.099 656.619 534.072 659.781 540.14 665.434C542.998 668.204 545.272 671.519 546.827 675.183C548.382 678.847 549.187 682.785 549.195 686.765C549.198 690.833 548.379 694.859 546.788 698.603C545.196 702.346 542.864 705.729 539.932 708.548C537.001 711.368 533.529 713.565 529.727 715.009C525.925 716.453 521.87 717.114 517.806 716.951C513.649 717.052 509.514 716.321 505.644 714.8C501.774 713.28 498.246 711 495.27 708.097C492.521 705.507 490.32 702.391 488.8 698.934C487.279 695.477 486.468 691.749 486.417 687.973C486.389 683.945 487.157 679.953 488.676 676.223C490.196 672.493 492.436 669.1 495.27 666.239V665.434Z" fill="#CCB300"/>
<path d="M610.768 743.313H639.743V656.378H663.687V631.827H587.227V656.378H610.768V743.313Z" fill="#CCB300"/>
<path d="M732.907 629.211C716.687 628.959 700.988 634.937 689.043 645.914C683.447 651.303 679.009 657.776 675.999 664.938C672.989 672.1 671.471 679.801 671.537 687.57C671.506 695.334 673.04 703.024 676.048 710.182C679.055 717.339 683.475 723.816 689.043 729.227C701.217 739.87 716.838 745.735 733.008 745.735C749.177 745.735 764.798 739.87 776.973 729.227C782.54 723.816 786.96 717.339 789.968 710.182C792.975 703.024 794.509 695.334 794.478 687.57C794.544 679.801 793.026 672.1 790.016 664.938C787.007 657.776 782.568 651.303 776.973 645.914C764.954 634.925 749.189 628.949 732.907 629.211ZM755.443 709.706C749.287 715.335 741.248 718.456 732.907 718.456C724.566 718.456 716.527 715.335 710.371 709.706C707.622 707.117 705.422 704.001 703.901 700.544C702.38 697.087 701.57 693.359 701.518 689.583C701.464 685.522 702.219 681.491 703.739 677.724C705.259 673.958 707.513 670.533 710.371 667.647C716.445 661.876 724.529 658.699 732.907 658.793C741.258 658.841 749.292 661.998 755.443 667.647C760.888 672.913 764.186 680.012 764.699 687.57C764.488 695.669 761.174 703.378 755.443 709.103V709.706Z" fill="#CCB300"/>
<path d="M227.659 794.227L184.801 905.914H215.385L222.83 887.199H263.072L269.914 905.914H301.906L260.054 794.428L227.659 794.227ZM230.878 865.666L243.152 829.645L255.628 865.666H230.878Z" fill="#CCB300"/>
<path d="M329.071 855.604C329.071 870.496 325.047 875.728 323.236 875.728C320.55 878.024 317.109 879.242 313.578 879.149C311.315 879.095 309.074 878.688 306.938 877.942V905.914C311.242 906.804 315.622 907.276 320.016 907.323C324.784 907.548 329.55 906.828 334.039 905.205C338.528 903.582 342.652 901.087 346.174 897.864C354.886 887.043 359.069 873.267 357.844 859.428V819.18H385.813V905.914H414.989V794.227H329.071V855.604Z" fill="#CCB300"/>
<path d="M504.529 794.227H427.867V818.778H451.409V905.713H480.384V818.778H504.529V794.227Z" fill="#CCB300"/>
<path d="M539.136 794.227L496.277 905.914H526.862L534.306 887.199H574.549L581.39 905.914H612.377L570.525 794.428L539.136 794.227ZM543.361 865.666L555.635 829.645L567.104 865.666H543.361Z" fill="#CCB300"/>
<path d="M631.089 805.294C624.913 812.659 621.687 822.052 622.034 831.657C621.797 835.933 622.442 840.213 623.931 844.229C625.419 848.246 627.719 851.912 630.687 855C635.056 859.66 640.869 862.709 647.186 863.654L616.199 905.914H649.6L673.545 867.88H676.362V905.914H705.336V794.226H662.478C656.773 793.896 651.06 794.704 645.671 796.605C640.282 798.505 635.325 801.459 631.089 805.294ZM676.362 818.576V845.542H668.112C663.508 845.781 658.962 844.431 655.234 841.719C652.886 839.063 651.66 835.601 651.814 832.059C651.736 830.301 652.037 828.546 652.696 826.914C653.356 825.282 654.359 823.811 655.637 822.601C659.185 819.838 663.625 818.477 668.112 818.777L676.362 818.576Z" fill="#CCB300"/>
</g>
</svg>
