<svg width="56" height="73" viewBox="0 0 56 73" fill="none" xmlns="http://www.w3.org/2000/svg">
<path d="M51.3853 29.3056C51.3615 29.2152 51.3319 29.1264 51.2967 29.0397L40.5119 10.6576C40.4392 10.5342 40.3356 10.432 40.2112 10.3609C40.0869 10.2899 39.9462 10.2525 39.803 10.2525C39.6598 10.2525 39.5191 10.2899 39.3948 10.3609C39.2705 10.432 39.1669 10.5342 39.0942 10.6576L36.9169 14.3543L29.2334 1.26398L28.765 0.42843C28.6846 0.297512 28.572 0.18939 28.438 0.114386C28.3039 0.0393818 28.1528 0 27.9992 0C27.8456 0 27.6945 0.0393818 27.5605 0.114386C27.4264 0.18939 27.3138 0.297512 27.2334 0.42843L16.1828 19.2916L15.5245 19.6208L13.7144 16.5445C13.6441 16.4263 13.5465 16.3267 13.4298 16.254C13.313 16.1813 13.1806 16.1377 13.0435 16.1267H12.9043C12.7672 16.1377 12.6348 16.1813 12.5181 16.254C12.4014 16.3267 12.3037 16.4263 12.2334 16.5445L5.49923 28.027C2.45194 32.1419 0.591139 37.0138 0.119209 42.1127C-0.352721 47.2116 0.582288 52.3423 2.82254 56.9468C5.0628 61.5513 8.52254 65.4534 12.8255 68.2285C17.1284 71.0037 22.1098 72.5457 27.2279 72.6869C32.346 72.8281 37.4048 71.5631 41.8542 69.0294C46.3035 66.4957 49.9731 62.7904 52.4638 58.3164C54.9544 53.8424 56.1708 48.7711 55.9807 43.6539C55.7905 38.5368 54.2011 33.5697 51.3853 29.2929V29.3056ZM39.803 12.6579L45.9549 23.1529L49.1321 28.584H30.4739L39.803 12.6579ZM17.2587 20.9501L18.8663 18.2156L22.6638 11.7843V15.4177H25.0815V7.59392L26.841 4.60619V22.1401H29.2587V4.73279L30.841 7.42934V15.4177H33.2587V11.6198L35.9169 16.152L35.0562 17.6205L34.0309 19.3803L28.3347 29.0904C28.2582 29.2176 28.217 29.3628 28.2153 29.5112C28.2136 29.6595 28.2514 29.8057 28.3249 29.9346C28.3984 30.0635 28.5048 30.1705 28.6334 30.2447C28.7619 30.3188 28.9078 30.3573 29.0562 30.3564H44.2461L48.2334 37.1547H7.80303L12.2334 29.5588H19.8283C19.9706 29.5494 20.1081 29.5038 20.2278 29.4262C20.3474 29.3487 20.4452 29.2418 20.5119 29.1157L20.5878 28.9764C20.6532 28.856 20.6874 28.7211 20.6874 28.584C20.6874 28.4469 20.6532 28.312 20.5878 28.1915L16.7904 21.735L17.2587 20.9501ZM10.5752 22.7858L12.9802 18.7093L14.0056 20.4564L14.7524 21.7223L14.9802 22.1148L15.7777 23.4694L18.3094 27.7864H7.6005L10.5752 22.7858ZM28.0056 70.7287C23.2173 70.7307 18.5213 69.4122 14.4337 66.9181C10.3461 64.424 7.02535 60.8509 4.8365 56.5917C2.64765 52.3325 1.67548 47.5521 2.02689 42.7762C2.3783 38.0002 4.03967 33.4137 6.82834 29.5208H10.1954L5.49923 37.5219C5.42146 37.6566 5.38052 37.8094 5.38052 37.965C5.38052 38.1205 5.42146 38.2733 5.49923 38.4081C5.57432 38.5434 5.68449 38.6559 5.81814 38.7339C5.9518 38.8119 6.104 38.8524 6.25872 38.8512H49.7397C49.8946 38.8498 50.0464 38.8078 50.18 38.7295C50.3136 38.6512 50.4244 38.5392 50.5012 38.4047C50.578 38.2702 50.6183 38.1179 50.6179 37.963C50.6176 37.8081 50.5767 37.656 50.4992 37.5219L46.2587 30.2931H49.7017C52.3038 34.2165 53.7936 38.7721 54.0128 43.4751C54.2319 48.1781 53.1721 52.8525 50.9462 57.001C48.7203 61.1495 45.4115 64.6168 41.3719 67.0342C37.3323 69.4515 32.713 70.7283 28.0056 70.7287V70.7287Z" fill="#CCB300"/>
<path d="M11.2094 47.3584C10.9894 47.1535 10.7252 47.0019 10.4373 46.9153V46.9153C10.6994 46.7922 10.9226 46.5995 11.0828 46.3583C11.3035 46.0584 11.4152 45.6922 11.3993 45.3202C11.4038 45.0837 11.3588 44.849 11.2672 44.631C11.1757 44.413 11.0396 44.2165 10.8676 44.0542C10.6123 43.8268 10.3135 43.6534 9.98937 43.5446C9.66521 43.4358 9.32238 43.3939 8.98156 43.4212C8.47574 43.418 7.97367 43.5081 7.50054 43.687C7.1628 43.816 6.8402 43.9816 6.53852 44.1808L7.23472 45.5227C7.4145 45.3718 7.60967 45.2403 7.817 45.1303C8.07293 45.0043 8.35454 44.9393 8.63978 44.9404C8.87614 44.9307 9.10993 44.9925 9.31067 45.1176C9.39372 45.1711 9.46248 45.244 9.511 45.33C9.55953 45.416 9.58635 45.5126 9.58915 45.6113C9.59032 45.6932 9.57527 45.7746 9.54485 45.8506C9.51444 45.9267 9.46926 45.9959 9.41194 46.0544C9.08852 46.2737 8.70016 46.3764 8.31067 46.3456H7.85497V47.7635H8.53852C8.83946 47.7323 9.14297 47.7895 9.41194 47.9281C9.50498 47.9832 9.58271 48.0607 9.638 48.1536C9.69329 48.2465 9.72437 48.3518 9.72839 48.4598C9.72588 48.5748 9.6944 48.6873 9.63687 48.7869C9.57934 48.8865 9.49762 48.9699 9.39928 49.0295C9.16109 49.1531 8.89537 49.2141 8.62713 49.2068C8.29677 49.2099 7.97072 49.1316 7.67776 48.9789C7.40484 48.8232 7.15727 48.6269 6.94358 48.3965L6.01953 49.6625C6.35841 49.9717 6.74809 50.2201 7.17143 50.3968C7.71423 50.5929 8.2917 50.6748 8.86763 50.6373C9.55891 50.6755 10.246 50.5081 10.8423 50.1562C11.1149 49.9718 11.3373 49.7225 11.4898 49.4309C11.6422 49.1392 11.7199 48.8142 11.7157 48.4851C11.7112 48.273 11.664 48.0639 11.577 47.8703C11.4901 47.6768 11.365 47.5027 11.2094 47.3584V47.3584Z" fill="#CCB300"/>
<path d="M19.1955 44.4086C18.4333 43.7315 17.4492 43.3574 16.4297 43.3574C15.4102 43.3574 14.4261 43.7315 13.6639 44.4086C13.3119 44.7477 13.0327 45.1549 12.8433 45.6055C12.654 46.056 12.5585 46.5405 12.5626 47.0292C12.5607 47.5176 12.6572 48.0014 12.8464 48.4517C13.0356 48.902 13.3136 49.3095 13.6639 49.6498C14.4298 50.3194 15.4125 50.6884 16.4297 50.6884C17.447 50.6884 18.4297 50.3194 19.1955 49.6498C19.5389 49.3063 19.81 48.8974 19.9926 48.4472C20.1752 47.9971 20.2658 47.515 20.2588 47.0292C20.2679 46.5432 20.1784 46.0604 19.9956 45.61C19.8129 45.1596 19.5407 44.7509 19.1955 44.4086V44.4086ZM17.8411 48.3838C17.6547 48.5633 17.4345 48.7038 17.1933 48.7973C16.9521 48.8908 16.6946 48.9353 16.436 48.9282C16.1727 48.9341 15.9108 48.888 15.6653 48.7924C15.4198 48.6968 15.1957 48.5537 15.0057 48.3712C14.6609 48.0387 14.4609 47.584 14.4487 47.1052C14.4474 46.5902 14.6472 46.095 15.0057 45.7253C15.1968 45.5346 15.4239 45.3838 15.6738 45.2817C15.9237 45.1795 16.1914 45.1281 16.4614 45.1303C16.9826 45.1352 17.4834 45.3337 17.8664 45.6873C18.0462 45.8615 18.1893 46.0701 18.2871 46.3006C18.3849 46.5311 18.4356 46.7788 18.436 47.0292C18.4248 47.5417 18.2108 48.0288 17.8411 48.3838V48.3838Z" fill="#CCB300"/>
<path d="M23.2193 50.0296C23.7674 49.3489 24.0305 48.4822 23.9535 47.6116V45.0796H25.713V50.5613H27.5484V43.5225H22.1433V47.3964C22.1433 48.3206 21.8902 48.6624 21.7763 48.6624C21.6073 48.8068 21.3908 48.8835 21.1687 48.8776C21.0223 48.873 20.8774 48.8474 20.7383 48.8016V50.4854C20.995 50.5587 21.2576 50.6096 21.5231 50.6373C21.8322 50.6559 22.1419 50.6117 22.4334 50.5072C22.725 50.4028 22.9923 50.2403 23.2193 50.0296V50.0296Z" fill="#CCB300"/>
<path d="M32.5766 50.6377C33.5989 50.6563 34.59 50.2852 35.3487 49.5996C35.6967 49.2575 35.9732 48.8497 36.1623 48.3998C36.3513 47.9499 36.4491 47.467 36.45 46.979C36.4512 46.4907 36.3544 46.0071 36.1652 45.5569C35.9761 45.1068 35.6984 44.6992 35.3487 44.3584C34.5913 43.6693 33.6004 43.2937 32.5766 43.3076C31.5562 43.2918 30.5686 43.6679 29.8171 44.3584C29.4634 44.6968 29.1822 45.1036 28.9907 45.5541C28.7992 46.0046 28.7014 46.4894 28.7031 46.979C28.7035 47.4682 28.8024 47.9523 28.9937 48.4025C29.1851 48.8527 29.4651 49.2598 29.8171 49.5996C30.5698 50.2866 31.5577 50.6582 32.5766 50.6377V50.6377ZM31.1588 45.637C31.5402 45.2728 32.0493 45.0727 32.5766 45.08C33.0983 45.0825 33.5999 45.2814 33.9816 45.637C34.1614 45.8113 34.3045 46.0198 34.4023 46.2503C34.5001 46.4808 34.5508 46.7286 34.5512 46.979C34.5515 47.2349 34.4999 47.4882 34.3998 47.7237C34.2997 47.9592 34.153 48.172 33.9685 48.3493C33.7841 48.5267 33.5657 48.665 33.3265 48.7558C33.0873 48.8466 32.8322 48.8882 32.5766 48.878C32.3151 48.8843 32.0549 48.8383 31.8115 48.7427C31.568 48.647 31.3461 48.5036 31.1588 48.3209C30.9859 48.158 30.8475 47.962 30.7518 47.7445C30.6561 47.527 30.6051 47.2925 30.6019 47.0549C30.6002 46.8016 30.6485 46.5504 30.744 46.3158C30.8396 46.0811 30.9806 45.8677 31.1588 45.6877V45.637Z" fill="#CCB300"/>
<path d="M38.4224 50.536H40.2452V45.067H41.7515V43.5225H36.9414V45.067H38.4224V50.536Z" fill="#CCB300"/>
<path d="M46.107 43.3579C45.0866 43.3421 44.099 43.7182 43.3475 44.4087C42.9955 44.7477 42.7163 45.155 42.5269 45.6055C42.3376 46.0561 42.2421 46.5406 42.2462 47.0293C42.2443 47.5177 42.3408 48.0015 42.53 48.4518C42.7192 48.9021 42.9972 49.3095 43.3475 49.6499C44.1134 50.3195 45.0961 50.6885 46.1133 50.6885C47.1305 50.6885 48.1133 50.3195 48.8791 49.6499C49.2294 49.3095 49.5074 48.9021 49.6966 48.4518C49.8859 48.0015 49.9824 47.5177 49.9804 47.0293C49.9846 46.5406 49.8891 46.0561 49.6997 45.6055C49.5104 45.155 49.2312 44.7477 48.8791 44.4087C48.1231 43.7174 47.1313 43.3415 46.107 43.3579ZM47.5247 48.4219C47.1374 48.776 46.6317 48.9723 46.107 48.9723C45.5823 48.9723 45.0765 48.776 44.6893 48.4219C44.5163 48.259 44.3779 48.063 44.2822 47.8455C44.1865 47.628 44.1356 47.3935 44.1323 47.1559C44.1289 46.9004 44.1764 46.6468 44.272 46.4099C44.3676 46.173 44.5095 45.9575 44.6893 45.776C45.0714 45.4129 45.5799 45.213 46.107 45.2189C46.6323 45.222 47.1378 45.4206 47.5247 45.776C47.8673 46.1072 48.0748 46.5538 48.107 47.0293C48.0937 47.5388 47.8853 48.0237 47.5247 48.3839V48.4219Z" fill="#CCB300"/>
<path d="M14.3212 53.7393L11.625 60.7655H13.549L14.0174 59.5881H16.549L16.9794 60.7655H18.9921L16.3592 53.7519L14.3212 53.7393ZM14.5237 58.2335L15.2959 55.9674L16.0807 58.2335H14.5237Z" fill="#CCB300"/>
<path d="M20.701 57.6005C20.701 58.5373 20.4478 58.8665 20.3339 58.8665C20.165 59.0109 19.9485 59.0876 19.7263 59.0817C19.584 59.0783 19.443 59.0527 19.3086 59.0058V60.7655C19.5794 60.8215 19.8549 60.8511 20.1314 60.8541C20.4313 60.8683 20.7311 60.823 21.0136 60.7209C21.296 60.6188 21.5554 60.4618 21.7769 60.2591C22.3251 59.5783 22.5882 58.7117 22.5111 57.8411V55.3091H24.2706V60.7655H26.1061V53.7393H20.701V57.6005Z" fill="#CCB300"/>
<path d="M31.7408 53.7393H26.918V55.2838H28.399V60.7528H30.2218V55.2838H31.7408V53.7393Z" fill="#CCB300"/>
<path d="M33.9189 53.7393L31.2227 60.7655H33.1467L33.6151 59.5881H36.1467L36.5771 60.7655H38.5265L35.8935 53.7519L33.9189 53.7393ZM34.1847 58.2335L34.9568 55.9674L35.6784 58.2335H34.1847Z" fill="#CCB300"/>
<path d="M39.7023 54.4357C39.3138 54.899 39.1109 55.4899 39.1327 56.0941C39.1178 56.3632 39.1584 56.6324 39.252 56.8851C39.3457 57.1377 39.4903 57.3684 39.677 57.5627C39.9519 57.8558 40.3176 58.0476 40.715 58.1071L38.7656 60.7656H40.8669L42.3732 58.3729H42.5504V60.7656H44.3732V53.7394H41.677C41.3181 53.7186 40.9587 53.7695 40.6197 53.889C40.2807 54.0086 39.9688 54.1944 39.7023 54.4357V54.4357ZM42.5504 55.2712V56.9677H42.0314C41.7418 56.9827 41.4558 56.8978 41.2213 56.7271C41.0736 56.5601 40.9965 56.3422 41.0061 56.1195C41.0012 56.0088 41.0202 55.8984 41.0617 55.7958C41.1032 55.6931 41.1662 55.6006 41.2466 55.5244C41.4698 55.3506 41.7492 55.265 42.0314 55.2839L42.5504 55.2712Z" fill="#CCB300"/>
</svg>
