<svg width="1955" height="299" viewBox="0 0 1955 299" fill="none" xmlns="http://www.w3.org/2000/svg">
<path d="M144.299 233.594C162.918 233.594 177.503 229.233 188.054 220.513C198.915 211.48 206.053 201.046 209.466 189.211L279.288 193.883C275.875 207.898 270.289 221.291 262.531 234.061C254.773 246.831 245.153 258.043 233.671 267.698C222.189 277.042 208.846 284.673 193.64 290.591C178.745 296.197 162.298 299 144.299 299C124.438 299 105.664 295.263 87.9758 287.788C70.5979 280.001 55.3922 269.411 42.3587 256.019C29.3253 242.315 18.9295 226.43 11.1715 208.366C3.72385 190.301 0 170.679 0 149.5C0 128.632 3.72385 109.166 11.1715 91.1016C18.9295 72.7255 29.3253 56.8412 42.3587 43.4484C55.3922 29.7443 70.5979 19.1547 87.9758 11.6797C105.664 3.89323 124.438 0 144.299 0C161.677 0 177.658 2.95885 192.243 8.87656C207.139 14.4828 220.172 22.1135 231.344 31.7688C242.826 41.1125 252.446 52.1693 260.204 64.9391C267.962 77.7089 273.547 91.1016 276.961 105.117L207.139 109.789C205.277 103.871 202.639 98.2651 199.226 92.9703C195.812 87.6755 191.468 83.0037 186.192 78.9547C180.917 74.9057 174.71 71.6354 167.573 69.1438C160.746 66.6521 152.988 65.4063 144.299 65.4063C133.748 65.4063 123.818 67.5865 114.508 71.9469C105.199 75.9958 96.9751 81.7578 89.8377 89.2328C83.0107 96.7078 77.5801 105.584 73.5459 115.863C69.5118 126.141 67.4947 137.353 67.4947 149.5C67.4947 161.647 69.5118 172.859 73.5459 183.138C77.5801 193.416 83.0107 202.292 89.8377 209.767C96.9751 217.242 105.199 223.16 114.508 227.52C123.818 231.569 133.748 233.594 144.299 233.594Z" fill="#F6F6F6"/>
<path d="M435.406 2.33594C450.612 2.33594 464.421 4.82761 476.834 9.81095C489.557 14.7943 500.418 21.4906 509.418 29.9C518.417 38.3094 525.399 48.2761 530.364 59.8C535.329 71.0125 537.812 83.0037 537.812 95.7735C537.812 112.281 534.864 126.141 528.968 137.353C523.382 148.566 517.02 157.754 509.883 164.917C503.056 171.769 496.694 176.753 490.798 179.867C484.902 182.982 481.954 184.539 481.954 184.539L547.121 296.664H472.645L419.114 198.555H384.203V296.664H316.709V2.33594L435.406 2.33594ZM435.406 133.148C447.198 133.148 456.353 130.034 462.869 123.805C469.386 117.576 472.645 109.789 472.645 100.445C472.645 91.1016 469.386 83.3151 462.869 77.0859C456.353 70.8568 447.198 67.7422 435.406 67.7422H384.203V133.148H435.406Z" fill="#F6F6F6"/>
<path d="M582.178 2.33594L791.644 2.33594V67.7422L649.673 67.7422V114.461L780.007 114.461V179.867H649.673V231.258H796.299V296.664H582.178V2.33594Z" fill="#F6F6F6"/>
<path d="M984.619 182.203L952.035 84.0938L919.451 182.203H984.619ZM900.832 240.602L882.213 296.664H812.391L917.124 2.33594L986.946 2.33594L1091.68 296.664L1021.86 296.664L1003.24 240.602H900.832Z" fill="#F6F6F6"/>
<path d="M1226.58 296.664H1159.08V67.7422H1075.3V2.33594L1310.36 2.33594V67.7422L1226.58 67.7422V296.664Z" fill="#F6F6F6"/>
<path d="M1410.62 296.664H1343.13V2.33594L1410.62 2.33594V296.664Z" fill="#F6F6F6"/>
<path d="M1710.7 2.33594L1610.62 296.664H1540.79L1440.72 2.33594L1510.54 2.33594L1575.71 205.563L1640.87 2.33594L1710.7 2.33594Z" fill="#F6F6F6"/>
<path d="M1740.88 2.33594L1950.35 2.33594V67.7422H1808.37V114.461H1938.71V179.867H1808.37V231.258H1955V296.664H1740.88V2.33594Z" fill="#F6F6F6"/>
</svg>
