<svg width="221" height="51" viewBox="0 0 221 51" fill="none" xmlns="http://www.w3.org/2000/svg">
<path d="M142.824 48.3924V44.248H145.736V44.8641H143.44V45.7602H144.56C145.008 45.7602 145.4 45.8722 145.68 46.1522C145.961 46.3763 146.073 46.7123 146.073 47.1043C146.073 47.4964 145.961 47.8324 145.68 48.0564C145.4 48.2804 145.064 48.4484 144.56 48.4484H142.824V48.3924ZM143.496 47.7764H144.56C145.12 47.7764 145.456 47.4964 145.456 47.0483C145.456 46.6003 145.12 46.3203 144.56 46.3203H143.496V47.7764Z" fill="#A28D67"/>
<path d="M147.417 48.3931V47.777C147.585 47.833 147.697 47.889 147.865 47.889C148.033 47.889 148.145 47.833 148.257 47.777C148.369 47.665 148.481 47.497 148.593 47.217L146.969 44.3047H147.697L148.929 46.5449L149.937 44.3047H150.721L149.209 47.553C148.929 48.2251 148.537 48.5051 148.033 48.5051C147.753 48.5051 147.585 48.4491 147.417 48.3931Z" fill="#A28D67"/>
<path d="M151.617 44.248H155.034V44.8641H153.633V48.3924H153.017V44.8641H151.617V44.248Z" fill="#A28D67"/>
<path d="M156.32 48.3924V44.248H156.992V47.2723L159.233 44.248H159.849V48.3924H159.177V45.3682L156.88 48.3924H156.32Z" fill="#A28D67"/>
<path d="M161.477 48.3924V44.248H162.093V45.9282L163.829 44.248H164.669L162.709 46.1522L164.949 48.3924H164.053L162.093 46.4323V48.3924H161.477Z" fill="#A28D67"/>
<path d="M168.195 48.3924V44.248H171.612V48.3924H170.94V44.8641H168.867V48.3924H168.195Z" fill="#A28D67"/>
<path d="M173.182 48.3931V47.777C173.35 47.833 173.462 47.889 173.63 47.889C173.798 47.889 173.91 47.833 174.022 47.777C174.135 47.665 174.247 47.497 174.359 47.217L172.734 44.3047H173.462L174.695 46.5449L175.703 44.3047H176.375L174.863 47.553C174.583 48.2251 174.191 48.5051 173.686 48.5051C173.518 48.5051 173.35 48.4491 173.182 48.3931Z" fill="#A28D67"/>
<path d="M177.383 44.248H180.799V44.8641H179.399V48.3924H178.783V44.8641H177.383V44.248Z" fill="#A28D67"/>
<path d="M182.086 48.3924V44.248H185.054V44.8641H182.758V45.8722H184.606V46.4883H182.758V47.7764H185.11V48.3924H182.086Z" fill="#A28D67"/>
<path d="M186.453 48.3924V44.248H187.125V47.7764H188.693V44.248H189.309V47.7764H190.878V44.248H191.55V48.3924H186.453Z" fill="#A28D67"/>
<path d="M193.176 48.3924V44.248H196.088V44.8641H193.792V45.8722H195.696V46.4883H193.792V47.7764H196.2V48.3924H193.176Z" fill="#A28D67"/>
<path d="M197.932 47.8878C197.54 47.4957 197.316 46.9917 197.316 46.3196C197.316 45.7036 197.54 45.1995 197.932 44.8075C198.325 44.4154 198.885 44.1914 199.501 44.1914C199.949 44.1914 200.285 44.3034 200.621 44.4714V45.1435C200.285 44.9195 199.893 44.8075 199.501 44.8075C199.053 44.8075 198.717 44.9755 198.437 45.2555C198.156 45.5355 197.988 45.9276 197.988 46.3756C197.988 46.8237 198.156 47.2157 198.437 47.4957C198.717 47.7757 199.109 47.9438 199.557 47.9438C200.005 47.9438 200.397 47.8318 200.733 47.5517V48.2238C200.397 48.4478 200.005 48.5598 199.501 48.5598C198.885 48.5038 198.325 48.2798 197.932 47.8878Z" fill="#A28D67"/>
<path d="M201.797 44.248H205.157V44.8641H203.813V48.3924H203.141V44.8641H201.797V44.248Z" fill="#A28D67"/>
<path d="M206.449 48.3924V44.248H208.353C209.081 44.248 209.586 44.6401 209.586 45.2561C209.586 45.7042 209.362 45.9842 209.025 46.0962C209.53 46.2082 209.922 46.6003 209.922 47.2163C209.922 47.5524 209.81 47.8324 209.53 48.0564C209.305 48.2804 208.969 48.3924 208.521 48.3924H206.449ZM207.121 45.9282H208.241C208.689 45.9282 208.913 45.7602 208.913 45.3682C208.913 45.0321 208.633 44.8081 208.241 44.8081H207.121V45.9282ZM207.121 47.7764H208.409C208.913 47.7764 209.193 47.5524 209.193 47.1043C209.193 46.7123 208.913 46.4883 208.409 46.4883H207.121V47.7764Z" fill="#A28D67"/>
<path d="M211.32 48.3924V44.248H211.992V47.2723L214.289 44.248H214.849V48.3924H214.177V45.3682L211.88 48.3924H211.32Z" fill="#A28D67"/>
<path d="M216.473 48.3921V44.2477H217.145V47.272L219.441 44.2477H220.001V48.3921H219.329V45.3118L217.033 48.3921H216.473ZM217.145 43.0156H217.705C217.705 43.2957 217.873 43.5197 218.209 43.5197C218.545 43.5197 218.713 43.2957 218.713 43.0156H219.273C219.273 43.6317 218.825 43.9677 218.209 43.9677C217.593 44.0237 217.145 43.6317 217.145 43.0156Z" fill="#A28D67"/>
<path d="M18.568 16.7774L0.0664062 19.4963L13.4618 32.5601L24.6689 24.934V16.9764C24.6689 15.7827 25.6636 14.788 26.8572 14.788C28.0509 14.788 29.0456 15.7827 29.0456 16.9764V24.934L40.2526 32.5601L53.648 19.4963L35.1465 16.7774L26.8572 0L18.568 16.7774Z" fill="url(#paint0_linear_3434_1945)"/>
<path d="M13.3945 32.5601L24.6016 24.934V16.9764C24.6016 15.7827 25.5963 14.788 26.7899 14.788C27.9836 14.788 28.9783 15.7827 28.9783 16.9764V24.934L40.2517 32.5601L26.8563 0L13.3945 32.5601Z" fill="url(#paint1_linear_3434_1945)"/>
<path d="M12.9962 35.0809L10.2773 50.9962L21.816 44.9616C24.2033 40.4523 24.6675 35.2135 24.7338 32.8262V32.6272V31.4336L12.9962 35.0809Z" fill="url(#paint2_linear_3434_1945)"/>
<path d="M28.9766 31.4336V32.8262C29.0429 35.2798 29.5071 40.4523 31.8944 44.9616L43.433 50.9962L40.7141 35.0145H40.6478L28.9766 31.4336Z" fill="url(#paint3_linear_3434_1945)"/>
<path d="M10.2773 50.9962L21.816 44.9616C24.2033 40.4523 24.6675 35.2135 24.7338 32.8262V32.6272V31.4336L10.2773 50.9962Z" fill="url(#paint4_linear_3434_1945)"/>
<path d="M28.9766 32.8262C29.0429 35.2798 29.5071 40.4523 31.8944 44.9616L43.433 50.9962L28.9766 31.4336V32.8262Z" fill="url(#paint5_linear_3434_1945)"/>
<path d="M0 19.4962L18.0374 21.353L18.5679 16.7773L0 19.4962Z" fill="url(#paint6_linear_3434_1945)"/>
<path d="M13.3945 32.5606L24.6679 24.9345L18.0365 21.3535L13.3945 32.5606Z" fill="url(#paint7_linear_3434_1945)"/>
<path d="M35.6087 21.353L53.6461 19.4962L35.1445 16.7773L35.6087 21.353Z" fill="url(#paint8_linear_3434_1945)"/>
<path d="M28.9766 24.9345L40.2499 32.5606L35.608 21.3535L28.9766 24.9345Z" fill="url(#paint9_linear_3434_1945)"/>
<path d="M91.9281 33.8332C91.6617 33.3004 91.3953 32.6344 91.0623 31.8352L90.9957 31.702C90.5961 30.8362 90.1965 29.9704 89.6637 29.2378C91.1289 28.705 91.7949 27.5728 91.7949 25.8411C91.7949 23.2437 90.2631 22.0449 86.9331 22.0449H81.7383V22.7775L82.2711 22.9773C82.6707 23.1105 82.9371 23.5101 82.9371 23.9763V33.8332C82.9371 34.2994 82.6707 34.6324 82.2711 34.8322L81.6717 35.032V35.7646H86.6667V35.032L86.1339 34.8322C85.7343 34.6324 85.4679 34.2994 85.4679 33.8332V29.5708H86.6667C87.2661 29.5708 87.7989 30.9028 88.3983 32.1682L88.6647 32.7676C89.5971 34.8322 89.9301 35.5648 89.9301 35.5648L89.9967 35.7646H93.5931V34.9654L92.9937 34.8988C92.5941 34.699 92.1945 34.2994 91.9281 33.8332ZM89.2641 25.9077C89.2641 26.9733 88.8645 27.6394 87.9987 27.9058L87.8655 27.9724C87.5991 28.039 87.3327 28.039 86.9997 28.039H85.5345V23.7099H86.9997C88.5315 23.7099 89.2641 24.3759 89.2641 25.9077Z" fill="#706F6F"/>
<path d="M95.0588 22.9103L95.5916 23.1101C95.9912 23.3099 96.2576 23.6429 96.2576 24.1091V33.966C96.2576 34.4322 95.9912 34.7652 95.5916 34.965L94.9922 35.1648V35.8974H99.9872V35.1648L99.4544 34.965C99.0548 34.7652 98.7884 34.4322 98.7884 33.966V24.1091C98.7884 23.6429 99.0548 23.3099 99.4544 23.1101L100.054 22.9103V22.1777H95.0588V22.9103Z" fill="#706F6F"/>
<path d="M219.33 32.634L218.198 33.8994C217.998 34.0992 217.732 34.2324 217.399 34.2324H212.937V24.1091C212.937 23.6429 213.203 23.3099 213.603 23.1101L214.202 22.9103V22.1777H209.207V22.9103L209.74 23.1101C210.14 23.3099 210.406 23.6429 210.406 24.1091V33.966C210.406 34.4322 210.14 34.7652 209.74 34.965L209.141 35.1648V35.8974H219.53L219.996 32.7672L219.33 32.634Z" fill="#706F6F"/>
<path d="M74.0122 18.7812H67.1523V19.5805L67.8183 19.8469C68.3512 20.0467 68.7508 20.5795 68.7508 21.1789V33.6331C68.7508 34.2325 68.4178 34.7653 67.8849 34.9651L67.2189 35.2315V36.0307H73.3462V35.2315L72.6802 34.9651C72.1474 34.7653 71.7478 34.2325 71.7478 33.6331V28.1053H73.6126C77.7418 28.1053 79.6732 26.6401 79.6732 23.4433C79.6732 20.3797 77.875 18.8479 74.0122 18.7812ZM71.7478 20.7127H73.6126C75.6772 20.7127 76.6096 21.5785 76.6096 23.5099C76.6096 25.3081 75.7438 26.2405 73.9456 26.3071H71.7478V20.7127Z" fill="#706F6F"/>
<path d="M113.772 22.3777L109.976 26.84L105.98 22.1113H102.117V22.8439L102.65 23.0437C103.05 23.2435 103.316 23.5765 103.316 24.0427V33.8996C103.316 34.3658 103.05 34.6988 102.65 34.8986L102.051 35.0984V35.831H106.113V35.0984L105.581 34.8986C105.181 34.6988 104.915 34.3658 104.915 33.8996V24.8419L109.31 30.0368L113.706 24.8419V33.8996C113.706 34.3658 113.439 34.6988 113.04 34.8986L112.44 35.0984V35.831H117.435V35.0984L116.903 34.8986C116.503 34.6988 116.237 34.3658 116.237 33.8996V24.1093C116.237 23.7097 116.503 23.3101 116.903 23.1103L117.569 22.8439V22.1113H113.772V22.3777Z" fill="#706F6F"/>
<path d="M181.769 33.6332L177.307 22.1113H175.842L171.38 33.6998C171.18 34.2326 170.714 34.6988 170.181 34.8986L169.781 35.0318V35.7644H173.977V35.0318L173.111 34.6988C173.045 34.6322 172.978 34.5656 172.911 34.499C172.845 34.4324 172.845 34.2992 172.911 34.2326L174.243 30.836H178.173L179.505 34.2326C179.572 34.2992 179.505 34.4324 179.505 34.499C179.438 34.5656 179.372 34.6322 179.305 34.6988L178.306 35.0984V35.831H183.767V35.0984L183.035 34.8986C182.435 34.6988 182.036 34.2326 181.769 33.6332ZM177.507 29.2376H174.843L176.175 25.7743L177.507 29.2376Z" fill="#706F6F"/>
<path d="M190.497 22.9105L191.363 23.2435C191.563 23.3101 191.629 23.5099 191.563 23.7097L188.299 32.168L185.036 23.7097C184.969 23.5099 185.036 23.3101 185.236 23.2435L186.235 22.8439V22.1113H180.773V22.8439L181.506 23.1103C182.039 23.3101 182.505 23.7763 182.705 24.3091L187.167 35.831H188.632L193.095 24.2425C193.294 23.7097 193.761 23.2435 194.293 23.0437L194.693 22.9105V22.1779L190.497 22.1113V22.9105Z" fill="#706F6F"/>
<path d="M128.225 33.9C128.025 34.0998 127.758 34.233 127.425 34.233H123.363V29.4378H124.961C125.361 29.4378 125.76 29.7042 125.96 30.0372V30.3036H126.759V26.8403H125.96V27.1067C125.76 27.5063 125.427 27.7061 124.961 27.7061H123.363V23.6435H126.626C126.959 23.6435 127.226 23.7767 127.425 23.9765L128.558 25.2419L129.224 25.1087L128.757 21.9785H119.567V22.7111L120.099 22.9109C120.499 23.1107 120.765 23.4437 120.765 23.9099V33.7668C120.765 34.233 120.499 34.566 120.099 34.7658L119.5 34.9656V35.6982H129.49L129.956 32.6346L129.29 32.4348L128.225 33.9Z" fill="#706F6F"/>
<path d="M167.389 33.833C167.123 33.3002 166.856 32.6342 166.523 31.835L166.457 31.7684C166.057 30.9026 165.658 30.0368 165.125 29.3042C166.59 28.7714 167.256 27.6392 167.256 25.9075C167.256 23.3101 165.724 22.1113 162.394 22.1113H157.199V22.8439L157.732 23.0437C158.132 23.1769 158.398 23.5765 158.398 24.0427V33.8996C158.398 34.3658 158.132 34.6988 157.732 34.8986L157.133 35.0984V35.831H162.128V35.0984L161.595 34.8986C161.195 34.6988 160.929 34.3658 160.929 33.8996V29.6372H162.128C162.727 29.6372 163.26 30.9692 163.859 32.2346L164.126 32.834C165.058 34.8986 165.391 35.6312 165.391 35.6312L165.458 35.831H169.054V35.0318L168.521 34.9652C168.055 34.6988 167.656 34.2992 167.389 33.833ZM160.996 23.7097H162.461C164.059 23.7097 164.792 24.3757 164.792 25.9075C164.792 26.9732 164.392 27.6392 163.526 27.9056L163.393 27.9722C163.127 28.0388 162.86 28.0388 162.527 28.0388H161.062V23.7097H160.996Z" fill="#706F6F"/>
<path d="M139.744 18.7812L139.211 22.5775L139.944 22.6441L141.342 21.0457C141.609 20.7127 142.008 20.5795 142.408 20.5795H145.738V33.4999C145.738 34.0993 145.405 34.6321 144.872 34.8319L144.206 35.0983V35.8975H150.333V35.0983L149.667 34.8319C149.134 34.6321 148.735 34.0993 148.735 33.4999V20.5795H152.065C152.464 20.5795 152.864 20.7793 153.13 21.0457L154.529 22.6441L155.262 22.5775L154.729 18.7812H139.744Z" fill="#706F6F"/>
<path d="M205.35 33.9C205.15 34.0998 204.883 34.233 204.55 34.233H200.488V29.4378H202.086C202.486 29.4378 202.885 29.7042 203.085 30.0372V30.3036H203.884V26.8403H203.085V27.1067C202.885 27.5063 202.552 27.7061 202.086 27.7061H200.488V23.6435H203.751C204.084 23.6435 204.351 23.7767 204.55 23.9765L205.683 25.2419L206.349 25.1087L205.882 21.9785H196.692V22.7111L197.224 22.9109C197.624 23.1107 197.89 23.4437 197.89 23.9099V33.7668C197.89 34.233 197.624 34.566 197.224 34.7658L196.625 34.9656V35.6982H206.615L207.081 32.6346L206.415 32.4348L205.35 33.9Z" fill="#706F6F"/>
<defs>
<linearGradient id="paint0_linear_3434_1945" x1="0.0159414" y1="16.2754" x2="53.6446" y2="16.2754" gradientUnits="userSpaceOnUse">
<stop stop-color="#F9DC85"/>
<stop offset="1" stop-color="#7F5211"/>
</linearGradient>
<linearGradient id="paint1_linear_3434_1945" x1="13.4223" y1="16.2754" x2="40.237" y2="16.2754" gradientUnits="userSpaceOnUse">
<stop stop-color="#F9DC85"/>
<stop offset="1" stop-color="#7F5211"/>
</linearGradient>
<linearGradient id="paint2_linear_3434_1945" x1="12.7904" y1="37.3404" x2="23.8749" y2="46.5347" gradientUnits="userSpaceOnUse">
<stop stop-color="#F9DC85"/>
<stop offset="0.5188" stop-color="#7F5211"/>
</linearGradient>
<linearGradient id="paint3_linear_3434_1945" x1="28.9984" y1="41.2116" x2="43.4004" y2="41.2116" gradientUnits="userSpaceOnUse">
<stop stop-color="#F9DC85"/>
<stop offset="1" stop-color="#7F5211"/>
</linearGradient>
<linearGradient id="paint4_linear_3434_1945" x1="10.2567" y1="41.2116" x2="24.6581" y2="41.2116" gradientUnits="userSpaceOnUse">
<stop stop-color="#F9DC85"/>
<stop offset="1" stop-color="#7F5211"/>
</linearGradient>
<linearGradient id="paint5_linear_3434_1945" x1="31.7151" y1="44.7019" x2="37.9365" y2="39.8596" gradientUnits="userSpaceOnUse">
<stop stop-color="#F9DC85"/>
<stop offset="0.9313" stop-color="#7F5211"/>
</linearGradient>
<linearGradient id="paint6_linear_3434_1945" x1="0.015849" y1="19.0692" x2="18.5446" y2="19.0692" gradientUnits="userSpaceOnUse">
<stop stop-color="#F9DC85"/>
<stop offset="1" stop-color="#7F5211"/>
</linearGradient>
<linearGradient id="paint7_linear_3434_1945" x1="13.4223" y1="26.9501" x2="24.6585" y2="26.9501" gradientUnits="userSpaceOnUse">
<stop stop-color="#F9DC85"/>
<stop offset="1" stop-color="#7F5211"/>
</linearGradient>
<linearGradient id="paint8_linear_3434_1945" x1="35.1146" y1="19.0692" x2="53.6427" y2="19.0692" gradientUnits="userSpaceOnUse">
<stop stop-color="#F9DC85"/>
<stop offset="1" stop-color="#7F5211"/>
</linearGradient>
<linearGradient id="paint9_linear_3434_1945" x1="28.999" y1="26.9501" x2="40.2353" y2="26.9501" gradientUnits="userSpaceOnUse">
<stop stop-color="#F9DC85"/>
<stop offset="1" stop-color="#7F5211"/>
</linearGradient>
</defs>
</svg>
