<svg width="74" height="74" viewBox="0 0 74 74" fill="none" xmlns="http://www.w3.org/2000/svg">
<g clip-path="url(#clip0_3434_2014)">
<path d="M37.0084 0.105469C16.6279 0.105469 0.046875 16.6547 0.046875 36.9954C0.046875 47.1711 4.19645 56.3985 10.8949 63.0784C8.85261 66.0822 7.18562 67.2916 7.13921 67.3234L8.86587 69.8843L10.562 72.465C10.8074 72.3045 13.042 70.7688 15.6624 67.0834C21.6965 71.3603 29.0607 73.8853 37.0084 73.8853C57.3875 73.8853 73.9686 57.3361 73.9686 36.9954C73.9686 16.6547 57.3875 0.105469 37.0084 0.105469ZM6.22415 36.9967C6.22415 20.0616 20.0348 6.28275 37.0084 6.28275C53.982 6.28275 67.7913 20.0616 67.7913 36.9967C67.7913 41.0614 66.989 44.9404 65.5448 48.4946C50.7421 38.4621 52.0975 13.7066 52.1121 13.456L45.9613 12.9043C41.6155 50.7079 36.4142 52.7767 36.2856 52.8404C33.3442 52.2768 27.6231 37.8707 24.2838 22.6171L18.1861 23.5017C19.3823 39.8824 16.8997 50.6111 13.9875 57.3586C9.16294 51.9333 6.22415 44.8025 6.22415 36.9967ZM37.0084 67.7107C30.2025 67.7107 23.9085 65.492 18.8068 61.7469C20.9392 57.3799 22.9232 51.4572 23.947 43.5679C27.9772 54.4543 31.9278 59.2431 36.5548 59.0084C41.9629 58.7352 45.8274 51.5912 48.9478 35.2382C51.3044 42.247 55.4434 49.3539 62.6405 53.9836C57.1183 62.2495 47.692 67.7107 37.0084 67.7107Z" fill="#A2BC0C"/>
</g>
<defs>
<clipPath id="clip0_3434_2014">
<rect width="74" height="74" fill="white"/>
</clipPath>
</defs>
</svg>
