<svg width="1006" height="1096" viewBox="0 0 1006 1096" fill="none" xmlns="http://www.w3.org/2000/svg">
<path opacity="0.05" d="M428.641 -56C110.54 -56 -148.258 202.302 -148.258 519.782C-148.258 678.605 -83.4908 822.628 21.0595 926.888C-10.8169 973.771 -36.8354 992.649 -37.5599 993.146L-10.6099 1033.12L15.864 1073.4C19.6933 1070.89 54.571 1046.92 95.4713 989.399C189.651 1056.15 304.593 1095.56 428.641 1095.56C746.722 1095.56 1005.52 837.262 1005.52 519.782C1005.52 202.302 746.722 -56 428.641 -56ZM-51.8422 519.803C-51.8422 255.477 163.716 40.4157 428.641 40.4157C693.567 40.4157 909.105 255.477 909.105 519.803C909.105 583.245 896.582 643.789 874.041 699.262C642.999 542.675 664.154 156.288 664.381 152.376L568.38 143.765C500.549 733.809 419.368 766.099 417.36 767.093C371.45 758.296 282.155 533.443 230.035 295.364L134.861 309.17C153.532 564.843 114.783 732.298 69.3285 837.614C-5.97334 752.935 -51.8422 641.636 -51.8422 519.803ZM428.641 999.19C322.414 999.19 224.177 964.56 144.548 906.107C177.832 837.945 208.798 745.504 224.777 622.366C287.681 792.283 349.344 867.027 421.562 863.363C505.972 859.099 566.289 747.594 614.994 492.356C651.776 601.75 716.377 712.675 828.71 784.935C742.52 913.951 595.392 999.19 428.641 999.19Z" fill="#A2BC0C"/>
</svg>
