<svg width="289" height="53" viewBox="0 0 289 53" fill="none" xmlns="http://www.w3.org/2000/svg">
<path d="M78.826 41.4961C84.2436 41.4961 88.7283 38.1497 88.7283 30.9348V17.8402C88.7283 10.6681 86.1607 7.06494 79.0913 7.06494H67.9651C66.0651 7.06494 65.1836 8.19467 65.1836 10.0519C65.1836 11.9091 66.0395 13.0474 67.9651 13.0474H78.5692C81.5647 13.0474 82.5918 14.8447 82.5918 17.5834V20.2109H72.1246C70.1219 20.2109 69.1377 21.1353 69.1377 23.2492C69.1377 25.62 70.1219 26.3474 72.1246 26.3474H82.5918V31.0375C82.5918 33.8191 81.094 35.4709 78.5692 35.4709L67.9994 35.5222C66.1507 35.5222 65.2178 36.652 65.2178 38.5092C65.2178 40.3664 66.1507 41.4961 67.9994 41.4961H78.826Z" fill="#222222"/>
<path d="M207.034 17.4722H203.841C198.116 17.4722 194.145 20.7244 194.145 27.015V32.1501C194.145 38.4921 198.372 41.5646 203.687 41.5646H207.188C212.503 41.5646 216.722 38.5263 216.722 32.1501V27.015C216.722 20.7244 212.759 17.4722 207.034 17.4722ZM210.543 32.27C210.543 34.4353 209.507 35.933 206.726 35.933H204.158C201.377 35.933 200.341 34.4353 200.341 32.27V26.9123C200.341 24.4902 201.428 23.0438 204.209 23.0438H206.683C209.464 23.0438 210.551 24.4902 210.551 26.9123L210.543 32.27Z" fill="#222222"/>
<path d="M179.2 23.352H189.658C190.053 23.3962 190.453 23.3504 190.828 23.2181C191.203 23.0858 191.543 22.8704 191.823 22.588C192.103 22.3057 192.316 21.9636 192.445 21.5876C192.574 21.2115 192.616 20.8111 192.568 20.4164C192.568 18.5078 191.593 17.4209 189.633 17.4209H176.153C174.039 17.4209 173.012 18.4051 173.012 20.4164V38.612C173.012 40.7259 174.039 41.4962 176.153 41.4962C178.267 41.4962 179.2 40.7259 179.2 38.612V23.352Z" fill="#222222"/>
<path d="M158.729 17.4209H148.784C148.376 17.4272 147.972 17.5159 147.599 17.6818C147.225 17.8476 146.889 18.0871 146.61 18.386C146.331 18.6848 146.115 19.0369 145.976 19.4211C145.836 19.8052 145.775 20.2136 145.797 20.6218V50.1147C145.797 51.2958 146.978 52.3742 148.938 52.3742C150.898 52.3742 151.977 51.2958 151.977 50.1147V41.4962H158.935C164.66 41.4962 168.632 38.2525 168.632 31.9448V26.8097C168.606 20.6218 164.404 17.4209 158.729 17.4209ZM162.444 31.8421C162.444 34.2813 161.357 35.7277 158.575 35.7277H151.977V23.352H158.627C161.417 23.352 162.444 24.8497 162.444 27.0322V31.8421Z" fill="#222222"/>
<path d="M131.923 17.4209H129.501C123.938 17.4209 119.762 20.9898 119.762 27.0835V32.2187C119.762 38.1584 123.784 41.462 129.296 41.462H136.87C137.23 41.4457 137.582 41.3577 137.907 41.203C138.232 41.0483 138.523 40.8301 138.762 40.5613C139.002 40.2925 139.185 39.9785 139.301 39.6378C139.417 39.2972 139.463 38.9367 139.438 38.5777C139.473 38.2167 139.434 37.8523 139.322 37.5073C139.209 37.1624 139.027 36.8444 138.786 36.5735C138.544 36.3025 138.25 36.0845 137.92 35.933C137.59 35.7816 137.233 35.7 136.87 35.6935H130.023C127.55 35.6935 125.958 34.5466 125.958 32.5268V32.1673H138.377C138.802 32.2007 139.229 32.1451 139.631 32.0039C140.033 31.8628 140.402 31.6393 140.713 31.3477C141.023 31.0561 141.27 30.7028 141.437 30.3105C141.603 29.9182 141.686 29.4954 141.68 29.0691V27.0835C141.672 20.8871 137.392 17.4209 131.923 17.4209ZM135.484 27.4516H125.95V27.1349C125.916 26.6316 125.99 26.1269 126.166 25.6544C126.343 25.1818 126.618 24.7523 126.973 24.3945C127.329 24.0366 127.756 23.7585 128.228 23.5787C128.699 23.399 129.203 23.3217 129.707 23.352H131.564C134.132 23.352 135.484 24.8155 135.484 27.1349V27.4516Z" fill="#222222"/>
<path d="M112.227 41.4962C114.392 41.4962 115.376 40.6403 115.376 38.5606V20.2623C115.376 18.3538 114.392 17.4209 112.227 17.4209C110.224 17.4209 109.24 18.3538 109.24 20.2623V26.3389H99.8251V20.2623C99.8251 18.3538 98.7896 17.4209 96.7269 17.4209C94.6643 17.4209 93.5859 18.3538 93.5859 20.2623V38.5606C93.5859 40.6746 94.6215 41.4962 96.7269 41.4962C98.8323 41.4962 99.8251 40.6403 99.8251 38.5606V32.0133H109.24V38.5606C109.24 40.6746 110.224 41.4962 112.227 41.4962Z" fill="#222222"/>
<path d="M22.0128 24.285C22.023 25.0426 21.8773 25.7942 21.5849 26.4931C21.3409 27.1467 20.8901 27.7027 20.3011 28.0765C19.3596 28.4656 18.3363 28.6155 17.3227 28.5129H4.69025C3.67665 28.6155 2.65341 28.4656 1.71187 28.0765C1.11922 27.7029 0.6676 27.1429 0.428077 26.4846C-0.142692 25.0648 -0.142692 23.4795 0.428077 22.0598C0.674683 21.4122 1.12529 20.8625 1.71187 20.4935C2.65341 20.1044 3.67665 19.9545 4.69025 20.0571H17.3227C18.3363 19.9545 19.3596 20.1044 20.3011 20.4935C20.8885 20.8692 21.3388 21.4246 21.5849 22.0769C21.8773 22.7788 22.0229 23.5332 22.0128 24.2936M10.0308 41.4107C13.4193 44.8493 17.7541 47.2022 22.4837 48.1701C27.2134 49.138 32.124 48.6771 36.5909 46.846C41.0578 45.0149 44.879 41.8964 47.5685 37.8873C50.2579 33.8782 51.694 29.1597 51.694 24.3321C51.694 19.5044 50.2579 14.7859 47.5685 10.7768C44.879 6.76771 41.0578 3.64925 36.5909 1.81817C32.124 -0.0129118 27.2134 -0.473838 22.4837 0.494028C17.7541 1.4619 13.4193 3.8148 10.0308 7.25341C9.15944 8.20386 8.69058 9.45518 8.72286 10.7442C8.75513 12.0332 9.28601 13.2595 10.2039 14.1652C11.1217 15.0708 12.355 15.5853 13.6443 15.6003C14.9337 15.6153 16.1786 15.1298 17.1173 14.2458C18.435 12.8953 20.0059 11.8178 21.7403 11.0747C23.4746 10.3316 25.3383 9.93761 27.225 9.91513C29.9811 10.0307 32.683 10.7186 35.1588 11.935C37.0789 12.8843 38.8401 14.1258 40.3796 15.6152L40.4309 15.6751C40.6288 15.9216 40.7546 16.2181 40.7943 16.5318C40.8339 16.8455 40.786 17.164 40.6557 17.452C40.5254 17.7401 40.3179 17.9864 40.0561 18.1637C39.7944 18.3411 39.4886 18.4424 39.1728 18.4566H33.8322C30.8624 18.4566 30.5201 18.8075 29.5529 20.4679C28.8769 21.6388 28.521 22.9671 28.521 24.3192C28.521 25.6713 28.8769 26.9996 29.5529 28.1706C30.4944 29.831 30.8367 30.1904 33.8322 30.1904H39.1728C39.4879 30.2061 39.7925 30.3085 40.0531 30.4864C40.3136 30.6643 40.5199 30.9108 40.6492 31.1986C40.7785 31.4864 40.8257 31.8043 40.7857 32.1173C40.7457 32.4302 40.6199 32.726 40.4223 32.972V33.0233C38.8813 34.5107 37.1204 35.752 35.2016 36.7035C32.7194 37.9251 30.0069 38.6076 27.2421 38.7062C25.348 38.6805 23.4777 38.2792 21.7397 37.5256C20.0018 36.7719 18.4306 35.6809 17.1173 34.3157C16.1791 33.402 14.9187 32.8945 13.6091 32.9032C12.2995 32.9119 11.046 33.436 10.12 34.362C9.19392 35.2881 8.66983 36.5416 8.66115 37.8512C8.65248 39.1608 9.15991 40.4211 10.0736 41.3594" fill="#E30613"/>
<path d="M238.049 23.352C239.906 23.352 240.882 22.2394 240.882 20.3822C240.882 18.525 239.906 17.4209 238.049 17.4209H221.985C220.127 17.4209 219.203 18.525 219.203 20.3822C219.203 22.2394 220.127 23.352 221.985 23.352H226.974V38.612C226.974 40.6232 227.95 41.4962 230.013 41.4962C232.075 41.4962 233.111 40.6403 233.111 38.612V23.352H238.049Z" fill="#E30613"/>
<path d="M287.911 20.9815C287.984 20.7005 288.035 20.4144 288.065 20.1256C288.116 18.4139 286.678 17.4382 284.718 17.3869C282.758 17.3355 282.245 18.5251 281.723 19.7661L280.721 22.9414C279.746 25.5689 278.453 26.1936 276.391 26.1936H273.25V20.4936C273.25 18.6364 272.574 17.4468 270.203 17.4468C267.832 17.4468 267.113 18.6364 267.113 20.4936V38.4667C267.113 40.6833 268.2 41.5563 270.1 41.5563C272.368 41.5563 273.25 40.5806 273.25 38.364V31.5171H276.442C278.813 31.5171 280.259 32.082 281.184 35.0175L282.467 38.9887C282.93 40.2297 283.392 41.5135 285.352 41.5135C287.312 41.5135 288.775 40.6577 288.775 38.9459C288.793 38.6568 288.758 38.3669 288.672 38.0901L287.08 33.5027C286.225 31.1319 285.369 29.5315 283.007 28.7612C285.018 27.9824 285.839 26.5445 286.67 24.2765L287.911 20.9815Z" fill="#E30613"/>
<path d="M252.795 41.4963C258.666 41.4963 262.689 38.4494 262.689 32.0818V26.9467C262.689 20.6475 258.717 17.3867 253 17.3867H245.725C244.999 17.4479 244.327 17.7933 243.854 18.3478C243.381 18.9024 243.146 19.6213 243.201 20.348C243.166 20.7099 243.203 21.0752 243.312 21.4222C243.421 21.7691 243.598 22.0907 243.834 22.3677C244.07 22.6448 244.358 22.8716 244.683 23.0348C245.008 23.1981 245.363 23.2943 245.725 23.3178H252.641C255.32 23.3178 256.449 24.5759 256.501 26.844H248.926C247.069 26.844 245.991 27.6998 245.991 29.4115C245.991 31.4228 247.069 31.9791 248.926 31.9791H256.501C256.398 33.9904 255.422 35.7107 252.692 35.7107H245.469C245.111 35.7255 244.761 35.8126 244.438 35.9669C244.115 36.1212 243.827 36.3393 243.591 36.6082C243.355 36.877 243.176 37.1909 243.065 37.5309C242.953 37.8709 242.912 38.23 242.944 38.5863C242.914 38.9468 242.957 39.3096 243.071 39.6528C243.185 39.9961 243.368 40.3125 243.608 40.5831C243.848 40.8536 244.14 41.0725 244.468 41.2265C244.795 41.3806 245.15 41.4665 245.511 41.4791L252.795 41.4963Z" fill="#E30613"/>
</svg>
