<svg width="123" height="79" viewBox="0 0 123 79" fill="none" xmlns="http://www.w3.org/2000/svg">
<path d="M8.71696 10.9867C10.195 9.70147 12.3799 9.05885 15.2717 9.05885H27.4249V3.56445H15.2717C10.6769 3.56445 6.77303 4.73723 4.13829 7.0828C1.53568 9.39623 0.234375 12.5933 0.234375 16.6739V37.784H6.49992V24.8673H27.4249V19.5657H6.49992V16.6739C6.49992 14.1677 7.23893 12.272 8.71696 10.9867Z" fill="#676767"/>
<path d="M66.6719 52.3163C67.6302 53.1563 68.8177 53.5763 70.2344 53.5763C71.6927 53.5763 72.8802 53.1363 73.7969 52.2563C74.7552 51.3363 75.2344 50.2163 75.2344 48.8963C75.2344 47.6563 74.7552 46.6363 73.7969 45.8363C72.8385 44.9963 71.651 44.5763 70.2344 44.5763C68.8177 44.5763 67.6302 45.0163 66.6719 45.8963C65.7135 46.7363 65.2344 47.7963 65.2344 49.0763C65.2344 50.3563 65.7135 51.4363 66.6719 52.3163Z" fill="black"/>
<path d="M8.71696 10.9867C10.195 9.70147 12.3799 9.05885 15.2717 9.05885H27.4249V3.56445H15.2717C10.6769 3.56445 6.77303 4.73723 4.13829 7.0828C1.53568 9.39623 0.234375 12.5933 0.234375 16.6739V37.784H6.49992V24.8673H27.4249V19.5657H6.49992V16.6739C6.49992 14.1677 7.23893 12.272 8.71696 10.9867Z" fill="#676767"/>
<path d="M66.6719 52.3163C67.6302 53.1563 68.8177 53.5763 70.2344 53.5763C71.6927 53.5763 72.8802 53.1363 73.7969 52.2563C74.7552 51.3363 75.2344 50.2163 75.2344 48.8963C75.2344 47.6563 74.7552 46.6363 73.7969 45.8363C72.8385 44.9963 71.651 44.5763 70.2344 44.5763C68.8177 44.5763 67.6302 45.0163 66.6719 45.8963C65.7135 46.7363 65.2344 47.7963 65.2344 49.0763C65.2344 50.3563 65.7135 51.4363 66.6719 52.3163Z" fill="black"/>
<path d="M54.5279 12.0469H60.5525V37.7839H54.5279V12.0469Z" fill="#676767"/>
<path d="M57.5643 7.80564C56.4718 7.80564 55.5561 7.46827 54.8171 6.79352C54.0781 6.08664 53.7086 5.2191 53.7086 4.19091C53.7086 3.16272 54.0781 2.31124 54.8171 1.63649C55.5561 0.929612 56.4718 0.576172 57.5643 0.576172C58.6567 0.576172 59.5725 0.913547 60.3115 1.5883C61.0505 2.23092 61.42 3.05026 61.42 4.04632C61.42 5.10664 61.0505 6.00631 60.3115 6.74532C59.6046 7.4522 58.6889 7.80564 57.5643 7.80564Z" fill="#676767"/>
<path d="M43.611 38.1212C40.9441 38.1212 38.8556 37.3983 37.3454 35.9524C35.8674 34.4744 35.1284 32.4019 35.1284 29.735L34.9951 3.7484H41.0197L41.153 29.3013C41.153 31.8718 42.3579 33.157 44.7677 33.157C45.571 33.157 46.2939 32.9963 46.9365 32.675L47.2257 37.4947C46.1011 37.9124 44.8962 38.1212 43.611 38.1212Z" fill="#676767"/>
<path fill-rule="evenodd" clip-rule="evenodd" d="M88.2693 13.3964C86.3093 12.304 84.0762 11.7578 81.57 11.7578C79.8028 11.7578 78.1802 12.063 76.7021 12.6735C75.2562 13.284 74.0353 14.1997 73.0392 15.4207V12.0469H67.3038V42.8653C68.2622 42.4671 69.3197 42.2681 70.4764 42.2681C71.5056 42.2681 72.4562 42.4185 73.3284 42.7194V34.6511C75.3526 36.9645 78.0998 38.1212 81.57 38.1212C84.0762 38.1212 86.3093 37.575 88.2693 36.4826C90.2614 35.3901 91.8198 33.8478 92.9444 31.8557C94.0689 29.8314 94.6312 27.518 94.6312 24.9154C94.6312 22.3128 94.0689 20.0154 92.9444 18.0233C91.8198 16.0312 90.2614 14.4889 88.2693 13.3964ZM86.3414 30.7472C84.9277 32.2252 83.1123 32.9642 80.8952 32.9642C79.4493 32.9642 78.148 32.6429 76.9913 32.0003C75.8346 31.3255 74.9189 30.3777 74.2441 29.1567C73.5694 27.9357 73.232 26.5219 73.232 24.9154C73.232 23.3088 73.5694 21.8951 74.2441 20.6741C74.9189 19.4531 75.8346 18.5213 76.9913 17.8787C78.148 17.204 79.4493 16.8666 80.8952 16.8666C83.1123 16.8666 84.9277 17.6056 86.3414 19.0836C87.7873 20.5616 88.5103 22.5056 88.5103 24.9154C88.5103 27.3252 87.7873 29.2691 86.3414 30.7472Z" fill="#676767"/>
<path d="M91.0569 46.4323C88.5185 46.4323 87.2494 47.8139 87.2494 50.5772V52.1195H94.3343V56.9391H87.394V77.6636H81.3694V50.4808C81.3694 47.7497 82.1727 45.5808 83.7792 43.9743C85.3858 42.3677 87.6671 41.5645 90.6231 41.5645C92.9044 41.5645 94.7038 42.0304 96.0211 42.9622L94.3343 47.4926C93.3703 46.7857 92.2779 46.4323 91.0569 46.4323Z" fill="black"/>
<path d="M11.9962 63.542L6.6464 69.0364V77.6636H0.380859V43.9261H6.6464V61.2286L23.3224 43.9261H30.3591L16.1893 59.0116L31.2266 77.6636H23.9007L11.9962 63.542Z" fill="black"/>
<path d="M49.0473 51.6375C52.2925 51.6375 54.8951 52.5854 56.8551 54.4811C58.8151 56.3768 59.7951 59.1883 59.7951 62.9155V77.6636H53.7705V63.6866C53.7705 61.4375 53.2403 59.7506 52.18 58.626C51.1197 57.4693 49.6096 56.8909 47.6496 56.8909C45.4325 56.8909 43.6814 57.5657 42.3961 58.9152C41.1109 60.2326 40.4683 62.1444 40.4683 64.6506V77.6636H34.4437V51.9267H40.1791V55.2523C41.1752 54.0634 42.4283 53.1637 43.9384 52.5532C45.4486 51.9428 47.1515 51.6375 49.0473 51.6375Z" fill="black"/>
<path d="M73.4622 56.2656C72.5658 56.602 71.5704 56.7702 70.476 56.7702C69.3731 56.7702 68.3603 56.5974 67.4376 56.2518V77.6636H73.4622V56.2656Z" fill="black"/>
<path fill-rule="evenodd" clip-rule="evenodd" d="M117.214 70.0968C115.351 71.9604 113.021 72.8922 110.226 72.8922C108.33 72.8922 106.708 72.5066 105.358 71.7355C104.009 70.9643 103.029 69.8397 102.418 68.3617L122.13 64.506C122.13 61.9034 121.552 59.6381 120.395 57.7103C119.239 55.7503 117.664 54.2562 115.672 53.228C113.712 52.1677 111.527 51.6375 109.117 51.6375C106.579 51.6375 104.298 52.1998 102.273 53.3244C100.281 54.449 98.7069 56.0234 97.5502 58.0476C96.4256 60.0398 95.8633 62.2889 95.8633 64.7952C95.8633 67.3335 96.4417 69.6148 97.5984 71.6391C98.7873 73.6312 100.458 75.1895 102.611 76.3141C104.764 77.4387 107.254 78.001 110.081 78.001C112.298 78.001 114.29 77.6475 116.058 76.9407C117.825 76.2338 119.271 75.1895 120.395 73.8079L117.214 70.0968ZM103.719 58.626C105.101 57.1801 106.9 56.4572 109.117 56.4572C110.917 56.4572 112.443 56.9391 113.696 57.9031C114.981 58.867 115.833 60.1362 116.25 61.7106L101.695 64.506V64.4578C101.695 62.0158 102.37 60.0719 103.719 58.626Z" fill="black"/>
<path d="M91.0569 46.4323C88.5185 46.4323 87.2494 47.8139 87.2494 50.5772V52.1195H94.3343V56.9391H87.394V77.6636H81.3694V50.4808C81.3694 47.7497 82.1727 45.5808 83.7792 43.9743C85.3858 42.3677 87.6671 41.5645 90.6231 41.5645C92.9044 41.5645 94.7038 42.0304 96.0211 42.9622L94.3343 47.4926C93.3703 46.7857 92.2779 46.4323 91.0569 46.4323Z" fill="black"/>
<path d="M11.9962 63.542L6.6464 69.0364V77.6636H0.380859V43.9261H6.6464V61.2286L23.3224 43.9261H30.3591L16.1893 59.0116L31.2266 77.6636H23.9007L11.9962 63.542Z" fill="black"/>
<path d="M49.0473 51.6375C52.2925 51.6375 54.8951 52.5854 56.8551 54.4811C58.8151 56.3768 59.7951 59.1883 59.7951 62.9155V77.6636H53.7705V63.6866C53.7705 61.4375 53.2403 59.7506 52.18 58.626C51.1197 57.4693 49.6096 56.8909 47.6496 56.8909C45.4325 56.8909 43.6814 57.5657 42.3961 58.9152C41.1109 60.2326 40.4683 62.1444 40.4683 64.6506V77.6636H34.4437V51.9267H40.1791V55.2523C41.1752 54.0634 42.4283 53.1637 43.9384 52.5532C45.4486 51.9428 47.1515 51.6375 49.0473 51.6375Z" fill="black"/>
<path d="M73.4622 56.2656C72.5658 56.602 71.5704 56.7702 70.476 56.7702C69.3731 56.7702 68.3603 56.5974 67.4376 56.2518V77.6636H73.4622V56.2656Z" fill="black"/>
<path fill-rule="evenodd" clip-rule="evenodd" d="M117.214 70.0968C115.351 71.9604 113.021 72.8922 110.226 72.8922C108.33 72.8922 106.708 72.5066 105.358 71.7355C104.009 70.9643 103.029 69.8397 102.418 68.3617L122.13 64.506C122.13 61.9034 121.552 59.6381 120.395 57.7103C119.239 55.7503 117.664 54.2562 115.672 53.228C113.712 52.1677 111.527 51.6375 109.117 51.6375C106.579 51.6375 104.298 52.1998 102.273 53.3244C100.281 54.449 98.7069 56.0234 97.5502 58.0476C96.4256 60.0398 95.8633 62.2889 95.8633 64.7952C95.8633 67.3335 96.4417 69.6148 97.5984 71.6391C98.7873 73.6312 100.458 75.1895 102.611 76.3141C104.764 77.4387 107.254 78.001 110.081 78.001C112.298 78.001 114.29 77.6475 116.058 76.9407C117.825 76.2338 119.271 75.1895 120.395 73.8079L117.214 70.0968ZM103.719 58.626C105.101 57.1801 106.9 56.4572 109.117 56.4572C110.917 56.4572 112.443 56.9391 113.696 57.9031C114.981 58.867 115.833 60.1362 116.25 61.7106L101.695 64.506V64.4578C101.695 62.0158 102.37 60.0719 103.719 58.626Z" fill="black"/>
</svg>
