<svg width="1002" height="1089" viewBox="0 0 1002 1089" fill="none" xmlns="http://www.w3.org/2000/svg">
<g opacity="0.05">
<path d="M-686.21 90.9559C-664.21 71.8258 -631.689 62.2607 -588.646 62.2607H-407.751V-19.5209H-588.646C-657.036 -19.5209 -715.144 -2.06456 -754.361 32.848C-793.099 67.2823 -812.469 114.869 -812.469 175.607V489.82H-719.209V297.562H-407.751V218.65H-719.209V175.607C-719.209 138.303 -708.209 110.086 -686.21 90.9559Z" fill="#676767"/>
<path d="M176.422 706.128C190.686 718.631 208.361 724.882 229.448 724.882C251.154 724.882 268.83 718.333 282.474 705.235C296.739 691.541 303.871 674.87 303.871 655.223C303.871 636.766 296.739 621.584 282.474 609.676C268.21 597.173 250.534 590.921 229.448 590.921C208.361 590.921 190.686 597.471 176.422 610.569C162.157 623.072 155.025 638.85 155.025 657.902C155.025 676.954 162.157 693.029 176.422 706.128Z" fill="black"/>
<path d="M-686.21 90.9559C-664.21 71.8258 -631.689 62.2607 -588.646 62.2607H-407.751V-19.5209H-588.646C-657.036 -19.5209 -715.144 -2.06456 -754.361 32.848C-793.099 67.2823 -812.469 114.869 -812.469 175.607V489.82H-719.209V297.562H-407.751V218.65H-719.209V175.607C-719.209 138.303 -708.209 110.086 -686.21 90.9559Z" fill="#676767"/>
<path d="M176.422 706.128C190.686 718.631 208.361 724.882 229.448 724.882C251.154 724.882 268.83 718.333 282.474 705.235C296.739 691.541 303.871 674.87 303.871 655.223C303.871 636.766 296.739 621.584 282.474 609.676C268.21 597.173 250.534 590.921 229.448 590.921C208.361 590.921 190.686 597.471 176.422 610.569C162.157 623.072 155.025 638.85 155.025 657.902C155.025 676.954 162.157 693.029 176.422 706.128Z" fill="black"/>
<path d="M-4.33521 106.737H85.3374V489.819H-4.33521V106.737Z" fill="#676767"/>
<path d="M40.8598 43.6072C24.5991 43.6072 10.9689 38.5856 -0.0309448 28.5422C-11.0308 18.0206 -16.5308 5.10777 -16.5308 -10.1964C-16.5308 -25.5005 -11.0308 -38.1743 -0.0309448 -48.2176C10.9689 -58.7392 24.5991 -64 40.8598 -64C57.1204 -64 70.7507 -58.9783 81.7505 -48.935C92.7504 -39.3699 98.2504 -27.1744 98.2504 -12.3485C98.2504 3.43385 92.7504 16.825 81.7505 27.8248C71.2289 38.3464 57.5987 43.6072 40.8598 43.6072Z" fill="#676767"/>
<path d="M-166.829 494.84C-206.524 494.84 -237.61 484.08 -260.088 462.558C-282.088 440.558 -293.088 409.711 -293.088 370.016L-295.072 -16.783H-205.399L-203.415 363.559C-203.415 401.82 -185.481 420.95 -149.611 420.95C-137.655 420.95 -126.894 418.559 -117.329 413.776L-113.025 485.514C-129.764 491.732 -147.698 494.84 -166.829 494.84Z" fill="#676767"/>
<path fill-rule="evenodd" clip-rule="evenodd" d="M497.889 126.824C468.716 110.563 435.477 102.433 398.173 102.433C371.869 102.433 347.717 106.976 325.718 116.063C304.196 125.15 286.022 138.78 271.197 156.954V106.737H185.828V565.454C200.093 559.527 215.834 556.564 233.051 556.564C248.369 556.564 262.519 558.803 275.501 563.281V443.189C305.631 477.623 346.521 494.84 398.173 494.84C435.477 494.84 468.716 486.71 497.889 470.449C527.541 454.189 550.736 431.233 567.475 401.581C584.214 371.451 592.583 337.016 592.583 298.278C592.583 259.539 584.214 225.344 567.475 195.692C550.736 166.04 527.541 143.084 497.889 126.824ZM469.194 385.081C448.151 407.081 421.129 418.081 388.13 418.081C366.608 418.081 347.239 413.298 330.022 403.733C312.805 393.69 299.174 379.581 289.131 361.407C279.088 343.234 274.066 322.19 274.066 298.278C274.066 274.365 279.088 253.322 289.131 235.148C299.174 216.975 312.805 203.105 330.022 193.54C347.239 183.497 366.608 178.475 388.13 178.475C421.129 178.475 448.151 189.475 469.194 211.475C490.715 233.474 501.476 262.409 501.476 298.278C501.476 334.147 490.715 363.081 469.194 385.081Z" fill="#676767"/>
<path d="M539.381 618.54C501.599 618.54 482.708 639.104 482.708 680.234V703.191H588.163V774.929H484.86V1083.4H395.188V678.8C395.188 638.148 407.144 605.866 431.057 581.953C454.969 558.04 488.925 546.084 532.925 546.084C566.881 546.084 593.663 553.019 613.272 566.888L588.163 634.322C573.815 623.8 557.555 618.54 539.381 618.54Z" fill="black"/>
<path d="M-637.399 873.21L-717.029 954.991V1083.4H-810.288V581.236H-717.029V838.776L-468.815 581.236H-364.077L-574.987 805.776L-351.164 1083.4H-460.206L-637.399 873.21Z" fill="black"/>
<path d="M-85.9122 696.017C-37.6085 696.017 1.13017 710.125 30.3038 738.342C59.4773 766.559 74.0639 808.406 74.0639 863.884V1083.4H-15.6089V875.362C-15.6089 841.884 -23.5001 816.776 -39.2824 800.037C-55.0648 782.82 -77.5427 774.211 -106.716 774.211C-139.716 774.211 -165.781 784.255 -184.911 804.341C-204.041 823.95 -213.606 852.406 -213.606 889.71V1083.4H-303.279V700.321H-217.91V749.82C-203.085 732.125 -184.433 718.734 -161.955 709.647C-139.477 700.56 -114.129 696.017 -85.9122 696.017Z" fill="black"/>
<path d="M277.492 764.904C264.15 769.91 249.334 772.414 233.045 772.414C216.628 772.414 201.553 769.842 187.819 764.698V1083.4H277.492V764.904Z" fill="black"/>
<path fill-rule="evenodd" clip-rule="evenodd" d="M928.723 970.774C900.984 998.513 866.311 1012.38 824.703 1012.38C796.486 1012.38 772.334 1006.64 752.247 995.165C732.161 983.687 717.574 966.948 708.487 944.948L1001.9 887.558C1001.9 848.819 993.288 815.102 976.071 786.407C958.853 757.233 935.419 734.994 905.767 719.69C876.593 703.908 844.072 696.017 808.203 696.017C770.421 696.017 736.465 704.386 706.335 721.125C676.683 737.864 653.249 761.298 636.031 791.428C619.292 821.08 610.923 854.558 610.923 891.862C610.923 929.644 619.532 963.6 636.749 993.73C654.444 1023.38 679.314 1046.58 711.357 1063.32C743.4 1080.06 780.464 1088.42 822.551 1088.42C855.55 1088.42 885.202 1083.16 911.506 1072.64C937.81 1062.12 959.332 1046.58 976.071 1026.01L928.723 970.774ZM727.856 800.037C748.421 778.516 775.204 767.755 808.203 767.755C834.985 767.755 857.702 774.929 876.354 789.276C895.484 803.624 908.158 822.515 914.376 845.949L697.726 887.558V886.84C697.726 850.493 707.77 821.559 727.856 800.037Z" fill="black"/>
<path d="M539.381 618.54C501.599 618.54 482.708 639.104 482.708 680.234V703.191H588.163V774.929H484.86V1083.4H395.188V678.8C395.188 638.148 407.144 605.866 431.057 581.953C454.969 558.04 488.925 546.084 532.925 546.084C566.881 546.084 593.663 553.019 613.272 566.888L588.163 634.322C573.815 623.8 557.555 618.54 539.381 618.54Z" fill="black"/>
<path d="M-637.399 873.21L-717.029 954.991V1083.4H-810.288V581.236H-717.029V838.776L-468.815 581.236H-364.077L-574.987 805.776L-351.164 1083.4H-460.206L-637.399 873.21Z" fill="black"/>
<path d="M-85.9122 696.017C-37.6085 696.017 1.13017 710.125 30.3038 738.342C59.4773 766.559 74.0639 808.406 74.0639 863.884V1083.4H-15.6089V875.362C-15.6089 841.884 -23.5001 816.776 -39.2824 800.037C-55.0648 782.82 -77.5427 774.211 -106.716 774.211C-139.716 774.211 -165.781 784.255 -184.911 804.341C-204.041 823.95 -213.606 852.406 -213.606 889.71V1083.4H-303.279V700.321H-217.91V749.82C-203.085 732.125 -184.433 718.734 -161.955 709.647C-139.477 700.56 -114.129 696.017 -85.9122 696.017Z" fill="black"/>
<path d="M277.492 764.904C264.15 769.91 249.334 772.414 233.045 772.414C216.628 772.414 201.553 769.842 187.819 764.698V1083.4H277.492V764.904Z" fill="black"/>
<path fill-rule="evenodd" clip-rule="evenodd" d="M928.723 970.774C900.984 998.513 866.311 1012.38 824.703 1012.38C796.486 1012.38 772.334 1006.64 752.247 995.165C732.161 983.687 717.574 966.948 708.487 944.948L1001.9 887.558C1001.9 848.819 993.288 815.102 976.071 786.407C958.853 757.233 935.419 734.994 905.767 719.69C876.593 703.908 844.072 696.017 808.203 696.017C770.421 696.017 736.465 704.386 706.335 721.125C676.683 737.864 653.249 761.298 636.031 791.428C619.292 821.08 610.923 854.558 610.923 891.862C610.923 929.644 619.532 963.6 636.749 993.73C654.444 1023.38 679.314 1046.58 711.357 1063.32C743.4 1080.06 780.464 1088.42 822.551 1088.42C855.55 1088.42 885.202 1083.16 911.506 1072.64C937.81 1062.12 959.332 1046.58 976.071 1026.01L928.723 970.774ZM727.856 800.037C748.421 778.516 775.204 767.755 808.203 767.755C834.985 767.755 857.702 774.929 876.354 789.276C895.484 803.624 908.158 822.515 914.376 845.949L697.726 887.558V886.84C697.726 850.493 707.77 821.559 727.856 800.037Z" fill="black"/>
</g>
</svg>
