<svg width="946" height="1088" viewBox="0 0 946 1088" fill="none" xmlns="http://www.w3.org/2000/svg">
<g opacity="0.05">
<path d="M0 341.106V61.2985C0 -22.2338 41.7662 -64 125.298 -64H350.528L395.882 -28.6397V21.326H127.605C105.056 21.326 93.7817 32.344 93.7817 54.3802V348.024C93.7817 370.061 105.056 381.079 127.605 381.079H317.474V234.257H205.244V148.931H411.256V466.405H125.298C41.7662 466.405 0 424.638 0 341.106Z" fill="black"/>
<path d="M518.724 341.106V61.2985C518.724 -22.2338 560.49 -64 644.022 -64H820.055C903.588 -64 945.354 -22.2338 945.354 61.2985V341.106C945.354 424.638 903.588 466.405 820.055 466.405H644.022C560.49 466.405 518.724 424.638 518.724 341.106ZM612.506 348.024C612.506 370.061 623.78 381.079 646.328 381.079H817.749C840.298 381.079 851.572 370.061 851.572 348.024V54.3802C851.572 32.344 840.298 21.326 817.749 21.326H646.328C623.78 21.326 612.506 32.344 612.506 54.3802V348.024Z" fill="black"/>
<path d="M3.17188 962.702V557.596H96.9536V969.62C96.9536 991.656 108.228 1002.67 130.776 1002.67H286.823C309.372 1002.67 320.646 991.656 320.646 969.62V557.596H414.428V962.702C414.428 1046.23 372.661 1088 289.129 1088H128.47C44.938 1088 3.17188 1046.23 3.17188 962.702Z" fill="black"/>
<path d="M540.771 1088V557.596H795.98C879.513 557.596 921.279 599.362 921.279 682.894V785.132C921.279 868.151 879.513 909.661 795.98 909.661H634.553V1088H540.771ZM634.553 824.335H793.674C816.223 824.335 827.497 813.061 827.497 790.513V675.976C827.497 653.94 816.223 642.922 793.674 642.922H634.553V824.335Z" fill="black"/>
</g>
</svg>
