<svg width="63" height="77" viewBox="0 0 63 77" fill="none" xmlns="http://www.w3.org/2000/svg">
<path d="M0.30957 27.302V8.84242C0.30957 3.33159 3.06499 0.576172 8.57582 0.576172H23.4348L26.4268 2.90898V6.20533H8.72795C7.24037 6.20533 6.49658 6.93222 6.49658 8.386V27.7584C6.49658 29.2122 7.24037 29.9391 8.72795 29.9391H21.2541V20.2529H13.85V14.6237H27.4411V35.5682H8.57582C3.06499 35.5682 0.30957 32.8128 0.30957 27.302Z" fill="black"/>
<path d="M34.531 27.302V8.84242C34.531 3.33159 37.2865 0.576172 42.7973 0.576172H54.4106C59.9214 0.576172 62.6768 3.33159 62.6768 8.84242V27.302C62.6768 32.8128 59.9214 35.5682 54.4106 35.5682H42.7973C37.2865 35.5682 34.531 32.8128 34.531 27.302ZM40.718 27.7584C40.718 29.2122 41.4618 29.9391 42.9494 29.9391H54.2585C55.746 29.9391 56.4898 29.2122 56.4898 27.7584V8.386C56.4898 6.93222 55.746 6.20533 54.2585 6.20533H42.9494C41.4618 6.20533 40.718 6.93222 40.718 8.386V27.7584Z" fill="black"/>
<path d="M0.515625 68.3098V41.584H6.70263V68.7662C6.70263 70.22 7.44642 70.9469 8.93401 70.9469H19.2288C20.7164 70.9469 21.4602 70.22 21.4602 68.7662V41.584H27.6472V68.3098C27.6472 73.8206 24.8918 76.5761 19.3809 76.5761H8.78187C3.27104 76.5761 0.515625 73.8206 0.515625 68.3098Z" fill="black"/>
<path d="M35.9823 76.5761V41.584H52.8191C58.3299 41.584 61.0854 44.3394 61.0854 49.8502V56.5951C61.0854 62.0721 58.3299 64.8106 52.8191 64.8106H42.1693V76.5761H35.9823ZM42.1693 59.1814H52.667C54.1546 59.1814 54.8984 58.4377 54.8984 56.9501V49.3938C54.8984 47.94 54.1546 47.2131 52.667 47.2131H42.1693V59.1814Z" fill="black"/>
</svg>
