<svg width="82" height="74" viewBox="0 0 82 74" fill="none" xmlns="http://www.w3.org/2000/svg">
<path fill-rule="evenodd" clip-rule="evenodd" d="M57.625 0.0480434C57.4231 0.112697 57.2541 0.252246 57.1533 0.437587C57.0492 0.627434 57.0431 0.820565 57.1164 1.29382C57.1445 1.46506 57.1864 1.72549 57.2095 1.87266C57.2327 2.01983 57.2812 2.31965 57.3197 2.54014C57.3583 2.76062 57.4024 3.05442 57.4239 3.19339C57.4454 3.33235 57.4927 3.6256 57.5275 3.84609C57.6024 4.31551 57.6751 4.80737 57.7815 5.5673C57.8234 5.86931 57.8719 6.20305 57.8884 6.30919C57.9137 6.47332 57.9804 6.95314 58.1567 8.25307C58.1749 8.38329 58.2074 8.64371 58.2306 8.83137C58.2537 9.01903 58.3209 9.54699 58.381 10.0038C58.4912 10.8338 58.5463 11.3273 58.6058 11.8585C58.6218 12.0134 58.6697 12.4407 58.7122 12.8083C58.8136 13.6957 58.8654 14.1799 58.9188 14.7517C58.9436 15.0132 58.9706 15.2599 58.9783 15.2988C58.986 15.3376 59.0136 15.5997 59.0389 15.8776C59.0643 16.1556 59.1029 16.5823 59.1277 16.8269C59.1921 17.4916 59.2301 17.9008 59.2483 18.1328C59.2571 18.2472 59.2709 18.3872 59.2786 18.4441C59.2863 18.501 59.3133 18.8222 59.3387 19.1554C59.364 19.4886 59.4037 20.0039 59.4269 20.2977C59.45 20.5915 59.482 21.0123 59.5018 21.2327C59.5409 21.7279 59.5817 22.333 59.6203 23.0136C59.6368 23.2992 59.6644 23.7248 59.6809 23.9628C59.7101 24.3699 59.731 24.7665 59.8021 26.2333C59.8181 26.5758 59.8451 27.1235 59.8616 27.4501C59.8996 28.209 59.9718 30.2902 60.0131 31.9457C60.0578 33.6598 60.0594 40.4084 60.0131 41.9617C59.9944 42.6308 59.9647 43.6654 59.9481 44.2596C59.9316 44.8537 59.9041 45.6273 59.8875 45.9813C59.871 46.3353 59.8434 46.8923 59.8269 47.2271C59.7646 48.5117 59.7343 49.0977 59.7062 49.5425C59.6903 49.7952 59.6572 50.3424 59.6335 50.7587C59.6098 51.1751 59.5822 51.5887 59.5745 51.6789C59.5668 51.7692 59.5519 51.9623 59.5431 52.109C59.5343 52.2556 59.5123 52.5357 59.4963 52.7321C59.4605 53.1633 59.3977 53.973 59.3359 54.7947C59.3106 55.129 59.2841 55.4513 59.2764 55.506C59.2687 55.5607 59.2549 55.6969 59.2456 55.8025C59.2362 55.9081 59.2164 56.1434 59.1998 56.3223C59.1673 56.662 59.1117 57.2726 59.0373 58.0955C58.9701 58.8286 58.8549 59.9245 58.7067 61.2042C58.6653 61.5713 58.6174 61.9986 58.6014 62.1534C58.5529 62.6069 58.4912 63.1431 58.4212 63.6525C58.3865 63.9135 58.3397 64.2871 58.316 64.483C58.2212 65.2774 58.1799 65.6018 58.1215 66.0264C58.0873 66.2715 58.0399 66.6145 58.0162 66.7924C57.9925 66.9702 57.9192 67.4883 57.8509 67.9506C57.7826 68.4129 57.7099 68.9354 57.6856 69.1154C57.6415 69.4289 57.2999 71.6037 57.1473 72.5283C57.0343 73.2154 57.0343 73.2242 57.0877 73.4036C57.1315 73.5715 57.2297 73.7204 57.3673 73.8272C57.5049 73.934 57.6741 73.9928 57.8487 73.9945C58.1149 73.9945 58.3209 73.907 59.7801 73.1766C61.0386 72.5458 62.1071 71.9582 62.0784 71.9117C62.0701 71.8985 62.0883 71.887 62.1197 71.887C62.1848 71.887 62.6746 71.5982 63.5761 71.0275C64.5498 70.4099 65.1234 70.0077 66.3252 69.0984C67.2619 68.3872 68.3149 67.5052 69.2545 66.6364C69.9355 66.0061 71.128 64.8069 71.6029 64.2745C71.6757 64.1936 71.8636 63.9868 72.0212 63.815C72.5722 63.2132 73.6605 61.887 74.184 61.1741L74.6027 60.6045C74.9333 60.1575 75.567 59.2176 75.9037 58.6798C76.069 58.4112 76.2343 58.1584 76.2613 58.1174C76.3197 58.0331 76.9468 56.9651 77.0713 56.737C77.116 56.656 77.2433 56.4224 77.3546 56.2189C77.6091 55.7538 78.3767 54.229 78.5062 53.933C78.5613 53.811 78.6434 53.6234 78.6919 53.5178C79.065 52.7086 79.384 51.9312 79.7141 51.0246C80.0072 50.2192 80.3356 49.2509 80.4772 48.7694C80.5136 48.6469 80.5875 48.4001 80.6426 48.2223C80.9594 47.1653 81.3071 45.7297 81.4939 44.706C81.5281 44.5183 81.5754 44.2727 81.6002 44.1589C81.6664 43.8492 81.6553 43.591 81.5727 43.4132C81.49 43.2354 81.4168 43.1588 81.2327 43.051C81.1054 42.9771 81.063 42.9684 80.8222 42.9684C80.5257 42.9684 80.3869 43.0187 80.2348 43.1807C80.0926 43.3311 80.0359 43.4892 79.8226 44.3334C79.7064 44.7903 79.5697 45.298 79.5196 45.461C79.1641 46.5974 78.6241 48.1172 78.3828 48.6594C77.7083 50.1716 77.267 51.0509 76.6145 52.1828C75.8982 53.4248 74.4975 55.4108 73.612 56.441C71.9077 58.4221 69.984 60.1882 68.0146 61.5795C67.1194 62.2137 66.1917 62.8015 65.2352 63.3406L64.8016 63.5786C64.4329 63.781 64.3834 63.7975 64.1806 63.8111C64.0233 63.8247 63.8655 63.7917 63.7271 63.7162C63.5887 63.6407 63.4759 63.5262 63.4031 63.3871C63.3221 63.2356 63.3193 62.973 63.3904 62.3476C63.4885 61.4958 63.5309 61.0986 63.5767 60.6264C63.602 60.3654 63.6284 60.1181 63.6362 60.0793C63.651 60.0043 63.7067 59.4479 63.7866 58.5802C63.8103 58.3192 63.8362 58.0791 63.8417 58.0462C63.8472 58.0134 63.8632 57.8733 63.8731 57.7349C63.883 57.5965 63.91 57.2825 63.9337 57.0368C63.9574 56.7912 63.9921 56.412 64.0092 56.1915C64.0516 55.657 64.1194 54.8637 64.1547 54.426C64.2032 53.8745 64.2858 52.6873 64.3817 51.1761C64.4054 50.7932 64.4368 50.2789 64.455 50.0332C64.4732 49.7876 64.4914 49.3953 64.5013 49.1579C64.5112 48.9204 64.531 48.521 64.5476 48.2672C64.6209 47.0887 64.768 42.9317 64.8021 41.1547L64.8225 40.0222L64.9162 39.8351C64.9599 39.7361 65.025 39.6478 65.1069 39.5766C65.1888 39.5054 65.2855 39.453 65.3901 39.4231C65.5554 39.3651 65.6375 39.3635 69.2506 39.3635C72.8433 39.3635 72.9425 39.3635 73.0692 39.306C73.207 39.2442 73.3646 39.1304 73.8153 38.766C73.969 38.6418 74.3179 38.3612 74.5901 38.1429C75.0976 37.7364 75.7913 37.1767 76.2779 36.7816C76.4288 36.6596 76.6779 36.4594 76.8322 36.3368C77.348 35.9282 77.4279 35.8051 77.4279 35.4254C77.4279 35.1999 77.4212 35.1759 77.3237 35.0309C77.2318 34.8759 77.0904 34.7558 76.922 34.6895C76.7876 34.631 76.7016 34.6304 71.0916 34.6156C65.9582 34.602 65.3873 34.5959 65.2931 34.5533C65.1173 34.4746 64.9781 34.3326 64.9035 34.1561L64.8231 33.9777L64.8032 32.8649C64.763 30.5123 64.5569 25.26 64.4555 23.9913C64.4396 23.7878 64.406 23.28 64.3817 22.8637C64.2968 21.4259 64.2765 21.143 64.1426 19.54C64.1183 19.2544 64.0919 18.9207 64.0836 18.7981C64.0577 18.4151 63.9789 17.4894 63.948 17.2115C63.9205 16.9664 63.8726 16.4373 63.7976 15.5647C63.7508 15.0176 63.6835 14.3331 63.6351 13.9179C63.5563 13.228 63.5039 12.7421 63.4406 12.1222C63.4069 11.788 63.3656 11.4165 63.3496 11.2977C63.3072 10.9815 63.3133 10.8677 63.3832 10.6822C63.4163 10.5898 63.4678 10.505 63.5346 10.4328C63.6015 10.3606 63.6823 10.3025 63.7723 10.2621C64.1029 10.1094 64.3007 10.1444 64.8446 10.453C65.065 10.5794 65.2821 10.7003 65.3234 10.7216C65.9604 11.0587 67.5325 12.0664 68.3419 12.6573C68.6825 12.9057 69.6032 13.6279 69.8215 13.8177L70.2843 14.2144C71.3825 15.167 72.4127 16.1942 73.3673 17.2886C73.4571 17.3937 73.58 17.5332 73.639 17.5988C73.8043 17.7816 74.5041 18.6772 74.9157 19.2314C75.4116 19.9011 76.2211 21.1277 76.6173 21.8138C77.2807 22.9573 77.8696 24.1419 78.3806 25.3602C78.9919 26.8096 79.4893 28.3038 79.8684 29.8295C80.0232 30.4445 80.0728 30.5998 80.1516 30.7136C80.2208 30.8099 80.31 30.8902 80.4132 30.9492C80.5165 31.0081 80.6313 31.0443 80.7499 31.0553C80.8684 31.0662 80.988 31.0517 81.1004 31.0127C81.2128 30.9736 81.3155 30.911 81.4013 30.8291C81.6454 30.5867 81.6989 30.3318 81.6047 29.8618C81.581 29.7442 81.5336 29.4947 81.4989 29.307C81.4641 29.1194 81.4173 28.8786 81.3936 28.7725C81.3699 28.6663 81.2961 28.3348 81.2283 28.0306C81.1181 27.5223 80.7704 26.1704 80.6773 25.8646C80.6547 25.7907 80.5742 25.5237 80.4987 25.271C80.3384 24.7343 80.113 24.0646 79.8182 23.2527C79.7025 22.9348 79.5846 22.6076 79.5565 22.5261C79.5014 22.362 79.2016 21.6338 78.9503 21.0423C78.5696 20.1451 78.0064 18.9765 77.5728 18.1782C77.4697 17.9906 77.3188 17.7104 77.2366 17.5551C76.8151 16.759 76.0558 15.5193 75.3367 14.454C74.692 13.4977 74.2512 12.897 73.3453 11.736C72.0228 10.0449 69.9008 7.86025 68.0521 6.29332C67.8984 6.16256 67.7242 6.01375 67.6664 5.96177C67.3071 5.64499 65.6617 4.37515 65.3036 4.13661C65.2622 4.10925 65.0936 3.99272 64.9294 3.87782C63.8659 3.1343 62.2233 2.10026 61.448 1.68609C61.3246 1.62044 61.0755 1.48421 60.897 1.38409C60.4865 1.15704 59.0329 0.440869 58.4785 0.193028C57.9964 -0.0165158 57.8636 -0.0394945 57.625 0.0480434ZM24.263 0.266888C22.0004 1.35126 20.5066 2.18178 18.8833 3.26451C18.5135 3.51071 18.1339 3.76621 18.0397 3.83296C17.9454 3.89971 17.8005 4.00038 17.7173 4.05782C17.5652 4.15794 17.2148 4.41126 16.9227 4.62901C16.4918 4.95016 16.3265 5.07819 15.9397 5.39004L15.3677 5.84961C15.2862 5.91472 15.2024 5.98147 15.187 5.99788C15.1716 6.01429 15.0685 6.10183 14.9666 6.19156C14.4398 6.64238 14.2541 6.80651 13.7725 7.24912C12.4869 8.42924 10.9622 10.0175 10.0922 11.0882C9.47557 11.8443 9.28216 12.0872 8.94273 12.5304C8.37241 13.2745 7.43456 14.6132 6.99153 15.3168C6.65045 15.8568 6.36777 16.3164 6.23277 16.5484L5.90215 17.1124C5.6046 17.6229 4.44413 19.8803 4.44413 19.9476C4.44413 19.9531 4.32511 20.2157 4.17908 20.5308C3.8931 21.1479 3.51234 22.0819 3.21864 22.8867C3.11835 23.163 3.02358 23.4152 3.0087 23.448C2.97839 23.5147 2.96737 23.5448 2.69406 24.3529C2.35683 25.3426 1.88956 27.0026 1.6956 27.8845C1.64711 28.1034 1.57933 28.4119 1.54462 28.5673C1.48566 28.8343 1.37104 29.4225 1.24431 30.1102C1.12639 30.7508 0.95116 32.0026 0.858587 32.855C0.665176 34.6654 0.593542 37.2768 0.693278 38.9094C0.775933 40.258 0.840954 41.077 0.901567 41.5207C0.926363 41.7002 0.966588 42.0208 0.991385 42.232C1.09388 43.1013 1.39198 44.8034 1.60578 45.7335C1.67301 46.0273 1.73913 46.3211 1.75236 46.3862C1.80746 46.6466 2.09785 47.7288 2.28189 48.3448C2.4731 48.9839 2.96627 50.4988 3.06931 50.7636C3.12993 50.9196 3.21093 51.1357 3.32499 51.4464C3.42418 51.7172 3.91294 52.9116 4.01708 53.1375C4.08817 53.2918 4.28874 53.7344 4.42044 54.0282C4.71689 54.6848 5.52966 56.2457 5.99803 57.0549C6.72581 58.3289 7.52342 59.5623 8.38729 60.7495C10.1232 63.1185 12.1084 65.2972 14.3092 67.2486C15.9887 68.7368 18.0876 70.301 19.8371 71.3662C20.8929 72.0102 21.7222 72.4823 22.4545 72.8587C23.3141 73.3008 23.4408 73.3637 23.7219 73.4934C23.8778 73.5656 24.1269 73.6827 24.2729 73.7554C24.6498 73.9398 24.8382 74 25.0388 74C25.231 73.9987 25.4163 73.9293 25.5615 73.8043C25.7067 73.6793 25.8022 73.507 25.8306 73.3183C25.8439 73.2242 25.8009 72.8806 25.6835 72.1458C25.5921 71.5752 25.4962 70.9674 25.4708 70.7956C25.4455 70.6238 25.4064 70.3644 25.3843 70.2173C25.3623 70.0701 25.2818 69.5367 25.2063 69.03C25.1308 68.5234 25.0487 67.9834 25.025 67.8264C25.0014 67.6694 24.9468 67.2837 24.9049 66.9658C24.7606 65.8809 24.7396 65.7342 24.7132 65.5712C24.6729 65.3316 24.5082 64.0289 24.3649 62.8105C24.3412 62.6069 24.3015 62.2732 24.2767 62.0686C24.2519 61.864 24.2216 61.6183 24.2128 61.5215L24.193 61.3442L23.7423 60.8753C22.5383 59.6252 21.4803 58.4451 20.84 57.6375L20.4499 57.1451C20.3496 57.0209 20.0498 56.6287 19.7831 56.2741C19.3616 55.7139 19.2872 55.6274 19.2023 55.6116C19.0596 55.5853 18.9466 55.64 18.896 55.7609C18.8491 55.8704 18.8563 56.0252 18.9577 56.9925C18.9825 57.2294 19.0299 57.7169 19.0629 58.0763C19.1946 59.4944 19.2133 59.6859 19.242 59.9009C19.258 60.0235 19.2916 60.3173 19.3158 60.5536C19.3401 60.79 19.3709 61.1106 19.3897 61.2649C19.4084 61.4192 19.4387 61.7206 19.463 61.9324C19.4872 62.1441 19.5296 62.5183 19.5561 62.7629C19.5825 63.0074 19.6173 63.3062 19.6321 63.4254C19.712 64.0557 19.6002 64.3632 19.2244 64.5459C19.0783 64.617 19.0354 64.6236 18.8265 64.6121C18.54 64.5951 18.4546 64.5492 18.0275 64.1815C16.7976 63.119 15.4614 61.8224 14.6084 60.8628C14.1676 60.3654 14.0508 60.2303 13.8006 59.9288C11.7138 57.4121 10.1473 54.9671 8.80387 52.1248C7.50385 49.3518 6.56132 46.427 5.99858 43.4198C5.93025 43.0548 5.75723 41.9234 5.71425 41.565C5.69 41.361 5.65915 41.0874 5.64041 40.9567C5.61231 40.7296 5.55335 40.0517 5.48723 39.1911C5.43708 38.5423 5.4178 35.9013 5.45857 35.3034C5.6046 33.1576 5.67403 32.5284 5.92585 31.06C6.28224 28.964 6.82435 26.9034 7.54587 24.9022C7.72936 24.3918 7.71118 24.4443 7.88916 23.9967C7.97126 23.7932 8.07816 23.5257 8.1261 23.4037C8.17404 23.2817 8.2589 23.0809 8.31345 22.9583L8.60164 22.3056C9.08544 21.2043 10.1037 19.3003 10.7589 18.2696C10.8576 18.1148 10.9793 17.9211 11.0311 17.8396C11.4719 17.1343 12.3536 15.8886 12.8881 15.2134L13.3223 14.6625C13.4771 14.4666 13.708 14.1859 13.8303 14.0393C13.9527 13.8927 14.1351 13.6788 14.232 13.5644C14.4828 13.2679 14.9533 12.7646 15.6025 12.0987C15.9121 11.7814 16.1965 11.4805 16.2345 11.4301C16.2725 11.3798 16.4329 11.1019 16.5905 10.8097C17.45 9.263 18.3986 7.76673 19.4316 6.32833C19.5969 6.10238 19.7693 5.86438 19.8173 5.79928C19.971 5.58043 20.8058 4.51521 21.0345 4.24603C21.1596 4.0994 21.3403 3.88548 21.4367 3.77114C22.0677 3.02378 22.9361 2.08275 23.8244 1.18439C24.279 0.724273 24.6509 0.328164 24.6509 0.303544C24.645 0.268423 24.6279 0.236143 24.6019 0.21157C24.576 0.186997 24.5427 0.171464 24.5071 0.167314C24.4214 0.190252 24.3386 0.222738 24.2602 0.264152L24.263 0.266888ZM25.1622 0.99564C24.5826 1.54713 23.6888 2.44056 23.4811 2.67691C23.4083 2.75953 23.2006 2.98713 23.0198 3.18299C21.4682 4.86044 19.6718 7.23162 18.4491 9.20997C18.2964 9.45781 18.3389 9.55137 18.5505 9.4414C18.6411 9.40063 18.739 9.37832 18.8385 9.37578C18.938 9.37325 19.037 9.39053 19.1296 9.42663C19.4685 9.55301 19.6569 9.8096 19.6569 10.1532C19.6569 10.325 19.5831 11.1145 19.5528 11.266C19.5445 11.307 19.517 11.5341 19.4916 11.7705C19.3974 12.6458 19.3318 13.2258 19.2712 13.7439C19.2552 13.8746 19.2222 14.2084 19.1974 14.4858C19.1726 14.7632 19.1318 15.2041 19.107 15.4651C19.0822 15.7261 19.042 16.1605 19.0177 16.4297C18.9935 16.6988 18.9665 16.9614 18.9577 17.0123C18.9489 17.0632 18.9213 17.3641 18.8965 17.6803C18.7907 19.0355 18.7262 19.8234 18.6717 20.4361C18.6552 20.6238 18.6221 21.0845 18.5995 21.4598C18.5108 22.896 18.4932 23.1684 18.4502 23.7298C18.4254 24.0482 18.3912 24.6358 18.3736 25.0357C18.3559 25.4357 18.3218 26.1502 18.2986 26.6223C18.2755 27.0945 18.2364 28.1105 18.2116 28.8775C18.1868 29.6446 18.1565 30.5736 18.1383 30.9401C18.1201 31.3067 18.0926 32.7095 18.0727 34.0587C18.0176 37.6455 18.0727 41.6323 18.2265 45.6027C18.3053 47.6413 18.4166 49.9058 18.4502 50.158C18.459 50.2231 18.486 50.6236 18.5102 51.0481C18.61 52.7879 18.6425 53.1994 18.6882 53.2869C18.751 53.4078 19.4365 54.4358 19.6757 54.7641C19.8068 54.9457 20.1562 55.4354 20.1975 55.495C20.3033 55.6493 21.272 56.9143 21.4279 57.1025L21.9194 57.6939C22.0947 57.9051 22.2572 58.0977 22.2809 58.1206C22.3046 58.1436 22.4402 58.2984 22.5829 58.4637C23.097 59.0589 23.4943 59.4769 23.5841 59.5152C23.6993 59.565 23.7996 59.5404 23.8954 59.4381C23.9819 59.3456 23.9836 59.4118 23.875 58.3039C23.7775 57.3104 23.648 55.9207 23.6067 55.4256C23.518 54.3664 23.5031 54.1814 23.3819 52.5319C23.3565 52.1894 23.3224 51.6817 23.3058 51.4043C23.2893 51.1269 23.2623 50.693 23.2458 50.4397C23.1824 49.4604 23.1256 48.3946 23.0805 47.3983C23.0562 46.8272 23.0298 46.2861 23.0215 46.1947C22.9984 45.9463 22.9758 45.3883 22.9444 44.3104C22.9284 43.7715 22.9003 42.8568 22.8815 42.2774C22.8055 39.904 22.8413 32.7379 22.9438 29.8727C22.9592 29.4405 22.9741 28.9727 22.9763 28.8332C22.9785 28.6937 22.9928 28.3539 23.0077 28.0766C23.0226 27.7992 23.0551 27.1514 23.0799 26.6371C23.1466 25.2453 23.2083 24.0963 23.2452 23.5881C23.3003 22.7499 23.3367 22.234 23.3813 21.5331C23.4238 20.8716 23.4744 20.196 23.5466 19.3665L23.6089 18.6247C23.7086 17.4347 23.7929 16.5008 23.8464 15.9985C23.8965 15.5225 23.9351 15.139 23.9803 14.663C24.0266 14.1706 24.08 13.6853 24.1737 12.897C24.2073 12.6114 24.2564 12.1906 24.2839 11.9625C24.3115 11.7343 24.3484 11.3864 24.3704 11.1911C24.4195 10.7605 24.5908 9.42553 24.7302 8.3718C24.7539 8.1918 24.7953 7.8794 24.8217 7.67423C24.9132 6.96298 25.1408 5.39168 25.3584 3.96481C25.4003 3.68798 25.6141 2.37272 25.791 1.29983C25.8979 0.651507 25.9012 0.565064 25.8224 0.523483C25.7923 0.506604 25.7592 0.495992 25.7248 0.492298C25.7061 0.492298 25.4532 0.719896 25.1622 0.99564ZM26.4252 23.4299C26.2443 23.5134 26.0961 23.6538 26.0037 23.8293C25.9199 23.9935 25.9304 23.8747 25.8301 25.8367C25.8053 26.3346 25.7711 26.909 25.7557 27.1131C25.7403 27.3172 25.7248 27.6712 25.7226 27.8993C25.7204 28.1274 25.7006 28.7271 25.678 29.2304C25.6554 29.7338 25.6229 30.9161 25.6064 31.8566C25.5898 32.797 25.5689 33.6368 25.5606 33.7211C25.5524 33.8054 25.5458 35.2082 25.5458 36.8396C25.5458 40.519 25.6108 43.4219 25.7717 47.028C25.797 47.5909 25.8312 48.2989 25.8483 48.6003C25.8654 48.9018 25.8891 49.3433 25.9034 49.5797C25.9221 49.955 25.9348 50.031 26.002 50.1738C26.0816 50.3569 26.2295 50.5022 26.4147 50.5792C26.5393 50.629 26.6748 50.634 28.3274 50.634H30.1055L30.2554 50.553C30.4235 50.4649 30.5375 50.3341 30.6274 50.1268C30.6951 49.9681 30.7017 49.7564 30.6571 49.1332C30.602 48.3673 30.5111 46.3676 30.4202 43.9105C30.3138 41.0349 30.2786 35.2114 30.3524 32.6039C30.4273 29.9575 30.4152 30.1704 30.494 30.0916C30.5179 30.0678 30.5466 30.0493 30.5783 30.0374C30.6099 30.0254 30.6437 30.0202 30.6775 30.0221C30.7816 30.0221 30.8191 30.0494 31.1183 30.3416C31.2996 30.5167 31.8578 31.0528 32.3587 31.5354C32.8596 32.0179 33.8338 32.9579 34.5242 33.6265C35.2147 34.295 35.9745 35.0314 36.2131 35.2607C36.4517 35.4899 37.2248 36.2378 37.9318 36.9223C38.6388 37.6067 39.4196 38.3606 39.6653 38.5981C41.3217 40.1956 42.3185 41.1585 42.8773 41.6996C43.231 42.0427 43.7154 42.5104 43.954 42.7391C44.1926 42.9678 44.9662 43.7163 45.6737 44.4013C46.3813 45.0863 47.4508 46.1203 48.0509 46.6991C50.5564 49.119 51.2805 49.8177 51.6204 50.1459C51.8177 50.3358 52.0398 50.5224 52.1136 50.5612L52.2481 50.6323H54.3133C56.2568 50.6323 56.3819 50.629 56.491 50.5776C56.67 50.4916 56.8136 50.3468 56.8976 50.1678C56.9693 50.0037 56.977 49.9107 57.0629 48.2436C57.0872 47.7616 57.1147 47.2545 57.1247 47.1155C57.1643 46.5531 57.231 44.747 57.2712 43.1243C57.2949 42.1778 57.3225 41.2915 57.3313 41.1547C57.3616 40.7225 57.3506 34.4882 57.3181 33.0027C57.2547 30.1479 57.1798 27.786 57.1247 26.9041C57.0999 26.5211 57.0729 26.0134 57.064 25.7765C57.0552 25.5396 57.0415 25.2726 57.0326 25.1829C57.0238 25.0932 57.0056 24.7895 56.9908 24.5088C56.9676 24.0591 56.956 23.9787 56.891 23.8408C56.8179 23.6626 56.6772 23.5199 56.4992 23.4436L56.3466 23.3736H54.6329C53.5253 23.3736 52.8757 23.3845 52.7947 23.4048C52.6841 23.4349 52.5816 23.4891 52.4948 23.5635C52.4079 23.6379 52.3389 23.7306 52.2927 23.8348C52.1935 24.0536 52.1858 24.1986 52.2376 24.8924C52.2745 25.3913 52.3478 26.8395 52.3864 27.8544C52.4029 28.2708 52.4305 28.918 52.4464 29.2939C52.4624 29.6697 52.4905 30.5769 52.507 31.3116C52.5236 32.0464 52.5506 33.081 52.5666 33.6095C52.6024 34.8055 52.6029 37.4743 52.5666 39.7076C52.5407 41.3013 52.5302 41.7866 52.4878 43.2469L52.4701 43.8487L52.3814 43.9231C52.2828 44.0052 52.2492 44.0112 52.1301 43.9663C52.0513 43.9362 51.3769 43.3027 49.9674 41.9327C49.5965 41.5727 48.803 40.8051 48.2041 40.2263C47.6051 39.6474 46.5355 38.6134 45.828 37.9284C45.1205 37.2434 44.1386 36.2947 43.646 35.8215C43.1533 35.3482 42.6684 34.881 42.5676 34.782C42.2921 34.5111 40.2968 32.5842 39.7899 32.0962C39.543 31.8593 38.7699 31.1114 38.0712 30.4346C37.3725 29.7578 36.5989 29.0121 36.3525 28.7736C35.9178 28.3561 35.3265 27.7833 34.0211 26.5167C33.6756 26.1814 32.9973 25.527 32.5135 25.0625C32.0297 24.598 31.4715 24.0608 31.2732 23.8693C31.0324 23.6362 30.8604 23.4961 30.7552 23.4464L30.597 23.3714H28.5731C26.6677 23.3752 26.5398 23.3785 26.4252 23.4299Z" fill="#222222"/>
</svg>
