<svg width="1002" height="1096" viewBox="0 0 1002 1096" fill="none" xmlns="http://www.w3.org/2000/svg">
<g opacity="0.05">
<path fill-rule="evenodd" clip-rule="evenodd" d="M629.432 -58.2503C626.303 -57.2414 623.685 -55.0637 622.123 -52.1715C620.51 -49.209 620.416 -46.1952 621.552 -38.8102C621.987 -36.1379 622.636 -32.074 622.994 -29.7774C623.353 -27.4808 624.104 -22.8022 624.702 -19.3615C625.299 -15.9209 625.982 -11.3362 626.315 -9.16762C626.648 -6.99907 627.383 -2.42291 627.921 1.01774C629.082 8.343 630.209 16.0183 631.856 27.877C632.505 32.5898 633.257 37.7977 633.513 39.454C633.905 42.0153 634.938 49.5028 637.671 69.7881C637.952 71.8201 638.456 75.884 638.815 78.8124C639.173 81.7408 640.215 89.9795 641.145 97.1084C642.853 110.06 643.707 117.761 644.629 126.051C644.876 128.467 645.619 135.135 646.276 140.872C647.847 154.72 648.65 162.276 649.478 171.198C649.862 175.279 650.281 179.129 650.4 179.735C650.52 180.342 650.946 184.431 651.339 188.768C651.732 193.105 652.33 199.765 652.714 203.581C653.713 213.954 654.302 220.34 654.583 223.96C654.72 225.744 654.934 227.93 655.053 228.818C655.173 229.706 655.591 234.717 655.984 239.917C656.376 245.116 656.991 253.159 657.35 257.743C657.708 262.328 658.203 268.894 658.511 272.334C659.117 280.061 659.749 289.503 660.346 300.124C660.602 304.581 661.029 311.223 661.286 314.937C661.738 321.289 662.062 327.479 663.164 350.368C663.411 355.712 663.83 364.259 664.086 369.355C664.675 381.197 665.793 413.674 666.434 439.509C667.125 466.257 667.151 571.568 666.434 595.807C666.143 606.248 665.682 622.393 665.426 631.665C665.17 640.937 664.743 653.009 664.487 658.533C664.231 664.056 663.804 672.748 663.548 677.973C662.583 698.019 662.114 707.163 661.678 714.104C661.431 718.048 660.918 726.586 660.551 733.083C660.184 739.58 659.757 746.034 659.638 747.443C659.518 748.852 659.288 751.866 659.151 754.154C659.015 756.442 658.673 760.813 658.425 763.878C657.87 770.606 656.897 783.241 655.941 796.065C655.548 801.281 655.138 806.31 655.019 807.164C654.899 808.017 654.686 810.143 654.541 811.791C654.396 813.439 654.088 817.11 653.832 819.902C653.328 825.204 652.466 834.732 651.314 847.572C650.272 859.013 648.488 876.113 646.191 896.083C645.551 901.812 644.808 908.479 644.56 910.896C643.809 917.973 642.853 926.34 641.768 934.289C641.231 938.361 640.505 944.192 640.138 947.249C638.669 959.645 638.029 964.708 637.124 971.333C636.595 975.158 635.86 980.511 635.493 983.286C635.126 986.061 633.991 994.146 632.932 1001.36C631.873 1008.57 630.746 1016.73 630.371 1019.54C629.688 1024.43 624.394 1058.37 622.03 1072.79C620.279 1083.52 620.279 1083.65 621.108 1086.45C621.785 1089.07 623.308 1091.4 625.439 1093.06C627.571 1094.73 630.192 1095.65 632.898 1095.67C637.022 1095.67 640.215 1094.31 662.822 1082.91C682.322 1073.07 698.876 1063.9 698.433 1063.17C698.304 1062.97 698.586 1062.79 699.073 1062.79C700.08 1062.79 707.67 1058.28 721.638 1049.38C736.724 1039.74 745.611 1033.46 764.232 1019.27C778.746 1008.17 795.061 994.41 809.618 980.853C820.17 971.017 838.646 952.303 846.005 943.996C847.132 942.732 850.043 939.505 852.485 936.824C861.023 927.433 877.884 906.738 885.995 895.613L892.484 886.726C897.606 879.75 907.424 865.083 912.641 856.69C915.202 852.498 917.764 848.554 918.182 847.914C919.087 846.599 928.803 829.933 930.732 826.373C931.424 825.11 933.396 821.464 935.12 818.288C939.065 811.031 950.958 787.237 952.964 782.618C953.818 780.714 955.09 777.786 955.841 776.138C961.621 763.511 966.564 751.379 971.678 737.232C976.22 724.665 981.309 709.553 983.503 702.04C984.067 700.128 985.211 696.277 986.064 693.503C990.973 677.008 996.361 654.605 999.255 638.631C999.784 635.703 1000.52 631.87 1000.9 630.094C1001.93 625.262 1001.76 621.232 1000.48 618.457C999.195 615.682 998.06 614.487 995.208 612.805C993.236 611.653 992.578 611.516 988.848 611.516C984.254 611.516 982.103 612.301 979.746 614.829C977.544 617.176 976.664 619.644 973.36 632.817C971.559 639.946 969.442 647.869 968.665 650.413C963.158 668.146 954.791 691.863 951.052 700.324C940.602 723.922 933.763 737.642 923.654 755.306C912.556 774.687 890.853 805.678 877.133 821.754C850.726 852.669 820.922 880.229 790.408 901.94C776.537 911.837 762.163 921.01 747.344 929.422L740.625 933.136C734.914 936.295 734.145 936.551 731.003 936.764C728.566 936.976 726.121 936.461 723.977 935.283C721.833 934.105 720.086 932.318 718.957 930.148C717.702 927.783 717.659 923.685 718.761 913.926C720.28 900.633 720.938 894.435 721.646 887.067C722.039 882.995 722.449 879.136 722.568 878.529C722.799 877.36 723.661 868.677 724.899 855.136C725.266 851.064 725.667 847.316 725.753 846.804C725.838 846.292 726.086 844.106 726.24 841.946C726.393 839.786 726.812 834.885 727.179 831.052C727.546 827.219 728.084 821.302 728.348 817.861C729.006 809.52 730.056 797.141 730.602 790.31C731.354 781.704 732.634 763.178 734.12 739.597C734.487 733.621 734.973 725.595 735.255 721.762C735.537 717.929 735.819 711.807 735.972 708.102C736.126 704.397 736.433 698.164 736.69 694.203C737.825 675.813 740.105 610.944 740.634 583.214L740.95 565.541L742.401 562.621C743.078 561.076 744.086 559.699 745.355 558.588C746.624 557.477 748.123 556.659 749.744 556.192C752.305 555.287 753.577 555.262 809.558 555.262C865.223 555.262 866.76 555.262 868.724 554.365C870.858 553.401 873.3 551.625 880.283 545.939C882.665 544.001 888.07 539.621 892.287 536.214C900.151 529.871 910.899 521.137 918.438 514.973C920.777 513.069 924.636 509.944 927.027 508.032C935.018 501.654 936.256 499.733 936.256 493.808C936.256 490.291 936.154 489.915 934.642 487.652C933.218 485.234 931.028 483.359 928.418 482.325C926.335 481.411 925.003 481.403 838.082 481.172C758.546 480.959 749.701 480.865 748.241 480.199C745.517 478.971 743.36 476.756 742.205 474.001L740.958 471.218L740.651 453.852C740.028 417.14 736.835 335.179 735.264 315.381C735.016 312.205 734.495 304.282 734.12 297.785C732.805 275.348 732.489 270.934 730.414 245.919C730.039 241.462 729.629 236.254 729.501 234.342C729.1 228.366 727.879 213.92 727.401 209.583C726.974 205.758 726.231 197.502 725.07 183.885C724.344 175.347 723.303 164.666 722.551 158.186C721.33 147.421 720.519 139.839 719.538 130.166C719.017 124.95 718.376 119.153 718.129 117.3C717.471 112.365 717.565 110.589 718.65 107.695C719.162 106.253 719.96 104.929 720.995 103.803C722.031 102.676 723.283 101.77 724.677 101.138C729.8 98.7562 732.865 99.3026 741.291 104.118C744.706 106.09 748.07 107.977 748.71 108.31C758.58 113.569 782.938 129.295 795.479 138.516C800.756 142.392 815.022 153.661 818.403 156.624L825.574 162.814C842.59 177.678 858.551 193.708 873.342 210.787C874.734 212.426 876.638 214.603 877.551 215.627C880.113 218.479 890.955 232.455 897.333 241.104C905.017 251.554 917.559 270.695 923.697 281.401C933.976 299.246 943.101 317.731 951.018 336.742C960.489 359.36 968.196 382.678 974.069 406.485C976.468 416.082 977.236 418.506 978.457 420.282C979.529 421.784 980.912 423.038 982.511 423.958C984.111 424.878 985.89 425.442 987.727 425.613C989.564 425.784 991.417 425.557 993.158 424.948C994.9 424.339 996.49 423.362 997.821 422.084C1001.6 418.302 1002.43 414.323 1000.97 406.989C1000.6 405.154 999.87 401.26 999.332 398.332C998.794 395.404 998.068 391.647 997.701 389.991C997.334 388.335 996.19 383.161 995.14 378.414C993.432 370.482 988.045 349.386 986.602 344.613C986.252 343.461 985.006 339.295 983.836 335.35C981.352 326.975 977.86 316.525 973.292 303.855C971.499 298.895 969.672 293.789 969.237 292.517C968.383 289.956 963.739 278.592 959.845 269.363C953.946 255.361 945.22 237.125 938.501 224.669C936.905 221.74 934.566 217.369 933.293 214.944C926.762 202.522 914.997 183.176 903.856 166.553C893.867 151.63 887.037 142.255 873.001 124.138C852.511 97.7487 819.632 63.6581 790.989 39.2064C788.607 37.1659 785.909 34.8437 785.012 34.0326C779.446 29.0894 753.953 9.27361 748.403 5.55121C747.763 5.12433 745.15 3.30582 742.606 1.51292C726.129 -10.0897 700.678 -26.2257 688.666 -32.6887C686.753 -33.7132 682.894 -35.8391 680.128 -37.4015C673.767 -40.9446 651.245 -52.1203 642.656 -55.9878C635.186 -59.2577 633.128 -59.6163 629.432 -58.2503ZM112.523 -54.8352C77.4673 -37.9137 54.3219 -24.9536 29.1701 -8.05774C23.4414 -4.21581 17.5589 -0.228752 16.099 0.812836C14.6391 1.85442 12.3937 3.42534 11.1045 4.32179C8.74817 5.88417 3.31824 9.83708 -1.2067 13.235C-7.8831 18.2466 -10.4444 20.2444 -16.4378 25.1108L-25.2998 32.2824C-26.5634 33.2984 -27.8611 34.34 -28.1001 34.5961C-28.3392 34.8522 -29.9357 36.2183 -31.5152 37.6184C-39.6771 44.6534 -42.5543 47.2147 -50.0161 54.1216C-69.9344 72.5372 -93.5579 97.3219 -107.039 114.03C-116.592 125.829 -119.589 129.62 -124.848 136.535C-133.685 148.146 -148.216 169.038 -155.08 180.017C-160.365 188.444 -164.744 195.615 -166.836 199.235L-171.959 208.038C-176.569 216.003 -194.549 251.229 -194.549 252.279C-194.549 252.365 -196.393 256.463 -198.656 261.38C-203.087 271.011 -208.986 285.585 -213.537 298.143C-215.091 302.455 -216.559 306.391 -216.79 306.903C-217.259 307.944 -217.43 308.414 -221.665 321.024C-226.89 336.469 -234.129 362.372 -237.135 376.134C-237.886 379.549 -238.936 384.365 -239.474 386.789C-240.388 390.956 -242.163 400.133 -244.127 410.865C-245.954 420.863 -248.669 440.397 -250.103 453.698C-253.1 481.949 -254.21 522.699 -252.665 548.175C-251.384 569.221 -250.377 582.001 -249.437 588.925C-249.053 591.726 -248.43 596.729 -248.046 600.024C-246.458 613.591 -241.839 640.151 -238.526 654.665C-237.485 659.25 -236.46 663.834 -236.255 664.85C-235.402 668.914 -230.902 685.802 -228.051 695.415C-225.088 705.387 -217.447 729.027 -215.85 733.16C-214.911 735.593 -213.656 738.965 -211.889 743.815C-210.352 748.041 -202.779 766.678 -201.166 770.204C-200.064 772.612 -196.957 779.519 -194.916 784.104C-190.323 794.349 -177.73 818.706 -170.473 831.334C-159.197 851.214 -146.839 870.461 -133.454 888.988C-106.558 925.956 -75.7996 959.954 -41.7005 990.406C-15.6779 1013.63 16.8418 1038.04 43.9487 1054.66C60.3067 1064.71 73.1558 1072.08 84.5023 1077.95C97.821 1084.85 99.7846 1085.83 104.139 1087.85C106.555 1088.98 110.414 1090.81 112.676 1091.94C118.516 1094.82 121.436 1095.76 124.544 1095.76C127.521 1095.74 130.393 1094.66 132.642 1092.71C134.892 1090.76 136.371 1088.07 136.812 1085.12C137.017 1083.65 136.351 1078.29 134.533 1066.83C133.115 1057.92 131.63 1048.44 131.237 1045.76C130.844 1043.07 130.238 1039.03 129.897 1036.73C129.555 1034.43 128.309 1026.11 127.139 1018.2C125.969 1010.3 124.697 1001.87 124.33 999.422C123.963 996.972 123.118 990.953 122.469 985.992C120.232 969.062 119.908 966.774 119.498 964.23C118.875 960.49 116.322 940.162 114.102 921.149C113.735 917.973 113.12 912.765 112.736 909.572C112.352 906.379 111.882 902.546 111.746 901.035L111.438 898.268L104.455 890.952C85.8 871.443 69.4078 853.028 59.4871 840.426L53.4425 832.742C51.8886 830.804 47.2442 824.683 43.112 819.15C36.5807 810.408 35.4281 809.059 34.1133 808.811C31.9021 808.402 30.1519 809.255 29.3665 811.142C28.6407 812.85 28.7517 815.266 30.3227 830.36C30.7068 834.057 31.4411 841.664 31.9533 847.273C33.9938 869.403 34.2841 872.391 34.7281 875.746C34.9756 877.659 35.4964 882.243 35.8721 885.932C36.2477 889.62 36.7259 894.623 37.0161 897.031C37.3064 899.438 37.776 904.142 38.1516 907.446C38.5273 910.75 39.1847 916.59 39.5945 920.406C40.0043 924.223 40.5422 928.884 40.7727 930.745C42.0107 940.581 40.2775 945.379 34.4549 948.23C32.1924 949.34 31.5265 949.443 28.2907 949.263C23.8512 948.999 22.5279 948.282 15.9112 942.544C-3.14471 925.964 -23.8484 905.73 -37.0646 890.755C-43.8947 882.995 -45.7047 880.886 -49.5807 876.182C-81.9126 836.909 -106.185 798.754 -127 754.401C-147.142 711.128 -161.746 665.488 -170.465 618.56C-171.523 612.865 -174.204 595.209 -174.87 589.617C-175.246 586.432 -175.724 582.164 -176.014 580.123C-176.449 576.58 -177.363 566.002 -178.387 552.572C-179.164 542.447 -179.463 501.236 -178.831 491.904C-176.569 458.42 -175.493 448.601 -171.592 425.687C-166.07 392.98 -157.67 360.825 -146.491 329.596C-143.648 321.63 -143.93 322.45 -141.172 315.466C-139.9 312.29 -138.244 308.115 -137.501 306.211C-136.758 304.307 -135.443 301.174 -134.598 299.262L-130.133 289.076C-122.637 271.89 -106.859 242.179 -96.7083 226.095C-95.18 223.678 -93.2932 220.656 -92.4907 219.384C-85.6606 208.379 -72.0005 188.939 -63.719 178.403L-56.9914 169.806C-54.5923 166.75 -51.015 162.37 -49.1197 160.082C-47.2243 157.794 -44.3984 154.455 -42.8958 152.671C-39.0112 148.044 -31.7201 140.189 -21.6628 129.799C-16.8646 124.847 -12.4592 120.151 -11.8701 119.366C-11.2811 118.581 -8.79662 114.243 -6.35486 109.684C6.9635 85.5479 21.6611 62.1988 37.665 39.7528C40.2263 36.2268 42.8986 32.513 43.6413 31.497C46.0233 28.0819 58.9578 11.4592 62.5009 7.25873C64.4389 4.97065 67.2393 1.63245 68.7333 -0.151909C78.5089 -11.8143 91.9641 -26.499 105.727 -40.5177C112.77 -47.6978 118.533 -53.879 118.533 -54.2632C118.443 -54.8113 118.176 -55.315 117.774 -55.6985C117.372 -56.0819 116.857 -56.3243 116.305 -56.3891C114.977 -56.0311 113.694 -55.5242 112.48 -54.8779L112.523 -54.8352ZM126.456 -43.4632C117.474 -34.8573 103.626 -20.9154 100.408 -17.2271C99.2809 -15.9379 96.0622 -12.3863 93.2618 -9.32983C69.22 16.8465 41.3874 53.8484 22.4425 84.7204C20.0775 88.5879 20.735 90.0479 24.0134 88.3318C25.4177 87.6956 26.9354 87.3475 28.4766 87.3079C30.0178 87.2683 31.5513 87.5381 32.9864 88.1013C38.237 90.0735 41.1569 94.0776 41.1569 99.4392C41.1569 102.12 40.0128 114.44 39.5433 116.805C39.4152 117.445 38.9883 120.988 38.5956 124.676C37.1357 138.337 36.1197 147.386 35.1805 155.471C34.933 157.512 34.4207 162.72 34.0365 167.048C33.6523 171.377 33.0206 178.258 32.6364 182.331C32.2522 186.403 31.6289 193.182 31.2533 197.383C30.8776 201.583 30.4593 205.681 30.3227 206.475C30.1861 207.269 29.7592 211.965 29.375 216.9C27.7358 238.047 26.7369 250.341 25.8916 259.903C25.6355 262.832 25.1233 270.02 24.7732 275.877C23.3987 298.288 23.1255 302.54 22.4595 311.3C22.0753 316.269 21.546 325.438 21.2728 331.679C20.9996 337.92 20.4703 349.07 20.1117 356.438C19.7531 363.806 19.1469 379.66 18.7628 391.63C18.3786 403.6 17.909 418.097 17.6273 423.817C17.3455 429.537 16.9186 451.427 16.6113 472.481C15.7575 528.454 16.6113 590.667 18.9933 652.625C20.2141 684.436 21.9388 719.773 22.4595 723.709C22.5961 724.725 23.0145 730.974 23.3901 737.599C24.9354 764.749 25.4392 771.169 26.1478 772.535C27.1211 774.422 37.7418 790.464 41.4471 795.587C43.4791 798.421 48.8919 806.062 49.5323 806.993C51.1715 809.401 66.1806 829.139 68.5967 832.076L76.2122 841.306C78.9272 844.601 81.4458 847.606 81.8129 847.965C82.18 848.323 84.2803 850.74 86.4915 853.318C94.4571 862.607 100.613 869.13 102.004 869.727C103.789 870.504 105.343 870.12 106.828 868.523C108.169 867.081 108.194 868.114 106.512 850.825C105.001 835.321 102.995 813.635 102.354 805.909C100.98 789.38 100.749 786.494 98.8711 760.753C98.4783 755.409 97.949 747.486 97.6929 743.157C97.4367 738.829 97.0184 732.058 96.7623 728.105C95.7805 712.823 94.9011 696.192 94.201 680.645C93.8253 671.732 93.4155 663.288 93.2874 661.862C92.9289 657.986 92.5788 649.278 92.0922 632.459C91.8446 624.049 91.4092 609.774 91.1189 600.733C89.9407 563.697 90.4957 451.871 92.0836 407.16C92.3227 400.415 92.5533 393.116 92.5874 390.939C92.6216 388.761 92.8435 383.46 93.074 379.131C93.3045 374.802 93.8083 364.694 94.1924 356.669C95.2255 334.949 96.1817 317.02 96.7537 309.089C97.6075 296.009 98.171 287.958 98.8625 277.021C99.5199 266.699 100.305 256.155 101.424 243.212L102.389 231.635C103.934 213.066 105.24 198.492 106.068 190.655C106.845 183.227 107.443 177.242 108.143 169.815C108.86 162.131 109.688 154.558 111.14 142.255C111.66 137.799 112.42 131.233 112.847 127.673C113.274 124.113 113.846 118.683 114.188 115.635C114.947 108.916 117.603 88.0842 119.763 71.6408C120.13 68.8319 120.77 63.9569 121.18 60.7553C122.597 49.6564 126.123 25.1365 129.495 2.8704C130.144 -1.44962 133.457 -21.974 136.197 -38.7163C137.854 -48.8333 137.905 -50.1823 136.684 -50.8311C136.219 -51.0945 135.705 -51.2601 135.173 -51.3178C134.883 -51.3178 130.964 -47.7661 126.456 -43.4632ZM146.024 306.621C143.221 307.924 140.925 310.114 139.493 312.854C138.195 315.415 138.357 313.562 136.804 344.178C136.419 351.947 135.89 360.912 135.651 364.096C135.412 367.281 135.173 372.805 135.139 376.365C135.105 379.925 134.797 389.282 134.447 397.137C134.097 404.991 133.593 423.441 133.337 438.117C133.081 452.793 132.757 465.899 132.629 467.213C132.501 468.528 132.398 490.419 132.398 515.878C132.398 573.293 133.406 618.594 135.899 674.865C136.291 683.65 136.821 694.698 137.085 699.402C137.35 704.106 137.717 710.996 137.939 714.684C138.229 720.541 138.426 721.728 139.467 723.956C140.7 726.813 142.992 729.081 145.862 730.283C147.792 731.059 149.892 731.136 175.496 731.136H203.047L205.369 729.873C207.973 728.498 209.74 726.458 211.132 723.222C212.182 720.746 212.285 717.442 211.593 707.718C210.739 695.765 209.331 664.56 207.922 626.218C206.274 581.344 205.728 490.47 206.872 449.78C208.033 408.483 207.845 411.804 209.066 410.575C209.437 410.204 209.882 409.916 210.372 409.729C210.861 409.542 211.385 409.461 211.909 409.491C213.523 409.491 214.103 409.918 218.739 414.477C221.548 417.209 230.196 425.576 237.957 433.106C245.718 440.636 260.812 455.303 271.51 465.736C282.208 476.169 293.981 487.661 297.678 491.238C301.374 494.815 313.353 506.486 324.306 517.167C335.26 527.847 347.358 539.612 351.166 543.318C376.83 568.247 392.274 583.274 400.931 591.717C406.412 597.07 413.917 604.37 417.614 607.939C421.311 611.507 433.297 623.187 444.26 633.876C455.222 644.565 471.793 660.701 481.091 669.734C519.911 707.496 531.13 718.398 536.398 723.521C539.454 726.483 542.895 729.395 544.039 730.001L546.122 731.111H578.121C608.233 731.111 610.171 731.059 611.861 730.257C614.635 728.914 616.86 726.656 618.162 723.862C619.272 721.301 619.391 719.85 620.723 693.836C621.099 686.314 621.526 678.4 621.68 676.231C622.294 667.454 623.327 639.272 623.951 613.949C624.318 599.179 624.745 585.348 624.881 583.214C625.351 576.469 625.18 479.183 624.676 456.004C623.694 411.454 622.533 374.598 621.68 360.835C621.295 354.859 620.877 346.936 620.74 343.239C620.604 339.542 620.39 335.376 620.254 333.976C620.117 332.576 619.835 327.837 619.605 323.457C619.246 316.439 619.067 315.184 618.06 313.033C616.927 310.251 614.747 308.025 611.989 306.835L609.624 305.742H583.073C565.912 305.742 555.846 305.913 554.591 306.228C552.877 306.698 551.29 307.545 549.945 308.706C548.599 309.866 547.529 311.313 546.813 312.939C545.277 316.354 545.157 318.617 545.96 329.442C546.532 337.228 547.667 359.828 548.265 375.665C548.521 382.162 548.948 392.262 549.195 398.127C549.443 403.992 549.878 418.148 550.134 429.614C550.391 441.08 550.809 457.224 551.057 465.472C551.612 484.135 551.62 525.781 551.057 560.632C550.655 585.502 550.493 593.075 549.836 615.862L549.562 625.253L548.188 626.414C546.66 627.695 546.139 627.789 544.295 627.089C543.074 626.619 532.624 616.732 510.785 595.354C505.039 589.737 492.745 577.758 483.464 568.726C474.184 559.693 457.612 543.557 446.65 532.868C435.688 522.179 420.474 507.374 412.841 499.989C405.209 492.604 397.696 485.313 396.133 483.768C391.864 479.542 360.95 449.472 353.095 441.857C349.27 438.16 337.292 426.489 326.466 415.928C315.641 405.367 303.654 393.73 299.838 390.008C293.102 383.494 283.941 374.555 263.715 354.79C258.362 349.557 247.852 339.346 240.356 332.097C232.86 324.849 224.212 316.465 221.138 313.477C217.407 309.84 214.743 307.654 213.113 306.877L210.662 305.708H179.304C149.781 305.767 147.8 305.819 146.024 306.621Z" fill="#222222"/>
</g>
</svg>
