<svg width="1002" height="1097" viewBox="0 0 1002 1097" fill="none" xmlns="http://www.w3.org/2000/svg">
<g opacity="0.05">
<path fill-rule="evenodd" clip-rule="evenodd" d="M412.731 -91C738.186 -91 1002 174.715 1002 502.515C1002 830.315 738.186 1096.03 412.731 1096.03C87.2769 1096.03 -176.537 830.315 -176.537 502.515C-176.537 174.715 87.2769 -91 412.731 -91Z" fill="#0651AF"/>
<path d="M-6.65723 287.462H108.463C139.596 287.462 163.506 289.885 180.249 294.84C196.882 299.796 209.521 306.843 217.947 316.093C226.373 325.398 232.009 336.686 235.073 349.845C238.028 363.059 239.505 383.487 239.505 411.182V449.669C239.505 477.805 236.66 498.397 230.805 511.281C225.06 524.22 214.391 534.186 199.016 541.124C183.532 548.006 163.342 551.475 138.447 551.475H107.806L107.806 729.869H-6.65723L-6.65723 287.572V287.462ZM107.806 362.949L107.806 475.602C111.034 475.767 113.825 475.877 116.123 475.877C126.573 475.877 133.796 473.235 137.899 468.059C141.894 462.938 143.918 452.147 143.918 435.739V399.289C143.918 384.203 141.62 374.292 136.86 369.722C132.209 365.152 122.524 362.949 107.751 362.949H107.806ZM272.279 287.462H353.148C407.042 287.462 443.536 289.499 462.632 293.684C481.727 297.868 497.266 308.605 509.304 325.839C521.341 343.018 527.36 370.493 527.36 408.154C527.36 442.566 523.092 465.636 514.611 477.474C506.185 489.312 489.387 496.415 464.437 498.727C487.035 504.398 502.3 511.942 510.07 521.467C517.839 530.882 522.654 539.637 524.514 547.566C526.484 555.494 527.36 577.298 527.36 612.977L527.36 729.759L421.213 729.759V582.584C421.213 558.908 419.352 544.262 415.687 538.591C412.075 532.92 402.446 530.112 386.797 530.112V729.759H272.334L272.334 287.462H272.279ZM386.742 362.949L386.742 461.342C399.491 461.342 408.409 459.58 413.498 456.001C418.586 452.477 421.158 440.914 421.158 421.423V397.087C421.158 382.991 418.641 373.796 413.772 369.391C408.847 365.042 399.765 362.894 386.742 362.894V362.949ZM832.121 546.74C832.121 591.228 831.082 622.612 828.948 641.057C826.923 659.613 820.412 676.461 809.524 691.768C798.581 707.074 783.753 718.802 765.15 727.006C746.547 735.21 724.88 739.285 700.149 739.285C676.622 739.285 655.611 735.375 636.899 727.612C618.186 719.903 603.085 708.341 591.814 692.869C580.433 677.397 573.648 660.549 571.46 642.324C569.326 624.044 568.232 592.219 568.232 546.685V471.032C568.232 426.599 569.271 395.159 571.405 376.714C573.429 358.159 579.94 341.311 590.829 326.004C601.772 310.697 616.599 298.97 635.202 290.766C653.805 282.562 675.473 278.487 700.204 278.487C723.731 278.487 744.742 282.397 763.454 290.16C782.167 297.868 797.268 309.431 808.539 324.903C819.92 340.375 826.704 357.223 828.893 375.448C831.027 393.728 832.121 425.553 832.121 471.032V546.685V546.74ZM717.658 401.436C717.658 380.954 716.563 367.795 714.32 362.013C712.132 356.342 707.59 353.424 700.696 353.424C694.842 353.424 690.41 355.736 687.291 360.417C684.227 364.987 682.64 378.697 682.64 401.436V607.856C682.64 633.459 683.68 649.316 685.704 655.263C687.729 661.319 692.489 664.293 699.875 664.293C707.481 664.293 712.405 660.824 714.484 653.941C716.618 647.059 717.658 630.541 717.658 604.553V401.381V401.436Z" fill="white"/>
</g>
</svg>
