<svg width="220" height="72" viewBox="0 0 220 72" fill="none" xmlns="http://www.w3.org/2000/svg">
<path d="M84.2471 56.4633C84.8374 56.7457 85.1326 57.2138 85.1326 57.8674C85.1326 58.3769 84.9395 58.7924 84.5533 59.1136C84.1726 59.4293 83.6732 59.5872 83.0553 59.5872C81.9959 59.5872 81.2952 59.1385 80.9531 58.2412L81.7725 57.7677C81.9435 58.3825 82.3711 58.6899 83.0553 58.6899C83.4194 58.6899 83.6981 58.6124 83.8912 58.4573C84.0843 58.2966 84.1809 58.0834 84.1809 57.8175C84.1809 57.5572 84.0871 57.3495 83.8995 57.1944C83.7174 57.0338 83.4581 56.9535 83.1215 56.9535H82.418V56.0894H82.9311C83.2567 56.0894 83.5105 56.0146 83.6926 55.8651C83.8746 55.7155 83.9657 55.5161 83.9657 55.2669C83.9657 55.0176 83.8829 54.821 83.7174 54.677C83.5519 54.5274 83.3146 54.4526 83.0056 54.4526C82.4318 54.4526 82.0456 54.7157 81.847 55.2419L81.0359 54.7684C81.4111 53.9597 82.0677 53.5553 83.0056 53.5553C83.5739 53.5553 84.0346 53.7104 84.3878 54.0206C84.7409 54.3252 84.9174 54.724 84.9174 55.217C84.9174 55.7654 84.694 56.1808 84.2471 56.4633Z" fill="#0651AF"/>
<path d="M89.7381 59.4792L89.3326 58.3077H86.8663L86.4608 59.4792H85.4262L87.5284 53.6633H88.6705L90.7644 59.4792H89.7381ZM87.1808 57.4104H89.0181L88.0995 54.785L87.1808 57.4104Z" fill="#0651AF"/>
<path d="M95.6496 53.6633V59.4792H94.6979V54.5773H92.3391V59.4792H91.3874V53.6633H95.6496Z" fill="#0651AF"/>
<path d="M99.9142 53.6633H100.866V59.4792H99.9142V57.2442C99.5114 57.427 99.0865 57.5184 98.6396 57.5184C98.0603 57.5184 97.5885 57.3578 97.2244 57.0365C96.8657 56.7097 96.6864 56.2777 96.6864 55.7404V53.6633H97.6382V55.6407C97.6382 55.9398 97.7292 56.1752 97.9113 56.3469C98.0934 56.5186 98.3417 56.6045 98.6562 56.6045C99.1141 56.6045 99.5334 56.5103 99.9142 56.322V53.6633Z" fill="#0651AF"/>
<path d="M105.798 59.4792L105.392 58.3077H102.926L102.52 59.4792H101.486L103.588 53.6633L104.73 53.6633L106.824 59.4792L105.798 59.4792ZM103.24 57.4104H105.078L104.159 54.785L103.24 57.4104Z" fill="#0651AF"/>
<path d="M109.968 59.5872C109.096 59.5872 108.373 59.2992 107.8 58.7231C107.226 58.1415 106.939 57.4243 106.939 56.5713C106.939 55.7183 107.226 55.0038 107.8 54.4277C108.373 53.8461 109.096 53.5553 109.968 53.5553C110.492 53.5553 110.975 53.68 111.416 53.9292C111.863 54.1785 112.211 54.5163 112.459 54.9428L111.632 55.4247C111.477 55.1367 111.251 54.9096 110.953 54.7434C110.66 54.5717 110.332 54.4859 109.968 54.4859C109.35 54.4859 108.848 54.6825 108.462 55.0758C108.081 55.469 107.891 55.9675 107.891 56.5713C107.891 57.175 108.081 57.6735 108.462 58.0668C108.848 58.46 109.35 58.6567 109.968 58.6567C110.332 58.6567 110.663 58.5736 110.961 58.4074C111.259 58.2357 111.483 58.0058 111.632 57.7178L112.459 58.1914C112.216 58.6179 111.872 58.9585 111.425 59.2133C110.983 59.4626 110.498 59.5872 109.968 59.5872Z" fill="#0651AF"/>
<path d="M116.975 53.6633V54.5773H115.345V59.4792H114.393V54.5773H112.754V53.6633H116.975Z" fill="#0651AF"/>
<path d="M121.155 59.4792V55.5327L118.424 59.4792H117.679V53.6633H118.631V57.6098L121.362 53.6633H122.107V59.4792H121.155Z" fill="#0651AF"/>
<path d="M129.678 58.5653H130.299V60.5925H129.347V59.4792H125.829V60.5925H124.878V58.5653H125.416C125.752 58.1222 125.92 57.4547 125.92 56.563V53.6633H129.678V58.5653ZM126.458 58.5653H128.726V54.5607H126.872V56.5796C126.872 57.4436 126.734 58.1055 126.458 58.5653Z" fill="#0651AF"/>
<path d="M130.696 59.4792V58.5985C131.061 58.6484 131.331 58.5597 131.508 58.3326C131.69 58.1055 131.781 57.6707 131.781 57.0282V53.6633H135.662V59.4792H134.71V54.5773H132.732V57.0116C132.732 57.5212 132.677 57.9505 132.567 58.2994C132.462 58.6484 132.31 58.9115 132.112 59.0887C131.913 59.2604 131.698 59.3767 131.466 59.4376C131.24 59.493 130.983 59.5069 130.696 59.4792Z" fill="#0651AF"/>
<path d="M140.815 53.6633V59.4792H139.863V57.3606H138.945L137.546 59.4792H136.47L137.943 57.2775C137.563 57.1612 137.248 56.9424 137 56.6211C136.757 56.2943 136.636 55.9315 136.636 55.5327C136.636 55.0121 136.815 54.5717 137.174 54.2117C137.538 53.8461 137.979 53.6633 138.498 53.6633H140.815ZM138.498 56.5048H139.863V54.5607H138.498C138.244 54.5607 138.029 54.6548 137.852 54.8431C137.676 55.0315 137.587 55.2613 137.587 55.5327C137.587 55.8041 137.676 56.034 137.852 56.2223C138.029 56.4106 138.244 56.5048 138.498 56.5048Z" fill="#0651AF"/>
<path d="M146.236 55.9066C146.772 55.9066 147.216 56.0755 147.569 56.4134C147.922 56.7513 148.099 57.1778 148.099 57.6929C148.099 58.208 147.922 58.6345 147.569 58.9724C147.216 59.3103 146.772 59.4792 146.236 59.4792L144.043 59.4792V53.6633L147.602 53.6633V54.5773L144.995 54.5773V55.9066L146.236 55.9066ZM146.236 58.5819C146.496 58.5819 146.711 58.5016 146.882 58.3409C147.059 58.1748 147.147 57.9588 147.147 57.6929C147.147 57.427 147.059 57.2138 146.882 57.0532C146.711 56.887 146.496 56.8039 146.236 56.8039H144.995V58.5819H146.236Z" fill="#0651AF"/>
<path d="M148.885 59.4792V53.6633H149.836V55.6574H151.02C151.566 55.6574 152.021 55.8429 152.385 56.214C152.755 56.5796 152.94 57.031 152.94 57.5683C152.94 58.1055 152.755 58.5597 152.385 58.9308C152.021 59.2964 151.566 59.4792 151.02 59.4792H148.885ZM153.503 59.4792V53.6633H154.454V59.4792H153.503ZM149.836 58.5819H151.02C151.301 58.5819 151.533 58.4877 151.715 58.2994C151.897 58.1055 151.988 57.8618 151.988 57.5683C151.988 57.2747 151.897 57.0338 151.715 56.8454C151.533 56.6516 151.301 56.5547 151.02 56.5547H149.836V58.5819Z" fill="#0651AF"/>
<path d="M159.383 53.6633V54.5773H157.752V59.4792H156.801V54.5773H155.162V53.6633H159.383Z" fill="#0651AF"/>
<path d="M164.597 58.7148C164.017 59.2964 163.308 59.5872 162.47 59.5872C161.631 59.5872 160.919 59.2964 160.334 58.7148C159.755 58.1277 159.465 57.4132 159.465 56.5713C159.465 55.7294 159.755 55.0176 160.334 54.436C160.919 53.8489 161.631 53.5553 162.47 53.5553C163.308 53.5553 164.017 53.8489 164.597 54.436C165.182 55.0176 165.474 55.7294 165.474 56.5713C165.474 57.4132 165.182 58.1277 164.597 58.7148ZM161.005 58.0668C161.402 58.46 161.89 58.6567 162.47 58.6567C163.049 58.6567 163.535 58.46 163.926 58.0668C164.324 57.668 164.522 57.1695 164.522 56.5713C164.522 55.9731 164.324 55.4773 163.926 55.0841C163.535 54.6853 163.049 54.4859 162.47 54.4859C161.89 54.4859 161.402 54.6853 161.005 55.0841C160.613 55.4773 160.417 55.9731 160.417 56.5713C160.417 57.1695 160.613 57.668 161.005 58.0668Z" fill="#0651AF"/>
<path d="M169.752 56.4633C170.006 56.5962 170.204 56.779 170.348 57.0116C170.491 57.2442 170.563 57.5129 170.563 57.8175C170.563 58.2939 170.395 58.6899 170.058 59.0056C169.722 59.3213 169.311 59.4792 168.825 59.4792H166.342V53.6633H168.643C169.117 53.6633 169.517 53.8184 169.843 54.1286C170.174 54.4333 170.34 54.8154 170.34 55.2752C170.34 55.7792 170.144 56.1752 169.752 56.4633ZM168.643 54.5607H167.294V56.0894H168.643C168.853 56.0894 169.029 56.0174 169.173 55.8734C169.316 55.7238 169.388 55.541 169.388 55.325C169.388 55.109 169.316 54.929 169.173 54.785C169.029 54.6354 168.853 54.5607 168.643 54.5607ZM168.825 58.5819C169.046 58.5819 169.231 58.5043 169.38 58.3493C169.534 58.1886 169.611 57.9948 169.611 57.7677C169.611 57.5406 169.534 57.3495 169.38 57.1944C169.231 57.0338 169.046 56.9535 168.825 56.9535H167.294V58.5819H168.825Z" fill="#0651AF"/>
<path d="M176.235 58.7148C175.656 59.2964 174.947 59.5872 174.108 59.5872C173.27 59.5872 172.558 59.2964 171.973 58.7148C171.394 58.1277 171.104 57.4132 171.104 56.5713C171.104 55.7294 171.394 55.0176 171.973 54.436C172.558 53.8489 173.27 53.5553 174.108 53.5553C174.947 53.5553 175.656 53.8489 176.235 54.436C176.82 55.0176 177.112 55.7294 177.112 56.5713C177.112 57.4132 176.82 58.1277 176.235 58.7148ZM172.643 58.0668C173.041 58.46 173.529 58.6567 174.108 58.6567C174.688 58.6567 175.173 58.46 175.565 58.0668C175.962 57.668 176.161 57.1695 176.161 56.5713C176.161 55.9731 175.962 55.4773 175.565 55.0841C175.173 54.6853 174.688 54.4859 174.108 54.4859C173.529 54.4859 173.041 54.6853 172.643 55.0841C172.252 55.4773 172.056 55.9731 172.056 56.5713C172.056 57.1695 172.252 57.668 172.643 58.0668Z" fill="#0651AF"/>
<path d="M179.04 53.0818V52.3008H181.357V53.0818H179.04ZM181.457 59.4792V55.5327L178.725 59.4792H177.981V53.6633H178.932V57.6098L181.664 53.6633H182.408V59.4792H181.457Z" fill="#0651AF"/>
<path d="M189.4 53.6633V54.5773H187.77V59.4792H186.818V54.5773H185.179V53.6633H189.4Z" fill="#0651AF"/>
<path d="M191.056 58.5653H193.621V59.4792H190.104V53.6633L193.58 53.6633V54.5773L191.056 54.5773V56.0894L193.373 56.0894V56.995H191.056V58.5653Z" fill="#0651AF"/>
<path d="M198.755 59.4792H197.671L196.396 57.3772L195.122 59.4792L194.037 59.4792L195.858 56.4882L194.145 53.6633H195.221L196.396 55.5992L197.571 53.6633H198.656L196.942 56.4882L198.755 59.4792Z" fill="#0651AF"/>
<path d="M202.89 53.6633H203.842V59.4792H202.89V56.9618H200.407V59.4792H199.455V53.6633H200.407V56.0478H202.89V53.6633Z" fill="#0651AF"/>
<path d="M208.476 59.4792V55.5327L205.744 59.4792H205V53.6633H205.951V57.6098L208.683 53.6633H209.427V59.4792H208.476Z" fill="#0651AF"/>
<path d="M214.954 59.4792H213.82L211.536 56.7125V59.4792H210.584V53.6633H211.536V56.2722L213.738 53.6633H214.872L212.529 56.4965L214.954 59.4792Z" fill="#0651AF"/>
<path d="M219.047 59.4792V55.5327L216.316 59.4792H215.571V53.6633H216.523V57.6098L219.254 53.6633H219.999V59.4792H219.047Z" fill="#0651AF"/>
<path fill-rule="evenodd" clip-rule="evenodd" d="M35.4376 0C55.0098 0 70.8751 15.991 70.8751 35.7182C70.8751 55.4454 55.0098 71.4364 35.4376 71.4364C15.8653 71.4364 0 55.4454 0 35.7182C0 15.991 15.8653 0 35.4376 0Z" fill="#0651AF"/>
<path d="M10.2695 22.7113H17.1778C19.046 22.7113 20.4809 22.8569 21.4856 23.1548C22.4837 23.4526 23.2422 23.8762 23.7478 24.4322C24.2535 24.9915 24.5917 25.6699 24.7755 26.4608C24.9528 27.2551 25.0415 28.4829 25.0415 30.1475V32.4608C25.0415 34.1518 24.8707 35.3896 24.5194 36.164C24.1747 36.9417 23.5344 37.5407 22.6118 37.9576C21.6826 38.3713 20.471 38.5798 18.9771 38.5798H17.1384V49.3022H10.2695L10.2695 22.7179V22.7113ZM17.1384 27.2485V34.0195C17.3321 34.0294 17.4995 34.036 17.6374 34.036C18.2646 34.036 18.698 33.8772 18.9442 33.5661C19.1839 33.2583 19.3054 32.6097 19.3054 31.6235V29.4327C19.3054 28.5259 19.1675 27.9302 18.8818 27.6555C18.6028 27.3808 18.0216 27.2485 17.1351 27.2485H17.1384ZM27.0082 22.7113H31.8611C35.0952 22.7113 37.2852 22.8338 38.4311 23.0853C39.577 23.3368 40.5095 23.9821 41.2319 25.0179C41.9542 26.0505 42.3154 27.7019 42.3154 29.9655C42.3154 32.0338 42.0593 33.4205 41.5503 34.132C41.0447 34.8435 40.0367 35.2704 38.5395 35.4094C39.8955 35.7503 40.8116 36.2037 41.2778 36.7762C41.7441 37.3421 42.033 37.8683 42.1446 38.3448C42.2628 38.8214 42.3154 40.1319 42.3154 42.2764L42.3154 49.2956H35.9456V40.4496C35.9456 39.0266 35.834 38.1463 35.614 37.8054C35.3973 37.4645 34.8194 37.2958 33.8804 37.2958V49.2956H27.0115L27.0115 22.7113H27.0082ZM33.8771 27.2485V33.1623C34.6421 33.1623 35.1773 33.0564 35.4826 32.8413C35.788 32.6295 35.9423 31.9346 35.9423 30.763V29.3003C35.9423 28.4531 35.7913 27.9004 35.4991 27.6357C35.2036 27.3742 34.6585 27.2452 33.8771 27.2452V27.2485ZM60.6038 38.2952C60.6038 40.9692 60.5414 42.8555 60.4134 43.9642C60.2919 45.0794 59.9012 46.0921 59.2478 47.0121C58.5911 47.9321 57.7013 48.637 56.585 49.1301C55.4686 49.6232 54.1684 49.8681 52.6843 49.8681C51.2724 49.8681 50.0116 49.6332 48.8887 49.1665C47.7658 48.7032 46.8596 48.0082 46.1832 47.0783C45.5003 46.1484 45.0931 45.1357 44.9618 44.0403C44.8337 42.9416 44.7681 41.0288 44.7681 38.2919V33.7448C44.7681 31.0741 44.8304 29.1845 44.9585 28.0758C45.08 26.9606 45.4707 25.9479 46.1241 25.0279C46.7808 24.1079 47.6706 23.403 48.7869 22.9099C49.9033 22.4168 51.2035 22.1719 52.6876 22.1719C54.0994 22.1719 55.3603 22.4068 56.4832 22.8735C57.6061 23.3368 58.5123 24.0317 59.1887 24.9617C59.8716 25.8916 60.2788 26.9043 60.4101 27.9997C60.5382 29.0984 60.6038 31.0112 60.6038 33.7448V38.2919V38.2952ZM53.735 29.5617C53.735 28.3306 53.6693 27.5397 53.5347 27.1922C53.4034 26.8513 53.1308 26.6759 52.7171 26.6759C52.3658 26.6759 52.0999 26.8149 51.9127 27.0962C51.7288 27.3709 51.6336 28.195 51.6336 29.5617V41.9686C51.6336 43.5075 51.696 44.4606 51.8175 44.818C51.939 45.182 52.2246 45.3607 52.6679 45.3607C53.1243 45.3607 53.4198 45.1522 53.5445 44.7386C53.6726 44.3249 53.735 43.3321 53.735 41.7701V29.5584V29.5617Z" fill="white"/>
<path d="M93.2711 34.4068C94.266 34.7477 95.0048 35.3036 95.494 36.0714C95.9766 36.8425 96.2229 38.6527 96.2229 41.4988C96.2229 43.6102 95.9832 45.2516 95.5071 46.4165C95.0277 47.5814 94.2069 48.4651 93.0347 49.0707C91.8626 49.6796 90.362 49.9841 88.5266 49.9841C86.4483 49.9841 84.8098 49.63 83.6245 48.9251C82.436 48.2202 81.6512 47.3531 81.2802 46.3272C80.9092 45.3079 80.7188 43.5275 80.7188 40.9958V38.8943H87.2888V43.2197C87.2888 44.3747 87.3545 45.106 87.4957 45.4171C87.6303 45.7315 87.9356 45.887 88.4019 45.887C88.9141 45.887 89.2523 45.6918 89.4132 45.2947C89.574 44.9008 89.6561 43.8716 89.6561 42.207V40.3637C89.6561 39.3444 89.5445 38.5998 89.3179 38.1298C89.0914 37.6599 88.7532 37.3521 88.3067 37.2065C87.8634 37.0543 86.9999 36.9716 85.7226 36.9484V33.083C87.2822 33.083 88.2443 33.0202 88.6186 32.9043C88.9863 32.7819 89.2523 32.5237 89.4132 32.1134C89.574 31.7096 89.6561 31.0775 89.6561 30.2138V28.7411C89.6561 27.8112 89.5609 27.2023 89.3738 26.9044C89.18 26.6066 88.8845 26.461 88.484 26.461C88.021 26.461 87.7124 26.6165 87.5449 26.9243C87.3742 27.2387 87.2888 27.9005 87.2888 28.9198V31.0974H80.7188V28.8338C80.7188 26.2955 81.2966 24.5878 82.4458 23.6976C83.5983 22.8074 85.4238 22.3573 87.9323 22.3573C91.068 22.3573 93.1956 22.9729 94.312 24.2106C95.4283 25.4483 95.9898 27.1692 95.9898 29.3633C95.9898 30.8525 95.7895 31.9281 95.3889 32.5899C94.9851 33.2518 94.2758 33.8574 93.2711 34.4035V34.4068ZM110.634 22.8603L114.557 49.4446L107.551 49.4446L107.18 44.6725H104.707L104.336 49.4446H97.2375L100.718 22.8603H110.637H110.634ZM106.992 39.9666C106.664 36.9517 106.319 33.222 105.955 28.7676C105.278 33.8773 104.848 37.607 104.664 39.9666H106.992ZM131.473 49.4446H124.604V28.1686H122.605V49.4446H115.736V22.8603H131.473V49.4446ZM143.582 39.255C143.031 39.8507 142.308 40.3207 141.422 40.6781C140.532 41.0322 139.639 41.2109 138.726 41.2109C137.094 41.2109 135.903 40.7509 135.157 39.8342C134.419 38.9142 134.044 37.4944 134.044 35.5651V22.8603L140.913 22.8603V34.8238C140.913 35.8596 141.002 36.5777 141.179 36.9649C141.356 37.3521 141.652 37.5474 142.062 37.5474C143.074 37.5474 143.579 36.6638 143.579 34.8866V22.8603H150.448V49.4446H143.579V39.255H143.582ZM165.046 22.8603L168.97 49.4446H161.963L161.592 44.6725H159.119L158.748 49.4446H151.65L155.13 22.8603L165.049 22.8603H165.046ZM161.405 39.9666C161.076 36.9517 160.732 33.222 160.367 28.7676C159.691 33.8773 159.261 37.607 159.077 39.9666H161.405ZM186.152 34.4531H179.283V29.8365C179.283 28.4929 179.21 27.6589 179.066 27.3214C178.922 26.9905 178.6 26.8217 178.104 26.8217C177.549 26.8217 177.191 27.0235 177.043 27.4273C176.892 27.8343 176.817 28.7113 176.817 30.0549V42.389C176.817 43.683 176.896 44.5236 177.043 44.9207C177.194 45.3145 177.533 45.5098 178.055 45.5098C178.56 45.5098 178.895 45.3145 179.05 44.9174C179.204 44.5236 179.283 43.5936 179.283 42.1342V38.7917H186.152V39.8276C186.152 42.5843 185.958 44.5401 185.574 45.6885C185.189 46.8435 184.336 47.8528 183.016 48.7199C181.693 49.5869 180.071 50.0205 178.137 50.0205C176.131 50.0205 174.473 49.6564 173.169 48.9217C171.869 48.1871 171.002 47.1744 170.578 45.8738C170.155 44.5732 169.945 42.624 169.945 40.0195V32.2557C169.945 30.3396 170.01 28.9066 170.138 27.9469C170.273 26.9871 170.657 26.0638 171.304 25.1802C171.948 24.2966 172.844 23.595 173.99 23.0854C175.136 22.5757 176.452 22.3242 177.94 22.3242C179.956 22.3242 181.624 22.718 182.94 23.5057C184.254 24.29 185.114 25.2696 185.531 26.4477C185.941 27.6225 186.148 29.4493 186.148 31.9314V34.4564L186.152 34.4531ZM202.414 22.857V28.1686L198.379 28.1686V49.4446H191.51V28.1686H187.442V22.857L202.414 22.857ZM219.954 43.2263C219.954 45.202 219.698 46.625 219.186 47.4888C218.68 48.3558 217.902 48.8953 216.868 49.1137C215.827 49.3321 214.178 49.4446 211.91 49.4446H203.98V22.8603H210.849V31.9678H211.91C214.021 31.9678 215.626 32.0902 216.71 32.3417C217.794 32.5932 218.604 33.1492 219.143 34.0097C219.681 34.8668 219.947 36.217 219.947 38.0537V43.223L219.954 43.2263ZM213.085 42.4254V38.5832C213.085 37.4613 212.973 36.7862 212.75 36.5446C212.527 36.3031 211.893 36.1707 210.849 36.1343V44.8744C211.723 44.8744 212.31 44.7619 212.616 44.5401C212.928 44.3151 213.082 43.6102 213.082 42.4287L213.085 42.4254Z" fill="#00A0E3"/>
</svg>
