<svg width="216" height="41" viewBox="0 0 216 41" fill="none" xmlns="http://www.w3.org/2000/svg">
<path fill-rule="evenodd" clip-rule="evenodd" d="M108.187 40.4053C105.244 40.4053 102.94 39.6077 101.274 38.0124C99.9582 36.6969 99.1733 34.9545 98.919 32.7853C101.22 32.7725 103.507 32.7453 105.781 32.7047C106.313 34.187 107.541 34.9282 109.463 34.9282C110.349 34.9282 111.147 34.7509 111.856 34.3964L112.175 39.7141C110.934 40.1749 109.605 40.4053 108.187 40.4053ZM105.475 30.3045C103.253 30.4635 101.037 30.6114 98.8276 30.7489V0.576172H105.475V30.3045ZM115.131 32.4618C115.287 32.8136 115.457 33.1571 115.64 33.4924C116.881 35.6904 118.583 37.392 120.745 38.5973C122.943 39.8027 125.425 40.4053 128.19 40.4053C130.14 40.4053 131.912 40.0686 133.508 39.395C135.139 38.7214 136.503 37.7111 137.602 36.3639V40.0331H143.93V30.8266C141.213 31.0385 138.477 31.2369 135.721 31.42C135.502 31.7171 135.26 32.0002 134.997 32.2693C133.401 33.9001 131.381 34.7155 128.935 34.7155C126.488 34.7155 124.468 33.9001 122.872 32.2693C122.836 32.2312 122.8 32.1928 122.764 32.1541C120.236 32.2718 117.692 32.3748 115.131 32.4618ZM120.978 29.0215C118.718 29.2344 116.464 29.4352 114.216 29.6244C113.96 28.4364 113.832 27.1733 113.832 25.835C113.832 22.928 114.435 20.3933 115.64 18.2308C116.881 16.0328 118.583 14.3312 120.745 13.1258C122.943 11.9205 125.425 11.3178 128.19 11.3178C130.034 11.3178 131.717 11.6369 133.242 12.275C134.802 12.9131 136.149 13.8526 137.283 15.0933V11.6369H143.93V26.4525C141.717 26.7405 139.509 27.0159 137.305 27.2791C137.362 26.8159 137.39 26.3345 137.39 25.835C137.39 23.1762 136.592 21.0314 134.997 19.4006C133.401 17.7699 131.381 16.9545 128.935 16.9545C126.488 16.9545 124.468 17.7699 122.872 19.4006C121.313 21.0314 120.533 23.1762 120.533 25.835C120.533 26.995 120.681 28.0572 120.978 29.0215ZM152.627 30.0988V40.0331H159.274V29.4797C157.071 29.6933 154.855 29.9 152.627 30.0988ZM159.343 24.2511C157.1 24.6005 154.861 24.9363 152.627 25.2589V11.6369H158.955V15.3061C160.054 13.9944 161.437 13.0017 163.103 12.3282C164.769 11.6546 166.648 11.3178 168.74 11.3178C172.32 11.3178 175.192 12.3636 177.354 14.4552C178.921 15.971 179.921 18.0175 180.352 20.5946C178.114 21.0259 175.88 21.4428 173.649 21.8457C173.366 20.694 172.881 19.7549 172.196 19.0284C171.026 17.7522 169.36 17.1141 167.198 17.1141C164.751 17.1141 162.819 17.8585 161.401 19.3475C160.238 20.5403 159.551 22.1748 159.343 24.2511ZM173.951 27.9464V40.0331H180.598V27.1889C178.394 27.4455 176.179 27.6984 173.951 27.9464ZM186.96 26.435C187.045 28.9963 187.68 31.3133 188.864 33.3861C190.176 35.584 192.02 37.3034 194.395 38.5442C196.77 39.785 199.518 40.4053 202.637 40.4053C205.083 40.4053 207.281 40.0154 209.231 39.2355C211.181 38.4555 212.776 37.3034 214.017 35.779L210.507 31.6844C208.451 33.7406 205.881 34.7686 202.797 34.7686C200.705 34.7686 198.915 34.3432 197.426 33.4924C195.937 32.6416 194.856 31.4008 194.182 29.7701L215.931 25.5159C215.931 24.5855 215.864 23.6941 215.73 22.8417C213.21 23.1584 210.675 23.479 208.125 23.8015C201.185 24.6793 194.134 25.5711 186.96 26.435ZM210.318 13.9849C209.841 13.6508 209.337 13.3467 208.806 13.0726C206.643 11.9028 204.232 11.3178 201.574 11.3178C198.773 11.3178 196.256 11.9382 194.023 13.179C191.825 14.4198 190.088 16.1569 188.811 18.3903C188.705 18.5791 188.603 18.77 188.505 18.963C195.738 17.4614 203.01 15.8063 210.318 13.9849ZM67.7945 32.0425V29.2915H76.1964C79.4225 29.2915 82.2231 28.7597 84.5983 27.6962C87.009 26.6326 88.8524 25.1082 90.1287 23.123C91.4049 21.1023 92.043 18.7448 92.043 16.0505C92.043 13.3208 91.4049 10.9633 90.1287 8.97805C88.8524 6.9928 87.009 5.46841 84.5983 4.40488C82.2231 3.34135 79.4225 2.80958 76.1964 2.80958H60.8816V40.0331H67.7945V32.0496C67.7636 32.0479 67.7327 32.0462 67.7018 32.0446C67.7327 32.0439 67.7636 32.0432 67.7945 32.0425ZM28.0402 40.0331L17.9366 25.8882L7.93945 40.0331H0.0693359L13.8952 21.0491L0.813807 2.80958H8.63075L18.1493 16.0505L27.5616 2.80958H35.0595L22.0312 20.7832L36.0166 40.0331H28.0402ZM38.3473 22.4849H52.9708V28.0152H38.3473V22.4849ZM82.7371 21.5277C81.1773 22.8039 78.8907 23.4421 75.8774 23.4421H67.7945V8.659H75.8774C78.8907 8.659 81.1773 9.29711 82.7371 10.5733C84.297 11.8496 85.0769 13.6753 85.0769 16.0505C85.0769 18.4257 84.297 20.2515 82.7371 21.5277Z" fill="black"/>
</svg>
