<svg width="241" height="74" viewBox="0 0 241 74" fill="none" xmlns="http://www.w3.org/2000/svg">
<path d="M90.4677 20.3249H105.936C106.139 20.3249 106.344 20.1203 106.344 19.9168V17.2321C106.344 17.0285 106.139 16.8242 105.936 16.8242H87.025C86.8215 16.8242 86.6172 17.0285 86.6172 17.2321V36.8368C86.6172 37.0411 86.8207 37.2455 87.025 37.2455H90.0596C90.2634 37.2455 90.4677 37.0411 90.4677 36.8368V20.3249Z" fill="#222222"/>
<path d="M112.626 20.3249H128.497C128.701 20.3249 128.905 20.1203 128.905 19.9168V17.2321C128.905 17.0285 128.701 16.8242 128.497 16.8242H109.243C109.038 16.8242 108.834 17.0285 108.834 17.2321V36.8368C108.834 37.0411 109.038 37.2455 109.243 37.2455H128.497C128.701 37.2455 128.905 37.0411 128.905 36.8368V34.1529C128.905 33.9486 128.701 33.7443 128.497 33.7443H112.626V28.785H124.879C125.084 28.785 125.288 28.5807 125.288 28.3764V25.6925C125.288 25.4882 125.084 25.2836 124.879 25.2836H112.626V20.3246V20.3249Z" fill="#222222"/>
<path d="M134.685 25.2839V17.2321C134.685 17.0285 134.481 16.8242 134.276 16.8242H131.3C131.097 16.8242 130.893 17.0285 130.893 17.2321V36.8368C130.893 37.0411 131.097 37.2455 131.3 37.2455H134.276C134.481 37.2455 134.685 37.0411 134.685 36.8368V28.785H146.88V36.8368C146.88 37.0411 147.083 37.2455 147.288 37.2455H150.264C150.468 37.2455 150.672 37.0411 150.672 36.8368V17.2321C150.672 17.0285 150.468 16.8242 150.264 16.8242H147.288C147.083 16.8242 146.88 17.0285 146.88 17.2321V25.2839H134.685V25.2839Z" fill="#222222"/>
<path d="M157.058 20.3249H172.928C173.133 20.3249 173.337 20.1203 173.337 19.9168V17.2321C173.337 17.0285 173.133 16.8242 172.928 16.8242H153.674C153.47 16.8242 153.266 17.0285 153.266 17.2321V36.8368C153.266 37.0411 153.47 37.2455 153.674 37.2455H172.928C173.133 37.2455 173.337 37.0411 173.337 36.8368V34.1529C173.337 33.9486 173.133 33.7443 172.928 33.7443H157.058V28.785H169.311C169.515 28.785 169.72 28.5807 169.72 28.3764V25.6925C169.72 25.4882 169.515 25.2836 169.311 25.2836H157.058V20.3246V20.3249Z" fill="#222222"/>
<path d="M201.332 31.6735V17.2321C201.332 17.0285 201.128 16.8242 200.923 16.8242H197.948C197.743 16.8242 197.539 17.0285 197.539 17.2321V36.8368C197.539 37.0411 197.743 37.2455 197.948 37.2455H200.427C200.777 37.2455 200.982 37.1287 201.215 36.8661L213.526 22.3961V36.8368C213.526 37.0411 213.73 37.2455 213.935 37.2455H216.911C217.115 37.2455 217.319 37.0411 217.319 36.8368V17.2321C217.319 17.0285 217.115 16.8242 216.911 16.8242H214.43C214.081 16.8242 213.876 16.9402 213.643 17.2036L201.331 31.6735H201.332Z" fill="#222222"/>
<path d="M188.459 25.3426C190.938 25.3426 191.756 23.884 191.756 22.6882C191.756 21.3164 190.676 20.3249 189.013 20.3249H182.273C181.661 20.3249 180.669 20.3829 180.028 20.9085C179.852 21.054 179.298 21.5209 179.298 22.3964V22.6295C179.298 22.8338 179.094 23.0381 178.89 23.0381H175.914C175.71 23.0381 175.506 22.8338 175.506 22.6295V22.2501C175.506 20.033 176.614 18.7787 177.139 18.3121C178.598 16.9993 180.64 16.8242 181.923 16.8242H189.801C194.001 16.8242 195.723 19.8285 195.694 22.2796C195.666 24.0493 194.825 25.9278 192.835 26.9763C194.825 28.0245 195.67 30.0198 195.694 31.7898C195.726 34.2407 194.001 37.2457 189.801 37.2457H181.923C180.64 37.2457 178.598 37.0707 177.139 35.7578C176.614 35.291 175.506 34.0364 175.506 31.8191V31.4397C175.506 31.2354 175.71 31.0316 175.914 31.0316H178.89C179.094 31.0316 179.298 31.2354 179.298 31.4397V31.6735C179.298 32.5485 179.853 33.0151 180.028 33.1614C180.669 33.6863 181.661 33.7446 182.273 33.7446H189.013C190.676 33.7446 191.756 32.7528 191.756 31.3817C191.756 30.1856 190.938 28.7265 188.459 28.7265H180.757C180.553 28.7265 180.348 28.522 180.348 28.3184V26.9761V25.7505C180.348 25.547 180.553 25.3426 180.757 25.3426H188.459V25.3426Z" fill="#222222"/>
<path d="M87.025 41.5527C86.8215 41.5527 86.6172 41.757 86.6172 41.9613V61.5661C86.6172 61.7697 86.8215 61.974 87.025 61.974H90.0011C90.2054 61.974 90.4097 61.7697 90.4097 61.5661V45.0539H102.604V61.5661C102.604 61.7697 102.808 61.974 103.012 61.974H105.988C106.192 61.974 106.397 61.7697 106.397 61.5661V41.9613C106.397 41.757 106.192 41.5527 105.988 41.5527C99.8582 41.5527 93.1557 41.5527 87.025 41.5527V41.5527Z" fill="#222222"/>
<path d="M109.243 41.5523C109.038 41.5523 108.834 41.7566 108.834 41.9609V61.5657C108.834 61.7692 109.038 61.9735 109.243 61.9735H112.218C112.423 61.9735 112.626 61.7692 112.626 61.5657V53.9805H122.195C123.479 53.9805 125.521 53.8049 126.98 52.4926C127.505 52.0252 128.614 50.7711 128.614 48.5538C128.614 47.7756 128.614 47.7566 128.614 46.9784C128.614 44.7613 127.505 43.5065 126.98 43.0396C125.521 41.7268 123.479 41.5518 122.195 41.5518H118.476H109.243L109.243 41.5523ZM112.626 50.4796V45.0537H118.476H121.846C122.458 45.0537 123.45 45.1117 124.092 45.6373C124.267 45.7829 124.821 46.2497 124.821 47.1247C124.821 47.7813 124.821 47.7525 124.821 48.4083C124.821 49.2838 124.267 49.7506 124.092 49.8962C123.451 50.4216 122.458 50.4798 121.846 50.4798H112.627L112.626 50.4796Z" fill="#222222"/>
<path d="M140.534 61.9742H137.311C136.027 61.9742 133.985 61.7992 132.526 60.4863C132.001 60.0202 130.893 58.7654 130.893 56.5483C130.893 53.3585 130.893 50.1695 130.893 46.9794C130.893 44.7623 132.001 43.5075 132.526 43.0406C133.985 41.7278 136.026 41.5527 137.311 41.5527H140.534H144.254C145.537 41.5527 147.579 41.7278 149.038 43.0406C149.563 43.5075 150.672 44.7621 150.672 46.9794C150.672 50.1695 150.672 53.3585 150.672 56.5483C150.672 58.7654 149.563 60.0205 149.038 60.4863C147.579 61.7992 145.537 61.9742 144.254 61.9742H140.534ZM140.534 45.0541H137.66C137.048 45.0541 136.056 45.1122 135.414 45.6378C135.239 45.7833 134.685 46.2502 134.685 47.1252C134.685 50.2177 134.685 53.3103 134.685 56.4031C134.685 57.2778 135.239 57.7447 135.414 57.8902C136.056 58.4156 137.048 58.4738 137.66 58.4738H140.534H143.904C144.516 58.4738 145.508 58.4158 146.15 57.8902C146.325 57.7447 146.879 57.2778 146.879 56.4031C146.879 53.3103 146.879 50.2177 146.879 47.1252C146.879 46.2502 146.325 45.7836 146.15 45.6378C145.508 45.1124 144.516 45.0541 143.904 45.0541H140.534Z" fill="#222222"/>
<path d="M157.058 45.0539H172.928C173.133 45.0539 173.337 44.8496 173.337 44.6453V41.9613C173.337 41.757 173.133 41.5527 172.928 41.5527H153.674C153.47 41.5527 153.266 41.757 153.266 41.9613V61.5661C153.266 61.7697 153.47 61.974 153.674 61.974H172.928C173.133 61.974 173.337 61.7697 173.337 61.5661V58.8822C173.337 58.6776 173.133 58.4733 172.928 58.4733H157.058V53.5141H169.311C169.515 53.5141 169.72 53.3098 169.72 53.1055V50.4215C169.72 50.2172 169.515 50.0129 169.311 50.0129H157.058V45.0536V45.0539Z" fill="#222222"/>
<path d="M209.354 45.0539H216.911C217.115 45.0539 217.319 44.8496 217.319 44.6453V41.9613C217.319 41.757 217.114 41.5527 216.911 41.5527C209.978 41.5527 204.537 41.5527 197.948 41.5527C197.744 41.5527 197.539 41.757 197.539 41.9613V44.6453C197.539 44.8496 197.743 45.0539 197.948 45.0539H205.504V61.5661C205.504 61.7697 205.708 61.974 205.912 61.974H208.947C209.15 61.974 209.355 61.7697 209.355 61.5661V45.0539H209.354Z" fill="#222222"/>
<path d="M179.298 50.0132V41.9613C179.298 41.757 179.094 41.5527 178.89 41.5527H175.914C175.71 41.5527 175.506 41.757 175.506 41.9613V61.5661C175.506 61.7704 175.71 61.9747 175.914 61.9747H178.89C179.094 61.9747 179.298 61.7704 179.298 61.5661V53.5143H188.897C189.625 53.5143 190.53 53.8641 191.055 54.4185C191.492 54.8854 191.756 55.6439 191.756 56.3153V61.5661C191.756 61.7704 191.959 61.9747 192.164 61.9747H195.139C195.344 61.9747 195.548 61.7704 195.548 61.5661V56.052C195.548 54.9142 195.197 53.8642 194.586 53.1057C192.701 50.7508 190.687 50.0132 188.05 50.0132H179.299H179.298Z" fill="#222222"/>
<path d="M188.896 50.0129C189.626 50.0129 190.53 49.6631 191.056 49.1087C191.493 48.6418 191.755 47.8834 191.755 47.2122V41.9613C191.755 41.757 191.96 41.5527 192.165 41.5527H195.14C195.345 41.5527 195.549 41.757 195.549 41.9613V47.4753C195.549 48.6131 195.198 49.6631 194.586 50.4215C192.908 52.5182 191.127 53.3329 188.897 53.4861V50.0129H188.896Z" fill="#222222"/>
<path d="M223.826 22.2796C224.02 21.1249 225.042 20.3249 226.535 20.3249H233.274C233.887 20.3249 234.878 20.3829 235.52 20.9085C235.695 21.054 236.25 21.5209 236.25 22.3964V22.6295C236.25 22.8338 236.454 23.0381 236.658 23.0381H239.634C239.838 23.0381 240.042 22.8338 240.042 22.6295V22.2501C240.042 20.033 238.933 18.7787 238.408 18.3121C236.95 16.9993 234.908 16.8242 233.624 16.8242H225.747C221.546 16.8242 219.825 19.8285 219.854 22.2796V31.7898C219.821 34.2399 221.546 37.2457 225.747 37.2457H233.624C234.908 37.2457 236.95 37.0707 238.408 35.7573C238.933 35.2912 240.042 34.0364 240.042 31.8193V31.4405C240.042 31.2357 239.838 31.0319 239.634 31.0319H236.658C236.454 31.0319 236.25 31.2357 236.25 31.4405V31.6735C236.25 32.5485 235.695 33.0159 235.52 33.1614C234.878 33.6863 233.887 33.7446 233.274 33.7446H226.535C225.043 33.7446 224.02 32.9453 223.826 31.7898V22.2796V22.2796Z" fill="#222222"/>
<path fill-rule="evenodd" clip-rule="evenodd" d="M36.7559 0.488281C40.3901 0.488281 43.9004 1.01879 47.2161 2.00126V17.6025L26.295 17.6017V2.00049C29.6107 1.01802 33.1209 0.488281 36.7559 0.488281V0.488281ZM49.1372 2.62826C51.8259 3.59046 54.3696 4.85576 56.7282 6.38491V17.6022H49.1372V2.62826V2.62826ZM58.6485 7.71874C60.3763 9.00226 61.9886 10.4341 63.4654 11.9954L58.6485 16.3166V7.71874ZM64.7417 13.4188C70.2095 19.8346 73.5113 28.1533 73.5113 37.244C73.5113 49.3403 67.6671 60.072 58.6485 66.7694V56.8867V24.739L47.2161 34.9964V56.8867V72.4869C43.9004 73.4694 40.3901 73.9999 36.7559 73.9999C33.1212 73.9999 29.6109 73.4701 26.295 72.4874V56.8864V47.9141L64.7415 13.4188H64.7417ZM56.7282 68.1033C54.3698 69.6324 51.8261 70.8982 49.1372 71.8599V49.6378L56.7282 56.4483V68.1033ZM24.3749 71.8604C21.6857 70.8982 19.1418 69.6324 16.7836 68.1033V56.4483L24.3749 49.637V71.8604ZM14.8631 66.7694C13.1348 65.4859 11.523 64.0535 10.0462 62.4928L14.8631 58.1715V66.7694ZM8.76961 61.0694C3.30134 54.6541 0 46.3354 0 37.2442C0 34.4218 0.319278 31.6738 0.921644 29.0338H14.8631V32.0185V55.6024L8.76961 61.0694V61.0694ZM1.41442 27.1136C2.17745 24.4464 3.23538 21.904 4.54919 19.5217H14.8633V27.1136H1.41468H1.41442ZM5.6854 17.6022C8.1136 13.7694 11.2307 10.4172 14.8631 7.71874V17.6015V17.6022H5.6854V17.6022ZM16.7836 6.38491C19.1413 4.85576 21.6857 3.59071 24.3749 2.62826V17.6015H16.7836V6.38491V6.38491ZM44.4753 29.0338H43.2688H26.2952V45.3452L44.4753 29.0338Z" fill="#D6282A"/>
</svg>
