<svg width="1011" height="1096" viewBox="0 0 1011 1096" fill="none" xmlns="http://www.w3.org/2000/svg">
<path opacity="0.05" fill-rule="evenodd" clip-rule="evenodd" d="M433.504 -59C490.604 -59 545.757 -50.6648 597.853 -35.2284V209.895L269.143 209.883V-35.2405C321.239 -50.6769 376.392 -59 433.504 -59V-59ZM628.036 -25.377C670.281 -10.2592 710.247 9.62101 747.306 33.6466V209.891H628.036V-25.377ZM777.477 54.6035C804.624 74.77 829.956 97.2673 853.159 121.797L777.477 189.692V54.6035ZM873.213 144.161C959.122 244.966 1011 375.667 1011 518.498C1011 708.554 919.176 877.168 777.477 982.396V827.121V322.023L597.853 483.185V827.121V1072.23C545.757 1087.66 490.604 1096 433.504 1096C376.396 1096 321.243 1087.68 269.143 1072.24V827.117V686.145L873.209 144.161H873.213ZM747.306 1003.35C710.251 1027.38 670.285 1047.27 628.036 1062.38V713.227L747.306 820.234V1003.35ZM238.976 1062.39C196.723 1047.27 156.753 1027.38 119.702 1003.35V820.234L238.976 713.215V1062.39ZM89.5268 982.396C62.3718 962.23 37.0477 939.725 13.8446 915.203L89.5268 847.308V982.396ZM-6.21312 892.839C-92.1298 792.042 -144 661.341 -144 518.502C-144 474.157 -138.984 430.981 -129.519 389.502H89.5268V436.396V806.943L-6.21312 892.839ZM-121.777 359.331C-109.788 317.426 -93.1662 277.48 -72.5237 240.05H89.5308V359.331H-121.773H-121.777ZM-54.6718 209.891C-16.5202 149.67 32.4546 97.0012 89.5268 54.6035V209.879V209.891H-54.6718ZM119.702 33.6466C156.745 9.62101 196.723 -10.2552 238.976 -25.377V209.879H119.702V33.6466ZM554.79 389.502H535.833H269.147V645.784L554.79 389.502Z" fill="#D6282A"/>
</svg>
