<svg width="960" height="1080" viewBox="0 0 960 1080" fill="none" xmlns="http://www.w3.org/2000/svg">
	<path d="M153.964 849.895L-420 1230C-239.73 1092 54.5045 840.211 153.964 724C253.423 607.789 291.411 517.404 296.937 481.895C225.658 621.347 113.904 617.474 66.9369 598.105C164.739 600.042 229.249 510.14 249.279 464.947C78.5405 602.463 -45.6457 533.544 -86.3964 481.895C54.5045 520.632 176.757 452.842 220.27 414.105C-38.3243 510.697 -176.186 396.247 -212.793 326.947C-53.6577 396.674 118.739 383.439 185.045 368.105C-169.694 362.295 -302.583 210.737 -324.685 135.684C-293.189 156.989 -232.823 180.07 -206.577 188.947C-354.108 94.0421 -410.33 -76.5614 -420 -150C-192.072 135.684 240.991 307.579 379.82 326.947C518.649 346.316 543.513 346.316 616.036 392.316C688.558 438.316 750.721 382.632 769.369 368.105C788.018 353.579 826.026 307.579 779.73 268.842C733.433 230.105 634.685 261.579 576.667 283.368C530.252 300.8 464.775 306.772 437.838 307.579C524.865 193.789 607.748 87.2632 717.568 87.2632C805.423 87.2632 853.634 155.053 866.757 188.947L960 242.211L862.613 261.579C808.739 305.158 792.162 397.158 761.081 535.158C736.216 645.558 642.973 747.404 599.459 784.526C718.811 674.126 714.114 525.474 696.847 464.947C640.486 730.295 311.441 832.14 153.964 849.895Z" fill="#0181C8" />
	<path d="M409.86 952.246C325.365 1008.03 447.614 1100.52 401.672 1073.99C355.73 1047.47 244.909 937.525 355.226 916.253C465.543 894.982 591.989 789.753 591.989 789.753C591.989 789.753 494.354 896.459 409.86 952.246Z" fill="#0181C8" />
</svg>