<svg width="40" height="40" viewBox="0 0 40 40" fill="none" xmlns="http://www.w3.org/2000/svg">
	<path d="M16.6366 28.9825L0 40C5.22522 36 13.7538 28.7018 16.6366 25.3333C19.5195 21.9649 20.6206 19.345 20.7808 18.3158C18.7147 22.3579 15.4755 22.2456 14.1141 21.6842C16.9489 21.7404 18.8188 19.1345 19.3994 17.8246C14.4505 21.8105 10.8509 19.8129 9.66967 18.3158C13.7538 19.4386 17.2973 17.4737 18.5586 16.3509C11.0631 19.1506 7.06707 15.8332 6.00601 13.8246C10.6186 15.8456 15.6156 15.462 17.5375 15.0175C7.25525 14.8491 3.4034 10.4561 2.76276 8.2807C3.67568 8.89825 5.42543 9.56725 6.18619 9.82456C1.90991 7.07368 0.28028 2.12865 0 0C6.60661 8.2807 19.1592 13.2632 23.1832 13.8246C27.2072 14.386 27.9279 14.386 30.03 15.7193C32.1321 17.0526 33.9339 15.4386 34.4745 15.0175C35.015 14.5965 36.1167 13.2632 34.7748 12.1404C33.4328 11.0175 30.5706 11.9298 28.8889 12.5614C27.5435 13.0667 25.6456 13.2398 24.8649 13.2632C27.3874 9.96491 29.7898 6.87719 32.973 6.87719C35.5195 6.87719 36.9169 8.8421 37.2973 9.82456L40 11.3684L37.1772 11.9298C35.6156 13.193 35.1351 15.8596 34.2342 19.8596C33.5135 23.0597 30.8108 26.0117 29.5495 27.0877C33.009 23.8877 32.8729 19.5789 32.3724 17.8246C30.7387 25.5158 21.2012 28.4678 16.6366 28.9825Z" fill="#0181C8" />
	<path d="M24.054 31.9491C21.6048 33.5661 25.1483 36.2468 23.8166 35.4779C22.485 34.7091 19.2728 31.5224 22.4704 30.9058C25.668 30.2893 29.3331 27.2392 29.3331 27.2392C29.3331 27.2392 26.5031 30.3321 24.054 31.9491Z" fill="#0181C8" />
</svg>