<svg width="420" height="461" viewBox="0 0 420 461" fill="none" xmlns="http://www.w3.org/2000/svg">
<path d="M260.387 110.477C260.895 108.95 262.164 108.441 263.687 109.459C269.526 113.277 269.018 124.732 266.733 131.605C264.195 138.988 257.849 151.461 248.711 155.788C248.203 156.043 247.188 156.297 246.426 156.043C245.229 155.442 245.757 154.055 246.161 152.994C246.271 152.706 246.372 152.442 246.426 152.224C252.264 133.642 260.134 110.986 260.387 110.477Z" fill="#0181C8"/>
<path d="M240.064 170.731C240.506 169.586 241.015 168.266 241.603 166.734C242.365 164.698 243.38 164.443 245.157 164.952C247.441 165.97 249.218 167.752 248.965 171.316C248.457 178.189 243.38 182.007 239.065 182.007C237.795 182.262 236.78 181.244 237.034 179.971C237.249 178.034 237.645 177.006 240.064 170.731Z" fill="#0181C8"/>
<path d="M130.167 147.388C133.721 136.187 143.367 111.75 152.251 111.75C156.82 111.75 157.074 115.568 157.074 121.169C157.074 149.17 136.259 179.971 129.152 179.971C123.821 179.971 124.328 165.207 130.167 147.388Z" fill="#0181C8"/>
<path fill-rule="evenodd" clip-rule="evenodd" d="M331.477 128.296C332.375 126.594 340.3 114.309 351.392 114.055C362.484 113.8 384.417 117.869 389.459 127.025C389.459 127.025 385.425 127.279 381.139 128.805C379.122 129.568 375.593 130.076 371.812 130.331C373.829 129.059 375.341 126.77 375.341 124.227C375.341 120.413 372.064 117.106 368.283 117.106C364.501 117.106 361.224 120.413 361.224 124.227C361.224 127.025 362.736 129.313 365.005 130.585C362.232 130.585 359.459 130.331 357.19 129.822L356.856 129.755C349.533 128.274 337.488 126.422 333.743 137.252C333.079 139.174 331.463 143.315 331.463 143.315L317.248 181.244C316.486 183.28 314.963 186.335 312.679 186.335C308.871 186.335 305.571 184.553 306.586 179.971C307.602 175.134 314.456 156.043 318.517 145.606C318.119 142.814 317.756 139.987 317.391 137.147C316.537 130.496 315.674 123.778 314.337 117.286C312.781 119.23 311.514 121.013 310.553 122.447C307.882 126.611 306.673 129.123 305.94 128.991C305.151 128.848 304.913 125.639 303.998 118.124C303.737 115.939 303.735 112.961 303.923 109.474C302.529 109.648 301.479 109.819 301.256 109.968C300.578 110.422 300.1 111.481 299.108 113.685C298.986 113.956 298.856 114.244 298.717 114.55L298.141 115.837C294.766 123.37 289.267 135.641 283.995 152.224C282.725 155.788 283.741 156.806 287.295 156.806C288.818 156.552 289.579 156.552 291.356 156.552C293.64 156.552 294.656 157.57 294.656 158.588C294.656 159.606 293.64 160.625 291.356 160.879C291.253 160.879 290.972 160.89 290.582 160.904C289.048 160.962 285.819 161.082 285.01 160.879C282.472 160.879 281.202 162.152 280.441 164.443C279.172 168.261 278.918 169.28 278.664 173.352C278.664 173.954 278.753 174.645 278.825 175.267C278.875 175.698 278.918 176.095 278.918 176.407C279.425 178.698 279.933 180.48 282.218 180.989C282.474 181.075 282.767 181.161 283.076 181.251C284.602 181.699 286.533 182.265 286.533 183.535C286.466 183.602 286.381 183.74 286.279 183.907C285.994 184.372 285.57 185.062 285.01 185.062C280.695 185.062 277.141 184.808 273.841 182.771C268.256 179.207 268.764 166.989 270.541 161.134C276.379 140.006 280.187 128.805 290.341 108.95C291.356 106.914 293.133 105.641 295.417 105.386C298.299 105.111 301.255 104.985 304.245 104.926C306.01 84.3239 312.317 52.5114 312.317 52.5114C322.905 45.6449 334.754 16.1446 336.266 8.00664C337.09 3.71422 338.362 1.30654 337.966 0.989054C337.635 0.723378 336.137 1.92033 332.233 4.70061C323.662 10.8043 312.822 31.1491 308.284 41.5758C303.746 52.0028 295.175 74.6364 290.133 97.0158C285.091 119.395 286.604 69.5502 290.133 64.2096C293.299 59.7383 295.581 44.5705 296.98 35.2741C297.252 33.4672 297.491 31.882 297.696 30.6404C298.313 26.7829 302.068 22.6816 304 20.5715C306.017 18.3693 306.048 18.3359 298.452 23.0111C285.023 31.6531 280.738 63.8918 278.371 81.703C278.16 83.2848 277.965 84.7528 277.78 86.0804C276.024 98.8747 275.023 90.0353 274.31 83.7355C274.102 81.8961 273.918 80.2731 273.747 79.4684C272.99 75.6537 272.739 72.8562 275.511 63.4467C278.285 54.0371 279.293 47.425 278.032 37.5069C277.486 33.2079 277.319 31.2501 276.812 31.1572C276.149 31.0358 274.906 34.1001 271.478 39.287C265.68 48.4423 265.176 72.3475 267.444 92.9468C269.713 113.546 263.915 99.559 260.89 92.184C257.865 85.0631 258.369 74.1278 260.89 66.2441C263.411 58.3604 260.89 43.6103 260.89 43.6103C253.831 47.425 251.814 68.0242 251.814 68.0242C246.839 71.5375 239.655 89.6604 237.044 96.2483L236.941 96.5073C235.975 98.9439 234.972 100.746 233.931 102.614C233.422 103.529 232.903 104.461 232.375 105.49C236.889 107.793 238.049 113.59 238.049 122.441C238.049 146.37 219.519 185.571 203.781 185.571C195.404 185.571 190.073 171.571 193.627 157.061C194.327 153.991 196.171 146.783 199.088 138.651C194.651 147.281 186.932 154.756 178.397 157.825C177.889 158.334 176.874 158.334 176.366 158.843C175.351 159.352 174.589 160.625 175.858 161.643C177.889 163.17 180.174 165.97 181.697 175.643C181.951 177.425 183.22 178.953 184.743 179.971C186.266 180.735 188.297 181.753 187.789 183.28C187.027 185.571 184.489 185.826 182.458 185.062C175.855 182.335 174.601 178.268 172.898 172.745C172.376 171.049 171.811 169.216 171.035 167.243C169.512 163.934 167.735 161.388 163.42 161.388C162.405 161.388 161.643 163.17 161.389 164.443C159.612 170.043 158.851 172.334 157.074 177.68C156.987 177.942 156.902 178.202 156.819 178.458C155.684 181.937 154.747 184.808 150.728 184.808C146.159 184.808 146.159 177.68 147.682 173.352C152.251 160.37 168.497 108.695 168.497 108.695C170.02 105.132 172.304 104.113 175.858 104.368C190.581 104.368 203.019 105.641 203.019 123.205C203.067 125.831 202.704 128.521 201.993 131.188C204.835 124.471 208.349 117.779 212.499 112.76C208.379 110.37 203.777 107.353 199.051 104.255C193.067 100.332 186.884 96.2791 181.228 93.2011C162.069 82.7744 164.59 88.115 164.59 88.115C163.021 87.2518 160.306 85.548 156.766 83.1262C127.587 107.892 94.8829 151.707 94.8829 155.534C94.8829 155.534 95.1368 158.079 95.1368 161.134C95.1368 176.407 93.6138 197.281 80.414 197.281C78.2818 197.281 76.9434 196.385 76.1137 195.012C71.0949 201.961 96.524 201.792 96.524 201.792C87.4484 212.982 104.087 211.965 104.087 211.965C104.843 218.322 119.969 218.577 119.969 218.577C114.675 225.697 131.565 229.512 131.565 229.512C122.49 238.922 146.439 238.667 146.439 238.667C142.405 251.129 158.791 253.672 158.791 253.672C159.296 261.301 172.153 261.301 172.153 261.301C175.178 272.237 188.791 271.474 188.791 271.474C189.774 273.566 192.222 274.801 194.683 275.527C194.951 274.587 194.499 273.894 192.866 273.138C187.535 270.847 181.697 262.701 185.758 256.338C186.519 255.065 188.043 255.065 188.804 255.829C191.596 258.501 191.596 261.047 191.596 263.37C191.596 265.692 191.596 267.792 194.389 269.574C197.181 271.356 197.689 271.102 199.719 268.811C204.289 263.465 250.995 205.936 254.041 201.863C245.467 202.883 237.558 201.65 229.6 200.41C223.659 199.484 217.69 198.553 211.396 198.553C192.358 198.553 183.22 206.19 183.22 215.863C183.22 223.5 187.789 226.045 192.866 226.045C197.181 226.045 200.227 222.227 201.75 217.136C202.258 215.354 203.781 215.354 205.304 216.118C209.873 218.409 210.888 219.682 208.604 224.773C206.573 229.1 199.719 233.682 195.15 233.682C185.758 233.682 179.158 228.082 179.158 217.391C179.158 204.917 190.073 193.971 211.142 193.971C218.972 193.971 225.725 194.744 232.162 195.48C237.411 196.081 242.451 196.657 247.695 196.772C253.579 196.931 258.366 194.893 261.996 193.348C264.161 192.427 265.913 191.681 267.241 191.681C271.302 191.681 277.141 196.008 278.156 199.317C279.172 203.899 278.41 207.717 276.887 211.79C276.887 211.79 273.254 219.663 268.523 230.385C269.989 227.874 271.946 227.092 275.11 227.318C289.325 227.318 301.256 228.591 301.256 245.646C301.763 258.374 290.848 273.647 277.648 278.484C277.374 278.759 277.025 278.886 276.641 279.025C276.316 279.142 275.967 279.269 275.618 279.502C274.603 280.011 273.841 281.284 275.11 282.302C277.141 283.83 279.425 286.63 280.695 295.794C280.757 296.232 280.866 296.639 281.016 297.02C282.964 296.332 284.856 295.582 286.856 293.853C289.395 291.535 292.283 289.685 295.185 287.827C296.28 287.125 297.378 286.421 298.46 285.691C305.109 267.03 314.202 241.319 314.202 241.319C317.915 232.476 315.9 232.355 313.393 232.205C313.158 232.191 312.918 232.177 312.679 232.155C311.536 232.028 310.394 231.964 309.252 231.9C308.109 231.837 306.967 231.773 305.825 231.646C305.317 231.646 304.556 231.391 304.556 230.882C304.302 230.373 304.302 229.864 304.81 229.355C305.063 229.1 305.571 228.846 306.079 228.846L330.447 227.827C332.224 227.573 334.001 227.573 335.778 227.573C336.381 227.573 336.824 227.732 337.361 227.925C337.502 227.976 337.65 228.029 337.809 228.082C337.809 228.591 338.063 229.1 338.063 229.864C338.063 230.373 337.555 230.882 337.047 231.137C336.286 231.391 335.524 231.391 334.763 231.391C332.986 231.391 331.717 231.391 329.94 231.646C328.163 231.9 326.894 232.664 326.132 234.446L326.129 234.453C325.115 236.741 324.101 239.03 323.34 241.319C322.968 242.384 322.452 243.739 321.758 245.56C319.762 250.799 316.298 259.891 310.59 277.008C314.038 275.35 317.543 274.319 319.856 273.638C320.34 273.495 320.772 273.368 321.141 273.254C322.524 272.492 324.159 270.908 325.762 269.354C327.373 267.793 328.953 266.262 330.216 265.624C331.457 264.999 333.308 265.112 335.349 265.237C337.455 265.366 339.764 265.507 341.812 264.862C345.594 263.59 342.821 267.913 340.048 271.474C337.275 275.034 329.712 283.681 325.174 288.258C322.132 291.327 317.729 296.569 313.562 301.53C311.515 303.968 309.524 306.338 307.78 308.349C302.486 314.452 290.385 336.832 290.385 336.832C288.873 343.698 285.847 345.987 285.343 342.681C284.98 340.298 283.961 340.293 282.383 340.286C281.771 340.283 281.076 340.28 280.301 340.138C277.528 339.629 277.024 335.814 277.78 329.202C278.537 322.59 283.578 315.724 283.578 315.724C282.041 316.758 281.313 317.909 280.062 319.89C279.468 320.832 278.755 321.96 277.78 323.353C275.007 327.677 274.251 328.439 274.503 325.133C274.755 321.827 282.066 310.892 282.066 310.892C279.293 312.418 276.52 314.961 272.99 321.827C269.209 328.948 273.747 312.672 273.747 312.672C270.218 316.741 267.949 321.827 267.949 321.827H266.184C259.881 322.082 240.722 333.526 233.916 337.849C226.857 342.172 228.118 339.883 232.151 332.763C234.401 328.526 239.417 324.2 244.067 321.069C244 321.045 243.94 321.021 243.888 320.995C243.695 320.917 243.495 320.84 243.294 320.761C242.173 320.325 240.979 319.86 240.334 319.213C229.926 311.322 231.703 291.721 236.019 278.484C238.627 270.636 234.186 271.625 225.667 273.523C220.093 274.764 212.774 276.394 204.542 276.193C203.284 276.193 202.372 276.541 201.52 277.379C207.013 288.101 228.622 284.952 228.622 284.952C221.311 291.564 219.546 309.366 219.546 309.366C212.488 310.129 205.429 321.064 205.429 321.064C186.27 339.883 133.078 393.035 129.044 401.681C125.011 410.582 123.75 421.009 126.523 422.789C128.228 423.883 129.17 427.187 130.17 430.693C130.798 432.891 131.447 435.169 132.321 437.031C133.128 438.839 133.17 440.197 133.218 441.733C133.304 444.519 133.408 447.892 138.12 455.595C145.43 467.294 151.481 456.358 151.481 456.358L223.58 346.241C260.638 321.827 267.697 324.37 267.697 324.37C267.949 325.896 270.974 326.151 270.974 326.151C270.218 331.745 273.495 331.237 273.495 331.237C273.495 334.543 275.764 342.681 278.537 342.935C281.562 343.444 282.066 345.478 280.301 350.565C278.843 355.712 283.006 356.607 289.629 358.031L290.385 358.194C291.466 358.428 292.346 358.608 293.106 358.763C297.312 359.623 297.861 359.736 308.536 364.043C321.141 369.129 331.477 381.845 331.729 386.677C331.945 390.816 331.235 390.85 329.443 390.934C329.143 390.948 328.813 390.964 328.451 391C325.93 391.254 323.41 392.272 320.132 394.306C316.855 396.086 320.889 400.155 320.889 400.155C305.007 412.871 324.166 417.703 324.166 417.703C316.855 410.836 323.41 403.461 323.41 403.461C324.67 403.207 328.451 401.173 329.208 398.375C329.857 395.974 331.435 395.259 334.26 393.979C334.726 393.768 335.227 393.541 335.762 393.289C338.175 392.315 338.74 395.897 339.357 399.807C339.707 402.024 340.074 404.348 340.804 406.004C342.569 410.328 340.804 413.125 339.039 415.16C338.216 416.267 338.289 417.149 338.405 418.542C338.501 419.709 338.628 421.235 338.283 423.552C337.275 428.638 327.443 426.095 327.443 426.095C334.439 433.622 341.002 426.137 344.142 422.556C344.397 422.266 344.629 422.001 344.838 421.772C346.19 420.16 346.044 419.636 345.831 418.874C345.607 418.073 345.311 417.009 346.602 414.142C348.615 409.676 347.253 407.802 346.366 406.582C346.142 406.273 345.948 406.007 345.846 405.75C345.342 404.479 345.09 403.716 344.081 398.121C343.073 392.526 348.115 399.392 348.115 401.427C348.115 403.461 351.14 406.767 353.913 409.056C356.468 411.165 356.455 412.842 356.437 415.082C356.435 415.273 356.434 415.469 356.434 415.668C356.434 415.943 356.426 416.198 356.42 416.441C356.356 418.672 356.321 419.878 362.232 425.841C368.787 432.453 357.19 437.539 357.19 437.539C363.493 438.811 366.013 435.759 368.03 429.147C370.047 422.789 364.249 415.414 362.232 414.142C361.006 413.259 360.388 410.901 359.787 408.606C359.523 407.599 359.262 406.603 358.955 405.75C358.434 404.305 357.442 402.725 356.432 401.113C355.486 399.605 354.522 398.07 353.913 396.595C352.653 393.543 359.459 398.629 360.467 402.444C361.476 406.259 366.014 410.328 369.543 413.379C373.324 416.431 372.064 426.095 372.064 426.095C379.725 418.178 374.921 411.937 370.689 406.441C369.212 404.523 367.805 402.695 367.022 400.918C364.005 394.072 362.994 393.546 354.741 389.257L354.669 389.22C348.949 386.072 344.779 381.362 341.42 377.569C339.894 375.845 338.535 374.311 337.275 373.198C333.493 369.638 319.124 360.991 310.805 357.177C302.738 353.362 295.679 349.547 292.654 343.698C289.629 337.849 310.049 308.349 310.049 308.349C310.899 308.134 314.262 307.095 318.846 305.679C330.566 302.057 350.273 295.967 356.434 294.87C365.005 293.344 363.241 298.431 360.467 302.5C357.442 306.823 364.501 318.521 364.501 318.521C364.501 338.358 379.375 326.914 379.375 326.914C366.013 331.491 369.291 316.741 369.291 316.741C371.055 315.47 370.299 310.383 368.534 307.586C366.978 305.623 367.824 303.053 368.64 300.58C368.88 299.849 369.118 299.127 369.291 298.431C370.047 295.379 371.56 295.379 372.568 298.431C373.008 299.762 374.12 301.433 375.401 303.358C377.056 305.844 378.994 308.756 380.131 311.909C382.148 317.25 385.173 320.301 385.173 320.301C386.685 324.879 378.618 335.306 378.618 335.306C386.433 331.745 388.198 323.099 388.702 319.284C389.459 315.47 388.45 311.655 385.425 305.806C382.4 299.957 389.71 306.823 391.223 310.892C392.736 314.961 395.257 319.284 395.257 319.284C395.005 322.845 390.215 330.22 390.215 330.22C396.517 327.931 398.534 320.047 398.534 320.047C403.324 326.405 393.492 335.052 393.492 335.052C408.618 335.052 401.811 320.047 401.811 320.047C406.094 317.167 400.496 309.756 395.191 302.732C394.875 302.314 394.56 301.897 394.248 301.482C388.45 294.107 380.131 289.275 371.812 286.478C363.879 283.81 342.651 290.161 331.079 293.623C330.516 293.792 329.975 293.954 329.46 294.107C318.368 297.413 323.662 292.327 323.662 292.327C364.753 257.486 371.56 234.344 373.576 218.322C374.794 208.907 373.035 199.93 371.417 191.668C370.019 184.533 368.725 177.93 369.543 172.038C371.459 158.94 374.093 156.175 379.571 150.428C380.581 149.368 381.687 148.207 382.904 146.861C390.121 138.875 416.692 142.82 419.719 143.27C419.969 143.307 420.058 143.32 419.962 143.301L396.013 128.296C393.24 119.904 382.652 107.188 357.946 99.8133C343.042 95.3642 330.983 101.374 322.486 108.74C325.058 112.379 326.564 117.403 327.148 120.914C327.731 126.534 328.959 130.7 330.239 133.362C330.833 131.842 330.578 129.998 331.477 128.296ZM293.41 47.6795C292.906 53.7829 288.368 61.158 288.368 61.158C285.595 65.9897 290.385 42.5931 292.654 38.5242C294.503 34.7938 294.021 40.4677 293.54 46.1408C293.496 46.656 293.452 47.1713 293.41 47.6795ZM276.772 43.6103C277.024 48.4423 277.276 53.2742 276.016 57.0889C275.877 57.5077 275.699 58.0766 275.492 58.7399C273.811 64.1185 270.19 75.6999 269.965 63.7009C269.965 63.7009 269.713 52.5114 271.73 46.9164C273.999 41.5758 276.52 38.7784 276.772 43.6103ZM258.638 51.2703C258.855 49.6321 258.969 48.7687 259.377 51.2397C260.029 54.9658 258.809 63.9817 258.459 66.5639C258.403 66.9776 258.369 67.2262 258.369 67.2614C254.588 70.8216 256.352 57.5975 257.613 55.563C258.193 54.6266 258.453 52.6668 258.638 51.2703ZM247.781 82.2658C250.05 74.8907 251.562 78.7054 251.058 82.2658C250.861 83.5598 251.088 88.1656 251.333 93.1095C251.553 97.5818 251.788 102.331 251.734 105.155C252.582 104.292 253.774 103.776 255.31 103.604C268.764 102.077 280.441 110.986 278.156 126.26C275.398 142.64 263.423 152.264 256.895 157.511C255.611 158.542 254.538 159.405 253.787 160.116C256.58 161.897 258.611 166.48 257.849 171.316C255.564 184.808 245.157 187.353 231.449 186.844L231.224 186.828C227.685 186.577 222.846 186.233 224.088 181.498L250.742 106.659C250.758 106.621 250.774 106.584 250.791 106.548C249.71 102.849 245.817 88.6503 247.781 82.2658ZM372.064 123.973C372.064 124.99 371.055 126.007 370.047 126.007C369.039 126.007 368.03 124.99 368.03 123.973C368.03 122.956 369.039 121.938 370.047 121.938C371.055 121.938 372.064 122.701 372.064 123.973ZM333.998 13.093C331.477 20.2137 321.897 38.7784 319.124 42.5931C318.895 42.9016 318.643 43.2439 318.376 43.608C315.119 48.0464 309.464 55.7511 311.561 45.6449C311.561 45.6449 313.578 37.2525 316.603 31.4035C319.628 25.5543 324.922 17.4163 328.199 13.8559C331.477 10.2956 336.518 5.97234 333.998 13.093ZM116.205 157.061C112.652 171.571 117.982 185.571 126.359 185.571C142.351 185.571 160.628 146.37 160.882 122.441C160.882 110.732 158.851 104.368 149.713 104.368C130.167 104.368 118.236 148.151 116.205 157.061Z" fill="#0181C8"/>
<path d="M247.823 318.745C249.504 317.8 250.986 317.105 252.067 316.741C256.604 315.215 263.411 311.909 270.218 304.026C271.92 302.054 273.479 300.719 274.945 299.753C273.695 297.846 272.985 295.61 272.166 293.031C271.641 291.378 271.072 289.585 270.287 287.648C269.018 284.593 266.987 282.048 262.926 282.048C261.91 282.048 261.149 283.83 260.895 284.848C260.097 287.249 259.555 289.034 259.039 290.733C258.406 292.817 257.812 294.771 256.834 297.576C256.724 297.883 256.619 298.188 256.514 298.49C255.408 301.686 254.453 304.449 250.742 304.449C246.172 304.449 246.426 297.576 247.949 293.503C252.223 281.835 266.048 237.65 267.816 231.989C262.826 243.334 256.798 257.449 252.518 268.811C252.011 270.084 252.264 271.102 252.772 272.375C253.35 273.388 253.599 273.825 253.706 274.295C253.787 274.651 253.787 275.025 253.787 275.684L253.28 276.193C250.742 275.938 249.472 277.211 248.965 279.502C248.509 281.328 247.966 283.228 247.407 285.185C244.537 295.233 241.239 306.778 247.188 317.431C247.406 317.869 247.624 318.307 247.823 318.745Z" fill="#0181C8"/>
<path d="M78.3726 192.865C78.7222 193.113 79.1873 193.208 79.6524 193.208C79.9063 193.208 80.414 193.208 80.6679 192.699C81.1859 192.139 81.6602 191.398 82.0917 190.535C80.5646 191.372 79.3367 192.147 78.3726 192.865Z" fill="#0181C8"/>
<path d="M82.8133 188.885C81.548 188.764 79.7837 188.586 77.7121 188.352C78.3431 180.895 82.1319 172.589 84.2216 172.589C85.4908 172.589 85.4908 174.625 85.4908 175.389C85.4908 177.489 84.6341 184.172 82.8133 188.885Z" fill="#0181C8"/>
<path d="M74.8354 188.011C60.5995 186.256 37.818 182.342 51.6511 176.361L65.7684 172.038C65.7684 172.038 -13.3894 148.641 63.2474 154.49C63.2474 154.49 -2.54957 125.244 18.3745 128.55C39.2983 131.857 54.1718 134.4 54.1718 134.4C54.1718 134.4 20.6433 114.563 10.3075 99.0503C6.46446 93.2825 4.78211 90.9952 5.07904 90.6981C5.47927 90.2976 9.476 93.5135 16.6245 96.6962C21.8288 104.933 30.7291 110.986 41.5763 110.986C53.7607 110.986 73.0525 105.132 83.7138 96.2222C84.7292 96.2222 85.2369 96.7313 85.2369 98.5132C85.2369 98.9439 85.1157 99.7388 84.9305 100.955C84.4585 104.052 83.5705 109.882 83.2062 119.387C82.8851 128.408 83.682 139.263 84.3104 147.825C84.6751 152.794 84.9832 156.989 84.9832 159.606C84.9832 161.643 84.4753 163.679 83.2062 165.461C81.9581 167.464 75.0636 180.791 74.8354 188.011Z" fill="#0181C8"/>
<path d="M27.5588 100.686C31.2891 103.938 36.0122 105.895 41.0685 105.895C41.9623 105.895 42.8455 105.876 43.7179 105.838C40.84 104.975 35.6675 103.372 27.5588 100.686Z" fill="#0181C8"/>
<path d="M45.7242 105.717C42.4078 102.103 30.3782 88.9394 20.0734 76.9472C20.8993 72.946 22.5697 69.3792 24.8533 66.4289C38.4149 76.0266 56.342 87.951 73.1657 96.4991C65.6326 101.221 56.516 104.885 45.7242 105.717Z" fill="#0181C8"/>
<path d="M74.3283 95.754C86.1999 87.9765 93.9753 77.6908 98.0423 72.3108C99.2692 70.6879 100.159 69.5114 100.721 68.9849C101.483 68.221 102.498 67.9666 103.26 67.9666C105.037 67.9666 107.829 69.7485 107.829 72.294C107.829 73.5667 107.321 75.8577 106.306 77.3851C92.8522 100.041 92.8522 117.096 93.6138 139.497C93.6356 139.65 93.6575 139.809 93.6799 139.972C93.9168 141.698 94.2086 143.824 95.1368 143.824C95.3905 143.824 95.8984 143.57 96.406 143.06C98.7033 140.657 100.45 138.095 102.59 134.957C105.889 130.12 110.122 123.914 118.744 114.805C120.516 112.963 122.644 110.646 125.07 108.003C132.17 100.271 141.827 89.7533 152.612 80.2193C136.472 68.6868 109.339 46.6882 90.9778 21.7396C70.0486 -6.19799 77.1304 12.542 81.4485 23.9687C82.2795 26.1681 83.0082 28.0965 83.4151 29.369C84.1043 31.5242 85.4905 34.3066 86.8632 37.0616C90.5114 44.3839 94.0631 51.5122 84.1713 46.1535C70.5582 38.7784 49.1301 10.2956 46.8613 5.71789C46.2489 4.48215 45.7283 3.1724 45.3095 2.11863C44.1767 -0.731334 43.7882 -1.7088 44.3403 5.71789C45.0965 15.6362 52.6595 32.675 55.9366 39.287C57.1628 41.584 60.7008 45.8759 64.152 50.0621C70.6356 57.9268 76.8126 65.4195 66.7768 58.6148C51.399 48.1881 18.8786 20.2137 16.1057 16.6532C13.3325 13.093 15.3492 20.9765 15.3492 20.9765C17.6773 31.3553 24.2111 42.4787 32.2381 52.9823C33.8302 52.6288 35.5057 52.4387 37.261 52.4387C42.5206 52.4387 43.5793 53.1821 46.0445 54.9137L46.1453 54.9842C46.6532 55.2389 46.9068 55.748 46.9068 56.2569C46.9068 56.766 46.6532 57.5296 45.8916 57.7843C42.6493 57.3114 39.4889 57.5524 36.5476 58.3989C50.3395 75.0944 66.8439 89.5139 74.3283 95.754Z" fill="#0181C8"/>
<path d="M18.459 61.8486C14.5129 58.9887 11.1418 56.4861 8.54272 54.5457C-1.25091 47.0856 -1.21961 47.1389 1.72629 52.1704C2.49597 53.485 3.46462 55.1396 4.50909 57.0889C5.8337 59.5611 9.36837 64.1573 13.8602 69.5907C14.9877 66.887 16.5293 64.2318 18.459 61.8486Z" fill="#0181C8"/>
<path d="M221.777 117.176C215.621 125.032 210.092 139.496 207.588 147.388C201.75 165.207 201.242 179.971 206.573 179.971C213.681 179.971 234.496 149.17 234.496 121.169C234.496 115.578 234.243 111.763 229.696 111.75C229.342 112.755 228.984 113.855 228.622 115.072C227.797 117.844 225.325 118.255 221.777 117.176Z" fill="#0181C8"/>
<path d="M277.141 236.991C278.41 231.9 279.425 231.391 282.725 231.391C290.087 231.391 293.387 235.719 293.133 240.81C293.133 254.301 283.995 275.175 266.48 275.175C265.464 275.175 265.21 274.666 265.21 273.902C265.21 272.488 267.717 265.183 270.598 256.786C272.903 250.067 275.448 242.649 277.141 236.991Z" fill="#0181C8"/>
<path d="M261.403 201.354C262.926 199.572 264.703 198.044 267.495 197.79C267.749 198.553 268.003 199.317 267.241 199.572C266.987 201.099 266.48 202.626 265.972 203.899C253.534 231.9 247.695 245.646 239.826 264.229C239.065 265.756 238.049 267.029 236.019 266.774C231.442 266.496 228.381 267.206 224.103 268.198C220.551 269.021 216.16 270.039 209.365 270.847C208.604 271.102 207.588 271.102 206.319 271.102C205.638 271.102 206.378 269.677 206.724 269.012C206.764 268.933 206.8 268.865 206.827 268.811L261.403 201.354Z" fill="#0181C8"/>
<path d="M177.635 114.805C179.158 109.459 180.174 108.95 183.473 108.95C191.089 108.95 194.389 113.532 194.389 119.132C194.389 133.133 184.996 154.77 166.72 154.77C165.451 154.77 165.197 154.006 165.197 153.243C165.197 151.77 168 143.57 171.149 134.355C173.444 127.64 175.923 120.385 177.635 114.805Z" fill="#0181C8"/>
</svg>
