<svg width="791" height="791" viewBox="0 0 791 791" fill="none" xmlns="http://www.w3.org/2000/svg">
	<path d="M328.99 573.128L0 791C103.329 711.9 271.98 567.577 328.99 500.967C385.999 434.356 407.773 382.548 410.94 362.195C370.083 442.127 306.028 439.907 279.107 428.805C335.165 429.915 372.142 378.385 383.623 352.481C285.758 431.303 214.576 391.799 191.218 362.195C271.98 384.398 342.054 345.542 366.996 323.339C218.772 378.704 139.751 313.102 118.769 273.381C209.983 313.347 308.799 305.761 346.805 296.972C143.473 293.641 67.3023 206.77 54.6336 163.751C72.6865 175.963 107.288 189.192 122.332 194.281C37.7685 139.882 5.54254 42.0942 0 0C130.646 163.751 378.872 262.279 458.447 273.381C538.023 284.482 552.275 284.482 593.844 310.849C635.413 337.216 671.044 305.298 681.733 296.972C692.422 288.646 714.208 262.279 687.671 240.075C661.134 217.872 604.533 235.912 571.278 248.402C544.674 258.393 507.143 261.816 491.703 262.279C541.586 197.056 589.093 135.996 652.041 135.996C702.398 135.996 730.032 174.853 737.554 194.281L791 224.811L735.179 235.912C704.299 260.891 694.797 313.625 676.982 392.725C662.73 456.005 609.284 514.381 584.342 535.66C652.753 472.38 650.061 387.174 640.164 352.481C607.859 504.575 419.254 562.951 328.99 573.128Z" fill="#ECECEC" />
	<path d="M475.665 631.795C427.233 663.772 497.305 716.781 470.972 701.578C444.638 686.374 381.117 623.357 444.349 611.165C507.582 598.972 580.059 538.656 580.059 538.656C580.059 538.656 524.096 599.819 475.665 631.795Z" fill="#ECECEC" />
</svg>