<svg width="1214" height="1329" viewBox="0 0 1214 1329" fill="none" xmlns="http://www.w3.org/2000/svg">
<path d="M752.643 318.364C754.111 313.963 757.78 312.496 762.182 315.43C779.058 326.433 777.59 359.443 770.986 379.25C763.649 400.523 745.306 436.467 718.892 448.938C717.425 449.671 714.49 450.404 712.289 449.671C708.827 447.941 710.356 443.943 711.524 440.887C711.841 440.056 712.133 439.295 712.289 438.668C729.164 385.118 751.91 319.831 752.643 318.364Z" fill="#7ABADD"/>
<path d="M693.901 491.999C695.177 488.699 696.649 484.896 698.348 480.48C700.549 474.612 703.484 473.879 708.62 475.345C715.224 478.28 720.36 483.415 719.626 493.685C718.159 513.491 703.484 524.494 691.011 524.494C687.342 525.227 684.407 522.293 685.141 518.625C685.761 513.042 686.907 510.082 693.901 491.999Z" fill="#7ABADD"/>
<path d="M376.244 424.73C386.516 392.453 414.398 322.032 440.078 322.032C453.285 322.032 454.019 333.036 454.019 349.174C454.019 429.865 393.854 518.625 373.31 518.625C357.901 518.625 359.368 476.079 376.244 424.73Z" fill="#7ABADD"/>
<path fill-rule="evenodd" clip-rule="evenodd" d="M958.125 369.713C960.723 364.808 983.629 329.406 1015.69 328.673C1047.75 327.94 1111.15 339.666 1125.72 366.049C1125.72 366.049 1114.06 366.782 1101.67 371.179C1095.84 373.378 1085.64 374.843 1074.71 375.576C1080.54 371.912 1084.91 365.316 1084.91 357.988C1084.91 346.995 1075.44 337.468 1064.51 337.468C1053.58 337.468 1044.11 346.995 1044.11 357.988C1044.11 366.049 1048.48 372.645 1055.04 376.309C1047.02 376.309 1039.01 375.576 1032.45 374.111L1031.49 373.916C1010.32 369.65 975.502 364.314 964.677 395.52C962.756 401.06 958.086 412.993 958.086 412.993L916.997 522.293C914.796 528.161 910.394 536.964 903.79 536.964C892.784 536.964 883.246 531.829 886.181 518.625C889.116 504.688 908.927 449.671 920.666 419.595C919.516 411.549 918.467 403.402 917.412 395.22C914.943 376.052 912.449 356.693 908.585 337.984C904.085 343.586 900.424 348.726 897.645 352.857C889.925 364.857 886.43 372.097 884.311 371.715C882.03 371.303 881.344 362.056 878.7 340.399C877.944 334.103 877.94 325.523 878.481 315.475C874.454 315.975 871.418 316.467 870.773 316.897C868.812 318.204 867.433 321.256 864.564 327.608C864.212 328.389 863.837 329.219 863.435 330.101L861.769 333.811C852.014 355.517 836.12 390.88 820.88 438.668C817.211 448.938 820.146 451.872 830.418 451.872C834.82 451.138 837.022 451.138 842.157 451.138C848.761 451.138 851.696 454.072 851.696 457.007C851.696 459.941 848.761 462.875 842.157 463.609C841.859 463.609 841.048 463.639 839.919 463.681C835.486 463.846 826.154 464.193 823.814 463.609C816.478 463.609 812.808 467.276 810.608 473.879C806.939 484.882 806.205 487.816 805.471 499.553C805.471 501.287 805.728 503.278 805.938 505.071C806.083 506.311 806.205 507.456 806.205 508.356C807.673 514.958 809.14 520.092 815.744 521.56C816.485 521.807 817.331 522.054 818.224 522.315C822.636 523.604 828.217 525.235 828.217 528.895C828.023 529.088 827.778 529.486 827.483 529.967C826.658 531.308 825.435 533.296 823.814 533.296C811.341 533.296 801.069 532.563 791.531 526.695C775.389 516.425 776.857 481.214 781.992 464.342C798.868 403.457 809.874 371.181 839.223 313.963C842.157 308.095 847.294 304.427 853.897 303.693C862.226 302.9 870.771 302.536 879.413 302.368C884.515 242.998 902.746 151.323 902.746 151.323C933.35 131.536 967.598 46.5242 971.97 23.0729C974.35 10.7033 978.027 3.76508 976.883 2.85017C975.927 2.08457 971.597 5.53384 960.311 13.5458C935.536 31.1349 904.204 89.7628 891.087 119.81C877.971 149.857 853.196 215.081 838.623 279.572C824.049 344.063 828.421 200.424 838.623 185.034C847.774 172.149 854.371 128.439 858.414 101.65C859.201 96.4429 859.89 91.875 860.482 88.2971C862.265 77.1807 873.121 65.362 878.706 59.2813C884.535 52.9351 884.624 52.8388 862.669 66.3115C823.853 91.2153 811.467 184.118 804.624 235.445C804.016 240.003 803.452 244.234 802.917 248.059C797.841 284.929 794.949 259.456 792.886 241.302C792.284 236.001 791.753 231.324 791.259 229.005C789.072 218.013 788.344 209.951 796.359 182.836C804.375 155.72 807.29 136.665 803.646 108.084C802.067 95.6957 801.583 90.0541 800.117 89.7864C798.201 89.4363 794.608 98.2668 784.701 113.214C767.941 139.597 766.484 208.485 773.042 267.846C779.6 327.208 762.84 286.901 754.097 265.648C745.352 245.128 746.81 213.615 754.097 190.897C761.383 168.178 754.097 125.673 754.097 125.673C733.693 136.665 727.864 196.027 727.864 196.027C713.483 206.151 692.717 258.376 685.169 277.361L684.872 278.107C682.08 285.128 679.18 290.32 676.173 295.704C674.7 298.342 673.2 301.026 671.675 303.994C684.722 310.629 688.076 327.334 688.076 352.841C688.076 421.796 634.514 534.764 589.023 534.764C564.811 534.764 549.402 494.418 559.674 452.605C561.697 443.76 567.029 422.986 575.46 399.552C562.634 424.423 540.324 445.963 515.652 454.806C514.184 456.273 511.249 456.273 509.781 457.74C506.847 459.207 504.646 462.875 508.314 465.809C514.184 470.21 520.787 478.28 525.19 506.155C525.924 511.29 529.592 515.691 533.995 518.625C538.397 520.826 544.267 523.76 542.799 528.162C540.598 534.764 533.261 535.497 527.391 533.296C508.304 525.439 504.679 513.717 499.759 497.802C498.248 492.916 496.614 487.634 494.374 481.948C489.971 472.411 484.835 465.076 472.362 465.076C469.427 465.076 467.226 470.21 466.492 473.879C461.356 490.017 459.155 496.619 454.019 512.023C453.767 512.779 453.522 513.527 453.28 514.266C450 524.291 447.293 532.563 435.676 532.563C422.469 532.563 422.469 512.023 426.871 499.553C440.078 462.141 487.036 313.23 487.036 313.23C491.438 302.96 498.042 300.025 508.314 300.759C550.87 300.759 586.823 304.427 586.823 355.042C586.96 362.611 585.911 370.36 583.857 378.048C592.071 358.691 602.229 339.406 614.223 324.943C602.314 318.054 589.013 309.361 575.352 300.433C558.056 289.129 540.183 277.449 523.835 268.579C468.456 238.532 475.742 253.922 475.742 253.922C471.208 251.435 463.36 246.525 453.127 239.546C368.786 310.913 274.257 437.175 274.257 448.204C274.257 448.204 274.991 455.539 274.991 464.342C274.991 508.356 270.588 568.507 232.435 568.507C226.272 568.507 222.403 565.926 220.005 561.969C205.498 581.995 279 581.508 279 581.508C252.768 613.754 300.86 610.822 300.86 610.822C303.047 629.144 346.767 629.876 346.767 629.876C331.465 650.396 380.286 661.389 380.286 661.389C354.054 688.505 423.278 687.772 423.278 687.772C411.619 723.682 458.983 731.011 458.983 731.011C460.44 752.996 497.603 752.996 497.603 752.996C506.347 784.509 545.696 782.31 545.696 782.31C548.536 788.341 555.615 791.897 562.726 793.991C563.5 791.283 562.194 789.285 557.474 787.107C542.065 780.505 525.19 757.031 536.929 738.692C539.13 735.025 543.533 735.025 545.734 737.225C553.805 744.927 553.805 752.263 553.805 758.957C553.805 765.651 553.805 771.702 561.875 776.837C569.947 781.972 571.414 781.238 577.284 774.637C590.491 759.232 725.496 593.448 734.3 581.711C709.517 584.651 686.656 581.099 663.655 577.525C646.48 574.856 629.227 572.175 611.035 572.175C556.006 572.175 529.592 594.182 529.592 622.057C529.592 644.064 542.799 651.399 557.474 651.399C569.947 651.399 578.751 640.396 583.154 625.725C584.621 620.59 589.023 620.59 593.426 622.79C606.633 629.393 609.568 633.06 602.964 647.731C597.095 660.202 577.284 673.406 564.077 673.406C536.929 673.406 517.852 657.268 517.852 626.458C517.852 590.514 549.402 558.971 610.301 558.971C632.935 558.971 652.451 561.197 671.058 563.319C686.231 565.049 700.798 566.711 715.958 567.04C732.963 567.5 746.801 561.627 757.293 557.175C763.55 554.519 768.617 552.369 772.454 552.369C784.193 552.369 801.069 564.839 804.004 574.376C806.939 587.58 804.738 598.583 800.335 610.32C800.335 610.32 789.835 633.007 776.159 663.904C780.396 656.669 786.053 654.414 795.199 655.067C836.288 655.067 870.773 658.735 870.773 707.883C872.24 744.561 840.69 788.574 802.536 802.512C801.742 803.306 800.733 803.67 799.625 804.07C798.686 804.409 797.676 804.773 796.667 805.446C793.732 806.913 791.531 810.581 795.199 813.515C801.069 817.917 807.673 825.986 811.341 852.394C811.521 853.657 811.835 854.831 812.271 855.928C817.9 853.944 823.369 851.785 829.15 846.801C836.491 840.122 844.837 834.791 853.224 829.435C856.391 827.412 859.565 825.385 862.692 823.281C881.909 769.506 908.193 695.413 908.193 695.413C918.924 669.929 913.1 669.582 905.856 669.149C905.176 669.109 904.483 669.068 903.79 669.005C900.489 668.638 897.187 668.455 893.884 668.271C890.583 668.088 887.282 667.904 883.979 667.537C882.512 667.537 880.311 666.804 880.311 665.337C879.578 663.87 879.578 662.403 881.045 660.935C881.778 660.202 883.246 659.468 884.713 659.468L955.15 656.534C960.287 655.8 965.423 655.8 970.559 655.8C972.3 655.8 973.583 656.26 975.133 656.815C975.542 656.962 975.969 657.115 976.429 657.268C976.429 658.735 977.163 660.202 977.163 662.403C977.163 663.87 975.695 665.337 974.227 666.07C972.026 666.804 969.825 666.804 967.624 666.804C962.488 666.804 958.82 666.804 953.683 667.537C948.548 668.271 944.878 670.472 942.677 675.606L942.668 675.626C939.737 682.222 936.805 688.817 934.606 695.413C933.532 698.483 932.039 702.388 930.035 707.634C924.264 722.733 914.253 748.932 897.753 798.26C907.72 793.482 917.851 790.509 924.537 788.547C925.936 788.136 927.185 787.77 928.25 787.44C932.249 785.246 936.973 780.681 941.609 776.202C946.264 771.703 950.83 767.291 954.482 765.455C958.068 763.651 963.419 763.978 969.319 764.338C975.407 764.71 982.08 765.117 988.001 763.256C998.931 759.592 990.915 772.05 982.9 782.31C974.885 792.57 953.024 817.487 939.908 830.678C931.114 839.523 918.388 854.628 906.344 868.924C900.426 875.949 894.672 882.779 889.63 888.574C874.327 906.163 839.351 970.654 839.351 970.654C834.979 990.441 826.235 997.036 824.778 987.509C823.727 980.642 820.784 980.629 816.221 980.607C814.453 980.599 812.442 980.59 810.204 980.181C802.188 978.715 800.731 967.722 802.917 948.668C805.104 929.614 819.677 909.827 819.677 909.827C815.232 912.807 813.13 916.125 809.514 921.833C807.795 924.546 805.734 927.799 802.917 931.813C794.902 944.271 792.716 946.47 793.445 936.943C794.173 927.415 815.305 895.903 815.305 895.903C807.29 900.3 799.274 907.628 789.072 927.415C778.142 947.935 791.259 901.033 791.259 901.033C781.057 912.758 774.499 927.415 774.499 927.415H769.398C751.181 928.148 695.803 961.127 676.128 973.585C655.725 986.044 659.368 979.448 671.027 958.928C677.53 946.72 692.028 934.252 705.469 925.229C705.275 925.162 705.102 925.091 704.952 925.016C704.393 924.793 703.817 924.569 703.235 924.343C699.994 923.085 696.545 921.747 694.68 919.881C664.597 897.141 669.733 840.657 682.206 802.512C689.746 779.896 676.909 782.747 652.284 788.215C636.174 791.792 615.019 796.49 591.224 795.91C587.587 795.91 584.952 796.912 582.489 799.329C598.367 830.225 660.826 821.151 660.826 821.151C639.694 840.206 634.593 891.505 634.593 891.505C614.19 893.704 593.787 925.217 593.787 925.217C538.409 979.448 384.658 1132.61 372.999 1157.53C361.341 1183.18 357.697 1213.23 365.712 1218.36C370.639 1221.51 373.363 1231.03 376.254 1241.14C378.067 1247.47 379.945 1254.03 382.472 1259.4C384.803 1264.61 384.924 1268.52 385.062 1272.95C385.311 1280.98 385.612 1290.7 399.231 1312.9C420.363 1346.61 437.851 1315.1 437.851 1315.1L646.252 997.77C753.368 927.415 773.771 934.744 773.771 934.744C774.499 939.141 783.243 939.874 783.243 939.874C781.057 955.997 790.53 954.531 790.53 954.531C790.53 964.058 797.088 987.509 805.104 988.242C813.848 989.708 815.305 995.571 810.204 1010.23C805.99 1025.06 818.021 1027.64 837.165 1031.74L839.351 1032.21C842.476 1032.89 845.019 1033.41 847.216 1033.85C859.372 1036.33 860.961 1036.66 891.816 1049.07C928.25 1063.73 958.125 1100.37 958.854 1114.29C959.478 1126.22 957.428 1126.32 952.247 1126.56C951.38 1126.6 950.425 1126.65 949.381 1126.75C942.094 1127.48 934.808 1130.42 925.335 1136.28C915.862 1141.41 927.521 1153.13 927.521 1153.13C881.614 1189.78 936.994 1203.7 936.994 1203.7C915.862 1183.91 934.808 1162.66 934.808 1162.66C938.451 1161.93 949.381 1156.07 951.567 1148C953.443 1141.09 958.004 1139.03 966.17 1135.34C967.519 1134.73 968.964 1134.07 970.513 1133.35C977.487 1130.54 979.121 1140.86 980.904 1152.13C981.916 1158.52 982.976 1165.22 985.086 1169.99C990.187 1182.45 985.086 1190.51 979.985 1196.37C977.605 1199.56 977.816 1202.1 978.15 1206.12C978.43 1209.48 978.795 1213.88 977.799 1220.56C974.885 1235.21 946.466 1227.89 946.466 1227.89C966.687 1249.58 985.659 1228.01 994.735 1217.69C995.472 1216.85 996.143 1216.09 996.745 1215.43C1000.65 1210.78 1000.23 1209.27 999.616 1207.08C998.97 1204.77 998.112 1201.7 1001.85 1193.44C1007.66 1180.57 1003.73 1175.17 1001.16 1171.65C1000.51 1170.76 999.953 1170 999.659 1169.26C998.202 1165.59 997.473 1163.39 994.559 1147.27C991.644 1131.15 1006.22 1150.94 1006.22 1156.8C1006.22 1162.66 1014.96 1172.19 1022.98 1178.78C1030.36 1184.86 1030.32 1189.7 1030.27 1196.15C1030.27 1196.7 1030.26 1197.26 1030.26 1197.84C1030.26 1198.63 1030.24 1199.37 1030.22 1200.07C1030.04 1206.49 1029.94 1209.97 1047.02 1227.15C1065.97 1246.21 1032.45 1260.86 1032.45 1260.86C1050.67 1264.53 1057.95 1255.73 1063.78 1236.68C1069.61 1218.36 1052.85 1197.11 1047.02 1193.44C1043.48 1190.89 1041.69 1184.1 1039.96 1177.49C1039.19 1174.58 1038.44 1171.72 1037.55 1169.26C1036.04 1165.09 1033.18 1160.54 1030.26 1155.9C1027.52 1151.55 1024.74 1147.13 1022.98 1142.87C1019.33 1134.08 1039.01 1148.74 1041.92 1159.73C1044.84 1170.72 1057.95 1182.45 1068.16 1191.24C1079.08 1200.04 1075.44 1227.89 1075.44 1227.89C1097.59 1205.07 1083.7 1187.09 1071.47 1171.25C1067.2 1165.72 1063.13 1160.45 1060.87 1155.33C1052.15 1135.6 1049.23 1134.09 1025.37 1121.73L1025.16 1121.62C1008.63 1112.55 996.575 1098.98 986.867 1088.05C982.455 1083.08 978.528 1078.66 974.885 1075.45C963.955 1065.19 922.42 1040.27 898.374 1029.28C875.056 1018.29 854.653 1007.3 845.91 990.441C837.165 973.585 896.188 888.574 896.188 888.574C898.646 887.956 908.365 884.962 921.618 880.879C955.492 870.443 1012.46 852.893 1030.26 849.733C1055.04 845.336 1049.94 859.993 1041.92 871.718C1033.18 884.177 1053.58 917.888 1053.58 917.888C1053.58 975.051 1096.57 942.072 1096.57 942.072C1057.95 955.264 1067.43 912.758 1067.43 912.758C1072.53 909.094 1070.34 894.437 1065.24 886.376C1060.74 880.718 1063.19 873.314 1065.54 866.186C1066.24 864.08 1066.93 861.998 1067.43 859.993C1069.61 851.199 1073.98 851.199 1076.9 859.993C1078.17 863.83 1081.38 868.644 1085.09 874.191C1089.87 881.357 1095.47 889.746 1098.76 898.834C1104.59 914.224 1113.33 923.018 1113.33 923.018C1117.7 936.21 1094.39 966.257 1094.39 966.257C1116.98 955.997 1122.08 931.08 1123.53 920.087C1125.72 909.094 1122.81 898.101 1114.06 881.245C1105.32 864.39 1126.45 884.177 1130.82 895.903C1135.19 907.628 1142.48 920.087 1142.48 920.087C1141.75 930.347 1127.91 951.599 1127.91 951.599C1146.12 945.004 1151.95 922.285 1151.95 922.285C1165.8 940.607 1137.38 965.524 1137.38 965.524C1181.1 965.524 1161.43 922.285 1161.43 922.285C1173.8 913.986 1157.62 892.629 1142.29 872.388C1141.38 871.183 1140.47 869.981 1139.56 868.787C1122.81 847.534 1098.76 833.61 1074.71 825.549C1051.78 817.861 990.425 836.163 956.977 846.14C955.348 846.626 953.785 847.092 952.295 847.534C920.234 857.061 935.536 842.404 935.536 842.404C1054.31 742.003 1073.98 675.313 1079.81 629.144C1083.33 602.01 1078.25 576.142 1073.57 552.332C1069.53 531.771 1065.79 512.745 1068.16 495.764C1073.69 458.02 1081.31 450.054 1097.14 433.491C1100.06 430.437 1103.26 427.091 1106.77 423.212C1127.64 400.2 1204.44 411.567 1213.19 412.862C1213.91 412.969 1214.17 413.007 1213.89 412.952L1144.67 369.713C1136.65 345.529 1106.05 308.886 1034.64 287.634C991.556 274.813 956.697 292.13 932.139 313.359C939.574 323.845 943.925 338.323 945.612 348.44C947.3 364.634 950.849 376.639 954.548 384.312C956.265 379.932 955.528 374.618 958.125 369.713ZM848.095 137.399C846.638 154.987 833.522 176.24 833.522 176.24C825.507 190.164 839.351 122.741 845.91 111.016C851.253 100.266 849.861 116.616 848.47 132.965C848.343 134.45 848.217 135.934 848.095 137.399ZM800.003 125.673C800.731 139.597 801.46 153.521 797.817 164.514C797.417 165.721 796.903 167.36 796.303 169.272C791.443 184.771 780.977 218.146 780.329 183.568C780.329 183.568 779.6 151.323 785.429 135.2C791.987 119.81 799.274 111.748 800.003 125.673ZM747.586 147.746C748.213 143.026 748.544 140.538 749.724 147.658C751.609 158.396 748.08 184.377 747.069 191.818C746.907 193.011 746.81 193.727 746.81 193.828C735.879 204.088 740.98 165.98 744.623 160.117C746.3 157.418 747.051 151.771 747.586 147.746ZM716.205 237.067C722.763 215.814 727.135 226.807 725.678 237.067C725.107 240.796 725.765 254.068 726.471 268.315C727.109 281.203 727.787 294.888 727.631 303.026C730.081 300.541 733.527 299.052 737.969 298.558C776.857 294.157 810.608 319.831 804.004 363.845C796.033 411.047 761.417 438.783 742.549 453.901C738.838 456.874 735.737 459.359 733.566 461.408C741.638 466.543 747.508 479.747 745.306 493.685C738.703 532.563 708.62 539.898 668.999 538.431L668.347 538.385C658.119 537.661 644.13 536.672 647.721 523.027L724.762 307.361C724.809 307.253 724.856 307.146 724.904 307.04C721.779 296.381 710.528 255.465 716.205 237.067ZM1075.44 357.255C1075.44 360.186 1072.53 363.118 1069.61 363.118C1066.7 363.118 1063.78 360.186 1063.78 357.255C1063.78 354.323 1066.7 351.392 1069.61 351.392C1072.53 351.392 1075.44 353.59 1075.44 357.255ZM965.412 37.7304C958.125 58.2502 930.436 111.748 922.42 122.741C921.757 123.63 921.031 124.617 920.259 125.666C910.844 138.456 894.499 160.659 900.56 131.536C900.56 131.536 906.389 107.351 915.133 90.4961C923.878 73.6403 939.179 50.1889 948.652 39.9287C958.125 29.6691 972.698 17.2106 965.412 37.7304ZM335.889 452.605C325.617 494.418 341.025 534.764 365.238 534.764C411.463 534.764 464.291 421.796 465.025 352.841C465.025 319.098 459.155 300.759 432.741 300.759C376.244 300.759 341.759 426.931 335.889 452.605Z" fill="#7ABADD"/>
<path d="M716.325 918.533C721.184 915.81 725.468 913.806 728.593 912.758C741.709 908.361 761.383 898.834 781.057 876.116C785.977 870.435 790.486 866.587 794.722 863.805C791.11 858.308 789.057 851.863 786.69 844.433C785.173 839.67 783.527 834.502 781.259 828.92C777.59 820.117 771.72 812.782 759.981 812.782C757.046 812.782 754.845 817.917 754.111 820.851C751.804 827.77 750.238 832.913 748.746 837.81C746.916 843.815 745.201 849.448 742.371 857.529C742.055 858.415 741.75 859.295 741.448 860.164C738.252 869.373 735.489 877.335 724.762 877.335C711.555 877.335 712.289 857.529 716.691 845.792C729.045 812.17 769.004 684.839 774.116 668.527C759.693 701.219 742.269 741.896 729.898 774.637C728.431 778.304 729.164 781.239 730.632 784.907C732.302 787.828 733.021 789.087 733.331 790.44C733.566 791.466 733.566 792.545 733.566 794.443L732.099 795.91C724.762 795.176 721.093 798.844 719.626 805.446C718.31 810.708 716.741 816.184 715.125 821.824C706.828 850.779 697.295 884.048 714.49 914.746C715.121 916.008 715.752 917.271 716.325 918.533Z" fill="#7ABADD"/>
<path d="M226.534 555.782C227.545 556.497 228.889 556.77 230.233 556.77C230.967 556.77 232.435 556.77 233.169 555.303C234.666 553.691 236.037 551.554 237.284 549.067C232.87 551.48 229.321 553.714 226.534 555.782Z" fill="#7ABADD"/>
<path d="M239.37 544.314C235.713 543.966 230.613 543.453 224.625 542.776C226.449 521.289 237.4 497.352 243.441 497.352C247.109 497.352 247.109 503.221 247.109 505.421C247.109 511.474 244.633 530.731 239.37 544.314Z" fill="#7ABADD"/>
<path d="M216.31 541.796C175.161 536.736 109.312 525.457 149.296 508.223L190.102 495.764C190.102 495.764 -38.7019 428.342 182.815 445.197C182.815 445.197 -7.36946 360.919 53.1111 370.446C113.591 379.973 156.582 387.302 156.582 387.302C156.582 387.302 59.6691 330.139 29.7936 285.435C18.6854 268.814 13.8226 262.222 14.6808 261.366C15.8377 260.212 27.3902 269.479 48.0527 278.651C63.0956 302.388 88.8216 319.831 120.175 319.831C155.394 319.831 211.157 302.96 241.973 277.285C244.908 277.285 246.375 278.752 246.375 283.887C246.375 285.128 246.025 287.419 245.49 290.924C244.125 299.85 241.559 316.649 240.505 344.039C239.577 370.034 241.881 401.317 243.697 425.991C244.751 440.308 245.642 452.399 245.642 459.941C245.642 465.809 244.174 471.678 240.505 476.813C236.898 482.584 216.97 520.989 216.31 541.796Z" fill="#7ABADD"/>
<path d="M79.6579 290.148C90.4404 299.521 104.093 305.16 118.707 305.16C121.291 305.16 123.844 305.104 126.366 304.995C118.047 302.509 103.096 297.888 79.6579 290.148Z" fill="#7ABADD"/>
<path d="M132.165 304.647C122.579 294.233 87.8075 256.298 58.0217 221.74C60.409 210.21 65.2372 199.931 71.8379 191.429C111.037 219.087 162.855 253.45 211.484 278.083C189.709 291.692 163.358 302.249 132.165 304.647Z" fill="#7ABADD"/>
<path d="M214.844 275.936C249.159 253.523 271.633 223.883 283.389 208.379C286.935 203.703 289.506 200.312 291.132 198.795C293.334 196.594 296.268 195.86 298.469 195.86C303.606 195.86 311.677 200.995 311.677 208.331C311.677 211.998 310.209 218.601 307.274 223.002C268.387 288.289 268.387 337.437 270.588 401.99C270.652 402.432 270.715 402.89 270.78 403.358C271.464 408.333 272.308 414.46 274.991 414.46C275.724 414.46 277.192 413.727 278.659 412.26C285.3 405.332 290.349 397.951 296.535 388.908C306.071 374.97 318.306 357.085 343.227 330.835C348.348 325.528 354.498 318.85 361.511 311.235C382.034 288.952 409.949 258.644 441.121 231.169C394.469 197.936 316.041 134.542 262.969 62.6475C202.474 -17.8609 222.944 36.1426 235.425 69.0709C237.827 75.409 239.933 80.9661 241.109 84.6331C243.102 90.8439 247.108 98.8618 251.076 106.801C261.621 127.902 271.887 148.444 243.295 133.001C203.947 111.748 142.009 29.6691 135.451 16.4773C133.681 12.9163 132.176 9.14196 130.966 6.10528C127.692 -2.1075 126.569 -4.92428 128.165 16.4773C130.35 45.0592 152.211 94.1601 161.684 113.214C165.228 119.833 175.454 132.201 185.43 144.265C204.171 166.929 222.025 188.521 193.017 168.911C148.567 138.864 54.568 58.2502 46.5531 47.9899C38.5374 37.7304 44.3666 60.4485 44.3666 60.4485C51.096 90.3571 69.9816 122.412 93.1836 152.68C97.7853 151.661 102.628 151.113 107.702 151.113C122.905 151.113 125.965 153.256 133.091 158.246L133.382 158.449C134.85 159.183 135.583 160.65 135.583 162.116C135.583 163.584 134.85 165.784 132.649 166.518C123.277 165.155 114.142 165.85 105.64 168.289C145.505 216.401 193.211 257.954 214.844 275.936Z" fill="#7ABADD"/>
<path d="M53.3553 178.23C41.9491 169.989 32.2052 162.777 24.6925 157.185C-3.61572 135.687 -3.52526 135.841 4.9898 150.34C7.21453 154.129 10.0144 158.897 13.0334 164.514C16.8622 171.638 27.0791 184.883 40.0627 200.541C43.3215 192.749 47.7776 185.098 53.3553 178.23Z" fill="#7ABADD"/>
<path d="M641.041 337.667C623.247 360.307 607.267 401.987 600.029 424.73C583.154 476.079 581.686 518.625 597.095 518.625C617.639 518.625 677.804 429.865 677.804 349.174C677.804 333.064 677.073 322.07 663.932 322.032C662.907 324.928 661.872 328.099 660.826 331.605C658.443 339.594 651.297 340.779 641.041 337.667Z" fill="#7ABADD"/>
<path d="M801.069 682.942C804.738 668.271 807.673 666.804 817.211 666.804C838.489 666.804 848.028 679.274 847.294 693.945C847.294 732.824 820.88 792.976 770.253 792.976C767.318 792.976 766.585 791.508 766.585 789.308C766.585 785.233 773.829 764.181 782.157 739.984C788.82 720.622 796.177 699.246 801.069 682.942Z" fill="#7ABADD"/>
<path d="M755.579 580.244C759.981 575.109 765.117 570.708 773.187 569.974C773.921 572.175 774.655 574.376 772.454 575.109C771.72 579.511 770.253 583.912 768.785 587.58C732.833 668.271 715.958 707.883 693.212 761.433C691.011 765.834 688.076 769.502 682.206 768.768C668.978 767.967 660.13 770.011 647.764 772.869C637.497 775.242 624.804 778.176 605.166 780.505C602.964 781.239 600.029 781.239 596.361 781.239C594.393 781.239 596.531 777.134 597.529 775.216C597.648 774.989 597.75 774.792 597.828 774.637L755.579 580.244Z" fill="#7ABADD"/>
<path d="M513.45 330.835C517.852 315.43 520.787 313.963 530.325 313.963C552.337 313.963 561.875 327.167 561.875 343.305C561.875 383.651 534.728 446.003 481.9 446.003C478.231 446.003 477.498 443.803 477.498 441.602C477.498 437.359 485.599 413.727 494.701 387.174C501.335 367.821 508.501 346.916 513.45 330.835Z" fill="#7ABADD"/>
</svg>
