<svg width="230" height="36" viewBox="0 0 230 36" fill="none" xmlns="http://www.w3.org/2000/svg">
<path d="M27.8417 0.0151367C27.8542 10.4729 27.8771 20.7559 27.8963 31.2141L38.0718 31.216L38.049 9.05132H42.5079L42.5355 35.7219L30.3643 35.7135C27.2147 35.7166 25.7259 35.7178 24.522 34.5071C23.3556 33.3341 23.3726 32.0563 23.4049 29.6329C23.5343 19.7384 23.3947 9.9252 23.3828 0.0155455H27.8417V0.0151367Z" fill="#1D2431"/>
<path d="M70.625 4.57424V0.0981445H75.1015V4.57424H70.625Z" fill="#1D2431"/>
<path d="M75.0935 9.05078V35.7377H70.6172V9.05078H75.0935Z" fill="#1D2431"/>
<path d="M79.5469 0.105469H98.6891V4.58177H79.5469V0.105469Z" fill="#1D2431"/>
<path d="M91.2693 13.5119H98.6433C98.6433 18.7902 98.6482 24.4285 98.7173 29.7151C98.7496 32.1383 98.7664 33.4163 97.6002 34.5893C96.3963 35.8 94.9073 35.7986 91.7581 35.7955L81.8125 35.8041L81.8401 9.05811H86.299L86.2761 31.298L94.2259 31.2961C94.2441 21.5645 94.1842 25.7371 94.186 17.988H91.2693V13.5115V13.5119Z" fill="#1D2431"/>
<path d="M187.258 29.1187H206.362V33.5949H187.258V29.1187Z" fill="#1D2431"/>
<path d="M189.492 13.5352H204.12V18.0115H189.492V13.5352Z" fill="#1D2431"/>
<path d="M187.258 0.100586H206.362V4.57688H187.258V0.100586Z" fill="#1D2431"/>
<path d="M55.0312 15.1448L62.1047 0.0112305L66.1438 1.89981L59.0706 17.0333L55.0312 15.1448Z" fill="#1D2431"/>
<path d="M61.6729 35.7852C61.6604 25.3272 61.7096 39.5579 61.6902 29.1001L51.4374 29.0982V33.5984H46.9609C46.9609 22.4017 46.9609 11.2098 46.9609 0.00976562H51.4374V24.5954L59.2223 24.6007C62.3718 24.5976 63.8604 24.5964 65.0646 25.8071C66.2307 26.9802 66.2139 28.2577 66.1814 30.6811C66.1814 30.6811 66.1814 30.3486 66.1318 35.785H61.6729V35.7852Z" fill="#1D2431"/>
<path d="M140.005 13.5725H154.645L154.64 18.0488C154.569 30.9062 142.401 35.7741 131.219 35.7741L131.219 31.2976C139.766 31.2976 150.087 28.201 150.164 18.0486H140.005V13.5723V13.5725Z" fill="#1D2431"/>
<path d="M154.692 4.45872C144.234 4.47119 145.985 4.49408 135.528 4.51329L135.526 18.3125L131.023 18.3176L131.028 6.98145C131.025 3.83192 131.024 2.34309 132.235 1.13915C133.408 -0.0271811 134.685 -0.0102185 137.109 0.0220719C147.003 0.151438 144.783 0.0118534 154.692 0V4.45893V4.45872Z" fill="#1D2431"/>
<path d="M225.537 33.5968C225.525 23.139 225.502 15.0331 225.483 4.57515L215.307 4.57331L215.33 35.7831H210.871L210.844 0.0673828L223.015 0.0757619C226.164 0.0726964 227.653 0.0714701 228.857 1.28215C230.023 2.45523 230.006 3.73295 229.974 6.15636C229.845 16.0509 229.985 23.6869 229.996 33.5966H225.537V33.5968Z" fill="#1D2431"/>
<path d="M103.133 0.113281H126.532V4.58958H107.612V35.8348H103.135C103.135 23.9268 103.133 12.0186 103.133 0.113281H103.133Z" fill="#1D2431"/>
<path d="M107.602 4.46714C108.172 19.1862 113.17 25.9079 123.45 35.642L126.527 32.4069C117.138 23.5158 112.583 17.7998 112.06 4.30957L107.602 4.46714H107.602Z" fill="#1D2431"/>
<path d="M109.852 33.5966V29.1201H114.328V33.5966H109.852Z" fill="#1D2431"/>
<path d="M168.091 13.572H182.731L182.726 18.0483C182.655 30.9058 170.487 35.7736 159.305 35.7736L159.305 31.2971C167.852 31.2971 178.173 28.2005 178.249 18.0481H168.091V13.5718V13.572Z" fill="#1D2431"/>
<path d="M182.778 4.45872C172.32 4.47119 174.071 4.49408 163.613 4.51329L163.612 18.3125L159.109 18.3176L159.114 6.98145C159.111 3.83192 159.11 2.34309 160.32 1.13915C161.493 -0.0271811 162.771 -0.0102185 165.195 0.0220719C175.089 0.151438 172.868 0.0118534 182.778 0V4.45893V4.45872Z" fill="#1D2431"/>
<path d="M18.9254 4.54115C18.355 19.2604 13.357 25.9819 3.07739 35.716L0 32.4811C9.38954 23.59 13.9441 17.8738 14.4667 4.38379L18.9256 4.54115H18.9254Z" fill="#1D2431"/>
<path d="M7.17478 17.0333L0.101562 1.89981L4.14051 0.0112305L11.2139 15.1448L7.17478 17.0333Z" fill="#1D2431"/>
</svg>
