<svg width="1002" height="1096" viewBox="0 0 1002 1096" fill="none" xmlns="http://www.w3.org/2000/svg">
<g opacity="0.1">
<path d="M310.729 -37.9297C310.912 114.891 311.246 265.159 311.527 417.986L460.223 418.013L459.889 94.1175H525.048L525.451 483.859L347.591 483.737C301.567 483.781 279.81 483.799 262.217 466.107C245.173 448.965 245.421 430.293 245.893 394.88C247.783 250.289 245.744 106.888 245.57 -37.9237H310.729V-37.9297Z" fill="#1D2431"/>
<path d="M936.164 28.6916V-36.7183H1001.58V28.6916H936.164Z" fill="#1D2431"/>
<path d="M1001.35 94.106V484.086H935.938V94.106H1001.35Z" fill="#1D2431"/>
<path d="M-96 573.518H183.729V638.93H-96V573.518Z" fill="#1D2431"/>
<path d="M75.3262 769.427H183.084C183.084 846.558 183.156 928.952 184.165 1006.21C184.637 1041.62 184.882 1060.29 167.841 1077.43C150.248 1095.13 128.489 1095.11 82.4699 1095.06L-62.8672 1095.19L-62.464 704.342H2.69501L2.36048 1029.34L118.532 1029.31C118.797 887.1 117.922 948.075 117.949 834.836H75.3262V769.421V769.427Z" fill="#1D2431"/>
<path d="M708.18 183.163L811.545 -37.9858L870.57 -10.3878L767.207 210.761L708.18 183.163Z" fill="#1D2431"/>
<path d="M805.3 484.792C805.118 331.968 805.838 539.923 805.554 387.101L655.728 387.075V452.837H590.312C590.312 289.217 590.312 125.668 590.312 -38H655.728V321.273L769.489 321.351C815.514 321.306 837.267 321.288 854.864 338.98C871.905 356.123 871.66 374.791 871.185 410.205C871.185 410.205 871.185 405.346 870.459 484.789H805.3V484.792Z" fill="#1D2431"/>
<path d="M787.321 770.314H1001.27L1001.19 835.726C1000.15 1023.61 822.341 1094.75 658.936 1094.75L658.93 1029.33C783.839 1029.33 934.656 984.083 935.776 835.723H787.321V770.311V770.314Z" fill="#1D2431"/>
<path d="M1002 637.131C849.177 637.313 874.765 637.648 721.944 637.929L721.917 839.579L656.125 839.653L656.194 673.996C656.152 627.972 656.131 606.215 673.823 588.622C690.965 571.578 709.637 571.826 745.05 572.298C889.641 574.188 857.19 572.148 1002 571.975V637.134V637.131Z" fill="#1D2431"/>
<path d="M248.511 573.623H590.439V639.036H313.957V1095.63H248.541C248.541 921.614 248.508 747.597 248.508 573.623H248.511Z" fill="#1D2431"/>
<path d="M313.87 637.245C322.205 852.338 395.243 950.563 545.46 1092.81L590.43 1045.53C453.219 915.606 386.663 832.077 379.026 634.943L313.867 637.245H313.87Z" fill="#1D2431"/>
<path d="M346.656 1062.92V997.502H412.069V1062.92H346.656Z" fill="#1D2431"/>
<path d="M180.56 28.2112C172.225 243.306 99.1873 341.529 -51.0296 483.775L-96 436.502C41.2108 306.575 107.767 223.043 115.404 25.9116L180.563 28.2112H180.56Z" fill="#1D2431"/>
<path d="M8.82298 210.761L-94.5391 -10.3883L-35.5173 -37.9863L67.8477 183.162L8.82298 210.761Z" fill="#1D2431"/>
</g>
</svg>
