<svg width="1002" height="1096" viewBox="0 0 1002 1096" fill="none" xmlns="http://www.w3.org/2000/svg">
<path opacity="0.05" fill-rule="evenodd" clip-rule="evenodd" d="M-153 360.002C-153 325.192 -139.172 291.808 -114.558 267.194L173.193 -20.5577C197.808 -45.1719 231.192 -59 266.001 -59L949.5 -59C978.495 -59 1002 -35.4953 1002 -6.5L1002 1043.5C1002 1072.49 978.495 1096 949.5 1096L-100.5 1096C-129.495 1096 -153 1072.49 -153 1043.5L-153 360.002ZM647.625 845.312L752.625 845.312L752.625 203.5L570.188 203.5L440.25 510.625H427.125L297.188 203.5L188.25 203.5L109.5 203.5L109.5 282.25L109.5 1096L214.5 1096L214.5 296.687L234.188 296.687L390.375 662.875L466.5 662.875L627.938 296.687H647.625L647.625 845.312Z" fill="#222222"/>
</svg>
