<svg width="224" height="47" viewBox="0 0 224 47" fill="none" xmlns="http://www.w3.org/2000/svg">
<path d="M74.5464 32.2586C74.5464 33.292 74.1755 34.1828 73.4336 34.931C72.7271 35.6437 71.8616 36 70.8371 36L59.7093 36C58.6848 36 57.8016 35.6437 57.0598 34.931C56.3533 34.1828 56 33.292 56 32.2586L56 21.0345C56 20.0012 56.3533 19.1282 57.0598 18.4155C57.8016 17.6672 58.6848 17.2931 59.7093 17.2931L70.8371 17.2931C71.8616 17.2931 72.7271 17.6672 73.4336 18.4155C74.1755 19.1282 74.5464 20.0012 74.5464 21.0345L74.5464 32.2586ZM70.8371 32.7931L70.8371 20.5L59.7093 20.5L59.7093 32.7931L70.8371 32.7931Z" fill="#181818"/>
<path d="M101.054 32.2586C101.054 33.292 100.683 34.1828 99.9408 34.931C99.2343 35.6437 98.3688 36 97.3444 36L86.2165 36L82.5072 36L82.5072 8.74138L86.2165 5L86.2165 17.2931L88.866 17.2931L97.3444 17.2931C98.3688 17.2931 99.2343 17.6672 99.9408 18.4155C100.683 19.1282 101.054 20.0012 101.054 21.0345L101.054 32.2586ZM97.3444 32.7931L97.3444 20.5L86.2165 20.5L86.2165 32.7931L97.3444 32.7931Z" fill="#181818"/>
<path d="M127.019 36L123.309 36H120.66L112.181 36C111.157 36 110.274 35.6437 109.532 34.931C108.825 34.1828 108.472 33.292 108.472 32.2586L108.472 21.0345C108.472 20.0012 108.825 19.1282 109.532 18.4155C110.274 17.6672 111.157 17.2931 112.181 17.2931L123.309 17.2931L123.309 8.74138L127.019 5L127.019 36ZM123.309 32.7931L123.309 20.5L120.66 20.5L112.181 20.5L112.181 32.7931L123.309 32.7931Z" fill="#181818"/>
<path d="M153.513 36L138.676 36C137.652 36 136.769 35.6437 136.027 34.931C135.32 34.1828 134.967 33.292 134.967 32.2586L134.967 21.0345C134.967 20.0012 135.32 19.1282 136.027 18.4155C136.769 17.6672 137.652 17.2931 138.676 17.2931L149.804 17.2931C150.829 17.2931 151.694 17.6672 152.401 18.4155C153.142 19.1282 153.513 20.0012 153.513 21.0345V24.7759L149.804 28.5172L138.146 28.5172L138.146 25.3103L149.804 25.3103V20.5L138.676 20.5L138.676 32.7931L153.513 32.7931V36Z" fill="#181818"/>
<path d="M178.416 32.2586C178.416 33.292 178.046 34.1828 177.304 34.931C176.597 35.6437 175.732 36 174.707 36L163.579 36L159.87 36L159.87 8.74138L163.579 5V17.2931L166.229 17.2931L174.707 17.2931C175.732 17.2931 176.597 17.6672 177.304 18.4155C178.046 19.1282 178.416 20.0012 178.416 21.0345L178.416 32.2586ZM174.707 32.7931L174.707 20.5L163.579 20.5L163.579 32.7931L174.707 32.7931Z" fill="#181818"/>
<path d="M204.381 36L200.672 36L198.023 36L189.544 36C188.52 36 187.637 35.6437 186.895 34.931C186.188 34.1828 185.835 33.292 185.835 32.2586L185.835 17.2931L189.544 17.2931L189.544 32.7931L200.672 32.7931L200.672 17.2931L204.381 17.2931L204.381 36Z" fill="#181818"/>
<path d="M224 36L216.581 36C215.557 36 214.674 35.6437 213.932 34.931C213.225 34.1828 212.872 33.292 212.872 32.2586L212.872 20.5L207.573 20.5L210.753 17.2931L212.872 17.2931V13.5517L216.581 9.81035L216.581 17.2931L224 17.2931V20.5L216.581 20.5L216.581 32.7931L224 32.7931V36Z" fill="#181818"/>
<path fill-rule="evenodd" clip-rule="evenodd" d="M0 17.0503C0 15.6338 0.562698 14.2753 1.56431 13.2737L13.2737 1.56432C14.2753 0.562702 15.6338 0 17.0503 0L44.8636 0C46.0435 0 47 0.956467 47 2.13636L47 44.8636C47 46.0435 46.0435 47 44.8636 47L2.13636 47C0.956484 47 0 46.0435 0 44.8636L0 17.0503ZM32.5795 36.7989L36.8523 36.7989L36.8523 10.6818L29.4284 10.6818L24.1409 23.1795L23.6068 23.1795L18.3193 10.6818L13.8864 10.6818L10.6818 10.6818L10.6818 13.8864L10.6818 47L14.9545 47L14.9545 14.4739L15.7557 14.4739L22.1114 29.375L25.2091 29.375L31.7784 14.4739H32.5795L32.5795 36.7989Z" fill="#222222"/>
</svg>
