<svg width="1002" height="1096" viewBox="0 0 1002 1096" fill="none" xmlns="http://www.w3.org/2000/svg">
<g opacity="0.05">
<path d="M752.989 965.096V72.9994C752.989 0.39983 809.013 -59 877.492 -59C945.971 -59 1002 0.39983 1002 72.9994V962.896C1002 1036.59 945.971 1096 876.458 1096C807.98 1096 752.989 1037.7 752.989 965.096Z" fill="#373F55"/>
<path d="M255.062 967.282V479.477C255.062 408.091 311.091 349.687 379.57 349.687C448.049 349.687 504.073 408.091 504.073 479.477V965.118C504.073 1037.58 448.049 1095.99 378.532 1095.99C310.053 1095.99 255.062 1038.67 255.062 967.282Z" fill="#373F55"/>
<path d="M-243 965.101V766.003C-243 693.404 -186.973 634.002 -118.494 634.002C-50.0164 634.002 6.01102 693.404 6.01102 766.003V962.901C6.01102 1036.6 -50.0164 1096 -119.532 1096C-188.01 1096 -243 1037.7 -243 965.101Z" fill="#373F55"/>
<path d="M-243 412.019V75.2566C-243 1.41557 -186.973 -59 -118.494 -59C-50.0164 -59 6.01102 1.41557 6.01102 75.2566V409.781C6.01102 484.739 -50.0164 545.152 -119.532 545.152C-188.01 545.152 -243 485.86 -243 412.019Z" fill="#0075FF"/>
<path d="M255.062 122.245V62.9495C255.062 -4.17869 305.694 -59 367.689 -59H391.452C453.447 -59 504.073 -4.17869 504.073 62.9495V121.128C504.073 188.256 453.447 243.076 391.452 243.076H367.689C304.66 243.076 255.062 189.372 255.062 122.245Z" fill="#0075FF"/>
</g>
</svg>
