<svg width="227" height="43" viewBox="0 0 227 43" fill="none" xmlns="http://www.w3.org/2000/svg">
<path d="M89.2154 12.3242C81.1711 12.3242 74.6445 19.0939 74.6445 27.4062C74.6445 35.7503 81.1711 42.4885 89.2154 42.4885C97.2597 42.4885 103.786 35.7188 103.786 27.4062C103.786 19.0939 97.2901 12.3242 89.2154 12.3242ZM89.2154 35.9392C84.6924 35.9392 81.0193 32.1294 81.0193 27.4378C81.0193 22.7462 84.6924 18.9365 89.2154 18.9365C93.7384 18.9365 97.4115 22.7462 97.4115 27.4378C97.4115 32.1294 93.7688 35.9392 89.2154 35.9392Z" fill="#373F55"/>
<path d="M155.422 42.4885V16.0948C155.422 14.021 157.148 12.3242 159.257 12.3242C161.365 12.3242 163.091 14.021 163.091 16.0948V42.4885H155.422Z" fill="#373F55"/>
<path d="M219.332 42.4885V16.0948C219.332 14.021 221.058 12.3242 223.166 12.3242C225.276 12.3242 227.001 14.021 227.001 16.0948V42.4885H219.332Z" fill="#373F55"/>
<path d="M71.9856 0.0546875H51.7397C49.7151 0.0546875 48.0586 1.75584 48.0586 3.83504C48.0586 5.91423 49.7151 7.61538 51.7397 7.61538H58.1815V42.4892H65.5436V7.61538H71.9856C74.0102 7.61538 75.6666 5.91423 75.6666 3.83504C75.6666 1.75584 74.0102 0.0546875 71.9856 0.0546875Z" fill="#373F55"/>
<path d="M147.723 23.6358C147.476 17.3516 142.419 12.3242 136.19 12.3242C133.137 12.3242 130.392 13.5182 128.326 15.4977C126.26 13.5496 123.515 12.3242 120.462 12.3242C114.233 12.3242 109.176 17.3516 108.929 23.6358H108.898V42.4885H116.299V23.1646C116.299 20.808 118.15 18.9227 120.462 18.9227C122.775 18.9227 124.626 20.808 124.626 23.1646V42.4885H132.027V23.6358H131.996C131.996 23.4787 131.996 23.3216 131.965 23.1646H132.027C132.027 20.808 133.877 18.9227 136.19 18.9227C138.503 18.9227 140.353 20.808 140.353 23.1646V42.4885H147.754L147.723 23.6358Z" fill="#373F55"/>
<path d="M211.116 23.6673C210.872 17.383 205.841 12.3242 199.645 12.3242C193.447 12.3242 188.386 17.3516 188.172 23.6358H188.141V42.4885H195.503V35.1046C196.791 35.6073 198.172 35.8901 199.645 35.8901C201.117 35.8901 202.497 35.6073 203.786 35.1046V42.4885H211.147L211.116 23.6673ZM199.613 29.2916C196.822 29.2916 194.553 26.9665 194.553 24.1071C194.553 21.2478 196.822 18.9227 199.613 18.9227C202.404 18.9227 204.674 21.2478 204.674 24.1071C204.674 26.9665 202.436 29.2916 199.613 29.2916Z" fill="#373F55"/>
<path d="M175.108 42.4892C177.225 42.4892 178.942 40.7724 178.942 38.6548C178.942 36.5371 177.225 34.8203 175.108 34.8203C172.989 34.8203 171.273 36.5371 171.273 38.6548C171.273 40.7724 172.989 42.4892 175.108 42.4892Z" fill="#373F55"/>
<path d="M28.6289 39.2331V13.5655C28.6289 11.4766 30.2393 9.76758 32.2076 9.76758C34.176 9.76758 35.7865 11.4766 35.7865 13.5655V39.1698C35.7865 41.2903 34.176 42.9994 32.1779 42.9994C30.2096 42.9994 28.6289 41.322 28.6289 39.2331Z" fill="#373F55"/>
<path d="M14.3164 39.2969V25.2617C14.3164 23.2078 15.9269 21.5273 17.8953 21.5273C19.8637 21.5273 21.474 23.2078 21.474 25.2617V39.2347C21.474 41.3197 19.8637 43.0002 17.8654 43.0002C15.8971 43.0002 14.3164 41.3509 14.3164 39.2969Z" fill="#373F55"/>
<path d="M0 39.2335V33.505C0 31.4162 1.61046 29.707 3.57881 29.707C5.54716 29.707 7.15762 31.4162 7.15762 33.505V39.1702C7.15762 41.2906 5.54716 42.9998 3.54899 42.9998C1.58065 42.9998 0 41.3224 0 39.2335Z" fill="#373F55"/>
<path d="M0 23.3198V13.6304C0 11.5059 1.61046 9.76758 3.57881 9.76758C5.54716 9.76758 7.15762 11.5059 7.15762 13.6304V23.2554C7.15762 25.4122 5.54716 27.1504 3.54899 27.1504C1.58065 27.1504 0 25.4444 0 23.3198Z" fill="#0075FF"/>
<path d="M14.3164 14.9824V13.2763C14.3164 11.3449 15.7718 9.76758 17.5538 9.76758H18.2368C20.0188 9.76758 21.474 11.3449 21.474 13.2763V14.9503C21.474 16.8817 20.0188 18.459 18.2368 18.459H17.5538C15.742 18.459 14.3164 16.9138 14.3164 14.9824Z" fill="#0075FF"/>
<path d="M163.091 8.74505C163.091 8.74505 161.781 7.75448 159.16 7.75448C156.54 7.75448 155.422 8.74505 155.422 8.74505V1.07617H163.091V8.74505Z" fill="#0075FF"/>
<path d="M227.001 8.74505C227.001 8.74505 225.691 7.75448 223.071 7.75448C220.451 7.75448 219.332 8.74505 219.332 8.74505V1.07617H227.001V8.74505Z" fill="#0075FF"/>
</svg>
