<svg width="1003" height="1096" viewBox="0 0 1003 1096" fill="none" xmlns="http://www.w3.org/2000/svg">
<g opacity="0.05">
<path d="M-11.9785 111.47L233.017 356.465" stroke="#EA4109" stroke-width="149.128"/>
<path fill-rule="evenodd" clip-rule="evenodd" d="M789.029 485.359C789.029 704.792 611.144 882.678 391.71 882.678C313.403 882.678 240.387 860.024 178.858 820.913L25.8295 973.942C127.783 1050.41 254.456 1095.72 391.71 1095.72C728.802 1095.72 1002.07 822.451 1002.07 485.359C1002.07 148.267 728.802 -125 391.71 -125C54.6185 -125 -218.648 148.267 -218.648 485.359C-218.648 623.735 -172.6 751.357 -94.9908 853.735L57.8664 700.878C17.7061 638.796 -5.60872 564.8 -5.60872 485.359C-5.60872 265.926 172.277 88.0397 391.71 88.0397C611.144 88.0397 789.029 265.926 789.029 485.359Z" fill="#222222"/>
<line x1="895.488" y1="1095.71" x2="895.488" y2="486.416" stroke="#222222" stroke-width="213.04"/>
<path fill-rule="evenodd" clip-rule="evenodd" d="M391.762 631.282V737.802C391.763 737.802 391.765 737.802 391.767 737.802V631.282C391.765 631.282 391.763 631.282 391.762 631.282ZM453.427 617.624C503.17 594.372 537.634 543.885 537.634 485.35C537.634 404.753 472.298 339.417 391.702 339.417C311.106 339.417 245.77 404.753 245.77 485.35C245.77 543.931 280.288 594.45 330.094 617.678L313.241 725.371C212.229 692.372 139.25 597.383 139.25 485.35C139.25 345.924 252.277 232.897 391.702 232.897C531.128 232.897 644.154 345.924 644.154 485.35C644.154 597.34 571.233 692.298 470.282 725.332L453.427 617.624Z" fill="#EA4109"/>
</g>
</svg>
