<svg width="224" height="56" viewBox="0 0 224 56" fill="none" xmlns="http://www.w3.org/2000/svg">
<path d="M9.46484 10.8301L20.6849 22.0501" stroke="#EA4109" stroke-width="6.8296"/>
<path fill-rule="evenodd" clip-rule="evenodd" d="M46.1486 27.9526C46.1486 38.002 38.002 46.1486 27.9526 46.1486C24.3661 46.1486 21.022 45.111 18.204 43.3195L11.1958 50.3278C15.865 53.8302 21.6665 55.9052 27.9526 55.9052C43.3904 55.9052 55.9052 43.3904 55.9052 27.9526C55.9052 12.5148 43.3904 0 27.9526 0C12.5148 0 0 12.5148 0 27.9526C0 34.2896 2.10872 40.134 5.66272 44.8225L12.6632 37.8221C10.8242 34.9791 9.75657 31.5905 9.75657 27.9526C9.75657 17.9032 17.9032 9.75657 27.9526 9.75657C38.002 9.75657 46.1486 17.9032 46.1486 27.9526Z" fill="#222222"/>
<line x1="51.026" y1="55.9043" x2="51.026" y2="28.0005" stroke="#222222" stroke-width="9.75657"/>
<path fill-rule="evenodd" clip-rule="evenodd" d="M30.7775 34.0111C33.0569 32.9467 34.6364 30.6339 34.6364 27.9522C34.6364 24.2611 31.6442 21.2689 27.9531 21.2689C24.2621 21.2689 21.2699 24.2611 21.2699 27.9522C21.2699 30.6347 22.8504 32.9481 25.1309 34.0121L24.3591 38.9442C19.7334 37.4327 16.3916 33.0827 16.3916 27.9522C16.3916 21.5669 21.5679 16.3906 27.9531 16.3906C34.3384 16.3906 39.5147 21.5669 39.5147 27.9522C39.5147 33.0819 36.1739 37.4314 31.5493 38.9435L30.7775 34.0111Z" fill="#EA4109"/>
<g opacity="0.9">
<path d="M93.9566 30.9057H89.4394L87.8179 26.2174H79.102L77.5094 30.9057H72.9922L81.1579 8.53125H85.762L93.9566 30.9057ZM83.4744 13.4459L80.4629 22.0141H86.4569L83.4744 13.4459Z" fill="#222222"/>
<path d="M94.6294 30.9057V26.4114H95.1506C95.6912 26.4114 96.1352 26.2606 96.4826 25.9588C96.8494 25.657 97.1486 25.0858 97.3803 24.2451C97.6312 23.3829 97.8243 22.1866 97.9594 20.6562C98.1139 19.1042 98.249 17.0995 98.3648 14.6422L98.6254 8.53125H113.133V30.9057H108.847V13.0255H102.708L102.621 14.7715C102.486 17.9833 102.274 20.6346 101.984 22.7255C101.714 24.7948 101.299 26.4438 100.739 27.6724C100.179 28.8795 99.4459 29.7202 98.5385 30.1944C97.6506 30.6686 96.5213 30.9057 95.1506 30.9057H94.6294Z" fill="#222222"/>
<path d="M136.6 30.9057H132.082L130.461 26.2174H121.745L120.152 30.9057H115.635L123.801 8.53125H128.405L136.6 30.9057ZM126.117 13.4459L123.106 22.0141H129.1L126.117 13.4459Z" fill="#222222"/>
<path d="M137.5 35.7557V26.4114H139.816C140.106 26.0234 140.367 25.5061 140.598 24.8595C140.849 24.1912 141.062 23.3614 141.235 22.3698C141.428 21.3567 141.583 20.1712 141.699 18.8132C141.814 17.4552 141.901 15.8816 141.959 14.0925L142.133 8.53125H156.003V26.4114H158.812V35.7557H154.526V30.9057H141.785V35.7557H137.5ZM144.218 26.7671H151.746V12.6699H146.274L146.245 14.0925C146.148 16.9594 145.955 19.4598 145.666 21.5938C145.376 23.7278 144.893 25.4522 144.218 26.7671Z" fill="#222222"/>
<path d="M160.15 35.7557V26.4114H162.467C162.756 26.0234 163.017 25.5061 163.249 24.8595C163.5 24.1912 163.712 23.3614 163.886 22.3698C164.079 21.3567 164.233 20.1712 164.349 18.8132C164.465 17.4552 164.552 15.8816 164.61 14.0925L164.783 8.53125H178.654V26.4114H181.462V35.7557H177.177V30.9057H164.436V35.7557H160.15ZM166.868 26.7671H174.397V12.6699H168.924L168.895 14.0925C168.799 16.9594 168.606 19.4598 168.316 21.5938C168.027 23.7278 167.544 25.4522 166.868 26.7671Z" fill="#222222"/>
<path d="M198.09 8.53125H201.883V30.9057H197.713V16.7115L188.013 30.9057H184.22V8.53125H188.389V22.7578L198.09 8.53125Z" fill="#222222"/>
<path d="M219.428 17.4228V8.53125H223.714V30.9057H219.428V21.9495H210.336V30.9057H206.05V8.53125H210.336V17.4228H219.428Z" fill="#222222"/>
<path d="M75.5582 46.3366C74.8225 46.3366 74.2109 46.0796 73.7234 45.5655C73.2359 45.0414 72.9922 44.3811 72.9922 43.5848C72.9922 42.7784 73.2337 42.1181 73.7166 41.604C74.2041 41.09 74.818 40.8329 75.5582 40.8329C76.0186 40.8329 76.4361 40.9438 76.8108 41.1656V42.2618C76.4452 41.9896 76.0299 41.8535 75.565 41.8535C75.1181 41.8535 74.7412 42.0173 74.4343 42.3449C74.1364 42.6675 73.9875 43.0808 73.9875 43.5848C73.9875 44.0888 74.1409 44.5046 74.4479 44.8322C74.7503 45.1548 75.1362 45.316 75.6056 45.316C76.1247 45.316 76.558 45.1623 76.9056 44.8549V45.9511C76.5219 46.2081 76.0728 46.3366 75.5582 46.3366Z" fill="#222222"/>
<path d="M78.5559 46.2308H77.7367V40.9387H78.7117V44.3861L81.0069 40.9387H81.8464V46.2308H80.8782V42.7607L78.5559 46.2308Z" fill="#222222"/>
<path d="M85.2975 46.3366C84.5618 46.3366 83.9502 46.0796 83.4627 45.5655C82.9752 45.0414 82.7315 44.3811 82.7315 43.5848C82.7315 42.7784 82.973 42.1181 83.4559 41.604C83.9434 41.09 84.5573 40.8329 85.2975 40.8329C85.7579 40.8329 86.1754 40.9438 86.5501 41.1656V42.2618C86.1845 41.9896 85.7692 41.8535 85.3043 41.8535C84.8574 41.8535 84.4805 42.0173 84.1736 42.3449C83.8757 42.6675 83.7267 43.0808 83.7267 43.5848C83.7267 44.0888 83.8802 44.5046 84.1871 44.8322C84.4896 45.1548 84.8755 45.316 85.3449 45.316C85.864 45.316 86.2973 45.1623 86.6448 44.8549V45.9511C86.2612 46.2081 85.8121 46.3366 85.2975 46.3366Z" fill="#222222"/>
<path d="M87.1578 41.914V40.9387H91.1321V41.914H89.629V46.2308H88.6541V41.914H87.1578Z" fill="#222222"/>
<path d="M95.4142 46.2308H91.8597V40.9387H95.3397V41.914H92.8346V42.9346H94.8522V43.8947H92.8346V45.2556H95.4142V46.2308Z" fill="#222222"/>
<path d="M97.1654 46.2308H96.1904V40.9387H97.1586L98.533 43.1312L99.9075 40.9387H100.869V46.2308H99.9075V42.6095L98.8174 44.3105H98.2758L97.1654 42.6095V46.2308Z" fill="#222222"/>
<path d="M107.15 46.2308H106.175V40.9387H107.15V46.2308ZM103.771 46.2308H101.916V40.9387H102.891V42.6851H103.771C104.336 42.6851 104.783 42.8514 105.112 43.1841C105.442 43.5067 105.606 43.9325 105.606 44.4617C105.606 44.991 105.442 45.4168 105.112 45.7394C104.778 46.067 104.331 46.2308 103.771 46.2308ZM102.891 43.6075V45.2707H103.717C104.002 45.2707 104.223 45.2001 104.381 45.059C104.543 44.9128 104.625 44.7087 104.625 44.4466C104.625 44.1795 104.543 43.9729 104.381 43.8267C104.223 43.6805 104.002 43.6075 103.717 43.6075H102.891Z" fill="#222222"/>
<path d="M115.874 46.2308H109.93V40.9387H110.905V45.2556H112.415V40.9387H113.383V45.2556H114.899V40.9387H115.874V46.2308Z" fill="#222222"/>
<path d="M117.744 46.2308H116.925V40.9387H117.9V44.3861L120.195 40.9387H121.035V46.2308H120.067V42.7607L117.744 46.2308Z" fill="#222222"/>
<path d="M125.19 46.4349H124.208V45.8528C123.477 45.8226 122.913 45.5832 122.516 45.1346C122.119 44.686 121.92 44.1543 121.92 43.5394C121.92 42.9195 122.119 42.3878 122.516 41.9442C122.918 41.4957 123.482 41.2563 124.208 41.226V40.7422H125.19V41.226C125.917 41.2563 126.481 41.4957 126.883 41.9442C127.28 42.3878 127.479 42.9195 127.479 43.5394C127.479 44.1543 127.28 44.686 126.883 45.1346C126.486 45.5832 125.921 45.8226 125.19 45.8528V46.4349ZM124.208 44.87V42.2088C123.802 42.2139 123.486 42.3374 123.261 42.5793C123.035 42.8162 122.922 43.1362 122.922 43.5394C122.922 43.9376 123.035 44.2576 123.261 44.4995C123.486 44.7364 123.802 44.8599 124.208 44.87ZM125.19 42.2088V44.87C125.596 44.8599 125.912 44.7364 126.138 44.4995C126.364 44.2576 126.477 43.9376 126.477 43.5394C126.477 43.1362 126.364 42.8162 126.138 42.5793C125.912 42.3374 125.596 42.2139 125.19 42.2088Z" fill="#222222"/>
<path d="M129.332 46.2308H128.357V40.9387H130.429C130.939 40.9387 131.341 41.0874 131.634 41.3848C131.932 41.6771 132.081 42.0602 132.081 42.5339C132.081 43.0127 131.932 43.3983 131.634 43.6906C131.341 43.988 130.939 44.1367 130.429 44.1367H129.332V46.2308ZM129.332 41.8913V43.2068H130.361C130.596 43.2068 130.779 43.1513 130.91 43.0405C131.041 42.9245 131.106 42.7607 131.106 42.549C131.106 42.3374 131.041 42.1761 130.91 42.0652C130.779 41.9493 130.596 41.8913 130.361 41.8913H129.332Z" fill="#222222"/>
<path d="M134.066 44.8246C134.346 45.1522 134.696 45.316 135.115 45.316C135.531 45.316 135.878 45.1522 136.158 44.8246C136.438 44.497 136.578 44.0837 136.578 43.5848C136.578 43.0858 136.438 42.6725 136.158 42.3449C135.878 42.0173 135.531 41.8535 135.115 41.8535C134.696 41.8535 134.346 42.0173 134.066 42.3449C133.791 42.6675 133.653 43.0808 133.653 43.5848C133.653 44.0888 133.791 44.5021 134.066 44.8246ZM132.658 43.5848C132.658 42.8086 132.89 42.1584 133.355 41.6343C133.82 41.1 134.407 40.8329 135.115 40.8329C135.82 40.8329 136.404 41.1 136.869 41.6343C137.338 42.1685 137.573 42.8187 137.573 43.5848C137.573 44.3458 137.338 44.996 136.869 45.5353C136.404 46.0695 135.82 46.3366 135.115 46.3366C134.407 46.3366 133.82 46.0695 133.355 45.5353C132.89 45.001 132.658 44.3509 132.658 43.5848Z" fill="#222222"/>
<path d="M140.837 46.2308H138.453V40.9387H140.681C141.119 40.9387 141.466 41.0547 141.724 41.2865C141.985 41.5184 142.116 41.8434 142.116 42.2618C142.116 42.5188 142.06 42.738 141.947 42.9195C141.834 43.1009 141.692 43.232 141.521 43.3126C141.778 43.3731 142.004 43.5293 142.198 43.7813C142.387 44.0283 142.482 44.3433 142.482 44.7263C142.482 45.1749 142.333 45.5378 142.035 45.815C141.742 46.0922 141.342 46.2308 140.837 46.2308ZM139.428 43.9099V45.2934H140.654C140.898 45.2934 141.087 45.2354 141.223 45.1195C141.358 44.9985 141.426 44.8271 141.426 44.6054C141.426 44.3836 141.358 44.2123 141.223 44.0913C141.087 43.9703 140.898 43.9099 140.654 43.9099H139.428ZM139.428 41.846V43.0102H140.525C140.728 43.0102 140.886 42.9598 140.999 42.859C141.117 42.7582 141.175 42.6171 141.175 42.4356C141.175 42.2492 141.117 42.1055 140.999 42.0047C140.886 41.8989 140.728 41.846 140.525 41.846H139.428Z" fill="#222222"/>
<path d="M143.909 46.2308H142.887L144.918 40.9085H145.852L147.884 46.2308H146.848L146.381 45.0061H144.377L143.909 46.2308ZM145.379 42.2693L144.681 44.1064H146.069L145.379 42.2693Z" fill="#222222"/>
<path d="M149.485 46.2308H148.51V40.9387H149.485V42.9195H151.625V40.9387H152.593V46.2308H151.625V43.9099H149.485V46.2308Z" fill="#222222"/>
<path d="M154.46 46.2308H153.641V40.9387H154.616V44.3861L156.911 40.9387H157.751V46.2308H156.782V42.7607L154.46 46.2308Z" fill="#222222"/>
<path d="M159.516 46.2308H158.392L159.875 43.9703C159.563 43.8645 159.32 43.6831 159.144 43.426C158.972 43.1639 158.886 42.8565 158.886 42.5037C158.886 42.04 159.033 41.6645 159.326 41.3772C159.615 41.0849 160.012 40.9387 160.518 40.9387H162.712V46.2308H161.737V44.0913H160.911L159.516 46.2308ZM160.572 43.1765H161.737V41.8913H160.572C160.351 41.8913 160.177 41.9493 160.051 42.0652C159.929 42.1761 159.868 42.3323 159.868 42.5339C159.868 42.7406 159.929 42.8993 160.051 43.0102C160.177 43.1211 160.351 43.1765 160.572 43.1765Z" fill="#222222"/>
<path d="M166.315 46.2308H165.496V40.9387H166.471V44.3861L168.766 40.9387H169.606V46.2308H168.638V42.7607L166.315 46.2308Z" fill="#222222"/>
<path d="M173.814 46.3366C173.128 46.3366 172.557 46.1728 172.101 45.8452V44.7868C172.309 44.9481 172.557 45.0792 172.846 45.18C173.135 45.2757 173.412 45.3236 173.679 45.3236C174.04 45.3236 174.32 45.2556 174.518 45.1195C174.721 44.9834 174.823 44.7944 174.823 44.5525C174.823 44.3408 174.733 44.1795 174.552 44.0686C174.376 43.9527 174.13 43.8947 173.814 43.8947H173.218V42.98H173.929C174.439 42.98 174.694 42.7859 174.694 42.3978C174.694 42.2214 174.615 42.0854 174.457 41.9896C174.299 41.8888 174.083 41.8384 173.807 41.8384C173.261 41.8384 172.756 41.9694 172.291 42.2315V41.226C172.729 40.9639 173.25 40.8329 173.855 40.8329C174.405 40.8329 174.841 40.9715 175.162 41.2487C175.491 41.5259 175.656 41.8888 175.656 42.3374C175.656 42.5894 175.593 42.8086 175.466 42.9951C175.344 43.1765 175.193 43.3101 175.013 43.3958C175.256 43.4966 175.453 43.6579 175.602 43.8796C175.751 44.0963 175.825 44.3584 175.825 44.6659C175.825 45.1346 175.644 45.5328 175.283 45.8604C174.927 46.1779 174.437 46.3366 173.814 46.3366Z" fill="#222222"/>
<path d="M177.134 46.2308H176.112L178.143 40.9085H179.077L181.108 46.2308H180.072L179.605 45.0061H177.601L177.134 46.2308ZM178.603 42.2693L177.906 44.1064H179.294L178.603 42.2693Z" fill="#222222"/>
<path d="M187.679 46.2308H181.735V40.9387H182.71V45.2556H184.22V40.9387H185.188V45.2556H186.704V40.9387H187.679V46.2308Z" fill="#222222"/>
<path d="M189.549 46.2308H188.73V40.9387H189.705V44.3861L192 40.9387H192.84V46.2308H191.872V42.7607L189.549 46.2308Z" fill="#222222"/>
<path d="M193.569 41.914V40.9387H197.544V41.914H196.04V46.2308H195.065V41.914H193.569Z" fill="#222222"/>
<path d="M203.505 46.2308H202.53V40.9387H203.505V46.2308ZM200.126 46.2308H198.271V40.9387H199.246V42.6851H200.126C200.69 42.6851 201.137 42.8514 201.467 43.1841C201.796 43.5067 201.961 43.9325 201.961 44.4617C201.961 44.991 201.796 45.4168 201.467 45.7394C201.133 46.067 200.686 46.2308 200.126 46.2308ZM199.246 43.6075V45.2707H200.072C200.356 45.2707 200.578 45.2001 200.736 45.059C200.898 44.9128 200.979 44.7087 200.979 44.4466C200.979 44.1795 200.898 43.9729 200.736 43.8267C200.578 43.6805 200.356 43.6075 200.072 43.6075H199.246Z" fill="#222222"/>
</g>
</svg>
