<svg width="1002" height="1097" viewBox="0 0 1002 1097" fill="none" xmlns="http://www.w3.org/2000/svg">
<path opacity="0.05" d="M297.493 517.424C297.734 535.406 294.277 553.246 287.335 569.836C281.545 585.349 270.845 598.546 256.864 607.418C234.515 616.654 210.228 620.213 186.169 617.778H-113.673C-137.732 620.213 -162.019 616.654 -184.367 607.418C-198.434 598.551 -209.154 585.259 -214.839 569.633C-228.387 535.935 -228.387 498.305 -214.839 464.607C-208.986 449.236 -198.29 436.188 -184.367 427.431C-162.019 418.195 -137.732 414.636 -113.673 417.071H186.169C210.228 414.636 234.515 418.195 256.864 427.431C270.805 436.348 281.493 449.53 287.335 465.013C294.276 481.674 297.733 499.58 297.493 517.628M13.0896 923.918C93.5187 1005.54 196.409 1061.38 308.67 1084.36C420.932 1107.33 537.489 1096.39 643.515 1052.93C749.541 1009.47 840.241 935.446 904.077 840.287C967.914 745.128 1002 633.13 1002 518.542C1002 403.954 967.914 291.956 904.077 196.797C840.241 101.637 749.541 27.6179 643.515 -15.8443C537.489 -59.3065 420.932 -70.2469 308.67 -47.2738C196.409 -24.3007 93.5187 31.5475 13.0896 113.166C-7.59322 135.725 -18.7218 165.426 -17.9558 196.023C-17.1898 226.619 -4.58881 255.726 17.197 277.222C38.9828 298.719 68.2556 310.929 98.8593 311.286C129.463 311.643 159.013 300.118 181.294 279.135C212.571 247.081 249.857 221.505 291.023 203.868C332.189 186.23 376.426 176.877 421.208 176.344C486.626 179.087 550.757 195.414 609.524 224.286C655.098 246.821 696.901 276.289 733.442 311.638L734.661 313.061C739.359 318.912 742.344 325.951 743.285 333.396C744.227 340.841 743.089 348.401 739.996 355.238C736.903 362.076 731.978 367.923 725.765 372.132C719.552 376.34 712.295 378.746 704.799 379.083H578.036C507.545 379.083 499.419 387.412 476.463 426.822C460.417 454.616 451.969 486.144 451.969 518.237C451.969 550.331 460.417 581.859 476.463 609.652C498.809 649.062 506.935 657.595 578.036 657.595H704.799C712.278 657.966 719.509 660.398 725.693 664.621C731.877 668.844 736.774 674.694 739.843 681.525C742.912 688.355 744.033 695.902 743.082 703.33C742.132 710.758 739.147 717.778 734.458 723.617V724.836C697.88 760.14 656.084 789.603 610.539 812.188C551.623 841.184 487.238 857.384 421.614 859.724C376.655 859.114 332.263 849.589 291.011 831.7C249.758 813.812 212.466 787.915 181.294 755.511C159.024 733.823 129.109 721.779 98.024 721.985C66.9394 722.191 37.1866 734.631 15.206 756.611C-6.77463 778.592 -19.2143 808.345 -19.4203 839.429C-19.6263 870.514 -7.58205 900.429 14.1053 922.699" fill="#E30613"/>
</svg>
