<svg width="132" height="74" viewBox="0 0 132 74" fill="none" xmlns="http://www.w3.org/2000/svg">
<path d="M20.318 65.9657L25.1051 72.3192C25.2263 72.5024 25.2869 72.7468 25.2869 72.9301C25.2869 73.2355 25.1657 73.4799 24.9839 73.6632C24.8021 73.8464 24.5598 73.9686 24.2568 73.9686C23.8932 73.9686 23.6508 73.8464 23.4084 73.541L22.6207 72.5024H13.7736L12.9859 73.541C12.8041 73.7853 12.5011 73.9686 12.1376 73.9686C11.8346 73.9686 11.5922 73.8464 11.4104 73.6632C11.2286 73.4799 11.1074 73.2355 11.1074 72.9301C11.1074 72.6857 11.168 72.5024 11.2892 72.3192L16.0763 65.9657C16.3187 65.6603 16.6217 65.4159 16.9852 65.2326C17.3488 65.0494 17.7124 64.9883 18.1366 64.9883C18.5607 64.9883 18.9243 65.0494 19.2879 65.2326C19.8333 65.4159 20.1362 65.6603 20.318 65.9657ZM15.4097 70.5475H21.1664L18.3184 66.6988L15.4097 70.5475Z" fill="#222222"/>
<path d="M28.123 71.9056V66.0198C28.123 65.7164 28.2432 65.4737 28.4235 65.2917C28.6038 65.1096 28.8442 64.9883 29.1447 64.9883C29.4452 64.9883 29.6856 65.1096 29.8659 65.2917C30.0462 65.4737 30.1664 65.7164 30.1664 66.0198V71.9056H41.0445C41.345 71.9056 41.5854 72.0269 41.7657 72.209C41.946 72.391 42.0662 72.6337 42.0662 72.9371C42.0662 73.2405 41.946 73.4832 41.7657 73.6652C41.5854 73.8473 41.345 73.9686 41.0445 73.9686H30.1664C29.6255 73.9686 29.1447 73.7866 28.724 73.3618C28.3033 72.9978 28.123 72.5123 28.123 71.9056Z" fill="#222222"/>
<path d="M45.1387 71.9056V66.0198C45.1387 65.7164 45.2589 65.4737 45.4392 65.2917C45.6195 65.1096 45.8599 64.9883 46.1604 64.9883C46.4609 64.9883 46.7013 65.1096 46.8816 65.2917C47.0619 65.4737 47.1821 65.7164 47.1821 66.0198V71.9056H58.0601C58.3606 71.9056 58.601 72.0269 58.7813 72.209C58.9616 72.391 59.0818 72.6337 59.0818 72.9371C59.0818 73.2405 58.9616 73.4832 58.7813 73.6652C58.601 73.8473 58.3606 73.9686 58.0601 73.9686H47.1821C46.6412 73.9686 46.1604 73.7866 45.7397 73.3618C45.319 72.9978 45.1387 72.5123 45.1387 71.9056Z" fill="#222222"/>
<path d="M61.918 72.9912V66.0268C61.918 65.7214 62.0431 65.477 62.2308 65.2937C62.4184 65.1105 62.6686 64.9883 62.9814 64.9883C63.2942 64.9883 63.5444 65.1105 63.7321 65.2937C63.9198 65.477 64.0449 65.7214 64.0449 66.0268V72.9301C64.0449 73.2355 63.9198 73.4799 63.7321 73.6632C63.5444 73.8464 63.2942 73.9686 62.9814 73.9686C62.6686 73.9686 62.4184 73.8464 62.2308 73.6632C62.0431 73.541 61.918 73.2966 61.918 72.9912Z" fill="#222222"/>
<path d="M75.8532 65.9657L80.6403 72.3192C80.7615 72.5024 80.8221 72.7468 80.8221 72.9301C80.8221 73.2355 80.7009 73.4799 80.5191 73.6632C80.3373 73.8464 80.0949 73.9686 79.7919 73.9686C79.4284 73.9686 79.186 73.8464 78.9436 73.541L78.1558 72.5024H69.3088L68.5211 73.541C68.3393 73.7853 68.0363 73.9686 67.6727 73.9686C67.3697 73.9686 67.1273 73.8464 66.9456 73.6632C66.7638 73.4799 66.6426 73.2355 66.6426 72.9301C66.6426 72.6857 66.7032 72.5024 66.8244 72.3192L71.6115 65.9657C71.8538 65.6603 72.1568 65.4159 72.5204 65.2326C72.884 65.0494 73.2475 64.9883 73.6717 64.9883C74.0959 64.9883 74.4595 65.0494 74.823 65.2326C75.3078 65.4159 75.6108 65.6603 75.8532 65.9657ZM70.9449 70.5475H76.7015L73.8535 66.6988L70.9449 70.5475Z" fill="#222222"/>
<path d="M95.3135 73.6693L85.9379 67.383V72.9508C85.9379 73.2502 85.8177 73.4897 85.6374 73.6693C85.4571 73.8489 85.2167 73.9686 84.9162 73.9686C84.6157 73.9686 84.3753 73.8489 84.195 73.6693C84.0147 73.4897 83.8945 73.2502 83.8945 72.9508V66.6646C83.8945 66.2455 84.0748 65.8863 84.3753 65.5271C84.6758 65.2278 85.0364 65.0481 85.5172 65.0481C85.8177 65.0481 86.1182 65.108 86.3586 65.2876L95.7943 71.3943V66.0061C95.7943 65.7067 95.9145 65.4672 96.0948 65.2876C96.2751 65.108 96.5155 64.9883 96.816 64.9883C97.1165 64.9883 97.3569 65.108 97.5372 65.2876C97.7175 65.4672 97.8377 65.7067 97.8377 66.0061V72.2923C97.8377 72.7114 97.6574 73.0706 97.3569 73.3699C97.0564 73.6693 96.6958 73.8489 96.2751 73.8489C95.9145 73.9686 95.614 73.8489 95.3135 73.6693Z" fill="#222222"/>
<path d="M102.752 71.9056H113.814C114.12 71.9056 114.364 72.0269 114.548 72.209C114.731 72.391 114.853 72.6337 114.853 72.9371C114.853 73.2405 114.731 73.4832 114.548 73.6652C114.364 73.8473 114.12 73.9686 113.814 73.9686H102.752C102.202 73.9686 101.713 73.7866 101.285 73.3618C100.857 72.9371 100.674 72.4517 100.674 71.9056V67.0513C100.674 66.5052 100.857 66.0198 101.285 65.5951C101.713 65.1703 102.202 64.9883 102.752 64.9883H113.814C114.12 64.9883 114.364 65.1096 114.548 65.2917C114.731 65.4737 114.853 65.7164 114.853 66.0198C114.853 66.3232 114.731 66.5659 114.548 66.7479C114.364 66.93 114.12 67.0513 113.814 67.0513H102.752V71.9056Z" fill="#222222"/>
<path d="M117.689 71.8591V67.0375C117.689 66.495 117.87 66.0129 118.29 65.591C118.711 65.1691 119.192 64.9883 119.733 64.9883H130.611C130.911 64.9883 131.152 65.1088 131.332 65.2896C131.512 65.4704 131.633 65.7115 131.633 66.0129C131.633 66.3142 131.512 66.5553 131.332 66.7361C131.152 66.9169 130.911 67.0375 130.611 67.0375H119.733V68.484H130.611C130.911 68.484 131.152 68.6045 131.332 68.7853C131.512 68.9662 131.633 69.2072 131.633 69.5086C131.633 69.8099 131.512 70.051 131.332 70.2318C131.152 70.4126 130.911 70.5332 130.611 70.5332H119.733V71.9194H130.551C130.851 71.9194 131.092 72.04 131.272 72.2208C131.452 72.4016 131.573 72.6427 131.573 72.944C131.573 73.2454 131.452 73.4865 131.272 73.6673C131.092 73.8481 130.851 73.9686 130.551 73.9686H119.673C119.132 73.9686 118.651 73.7878 118.23 73.3659C117.93 72.8837 117.689 72.4016 117.689 71.8591Z" fill="#222222"/>
<path d="M26.7051 29.3921L33.1478 0H50.7132L64.7533 58.9419H50.1054L47.6134 48.5424L45.0606 37.6946C43.9666 33.3313 42.9333 29.0285 41.9608 24.7863H41.4746L38.5572 37.6946L37.5847 42.058C37.2808 43.27 37.0377 44.4215 36.7338 45.4517C36.4907 46.5426 36.2475 47.5728 36.0652 48.5424L34.3634 55.9965L33.6948 58.9419H32.7223L26.7051 29.3921Z" fill="#003D78"/>
<path d="M66.3681 0L61.209 28.9073L68.3103 58.9419H69.3422L69.9491 56.3601L71.5879 49.6939C72.0128 47.8152 72.7411 44.6639 73.8336 40.3005L83.4235 0.060606H66.3681" fill="#E22718"/>
<path d="M11.7843 49.4849C12.3886 52.3247 12.9325 54.5603 13.2951 56.1312L13.9745 58.9419H29.143L16.9815 0H0L6.94971 29.3647L9.48787 40.1196L11.7843 49.4849Z" fill="#0066B1"/>
<path fill-rule="evenodd" clip-rule="evenodd" d="M88.3848 34.6039H99.4986C103.787 34.6039 105.901 36.725 105.901 41.0277C105.901 45.3305 103.787 47.5122 99.4986 47.5122H88.3848V34.6039ZM88.3848 11.2114H97.3846C99.559 11.2114 101.069 11.7568 102.035 12.8477C103.062 13.8779 103.546 15.4536 103.546 17.4535C103.546 19.3927 103.062 20.9684 102.035 22.0592C101.069 23.0895 99.559 23.6349 97.3846 23.6349H88.3848V11.2114ZM96.7806 0C103.546 0 108.74 1.45445 112.425 4.30276C116.109 7.09047 117.981 11.0902 117.981 16.3626V17.5747C117.981 20.12 117.498 22.3016 116.532 24.0591C115.626 25.8772 114.357 27.3316 112.727 28.4831C115.082 29.6345 116.955 31.2708 118.283 33.3313C119.673 35.3917 120.337 37.9976 120.337 41.0884V42.1792C120.337 47.4516 118.465 51.5725 114.78 54.4815C111.156 57.3904 105.667 58.9419 98.8415 58.9419H131.719L117.266 0H96.7806Z" fill="#222222"/>
</svg>
