<svg width="1024" height="1096" viewBox="0 0 1024 1096" fill="none" xmlns="http://www.w3.org/2000/svg">
<g opacity="0.05">
<path d="M137.15 969.064L213.061 1069.81C214.983 1072.72 215.944 1076.59 215.944 1079.5C215.944 1084.34 214.022 1088.22 211.14 1091.13C208.257 1094.03 204.413 1095.97 199.609 1095.97C193.844 1095.97 190 1094.03 186.156 1089.19L173.665 1072.72H33.3733L20.8815 1089.19C17.9988 1093.06 13.1944 1095.97 7.42901 1095.97C2.62451 1095.97 -1.21905 1094.03 -4.10175 1091.13C-6.98445 1088.22 -8.90625 1084.34 -8.90625 1079.5C-8.90625 1075.63 -7.94532 1072.72 -6.02352 1069.81L69.8875 969.064C73.7311 964.221 78.5356 960.346 84.301 957.439C90.0664 954.533 95.8317 953.564 102.558 953.564C109.284 953.564 115.05 954.533 120.815 957.439C128.502 960.346 133.307 964.221 137.15 969.064ZM59.3175 1041.72H150.603L105.441 980.689L59.3175 1041.72Z" fill="#222222"/>
<path d="M445.738 1091.22L297.065 991.539V1079.83C297.065 1084.58 295.159 1088.37 292.3 1091.22C289.441 1094.07 285.629 1095.97 280.864 1095.97C276.098 1095.97 272.286 1094.07 269.427 1091.22C266.568 1088.37 264.662 1084.58 264.662 1079.83V980.147C264.662 973.501 267.521 967.805 272.286 962.109C277.052 957.362 282.77 954.514 290.394 954.514C295.159 954.514 299.924 955.463 303.736 958.311L453.362 1055.15V969.704C453.362 964.957 455.268 961.159 458.127 958.311C460.986 955.463 464.798 953.564 469.564 953.564C474.329 953.564 478.141 955.463 481 958.311C483.859 961.159 485.765 964.957 485.765 969.704V1069.39C485.765 1076.03 482.906 1081.73 478.141 1086.48C473.376 1091.22 467.658 1094.07 460.986 1094.07C455.268 1095.97 450.503 1094.07 445.738 1091.22Z" fill="#222222"/>
<path d="M563.687 1063.25H739.109C743.954 1063.25 747.831 1065.18 750.739 1068.07C753.646 1070.95 755.585 1074.8 755.585 1079.61C755.585 1084.42 753.646 1088.27 750.739 1091.16C747.831 1094.05 743.954 1095.97 739.109 1095.97H563.687C554.964 1095.97 547.21 1093.08 540.426 1086.35C533.642 1079.61 530.734 1071.91 530.734 1063.25V986.279C530.734 977.619 533.642 969.922 540.426 963.186C547.21 956.451 554.964 953.564 563.687 953.564H739.109C743.954 953.564 747.831 955.489 750.739 958.375C753.646 961.262 755.585 965.111 755.585 969.922C755.585 974.733 753.646 978.582 750.739 981.468C747.831 984.355 743.954 986.279 739.109 986.279H563.687V1063.25" fill="#222222"/>
<path d="M800.557 1062.52V986.06C800.557 977.458 803.416 969.812 810.087 963.122C816.758 956.432 824.383 953.564 832.96 953.564H1005.46C1010.22 953.564 1014.04 955.476 1016.89 958.343C1019.75 961.21 1021.66 965.033 1021.66 969.812C1021.66 974.591 1019.75 978.414 1016.89 981.281C1014.04 984.148 1010.22 986.06 1005.46 986.06H832.96V1009H1005.46C1010.22 1009 1014.04 1010.91 1016.89 1013.78C1019.75 1016.64 1021.66 1020.47 1021.66 1025.24C1021.66 1030.02 1019.75 1033.85 1016.89 1036.71C1014.04 1039.58 1010.22 1041.49 1005.46 1041.49H832.96V1063.47H1004.51C1009.27 1063.47 1013.08 1065.39 1015.94 1068.25C1018.8 1071.12 1020.71 1074.94 1020.71 1079.72C1020.71 1084.5 1018.8 1088.32 1015.94 1091.19C1013.08 1094.06 1009.27 1095.97 1004.51 1095.97H832.007C823.43 1095.97 815.805 1093.1 809.134 1086.41C804.369 1078.77 800.557 1071.12 800.557 1062.52Z" fill="#222222"/>
<path d="M-13.2854 -77L-95.0957 381.396L17.5138 857.668H33.8759L43.5007 816.728L69.4874 711.018C76.2248 681.227 87.7744 631.256 105.099 562.064L257.17 -76.0389H-13.2854" fill="#E22718"/>
<path fill-rule="evenodd" clip-rule="evenodd" d="M335.861 471.73H512.099C580.104 471.73 613.627 505.365 613.627 573.596C613.627 641.826 580.104 676.422 512.099 676.422H335.861V471.73ZM335.861 100.785H478.575C513.057 100.785 537.002 109.434 552.327 126.731C568.61 143.068 576.272 168.054 576.272 199.767C576.272 230.519 568.61 255.505 552.327 272.803C537.002 289.14 513.057 297.789 478.575 297.789H335.861V100.785ZM468.997 -77C576.272 -77 658.644 -53.9361 717.071 -8.76916C775.497 35.4367 805.189 98.8626 805.189 182.469V201.689C805.189 242.051 797.527 276.647 782.202 304.516C767.835 333.346 747.721 356.41 721.86 374.669C759.215 392.928 788.907 418.875 809.978 451.549C832.008 484.223 842.544 525.546 842.544 574.557V591.855C842.544 675.461 812.852 740.809 754.425 786.937C696.957 833.065 609.912 857.668 501.679 857.668H1023.04L793.839 -77H468.997Z" fill="#222222"/>
</g>
</svg>
