<svg width="1002" height="1096" viewBox="0 0 1002 1096" fill="none" xmlns="http://www.w3.org/2000/svg">
<path opacity="0.05" d="M891.727 481.928C889.074 432.839 879.787 383.749 861.212 335.986L951.431 256.381C932.856 216.578 910.302 178.102 882.44 142.28L768.34 184.736C735.171 147.587 696.695 117.072 656.893 94.5172L675.467 -24.8904C634.338 -44.7916 591.882 -59.386 548.099 -70L488.395 34.8134C440.632 28.1797 391.542 28.1797 343.779 34.8134L281.422 -68.6732C238.966 -58.0592 196.51 -43.465 156.708 -23.5637L177.936 94.5172C154.054 109.111 130.172 125.032 108.944 143.607C91.6967 158.201 75.7756 174.122 61.1813 190.043L-54.2457 151.568C-80.7807 187.39 -103.335 224.539 -120.583 264.341L-29.0375 341.293C-47.612 391.709 -56.8995 444.779 -58.2262 497.849L-171 541.632C-168.346 584.088 -160.386 626.544 -149.772 667.673H-30.3644C-11.7899 718.09 16.0721 767.18 51.8943 810.962L-6.48262 917.103C24.0326 947.618 55.8745 974.153 90.37 998.034L181.916 921.083C231.005 948.945 285.402 967.519 339.799 975.479L363.681 1093.56C406.137 1097.54 448.593 1096.21 489.722 1090.91L510.95 971.499C564.02 960.885 615.763 940.984 663.526 911.795L756.399 986.094C770.993 975.48 785.587 964.866 798.855 952.925C817.429 937.004 836.004 918.429 851.925 901.182L790.894 796.368C824.063 753.912 847.944 707.476 863.865 658.386L983.273 655.733C993.887 613.277 1000.52 569.494 1001.85 525.711L891.727 481.928ZM607.803 726.05C485.742 830.864 301.323 817.596 195.183 695.535C90.3699 573.474 103.638 389.056 225.699 282.916C347.76 176.776 532.178 191.37 638.318 313.431C744.458 435.492 729.864 621.237 607.803 726.05Z" fill="#C68BE0"/>
</svg>
