<svg width="258" height="26" viewBox="0 0 258 26" fill="none" xmlns="http://www.w3.org/2000/svg">
<path d="M154.901 25.2414V0.541061C157.681 0.399104 160.199 0.328125 162.455 0.328125C165.211 0.328125 167.29 0.884121 168.691 1.99611C170.116 3.08444 170.829 4.58681 170.829 6.50322C170.829 8.94013 169.879 10.7856 167.978 12.0395V12.1105C169.047 12.5127 169.903 13.1988 170.544 14.1688C171.209 15.1389 171.542 16.3455 171.542 17.7887C171.542 20.273 170.663 22.1775 168.905 23.5025C167.171 24.8037 164.89 25.4544 162.063 25.4544C158.762 25.4544 156.374 25.3834 154.901 25.2414ZM162.812 15.269H160.603V19.9181C161.125 20.06 161.767 20.131 162.527 20.131C164.736 20.131 165.841 19.2556 165.841 17.5048C165.841 16.0143 164.831 15.269 162.812 15.269ZM162.384 5.65148C161.957 5.65148 161.363 5.6988 160.603 5.79344V10.3005H162.491C164.249 10.3005 165.128 9.49612 165.128 7.88729C165.128 7.20117 164.867 6.657 164.344 6.25479C163.821 5.85258 163.168 5.65148 162.384 5.65148Z" fill="#C68BE0"/>
<path d="M244.316 5.65148H236.833V0.328125H257.5V5.65148H250.017V25.1704H244.316V5.65148Z" fill="#C68BE0"/>
<path d="M2.45706 25.4535H0.500977V0.691406H2.45706V25.4535Z" fill="#22242E"/>
<path d="M43.7551 2.53088H28.0709V0.691406H46.5291V1.92951L30.0625 23.614H46.8848V25.4535H27.3596V24.2154L43.7551 2.53088Z" fill="#22242E"/>
<path d="M85.0428 25.4535H70.9235V0.691406H84.6871V2.53088H72.8795V11.9758H83.6202V13.8153H72.8795V23.614H85.0428V25.4535Z" fill="#22242E"/>
<path d="M130.502 0.691406V25.4535H128.937L111.901 4.1581V25.4535H110.052V0.691406H111.617L128.653 22.0575V0.691406H130.502Z" fill="#22242E"/>
<path d="M214.54 12.2013C214.483 11.1453 214.283 10.0893 213.884 9.06176L215.825 7.34929C215.425 6.49305 214.94 5.66535 214.341 4.89473L211.886 5.80806C211.172 5.0089 210.345 4.35245 209.488 3.86725L209.888 1.29853C209.003 0.870412 208.09 0.556455 207.148 0.328125L205.864 2.58289C204.836 2.44018 203.78 2.44018 202.753 2.58289L201.411 0.356668C200.498 0.584998 199.585 0.898951 198.728 1.32707L199.185 3.86725C198.671 4.1812 198.158 4.5237 197.701 4.92328C197.33 5.23723 196.987 5.57973 196.673 5.92222L194.19 5.09453C193.62 5.86514 193.134 6.6643 192.763 7.52054L194.733 9.17593C194.333 10.2605 194.133 11.4022 194.105 12.5438L191.679 13.4857C191.736 14.399 191.907 15.3123 192.135 16.1971H194.704C195.104 17.2817 195.703 18.3377 196.474 19.2796L195.218 21.5629C195.874 22.2193 196.559 22.7901 197.301 23.3039L199.271 21.6485C200.327 22.2478 201.497 22.6474 202.667 22.8187L203.181 25.3588C204.094 25.4445 205.008 25.4159 205.892 25.3018L206.349 22.733C207.491 22.5047 208.604 22.0766 209.631 21.4487L211.629 23.047C211.943 22.8187 212.257 22.5903 212.542 22.3335C212.942 21.991 213.342 21.5914 213.684 21.2204L212.371 18.9656C213.085 18.0523 213.598 17.0533 213.941 15.9973L216.51 15.9402C216.738 15.0269 216.881 14.085 216.909 13.1432L214.54 12.2013ZM208.432 17.4529C205.807 19.7077 201.839 19.4223 199.556 16.7965C197.301 14.1707 197.587 10.2034 200.213 7.92011C202.838 5.63681 206.806 5.95076 209.089 8.57656C211.372 11.2024 211.058 15.1981 208.432 17.4529Z" fill="#C68BE0"/>
</svg>
