<svg width="250" height="100" viewBox="0 0 250 100" fill="none" xmlns="http://www.w3.org/2000/svg">
<path d="M76.9249 61.2366C80.8724 61.2366 84.1401 58.7983 84.1401 53.5412V43.9998C84.1401 38.7739 82.2693 36.1484 77.1182 36.1484H69.0111C67.6267 36.1484 66.9844 36.9716 66.9844 38.3249C66.9844 39.6781 67.608 40.5075 69.0111 40.5075H76.7378C78.9204 40.5075 79.6688 41.8171 79.6688 43.8127V45.7272H72.0419C70.5827 45.7272 69.8655 46.4007 69.8655 47.9411C69.8655 49.6685 70.5827 50.1986 72.0419 50.1986H79.6688V53.616C79.6688 55.6428 78.5775 56.8464 76.7378 56.8464L69.0361 56.8838C67.6891 56.8838 67.0093 57.707 67.0093 59.0602C67.0093 60.4135 67.6891 61.2366 69.0361 61.2366H76.9249Z" fill="#222222"/>
<path d="M170.345 43.7305H168.019C163.847 43.7305 160.953 46.1002 160.953 50.6838V54.4255C160.953 59.0466 164.034 61.2854 167.906 61.2854H170.457C174.33 61.2854 177.404 59.0715 177.404 54.4255V50.6838C177.404 46.1002 174.517 43.7305 170.345 43.7305ZM172.902 54.5128C172.902 56.0906 172.147 57.1819 170.12 57.1819H168.249C166.223 57.1819 165.468 56.0906 165.468 54.5128V50.609C165.468 48.8441 166.26 47.7902 168.287 47.7902H170.089C172.116 47.7902 172.908 48.8441 172.908 50.609L172.902 54.5128Z" fill="#222222"/>
<path d="M150.063 48.017H157.684C157.972 48.0492 158.263 48.0158 158.537 47.9194C158.81 47.823 159.058 47.6661 159.262 47.4603C159.466 47.2546 159.62 47.0054 159.714 46.7314C159.808 46.4573 159.839 46.1656 159.804 45.878C159.804 44.4873 159.093 43.6953 157.665 43.6953H147.843C146.303 43.6953 145.555 44.4125 145.555 45.878V59.1361C145.555 60.6765 146.303 61.2377 147.843 61.2377C149.384 61.2377 150.063 60.6765 150.063 59.1361V48.017Z" fill="#222222"/>
<path d="M135.145 43.6953H127.898C127.601 43.6999 127.307 43.7646 127.035 43.8854C126.762 44.0062 126.517 44.1807 126.314 44.3985C126.111 44.6163 125.954 44.8728 125.852 45.1527C125.75 45.4327 125.706 45.7302 125.722 46.0276V67.5176C125.722 68.3782 126.583 69.1639 128.011 69.1639C129.439 69.1639 130.224 68.3782 130.224 67.5176V61.2377H135.294C139.467 61.2377 142.36 58.8742 142.36 54.2781V50.5364C142.341 46.0276 139.279 43.6953 135.145 43.6953ZM137.851 54.2033C137.851 55.9806 137.059 57.0345 135.033 57.0345H130.224V48.017H135.07C137.103 48.017 137.851 49.1083 137.851 50.6986V54.2033Z" fill="#222222"/>
<path d="M115.612 43.6953H113.847C109.793 43.6953 106.75 46.2958 106.75 50.736V54.4777C106.75 58.8056 109.681 61.2128 113.697 61.2128H119.216C119.478 61.2009 119.735 61.1368 119.972 61.0241C120.209 60.9114 120.42 60.7524 120.595 60.5565C120.769 60.3607 120.903 60.1319 120.987 59.8836C121.072 59.6354 121.106 59.3728 121.087 59.1112C121.113 58.8481 121.084 58.5826 121.002 58.3312C120.92 58.0799 120.787 57.8482 120.612 57.6508C120.436 57.4534 120.221 57.2945 119.981 57.1841C119.741 57.0738 119.48 57.0143 119.216 57.0096H114.227C112.425 57.0096 111.265 56.1739 111.265 54.7022V54.4403H120.314C120.623 54.4646 120.935 54.424 121.228 54.3212C121.521 54.2184 121.789 54.0555 122.016 53.843C122.242 53.6306 122.422 53.3732 122.543 53.0873C122.665 52.8014 122.725 52.4933 122.721 52.1828V50.736C122.715 46.221 119.597 43.6953 115.612 43.6953ZM118.206 51.0041H111.259V50.7734C111.234 50.4067 111.288 50.0389 111.417 49.6946C111.545 49.3503 111.746 49.0374 112.005 48.7766C112.264 48.5158 112.575 48.3132 112.919 48.1822C113.262 48.0512 113.63 47.9949 113.996 48.017H115.35C117.221 48.017 118.206 49.0834 118.206 50.7734V51.0041Z" fill="#222222"/>
<path d="M101.262 61.2377C102.84 61.2377 103.557 60.6141 103.557 59.0987V45.7657C103.557 44.3751 102.84 43.6953 101.262 43.6953C99.8029 43.6953 99.0857 44.3751 99.0857 45.7657V50.1934H92.2259V45.7657C92.2259 44.3751 91.4713 43.6953 89.9684 43.6953C88.4654 43.6953 87.6797 44.3751 87.6797 45.7657V59.0987C87.6797 60.639 88.4343 61.2377 89.9684 61.2377C91.5025 61.2377 92.2259 60.6141 92.2259 59.0987V54.328H99.0857V59.0987C99.0857 60.639 99.8029 61.2377 101.262 61.2377Z" fill="#222222"/>
<path d="M35.5279 48.6952C35.5353 49.2472 35.4291 49.7949 35.2161 50.3041C35.0383 50.7804 34.7098 51.1855 34.2806 51.4578C33.5946 51.7414 32.849 51.8506 32.1104 51.7759H22.9058C22.1673 51.8506 21.4217 51.7414 20.7356 51.4578C20.3038 51.1856 19.9747 50.7776 19.8002 50.2979C19.3843 49.2634 19.3843 48.1083 19.8002 47.0738C19.9799 46.6019 20.3082 46.2014 20.7356 45.9326C21.4217 45.649 22.1673 45.5398 22.9058 45.6145H32.1104C32.849 45.5398 33.5946 45.649 34.2806 45.9326C34.7086 46.2063 35.0367 46.611 35.2161 47.0863C35.4291 47.5977 35.5352 48.1474 35.5279 48.7014M26.7972 61.1738C29.2662 63.6794 32.4248 65.3938 35.871 66.099C39.3172 66.8043 42.8953 66.4684 46.1501 65.1342C49.4049 63.8 52.1893 61.5277 54.1489 58.6065C56.1086 55.6853 57.155 52.2472 57.155 48.7295C57.155 45.2119 56.1086 41.7737 54.1489 38.8525C52.1893 35.9313 49.4049 33.659 46.1501 32.3248C42.8953 30.9906 39.3172 30.6547 35.871 31.36C32.4248 32.0652 29.2662 33.7796 26.7972 36.2852C26.1623 36.9777 25.8207 37.8895 25.8442 38.8287C25.8677 39.768 26.2545 40.6615 26.9233 41.3214C27.5921 41.9813 28.4907 42.3562 29.4302 42.3671C30.3697 42.3781 31.2768 42.0243 31.9608 41.3802C32.9209 40.3962 34.0656 39.611 35.3293 39.0696C36.593 38.5281 37.951 38.241 39.3257 38.2246C41.3339 38.3089 43.3027 38.8101 45.1067 39.6964C46.5057 40.3882 47.789 41.2928 48.9107 42.3779L48.9482 42.4216C49.0924 42.6012 49.184 42.8173 49.2129 43.0459C49.2418 43.2744 49.2069 43.5065 49.1119 43.7164C49.017 43.9263 48.8658 44.1058 48.6751 44.235C48.4844 44.3642 48.2616 44.438 48.0314 44.4484H44.1401C41.9761 44.4484 41.7267 44.704 41.022 45.9139C40.5294 46.7671 40.27 47.7349 40.27 48.7202C40.27 49.7054 40.5294 50.6732 41.022 51.5264C41.7079 52.7363 41.9574 52.9982 44.1401 52.9982H48.0314C48.261 53.0096 48.483 53.0842 48.6729 53.2139C48.8627 53.3435 49.013 53.5231 49.1072 53.7328C49.2014 53.9425 49.2359 54.1741 49.2067 54.4022C49.1775 54.6302 49.0859 54.8457 48.9419 55.0249V55.0624C47.819 56.1462 46.536 57.0506 45.1378 57.7439C43.3292 58.634 41.3527 59.1314 39.3382 59.2032C37.958 59.1845 36.5953 58.8921 35.3289 58.3429C34.0625 57.7938 32.9177 56.9988 31.9608 56.004C31.2771 55.3383 30.3588 54.9685 29.4045 54.9748C28.4503 54.9812 27.5369 55.3631 26.8622 56.0378C26.1874 56.7126 25.8055 57.6259 25.7992 58.5802C25.7929 59.5344 26.1626 60.4528 26.8284 61.1364" fill="#E30613"/>
<path d="M192.943 48.017C194.296 48.017 195.007 47.2063 195.007 45.853C195.007 44.4998 194.296 43.6953 192.943 43.6953H181.238C179.884 43.6953 179.211 44.4998 179.211 45.853C179.211 47.2063 179.884 48.017 181.238 48.017H184.873V59.1361C184.873 60.6016 185.584 61.2377 187.087 61.2377C188.59 61.2377 189.345 60.6141 189.345 59.1361V48.017H192.943Z" fill="#E30613"/>
<path d="M229.275 46.2864C229.328 46.0817 229.366 45.8732 229.387 45.6628C229.425 44.4155 228.377 43.7046 226.949 43.6672C225.521 43.6298 225.147 44.4966 224.766 45.4008L224.037 47.7145C223.326 49.629 222.384 50.0842 220.881 50.0842H218.592V45.9309C218.592 44.5777 218.1 43.7108 216.372 43.7108C214.645 43.7108 214.121 44.5777 214.121 45.9309V59.0269C214.121 60.6421 214.913 61.2782 216.298 61.2782C217.95 61.2782 218.592 60.5673 218.592 58.9521V53.9631H220.919C222.646 53.9631 223.7 54.3747 224.373 56.5137L225.309 59.4073C225.646 60.3116 225.982 61.247 227.41 61.247C228.839 61.247 229.905 60.6234 229.905 59.3762C229.918 59.1655 229.892 58.9542 229.83 58.7525L228.67 55.4099C228.047 53.6825 227.423 52.5163 225.702 51.9551C227.167 51.3876 227.766 50.3399 228.371 48.6873L229.275 46.2864Z" fill="#E30613"/>
<path d="M203.685 61.2353C207.963 61.2353 210.894 59.0152 210.894 54.3755V50.6338C210.894 46.044 208.001 43.668 203.835 43.668H198.534C198.005 43.7125 197.515 43.9642 197.17 44.3683C196.826 44.7724 196.655 45.2962 196.695 45.8257C196.669 46.0894 196.697 46.3556 196.776 46.6084C196.855 46.8612 196.984 47.0955 197.156 47.2974C197.328 47.4992 197.538 47.6645 197.775 47.7835C198.012 47.9024 198.27 47.9725 198.534 47.9897H203.573C205.525 47.9897 206.348 48.9064 206.386 50.559H200.867C199.513 50.559 198.728 51.1826 198.728 52.4298C198.728 53.8953 199.513 54.3007 200.867 54.3007H206.386C206.311 55.7662 205.6 57.0197 203.611 57.0197H198.347C198.087 57.0305 197.831 57.094 197.596 57.2064C197.361 57.3188 197.151 57.4777 196.979 57.6736C196.807 57.8695 196.677 58.0982 196.595 58.346C196.514 58.5938 196.485 58.8554 196.508 59.115C196.485 59.3776 196.517 59.642 196.6 59.8921C196.683 60.1422 196.816 60.3728 196.991 60.5699C197.166 60.767 197.379 60.9265 197.618 61.0388C197.856 61.151 198.115 61.2136 198.378 61.2229L203.685 61.2353Z" fill="#E30613"/>
</svg>
