<svg width="250" height="100" viewBox="0 0 250 100" fill="none" xmlns="http://www.w3.org/2000/svg">
<g style="mix-blend-mode:luminosity" opacity="0.4">
<path d="M67.9661 32.6141C57.5164 26.5239 57.2109 39.2781 57.2109 39.2781C57.2109 39.2781 56.0238 60.0012 49.6419 60.0012C38.794 60.0012 30 50.1139 30 37.9172C30 33.0278 31.4369 28.6937 33.8292 25.0347C38.5413 20.1648 43.1495 18.5002 49.6487 18.5002C60.4966 18.5002 66.6439 26.8116 67.9661 32.6141Z" fill="#5B5B5B"/>
<path d="M68.5292 32.5924C58.0796 26.5022 58.2929 37.696 58.2929 37.696C58.2929 37.696 59.9224 56.608 53.5405 56.608C42.6926 56.608 31.082 48.5318 31.082 36.3352C31.082 31.4457 32.2567 27.3294 33.8555 25.0141C38.5676 20.1442 42.5493 18.8545 49.0484 18.8545C59.8964 18.8545 67.207 26.7899 68.5292 32.5924Z" fill="black"/>
<path fill-rule="evenodd" clip-rule="evenodd" d="M67.2707 48.1464C68.1918 46.3217 68.7126 44.2471 68.7126 42.0468C68.7126 34.7506 62.9864 28.8359 55.9227 28.8359C49.7525 28.8359 44.6027 33.3491 43.3987 39.3538L36.9999 36.9969C36.9999 36.9969 31.082 44.5349 31.082 56.135C31.082 62.8187 36.9999 72.0832 36.9999 72.0832L39.3823 71.1085L41.4399 74.7363L50.807 80.0425L61.4737 72.0832L63.1522 72.5705L67.4297 65.8564L68.712 56.135L67.4297 48.205L67.2707 48.1464Z" fill="black"/>
<path fill-rule="evenodd" clip-rule="evenodd" d="M95.3533 32.0605C97.1742 32.0605 98.6977 32.2649 99.9239 32.6736C101.098 33.0461 102.133 33.7623 102.896 34.7295C103.651 35.6886 104.185 36.9685 104.497 38.5695C104.81 40.1704 104.965 42.147 104.965 44.4993H97.0907C97.0907 42.7058 96.9807 41.4414 96.7607 40.7061C96.5408 39.9707 96.0216 39.6017 95.2032 39.5988H95.1565C94.5279 39.5988 94.088 39.8348 93.8369 40.3068C93.5858 40.7788 93.4603 41.3923 93.4603 42.1475V55.7161C93.4424 56.3414 93.5745 56.9618 93.8454 57.5256C94.0974 58.0127 94.5831 58.2562 95.3066 58.2562H95.3533C95.982 58.2562 96.3969 58.0283 96.6022 57.5723C96.8075 57.1164 96.908 56.4977 96.908 55.7118V54.1543H95.7753V47.7969H104.915V58.1982C104.915 61.0158 104.207 65.2281 99.3844 65.2281H93.8454C91.1764 65.2281 89.1106 64.9931 87.6508 63.3875C86.191 61.7818 85.459 59.4923 85.459 56.509V41.3418C85.459 38.359 86.2613 36.0661 87.866 34.4633C89.4707 32.8605 91.9509 32.0596 95.3066 32.0605H95.3533ZM123.244 32.6269L128.241 65.2281H120.135L119.616 60.0926H114.999L114.481 65.2281H106.378L111.371 32.6269H123.244ZM118.815 52.2726L117.308 37.6675L115.8 52.2726H118.815ZM150.381 65.2281L146.098 53.7324C148.391 52.2882 149.537 49.8387 149.537 46.3838V42.0483C149.533 38.8125 148.637 36.4333 146.847 34.9108C145.057 33.3882 142.341 32.6269 138.697 32.6269H130.027V65.2281H138.037V55.4768H139.12L141.9 65.2281H150.381ZM138.691 40.1666C140.579 40.1666 141.523 41.0162 141.523 42.7152V45.6731C141.523 47.3722 140.579 48.2217 138.691 48.2217H138.032V40.1666H138.691ZM202.301 44.6026L199.145 65.2281H207.248L207.762 60.0926H212.379L212.898 65.2281H220.999L216.006 32.6269H204.133L202.536 43.0663C202.599 42.9844 202.662 42.9014 202.723 42.8168C204.091 40.9436 205.657 39.3379 207.281 37.8073C207.301 37.7861 207.327 37.7698 207.354 37.7595C207.382 37.7492 207.412 37.7452 207.441 37.7479C207.335 37.8962 207.221 38.038 207.098 38.1726C205.616 39.648 204.378 41.3853 203.237 43.2147C202.939 43.692 202.625 44.1524 202.301 44.6026ZM208.562 52.2726L210.07 37.6675L211.577 52.2726H208.562ZM152.406 65.2281V32.6269H160.416V55.0215C160.409 55.0259 160.402 55.0303 160.395 55.0346C159.541 55.5717 158.762 56.2182 158.077 56.9574C157.545 57.5307 157.023 58.1184 156.5 58.706L156.5 58.7064C156.326 58.9023 156.152 59.0983 155.977 59.2937C155.604 59.741 155.151 60.1154 154.642 60.3981C154.344 60.5506 154.05 60.72 153.755 60.8894L153.755 60.8894L153.755 60.8896C153.639 60.956 153.524 61.0223 153.409 61.0876C153.367 61.1159 153.327 61.1476 153.291 61.1825L153.3 61.2434L153.866 61.0806L153.889 61.1499L152.599 62.2076L152.602 62.2572C152.697 62.2473 152.791 62.2317 152.885 62.2105C154.095 61.872 155.307 61.5138 156.474 60.8809C157.081 60.5488 157.673 60.1664 158.265 59.7839L158.265 59.7839L158.266 59.7833C158.431 59.6769 158.596 59.5704 158.761 59.465C159.033 59.292 159.305 59.1197 159.577 58.9472L159.578 58.9463L159.579 58.9461C159.858 58.7695 160.137 58.5928 160.416 58.4153V63.7952L160.341 63.8383L160.212 63.9121L160.212 63.9122C159.479 64.3328 158.745 64.7541 158.03 65.2281H152.406ZM163.84 65.2281H172.561C172.757 65.0702 172.952 64.9105 173.145 64.7492C174.655 63.4664 176.174 62.2015 177.701 60.9545C178.271 60.4925 178.807 59.9923 179.307 59.4577V57.4548H175.808C175.68 57.5138 175.552 57.5718 175.424 57.6286C174.256 58.1468 173.159 58.8845 172.081 59.6675C171.94 59.7666 171.805 59.86 171.667 59.9507C171.651 59.9665 171.637 59.984 171.626 60.0031L171.858 60.0923C171.803 60.1338 171.747 60.1721 171.688 60.2069C170.894 60.5836 170.092 60.8483 169.281 60.8455C168.977 60.858 168.689 60.9874 168.478 61.2066C168.192 61.4629 167.919 61.7347 167.662 62.0207C166.942 62.8409 166.126 63.5724 165.233 64.1998C164.854 64.4749 164.479 64.754 164.103 65.0331L164.103 65.0332L164.102 65.0333L164.102 65.0333L164.102 65.0334C164.015 65.0983 163.927 65.1633 163.84 65.2281ZM171.817 54.9438V50.096C170.951 50.7161 170.086 51.3363 169.221 51.9565C168.922 52.1674 168.682 52.4517 168.525 52.7819C168.377 53.0935 168.131 53.3485 167.825 53.5083C167.716 53.5678 167.607 53.6269 167.498 53.6861C166.657 54.141 165.816 54.5962 165.022 55.1989C164.849 55.3296 164.676 55.4612 164.504 55.5928L164.502 55.5942L164.501 55.5947C164.27 55.7708 164.039 55.947 163.807 56.1211V61.6195C163.928 61.5366 164.05 61.4536 164.171 61.3707C164.76 60.9683 165.349 60.5663 165.941 60.1772C167.427 59.2087 168.773 58.0109 170.068 56.6856C170.645 56.0967 171.229 55.5181 171.817 54.9438ZM171.817 45.4579V32.6269H163.807V52.1856C164.482 51.5628 165.158 50.9417 165.843 50.3381C166.932 49.373 167.932 48.311 168.829 47.165C169.121 46.7969 169.509 46.5166 169.951 46.3551C170.59 46.1065 171.211 45.805 171.817 45.4579ZM181.096 57.2678V53.119C181.601 52.7235 182.104 52.3213 182.593 51.8942C182.534 51.9055 182.485 51.9438 182.437 51.9819C182.412 52.001 182.388 52.0201 182.362 52.0358C182.261 52.0978 182.16 52.1603 182.059 52.2229L182.057 52.2239L182.057 52.2239L182.057 52.2245C181.738 52.4217 181.419 52.6191 181.096 52.8032V52.2598C181.41 51.9871 181.724 51.7178 182.049 51.4552C183.307 50.4216 184.512 49.313 185.523 47.9155C185.645 47.7523 185.778 47.5967 185.919 47.4496C186.102 47.2542 186.167 47.267 186.243 47.5077C186.266 47.5802 186.28 47.6552 186.297 47.7498L186.297 47.7499L186.306 47.7985L186.314 47.8433C186.42 47.7086 186.525 47.5758 186.63 47.4439C187.235 46.6815 187.815 45.951 188.26 45.0794C188.499 44.5883 188.782 44.1221 189.106 43.6862V49.9426C188.813 50.239 188.534 50.5501 188.271 50.8747C187.624 51.669 186.967 52.452 186.184 53.0453L186.06 53.1393L186.06 53.1394C185.603 53.4866 185.145 53.8346 184.673 54.1398C183.327 54.9957 182.122 56.0509 181.096 57.2678ZM181.096 61.8263C182.984 60.393 184.673 58.6067 186.324 56.7691C186.365 56.7151 186.401 56.6578 186.432 56.5978L186.391 56.5553L183.342 59.2781L183.281 59.2186C183.329 59.1044 183.388 58.9953 183.458 58.893C183.663 58.6569 183.866 58.4194 184.07 58.1817L184.071 58.1811L184.071 58.1808L184.071 58.1806L184.071 58.1805L184.071 58.1804C184.601 57.563 185.132 56.9441 185.676 56.3444C186.643 55.2739 187.547 54.1455 188.255 52.8258C188.493 52.349 188.778 51.8983 189.106 51.4804V57.4548H191.459C190.755 58.2313 189.988 58.951 189.166 59.6066C188.924 59.7951 188.693 60.0062 188.462 60.2173C188.393 60.2806 188.324 60.3439 188.254 60.4066L182.918 65.2281H181.096V61.8263ZM179.307 63.0662C178.709 63.4526 178.104 63.8232 177.5 64.1939L177.5 64.194C177.047 64.4718 176.594 64.7495 176.144 65.0338C176.04 65.0986 175.936 65.1633 175.831 65.2281H179.307V63.0662ZM187.451 65.2281H187.229C187.266 65.1808 187.303 65.1339 187.344 65.0918C188.332 64.0601 189.323 63.0322 190.317 62.008C191.634 60.6758 192.823 59.2239 193.871 57.6711C193.918 57.6001 193.963 57.5279 194.007 57.4548H196.598V65.2281H188.627C188.92 64.947 189.213 64.6661 189.506 64.3853L189.506 64.3849L189.507 64.3845L189.507 64.3841L189.509 64.3824L189.511 64.3806C189.881 64.026 190.251 63.6714 190.62 63.3163C190.652 63.2854 190.681 63.2504 190.711 63.2151L190.711 63.215L190.734 63.1877C190.743 63.1772 190.752 63.1666 190.762 63.1563L190.74 63.118L187.451 65.2281ZM193.771 57.4548H193.314C192.949 57.9433 192.585 58.434 192.221 58.9247L192.221 58.9255C192.058 59.1455 191.895 59.3655 191.731 59.5854C191.683 59.6634 191.642 59.7454 191.607 59.8303L191.659 59.8714L193.771 57.4548ZM189.106 41.9012C189.002 41.9931 188.895 42.0826 188.786 42.1697C188.408 42.4747 188.021 42.7657 187.635 43.0567C186.983 43.548 186.331 44.039 185.717 44.5966C184.401 45.793 183.042 46.8875 181.654 47.9282C181.473 48.0652 181.286 48.1911 181.096 48.3118V41.2597C181.392 41.0669 181.602 40.7686 181.686 40.4253C181.751 40.0742 181.933 39.8519 182.136 39.6098C184.067 37.3239 185.99 35.0434 187.798 32.6269H189.106V41.9012ZM187.648 32.6269H181.096V38.5894C182.608 37.642 183.989 36.5014 185.206 35.1964" fill="black"/>
<path d="M57.3012 55.2593C55.9317 56.3 54.3517 56.5502 54.3517 56.5502C55.4693 55.7404 57.6284 53.4655 56.3764 50.9978C55.1243 48.5301 50.342 46.9307 50.342 46.9307C50.342 46.9307 45.5638 48.531 44.3085 50.9978C43.0533 53.4647 45.2148 55.7404 46.3332 56.5502C46.3332 56.5502 44.7524 56.2992 43.3837 55.2585C43.3837 55.2585 40.03 58.1886 39.6445 61.5819C39.6445 61.5819 42.7091 59.3265 50.3429 59.3265C57.9766 59.3265 61.042 61.5819 61.042 61.5819C60.6557 58.1894 57.3012 55.2593 57.3012 55.2593ZM50.9033 55.2399L50.3437 56.1656L49.7849 55.2399C46.1801 54.9702 45.525 52.2904 45.525 52.2904L47.3172 51.2497L46.8313 50.4017L50.3396 52.522L53.8528 50.4017L53.3669 51.2497L55.1591 52.2904C55.1591 52.2904 54.5056 54.9702 50.9009 55.2399H50.9033Z" fill="white"/>
<path d="M60.2119 37.5985C60.2119 37.5985 63.3704 37.9646 64.8768 39.4879C64.8768 39.4879 62.5443 35.1309 57.609 35.1309C52.6737 35.1309 50.3413 37.8107 50.3413 37.8107C50.3413 37.8107 48.0089 35.1309 43.0744 35.1309C38.1399 35.1309 35.8066 39.4879 35.8066 39.4879C37.3098 37.9646 40.4715 37.5985 40.4715 37.5985C37.9657 38.3331 36.0358 41.3239 36.0569 44.9067C36.0779 48.4896 37.4644 51.0561 38.8331 51.3857C40.2018 51.7153 40.9339 50.4025 42.978 48.4702C45.0221 46.5378 47.1026 46.2341 47.1026 46.2341C45.0407 45.3084 43.6712 45.8486 42.3026 46.2916C40.9339 46.7346 39.8163 46.8893 39.0259 45.2898C38.2354 43.6903 39.7393 41.9353 39.7393 41.9353C38.8906 42.0706 38.0816 42.7452 38.0816 42.7452C38.8525 40.9133 39.8357 40.412 41.4352 40.3545C43.0347 40.297 43.7684 40.7206 45.4448 41.6657C47.1213 42.6108 48.5871 43.709 49.4553 42.9955C50.3235 42.282 49.0309 39.8726 49.0309 39.8726C49.9752 40.4897 50.3413 41.7807 50.3413 41.7807C50.3413 41.7807 50.7082 40.4897 51.6525 39.8726C51.6525 39.8726 50.3567 42.282 51.2281 42.9955C52.0995 43.709 53.5613 42.61 55.2385 41.6657C56.9158 40.7214 57.6479 40.297 59.2482 40.3545C60.8485 40.412 61.8309 40.919 62.5994 42.7476C62.5994 42.7476 61.7895 42.073 60.9416 41.9378C60.9416 41.9378 62.4455 43.6919 61.6551 45.2922C60.8647 46.8925 59.7471 46.7378 58.3784 46.294C57.0097 45.8502 55.6402 45.3109 53.5775 46.2365C53.5775 46.2365 55.6597 46.5451 57.703 48.4726C59.7463 50.4001 60.4792 51.712 61.8479 51.3881C63.2165 51.0641 64.6014 48.4961 64.6241 44.9092C64.6468 41.3223 62.7176 38.3331 60.2119 37.5985Z" fill="white"/>
<path d="M57.611 35.1328C52.6765 35.1328 50.3432 37.8127 50.3432 37.8127C50.3432 37.8127 48.0108 35.1328 43.0763 35.1328C39.4028 35.1328 37.1724 37.5462 36.2734 38.7772C38.1944 36.9056 43.3266 33.3349 50.3457 39.4672C57.3656 33.3349 62.4977 36.9056 64.4187 38.7772C63.5149 37.5462 61.2845 35.1328 57.611 35.1328Z" fill="#C4C4C4"/>
<path d="M42.3014 46.2947C40.9327 46.7385 39.8151 46.8924 39.0246 45.2929C38.2342 43.6935 39.7381 41.9385 39.7381 41.9385C39.0579 42.0462 38.4043 42.5005 38.1711 42.6771C37.4819 43.8263 37.0065 45.9084 38.6262 49.3317C38.6262 49.3317 37.2389 48.9228 36.1602 46.532C36.5124 49.2499 37.677 51.1086 38.8327 51.3847C40.2014 51.7087 40.9335 50.4016 42.9776 48.4692C45.0217 46.5369 47.1022 46.2332 47.1022 46.2332C45.0395 45.3116 43.67 45.8517 42.3014 46.2947Z" fill="#C4C4C4"/>
<path d="M62.0237 49.3317C63.6621 45.8688 63.1575 43.7777 62.4586 42.6374C62.1889 42.4406 61.5775 42.0389 60.9442 41.9385C60.9442 41.9385 62.4481 43.6926 61.6577 45.2929C60.8672 46.8932 59.7496 46.7385 58.381 46.2947C57.0123 45.8509 55.6428 45.3116 53.5801 46.2372C53.5801 46.2372 55.6622 46.5458 57.7055 48.4733C59.7488 50.4008 60.4817 51.7127 61.8504 51.3888C63.0142 51.1094 64.1917 49.2135 64.5303 46.4486C63.445 48.9138 62.0237 49.3317 62.0237 49.3317Z" fill="#C4C4C4"/>
<path d="M61.0363 61.5413C59.8053 60.5986 56.6671 58.655 51.4613 58.4395C44.5507 58.1504 43.9141 59.2777 43.1334 58.2946C42.3527 57.3114 46.3332 56.5493 46.3332 56.5493C46.3332 56.5493 44.7524 56.2982 43.3837 55.2576C43.3837 55.2576 40.03 58.1877 39.6445 61.581C39.6445 61.581 42.7091 59.3255 50.3429 59.3255C57.9766 59.3255 61.042 61.581 61.042 61.581C61.0412 61.5705 61.0379 61.5551 61.0363 61.5413Z" fill="#C4C4C4"/>
<path d="M68.9648 47.4026C69.5771 46.1624 69.9677 44.8245 70.1189 43.4497C70.22 42.534 70.2105 41.6095 70.0906 40.6961C69.9697 39.7875 69.7461 38.8955 69.424 38.0373C68.7875 36.3269 67.3751 34.2172 66.6592 33.4308C65.9432 32.6445 65.5164 32.2914 64.7382 31.8289C64.8127 31.8646 66.4178 32.3019 67.4698 32.9781C68.4862 33.6309 69.6986 34.5169 69.6986 34.5169L68.717 32.7667C68.6943 32.6858 68.6773 32.6339 68.6571 32.5708L68.5972 32.3902C68.5567 32.2711 68.5162 32.1545 68.4716 32.0379C68.3847 31.8052 68.2935 31.5757 68.1979 31.3495C68.0076 30.896 67.7994 30.4521 67.5784 30.0156C67.135 29.1438 66.6333 28.3029 66.0769 27.4986C64.9666 25.8878 63.6378 24.4392 62.1288 23.1941C60.6183 21.9571 58.9366 20.9456 57.136 20.1912C56.2404 19.8173 55.3204 19.5047 54.3824 19.2558C53.4472 19.0094 52.4979 18.8201 51.5398 18.6889C49.6293 18.4184 46.3437 18.228 43.6306 18.9812C40.9176 19.7344 39.7433 20.3896 38.1495 21.4367C37.3562 21.9626 36.5914 22.5303 35.8584 23.1374C35.1227 23.7378 34.4309 24.3901 33.7883 25.0892C34.1228 24.7539 34.4775 24.4413 34.8412 24.1352C35.2048 23.8291 35.57 23.5359 35.9515 23.2524C36.7065 22.6869 37.4904 22.1612 38.3001 21.6773C39.9198 20.7054 41.4197 20.1636 43.2492 19.8405C45.0787 19.5174 46.5818 19.3546 48.911 19.4445C51.364 19.5425 53.6592 20.0753 54.1152 20.2098C55.0012 20.4736 55.869 20.795 56.7132 21.1719C58.3946 21.9264 59.9584 22.9195 61.3562 24.1206C62.7494 25.3211 63.9691 26.7092 64.9803 28.2453C65.4859 29.011 65.9412 29.8088 66.3433 30.6336C66.4545 30.863 66.5612 31.0941 66.6632 31.3268C66.4923 31.2401 64.9341 30.4449 63.0601 30.2991C61.1861 30.1533 59.9446 30.2489 59.9446 30.2489C59.9446 30.2489 63.3994 32.463 64.7382 33.6795C66.0769 34.8959 67.3297 37.1101 67.8707 38.6083C68.7028 40.8479 68.7105 43.3105 67.8926 45.5553C67.7581 45.9246 67.6026 46.2858 67.4269 46.6373C67.3386 46.8114 67.2455 46.9831 67.1483 47.1491C67.0997 47.2301 67.0495 47.3111 66.9993 47.3921L66.9232 47.5071L66.8859 47.5606L66.8576 47.6002L66.579 47.9874L66.7361 48.4198C67.1107 49.4475 67.422 50.4972 67.6682 51.5629C67.9119 52.6251 68.0792 53.7033 68.1687 54.7894C68.3459 56.9592 68.1957 59.1432 67.7233 61.2683C67.244 63.3976 66.4633 65.4475 65.4047 67.3561C64.9082 68.255 63.5711 70.3834 62.9678 71.2151L63.2237 68.0307C63.2237 68.0307 60.986 70.3834 59.8288 71.5317C58.6715 72.6801 57.8349 73.456 56.8063 74.3703C55.7778 75.2847 54.7007 76.152 53.5871 76.9497C53.0299 77.3547 52.4622 77.7361 51.8864 78.0989C51.5981 78.282 51.3057 78.4569 51.0117 78.6262C50.8652 78.7072 50.717 78.793 50.5696 78.8691L50.4392 78.9388L50.3047 78.8707C50.1501 78.7898 49.9962 78.7088 49.8423 78.6278C49.5354 78.4658 49.2292 78.2901 48.9255 78.1135C48.3198 77.7599 47.7229 77.3882 47.1349 76.9983C45.9585 76.2208 44.8232 75.3828 43.7335 74.4878C42.6427 73.5943 41.6015 72.6418 40.6147 71.6346C39.6331 70.6231 37.6069 68.353 37.6069 68.353L37.6563 71.4305C37.4219 71.1606 37.1936 70.8852 36.9711 70.6045C36.3145 69.7733 35.7087 68.9033 35.157 67.9991C32.9337 64.3396 31.6445 60.1895 31.4033 55.9143C31.3421 54.8435 31.3421 53.77 31.4033 52.6991C31.4659 51.6254 31.5832 50.5555 31.7548 49.4937C31.5236 50.5474 31.3514 51.6133 31.2389 52.6862C30.6388 58.1328 31.7697 63.6301 34.4711 68.3976C35.0059 69.3523 35.601 70.272 36.2528 71.1511C36.5805 71.5906 36.9236 72.0193 37.2821 72.4372C37.4619 72.6461 37.6463 72.8516 37.8352 73.0535C37.9292 73.155 38.0256 73.2551 38.1244 73.3539C38.224 73.4552 38.3179 73.5483 38.4337 73.6544L39.7295 74.8449C39.7295 74.8449 39.3424 73.7921 39.1756 73.0632C39.0745 72.6437 39.049 72.2096 39.1003 71.7812C39.4291 72.1651 39.3829 72.1051 39.7279 72.472C40.7244 73.5362 41.7789 74.5446 42.8864 75.4928C43.4403 75.9666 44.0032 76.4282 44.5822 76.8696C45.1613 77.3109 45.7501 77.741 46.3518 78.1532C46.9535 78.5654 47.5666 78.9631 48.1902 79.3429C48.5036 79.5324 48.8186 79.7179 49.1393 79.8977C49.3013 79.9875 49.4633 80.0766 49.6253 80.1633L49.8682 80.2929C49.9492 80.3366 50.0302 80.3739 50.1274 80.4233L50.4343 80.5731L50.7453 80.4257L50.8822 80.3609L51.0085 80.2994L51.2515 80.1738C51.4134 80.0928 51.5754 80.0029 51.7309 79.9147C52.0473 79.7387 52.3586 79.557 52.6647 79.3696C53.2786 78.9963 53.8795 78.6019 54.4626 78.1921C55.632 77.372 56.7594 76.4935 57.8405 75.56C58.9204 74.626 59.9551 73.6463 60.9447 72.621C61.1359 72.4229 61.3248 72.2231 61.5117 72.0217C61.4444 72.5373 61.349 73.0488 61.2258 73.554C61.0249 74.3695 60.5941 75.7479 60.5941 75.7479L62.6722 73.8042L62.7653 73.7168L62.8463 73.6358L63.0083 73.4738C63.1144 73.3669 63.2164 73.26 63.3185 73.1499C63.5209 72.9339 63.7183 72.715 63.9105 72.4931C64.2943 72.0493 64.6609 71.5925 65.0103 71.1228C65.7106 70.186 66.3465 69.2027 66.9135 68.1797C68.0581 66.1342 68.9054 63.936 69.4297 61.6514C69.9452 59.3546 70.1063 56.9924 69.9075 54.6469C69.7154 52.4583 69.244 50.3033 68.5048 48.2344C68.5494 48.1623 68.5939 48.0902 68.636 48.0181C68.7535 47.814 68.862 47.6091 68.9648 47.4026Z" fill="#434343"/>
<path d="M70.451 40.8512C70.3295 39.9401 70.1627 38.7755 69.8412 37.9227C69.2046 36.2123 68.6604 35.0331 67.9437 34.2467C67.2269 33.4603 66.2389 32.5776 65.4606 32.1184C65.5351 32.154 66.9338 32.8141 67.9858 33.4903C69.0013 34.1431 70.1862 34.9205 70.1862 34.9205C70.1862 34.9205 69.4443 30.7262 67.7857 27.9249C66.2421 25.3188 63.9251 23.3621 62.4406 22.2963C60.9561 21.2306 58.7258 19.9575 56.4071 19.2043C54.0885 18.4511 52.4372 18.2243 50.3833 18.0551C48.3295 17.8858 45.5671 18.0948 42.8516 18.8479C40.1361 19.6011 38.9221 20.5154 37.8402 21.3051C36.7582 22.0947 36.4512 22.5085 35.7191 23.1143C34.987 23.7201 34.4233 24.385 33.7852 25.0888C34.1196 24.7535 34.4744 24.4409 34.838 24.1347C35.2016 23.8286 35.5669 23.5354 35.9483 23.252C36.7033 22.6865 37.4872 22.1607 38.2969 21.6768C39.9166 20.705 41.4165 20.1632 43.246 19.84C45.0755 19.5169 46.5786 19.3541 48.9078 19.444C51.3609 19.542 53.656 20.0749 54.112 20.2093C54.998 20.4732 55.8659 20.7945 56.71 21.1714C58.3915 21.9259 59.9552 22.919 61.353 24.1202C62.7462 25.3206 63.9659 26.7087 64.9771 28.2448C65.4833 29.0107 65.9392 29.8088 66.3417 30.6339C66.453 30.8634 66.5596 31.0944 66.6616 31.3272C66.4908 31.2405 64.9326 30.4452 63.0585 30.2994C61.1845 30.1537 59.943 30.2492 59.943 30.2492C59.943 30.2492 63.3979 32.4634 64.7366 33.6798C66.0753 34.8962 67.3282 37.1104 67.8691 38.6087C68.7012 40.8483 68.7089 43.3109 67.891 45.5557C67.7565 45.9249 67.6011 46.2862 67.4253 46.6377C67.3371 46.8118 67.2439 46.9835 67.1468 47.1495C67.0982 47.2305 67.0479 47.3115 66.9977 47.3925L66.9216 47.5075L66.8844 47.5609L66.856 47.6006L66.5774 47.9877V47.9942C67.2223 48.1054 67.8743 48.1704 68.5284 48.1885C68.5632 48.1319 68.8969 47.7399 68.9989 47.5334C69.2067 47.1399 69.3907 46.7342 69.5496 46.3186C69.859 45.4544 70.0922 44.7126 70.2542 43.8606C70.4162 43.0086 70.5709 41.7623 70.451 40.8512Z" fill="#858585"/>
<path d="M68.5035 48.2334C68.5035 48.2334 69.3944 52.0179 69.3466 55.7085C69.2988 59.399 68.0751 63.1212 68.0751 63.1212C68.0063 63.3641 67.9245 63.5949 67.85 63.8322L67.735 64.1869C67.6953 64.3044 67.654 64.421 67.6086 64.5376C67.522 64.7717 67.441 65.0065 67.3495 65.2381C66.986 66.1703 66.5635 67.0784 66.0845 67.9569L65.9946 68.1188L65.8998 68.2808L65.7087 68.6048C65.6455 68.7133 65.5751 68.8194 65.5087 68.9287C65.4422 69.038 65.375 69.1433 65.3021 69.2478L65.0875 69.5644L64.8624 69.8762C64.7814 69.9791 64.7053 70.0819 64.6194 70.1856C64.5336 70.2893 64.4574 70.3832 64.3457 70.5096L61.9461 73.285C62.0756 72.7629 62.1727 72.2333 62.2368 71.6992C62.3388 70.8708 62.3769 70.3063 62.4376 69.8835C62.3097 70.1354 61.7606 70.7436 59.8096 72.7699C57.9712 74.6787 55.6793 76.4783 54.8937 77.0282C52.8513 78.4624 50.4265 79.7364 50.4265 79.7364C48.9556 79.0088 47.5339 78.1856 46.1707 77.2719C44.1703 75.9162 42.17 74.1531 41.1949 73.1959C39.1751 71.2125 38.3231 70.0933 38.3231 70.0933C38.3081 70.5967 38.3244 71.1006 38.3717 71.6021C38.4527 72.4524 38.5725 73.0663 38.5725 73.0663L37.3245 71.713C36.0555 70.1792 34.9497 68.5173 34.0251 66.7542C33.5669 65.8729 33.1592 64.9663 32.8039 64.0387L32.6694 63.6921C32.6233 63.5771 32.5884 63.4581 32.5455 63.3414L32.3026 62.6369C32.1608 62.1623 32.011 61.6893 31.8976 61.2074C31.4075 59.2902 31.1417 57.3226 31.1056 55.344C31.0999 55.029 31.3178 51.8665 31.3712 51.5895C31.1906 52.5006 30.9711 55.0857 30.976 55.5951C30.9898 56.4576 30.8626 59.1148 31.4255 61.5824C31.9883 64.0501 33.4688 67.7835 34.7581 69.9005C36.0474 72.0175 39.8416 75.1323 39.8416 75.1323C39.8416 75.1323 39.5176 74.1531 39.3954 73.4129C39.2731 72.6727 39.2366 72.2986 39.2366 72.2986C39.5606 72.6816 40.7009 74.5289 43.3289 76.6581C45.9569 78.7872 50.4241 81.2962 50.4241 81.2962C50.4241 81.2962 54.2078 79.0407 56.8447 77.0152C59.4816 74.9897 60.958 72.8161 61.1459 72.6152C61.0572 73.2637 60.9306 73.9065 60.7669 74.5403C60.5377 75.3445 60.332 75.9786 60.332 75.9786C60.332 75.9786 63.2588 73.7555 64.4623 72.2589C65.6658 70.7622 66.8692 69.0316 67.4345 68.0079C68.5683 65.9622 69.1312 64.5036 69.6446 62.2109C70.1581 59.9181 70.4407 57.1087 70.2512 54.769C69.9524 51.0299 68.5035 48.2334 68.5035 48.2334Z" fill="#828282"/>
<path d="M69.9303 40.7968C69.8088 39.8857 69.318 38.5591 68.9973 37.7063C68.3607 35.9959 67.0285 34.1778 65.9271 33.1193C64.8257 32.0608 62.6358 30.9326 62.6358 30.9326C62.6358 30.9326 64.4175 31.1643 65.7384 31.5716C66.5668 31.834 67.3605 32.1954 68.1024 32.6479C68.1024 32.6479 67.0147 29.5308 65.7643 27.7661C64.5139 26.0014 63.0464 24.6627 61.5368 23.4268C60.0272 22.1909 58.2277 21.0563 56.561 20.3995C54.8943 19.7427 52.9085 19.1143 49.1021 18.9653C47.5512 18.9037 45.8627 18.8843 43.4938 19.4139C41.125 19.9436 39.9879 20.453 38.1082 21.6451C36.2285 22.8372 34.0824 24.7598 33.7852 25.0895C33.9142 24.9604 34.0459 24.8346 34.1804 24.7121C34.5092 24.4019 35.9904 23.0923 38.2046 21.7828C40.3102 20.5388 42.2086 19.8116 46.0489 19.5394C49.8893 19.2673 53.3944 19.8634 55.3664 20.6263C59.504 22.2363 62.8982 25.5802 63.7121 26.5334C65.3934 28.5022 66.6203 31.3052 66.6203 31.3052C66.1579 31.0557 65.5035 30.6184 63.5688 30.3544C62.3669 30.1956 61.152 30.1601 59.943 30.2483C59.943 30.2483 62.9087 32.0972 64.5787 33.5574C66.2486 35.0176 67.3533 37.384 67.5306 37.78C67.712 38.1923 68.7033 40.5992 68.4644 42.9486C68.2141 45.4082 66.7248 47.8078 66.5774 47.9876L66.5823 48.0014C66.619 48.0077 66.6549 48.0183 66.6892 48.0329C66.8337 48.0935 66.9837 48.1401 67.137 48.1722C67.2051 48.1828 67.2723 48.1917 67.3403 48.199C67.7266 48.2403 68.1202 48.199 68.5049 48.2378V48.2338C68.5494 48.1617 68.594 48.0896 68.6361 48.0176C68.7535 47.8151 68.862 47.6126 68.9649 47.4037C69.1686 46.9909 69.3482 46.5666 69.5026 46.133C69.8104 45.2672 69.8865 44.425 69.9886 43.5098C70.0797 42.6065 70.0602 41.6954 69.9303 40.7968Z" fill="#434343"/>
</g>
</svg>
