<svg width="250" height="100" viewBox="0 0 250 100" fill="none" xmlns="http://www.w3.org/2000/svg">
<path d="M101.308 36.5066H113.842C114.007 36.5066 114.173 36.3409 114.173 36.1759V34.0004C114.173 33.8355 114.007 33.6699 113.842 33.6699H98.518C98.3531 33.6699 98.1875 33.8355 98.1875 34.0004V49.8868C98.1875 50.0524 98.3524 50.2179 98.518 50.2179H100.977C101.142 50.2179 101.308 50.0524 101.308 49.8868V36.5066Z" fill="#222222"/>
<path d="M119.268 36.5066H132.129C132.294 36.5066 132.46 36.3409 132.46 36.1759V34.0004C132.46 33.8355 132.294 33.6699 132.129 33.6699H116.526C116.361 33.6699 116.195 33.8355 116.195 34.0004V49.8868C116.195 50.0524 116.361 50.2179 116.526 50.2179H132.129C132.294 50.2179 132.46 50.0524 132.46 49.8868V47.712C132.46 47.5464 132.294 47.3808 132.129 47.3808H119.268V43.3622H129.197C129.363 43.3622 129.529 43.1966 129.529 43.0311V40.8562C129.529 40.6906 129.363 40.5249 129.197 40.5249H119.268V36.5064V36.5066Z" fill="#222222"/>
<path d="M137.136 40.5251V34.0004C137.136 33.8355 136.97 33.6699 136.805 33.6699H134.393C134.228 33.6699 134.062 33.8355 134.062 34.0004V49.8868C134.062 50.0524 134.228 50.2179 134.393 50.2179H136.805C136.97 50.2179 137.136 50.0524 137.136 49.8868V43.3622H147.017V49.8868C147.017 50.0524 147.183 50.2179 147.348 50.2179H149.759C149.925 50.2179 150.091 50.0524 150.091 49.8868V34.0004C150.091 33.8355 149.925 33.6699 149.759 33.6699H147.348C147.183 33.6699 147.017 33.8355 147.017 34.0004V40.5251H137.136Z" fill="#222222"/>
<path d="M155.268 36.5066H168.129C168.294 36.5066 168.46 36.3409 168.46 36.1759V34.0004C168.46 33.8355 168.294 33.6699 168.129 33.6699H152.526C152.361 33.6699 152.195 33.8355 152.195 34.0004V49.8868C152.195 50.0524 152.361 50.2179 152.526 50.2179H168.129C168.294 50.2179 168.46 50.0524 168.46 49.8868V47.712C168.46 47.5464 168.294 47.3808 168.129 47.3808H155.268V43.3622H165.197C165.363 43.3622 165.529 43.1966 165.529 43.0311V40.8562C165.529 40.6906 165.363 40.5249 165.197 40.5249H155.268V36.5064V36.5066Z" fill="#222222"/>
<path d="M191.143 45.7028V34.0004C191.143 33.8355 190.978 33.6699 190.813 33.6699H188.401C188.236 33.6699 188.07 33.8355 188.07 34.0004V49.8868C188.07 50.0524 188.236 50.2179 188.401 50.2179H190.411C190.694 50.2179 190.86 50.1233 191.049 49.9105L201.025 38.185V49.8868C201.025 50.0524 201.191 50.2179 201.356 50.2179H203.768C203.933 50.2179 204.098 50.0524 204.098 49.8868V34.0004C204.098 33.8355 203.933 33.6699 203.768 33.6699H201.758C201.474 33.6699 201.309 33.7639 201.12 33.9773L191.143 45.7028H191.143Z" fill="#222222"/>
<path d="M180.715 40.5727C182.724 40.5727 183.386 39.3907 183.386 38.4217C183.386 37.3101 182.511 36.5066 181.164 36.5066H175.703C175.206 36.5066 174.403 36.5536 173.883 36.9796C173.741 37.0975 173.292 37.4758 173.292 38.1853V38.3741C173.292 38.5397 173.126 38.7052 172.961 38.7052H170.549C170.384 38.7052 170.219 38.5397 170.219 38.3741V38.0667C170.219 36.2701 171.117 35.2537 171.542 34.8756C172.724 33.8118 174.379 33.6699 175.419 33.6699H181.802C185.206 33.6699 186.601 36.1044 186.578 38.0906C186.555 39.5247 185.874 41.0469 184.261 41.8965C185.874 42.7459 186.558 44.3628 186.578 45.797C186.604 47.7831 185.206 50.2182 181.802 50.2182H175.419C174.379 50.2182 172.724 50.0763 171.542 49.0125C171.117 48.6342 170.219 47.6175 170.219 45.8208V45.5134C170.219 45.3478 170.384 45.1827 170.549 45.1827H172.961C173.126 45.1827 173.292 45.3478 173.292 45.5134V45.7028C173.292 46.4118 173.741 46.79 173.883 46.9085C174.403 47.3338 175.206 47.3811 175.703 47.3811H181.164C182.511 47.3811 183.386 46.5774 183.386 45.4664C183.386 44.4971 182.724 43.3148 180.715 43.3148H174.474C174.308 43.3148 174.143 43.149 174.143 42.9841V41.8963V40.9032C174.143 40.7383 174.308 40.5727 174.474 40.5727H180.715Z" fill="#222222"/>
<path d="M98.518 53.707C98.3531 53.707 98.1875 53.8726 98.1875 54.0381V69.9246C98.1875 70.0895 98.3531 70.2551 98.518 70.2551H100.93C101.095 70.2551 101.261 70.0895 101.261 69.9246V56.5441H111.142V69.9246C111.142 70.0895 111.308 70.2551 111.473 70.2551H113.884C114.05 70.2551 114.216 70.0895 114.216 69.9246V54.0381C114.216 53.8726 114.05 53.707 113.884 53.707C108.917 53.707 103.486 53.707 98.518 53.707Z" fill="#222222"/>
<path d="M116.526 53.7074C116.361 53.7074 116.195 53.873 116.195 54.0386V69.925C116.195 70.0899 116.361 70.2555 116.526 70.2555H118.938C119.103 70.2555 119.268 70.0899 119.268 69.925V63.7784H127.023C128.063 63.7784 129.717 63.6362 130.9 62.5728C131.325 62.194 132.223 61.1778 132.223 59.381C132.223 58.7504 132.223 58.735 132.223 58.1044C132.223 56.3079 131.325 55.291 130.9 54.9127C129.717 53.8489 128.063 53.707 127.023 53.707H124.008H116.527L116.526 53.7074ZM119.268 60.9415V56.5448H124.008H126.739C127.235 56.5448 128.039 56.5918 128.56 57.0177C128.701 57.1356 129.15 57.514 129.15 58.223C129.15 58.755 129.15 58.7317 129.15 59.2631C129.15 59.9725 128.701 60.3509 128.56 60.4688C128.04 60.8945 127.235 60.9417 126.739 60.9417H119.269L119.268 60.9415Z" fill="#222222"/>
<path d="M141.875 70.2553H139.263C138.223 70.2553 136.569 70.1134 135.386 69.0496C134.961 68.6719 134.062 67.6551 134.062 65.8585C134.062 63.2737 134.062 60.6895 134.062 58.1044C134.062 56.3079 134.961 55.291 135.386 54.9127C136.569 53.8489 138.223 53.707 139.263 53.707H141.875H144.89C145.93 53.707 147.584 53.8489 148.766 54.9127C149.192 55.291 150.091 56.3077 150.091 58.1044C150.091 60.6895 150.091 63.2737 150.091 65.8585C150.091 67.6551 149.192 68.6721 148.766 69.0496C147.584 70.1134 145.93 70.2553 144.89 70.2553H141.875ZM141.875 56.5443H139.546C139.051 56.5443 138.247 56.5914 137.727 57.0173C137.585 57.1352 137.136 57.5136 137.136 58.2226C137.136 60.7286 137.136 63.2346 137.136 65.7408C137.136 66.4496 137.585 66.8279 137.727 66.9458C138.247 67.3716 139.05 67.4188 139.546 67.4188H141.875H144.606C145.102 67.4188 145.906 67.3718 146.426 66.9458C146.568 66.8279 147.017 66.4496 147.017 65.7408C147.017 63.2346 147.017 60.7286 147.017 58.2226C147.017 57.5136 146.568 57.1354 146.426 57.0173C145.906 56.5916 145.102 56.5443 144.606 56.5443H141.875Z" fill="#222222"/>
<path d="M155.268 56.5441H168.129C168.294 56.5441 168.46 56.3786 168.46 56.213V54.0381C168.46 53.8726 168.294 53.707 168.129 53.707H152.526C152.361 53.707 152.195 53.8726 152.195 54.0381V69.9246C152.195 70.0895 152.361 70.2551 152.526 70.2551H168.129C168.294 70.2551 168.46 70.0895 168.46 69.9246V67.7497C168.46 67.5839 168.294 67.4184 168.129 67.4184H155.268V63.3997H165.197C165.363 63.3997 165.529 63.2342 165.529 63.0686V60.8937C165.529 60.7282 165.363 60.5626 165.197 60.5626H155.268V56.5439V56.5441Z" fill="#222222"/>
<path d="M197.645 56.5441H203.768C203.933 56.5441 204.099 56.3786 204.099 56.213V54.0381C204.099 53.8726 203.933 53.707 203.768 53.707C198.15 53.707 193.741 53.707 188.401 53.707C188.236 53.707 188.07 53.8726 188.07 54.0381V56.213C188.07 56.3786 188.236 56.5441 188.401 56.5441H194.524V69.9246C194.524 70.0895 194.69 70.2551 194.855 70.2551H197.314C197.479 70.2551 197.645 70.0895 197.645 69.9246V56.5441H197.645Z" fill="#222222"/>
<path d="M173.292 60.5628V54.0381C173.292 53.8726 173.126 53.707 172.961 53.707H170.55C170.384 53.707 170.219 53.8726 170.219 54.0381V69.9246C170.219 70.0901 170.384 70.2557 170.55 70.2557H172.961C173.126 70.2557 173.292 70.0901 173.292 69.9246V63.3999H181.07C181.66 63.3999 182.393 63.6834 182.819 64.1326C183.173 64.511 183.386 65.1256 183.386 65.6696V69.9246C183.386 70.0901 183.552 70.2557 183.718 70.2557H186.128C186.295 70.2557 186.46 70.0901 186.46 69.9246V65.4563C186.46 64.5343 186.175 63.6834 185.68 63.0688C184.152 61.1606 182.52 60.5628 180.384 60.5628H173.292H173.292Z" fill="#222222"/>
<path d="M181.07 60.5626C181.661 60.5626 182.394 60.2791 182.82 59.8299C183.174 59.4515 183.387 58.837 183.387 58.2931V54.0381C183.387 53.8726 183.553 53.707 183.719 53.707H186.13C186.296 53.707 186.461 53.8726 186.461 54.0381V58.5063C186.461 59.4283 186.177 60.2791 185.681 60.8937C184.321 62.5927 182.878 63.2529 181.071 63.377V60.5626H181.07Z" fill="#222222"/>
<path d="M209.368 38.0906C209.525 37.1549 210.353 36.5066 211.562 36.5066H217.024C217.52 36.5066 218.324 36.5536 218.844 36.9796C218.985 37.0975 219.435 37.4758 219.435 38.1853V38.3741C219.435 38.5397 219.601 38.7052 219.766 38.7052H222.177C222.343 38.7052 222.508 38.5397 222.508 38.3741V38.0667C222.508 36.2701 221.609 35.2537 221.184 34.8756C220.002 33.8118 218.347 33.6699 217.307 33.6699H210.924C207.52 33.6699 206.126 36.1044 206.149 38.0906V45.797C206.122 47.7825 207.52 50.2182 210.924 50.2182H217.307C218.347 50.2182 220.002 50.0763 221.184 49.0121C221.609 48.6344 222.508 47.6175 222.508 45.821V45.514C222.508 45.348 222.343 45.1829 222.177 45.1829H219.766C219.601 45.1829 219.435 45.348 219.435 45.514V45.7028C219.435 46.4118 218.985 46.7906 218.844 46.9085C218.324 47.3338 217.52 47.3811 217.024 47.3811H211.562C210.353 47.3811 209.525 46.7334 209.368 45.797V38.0906Z" fill="#222222"/>
<path fill-rule="evenodd" clip-rule="evenodd" d="M57.7846 20.4316C60.7295 20.4316 63.574 20.8615 66.2608 21.6577V34.2999L49.3077 34.2992V21.657C51.9946 20.8609 54.839 20.4316 57.7846 20.4316V20.4316ZM67.8175 22.1657C69.9963 22.9454 72.0575 23.9708 73.9688 25.2099V34.2997H67.8175V22.1657ZM75.5249 26.2907C76.925 27.3308 78.2315 28.4911 79.4282 29.7562L75.5249 33.2579V26.2907ZM80.4624 30.9097C84.8932 36.1086 87.5688 42.8495 87.5688 50.216C87.5688 60.0181 82.8329 68.7144 75.5249 74.1415V66.1332V40.0828L66.2608 48.3948V66.1332V78.7746C63.574 79.5707 60.7295 80.0006 57.7846 80.0006C54.8392 80.0006 51.9948 79.5714 49.3077 78.775V66.133V58.8624L80.4622 30.9097H80.4624ZM73.9688 75.2224C72.0577 76.4615 69.9965 77.4872 67.8175 78.2665V60.2592L73.9688 65.778V75.2224ZM47.7519 78.2669C45.5727 77.4872 43.5112 76.4615 41.6004 75.2224V65.778L47.7519 60.2585V78.2669ZM40.0441 74.1415C38.6436 73.1014 37.3375 71.9407 36.1408 70.676L40.0441 67.1743V74.1415ZM35.1063 69.5226C30.6752 64.324 28 57.5831 28 50.2162C28 47.9291 28.2587 45.7023 28.7468 43.5631H40.0441V45.9816V65.0925L35.1063 69.5226ZM29.1462 42.007C29.7645 39.8457 30.6217 37.7855 31.6864 35.8551H40.0443V42.007H29.1464H29.1462ZM32.6071 34.2997C34.5747 31.1938 37.1006 28.4774 40.0441 26.2907V34.299V34.2997H32.6071ZM41.6004 25.2099C43.5108 23.9708 45.5727 22.9456 47.7519 22.1657V34.299H41.6004V25.2099ZM64.0399 43.5631H63.0622H49.3079V56.7808L64.0399 43.5631Z" fill="#D6282A"/>
</svg>
