<svg width="250" height="100" viewBox="0 0 250 100" fill="none" xmlns="http://www.w3.org/2000/svg">
<g style="mix-blend-mode:luminosity" opacity="0.4">
<path d="M110.29 50.5746V63.5525H107V37.4475H110.29V48.8591H125.436V37.4475H128.726V63.5525H125.436V50.5746H110.29Z" fill="#222222"/>
<path d="M144.155 52.1782V54.9751H135.226V52.1782H144.155Z" fill="#222222"/>
<path d="M148.139 50.5C148.139 49.0829 148.392 47.5787 148.898 45.9876C149.428 44.3964 150.247 42.942 151.356 41.6243C152.465 40.2818 153.874 39.1754 155.586 38.3052C157.297 37.4351 159.345 37 161.731 37C164.141 37 166.226 37.4475 167.985 38.3425C169.768 39.2127 171.238 40.3191 172.395 41.6616C173.552 43.0041 174.408 44.471 174.962 46.0622C175.516 47.6285 175.793 49.1077 175.793 50.5C175.793 51.4199 175.661 52.3895 175.396 53.4088C175.155 54.4282 174.781 55.4475 174.275 56.4669C173.793 57.4613 173.166 58.4185 172.395 59.3384C171.624 60.2334 170.708 61.029 169.648 61.7251C168.611 62.4213 167.431 62.9807 166.105 63.4033C164.804 63.8011 163.346 64 161.731 64C159.345 64 157.297 63.5649 155.586 62.6948C153.874 61.7997 152.465 60.6809 151.356 59.3384C150.247 57.9959 149.428 56.5414 148.898 54.9751C148.392 53.384 148.139 51.8923 148.139 50.5ZM151.681 50.5C151.681 52.2403 151.934 53.8439 152.441 55.3108C152.971 56.7528 153.682 57.9959 154.573 59.0401C155.489 60.0843 156.562 60.9047 157.791 61.5014C159.02 62.0732 160.357 62.3591 161.803 62.3591C163.225 62.3591 164.563 62.0732 165.816 61.5014C167.093 60.9047 168.202 60.0843 169.142 59.0401C170.106 57.9959 170.865 56.7528 171.419 55.3108C171.973 53.8439 172.251 52.2403 172.251 50.5C172.251 48.7597 171.973 47.1685 171.419 45.7265C170.865 44.2597 170.106 43.0041 169.142 41.9599C168.202 40.9157 167.093 40.1077 165.816 39.5359C164.563 38.9392 163.225 38.6409 161.803 38.6409C160.357 38.6409 159.02 38.9392 157.791 39.5359C156.562 40.1077 155.489 40.9157 154.573 41.9599C153.682 43.0041 152.971 44.2597 152.441 45.7265C151.934 47.1685 151.681 48.7597 151.681 50.5Z" fill="#222222"/>
<path d="M202.336 37.4475H203.999V64H203.818L183.755 43.6008H183.61V63.5525H181.947V37H182.128L202.191 57.3992H202.336V37.4475Z" fill="#222222"/>
<path d="M212.66 37.4475H229V39.4986H215.95V48.8591H227.156V50.5746H215.95V61.5014H229V63.5525H212.66V37.4475Z" fill="#222222"/>
<path fill-rule="evenodd" clip-rule="evenodd" d="M68.4253 20.039C68.2608 20.0914 68.1231 20.2045 68.041 20.3548C67.9561 20.5087 67.9512 20.6653 68.0109 21.049C68.0338 21.1879 68.0679 21.399 68.0868 21.5184C68.1057 21.6377 68.1452 21.8808 68.1766 22.0596C68.208 22.2383 68.2439 22.4766 68.2615 22.5892C68.279 22.7019 68.3176 22.9397 68.3459 23.1185C68.4069 23.4991 68.4662 23.8979 68.5529 24.514C68.587 24.7589 68.6265 25.0295 68.64 25.1156C68.6606 25.2486 68.7149 25.6377 68.8586 26.6917C68.8734 26.7973 68.8999 27.0084 68.9188 27.1606C68.9376 27.3127 68.9924 27.7408 69.0413 28.1112C69.1311 28.7842 69.176 29.1843 69.2245 29.615C69.2376 29.7406 69.2766 30.087 69.3112 30.3851C69.3938 31.1047 69.436 31.4972 69.4796 31.9608C69.4998 32.1728 69.5218 32.3729 69.5281 32.4044C69.5343 32.4359 69.5568 32.6484 69.5774 32.8737C69.5981 33.0991 69.6295 33.4451 69.6497 33.6434C69.7023 34.1824 69.7332 34.5142 69.7481 34.7023C69.7552 34.795 69.7665 34.9086 69.7727 34.9547C69.779 35.0008 69.801 35.2612 69.8217 35.5314C69.8423 35.8015 69.8747 36.2194 69.8935 36.4576C69.9124 36.6958 69.9384 37.037 69.9546 37.2157C69.9865 37.6172 70.0197 38.1078 70.0511 38.6597C70.0646 38.8912 70.087 39.2364 70.1005 39.4293C70.1243 39.7594 70.1414 40.081 70.1993 41.2703C70.2123 41.548 70.2343 41.992 70.2478 42.2569C70.2788 42.8721 70.3376 44.5596 70.3712 45.9019C70.4076 47.2918 70.409 52.7636 70.3712 54.023C70.356 54.5655 70.3317 55.4044 70.3183 55.8861C70.3048 56.3679 70.2823 56.9951 70.2689 57.2822C70.2554 57.5692 70.233 58.0208 70.2195 58.2922C70.1688 59.3338 70.1441 59.8089 70.1212 60.1696C70.1081 60.3745 70.0812 60.8181 70.0619 61.1557C70.0426 61.4933 70.0201 61.8287 70.0139 61.9018C70.0076 61.975 69.9954 62.1316 69.9883 62.2505C69.9811 62.3694 69.9631 62.5965 69.9501 62.7558C69.9209 63.1053 69.8697 63.7619 69.8194 64.4282C69.7988 64.6992 69.7772 64.9605 69.771 65.0049C69.7647 65.0492 69.7534 65.1597 69.7458 65.2453C69.7382 65.3309 69.722 65.5217 69.7085 65.6667C69.6821 65.9422 69.6367 66.4373 69.5761 67.1044C69.5213 67.6989 69.4275 68.5874 69.3067 69.625C69.273 69.9226 69.234 70.2691 69.2209 70.3946C69.1814 70.7624 69.1311 71.1971 69.0741 71.6101C69.0458 71.8217 69.0077 72.1247 68.9884 72.2835C68.9111 72.9276 68.8775 73.1907 68.8299 73.5349C68.802 73.7336 68.7634 74.0118 68.7441 74.156C68.7248 74.3001 68.6651 74.7202 68.6094 75.0951C68.5537 75.4699 68.4945 75.8936 68.4747 76.0395C68.4388 76.2937 68.1604 78.057 68.0361 78.8067C67.944 79.3639 67.944 79.371 67.9876 79.5165C68.0232 79.6526 68.1033 79.7733 68.2154 79.8599C68.3275 79.9465 68.4653 79.9942 68.6076 79.9956C68.8245 79.9956 68.9924 79.9246 70.1813 79.3324C71.2068 78.8209 72.0774 78.3445 72.054 78.3068C72.0473 78.2961 72.0621 78.2868 72.0877 78.2868C72.1407 78.2868 72.5399 78.0526 73.2744 77.5899C74.0677 77.0891 74.5351 76.763 75.5144 76.0257C76.2777 75.4491 77.1357 74.734 77.9012 74.0295C78.4561 73.5185 79.4277 72.5461 79.8148 72.1145C79.874 72.0488 80.0271 71.8812 80.1556 71.7419C80.6045 71.2539 81.4913 70.1786 81.9178 69.6006L82.2591 69.1388C82.5284 68.7764 83.0448 68.0143 83.3191 67.5782C83.4538 67.3604 83.5885 67.1554 83.6105 67.1222C83.6581 67.0539 84.169 66.188 84.2705 66.003C84.3069 65.9373 84.4106 65.7479 84.5013 65.5829C84.7087 65.2058 85.3342 63.9695 85.4397 63.7295C85.4846 63.6306 85.5515 63.4784 85.591 63.3928C85.8949 62.7367 86.1549 62.1063 86.4239 61.3713C86.6627 60.7183 86.9303 59.9331 87.0457 59.5428C87.0753 59.4434 87.1355 59.2433 87.1804 59.0992C87.4386 58.2421 87.7219 57.0781 87.8741 56.2481C87.9019 56.096 87.9405 55.8968 87.9607 55.8045C88.0146 55.5534 88.0056 55.344 87.9383 55.1999C87.8709 55.0557 87.8112 54.9936 87.6613 54.9062C87.5575 54.8463 87.523 54.8392 87.3268 54.8392C87.0852 54.8392 86.9721 54.88 86.8481 55.0113C86.7323 55.1333 86.6861 55.2615 86.5123 55.946C86.4176 56.3164 86.3062 56.7281 86.2654 56.8603C85.9758 57.7817 85.5358 59.014 85.3391 59.4536C84.7895 60.6797 84.4299 61.3926 83.8983 62.3104C83.3146 63.3174 82.1733 64.9277 81.4518 65.763C80.0631 67.3693 78.4957 68.8012 76.891 69.9293C76.1615 70.4435 75.4056 70.9202 74.6263 71.3573L74.2729 71.5502C73.9726 71.7144 73.9322 71.7277 73.7669 71.7388C73.6388 71.7498 73.5102 71.723 73.3974 71.6618C73.2846 71.6006 73.1928 71.5077 73.1334 71.395C73.0674 71.2721 73.0652 71.0592 73.1231 70.5521C73.203 69.8614 73.2376 69.5394 73.2748 69.1565C73.2955 68.9449 73.317 68.7444 73.3233 68.7129C73.3355 68.6522 73.3808 68.201 73.4459 67.4975C73.4652 67.2859 73.4863 67.0911 73.4908 67.0645C73.4953 67.0379 73.5083 66.9243 73.5164 66.8121C73.5245 66.6999 73.5465 66.4452 73.5658 66.2461C73.5851 66.0469 73.6134 65.7395 73.6273 65.5607C73.6619 65.1273 73.7171 64.4841 73.7458 64.1292C73.7853 63.682 73.8527 62.7194 73.9308 61.4942C73.9501 61.1837 73.9757 60.7667 73.9905 60.5675C74.0053 60.3683 74.0202 60.0502 74.0282 59.8577C74.0363 59.6652 74.0525 59.3414 74.066 59.1355C74.1257 58.18 74.2455 54.8095 74.2734 53.3687L74.29 52.4504L74.3663 52.2987C74.4019 52.2184 74.455 52.1469 74.5217 52.0891C74.5884 52.0314 74.6672 51.9889 74.7525 51.9647C74.8872 51.9177 74.954 51.9163 77.8981 51.9163C80.8254 51.9163 80.9063 51.9163 81.0095 51.8697C81.1218 51.8196 81.2502 51.7273 81.6175 51.4319C81.7427 51.3312 82.0269 51.1036 82.2487 50.9266C82.6622 50.597 83.2275 50.1432 83.624 49.823C83.747 49.724 83.9499 49.5617 84.0756 49.4623C84.4959 49.1309 84.561 49.0311 84.561 48.7233C84.561 48.5405 84.5556 48.521 84.4761 48.4034C84.4012 48.2778 84.2861 48.1803 84.1488 48.1266C84.0393 48.0791 83.9692 48.0787 79.3981 48.0667C75.2154 48.0556 74.7502 48.0508 74.6734 48.0162C74.5302 47.9524 74.4168 47.8373 74.356 47.6941L74.2904 47.5495L74.2743 46.6472C74.2415 44.7397 74.0736 40.4811 73.991 39.4524C73.978 39.2874 73.9506 38.8757 73.9308 38.5381C73.8617 37.3723 73.8451 37.143 73.736 35.8432C73.7162 35.6117 73.6946 35.3411 73.6879 35.2417C73.6668 34.9312 73.6026 34.1806 73.5775 33.9552C73.555 33.7565 73.5159 33.3275 73.4549 32.62C73.4167 32.1764 73.3619 31.6214 73.3224 31.2848C73.2582 30.7254 73.2156 30.3314 73.1639 29.8288C73.1366 29.5578 73.1029 29.2566 73.0899 29.1603C73.0553 28.9039 73.0602 28.8117 73.1172 28.6613C73.1442 28.5864 73.1861 28.5176 73.2406 28.459C73.2951 28.4005 73.3609 28.3534 73.4342 28.3206C73.7036 28.1968 73.8648 28.2252 74.308 28.4754C74.4876 28.5779 74.6645 28.6759 74.6981 28.6932C75.2172 28.9665 76.4981 29.7836 77.1577 30.2627C77.4351 30.4641 78.1854 31.0496 78.3632 31.2036L78.7403 31.5252C79.6352 32.2975 80.4745 33.1304 81.2524 34.0178C81.3256 34.103 81.4257 34.2161 81.4738 34.2693C81.6085 34.4175 82.1787 35.1437 82.5141 35.593C82.9182 36.136 83.5777 37.1306 83.9006 37.6868C84.4411 38.6141 84.921 39.5745 85.3373 40.5623C85.8354 41.7375 86.2407 42.9491 86.5496 44.1861C86.6757 44.6847 86.7161 44.8107 86.7803 44.9029C86.8367 44.981 86.9094 45.0461 86.9935 45.0939C87.0777 45.1417 87.1712 45.1711 87.2678 45.1799C87.3644 45.1888 87.4619 45.177 87.5535 45.1454C87.6451 45.1137 87.7287 45.063 87.7986 44.9965C87.9975 44.8 88.0411 44.5933 87.9643 44.2123C87.945 44.1169 87.9064 43.9146 87.8781 43.7624C87.8498 43.6103 87.8117 43.4151 87.7924 43.329C87.7731 43.243 87.7129 42.9742 87.6577 42.7275C87.5679 42.3154 87.2846 41.2193 87.2087 40.9713C87.1903 40.9114 87.1247 40.6949 87.0632 40.49C86.9325 40.0548 86.7489 39.5118 86.5087 38.8535C86.4144 38.5958 86.3183 38.3305 86.2954 38.2644C86.2505 38.1313 86.0063 37.5409 85.8016 37.0614C85.4913 36.3339 85.0324 35.3863 84.6791 34.7391C84.5951 34.5869 84.4721 34.3598 84.4052 34.2338C84.0617 33.5884 83.443 32.5832 82.8571 31.7195C82.3318 30.9441 81.9726 30.457 81.2345 29.5157C80.1569 28.1445 78.4279 26.3732 76.9215 25.1027C76.7962 24.9967 76.6544 24.876 76.6072 24.8339C76.3145 24.577 74.9738 23.5474 74.682 23.354C74.6483 23.3318 74.5109 23.2373 74.3771 23.1442C73.5106 22.5413 72.1721 21.7029 71.5404 21.3671C71.4398 21.3139 71.2369 21.2034 71.0914 21.1222C70.7569 20.9381 69.5725 20.3575 69.1208 20.1565C68.728 19.9866 68.6198 19.968 68.4253 20.039ZM41.2415 20.2164C39.3979 21.0956 38.1807 21.769 36.858 22.6469C36.5568 22.8465 36.2474 23.0537 36.1706 23.1078C36.0938 23.1619 35.9758 23.2435 35.908 23.2901C35.784 23.3713 35.4985 23.5767 35.2605 23.7532C34.9094 24.0136 34.7747 24.1174 34.4595 24.3703L33.9935 24.7429C33.927 24.7957 33.8588 24.8498 33.8462 24.8631C33.8336 24.8765 33.7497 24.9474 33.6666 25.0202C33.2374 25.3857 33.0861 25.5188 32.6937 25.8777C31.6462 26.8345 30.4038 28.1223 29.6949 28.9904C29.1925 29.6035 29.0349 29.8005 28.7583 30.1598C28.2936 30.7631 27.5294 31.8486 27.1684 32.419C26.8905 32.8569 26.6602 33.2295 26.5502 33.4176L26.2808 33.875C26.0384 34.2888 25.0928 36.1191 25.0928 36.1737C25.0928 36.1781 24.9958 36.3911 24.8768 36.6466C24.6438 37.147 24.3336 37.9042 24.0942 38.5568C24.0125 38.7808 23.9353 38.9853 23.9232 39.0119C23.8985 39.066 23.8895 39.0904 23.6668 39.7456C23.392 40.5481 23.0113 41.894 22.8532 42.6091C22.8137 42.7865 22.7585 43.0367 22.7302 43.1627C22.6822 43.3792 22.5888 43.856 22.4855 44.4137C22.3894 44.9331 22.2467 45.9481 22.1712 46.6392C22.0136 48.1071 21.9553 50.2244 22.0365 51.5481C22.1039 52.6416 22.1569 53.3057 22.2063 53.6655C22.2265 53.811 22.2592 54.0709 22.2794 54.2421C22.3629 54.947 22.6059 56.3271 22.7801 57.0812C22.8348 57.3194 22.8887 57.5576 22.8995 57.6104C22.9444 57.8216 23.181 58.699 23.331 59.1985C23.4868 59.7167 23.8886 60.945 23.9726 61.1597C24.022 61.2861 24.088 61.4613 24.1809 61.7133C24.2617 61.9329 24.66 62.9013 24.7448 63.0845C24.8027 63.2096 24.9662 63.5685 25.0735 63.8067C25.315 64.339 25.9773 65.6046 26.3589 66.2607C26.9519 67.2937 27.6018 68.2937 28.3057 69.2564C29.7202 71.1772 31.3377 72.9437 33.131 74.5259C34.4995 75.7325 36.2097 77.0008 37.6352 77.8645C38.4955 78.3866 39.1712 78.7694 39.7679 79.0746C40.4683 79.4331 40.5716 79.4841 40.8006 79.5892C40.9276 79.6478 41.1306 79.7427 41.2496 79.8017C41.5567 79.9512 41.7102 80 41.8736 80C42.0302 79.999 42.1813 79.9427 42.2996 79.8414C42.4179 79.74 42.4956 79.6003 42.5188 79.4473C42.5296 79.371 42.4946 79.0924 42.399 78.4966C42.3244 78.0339 42.2463 77.5411 42.2256 77.4018C42.205 77.2625 42.1731 77.0522 42.1552 76.9329C42.1372 76.8136 42.0716 76.3811 42.0101 75.9703C41.9486 75.5595 41.8817 75.1217 41.8624 74.9944C41.8431 74.8671 41.7987 74.5543 41.7645 74.2966C41.6469 73.4169 41.6298 73.298 41.6083 73.1658C41.5755 72.9715 41.4413 71.9153 41.3245 70.9274C41.3052 70.7624 41.2729 70.4918 41.2527 70.3259C41.2325 70.16 41.2078 69.9608 41.2006 69.8823L41.1845 69.7386L40.8172 69.3584C39.8361 68.3447 38.9741 67.3879 38.4524 66.7331L38.1345 66.3339C38.0528 66.2332 37.8085 65.9151 37.5912 65.6277C37.2477 65.1734 37.1871 65.1033 37.118 65.0905C37.0017 65.0692 36.9097 65.1135 36.8683 65.2116C36.8302 65.3003 36.836 65.4258 36.9186 66.2101C36.9388 66.4022 36.9774 66.7975 37.0044 67.0889C37.1117 68.2387 37.127 68.394 37.1503 68.5683C37.1633 68.6677 37.1907 68.9059 37.2105 69.0975C37.2302 69.2892 37.2554 69.5491 37.2706 69.6742C37.2859 69.7993 37.3106 70.0438 37.3304 70.2154C37.3501 70.3871 37.3847 70.6905 37.4062 70.8888C37.4278 71.0871 37.4561 71.3293 37.4682 71.426C37.5333 71.9371 37.4421 72.1864 37.1359 72.3345C37.017 72.3922 36.9819 72.3975 36.8118 72.3882C36.5783 72.3744 36.5087 72.3372 36.1607 72.0391C35.1586 71.1776 34.0698 70.1263 33.3748 69.3482C33.0156 68.9449 32.9204 68.8354 32.7166 68.591C31.0163 66.5504 29.7398 64.5679 28.6452 62.2634C27.5859 60.015 26.8179 57.6435 26.3594 55.2052C26.3037 54.9093 26.1627 53.9919 26.1277 53.7014C26.1079 53.5359 26.0828 53.3141 26.0675 53.2081C26.0446 53.024 25.9966 52.4744 25.9427 51.7766C25.9019 51.2505 25.8861 49.1092 25.9194 48.6243C26.0384 46.8845 26.0949 46.3744 26.3001 45.1837C26.5905 43.4843 27.0322 41.8136 27.6201 40.191C27.7696 39.7771 27.7548 39.8197 27.8998 39.4568C27.9667 39.2918 28.0538 39.0749 28.0929 38.976C28.132 38.877 28.2011 38.7142 28.2456 38.6149L28.4804 38.0856C28.8746 37.1927 29.7043 35.6489 30.2382 34.8132C30.3185 34.6876 30.4178 34.5306 30.46 34.4645C30.8192 33.8927 31.5375 32.8826 31.9731 32.3352L32.3269 31.8885C32.453 31.7297 32.6411 31.5021 32.7408 31.3832C32.8405 31.2643 32.9891 31.0909 33.0681 30.9982C33.2724 30.7578 33.6559 30.3496 34.1848 29.8098C34.4371 29.5525 34.6688 29.3085 34.6997 29.2677C34.7307 29.2269 34.8614 29.0015 34.9898 28.7646C35.6902 27.5105 36.4631 26.2973 37.3048 25.1311C37.4395 24.9479 37.58 24.7549 37.6191 24.7021C37.7443 24.5247 38.4245 23.661 38.6109 23.4427C38.7128 23.3238 38.86 23.1504 38.9386 23.0577C39.4527 22.4517 40.1603 21.6887 40.8841 20.9603C41.2545 20.5872 41.5576 20.2661 41.5576 20.2461C41.5528 20.2176 41.5388 20.1915 41.5176 20.1715C41.4965 20.1516 41.4694 20.139 41.4404 20.1357C41.3705 20.1543 41.3031 20.1806 41.2392 20.2142L41.2415 20.2164ZM41.9742 20.8073C41.5019 21.2544 40.7736 21.9788 40.6044 22.1705C40.5451 22.2375 40.3758 22.422 40.2286 22.5808C38.9642 23.9409 37.5005 25.8635 36.5042 27.4675C36.3798 27.6685 36.4144 27.7444 36.5868 27.6552C36.6607 27.6221 36.7405 27.604 36.8215 27.602C36.9026 27.5999 36.9832 27.6139 37.0587 27.6432C37.3348 27.7457 37.4884 27.9537 37.4884 28.2323C37.4884 28.3716 37.4282 29.0117 37.4035 29.1346C37.3968 29.1679 37.3744 29.352 37.3537 29.5436C37.2769 30.2534 37.2235 30.7236 37.1741 31.1437C37.1611 31.2497 37.1341 31.5203 37.1139 31.7452C37.0937 31.9701 37.0605 32.3277 37.0403 32.5393C37.0201 32.7509 36.9873 33.1031 36.9676 33.3213C36.9478 33.5396 36.9258 33.7525 36.9186 33.7938C36.9114 33.835 36.889 34.079 36.8688 34.3354C36.7826 35.4342 36.7301 36.073 36.6856 36.5699C36.6721 36.722 36.6452 37.0955 36.6268 37.3998C36.5545 38.5643 36.5401 38.7852 36.5051 39.2403C36.4849 39.4985 36.4571 39.975 36.4427 40.2992C36.4283 40.6235 36.4005 41.2028 36.3816 41.5857C36.3628 41.9685 36.3309 42.7923 36.3107 43.4142C36.2905 44.0361 36.2658 44.7894 36.251 45.0866C36.2362 45.3838 36.2137 46.5212 36.1976 47.6151C36.1527 50.5234 36.1976 53.7559 36.3228 56.9752C36.387 58.628 36.4777 60.4641 36.5051 60.6686C36.5123 60.7214 36.5343 61.0461 36.5541 61.3904C36.6353 62.801 36.6618 63.1346 36.6991 63.2056C36.7503 63.3036 37.3088 64.1372 37.5037 64.4033C37.6105 64.5506 37.8952 64.9476 37.9289 64.996C38.0151 65.1211 38.8044 66.1467 38.9314 66.2993L39.3319 66.7788C39.4747 66.9501 39.6072 67.1062 39.6265 67.1248C39.6458 67.1435 39.7562 67.269 39.8725 67.403C40.2914 67.8856 40.6151 68.2245 40.6883 68.2556C40.7822 68.296 40.8639 68.276 40.942 68.193C41.0125 68.1181 41.0138 68.1717 40.9254 67.2734C40.8459 66.4679 40.7404 65.3411 40.7067 64.9396C40.6344 64.0808 40.6223 63.9309 40.5235 62.5934C40.5029 62.3157 40.4751 61.9041 40.4616 61.6792C40.4481 61.4542 40.4261 61.1025 40.4126 60.8971C40.361 60.103 40.3148 59.2389 40.2779 58.4311C40.2582 57.968 40.2366 57.5292 40.2299 57.4552C40.211 57.2538 40.1926 56.8013 40.167 55.9274C40.154 55.4904 40.1311 54.7487 40.1159 54.279C40.0539 52.3546 40.0831 46.5443 40.1666 44.2211C40.1792 43.8707 40.1913 43.4914 40.1931 43.3783C40.1949 43.2652 40.2066 42.9897 40.2187 42.7648C40.2308 42.5399 40.2573 42.0146 40.2775 41.5977C40.3318 40.4691 40.3821 39.5376 40.4122 39.1255C40.4571 38.4459 40.4867 38.0275 40.5231 37.4593C40.5577 36.923 40.599 36.3751 40.6578 35.7026L40.7085 35.1011C40.7898 34.1362 40.8585 33.379 40.902 32.9718C40.9429 32.5858 40.9743 32.2749 41.0111 31.8889C41.0489 31.4897 41.0924 31.0962 41.1687 30.457C41.1961 30.2254 41.2361 29.8843 41.2585 29.6993C41.281 29.5143 41.3111 29.2322 41.329 29.0738C41.369 28.7247 41.5086 27.6423 41.6222 26.7879C41.6415 26.642 41.6752 26.3887 41.6967 26.2223C41.7713 25.6457 41.9567 24.3716 42.1341 23.2147C42.1682 22.9903 42.3424 21.9238 42.4865 21.0539C42.5736 20.5282 42.5763 20.4582 42.5121 20.4244C42.4876 20.4108 42.4606 20.4022 42.4326 20.3992C42.4174 20.3992 42.2113 20.5837 41.9742 20.8073ZM43.0033 38.9972C42.8559 39.0649 42.7351 39.1788 42.6598 39.3211C42.5916 39.4542 42.6001 39.3579 42.5184 40.9487C42.4982 41.3523 42.4703 41.8181 42.4578 41.9836C42.4452 42.1491 42.4326 42.4361 42.4308 42.621C42.429 42.806 42.4129 43.2922 42.3945 43.7003C42.3761 44.1085 42.3496 45.0671 42.3361 45.8296C42.3226 46.5922 42.3056 47.2731 42.2988 47.3414C42.2921 47.4097 42.2867 48.5472 42.2867 49.87C42.2867 52.8532 42.3397 55.207 42.4708 58.1308C42.4914 58.5872 42.5193 59.1613 42.5332 59.4057C42.5471 59.6501 42.5664 60.0081 42.5781 60.1997C42.5934 60.5041 42.6037 60.5657 42.6585 60.6815C42.7233 60.8299 42.8438 60.9478 42.9948 61.0102C43.0962 61.0506 43.2067 61.0546 44.5532 61.0546H46.0021L46.1242 60.9889C46.2611 60.9175 46.3541 60.8115 46.4273 60.6433C46.4825 60.5147 46.4879 60.343 46.4515 59.8378C46.4066 59.2167 46.3325 57.5953 46.2584 55.6031C46.1718 53.2715 46.1431 48.5498 46.2032 46.4356C46.2643 44.2899 46.2544 44.4624 46.3186 44.3986C46.3381 44.3793 46.3615 44.3643 46.3873 44.3546C46.413 44.3449 46.4406 44.3407 46.4681 44.3422C46.553 44.3422 46.5835 44.3644 46.8273 44.6013C46.975 44.7432 47.4298 45.178 47.838 45.5692C48.2461 45.9605 49.0399 46.7226 49.6025 47.2647C50.1651 47.8068 50.7842 48.4039 50.9786 48.5897C51.173 48.7756 51.803 49.382 52.379 49.937C52.9551 50.4919 53.5913 51.1032 53.7915 51.2957C55.1412 52.591 55.9534 53.3718 56.4087 53.8105C56.6969 54.0886 57.0916 54.4679 57.286 54.6534C57.4804 54.8388 58.1108 55.4456 58.6873 56.001C59.2638 56.5564 60.1353 57.3948 60.6242 57.8642C62.6657 59.8262 63.2557 60.3927 63.5327 60.6589C63.6935 60.8128 63.8744 60.9641 63.9346 60.9956L64.0441 61.0532H65.7269C67.3105 61.0532 67.4124 61.0506 67.5013 61.0089C67.6472 60.9391 67.7642 60.8217 67.8327 60.6766C67.891 60.5435 67.8973 60.4681 67.9674 59.1165C67.9871 58.7256 68.0096 58.3144 68.0177 58.2017C68.05 57.7457 68.1043 56.2814 68.1371 54.9657C68.1564 54.1982 68.1788 53.4796 68.186 53.3687C68.2107 53.0182 68.2017 47.9634 68.1753 46.759C68.1236 44.4443 68.0626 42.5292 68.0177 41.8141C67.9975 41.5036 67.9755 41.0919 67.9683 40.8999C67.9611 40.7078 67.9499 40.4913 67.9427 40.4186C67.9355 40.3458 67.9207 40.0996 67.9086 39.872C67.8897 39.5074 67.8803 39.4422 67.8273 39.3304C67.7677 39.1859 67.6531 39.0702 67.5081 39.0083L67.3837 38.9516H65.9873C65.0849 38.9516 64.5555 38.9604 64.4895 38.9768C64.3994 39.0013 64.3159 39.0452 64.2452 39.1056C64.1744 39.1659 64.1182 39.241 64.0805 39.3255C63.9997 39.503 63.9934 39.6205 64.0356 40.183C64.0657 40.5876 64.1254 41.7618 64.1568 42.5847C64.1703 42.9223 64.1927 43.447 64.2058 43.7518C64.2188 44.0566 64.2417 44.792 64.2552 45.3878C64.2686 45.9836 64.2906 46.8224 64.3036 47.2509C64.3328 48.2207 64.3333 50.3846 64.3036 52.1954C64.2825 53.4876 64.274 53.881 64.2394 55.065L64.2251 55.553L64.1528 55.6133C64.0724 55.6799 64.045 55.6847 63.9481 55.6484C63.8838 55.624 63.3343 55.1103 62.1858 53.9995C61.8836 53.7076 61.2371 53.0852 60.749 52.6159C60.261 52.1466 59.3895 51.3081 58.813 50.7528C58.2365 50.1974 57.4364 49.4281 57.035 49.0444C56.6336 48.6607 56.2385 48.2819 56.1563 48.2016C55.9319 47.982 54.3061 46.4196 53.893 46.0239C53.6919 45.8319 53.0619 45.2254 52.4926 44.6767C51.9233 44.128 51.2929 43.5233 51.0922 43.3299C50.738 42.9915 50.2562 42.527 49.1926 41.5001C48.9111 41.2281 48.3584 40.6976 47.9641 40.321C47.5699 39.9443 47.1151 39.5087 46.9535 39.3535C46.7573 39.1645 46.6172 39.0509 46.5314 39.0106L46.4026 38.9498H44.7534C43.2008 38.9529 43.0967 38.9556 43.0033 38.9972Z" fill="#222222"/>
</g>
</svg>
