<svg width="250" height="100" viewBox="0 0 250 100" fill="none" xmlns="http://www.w3.org/2000/svg">
<path d="M49.5263 34.7783C49.5263 33.3409 48.3635 32.1758 46.9292 32.1758C45.4948 32.1758 44.332 33.3409 44.332 34.7783V57.2648C44.332 58.7021 45.4948 59.8673 46.9292 59.8673C48.3635 59.8673 49.5263 58.7021 49.5263 57.2648V34.7783Z" fill="#00A453"/>
<path fill-rule="evenodd" clip-rule="evenodd" d="M52.0184 69.4689C52.4433 69.4809 52.8624 69.3678 53.2237 69.1434C53.585 68.9191 53.8726 68.5934 54.051 68.2068L68.0443 38.1174L82.0289 68.1459C82.2086 68.536 82.4997 68.864 82.8653 69.0886C83.2308 69.3132 83.6546 69.4244 84.0831 69.408H143.083C143.364 69.4208 143.645 69.3765 143.908 69.2777C144.171 69.1788 144.412 69.0275 144.615 68.8329C144.819 68.6382 144.981 68.4043 145.091 68.1452C145.202 67.8862 145.259 67.6073 145.259 67.3256C145.259 67.0438 145.202 66.7649 145.091 66.5059C144.981 66.2468 144.819 66.0129 144.615 65.8182C144.412 65.6236 144.171 65.4723 143.908 65.3734C143.645 65.2746 143.364 65.2303 143.083 65.2431H85.4859L70.1202 32.2074C69.9424 31.8219 69.6511 31.5002 69.2854 31.2855C68.9197 31.0707 68.4972 30.9733 68.0747 31.0063C67.6344 30.9743 67.1949 31.0776 66.8147 31.3023C66.4345 31.527 66.1317 31.8625 65.9466 32.264L50.5765 65.3084H23.7713C23.2207 65.3084 22.6927 65.5276 22.3034 65.9177C21.914 66.3078 21.6953 66.8369 21.6953 67.3887C21.6953 67.9404 21.914 68.4695 22.3034 68.8596C22.6927 69.2497 23.2207 69.4689 23.7713 69.4689H52.0011H52.0184Z" fill="black"/>
<path fill-rule="evenodd" clip-rule="evenodd" d="M23.5564 32.1758C23.0059 32.1758 22.4778 32.3949 22.0885 32.7851C21.6992 33.1752 21.4805 33.7043 21.4805 34.256V57.7827C21.4805 58.3344 21.6992 58.8635 22.0885 59.2537C22.4778 59.6438 23.0059 59.8629 23.5564 59.8629H23.7649C24.3159 59.863 24.8444 59.6439 25.2344 59.2539C25.6244 58.8639 25.8441 58.3348 25.8452 57.7827V48.2084H38.3098C38.5824 48.2084 38.8523 48.1546 39.1042 48.0501C39.3561 47.9455 39.5849 47.7923 39.7777 47.5991C39.9705 47.4059 40.1234 47.1766 40.2277 46.9242C40.332 46.6719 40.3857 46.4013 40.3857 46.1282V45.9193C40.3857 45.6461 40.332 45.3756 40.2277 45.1232C40.1234 44.8708 39.9705 44.6415 39.7777 44.4483C39.5849 44.2552 39.3561 44.1019 39.1042 43.9974C38.8523 43.8928 38.5824 43.839 38.3098 43.839H25.8452V34.2647C25.8458 33.9906 25.7924 33.7191 25.6881 33.4656C25.5838 33.2122 25.4307 32.9819 25.2375 32.7879C25.0442 32.5938 24.8147 32.4399 24.562 32.3349C24.3093 32.2298 24.0385 32.1758 23.7649 32.1758H23.5564Z" fill="black"/>
<path fill-rule="evenodd" clip-rule="evenodd" d="M140.946 46.0193C140.946 47.9759 140.367 49.8886 139.282 51.5154C138.197 53.1423 136.655 54.4101 134.851 55.1587C133.047 55.9073 131.062 56.1029 129.147 55.7209C127.232 55.3388 125.473 54.3963 124.092 53.0124C122.712 51.6286 121.772 49.8656 121.391 47.9464C121.011 46.0273 121.207 44.0382 121.955 42.2308C122.703 40.4233 123.969 38.8787 125.593 37.7923C127.217 36.7058 129.126 36.1264 131.078 36.1273C132.375 36.1273 133.658 36.3832 134.855 36.8803C136.053 37.3775 137.141 38.1062 138.057 39.0248C138.974 39.9434 139.7 41.034 140.196 42.2341C140.692 43.4342 140.946 44.7204 140.946 46.0193ZM145.102 46.0193C145.102 48.7986 144.28 51.5155 142.739 53.8264C141.198 56.1373 139.008 57.9385 136.445 59.0021C133.883 60.0657 131.063 60.344 128.342 59.8017C125.622 59.2595 123.123 57.9212 121.162 55.9559C119.201 53.9906 117.865 51.4867 117.324 48.7608C116.783 46.0349 117.061 43.2094 118.122 40.6416C119.184 38.0739 120.981 35.8792 123.287 34.3351C125.593 32.791 128.305 31.9668 131.078 31.9668C134.798 31.9668 138.365 33.4473 140.995 36.0827C143.625 38.718 145.102 42.2923 145.102 46.0193Z" fill="black"/>
<path fill-rule="evenodd" clip-rule="evenodd" d="M113.118 37.9331C112.641 36.7916 111.943 35.7562 111.064 34.8867C110.183 34.0144 109.14 33.3238 107.993 32.8543C106.842 32.3837 105.611 32.1413 104.367 32.1406H89.0013C88.4515 32.1418 87.9246 32.3615 87.5362 32.7514C87.1478 33.1414 86.9297 33.6699 86.9297 34.2209V37.8678C86.9297 38.5603 87.2042 39.2245 87.6929 39.7142C88.1816 40.2039 88.8444 40.479 89.5355 40.479C90.2266 40.479 90.8894 40.2039 91.3781 39.7142C91.8668 39.2245 92.1413 38.5603 92.1413 37.8678V36.3055H104.367C105.761 36.3035 107.1 36.8523 108.093 37.833C108.582 38.3135 108.97 38.8867 109.235 39.5193C109.5 40.1518 109.636 40.8309 109.636 41.5169C109.636 42.2029 109.5 42.882 109.235 43.5146C108.97 44.1471 108.582 44.7204 108.093 45.2009C107.1 46.1815 105.761 46.7303 104.367 46.7284H89.0013C88.4519 46.7284 87.925 46.9471 87.5365 47.3364C87.148 47.7257 86.9297 48.2537 86.9297 48.8043V57.2819C86.9297 57.3385 86.9297 57.3994 86.9297 57.4603C86.9297 57.5213 86.9297 57.5865 86.9297 57.6562C86.9297 58.3487 87.2042 59.0129 87.6929 59.5026C88.1816 59.9922 88.8444 60.2673 89.5355 60.2673C90.2266 60.2673 90.8894 59.9922 91.3781 59.5026C91.8668 59.0129 92.1413 58.3487 92.1413 57.6562C92.1413 57.5865 92.1413 57.5213 92.1413 57.4603C92.1413 57.3994 92.1413 57.3385 92.1413 57.2819V50.8802H104.367C105.606 50.8731 106.831 50.6263 107.976 50.1534C109.122 49.6839 110.166 48.9934 111.047 48.121C112.369 46.8253 113.274 45.1619 113.643 43.3457C114.012 41.5295 113.829 39.6441 113.118 37.9331Z" fill="#00A453"/>
<path d="M68.2305 55.2949C68.7765 55.2944 69.3172 55.4017 69.8217 55.6108C70.3263 55.8199 70.7847 56.1266 71.1707 56.5135C71.5568 56.9003 71.8629 57.3597 72.0716 57.8653C72.2803 58.3708 72.3874 58.9127 72.3868 59.4597C72.3868 60.0065 72.2793 60.5478 72.0703 61.0529C71.8614 61.558 71.5552 62.0168 71.1692 62.4032C70.7832 62.7896 70.325 63.096 69.8207 63.3048C69.3165 63.5136 68.7761 63.6208 68.2305 63.6202C67.1289 63.6202 66.0724 63.182 65.2931 62.4019C64.5138 61.6218 64.0754 60.5636 64.0742 59.4597C64.0742 58.3552 64.5121 57.2958 65.2916 56.5148C66.071 55.7337 67.1282 55.2949 68.2305 55.2949Z" fill="#00A453"/>
<path d="M159.04 31.7372H160.312V38.2652H159.04V35.5539H156.625V38.2565H155.344V31.7285H156.625V34.3397H159.04V31.7372Z" fill="black"/>
<path d="M165.698 38.2545L165.307 37.0795H162.702L162.315 38.2545H160.93L163.205 31.7266H164.799L167.084 38.2545H165.698ZM163.127 35.8783H164.908L164.018 33.2193L163.127 35.8783Z" fill="black"/>
<path d="M172.586 37.0229H173.281V39.4992H172V38.2545H167.727V31.7266H169.008V37.0229H171.318V31.7353H172.599L172.586 37.0229Z" fill="black"/>
<path d="M177.902 38.2565V34.2788L175.118 38.2565H174.141V31.7285H175.422V35.7149L178.21 31.7285H179.183V38.2565H177.902Z" fill="black"/>
<path d="M185.862 37.4096C185.39 37.8883 184.786 38.2148 184.128 38.3472C183.47 38.4797 182.787 38.4121 182.167 38.153C181.547 37.8939 181.019 37.4552 180.65 36.8932C180.28 36.3312 180.087 35.6714 180.095 34.9986C180.084 34.5528 180.165 34.1097 180.333 33.6965C180.5 33.2834 180.75 32.9089 181.067 32.5963C181.706 31.9711 182.563 31.6211 183.456 31.6211C184.349 31.6211 185.206 31.9711 185.845 32.5963C186.165 32.9075 186.418 33.2814 186.587 33.6947C186.757 34.108 186.84 34.5518 186.831 34.9986C186.841 35.4453 186.761 35.8896 186.594 36.3041C186.428 36.7187 186.179 37.0948 185.862 37.4096ZM181.953 36.5392C182.357 36.9224 182.892 37.136 183.447 37.136C184.003 37.136 184.538 36.9224 184.941 36.5392C185.142 36.3381 185.298 36.098 185.402 35.8338C185.506 35.5696 185.555 35.2868 185.545 35.003C185.555 34.7191 185.506 34.4363 185.402 34.1721C185.298 33.9079 185.142 33.6678 184.941 33.4667C184.538 33.0835 184.003 32.8699 183.447 32.8699C182.892 32.8699 182.357 33.0835 181.953 33.4667C181.753 33.6678 181.596 33.9079 181.493 34.1721C181.389 34.4363 181.34 34.7191 181.35 35.003C181.343 35.2873 181.395 35.57 181.501 35.8335C181.608 36.0971 181.768 36.3358 181.971 36.5348L181.953 36.5392Z" fill="black"/>
<path d="M191.438 31.7372H192.711V38.2652H191.438V35.5539H189.023V38.2565H187.742V31.7285H189.023V34.3397H191.438V31.7372Z" fill="black"/>
<path d="M198.105 38.2545L197.714 37.0795H195.108L194.717 38.2545H193.336L195.612 31.7266H197.201L199.486 38.2545H198.105ZM195.529 35.8783H197.314L196.424 33.2193L195.529 35.8783Z" fill="black"/>
<path d="M199.695 38.2556V37.0631C199.848 37.1025 200.008 37.1016 200.161 37.0604C200.313 37.0192 200.452 36.9392 200.564 36.8281C200.8 36.4619 200.902 36.0254 200.855 35.5922V31.7363H205.276V38.2643H204.004V32.9679H202.127V35.553C202.139 36.0369 202.07 36.5193 201.923 36.9804C201.823 37.3204 201.625 37.6233 201.354 37.8508C201.133 38.0317 200.873 38.1597 200.594 38.2251C200.298 38.2829 199.995 38.2932 199.695 38.2556Z" fill="black"/>
<path d="M208.902 33.8784C209.195 33.8721 209.486 33.9251 209.757 34.0343C210.029 34.1435 210.276 34.3066 210.483 34.5138C210.691 34.7146 210.855 34.9562 210.966 35.2235C211.076 35.4908 211.131 35.7781 211.126 36.0674C211.131 36.3567 211.076 36.644 210.966 36.9113C210.855 37.1786 210.691 37.4202 210.483 37.6211C210.276 37.8283 210.029 37.9914 209.757 38.1006C209.486 38.2098 209.195 38.2628 208.902 38.2565H206.496V31.7285H207.799V33.8784H208.902ZM208.902 37.0553C209.029 37.0581 209.155 37.0349 209.272 36.987C209.389 36.9391 209.495 36.8675 209.584 36.7768C209.673 36.6822 209.743 36.5708 209.789 36.449C209.836 36.3273 209.857 36.1976 209.853 36.0674C209.857 35.9392 209.835 35.8116 209.789 35.692C209.743 35.5724 209.673 35.4633 209.584 35.3711C209.499 35.2751 209.394 35.1992 209.276 35.1488C209.158 35.0983 209.03 35.0747 208.902 35.0795H207.76V37.0553H208.902Z" fill="black"/>
<path d="M215.65 31.7353H216.914V38.2632H215.641V35.5519H213.227V38.2545H211.945V31.7266H213.227V34.3377H215.641L215.65 31.7353Z" fill="black"/>
<path d="M222.316 38.2545L221.925 37.0795H219.319L218.928 38.2545H217.547L219.823 31.7266H221.408L223.692 38.2545H222.316ZM219.74 35.8783H221.525L220.635 33.2193L219.74 35.8783Z" fill="black"/>
<path d="M228.998 31.7363V38.2643H227.717V36.0012H226.983L225.489 38.2643H224.047L225.636 35.862C225.228 35.7184 224.874 35.4507 224.624 35.096C224.369 34.7532 224.231 34.3361 224.234 33.908C224.229 33.6237 224.282 33.3416 224.391 33.0788C224.499 32.8161 224.66 32.5784 224.863 32.3804C225.062 32.1754 225.301 32.0133 225.564 31.904C225.828 31.7948 226.111 31.7407 226.396 31.745L228.998 31.7363ZM226.392 34.8654H227.695V32.9375H226.392C226.274 32.9375 226.158 32.9628 226.051 33.0116C225.944 33.0604 225.848 33.1316 225.771 33.2203C225.685 33.3106 225.618 33.4171 225.573 33.5337C225.528 33.6502 225.507 33.7744 225.51 33.8993C225.506 34.1535 225.599 34.3998 225.771 34.5869C225.849 34.6756 225.945 34.7465 226.053 34.7946C226.161 34.8426 226.278 34.8668 226.396 34.8654H226.392Z" fill="black"/>
<path d="M159.523 48.6178L159.132 47.4428H156.526L156.135 48.6178H154.75L157.026 42.0898H158.615L160.9 48.6178H159.523ZM156.948 46.2373H158.72L157.851 43.5782L156.948 46.2373Z" fill="black"/>
<path d="M164.4 48.7501C163.95 48.7643 163.501 48.6845 163.083 48.516C162.666 48.3474 162.287 48.0937 161.972 47.771C161.659 47.4545 161.413 47.0777 161.248 46.6634C161.084 46.249 161.005 45.8056 161.017 45.36C161.016 44.7714 161.169 44.193 161.46 43.6817C161.751 43.1704 162.17 42.7439 162.675 42.4443C163.181 42.1447 163.756 41.9823 164.343 41.9731C164.93 41.9639 165.51 42.1083 166.024 42.3919C166.509 42.6482 166.913 43.0338 167.193 43.506L166.107 44.1501C165.949 43.8618 165.71 43.6259 165.421 43.4712C165.114 43.3005 164.768 43.2134 164.417 43.2188C164.135 43.2067 163.852 43.2535 163.588 43.3561C163.325 43.4587 163.085 43.615 162.884 43.815C162.686 44.0204 162.53 44.2639 162.428 44.5309C162.326 44.7979 162.279 45.0829 162.289 45.3687C162.278 45.6504 162.323 45.9316 162.423 46.1955C162.522 46.4594 162.673 46.7006 162.867 46.9049C163.067 47.105 163.307 47.2612 163.571 47.3638C163.835 47.4664 164.117 47.5132 164.4 47.5011C164.749 47.5053 165.094 47.4215 165.403 47.2574C165.701 47.1031 165.945 46.8638 166.107 46.5698L167.21 47.2139C166.931 47.6859 166.531 48.0739 166.05 48.3367C165.545 48.6153 164.976 48.7578 164.4 48.7501Z" fill="black"/>
<path d="M170.997 48.7493C170.548 48.7631 170.1 48.6832 169.683 48.5146C169.266 48.346 168.888 48.0925 168.574 47.7701C168.26 47.4536 168.014 47.0769 167.85 46.6625C167.686 46.2482 167.607 45.8048 167.618 45.3591C167.619 44.7718 167.772 44.1948 168.062 43.6847C168.353 43.1745 168.771 42.7489 169.275 42.4495C169.779 42.1501 170.352 41.9873 170.938 41.9771C171.524 41.9668 172.103 42.1095 172.617 42.3911C173.104 42.646 173.51 43.0318 173.79 43.5052L172.682 44.1493C172.525 43.86 172.287 43.6238 171.996 43.4703C171.69 43.2986 171.344 43.2115 170.993 43.2179C170.71 43.2067 170.428 43.2538 170.164 43.3563C169.901 43.4589 169.661 43.6147 169.46 43.8142C169.266 44.0221 169.116 44.2666 169.019 44.5334C168.921 44.8002 168.878 45.0839 168.891 45.3678C168.88 45.6492 168.925 45.93 169.023 46.1937C169.122 46.4575 169.271 46.699 169.464 46.904C169.8 47.2154 170.224 47.416 170.677 47.479C171.13 47.5421 171.592 47.4644 172 47.2566C172.292 47.1044 172.531 46.8678 172.687 46.5776L173.794 47.2217C173.509 47.6929 173.103 48.0779 172.617 48.3358C172.121 48.6089 171.563 48.7511 170.997 48.7493Z" fill="black"/>
<path d="M179.999 47.7712C179.528 48.2518 178.924 48.5801 178.265 48.7143C177.606 48.8484 176.922 48.7821 176.301 48.5239C175.679 48.2658 175.149 47.8275 174.778 47.2654C174.407 46.7032 174.213 46.0428 174.219 45.369C174.222 44.8138 174.362 44.268 174.625 43.7796C174.889 43.2912 175.268 42.8753 175.73 42.5684C176.191 42.2614 176.721 42.073 177.273 42.0196C177.824 41.9662 178.38 42.0495 178.892 42.2622C179.404 42.4749 179.856 42.8104 180.208 43.2392C180.559 43.668 180.801 44.1769 180.91 44.7212C181.019 45.2654 180.994 45.8283 180.835 46.3602C180.676 46.892 180.389 47.3766 179.999 47.7712ZM176.091 46.9009C176.497 47.2985 177.045 47.518 177.613 47.511C178.181 47.5041 178.723 47.2713 179.12 46.8639C179.517 46.4564 179.736 45.9077 179.729 45.3385C179.722 44.7692 179.49 44.226 179.083 43.8284C178.679 43.4439 178.144 43.2295 177.587 43.2295C177.03 43.2295 176.494 43.4439 176.091 43.8284C175.703 44.2456 175.487 44.7945 175.487 45.3646C175.487 45.9347 175.703 46.4836 176.091 46.9009Z" fill="black"/>
<path d="M186.732 47.3862H187.431V49.8624H186.129V48.6178H181.859V42.0898H183.141V47.3862H185.434V42.0985H186.715L186.732 47.3862Z" fill="black"/>
<path d="M192.054 48.6178V44.6401L189.266 48.6178H188.289V42.0898H189.557V46.0762L192.345 42.0898H193.323V48.6178H192.054Z" fill="black"/>
<path d="M198.718 48.6178L198.327 47.4428H195.721L195.335 48.6178H193.949L196.225 42.0898H197.815L200.099 48.6178H198.718ZM196.142 46.2373H197.927L197.059 43.5782L196.142 46.2373Z" fill="black"/>
<path d="M205.624 47.3862H206.319V49.8624H205.016V48.6178H200.742V42.0898H202.023V47.3862H204.321V42.0985H205.624V47.3862Z" fill="black"/>
<path d="M210.917 48.6178V44.6401L208.129 48.6178H207.156V42.0898H208.459V46.0762L211.247 42.0898H212.22V48.6178H210.917Z" fill="black"/>
<path d="M218 42.0977V48.6256H216.697V46.3626H215.963L214.469 48.6256H213.031L214.634 46.2364C214.226 46.0918 213.872 45.8242 213.622 45.4704C213.367 45.1273 213.229 44.7103 213.231 44.2823C213.231 43.7052 213.46 43.1518 213.867 42.7437C214.274 42.3356 214.827 42.1064 215.403 42.1064L218 42.0977ZM215.394 45.2267H216.697V43.2988H215.394C215.275 43.2982 215.158 43.3232 215.05 43.372C214.943 43.4208 214.846 43.4923 214.768 43.5817C214.683 43.6723 214.617 43.779 214.573 43.8955C214.529 44.012 214.508 44.1361 214.512 44.2606C214.506 44.5143 214.598 44.7607 214.768 44.9482C214.847 45.0375 214.944 45.1087 215.053 45.1568C215.162 45.2049 215.279 45.2287 215.398 45.2267H215.394Z" fill="black"/>
<path d="M157.763 52.4618C158.056 52.4555 158.347 52.5085 158.618 52.6177C158.89 52.7269 159.137 52.89 159.344 53.0972C159.753 53.5105 159.983 54.0689 159.983 54.6509C159.983 55.2329 159.753 55.7913 159.344 56.2045C159.137 56.4117 158.89 56.5748 158.618 56.684C158.347 56.7932 158.056 56.8462 157.763 56.8399H156.621V58.9811H155.34V52.4531L157.763 52.4618ZM157.763 55.6388C157.889 55.6418 158.015 55.6186 158.131 55.5706C158.248 55.5227 158.353 55.4511 158.441 55.3602C158.622 55.1691 158.72 54.9142 158.714 54.6509C158.719 54.5203 158.697 54.3901 158.65 54.2682C158.603 54.1463 158.532 54.0352 158.441 53.9415C158.353 53.8507 158.248 53.779 158.131 53.7311C158.015 53.6832 157.889 53.66 157.763 53.663H156.621V55.6388H157.763Z" fill="black"/>
<path d="M164.341 58.9811L163.95 57.806H161.344L160.954 58.9811H159.59L161.866 52.4531H163.451L165.74 58.9811H164.341ZM161.761 56.6049H163.546L162.656 53.9415L161.761 56.6049Z" fill="black"/>
<path d="M169.809 55.6092C170.099 55.7466 170.341 55.9665 170.506 56.2413C170.672 56.5161 170.753 56.8336 170.739 57.1541C170.746 57.4251 170.69 57.6941 170.576 57.9397C170.461 58.1852 170.291 58.4006 170.079 58.5685C169.594 58.9443 168.993 59.1369 168.38 59.1125C167.173 59.1125 166.365 58.6004 165.957 57.5763L167.06 56.9496C167.132 57.2357 167.302 57.4876 167.54 57.661C167.778 57.8344 168.069 57.9184 168.363 57.8983C168.65 57.9175 168.934 57.8393 169.171 57.6764C169.258 57.6016 169.328 57.5088 169.376 57.4044C169.424 57.3 169.449 57.1864 169.449 57.0714C169.449 56.9565 169.424 56.8429 169.376 56.7385C169.328 56.6341 169.258 56.5413 169.171 56.4665C168.944 56.3036 168.668 56.2251 168.389 56.2446H167.581V55.1H168.194C168.461 55.1152 168.726 55.0435 168.949 54.8955C169.031 54.8253 169.097 54.7389 169.144 54.6417C169.19 54.5445 169.216 54.4386 169.219 54.3309C169.222 54.2232 169.203 54.1159 169.163 54.0161C169.122 53.9162 169.061 53.8259 168.984 53.7509C168.792 53.5927 168.546 53.5148 168.298 53.5333C168.04 53.5239 167.787 53.5992 167.576 53.7477C167.365 53.8962 167.208 54.1098 167.13 54.3558L166.04 53.7204C166.229 53.2853 166.547 52.9188 166.951 52.6705C167.355 52.4223 167.825 52.3042 168.298 52.3322C168.871 52.3079 169.433 52.4936 169.879 52.8544C170.078 53.0235 170.236 53.2354 170.342 53.4742C170.448 53.713 170.499 53.9727 170.491 54.234C170.501 54.502 170.444 54.7683 170.325 55.0085C170.206 55.2488 170.029 55.4553 169.809 55.6092Z" fill="black"/>
<path d="M175.503 55.5984C175.774 55.7385 175.999 55.9528 176.153 56.2163C176.307 56.4798 176.382 56.7817 176.372 57.0868C176.378 57.3425 176.33 57.5967 176.23 57.8318C176.129 58.0669 175.979 58.2775 175.79 58.449C175.394 58.8038 174.878 58.9937 174.348 58.9799H171.59V52.452H174.152C174.67 52.4374 175.173 52.6246 175.555 52.9742C175.741 53.1357 175.89 53.3365 175.99 53.5622C176.089 53.7879 176.138 54.033 176.133 54.2798C176.141 54.5341 176.088 54.7867 175.979 55.0163C175.869 55.2458 175.706 55.4455 175.503 55.5984ZM174.135 53.6618H172.854V55.098H174.135C174.227 55.1004 174.319 55.0835 174.404 55.0483C174.489 55.013 174.566 54.9603 174.63 54.8934C174.697 54.8259 174.749 54.7456 174.784 54.6574C174.819 54.5692 174.836 54.4748 174.834 54.3799C174.837 54.2856 174.821 54.1918 174.787 54.1036C174.754 54.0155 174.703 53.9349 174.639 53.8664C174.573 53.799 174.495 53.7461 174.408 53.7109C174.322 53.6756 174.228 53.6589 174.135 53.6618ZM174.33 57.7788C174.43 57.7814 174.529 57.7634 174.622 57.726C174.715 57.6885 174.799 57.6324 174.869 57.5612C174.939 57.4872 174.995 57.3998 175.031 57.3041C175.068 57.2085 175.085 57.1065 175.082 57.0041C175.085 56.9043 175.068 56.8049 175.031 56.7121C174.995 56.6192 174.939 56.535 174.869 56.4645C174.8 56.3918 174.716 56.3344 174.623 56.2962C174.53 56.258 174.431 56.2397 174.33 56.2425H172.854V57.7788H174.33Z" fill="black"/>
<path d="M180.956 58.9811V55.0034L178.168 58.9811H177.195V52.4531H178.477V56.4395L181.265 52.4531H182.238V58.9811H180.956Z" fill="black"/>
<path d="M187.746 52.4609V53.6925H186.009V58.9802H184.706V53.6925H182.969V52.4609H187.746Z" fill="black"/>
<path d="M192.222 58.9811V55.0034L189.438 58.9811H188.461V52.4531H189.742V56.4395L192.53 52.4531H193.503V58.9811H192.222Z" fill="black"/>
<path d="M199.304 52.4603V58.9883H198.023V56.7252H197.289L195.791 58.9883H194.336L195.921 56.586C195.518 56.436 195.171 56.1655 194.927 55.8113C194.673 55.4678 194.537 55.0508 194.54 54.6232C194.54 54.0461 194.769 53.4927 195.176 53.0846C195.583 52.6765 196.136 52.4473 196.712 52.4473L199.304 52.4603ZM196.699 55.5894H198.001V53.6615H196.699C196.581 53.6607 196.465 53.6852 196.358 53.7332C196.251 53.7813 196.155 53.8518 196.078 53.94C195.905 54.1247 195.811 54.3701 195.817 54.6232C195.812 54.8775 195.906 55.1238 196.078 55.3109C196.155 55.4003 196.251 55.4716 196.359 55.5198C196.467 55.5679 196.585 55.5917 196.703 55.5894H196.699Z" fill="black"/>
<path d="M160.811 68.4936C160.255 69.0579 159.521 69.4114 158.733 69.4936C157.946 69.5759 157.155 69.3818 156.494 68.9445C155.834 68.5072 155.346 67.8538 155.113 67.0959C154.879 66.3379 154.916 65.5224 155.216 64.7885C155.516 64.0546 156.061 63.4478 156.758 63.0717C157.455 62.6956 158.26 62.5735 159.037 62.7262C159.814 62.879 160.514 63.2971 161.017 63.9092C161.52 64.5213 161.796 65.2895 161.797 66.0826C161.806 66.5307 161.723 66.9758 161.553 67.3905C161.384 67.8052 161.131 68.1806 160.811 68.4936ZM156.902 67.6232C157.306 68.0064 157.84 68.22 158.396 68.22C158.952 68.22 159.487 68.0064 159.89 67.6232C160.278 67.206 160.494 66.657 160.494 66.087C160.494 65.5169 160.278 64.9679 159.89 64.5507C159.487 64.1675 158.952 63.9539 158.396 63.9539C157.84 63.9539 157.306 64.1675 156.902 64.5507C156.515 64.9679 156.299 65.5169 156.299 66.087C156.299 66.657 156.515 67.206 156.902 67.6232Z" fill="black"/>
<path d="M165.192 65.2927C165.763 65.2707 166.32 65.4755 166.742 65.8628C166.942 66.0461 167.099 66.2706 167.203 66.5209C167.307 66.7711 167.356 67.041 167.346 67.312C167.356 67.5862 167.308 67.8594 167.204 68.1132C167.099 68.367 166.942 68.5954 166.742 68.7829C166.319 69.167 165.762 69.3687 165.192 69.3443H162.703V62.8164H166.79V64.048H163.984V65.284L165.192 65.2927ZM165.192 68.1432C165.423 68.151 165.648 68.0735 165.826 67.9256C165.909 67.8478 165.975 67.7525 166.018 67.6465C166.061 67.5404 166.08 67.4262 166.073 67.312C166.08 67.199 166.061 67.0861 166.018 66.9814C165.975 66.8767 165.91 66.783 165.826 66.7071C165.648 66.5607 165.422 66.4848 165.192 66.4938H163.984V68.1432H165.192Z" fill="black"/>
<path d="M170.556 62.8251C170.849 62.8188 171.14 62.8718 171.411 62.981C171.683 63.0902 171.93 63.2533 172.137 63.4605C172.343 63.6631 172.507 63.9048 172.619 64.1716C172.731 64.4384 172.788 64.7248 172.788 65.0141C172.788 65.3035 172.731 65.5899 172.619 65.8567C172.507 66.1235 172.343 66.3652 172.137 66.5678C171.93 66.775 171.683 66.9381 171.411 67.0473C171.14 67.1565 170.849 67.2095 170.556 67.2032H169.414V69.3443H168.133V62.8164L170.556 62.8251ZM170.556 66.002C170.683 66.0049 170.809 65.9816 170.926 65.9337C171.043 65.8858 171.15 65.8142 171.238 65.7235C171.416 65.5309 171.513 65.2766 171.507 65.0141C171.511 64.884 171.49 64.7543 171.443 64.6325C171.397 64.5108 171.327 64.3994 171.238 64.3048C171.15 64.2141 171.043 64.1425 170.926 64.0946C170.809 64.0467 170.683 64.0234 170.556 64.0263H169.414V66.002H170.556Z" fill="black"/>
<path d="M177.128 69.3443L176.737 68.1693H174.131L173.74 69.3443H172.359L174.635 62.8164H176.22L178.509 69.3443H177.128ZM174.553 66.9682H176.338L175.447 64.3048L174.553 66.9682Z" fill="black"/>
<path d="M182.607 65.9686C182.895 66.1071 183.136 66.3273 183.3 66.602C183.465 66.8766 183.545 67.1935 183.532 67.5135C183.54 67.7841 183.485 68.0529 183.371 68.2984C183.257 68.5439 183.087 68.7595 182.876 68.9279C182.39 69.3031 181.787 69.4942 181.173 69.4675C179.966 69.4675 179.158 68.9569 178.75 67.9357L179.853 67.309C179.925 67.5951 180.095 67.8469 180.333 68.0204C180.571 68.1938 180.862 68.2778 181.156 68.2577C181.443 68.2768 181.727 68.1986 181.964 68.0357C182.051 67.961 182.121 67.8682 182.169 67.7638C182.217 67.6594 182.242 67.5458 182.242 67.4308C182.242 67.3159 182.217 67.2023 182.169 67.0979C182.121 66.9934 182.051 66.9007 181.964 66.8259C181.737 66.663 181.461 66.5845 181.182 66.604H180.374V65.4594H180.991C181.256 65.474 181.518 65.4022 181.738 65.2548C181.82 65.1847 181.886 65.0983 181.932 65.001C181.979 64.9038 182.004 64.798 182.008 64.6903C182.011 64.5825 181.992 64.4753 181.951 64.3754C181.911 64.2756 181.85 64.1853 181.773 64.1103C181.58 63.9521 181.335 63.8742 181.087 63.8927C180.829 63.8833 180.575 63.9586 180.364 64.1071C180.153 64.2556 179.997 64.4691 179.918 64.7152L178.846 64.0798C179.035 63.6446 179.353 63.2782 179.757 63.0299C180.161 62.7816 180.631 62.6635 181.104 62.6915C181.677 62.6673 182.239 62.8529 182.685 63.2138C182.884 63.3829 183.042 63.5947 183.148 63.8336C183.254 64.0724 183.305 64.3321 183.297 64.5933C183.306 64.8621 183.247 65.1288 183.127 65.369C183.006 65.6092 182.827 65.8154 182.607 65.9686Z" fill="black"/>
<path d="M189.838 68.4939C189.281 69.0627 188.544 69.42 187.754 69.505C186.963 69.5899 186.168 69.397 185.503 68.9594C184.839 68.5218 184.347 67.8666 184.111 67.1057C183.876 66.3448 183.911 65.5255 184.211 64.7879C184.512 64.0502 185.058 63.4399 185.758 63.0614C186.457 62.6828 187.266 62.5595 188.047 62.7124C188.827 62.8653 189.53 63.285 190.036 63.8998C190.541 64.5146 190.818 65.2862 190.819 66.0829C190.829 66.5307 190.746 66.9756 190.578 67.3903C190.409 67.805 190.157 68.1806 189.838 68.4939ZM185.929 67.6235C186.13 67.8204 186.368 67.9756 186.629 68.0803C186.891 68.185 187.17 68.2371 187.451 68.2337C187.732 68.2302 188.01 68.1713 188.269 68.0603C188.527 67.9492 188.762 67.7883 188.958 67.5865C189.155 67.3848 189.309 67.1462 189.414 66.8845C189.518 66.6228 189.57 66.343 189.567 66.0611C189.564 65.7792 189.505 65.5008 189.394 65.2417C189.283 64.9826 189.122 64.7479 188.921 64.551C188.517 64.1665 187.982 63.9521 187.425 63.9521C186.868 63.9521 186.332 64.1665 185.929 64.551C185.543 64.9692 185.329 65.5178 185.329 66.0873C185.329 66.6568 185.543 67.2053 185.929 67.6235Z" fill="black"/>
<path d="M195.635 65.9599C195.906 66.0999 196.131 66.3142 196.285 66.5777C196.439 66.8413 196.515 67.1432 196.504 67.4482C196.511 67.7039 196.462 67.9581 196.362 68.1932C196.261 68.4284 196.111 68.6389 195.922 68.8104C195.527 69.1652 195.011 69.3552 194.48 69.3413H191.727V62.8134H194.289C194.807 62.7979 195.31 62.9852 195.692 63.3356C195.878 63.4972 196.026 63.698 196.126 63.9237C196.226 64.1494 196.275 64.3944 196.269 64.6412C196.277 64.8959 196.224 65.1488 196.113 65.3783C196.003 65.6079 195.839 65.8074 195.635 65.9599ZM194.267 64.0232H192.986V65.4594H194.267C194.36 65.4625 194.453 65.4458 194.539 65.4106C194.625 65.3753 194.703 65.3223 194.767 65.2548C194.833 65.1873 194.886 65.107 194.921 65.0188C194.956 64.9306 194.973 64.8362 194.971 64.7413C194.973 64.647 194.958 64.5532 194.924 64.4651C194.891 64.377 194.84 64.2963 194.775 64.2278C194.711 64.1616 194.634 64.1092 194.549 64.0741C194.464 64.0389 194.372 64.0216 194.28 64.0232H194.267ZM194.463 68.1402C194.563 68.1428 194.662 68.1248 194.754 68.0874C194.847 68.05 194.931 67.9939 195.001 67.9226C195.072 67.8486 195.127 67.7612 195.164 67.6655C195.2 67.5699 195.217 67.4679 195.214 67.3655C195.217 67.2658 195.2 67.1664 195.164 67.0735C195.127 66.9807 195.072 66.8964 195.001 66.8259C194.932 66.7532 194.848 66.6959 194.755 66.6576C194.663 66.6194 194.563 66.6011 194.463 66.604H192.986V68.1402H194.463Z" fill="black"/>
<path d="M201.521 69.3443L201.13 68.1693H198.525L198.134 69.3443H196.766L199.041 62.8164H200.631L202.915 69.3443H201.521ZM198.95 66.9682H200.735L199.84 64.3048L198.95 66.9682Z" fill="black"/>
<path d="M207.243 62.8251H208.515V69.3531H207.243V66.6418H204.828V69.3443H203.547V62.8164H204.828V65.4276H207.243V62.8251Z" fill="black"/>
<path d="M213.488 69.3421V65.3862L210.704 69.3639H209.727V62.8359H211.008V66.8223L213.796 62.8359H214.769V69.3639L213.488 69.3421Z" fill="black"/>
<path d="M220.568 62.8227V69.3507H219.287V67.0876H218.553L217.055 69.3507H215.617L217.202 66.9484C216.795 66.802 216.442 66.5349 216.19 66.1824C215.935 65.8393 215.798 65.4223 215.8 64.9943C215.8 64.4172 216.028 63.8638 216.436 63.4557C216.843 63.0476 217.395 62.8184 217.971 62.8184L220.568 62.8227ZM217.962 65.9518H219.265V64.0239H217.962C217.844 64.0236 217.728 64.0482 217.62 64.0962C217.512 64.1442 217.416 64.2145 217.337 64.3024C217.167 64.4885 217.075 64.7333 217.081 64.9856C217.077 65.239 217.168 65.4846 217.337 65.6732C217.416 65.7626 217.513 65.8338 217.621 65.8819C217.73 65.9299 217.848 65.9538 217.967 65.9518H217.962Z" fill="black"/>
</svg>
