<svg width="250" height="100" viewBox="0 0 250 100" fill="none" xmlns="http://www.w3.org/2000/svg">
<path d="M42.2986 65.6372V52.5366L36.0755 60.4458L29.8636 52.5366V65.6372H28V48.998H29.0427L36.0755 57.961L43.1084 48.998H44.2176V65.6372H42.2986Z" fill="#532A29"/>
<path d="M62.3262 65.6372H60.2852L67.196 48.998H68.2387L75.1273 65.6372H73.0751L71.267 61.2001H64.1454L62.3262 65.6372ZM64.811 59.4696H70.6236L67.7173 52.3924L64.811 59.4696Z" fill="#532A29"/>
<path d="M96.6177 48.9531C100.866 48.9531 103.817 51.2493 103.817 54.9654C103.839 56.2141 103.426 57.4315 102.649 58.4091C101.872 59.3866 100.779 60.0633 99.5572 60.3232C100.735 60.9499 101.697 61.9161 102.319 63.0964L103.983 65.6367H101.865L100.511 63.5179C99.1024 61.3548 98.2927 60.9888 96.5289 60.9666H93.1234V65.6367H91.2266V48.9975L96.6177 48.9531ZM93.1234 59.225H96.7729C99.6571 59.225 102.064 57.9383 102.064 54.9654C102.064 51.9925 99.646 50.6947 96.7729 50.6947H93.1234V59.225Z" fill="#532A29"/>
<path d="M133.714 58.4707C133.714 63.0188 130.896 65.803 126.914 65.803C122.931 65.803 120.125 63.0188 120.125 58.4707V48.9531H121.989V58.4153C121.989 62.0648 123.919 64.0726 126.914 64.0726C129.909 64.0726 131.85 62.0648 131.85 58.4153V48.9531H133.714V58.4707Z" fill="#532A29"/>
<path d="M156.263 48.7871C157.416 48.7855 158.554 49.0404 159.596 49.5335C160.638 50.0266 161.557 50.7455 162.287 51.638L161.077 52.7472C160.474 52.0627 159.734 51.5117 158.905 51.1297C158.076 50.7476 157.176 50.5429 156.263 50.5287H155.997C154.233 50.5287 152.114 51.4605 152.114 53.435C152.114 54.8881 153.224 55.6535 155.686 55.9198L157.494 56.1527C160.822 56.5853 162.863 57.8721 162.863 60.9004C162.863 63.9288 160.068 65.7812 156.707 65.8034H156.574C153.246 65.8034 150.894 64.2837 149.852 62.1872L151.061 61.0779C151.826 62.764 153.734 64.0841 156.607 64.0841H156.674C159.036 64.0841 160.967 62.886 160.967 60.9115C160.967 58.937 159.635 58.216 157.25 57.8832L155.442 57.6724C152.114 57.2398 150.218 55.9974 150.218 53.5015C150.218 50.6174 152.913 48.8204 155.964 48.7982L156.263 48.7871Z" fill="#532A29"/>
<path d="M183.99 65.6367V59.9239L177.645 48.9531H179.763L184.944 57.6831L190.091 48.9531H192.176L185.809 59.9239V65.6367H183.99Z" fill="#532A29"/>
<path d="M208.81 65.6372H206.758L213.669 48.998H214.778L221.667 65.6372H219.57L217.762 61.2001H210.629L208.81 65.6372ZM211.284 59.4696H217.107L214.19 52.3924L211.284 59.4696Z" fill="#532A29"/>
<path d="M192.952 35.8209L186.884 45.2164L185.453 44.3956L191.521 35L192.952 35.8209Z" fill="#532A29"/>
</svg>
