<svg width="250" height="100" viewBox="0 0 250 100" fill="none" xmlns="http://www.w3.org/2000/svg">
<path d="M94.4077 57.1394C94.4077 57.9767 94.1071 58.6986 93.506 59.3049C92.9334 59.8824 92.2321 60.1711 91.4019 60.1711L82.3847 60.1711C81.5545 60.1711 80.8388 59.8824 80.2377 59.3049C79.6652 58.6986 79.3789 57.9767 79.3789 57.1394L79.3789 48.0441C79.3789 47.2067 79.6652 46.4993 80.2377 45.9218C80.8388 45.3155 81.5545 45.0123 82.3847 45.0123L91.4019 45.0123C92.2321 45.0123 92.9334 45.3155 93.506 45.9218C94.1071 46.4993 94.4077 47.2067 94.4077 48.0441L94.4077 57.1394ZM91.4019 57.5725L91.4019 47.611L82.3847 47.611L82.3847 57.5725L91.4019 57.5725Z" fill="#181818"/>
<path d="M115.887 57.1394C115.887 57.9767 115.587 58.6986 114.986 59.3049C114.413 59.8824 113.712 60.1711 112.882 60.1711L103.864 60.1711L100.859 60.1711L100.859 38.0825L103.864 35.0508L103.864 45.0123H106.011L112.882 45.0123C113.712 45.0123 114.413 45.3155 114.986 45.9218C115.587 46.4993 115.887 47.2067 115.887 48.0441V57.1394ZM112.882 57.5725V47.611L103.864 47.611L103.864 57.5725L112.882 57.5725Z" fill="#181818"/>
<path d="M136.928 60.1711L133.922 60.1711L131.775 60.1711L124.905 60.1711C124.075 60.1711 123.359 59.8824 122.758 59.3049C122.185 58.6986 121.899 57.9767 121.899 57.1394V48.0441C121.899 47.2067 122.185 46.4993 122.758 45.9218C123.359 45.3155 124.075 45.0123 124.905 45.0123L133.922 45.0123V38.0825L136.928 35.0508L136.928 60.1711ZM133.922 57.5725V47.611H131.775L124.905 47.611V57.5725L133.922 57.5725Z" fill="#181818"/>
<path d="M158.397 60.1711L146.374 60.1711C145.544 60.1711 144.829 59.8824 144.227 59.3049C143.655 58.6986 143.369 57.9767 143.369 57.1394V48.0441C143.369 47.2067 143.655 46.4993 144.227 45.9218C144.829 45.3155 145.544 45.0123 146.374 45.0123L155.392 45.0123C156.222 45.0123 156.923 45.3155 157.496 45.9218C158.097 46.4993 158.397 47.2067 158.397 48.0441V51.0758L155.392 54.1076L145.945 54.1076V51.509L155.392 51.509V47.611L146.374 47.611L146.374 57.5725L158.397 57.5725V60.1711Z" fill="#181818"/>
<path d="M178.577 57.1394C178.577 57.9767 178.277 58.6986 177.675 59.3049C177.103 59.8824 176.402 60.1711 175.571 60.1711L166.554 60.1711L163.548 60.1711L163.548 38.0825L166.554 35.0508V45.0123L168.701 45.0123L175.571 45.0123C176.402 45.0123 177.103 45.3155 177.675 45.9218C178.277 46.4993 178.577 47.2067 178.577 48.0441L178.577 57.1394ZM175.571 57.5725L175.571 47.611L166.554 47.611L166.554 57.5725L175.571 57.5725Z" fill="#181818"/>
<path d="M199.617 60.1711L196.612 60.1711H194.465L187.594 60.1711C186.764 60.1711 186.049 59.8824 185.447 59.3049C184.875 58.6986 184.589 57.9767 184.589 57.1394L184.589 45.0123H187.594L187.594 57.5725L196.612 57.5725L196.612 45.0123L199.617 45.0123L199.617 60.1711Z" fill="#181818"/>
<path d="M215.515 60.1711L209.504 60.1711C208.673 60.1711 207.958 59.8824 207.357 59.3049C206.784 58.6986 206.498 57.9767 206.498 57.1394L206.498 47.611L202.204 47.611L204.78 45.0123L206.498 45.0123V41.9805L209.504 38.9488L209.504 45.0123L215.515 45.0123V47.611L209.504 47.611V57.5725L215.515 57.5725L215.515 60.1711Z" fill="#181818"/>
<path fill-rule="evenodd" clip-rule="evenodd" d="M34 44.8164C34 43.6686 34.456 42.5678 35.2676 41.7561L44.7561 32.2676C45.5678 31.456 46.6686 31 47.8164 31L70.3545 31C71.3106 31 72.0857 31.7751 72.0857 32.7312L72.0857 67.3545C72.0857 68.3106 71.3106 69.0857 70.3545 69.0857L35.7312 69.0857C34.7751 69.0857 34 68.3106 34 67.3545L34 44.8164ZM60.4003 60.8194L63.8627 60.8194L63.8627 39.6558L57.8469 39.6558L53.5622 49.7832H53.1294L48.8448 39.6558L45.2526 39.6558L42.6558 39.6558L42.6558 42.2526L42.6558 69.0857L46.1182 69.0857L46.1182 42.7287H46.7674L51.9176 54.8036L54.4278 54.8036L59.7511 42.7287H60.4003L60.4003 60.8194Z" fill="#222222"/>
</svg>
