<svg width="250" height="100" viewBox="0 0 250 100" fill="none" xmlns="http://www.w3.org/2000/svg">
<path d="M45.9186 63.853L36.8511 44.1195V59.7789C36.8511 61.2322 37.007 62.14 37.3182 62.4907C37.7459 62.9707 38.4212 63.2043 39.3288 63.2043H40.1721V63.853H32V63.2043H32.8299C33.8292 63.2043 34.5299 62.9057 34.9443 62.3093C35.1912 61.9324 35.3204 61.0896 35.3204 59.7789V44.4569C35.3204 43.432 35.2039 42.679 34.9703 42.2251C34.8278 41.875 34.5299 41.5891 34.101 41.3689C33.6732 41.1486 32.9725 41.0315 32 41.0315V40.3828H38.6542L47.1508 58.754L55.5304 40.3828H62.1584V41.0315H61.3546C60.3426 41.0315 59.6419 41.33 59.2403 41.9265C58.9806 42.3028 58.8508 43.1462 58.8508 44.4569V59.7789C58.8508 61.2322 59.0067 62.14 59.3179 62.4907C59.7456 62.9707 60.4336 63.2043 61.3546 63.2043H62.1584V63.853H52.1966V63.2043H53.0399C54.0385 63.2043 54.7393 62.9057 55.1409 62.3093C55.4005 61.9324 55.5304 61.0896 55.5304 59.7789V44.1195L46.4762 63.853H45.9186Z" fill="#2C2B2A"/>
<path d="M70.6499 47.5449C73.0499 47.5449 74.9695 48.4527 76.4352 50.2695C77.6674 51.8393 78.2899 53.6167 78.2899 55.6276C78.2899 57.0548 77.9526 58.4954 77.2652 59.9487C76.5778 61.4014 75.6441 62.4918 74.4508 63.2309C73.2574 63.9706 71.9342 64.3475 70.4685 64.3475C68.0951 64.3475 66.1883 63.3869 64.7741 61.4797C63.5807 59.871 62.9844 58.0682 62.9844 56.0827C62.9844 54.6294 63.3472 53.1889 64.074 51.7489C64.7875 50.3089 65.7472 49.2579 66.9278 48.5704C68.1079 47.8829 69.3406 47.5455 70.6505 47.5455L70.6499 47.5449ZM70.1178 48.6608C69.5081 48.6608 68.885 48.8423 68.2759 49.2058C67.6534 49.5692 67.1475 50.2052 66.7719 51.113C66.3952 52.0207 66.201 53.1889 66.201 54.6288C66.201 56.9383 66.6548 58.9232 67.5758 60.5968C68.4967 62.2704 69.7028 63.1138 71.2074 63.1138C72.3231 63.1138 73.2441 62.6466 73.9836 61.7261C74.7098 60.8049 75.0732 59.2218 75.0732 56.9644C75.0732 54.1494 74.4635 51.9431 73.2441 50.335C72.4269 49.2185 71.3767 48.6608 70.1178 48.6608Z" fill="#2C2B2A"/>
<path d="M84.9182 39.2422V60.273C84.9182 61.259 84.9959 61.9205 85.139 62.2445C85.2816 62.5685 85.5152 62.8155 85.8131 62.9842C86.1116 63.1535 86.6697 63.2306 87.4863 63.2306V63.8538H79.7031V63.2306C80.4427 63.2306 80.9359 63.1535 81.2077 62.9976C81.4807 62.8543 81.6876 62.608 81.8308 62.2579C81.9733 61.9205 82.051 61.2584 82.051 60.273V45.8843C82.051 44.0942 82.0122 42.9911 81.9345 42.5893C81.8435 42.187 81.7137 41.9018 81.545 41.7459C81.3636 41.6033 81.13 41.5256 80.8449 41.5256C80.5464 41.5256 80.1703 41.616 79.7031 41.7981L79.418 41.1882L84.152 39.2422H84.9176H84.9182ZM92.7966 42.7969V48.0124H96.5065V49.2187H92.7966V59.4944C92.7966 60.5193 92.9526 61.2202 93.2504 61.5703C93.5489 61.9332 93.9251 62.1146 94.3916 62.1146C94.7684 62.1146 95.1312 61.9981 95.4812 61.7518C95.8319 61.5182 96.117 61.168 96.3245 60.7008H96.9992C96.5969 61.8294 96.0394 62.6857 95.2998 63.2567C94.5603 63.841 93.7953 64.1262 93.0035 64.1262C92.4715 64.1262 91.9527 63.9703 91.4468 63.6723C90.9408 63.3738 90.5646 62.9587 90.3183 62.4144C90.072 61.8695 89.9555 61.026 89.9555 59.8713V49.2193H87.439V48.6617C88.0748 48.4026 88.7361 47.9614 89.398 47.3516C90.0593 46.7417 90.6435 46.0281 91.175 45.2108C91.4474 44.7696 91.8108 43.965 92.2646 42.7975H92.7966V42.7969ZM99.6116 53.9804C99.5982 56.3287 100.156 58.1843 101.311 59.5199C102.465 60.8567 103.827 61.5309 105.384 61.5309C106.422 61.5309 107.33 61.2457 108.095 60.6613C108.861 60.0909 109.508 59.1176 110.028 57.7298L110.56 58.0672C110.314 59.6631 109.6 61.1031 108.446 62.4005C107.278 63.6978 105.813 64.3471 104.062 64.3471C102.168 64.3471 100.546 63.6074 99.1972 62.1153C97.8352 60.6365 97.1606 58.6516 97.1606 56.1473C97.1606 53.4361 97.8479 51.308 99.236 49.7897C100.624 48.2721 102.362 47.5191 104.464 47.5191C106.241 47.5191 107.694 48.1028 108.848 49.2703C109.989 50.4378 110.56 52.0082 110.56 53.9798H99.6128L99.6116 53.9804ZM99.6116 52.9682H106.94C106.875 51.9561 106.758 51.2424 106.59 50.8274C106.291 50.1915 105.85 49.686 105.293 49.3098C104.722 48.9335 104.125 48.7521 103.503 48.7521C102.556 48.7521 101.699 49.1283 100.935 49.868C100.169 50.6077 99.7281 51.6454 99.6116 52.9688V52.9682Z" fill="#2C2B2A"/>
<path d="M116.193 50.8931C118.047 48.6612 119.824 47.5453 121.511 47.5453C122.38 47.5453 123.119 47.7528 123.742 48.1812C124.351 48.609 124.845 49.336 125.221 50.3354C125.467 51.0223 125.597 52.0733 125.597 53.5005V60.2731C125.597 61.2725 125.675 61.9594 125.844 62.3102C125.986 62.5954 126.194 62.8163 126.48 62.9843C126.752 63.1536 127.27 63.2307 128.036 63.2307V63.8539H120.188V63.2307H120.526C121.265 63.2307 121.771 63.1142 122.069 62.8939C122.368 62.673 122.562 62.3363 122.679 61.9079C122.731 61.7264 122.756 61.1809 122.756 60.2731V53.7985C122.756 52.3585 122.575 51.3075 122.199 50.6455C121.823 49.9841 121.187 49.6594 120.305 49.6594C118.93 49.6594 117.555 50.4119 116.193 51.9167V60.2725C116.193 61.349 116.258 62.0104 116.387 62.2701C116.557 62.5942 116.777 62.8411 117.049 62.9971C117.322 63.153 117.905 63.2301 118.787 63.2301V63.8533H110.939V63.2301H111.276C112.093 63.2301 112.651 63.0232 112.924 62.6075C113.196 62.2052 113.326 61.4267 113.326 60.2725V54.395C113.326 52.4878 113.287 51.333 113.209 50.9046C113.131 50.4895 113.002 50.2043 112.82 50.0611C112.639 49.9185 112.405 49.8409 112.107 49.8409C111.782 49.8409 111.393 49.9313 110.939 50.1133L110.68 49.4774L115.453 47.5441H116.193V50.8918V50.8931ZM148.788 39.8522L149.397 47.2734H148.788C148.178 45.4184 147.387 44.0294 146.414 43.0956C145.026 41.7594 143.223 41.0846 141.03 41.0846C138.06 41.0846 135.79 42.2654 134.22 44.6132C132.923 46.6114 132.274 48.9859 132.274 51.7359C132.274 53.9805 132.702 56.0176 133.571 57.8598C134.441 59.7149 135.569 61.0644 136.97 61.9206C138.371 62.7768 139.81 63.2052 141.276 63.2052C142.146 63.2052 142.976 63.1015 143.78 62.8806C144.584 62.6603 145.363 62.3363 146.128 61.9079V55.1353C146.128 53.9544 146.037 53.1886 145.868 52.8257C145.687 52.4623 145.401 52.1898 145.025 51.995C144.649 51.8136 143.987 51.7226 143.04 51.7226V51.0478H152.121V51.7226H151.693C150.798 51.7226 150.188 52.0211 149.838 52.6176C149.618 53.0454 149.501 53.8889 149.501 55.1347V62.3096C148.178 63.0232 146.868 63.5553 145.571 63.8921C144.274 64.2168 142.834 64.3855 141.264 64.3855C136.737 64.3855 133.287 62.9322 130.939 60.0261C129.175 57.8598 128.292 55.3428 128.292 52.475C128.292 50.4252 128.786 48.4531 129.772 46.5592C130.952 44.3146 132.56 42.5761 134.623 41.3698C136.335 40.3576 138.359 39.8522 140.693 39.8522C141.563 39.8522 142.341 39.9171 143.041 40.0597C143.728 40.2023 144.714 40.5136 145.999 40.9936C146.66 41.2272 147.088 41.3437 147.296 41.3437C147.516 41.3437 147.698 41.2399 147.866 41.0452C148.022 40.8504 148.113 40.4481 148.139 39.8516H148.788V39.8522Z" fill="#2C2B2A"/>
<path d="M157.224 47.5442V51.1122C158.548 48.7378 159.909 47.5442 161.31 47.5442C161.933 47.5442 162.452 47.739 162.88 48.1152C163.295 48.5042 163.503 48.9587 163.503 49.4647C163.503 49.9053 163.36 50.2821 163.062 50.5934C162.763 50.918 162.401 51.0734 161.986 51.0734C161.583 51.0734 161.129 50.8792 160.624 50.4769C160.118 50.0746 159.741 49.8798 159.495 49.8798C159.288 49.8798 159.067 49.9969 158.834 50.2172C158.302 50.6972 157.77 51.4757 157.226 52.5655V60.1421C157.226 61.0244 157.342 61.6859 157.563 62.127C157.705 62.4511 157.978 62.7108 158.354 62.9183C158.73 63.1258 159.274 63.229 159.988 63.229V63.8522H151.881V63.229C152.685 63.229 153.281 63.0997 153.671 62.84C153.969 62.6707 154.164 62.3728 154.267 61.9705C154.332 61.7629 154.358 61.2047 154.358 60.2969V54.1475C154.358 52.3052 154.319 51.202 154.255 50.8519C154.177 50.5018 154.034 50.2554 153.84 50.0861C153.632 49.9174 153.386 49.8397 153.087 49.8397C152.737 49.8397 152.334 49.9302 151.881 50.1122L151.699 49.4763L156.486 47.543H157.226L157.224 47.5442ZM172.263 61.5694C170.641 62.8273 169.617 63.5409 169.202 63.7363C168.579 64.0348 167.918 64.1902 167.217 64.1902C166.127 64.1902 165.233 63.8139 164.519 63.0615C163.806 62.3091 163.456 61.323 163.456 60.1033C163.456 59.3248 163.624 58.6506 163.975 58.0923C164.429 57.3138 165.246 56.5747 166.426 55.8872C167.607 55.1997 169.552 54.3435 172.264 53.3441V52.7215C172.264 51.1511 172.017 50.0612 171.511 49.4647C171.005 48.881 170.278 48.5824 169.331 48.5824C168.605 48.5824 168.021 48.79 167.593 49.1923C167.166 49.5818 166.945 50.023 166.945 50.5291L166.971 51.5412C166.971 52.0734 166.841 52.4885 166.569 52.7609C166.296 53.0467 165.945 53.1887 165.518 53.1887C165.09 53.1887 164.739 53.0328 164.467 52.7348C164.195 52.4363 164.065 52.0346 164.065 51.5151C164.065 50.5291 164.571 49.6213 165.582 48.7906C166.594 47.9605 168.021 47.5448 169.85 47.5448C171.25 47.5448 172.405 47.7784 173.313 48.2584C173.974 48.6085 174.48 49.1662 174.805 49.932C175.012 50.4253 175.116 51.4369 175.116 52.9678V58.3521C175.116 59.8569 175.142 60.7787 175.207 61.1161C175.271 61.4662 175.362 61.6865 175.492 61.8036C175.609 61.9201 175.765 61.9723 175.946 61.9723C176.127 61.9723 176.296 61.9328 176.439 61.8685C176.686 61.7126 177.139 61.2848 177.827 60.5973V61.5706C176.542 63.2963 175.323 64.1653 174.143 64.1653C173.572 64.1653 173.118 63.9705 172.794 63.5682C172.456 63.1792 172.274 62.5178 172.262 61.5706L172.263 61.5694ZM172.263 60.4534V54.3945C170.512 55.0947 169.396 55.588 168.89 55.8739C167.982 56.3799 167.333 56.9115 166.944 57.4698C166.555 58.0274 166.36 58.6373 166.36 59.2993C166.36 60.1167 166.607 60.7914 167.1 61.3491C167.593 61.9074 168.164 62.1798 168.799 62.1798C169.681 62.1798 170.836 61.6088 172.263 60.454V60.4534Z" fill="#2C2B2A"/>
<path d="M188.171 47.5455V52.9431H187.588C187.159 51.2434 186.601 50.0887 185.914 49.4788C185.227 48.869 184.358 48.571 183.281 48.571C182.477 48.571 181.828 48.7786 181.335 49.207C180.842 49.6348 180.596 50.102 180.596 50.6208C180.596 51.2568 180.777 51.8144 181.153 52.2817C181.503 52.7617 182.217 53.2677 183.319 53.7993L185.849 55.0062C188.183 56.1604 189.351 57.6659 189.351 59.5209C189.351 60.9615 188.807 62.129 187.73 63.0113C186.641 63.9063 185.421 64.3481 184.059 64.3481C183.087 64.3481 181.984 64.1666 180.752 63.8159C180.363 63.6988 180.051 63.6466 179.818 63.6466C179.545 63.6466 179.338 63.8026 179.195 64.1005H178.612V58.4438H179.195C179.519 60.0525 180.129 61.2722 181.05 62.0889C181.958 62.9063 182.983 63.322 184.111 63.322C184.902 63.322 185.551 63.0883 186.057 62.6084C186.563 62.1411 186.809 61.5835 186.809 60.9214C186.809 60.1301 186.537 59.4681 185.979 58.9238C185.422 58.3789 184.293 57.6908 182.62 56.8607C180.946 56.0433 179.843 55.2908 179.325 54.6294C178.806 53.968 178.547 53.1373 178.547 52.1251C178.547 50.8278 178.988 49.7379 179.883 48.8556C180.778 47.9861 181.933 47.5449 183.372 47.5449C183.982 47.5449 184.734 47.6748 185.63 47.9472C186.214 48.1165 186.602 48.207 186.81 48.207C186.991 48.207 187.134 48.1681 187.238 48.0771C187.341 47.9994 187.459 47.8174 187.588 47.5449H188.172L188.171 47.5455Z" fill="#2C2B2A"/>
<path d="M200.828 47.5455V52.9431H200.244C199.816 51.2434 199.258 50.0887 198.57 49.4788C197.883 48.869 197.014 48.571 195.937 48.571C195.133 48.571 194.484 48.7786 193.991 49.207C193.498 49.6348 193.252 50.102 193.252 50.6208C193.252 51.2568 193.433 51.8144 193.809 52.2817C194.16 52.7617 194.873 53.2677 195.975 53.7993L198.505 55.0062C200.84 56.1604 202.008 57.6659 202.008 59.5209C202.008 60.9615 201.463 62.129 200.387 63.0113C199.297 63.9063 198.077 64.3481 196.715 64.3481C195.743 64.3481 194.64 64.1666 193.408 63.8159C193.019 63.6988 192.708 63.6466 192.474 63.6466C192.202 63.6466 191.994 63.8026 191.852 64.1005H191.268V58.4438H191.852C192.176 60.0525 192.785 61.2722 193.706 62.0889C194.614 62.9063 195.639 63.322 196.767 63.322C197.558 63.322 198.207 63.0883 198.713 62.6084C199.219 62.1411 199.466 61.5835 199.466 60.9214C199.466 60.1301 199.193 59.4681 198.636 58.9238C198.078 58.3789 196.949 57.6908 195.276 56.8607C193.603 56.0433 192.5 55.2908 191.981 54.6294C191.462 53.968 191.203 53.1373 191.203 52.1251C191.203 50.8278 191.644 49.7379 192.54 48.8556C193.435 47.9861 194.589 47.5449 196.029 47.5449C196.638 47.5449 197.391 47.6748 198.286 47.9472C198.87 48.1165 199.259 48.207 199.466 48.207C199.648 48.207 199.79 48.1681 199.894 48.0771C199.998 47.9994 200.115 47.8174 200.245 47.5449H200.828L200.828 47.5455Z" fill="#2C2B2A"/>
<path d="M218.378 40.4686H212.911V35H205.938V52.9118H212.911V47.4432H218.378V40.4686Z" fill="#BD2741"/>
</svg>
