<svg width="250" height="100" viewBox="0 0 250 100" fill="none" xmlns="http://www.w3.org/2000/svg">
<path d="M80.5358 22.2475C83.4893 22.2475 85.8658 23.6461 87.5987 26.4032L87.7258 26.6063L92.0038 23.5869L91.9022 23.4092C89.5982 19.3952 85.3493 17 80.5358 17C72.8315 17 66.7969 22.8653 66.7969 30.3537C66.7969 37.8419 72.8146 43.7073 80.4974 43.7073C85.3747 43.7073 89.6384 41.3099 91.9022 37.296L92.0038 37.1183L87.7258 34.0988L87.5987 34.2998C85.8658 37.0569 83.4893 38.4556 80.5358 38.4556C75.9292 38.4556 72.5861 35.0637 72.5861 30.3896C72.5861 25.6732 75.9292 22.2475 80.5358 22.2475Z" fill="#333332"/>
<path d="M105.707 30.9144L99.4105 17.4592H93.1094L102.648 37.0781C101.844 38.0429 100.79 38.4936 99.3449 38.4936C98.6912 38.4936 97.9423 38.4513 97.3371 38.3794L97.0853 38.3497V43.1868L97.2461 43.2354C98.2153 43.5295 99.1504 43.6671 100.191 43.6671C105.158 43.6671 106.946 40.6667 108.765 36.7395L117.546 17.457H111.518L105.707 30.9144Z" fill="#333332"/>
<path d="M120.383 43.2458H126.018V22.5944H136.39V43.2458H142.025V17.459H120.383V43.2458Z" fill="#333332"/>
<path d="M152.998 32.152H161.711V27.2854H152.998V22.5944H164.858V17.459H147.363V43.2458H165.319V38.1105H152.998V32.152Z" fill="#333332"/>
<path d="M179.102 17.459H169.355V43.2458H174.99V34.3018H179.102C184.613 34.3018 188.462 30.8317 188.462 25.8614C188.462 20.836 184.7 17.459 179.102 17.459ZM179.102 29.3209H174.988V22.4801H179.099C181.293 22.4801 182.711 23.8089 182.711 25.8614C182.714 27.9942 181.329 29.3209 179.102 29.3209Z" fill="#333332"/>
<path d="M114.031 43.4143L112.736 39.5781C103.735 43.4334 93.7815 44.65 87.4609 44.7093L87.4697 48.2958C90.1673 48.2703 93.7579 48.1053 97.768 47.5806C97.1434 53.2301 96.3271 63.6216 96.6675 73.4034L100.328 73.1581C99.9514 62.9166 100.866 51.9394 101.428 47.0114C105.512 46.2772 109.854 45.1494 114.031 43.4143Z" fill="#A2BC0C"/>
<path d="M216.321 59.0422C210.542 63.1661 207.724 63.0645 206.114 62.8931C205.172 62.7937 204.469 62.3303 203.964 61.4776C203.005 59.8568 203.291 57.2838 203.611 54.9605L200.113 54.2771C199.402 58.2064 197.489 61.7569 195.348 63.113C194.561 63.6105 193.835 63.7524 193.189 63.5362C192.569 63.3269 192.149 62.9014 191.865 62.1949C191.104 60.3053 191.617 57.2605 192.489 55.3541C193.784 52.523 196.336 51.1624 197.417 51.063C198.428 50.9678 199.133 51.2746 199.923 52.1548L202.512 49.5458C200.985 47.8446 199.226 47.1083 197.134 47.3051C194.647 47.5336 191.053 49.8632 189.286 53.7291C188.109 56.2999 187.443 60.1128 188.412 63.1384C187.31 64.0887 186.336 64.5331 185.502 64.438C184.326 64.3045 182.864 62.9356 181.364 60.5487C180.346 58.9321 179.269 57.8382 178.221 57.0574L178.056 56.941C182.185 54.4929 185.862 50.0177 187.058 46.1709L183.677 45.0156C182.591 48.5027 179.161 52.5674 175.16 54.5458C174.836 54.7066 174.131 54.9902 173.77 55.134C173.907 53.3609 174.277 50.2462 174.565 48.1789L170.905 47.8721C170.881 48.1726 170.822 48.7524 170.737 49.548C170.558 51.2703 170.27 54.0401 170.033 57.1674C168.922 60.8936 165.543 66.9683 163.543 65.0534C162.38 63.9404 161.967 59.8441 164.312 48.6487L160.835 47.8573C160.268 50.5657 159.1 57.5589 158.886 58.7396C158.719 59.6621 158.442 60.5275 158.298 60.8534C157.667 62.2922 156.641 64.2389 155.177 65.3943C154.227 66.1432 153.338 66.431 152.454 66.2744C151.891 66.1728 151.508 65.902 151.209 65.3961C150.287 63.8286 150.006 59.6896 152.993 48.8836L150.406 48.0986C147.748 49.7109 144.602 51.6914 142.676 53.107C142.272 51.7464 141.631 50.4197 140.687 49.3977C139.5 48.1091 137.947 47.4299 136.201 47.4299C133.713 47.394 130.672 49.4887 129.032 53.3461C128.63 51.7866 127.89 50.4959 126.477 49.7659C124.403 48.691 121.208 49.7067 118.821 52.0448C117.763 50.5784 116.365 49.5924 114.759 49.3131C114.418 49.2539 114.067 49.2263 113.721 49.2285C109.663 49.2602 106.17 53.6782 105.226 59.5352C104.191 65.9505 106.731 71.7227 111.13 72.4868C111.47 72.546 111.819 72.5737 112.166 72.5714C116.225 72.5418 119.718 68.0688 120.662 62.2118C121.056 59.7679 120.918 57.1569 120.287 55.06C122.28 52.5314 124.568 53.0816 125.16 53.4709C126.426 54.3025 126.533 56.0629 126.28 57.9207C124.839 68.4134 123.364 79.4883 123.419 89.3676L126.982 88.9698C127.145 79.2111 128.626 66.8861 129.301 62.5694C129.502 61.2787 129.786 59.9499 129.917 59.4844C131.301 54.5945 133.956 51.3253 136.165 51.2005C136.17 51.2005 136.172 51.2005 136.174 51.2005C136.976 51.2005 137.598 51.4671 138.127 52.0426C138.92 52.9017 139.36 54.3004 139.559 55.553C134.796 59.5309 132.501 62.8762 132.1 65.8235C131.893 67.3471 131.933 69.5943 133.366 70.4638C135.651 71.852 138.281 69.9265 139.513 68.4897C142.826 64.6242 143.22 58.7269 143.252 57.3452C143.252 57.3303 143.249 56.795 143.249 56.795C144.603 55.7096 146.322 54.4527 148.249 53.1408C146.694 60.1149 146.601 64.7212 148.182 67.4063C149.013 68.82 150.274 69.713 151.834 69.9921C152.198 70.0577 152.564 70.0872 152.93 70.0854C154.415 70.0748 155.954 69.5056 157.339 68.4116C158.336 67.6243 159.148 66.5959 159.803 65.5001C160.02 66.1515 160.289 66.7253 160.611 67.2183C161.383 68.3968 162.452 69.3106 163.732 69.3023C166.412 69.2811 168.38 66.9896 169.777 64.3678C169.819 65.9168 169.906 67.3702 169.94 68.5363L173.194 68.2739C173.093 65.5888 173.23 62.307 173.446 59.1755C173.837 59.131 174.343 59.131 174.876 59.3722C176.085 59.9182 177.231 60.8089 178.391 62.654C179.743 64.8016 181.89 67.6983 184.935 68.0411C185.158 68.0665 185.38 68.0794 185.602 68.0771C187.111 68.0665 188.501 67.2183 190.007 65.866C190.593 66.4375 191.292 66.8648 192.087 67.1314C192.652 67.3217 193.232 67.4128 193.816 67.4086C194.927 67.4003 196.057 67.0427 197.159 66.3465C198.428 65.5421 199.597 64.3151 200.595 62.7979C200.706 63.0326 200.809 63.2719 200.94 63.496C202.032 65.3412 203.689 66.4287 205.733 66.6468C206.078 66.6828 206.444 66.7059 206.837 66.7041C209.123 66.687 212.364 65.8046 218.073 61.7315L216.321 59.0422ZM117.082 61.5939C116.417 65.7117 114.026 69.0884 111.743 68.6929C109.458 68.297 108.144 64.2767 108.809 60.1594C109.473 56.0417 111.864 52.7155 114.147 53.1112C116.432 53.5069 117.746 57.4742 117.082 61.5939ZM135.425 67.1379C135.033 66.759 135.296 65.9103 135.435 65.5551C135.831 64.5456 137.251 62.1779 139.528 59.9583C138.929 65.4788 136.208 67.8932 135.425 67.1379Z" fill="#A2BC0C"/>
<path d="M71.4799 42.098L67.832 41.1035C58.9451 72.2077 54.6455 72.5801 54.1842 72.5122C51.8271 72.1971 49.2012 59.8063 48.6765 46.5203L44.9207 46.3786C41.8632 74.8503 31.1079 82.4086 31 82.4806L31.9987 84.1734L31.0127 82.4723L32.9869 85.8744C33.4016 85.6037 41.5289 80.0958 46.2262 61.0547C47.4217 68.6827 49.6307 75.9254 53.7124 76.4733C56.7678 76.8817 60.6421 74.5861 66.6661 57.4787C66.9899 64.383 68.5239 72.1043 72.9758 77.6477L75.8492 75.0619C67.157 64.2411 71.4354 42.3181 71.4799 42.098Z" fill="#A2BC0C"/>
<path d="M85.3549 49.7044C84.9913 49.6409 84.6166 49.6113 84.2484 49.6134C79.9149 49.6451 76.1847 54.2938 75.1754 60.5485C74.0708 67.4001 76.7814 73.4365 81.4788 74.2533C81.8428 74.3171 82.2152 74.3466 82.5853 74.3443C86.9188 74.3124 90.6493 69.6639 91.6583 63.4094C92.1157 60.5697 91.9083 57.5735 91.0767 55.2523C89.9933 52.2329 87.907 50.1466 85.3549 49.7044ZM88.0784 62.7872C87.3844 67.0869 85.0759 70.4784 82.5853 70.4978C82.4203 70.4996 82.2512 70.4848 82.084 70.4553C79.477 70.0025 78.0106 65.779 78.7535 61.1706C79.4474 56.871 81.756 53.4792 84.2466 53.4601C84.4134 53.458 84.5806 53.4728 84.7455 53.5003C86.4531 53.7966 87.3165 55.6332 87.6783 56.6404C88.277 58.3099 88.423 60.6458 88.0784 62.7872Z" fill="#A2BC0C"/>
</svg>
