<svg width="250" height="100" viewBox="0 0 250 100" fill="none" xmlns="http://www.w3.org/2000/svg">
<path d="M39 38.8787L57.4153 18.4707L83.286 55.5418L69.0279 81.4812V24.5519L39 38.8787Z" stroke="#222222" stroke-miterlimit="10" stroke-linejoin="round"/>
<path d="M99.0516 38.8787L80.6364 18.4707L54.7656 55.5418L69.0237 81.4812V24.5519L99.0516 38.8787Z" stroke="#222222" stroke-miterlimit="10" stroke-linejoin="round"/>
<path d="M122.011 46.8022H121.714L123.703 30.8445H124.457L129.257 45.5939L134.034 30.8445H134.788L136.777 46.8022H134.88L133.303 34.036L129.166 46.8022H127.726L123.543 34.1956L122.011 46.8022Z" fill="#222222"/>
<path d="M150.97 30.8445H151.267V39.9631C151.267 42.3492 150.795 44.1045 149.85 45.2292C148.905 46.3386 147.671 46.8933 146.147 46.8933C145.187 46.8933 144.372 46.8098 143.702 46.6426C143.031 46.4602 142.399 46.1335 141.804 45.6623C140.585 44.7201 139.976 42.8203 139.976 39.9631V30.8445H141.873V39.9403C141.873 42.7063 142.292 44.5529 143.13 45.4799C143.557 45.9359 143.999 46.2474 144.456 46.4146C144.928 46.5818 145.492 46.6654 146.147 46.6654C147.61 46.6654 148.776 46.1335 149.644 45.0696C150.528 43.9906 150.97 42.2808 150.97 39.9403V30.8445Z" fill="#222222"/>
<path d="M154.145 31.0724V30.8445H163.471V31.0724L155.402 46.5742H162.282C162.724 46.5742 163.128 46.4982 163.494 46.3462C163.86 46.1942 164.103 45.9739 164.225 45.6851L164.408 45.7763C164.378 45.8523 164.324 45.9511 164.248 46.0727C164.187 46.179 163.981 46.331 163.631 46.5286C163.28 46.711 162.854 46.8022 162.351 46.8022H153.551V46.5742L161.574 31.0724H154.145Z" fill="#222222"/>
<path d="M166.166 46.8022H165.892L172.726 30.8445L172.978 30.7305L178.738 46.8022H176.795L175.012 41.7869H168.338L166.166 46.8022ZM172.018 33.3065L168.429 41.5589H174.944L172.018 33.3065Z" fill="#222222"/>
<path d="M121.188 69.0897H120.914L127.748 53.132L128 53.0181L133.76 69.0897H131.817L130.034 64.0745H123.36L121.188 69.0897ZM127.04 55.5941L123.451 63.8465H129.966L127.04 55.5941Z" fill="#222222"/>
<path d="M136.23 69.0897H135.933L137.922 53.132H138.676L143.476 67.8815L148.253 53.132H149.007L150.996 69.0897H149.099L147.522 56.3236L143.384 69.0897H141.944L137.762 56.4832L136.23 69.0897Z" fill="#222222"/>
<path d="M153.555 69.0897H153.28L160.115 53.132L160.366 53.0181L166.126 69.0897H164.183L162.4 64.0745H155.726L153.555 69.0897ZM159.406 55.5941L155.818 63.8465H162.332L159.406 55.5941Z" fill="#222222"/>
<path d="M168.373 69.0897H168.076V53.132H168.853L178.362 67.8815V53.132H178.659V69.0897H176.99L168.373 55.8676V69.0897Z" fill="#222222"/>
<path d="M181.739 53.36V53.132H185.808V53.36H184.688V68.8618H185.808V69.0897H181.739V68.8618H182.791V53.36H181.739Z" fill="#222222"/>
<path d="M193.954 69.0897H192.056V53.36H188.102V53.132H197.931V53.36H193.954V69.0897Z" fill="#222222"/>
<path d="M197.751 69.0897H197.477L204.311 53.132L204.563 53.0181L210.323 69.0897H208.38L206.597 64.0745H199.923L197.751 69.0897ZM203.603 55.5941L200.014 63.8465H206.529L203.603 55.5941Z" fill="#222222"/>
</svg>
