<svg width="250" height="100" viewBox="0 0 250 100" fill="none" xmlns="http://www.w3.org/2000/svg">
<path d="M72.7715 60.1806C71.3344 60.1806 69.9792 59.9225 68.7058 59.4063C67.4415 58.8809 66.3546 58.1712 65.445 57.2771C64.5355 56.383 63.8169 55.3138 63.2894 54.0695C62.7709 52.8159 62.5117 51.4794 62.5117 50.0599C62.5117 48.1704 62.9574 46.456 63.8488 44.9167C64.7401 43.3682 65.968 42.1561 67.5325 41.2804C69.106 40.3956 70.8524 39.9531 72.7715 39.9531C74.6907 39.9531 76.4325 40.3956 77.9969 41.2804C79.5614 42.1561 80.7893 43.3682 81.6806 44.9167C82.572 46.456 83.0177 48.1704 83.0177 50.0599C83.0177 51.9495 82.572 53.6685 81.6806 55.217C80.7893 56.7656 79.5614 57.9823 77.9969 58.8671C76.4325 59.7428 74.6907 60.1806 72.7715 60.1806ZM69.3607 53.5718C70.2793 54.5027 71.4163 54.9682 72.7715 54.9682C74.1268 54.9682 75.2592 54.5027 76.1687 53.5718C77.0874 52.6316 77.5467 51.461 77.5467 50.0599C77.5467 48.6589 77.0919 47.4929 76.1824 46.562C75.2728 45.631 74.1359 45.1655 72.7715 45.1655C71.4072 45.1655 70.2702 45.631 69.3607 46.562C68.4511 47.4929 67.9963 48.6589 67.9963 50.0599C67.9963 51.461 68.4511 52.6316 69.3607 53.5718Z" fill="#02CDD7"/>
<path d="M94.6828 60.1806C93.2457 60.1806 91.8904 59.9225 90.617 59.4063C89.3527 58.8809 88.2658 58.1712 87.3563 57.2771C86.4467 56.383 85.7282 55.3138 85.2006 54.0695C84.6822 52.8159 84.4229 51.4794 84.4229 50.0599C84.4229 48.1704 84.8686 46.456 85.76 44.9167C86.6514 43.3682 87.8793 42.1561 89.4437 41.2804C91.0172 40.3956 92.7636 39.9531 94.6828 39.9531C96.4837 39.9531 98.1345 40.3449 99.6353 41.1283C101.136 41.9118 102.346 42.9856 103.264 44.3498L98.653 47.2394C98.2164 46.5942 97.6525 46.0873 96.9612 45.7186C96.2699 45.3499 95.5104 45.1655 94.6828 45.1655C93.3184 45.1655 92.1815 45.631 91.2719 46.562C90.3624 47.4929 89.9076 48.6589 89.9076 50.0599C89.9076 51.461 90.3624 52.6316 91.2719 53.5718C92.1906 54.5027 93.3275 54.9682 94.6828 54.9682C95.5104 54.9682 96.2699 54.7838 96.9612 54.4151C97.6525 54.0464 98.2164 53.5395 98.653 52.8943L103.264 55.7839C102.346 57.1481 101.136 58.2219 99.6353 59.0054C98.1345 59.7889 96.4837 60.1806 94.6828 60.1806Z" fill="#02CDD7"/>
<path d="M110.495 54.7331H118.627V59.8349H105.161V40.2988H118.49V45.4006H110.495V47.4607H117.59V52.5625H110.495V54.7331Z" fill="#02CDD7"/>
<path d="M134.085 59.8349L133.212 57.1389H126.363L125.503 59.8349H119.773L126.704 40.2988H132.993L139.924 59.8349H134.085ZM127.932 52.1615H131.643L129.801 46.2993L127.932 52.1615Z" fill="#02CDD7"/>
<path d="M153.213 40.2988H158.547V59.8349H153.213L146.841 49.8387V59.8349H141.507V40.2988H146.841L153.213 50.295V40.2988Z" fill="#02CDD7"/>
<path d="M174.319 40.2988H180.158L172.846 59.8349H167.388L160.075 40.2988H166.024L170.185 52.4795L174.319 40.2988Z" fill="#02CDD7"/>
<path d="M181.7 59.8349V40.2988H187.035V59.8349H181.7Z" fill="#02CDD7"/>
<path d="M195.548 54.7331H203.68V59.8349H190.214V40.2988H203.543V45.4006H195.548V47.4607H202.643V52.5625H195.548V54.7331Z" fill="#02CDD7"/>
<path d="M227.037 40.2988H232.549L226.71 59.8349H221.402L218.715 48.9677L215.999 59.8349H210.719L204.853 40.2988H210.501L213.489 52.1615L216.45 40.2988H221.088L224.076 52.1615L227.037 40.2988Z" fill="#02CDD7"/>
<path fill-rule="evenodd" clip-rule="evenodd" d="M17 50.1025C17 40.6573 24.9421 33 34.717 33C44.471 33 52.3981 40.6411 52.3981 50.0666C52.3981 59.4928 44.4896 67.1339 34.7355 67.1339H17V50.1025ZM44.0688 50.0666C44.0688 55.0573 39.8734 59.1024 34.6996 59.1024C29.5247 59.1024 25.3293 55.0573 25.3293 50.0666C25.3293 45.0766 29.5247 41.0315 34.6996 41.0315C35.925 41.0315 37.0958 41.2583 38.1681 41.6711C35.8797 42.1987 34.1779 44.1843 34.1779 46.5531C34.1779 49.3256 36.5081 51.5728 39.383 51.5728C41.3816 51.5728 43.117 50.4867 43.9899 48.8926L44.0085 49.0372C44.0282 49.2052 44.0433 49.3749 44.0525 49.5457L44.0595 49.6667C44.0653 49.7995 44.0688 49.9328 44.0688 50.0666Z" fill="#02CDD7"/>
</svg>
