<svg width="250" height="100" viewBox="0 0 250 100" fill="none" xmlns="http://www.w3.org/2000/svg">
<path d="M62.5922 61.4639C62.5922 65.7744 61.5146 69.0947 59.3885 71.3956C57.2624 73.6965 54.2042 74.8615 50.2141 74.8615C46.224 74.8615 43.1658 73.6965 41.0397 71.3956C38.9136 69.0947 37.8359 65.7453 37.8359 61.4348C37.8359 57.0952 38.9136 53.804 41.0397 51.5032C43.1949 49.2314 46.2531 48.0664 50.2432 48.0664C54.2334 48.0664 57.2915 49.2314 59.4176 51.5323C61.5437 53.8332 62.5922 57.1243 62.5922 61.4639ZM43.6027 61.4639C43.6027 64.3764 44.1561 66.5608 45.2628 68.0462C46.3696 69.5316 48.0297 70.2597 50.2141 70.2597C54.612 70.2597 56.8255 67.3472 56.8255 61.4931C56.8255 55.6389 54.6411 52.6973 50.2432 52.6973C48.0588 52.6973 46.3987 53.4254 45.2628 54.9108C44.1561 56.367 43.6027 58.5514 43.6027 61.4639Z" fill="#222222"/>
<path d="M93.3487 74.5105H87.0577L83.5335 60.8508C83.417 60.3557 83.184 59.3654 82.8637 57.8218C82.5433 56.3073 82.3685 55.2588 82.3103 54.7637C82.252 55.4044 82.0482 56.4238 81.786 57.8509C81.4948 59.2781 81.2909 60.2683 81.1162 60.8799L77.6212 74.5105H71.3593L64.7188 48.4727H70.136L73.4563 62.6857C74.0388 65.3069 74.4465 67.5787 74.7086 69.501C74.7669 68.8311 74.9416 67.7826 75.2038 66.3555C75.4659 64.9283 75.6989 63.8507 75.9319 63.0643L79.7182 48.4727H84.9315L88.7178 63.0643C88.8926 63.7051 89.0964 64.7244 89.3294 66.0642C89.5915 67.404 89.7663 68.5689 89.9119 69.5301C90.0284 68.5981 90.2323 67.4622 90.4944 66.0642C90.7565 64.6953 90.9896 63.5594 91.1934 62.7148L94.5137 48.5018H99.931L93.3487 74.5105Z" fill="#222222"/>
<path d="M126.348 74.5126H119.329L108 54.824H107.854C108.087 58.2899 108.203 60.7947 108.203 62.2801V74.5417H103.281V48.5039H110.242L121.543 67.9886H121.659C121.484 64.6101 121.397 62.2218 121.397 60.8238V48.5039H126.377V74.5126H126.348Z" fill="#222222"/>
<path d="M167.708 74.5105H161.417L157.893 60.8508C157.776 60.3557 157.543 59.3654 157.223 57.8218C156.903 56.3073 156.728 55.2588 156.67 54.7637C156.611 55.4044 156.408 56.4238 156.145 57.8509C155.854 59.2781 155.65 60.2683 155.476 60.8799L151.981 74.5105H145.719L139.078 48.4727H144.495L147.816 62.6857C148.398 65.3069 148.806 67.5787 149.068 69.501C149.126 68.8311 149.301 67.7826 149.563 66.3555C149.825 64.9283 150.058 63.8507 150.291 63.0643L154.078 48.4727H159.291L163.077 63.0643C163.252 63.7051 163.456 64.7244 163.689 66.0642C163.951 67.404 164.126 68.5689 164.271 69.5301C164.388 68.5981 164.592 67.4622 164.854 66.0642C165.116 64.6953 165.349 63.5594 165.553 62.7148L168.873 48.5018H174.349L167.708 74.5105Z" fill="#222222"/>
<path d="M177.605 74.5105V48.4727H183.11V74.5105H177.605Z" fill="#222222"/>
<path d="M195.113 74.5105H189.695V48.4727H204.607V52.987H195.113V59.6858H203.937V64.2002H195.113V74.5105Z" fill="#222222"/>
<path d="M209.707 74.5105V48.4727H215.212V74.5105H209.707Z" fill="#222222"/>
<path d="M57.0573 41.9793C56.4456 41.9793 55.8049 41.7463 55.3389 41.3095C53.9409 39.9988 52.106 39.2998 50.1838 39.2998C48.2615 39.2998 46.4266 40.028 45.0286 41.3095C44.0092 42.2706 42.3782 42.2123 41.4171 41.1638C40.456 40.1445 40.5142 38.5135 41.5627 37.5523C43.9219 35.3679 46.98 34.1738 50.1838 34.1738C53.3875 34.1738 56.4456 35.3679 58.8048 37.5523C59.8241 38.5135 59.9115 40.1153 58.9504 41.1638C58.4261 41.6881 57.7563 41.9793 57.0573 41.9793Z" fill="#FFC030"/>
<path d="M37.0506 35.252C36.3808 35.252 35.6818 34.9899 35.1866 34.4365C34.2255 33.4171 34.2838 31.7861 35.3323 30.825C39.3807 27.0679 44.6523 25 50.1861 25C55.7198 25 60.9915 27.0679 65.0398 30.825C66.0592 31.7861 66.1175 33.388 65.1855 34.4365C64.2243 35.4559 62.6224 35.5141 61.5739 34.5821C58.4576 31.6988 54.4092 30.0969 50.1861 30.0969C45.9629 30.0969 41.8854 31.6988 38.7982 34.5821C38.303 35.019 37.6623 35.252 37.0506 35.252Z" fill="#FFC030"/>
</svg>
