<svg width="250" height="100" viewBox="0 0 250 100" fill="none" xmlns="http://www.w3.org/2000/svg">
<path d="M154.312 70.0096V66.3262H156.901V66.8737H154.86V67.6701H155.856C156.254 67.6701 156.602 67.7697 156.851 68.0186C157.1 68.2177 157.2 68.5163 157.2 68.8648C157.2 69.2132 157.1 69.5118 156.851 69.7109C156.602 69.91 156.304 70.0594 155.856 70.0594H154.312V70.0096ZM154.91 69.4621H155.856C156.353 69.4621 156.652 69.2132 156.652 68.815C156.652 68.4168 156.353 68.1679 155.856 68.1679H154.91V69.4621Z" fill="#A28D67"/>
<path d="M158.398 70.0106V69.4631C158.548 69.5128 158.647 69.5626 158.796 69.5626C158.946 69.5626 159.045 69.5128 159.145 69.4631C159.244 69.3635 159.344 69.2142 159.444 68.9653L158 66.377H158.647L159.742 68.368L160.638 66.377H161.335L159.991 69.264C159.742 69.8613 159.394 70.1102 158.946 70.1102C158.697 70.1102 158.548 70.0604 158.398 70.0106Z" fill="#A28D67"/>
<path d="M162.125 66.3262H165.161V66.8737H163.917V70.0096H163.369V66.8737H162.125V66.3262Z" fill="#A28D67"/>
<path d="M166.305 70.0096V66.3262H166.902V69.0141L168.893 66.3262H169.441V70.0096H168.843V67.3217L166.802 70.0096H166.305Z" fill="#A28D67"/>
<path d="M170.891 70.0096V66.3262H171.438V67.8195L172.981 66.3262H173.728L171.986 68.0186L173.977 70.0096H173.18L171.438 68.2674V70.0096H170.891Z" fill="#A28D67"/>
<path d="M176.863 70.0096V66.3262H179.9V70.0096H179.302V66.8737H177.461V70.0096H176.863Z" fill="#A28D67"/>
<path d="M181.297 70.0106V69.4631C181.446 69.5128 181.546 69.5626 181.695 69.5626C181.844 69.5626 181.944 69.5128 182.043 69.4631C182.143 69.3635 182.242 69.2142 182.342 68.9653L180.898 66.377H181.546L182.641 68.368L183.537 66.377H184.134L182.79 69.264C182.541 69.8613 182.193 70.1102 181.745 70.1102C181.595 70.1102 181.446 70.0604 181.297 70.0106Z" fill="#A28D67"/>
<path d="M185.023 66.3262H188.06V66.8737H186.815V70.0096H186.268V66.8737H185.023V66.3262Z" fill="#A28D67"/>
<path d="M189.207 70.0096V66.3262H191.845V66.8737H189.804V67.7697H191.447V68.3172H189.804V69.4621H191.895V70.0096H189.207Z" fill="#A28D67"/>
<path d="M193.086 70.0096V66.3262H193.683V69.4621H195.077V66.3262H195.625V69.4621H197.018V66.3262H197.616V70.0096H193.086Z" fill="#A28D67"/>
<path d="M199.062 70.0096V66.3262H201.651V66.8737H199.61V67.7697H201.302V68.3172H199.61V69.4621H201.75V70.0096H199.062Z" fill="#A28D67"/>
<path d="M203.29 69.5606C202.941 69.2122 202.742 68.7642 202.742 68.1669C202.742 67.6193 202.941 67.1714 203.29 66.8229C203.638 66.4745 204.136 66.2754 204.683 66.2754C205.082 66.2754 205.38 66.3749 205.679 66.5243V67.1216C205.38 66.9225 205.032 66.8229 204.683 66.8229C204.285 66.8229 203.987 66.9723 203.738 67.2211C203.489 67.47 203.339 67.8184 203.339 68.2167C203.339 68.6149 203.489 68.9633 203.738 69.2122C203.987 69.4611 204.335 69.6104 204.733 69.6104C205.131 69.6104 205.48 69.5108 205.779 69.262V69.8593C205.48 70.0584 205.131 70.1579 204.683 70.1579C204.136 70.1081 203.638 69.909 203.29 69.5606Z" fill="#A28D67"/>
<path d="M206.727 66.3262H209.713V66.8737H208.519V70.0096H207.921V66.8737H206.727V66.3262Z" fill="#A28D67"/>
<path d="M210.859 70.0096V66.3262H212.552C213.199 66.3262 213.647 66.6746 213.647 67.2221C213.647 67.6203 213.448 67.8692 213.149 67.9688C213.597 68.0683 213.945 68.4168 213.945 68.9643C213.945 69.263 213.846 69.5118 213.597 69.7109C213.398 69.91 213.099 70.0096 212.701 70.0096H210.859ZM211.457 67.8195H212.452C212.85 67.8195 213.05 67.6701 213.05 67.3217C213.05 67.023 212.801 66.8239 212.452 66.8239H211.457V67.8195ZM211.457 69.4621H212.602C213.05 69.4621 213.298 69.263 213.298 68.8648C213.298 68.5163 213.05 68.3172 212.602 68.3172H211.457V69.4621Z" fill="#A28D67"/>
<path d="M215.188 70.0096V66.3262H215.785V69.0141L217.826 66.3262H218.323V70.0096H217.726V67.3217L215.685 70.0096H215.188Z" fill="#A28D67"/>
<path d="M219.766 70.009V66.3255H220.363V69.0134L222.404 66.3255H222.902V70.009H222.304V67.2713L220.263 70.009H219.766ZM220.363 65.2305H220.861C220.861 65.4793 221.01 65.6785 221.309 65.6785C221.607 65.6785 221.757 65.4793 221.757 65.2305H222.254C222.254 65.778 221.856 66.0767 221.309 66.0767C220.761 66.1264 220.363 65.778 220.363 65.2305Z" fill="#A28D67"/>
<path d="M43.8734 41.9113L27.4297 44.3278L39.3351 55.9385L49.2957 49.1607V42.0881C49.2957 41.0272 50.1797 40.1432 51.2406 40.1432C52.3015 40.1432 53.1856 41.0272 53.1856 42.0881V49.1607L63.1461 55.9385L75.0515 44.3278L58.6079 41.9113L51.2406 27L43.8734 41.9113Z" fill="url(#paint0_linear_8228_21136)"/>
<path d="M39.2773 55.9385L49.2379 49.1607V42.0881C49.2379 41.0272 50.1219 40.1432 51.1828 40.1432C52.2437 40.1432 53.1278 41.0272 53.1278 42.0881V49.1607L63.1472 55.9385L51.2417 27L39.2773 55.9385Z" fill="url(#paint1_linear_8228_21136)"/>
<path d="M38.9243 58.1791L36.5078 72.3242L46.763 66.9608C48.8848 62.9531 49.2973 58.297 49.3563 56.1752V55.9984V54.9375L38.9243 58.1791Z" fill="url(#paint2_linear_8228_21136)"/>
<path d="M53.125 54.9375V56.1752C53.1839 58.3559 53.5965 62.9531 55.7183 66.9608L65.9735 72.3242L63.557 58.1201H63.4981L53.125 54.9375Z" fill="url(#paint3_linear_8228_21136)"/>
<path d="M36.5078 72.3242L46.763 66.9608C48.8848 62.9531 49.2973 58.297 49.3563 56.1752V55.9984V54.9375L36.5078 72.3242Z" fill="url(#paint4_linear_8228_21136)"/>
<path d="M53.125 56.1752C53.1839 58.3559 53.5965 62.9531 55.7183 66.9608L65.9735 72.3242L53.125 54.9375V56.1752Z" fill="url(#paint5_linear_8228_21136)"/>
<path d="M27.3711 44.3286L43.4022 45.9788L43.8737 41.9121L27.3711 44.3286Z" fill="url(#paint6_linear_8228_21136)"/>
<path d="M39.2773 55.939L49.2968 49.1612L43.403 45.9785L39.2773 55.939Z" fill="url(#paint7_linear_8228_21136)"/>
<path d="M59.018 45.9769L75.0491 44.3266L58.6055 41.9102L59.018 45.9769Z" fill="url(#paint8_linear_8228_21136)"/>
<path d="M53.125 49.1612L63.1444 55.939L59.0188 45.9785L53.125 49.1612Z" fill="url(#paint9_linear_8228_21136)"/>
<path d="M109.077 57.0669C108.84 56.5934 108.603 56.0015 108.307 55.2911L108.248 55.1728C107.893 54.4033 107.538 53.6338 107.064 52.9826C108.366 52.5091 108.958 51.5028 108.958 49.9638C108.958 47.6553 107.597 46.5898 104.637 46.5898H100.02V47.241L100.494 47.4185C100.849 47.5369 101.086 47.8921 101.086 48.3064V57.0669C101.086 57.4813 100.849 57.7772 100.494 57.9548L99.9609 58.1324V58.7835H104.4V58.1324L103.927 57.9548C103.572 57.7772 103.335 57.4813 103.335 57.0669V53.2786H104.4C104.933 53.2786 105.407 54.4625 105.939 55.5871L106.176 56.1198C107.005 57.9548 107.301 58.6059 107.301 58.6059L107.36 58.7835H110.556V58.0732L110.024 58.014C109.669 57.8364 109.313 57.4813 109.077 57.0669ZM106.709 50.023C106.709 50.9701 106.354 51.562 105.584 51.7988L105.466 51.858C105.229 51.9172 104.992 51.9172 104.696 51.9172H103.394V48.0697H104.696C106.058 48.0697 106.709 48.6616 106.709 50.023Z" fill="#706F6F"/>
<path d="M111.856 47.3581L112.33 47.5357C112.685 47.7133 112.922 48.0093 112.922 48.4236V57.1841C112.922 57.5985 112.685 57.8944 112.33 58.072L111.797 58.2496V58.9007H116.236V58.2496L115.763 58.072C115.408 57.8944 115.171 57.5985 115.171 57.1841V48.4236C115.171 48.0093 115.408 47.7133 115.763 47.5357L116.296 47.3581V46.707H111.856V47.3581Z" fill="#706F6F"/>
<path d="M222.306 56.0003L221.3 57.1249C221.123 57.3025 220.886 57.4209 220.59 57.4209H216.624V48.4236C216.624 48.0093 216.861 47.7133 217.216 47.5357L217.749 47.3581V46.707H213.309V47.3581L213.783 47.5357C214.138 47.7133 214.375 48.0093 214.375 48.4236V57.1841C214.375 57.5985 214.138 57.8944 213.783 58.072L213.25 58.2496V58.9007H222.484L222.898 56.1186L222.306 56.0003Z" fill="#706F6F"/>
<path d="M93.1515 43.6895H87.0547V44.3998L87.6466 44.6365C88.1202 44.8141 88.4753 45.2877 88.4753 45.8204V56.8894C88.4753 57.4221 88.1793 57.8957 87.7058 58.0732L87.1139 58.31V59.0203H92.5596V58.31L91.9677 58.0732C91.4941 57.8957 91.139 57.4221 91.139 56.8894V51.9764H92.7964C96.4663 51.9764 98.1829 50.6742 98.1829 47.8329C98.1829 45.1101 96.5847 43.7486 93.1515 43.6895ZM91.139 45.406H92.7964C94.6313 45.406 95.46 46.1755 95.46 47.8921C95.46 49.4903 94.6905 50.319 93.0923 50.3782H91.139V45.406Z" fill="#706F6F"/>
<path d="M128.488 46.8852L125.114 50.8511L121.563 46.6484H118.13V47.2996L118.603 47.4771C118.958 47.6547 119.195 47.9507 119.195 48.365V57.1255C119.195 57.5399 118.958 57.8358 118.603 58.0134L118.07 58.191V58.8421H121.681V58.191L121.208 58.0134C120.852 57.8358 120.616 57.5399 120.616 57.1255V49.0753L124.522 53.6924L128.429 49.0753V57.1255C128.429 57.5399 128.192 57.8358 127.837 58.0134L127.304 58.191V58.8421H131.744V58.191L131.27 58.0134C130.915 57.8358 130.678 57.5399 130.678 57.1255V48.4242C130.678 48.0691 130.915 47.7139 131.27 47.5363L131.862 47.2996V46.6484H128.488V46.8852Z" fill="#706F6F"/>
<path d="M188.924 56.8888L184.958 46.6484H183.656L179.69 56.9479C179.513 57.4215 179.098 57.8358 178.625 58.0134L178.27 58.1318V58.7829H181.999V58.1318L181.229 57.8358C181.17 57.7766 181.111 57.7174 181.052 57.6583C180.992 57.5991 180.992 57.4807 181.052 57.4215L182.235 54.4027H185.728L186.912 57.4215C186.971 57.4807 186.912 57.5991 186.912 57.6583C186.852 57.7174 186.793 57.7766 186.734 57.8358L185.846 58.191V58.8421H190.7V58.191L190.049 58.0134C189.516 57.8358 189.161 57.4215 188.924 56.8888ZM185.136 52.982H182.768L183.952 49.904L185.136 52.982Z" fill="#706F6F"/>
<path d="M196.681 47.3587L197.451 47.6547C197.628 47.7139 197.687 47.8915 197.628 48.0691L194.728 55.5865L191.827 48.0691C191.768 47.8915 191.827 47.7139 192.005 47.6547L192.893 47.2996V46.6484H188.039V47.2996L188.69 47.5363C189.164 47.7139 189.578 48.1283 189.756 48.6018L193.722 58.8421H195.024L198.99 48.5426C199.167 48.0691 199.582 47.6547 200.055 47.4771L200.41 47.3587V46.7076L196.681 46.6484V47.3587Z" fill="#706F6F"/>
<path d="M141.332 57.1267C141.155 57.3043 140.918 57.4227 140.622 57.4227H137.011V53.1608H138.432C138.787 53.1608 139.142 53.3976 139.32 53.6935V53.9303H140.03V50.8523H139.32V51.0891C139.142 51.4442 138.846 51.6218 138.432 51.6218H137.011V48.0111H139.912C140.208 48.0111 140.444 48.1294 140.622 48.307L141.628 49.4317L142.22 49.3133L141.806 46.5312H133.637V47.1824L134.111 47.3599C134.466 47.5375 134.703 47.8335 134.703 48.2478V57.0083C134.703 57.4227 134.466 57.7186 134.111 57.8962L133.578 58.0738V58.7249H142.457L142.871 56.0021L142.279 55.8245L141.332 57.1267Z" fill="#706F6F"/>
<path d="M176.143 57.0663C175.906 56.5928 175.669 56.0009 175.373 55.2906L175.314 55.2314C174.959 54.4619 174.604 53.6924 174.13 53.0412C175.433 52.5677 176.025 51.5614 176.025 50.0224C176.025 47.7139 174.663 46.6484 171.704 46.6484H167.087V47.2996L167.56 47.4771C167.915 47.5955 168.152 47.9507 168.152 48.365V57.1255C168.152 57.5399 167.915 57.8358 167.56 58.0134L167.027 58.191V58.8421H171.467V58.191L170.993 58.0134C170.638 57.8358 170.401 57.5399 170.401 57.1255V53.3372H171.467C172 53.3372 172.473 54.521 173.006 55.6457L173.243 56.1784C174.071 58.0134 174.367 58.6645 174.367 58.6645L174.426 58.8421H177.623V58.1318L177.149 58.0726C176.735 57.8358 176.38 57.4807 176.143 57.0663ZM170.461 48.0691H171.763C173.183 48.0691 173.834 48.661 173.834 50.0224C173.834 50.9695 173.479 51.5614 172.71 51.7982L172.591 51.8574C172.355 51.9166 172.118 51.9166 171.822 51.9166H170.52V48.0691H170.461Z" fill="#706F6F"/>
<path d="M151.571 43.6895L151.098 47.0634L151.749 47.1226L152.992 45.702C153.229 45.406 153.584 45.2877 153.939 45.2877H156.899V56.771C156.899 57.3037 156.603 57.7773 156.129 57.9549L155.537 58.1916V58.9019H160.983V58.1916L160.391 57.9549C159.917 57.7773 159.562 57.3037 159.562 56.771V45.2877H162.522C162.877 45.2877 163.232 45.4652 163.469 45.702L164.712 47.1226L165.363 47.0634L164.89 43.6895H151.571Z" fill="#706F6F"/>
<path d="M209.879 57.1267C209.702 57.3043 209.465 57.4227 209.169 57.4227H205.558V53.1608H206.979C207.334 53.1608 207.689 53.3976 207.867 53.6935V53.9303H208.577V50.8523H207.867V51.0891C207.689 51.4442 207.393 51.6218 206.979 51.6218H205.558V48.0111H208.459C208.755 48.0111 208.991 48.1294 209.169 48.307L210.175 49.4317L210.767 49.3133L210.353 46.5312H202.184V47.1824L202.658 47.3599C203.013 47.5375 203.25 47.8335 203.25 48.2478V57.0083C203.25 57.4227 203.013 57.7186 202.658 57.8962L202.125 58.0738V58.7249H211.004L211.418 56.0021L210.826 55.8245L209.879 57.1267Z" fill="#706F6F"/>
<defs>
<linearGradient id="paint0_linear_8228_21136" x1="27.3848" y1="41.4651" x2="75.0485" y2="41.4651" gradientUnits="userSpaceOnUse">
<stop stop-color="#F9DC85"/>
<stop offset="1" stop-color="#7F5211"/>
</linearGradient>
<linearGradient id="paint1_linear_8228_21136" x1="39.302" y1="41.4651" x2="63.1342" y2="41.4651" gradientUnits="userSpaceOnUse">
<stop stop-color="#F9DC85"/>
<stop offset="1" stop-color="#7F5211"/>
</linearGradient>
<linearGradient id="paint2_linear_8228_21136" x1="38.7414" y1="60.1873" x2="48.593" y2="68.3589" gradientUnits="userSpaceOnUse">
<stop stop-color="#F9DC85"/>
<stop offset="0.5188" stop-color="#7F5211"/>
</linearGradient>
<linearGradient id="paint3_linear_8228_21136" x1="53.1444" y1="63.6279" x2="65.9445" y2="63.6279" gradientUnits="userSpaceOnUse">
<stop stop-color="#F9DC85"/>
<stop offset="1" stop-color="#7F5211"/>
</linearGradient>
<linearGradient id="paint4_linear_8228_21136" x1="36.4895" y1="63.6279" x2="49.289" y2="63.6279" gradientUnits="userSpaceOnUse">
<stop stop-color="#F9DC85"/>
<stop offset="1" stop-color="#7F5211"/>
</linearGradient>
<linearGradient id="paint5_linear_8228_21136" x1="55.5589" y1="66.73" x2="61.0883" y2="62.4263" gradientUnits="userSpaceOnUse">
<stop stop-color="#F9DC85"/>
<stop offset="0.9313" stop-color="#7F5211"/>
</linearGradient>
<linearGradient id="paint6_linear_8228_21136" x1="27.3852" y1="43.949" x2="43.853" y2="43.949" gradientUnits="userSpaceOnUse">
<stop stop-color="#F9DC85"/>
<stop offset="1" stop-color="#7F5211"/>
</linearGradient>
<linearGradient id="paint7_linear_8228_21136" x1="39.302" y1="50.9526" x2="49.2885" y2="50.9526" gradientUnits="userSpaceOnUse">
<stop stop-color="#F9DC85"/>
<stop offset="1" stop-color="#7F5211"/>
</linearGradient>
<linearGradient id="paint8_linear_8228_21136" x1="58.5789" y1="43.9471" x2="75.0461" y2="43.9471" gradientUnits="userSpaceOnUse">
<stop stop-color="#F9DC85"/>
<stop offset="1" stop-color="#7F5211"/>
</linearGradient>
<linearGradient id="paint9_linear_8228_21136" x1="53.145" y1="50.9526" x2="63.1314" y2="50.9526" gradientUnits="userSpaceOnUse">
<stop stop-color="#F9DC85"/>
<stop offset="1" stop-color="#7F5211"/>
</linearGradient>
</defs>
</svg>
