<svg width="250" height="100" viewBox="0 0 250 100" fill="none" xmlns="http://www.w3.org/2000/svg">
<path d="M104.271 66.7558C104.749 66.9847 104.988 67.364 104.988 67.8936C104.988 68.3065 104.832 68.6432 104.519 68.9035C104.21 69.1593 103.806 69.2872 103.305 69.2872C102.447 69.2872 101.879 68.9237 101.602 68.1966L102.266 67.8128C102.404 68.311 102.751 68.5601 103.305 68.5601C103.6 68.5601 103.826 68.4973 103.982 68.3716C104.139 68.2415 104.217 68.0687 104.217 67.8532C104.217 67.6423 104.141 67.4739 103.989 67.3483C103.842 67.2181 103.631 67.153 103.359 67.153H102.789V66.4528H103.204C103.468 66.4528 103.674 66.3923 103.821 66.2711C103.969 66.1499 104.043 65.9883 104.043 65.7863C104.043 65.5844 103.976 65.425 103.842 65.3083C103.707 65.1871 103.515 65.1265 103.265 65.1265C102.8 65.1265 102.487 65.3397 102.326 65.7661L101.669 65.3824C101.973 64.7271 102.505 64.3994 103.265 64.3994C103.725 64.3994 104.099 64.5251 104.385 64.7764C104.671 65.0233 104.814 65.3465 104.814 65.7459C104.814 66.1903 104.633 66.5269 104.271 66.7558Z" fill="#0651AF"/>
<path d="M108.72 69.1997L108.392 68.2504H106.393L106.065 69.1997H105.226L106.93 64.4869H107.855L109.552 69.1997H108.72ZM106.648 67.5233H108.137L107.392 65.3958L106.648 67.5233Z" fill="#0651AF"/>
<path d="M113.511 64.4869V69.1997H112.739V65.2275H110.828V69.1997H110.057V64.4869H113.511Z" fill="#0651AF"/>
<path d="M116.966 64.4869H117.738V69.1997H116.966V67.3887C116.64 67.5368 116.296 67.6108 115.934 67.6108C115.464 67.6108 115.082 67.4807 114.787 67.2204C114.496 66.9555 114.351 66.6055 114.351 66.1701V64.4869H115.122V66.0893C115.122 66.3317 115.196 66.5224 115.343 66.6616C115.491 66.8007 115.692 66.8703 115.947 66.8703C116.318 66.8703 116.658 66.794 116.966 66.6414V64.4869Z" fill="#0651AF"/>
<path d="M121.734 69.1997L121.405 68.2504H119.407L119.078 69.1997H118.24L119.943 64.4869H120.869L122.565 69.1997H121.734ZM119.662 67.5233H121.15L120.406 65.3958L119.662 67.5233Z" fill="#0651AF"/>
<path d="M125.113 69.2872C124.407 69.2872 123.821 69.0539 123.356 68.5871C122.891 68.1158 122.659 67.5345 122.659 66.8433C122.659 66.1521 122.891 65.5731 123.356 65.1063C123.821 64.6351 124.407 64.3994 125.113 64.3994C125.538 64.3994 125.929 64.5004 126.287 64.7024C126.649 64.9044 126.931 65.1782 127.132 65.5238L126.461 65.9142C126.336 65.6809 126.153 65.4968 125.911 65.3622C125.674 65.223 125.408 65.1535 125.113 65.1535C124.613 65.1535 124.206 65.3128 123.893 65.6315C123.584 65.9502 123.43 66.3541 123.43 66.8433C123.43 67.3326 123.584 67.7365 123.893 68.0552C124.206 68.3739 124.613 68.5332 125.113 68.5332C125.408 68.5332 125.677 68.4659 125.918 68.3312C126.16 68.1921 126.341 68.0058 126.461 67.7724L127.132 68.1562C126.935 68.5018 126.656 68.7778 126.294 68.9843C125.936 69.1863 125.543 69.2872 125.113 69.2872Z" fill="#0651AF"/>
<path d="M130.791 64.4869V65.2275H129.47V69.1997H128.699V65.2275H127.371V64.4869H130.791Z" fill="#0651AF"/>
<path d="M134.178 69.1997V66.0018L131.965 69.1997H131.362V64.4869H132.133V67.6849L134.346 64.4869H134.95V69.1997H134.178Z" fill="#0651AF"/>
<path d="M141.085 68.4591H141.588V70.1019H140.817V69.1997H137.966V70.1019H137.195V68.4591H137.631C137.904 68.1001 138.04 67.5592 138.04 66.8366V64.4869H141.085V68.4591ZM138.476 68.4591H140.314V65.2141H138.811V66.8501C138.811 67.5503 138.7 68.0866 138.476 68.4591Z" fill="#0651AF"/>
<path d="M141.91 69.1997V68.4861C142.205 68.5265 142.424 68.4547 142.568 68.2706C142.715 68.0866 142.789 67.7343 142.789 67.2136V64.4869H145.934V69.1997H145.163V65.2275H143.56V67.2002C143.56 67.6131 143.515 67.9609 143.426 68.2437C143.341 68.5265 143.218 68.7397 143.057 68.8833C142.896 69.0224 142.722 69.1167 142.534 69.1661C142.351 69.2109 142.143 69.2222 141.91 69.1997Z" fill="#0651AF"/>
<path d="M150.11 64.4869V69.1997H149.339V67.4829H148.594L147.461 69.1997H146.589L147.783 67.4156C147.474 67.3213 147.219 67.1441 147.018 66.8837C146.821 66.6189 146.723 66.3249 146.723 66.0018C146.723 65.5799 146.868 65.223 147.159 64.9313C147.454 64.6351 147.812 64.4869 148.232 64.4869H150.11ZM148.232 66.7895H149.339V65.2141H148.232C148.026 65.2141 147.852 65.2904 147.709 65.443C147.566 65.5956 147.494 65.7818 147.494 66.0018C147.494 66.2217 147.566 66.408 147.709 66.5606C147.852 66.7132 148.026 66.7895 148.232 66.7895Z" fill="#0651AF"/>
<path d="M154.503 66.3047C154.937 66.3047 155.296 66.4416 155.583 66.7154C155.869 66.9892 156.012 67.3348 156.012 67.7522C156.012 68.1696 155.869 68.5152 155.583 68.789C155.296 69.0628 154.937 69.1997 154.503 69.1997H152.726V64.4869H155.609V65.2275H153.497V66.3047H154.503ZM154.503 68.4726C154.713 68.4726 154.887 68.4075 155.026 68.2774C155.169 68.1427 155.241 67.9677 155.241 67.7522C155.241 67.5368 155.169 67.364 155.026 67.2338C154.887 67.0992 154.713 67.0318 154.503 67.0318H153.497V68.4726H154.503Z" fill="#0651AF"/>
<path d="M156.649 69.1997V64.4869H157.42V66.1028H158.379C158.822 66.1028 159.19 66.2531 159.486 66.5538C159.785 66.8501 159.935 67.2159 159.935 67.6512C159.935 68.0866 159.785 68.4547 159.486 68.7554C159.19 69.0516 158.822 69.1997 158.379 69.1997H156.649ZM160.391 69.1997V64.4869H161.162V69.1997H160.391ZM157.42 68.4726H158.379C158.607 68.4726 158.795 68.3963 158.942 68.2437C159.09 68.0866 159.164 67.8891 159.164 67.6512C159.164 67.4134 159.09 67.2181 158.942 67.0655C158.795 66.9084 158.607 66.8299 158.379 66.8299H157.42V68.4726Z" fill="#0651AF"/>
<path d="M165.156 64.4869V65.2275H163.835V69.1997H163.063V65.2275H161.735V64.4869H165.156Z" fill="#0651AF"/>
<path d="M169.381 68.5803C168.911 69.0516 168.337 69.2872 167.657 69.2872C166.978 69.2872 166.401 69.0516 165.927 68.5803C165.458 68.1046 165.223 67.5256 165.223 66.8433C165.223 66.1611 165.458 65.5844 165.927 65.1131C166.401 64.6373 166.978 64.3994 167.657 64.3994C168.337 64.3994 168.911 64.6373 169.381 65.1131C169.855 65.5844 170.092 66.1611 170.092 66.8433C170.092 67.5256 169.855 68.1046 169.381 68.5803ZM166.47 68.0552C166.792 68.3739 167.188 68.5332 167.657 68.5332C168.127 68.5332 168.52 68.3739 168.838 68.0552C169.16 67.732 169.32 67.3281 169.32 66.8433C169.32 66.3586 169.16 65.9569 168.838 65.6382C168.52 65.315 168.127 65.1535 167.657 65.1535C167.188 65.1535 166.792 65.315 166.47 65.6382C166.153 65.9569 165.994 66.3586 165.994 66.8433C165.994 67.3281 166.153 67.732 166.47 68.0552Z" fill="#0651AF"/>
<path d="M173.558 66.7558C173.764 66.8635 173.925 67.0116 174.041 67.2002C174.157 67.3887 174.216 67.6064 174.216 67.8532C174.216 68.2392 174.079 68.5601 173.806 68.816C173.534 69.0718 173.201 69.1997 172.807 69.1997H170.795V64.4869H172.66C173.044 64.4869 173.368 64.6126 173.632 64.864C173.9 65.1108 174.034 65.4205 174.034 65.7931C174.034 66.2015 173.876 66.5224 173.558 66.7558ZM172.66 65.2141H171.566V66.4528H172.66C172.83 66.4528 172.973 66.3945 173.089 66.2778C173.205 66.1566 173.263 66.0085 173.263 65.8335C173.263 65.6584 173.205 65.5125 173.089 65.3958C172.973 65.2747 172.83 65.2141 172.66 65.2141ZM172.807 68.4726C172.986 68.4726 173.136 68.4098 173.257 68.2841C173.382 68.1539 173.444 67.9968 173.444 67.8128C173.444 67.6288 173.382 67.4739 173.257 67.3483C173.136 67.2181 172.986 67.153 172.807 67.153H171.566V68.4726H172.807Z" fill="#0651AF"/>
<path d="M178.812 68.5803C178.342 69.0516 177.768 69.2872 177.088 69.2872C176.409 69.2872 175.832 69.0516 175.358 68.5803C174.889 68.1046 174.654 67.5256 174.654 66.8433C174.654 66.1611 174.889 65.5844 175.358 65.1131C175.832 64.6373 176.409 64.3994 177.088 64.3994C177.768 64.3994 178.342 64.6373 178.812 65.1131C179.286 65.5844 179.523 66.1611 179.523 66.8433C179.523 67.5256 179.286 68.1046 178.812 68.5803ZM175.901 68.0552C176.223 68.3739 176.619 68.5332 177.088 68.5332C177.558 68.5332 177.951 68.3739 178.269 68.0552C178.591 67.732 178.752 67.3281 178.752 66.8433C178.752 66.3586 178.591 65.9569 178.269 65.6382C177.951 65.315 177.558 65.1535 177.088 65.1535C176.619 65.1535 176.223 65.315 175.901 65.6382C175.584 65.9569 175.425 66.3586 175.425 66.8433C175.425 67.3281 175.584 67.732 175.901 68.0552Z" fill="#0651AF"/>
<path d="M181.085 64.0157V63.3828H182.963V64.0157H181.085ZM183.043 69.1997V66.0018L180.83 69.1997H180.226V64.4869H180.998V67.6849L183.211 64.4869H183.814V69.1997H183.043Z" fill="#0651AF"/>
<path d="M189.48 64.4869V65.2275H188.159V69.1997H187.388V65.2275H186.06V64.4869H189.48Z" fill="#0651AF"/>
<path d="M190.822 68.4591H192.901V69.1997H190.05V64.4869H192.867V65.2275H190.822V66.4528H192.699V67.1867H190.822V68.4591Z" fill="#0651AF"/>
<path d="M197.06 69.1997H196.182L195.149 67.4964L194.116 69.1997H193.238L194.713 66.776L193.325 64.4869H194.197L195.149 66.0556L196.101 64.4869H196.98L195.592 66.776L197.06 69.1997Z" fill="#0651AF"/>
<path d="M200.411 64.4869H201.182V69.1997H200.411V67.1598H198.399V69.1997H197.628V64.4869H198.399V66.4192H200.411V64.4869Z" fill="#0651AF"/>
<path d="M204.937 69.1997V66.0018L202.724 69.1997H202.121V64.4869H202.892V67.6849L205.105 64.4869H205.709V69.1997H204.937Z" fill="#0651AF"/>
<path d="M210.187 69.1997H209.268L207.418 66.9578V69.1997H206.646V64.4869H207.418V66.601L209.201 64.4869H210.12L208.222 66.7827L210.187 69.1997Z" fill="#0651AF"/>
<path d="M213.504 69.1997V66.0018L211.291 69.1997H210.687V64.4869H211.458V67.6849L213.672 64.4869H214.275V69.1997H213.504Z" fill="#0651AF"/>
<path fill-rule="evenodd" clip-rule="evenodd" d="M64.7163 21C80.5764 21 93.4326 33.958 93.4326 49.9437C93.4326 65.9293 80.5764 78.8874 64.7163 78.8874C48.8562 78.8874 36 65.9293 36 49.9437C36 33.958 48.8562 21 64.7163 21Z" fill="#0651AF"/>
<path d="M44.3203 39.4039H49.9183C51.4322 39.4039 52.5949 39.5219 53.4091 39.7633C54.2179 40.0046 54.8325 40.3479 55.2422 40.7984C55.652 41.2516 55.926 41.8014 56.075 42.4423C56.2187 43.0859 56.2905 44.0808 56.2905 45.4297V47.3042C56.2905 48.6746 56.1522 49.6775 55.8675 50.3051C55.5881 50.9353 55.0693 51.4207 54.3217 51.7585C53.5687 52.0938 52.5869 52.2627 51.3763 52.2627H49.8864V60.9514H44.3203V39.4093V39.4039ZM49.8864 43.0805V48.5673C50.0433 48.5754 50.179 48.5807 50.2908 48.5807C50.799 48.5807 51.1502 48.452 51.3497 48.1999C51.5439 47.9505 51.6424 47.4249 51.6424 46.6258V44.8505C51.6424 44.1157 51.5306 43.633 51.2992 43.4104C51.073 43.1878 50.6021 43.0805 49.8837 43.0805H49.8864ZM57.8843 39.4039H61.8167C64.4374 39.4039 66.2121 39.5031 67.1406 39.7069C68.0692 39.9108 68.8248 40.4337 69.4101 41.2731C69.9955 42.1098 70.2882 43.4479 70.2882 45.2822C70.2882 46.9583 70.0806 48.0819 69.6682 48.6585C69.2585 49.2351 68.4417 49.581 67.2284 49.6936C68.3273 49.9698 69.0696 50.3372 69.4474 50.8012C69.8252 51.2598 70.0593 51.6861 70.1498 52.0723C70.2456 52.4585 70.2882 53.5204 70.2882 55.2582V60.9461H65.1265V53.7779C65.1265 52.6247 65.0361 51.9114 64.8578 51.6352C64.6822 51.359 64.2139 51.2222 63.453 51.2222V60.9461H57.8869V39.4039H57.8843ZM63.4503 43.0805V47.8728C64.0702 47.8728 64.5039 47.7869 64.7514 47.6126C64.9988 47.441 65.1239 46.8778 65.1239 45.9285V44.7432C65.1239 44.0567 65.0015 43.6088 64.7647 43.3943C64.5252 43.1824 64.0835 43.0779 63.4503 43.0779V43.0805ZM85.1079 52.0321C85.1079 54.1989 85.0574 55.7275 84.9536 56.6259C84.8552 57.5296 84.5385 58.3502 84.0091 59.0957C83.4769 59.8412 82.7559 60.4124 81.8513 60.812C80.9467 61.2116 79.8931 61.41 78.6905 61.41C77.5464 61.41 76.5247 61.2196 75.6148 60.8415C74.7048 60.4661 73.9705 59.9029 73.4224 59.1493C72.869 58.3958 72.5391 57.5752 72.4326 56.6875C72.3289 55.7972 72.2757 54.2472 72.2757 52.0294V48.3447C72.2757 46.1806 72.3262 44.6493 72.43 43.751C72.5284 42.8472 72.845 42.0266 73.3745 41.2811C73.9066 40.5356 74.6277 39.9644 75.5323 39.5648C76.4369 39.1652 77.4905 38.9668 78.6931 38.9668C79.8372 38.9668 80.8589 39.1572 81.7688 39.5353C82.6788 39.9108 83.4131 40.4739 83.9612 41.2275C84.5146 41.981 84.8445 42.8016 84.9509 43.6893C85.0547 44.5796 85.1079 46.1296 85.1079 48.3447V52.0294V52.0321ZM79.5419 44.9551C79.5419 43.9575 79.4887 43.3165 79.3796 43.0349C79.2731 42.7587 79.0523 42.6166 78.7171 42.6166C78.4324 42.6166 78.2169 42.7292 78.0652 42.9572C77.9162 43.1798 77.8391 43.8475 77.8391 44.9551V55.0088C77.8391 56.2558 77.8896 57.0281 77.9881 57.3177C78.0865 57.6127 78.318 57.7575 78.6772 57.7575C79.047 57.7575 79.2864 57.5886 79.3875 57.2534C79.4913 56.9182 79.5419 56.1136 79.5419 54.8479V44.9524V44.9551Z" fill="white"/>
<path d="M111.582 48.8808C112.388 49.157 112.987 49.6075 113.383 50.2297C113.774 50.8545 113.974 52.3214 113.974 54.6277C113.974 56.3386 113.779 57.6687 113.394 58.6127C113.005 59.5566 112.34 60.2727 111.39 60.7634C110.44 61.2569 109.224 61.5036 107.737 61.5036C106.053 61.5036 104.725 61.2166 103.765 60.6454C102.802 60.0742 102.166 59.3716 101.865 58.5403C101.564 57.7143 101.41 56.2716 101.41 54.22V52.5172H106.734V56.0222C106.734 56.9581 106.787 57.5507 106.902 57.8028C107.011 58.0576 107.258 58.1836 107.636 58.1836C108.051 58.1836 108.325 58.0254 108.456 57.7036C108.586 57.3845 108.652 56.5505 108.652 55.2016V53.7078C108.652 52.8819 108.562 52.2785 108.378 51.8977C108.195 51.5169 107.921 51.2675 107.559 51.1495C107.2 51.0261 106.5 50.9591 105.465 50.9403V47.8081C106.729 47.8081 107.508 47.7571 107.812 47.6633C108.11 47.564 108.325 47.3549 108.456 47.0223C108.586 46.6952 108.652 46.183 108.652 45.483V44.2897C108.652 43.5361 108.575 43.0427 108.424 42.8013C108.267 42.56 108.027 42.442 107.703 42.442C107.327 42.442 107.077 42.568 106.942 42.8174C106.803 43.0722 106.734 43.6085 106.734 44.4345V46.1991H101.41V44.3648C101.41 42.3079 101.878 40.9241 102.81 40.2028C103.744 39.4814 105.223 39.1167 107.256 39.1167C109.796 39.1167 111.521 39.6155 112.425 40.6184C113.33 41.6214 113.785 43.0159 113.785 44.7938C113.785 46.0006 113.622 46.8722 113.298 47.4085C112.971 47.9448 112.396 48.4356 111.582 48.8781V48.8808ZM125.651 39.5243L128.831 61.0664H123.153L122.852 57.1994H120.849L120.548 61.0664H114.796L117.616 39.5243L125.654 39.5243H125.651ZM122.701 53.386C122.435 50.943 122.155 47.9207 121.86 44.3111C121.312 48.4517 120.963 51.474 120.814 53.386H122.701ZM142.538 61.0664H136.972V43.8257H135.352V61.0664L129.786 61.0664V39.5243H142.538V61.0664ZM152.351 52.8095C151.904 53.2922 151.318 53.673 150.6 53.9626C149.879 54.2495 149.155 54.3944 148.416 54.3944C147.093 54.3944 146.128 54.0216 145.524 53.2788C144.925 52.5333 144.622 51.3828 144.622 49.8194V39.5243H150.188V49.2187C150.188 50.058 150.26 50.64 150.403 50.9537C150.547 51.2675 150.786 51.4257 151.119 51.4257C151.938 51.4257 152.348 50.7097 152.348 49.2696V39.5243H157.914V61.0664L152.348 61.0664V52.8095H152.351ZM169.743 39.5243L172.923 61.0664H167.245L166.944 57.1994H164.941L164.64 61.0664H158.888L161.708 39.5243L169.746 39.5243H169.743ZM166.793 53.386C166.527 50.943 166.247 47.9207 165.952 44.3111C165.404 48.4517 165.055 51.474 164.906 53.386H166.793ZM186.846 48.9183H181.28V45.1773C181.28 44.0885 181.221 43.4128 181.104 43.1392C180.987 42.8711 180.726 42.7343 180.325 42.7343C179.875 42.7343 179.585 42.8979 179.465 43.225C179.343 43.5549 179.282 44.2655 179.282 45.3543V55.349C179.282 56.3976 179.346 57.0787 179.465 57.4006C179.588 57.7197 179.862 57.8779 180.285 57.8779C180.695 57.8779 180.966 57.7197 181.091 57.3979C181.216 57.0787 181.28 56.3252 181.28 55.1426V52.434H186.846V53.2734C186.846 55.5073 186.689 57.0922 186.378 58.0227C186.066 58.9586 185.375 59.7765 184.305 60.4792C183.233 61.1818 181.918 61.5331 180.351 61.5331C178.726 61.5331 177.382 61.2381 176.326 60.6427C175.272 60.0474 174.57 59.2268 174.227 58.1729C173.883 57.119 173.713 55.5394 173.713 53.4289V47.1377C173.713 45.5849 173.766 44.4238 173.87 43.6461C173.979 42.8684 174.29 42.1202 174.815 41.4042C175.336 40.6881 176.062 40.1196 176.991 39.7066C177.92 39.2937 178.986 39.0898 180.192 39.0898C181.825 39.0898 183.177 39.409 184.244 40.0472C185.308 40.6828 186.005 41.4766 186.343 42.4313C186.676 43.3833 186.843 44.8636 186.843 46.8748V48.921L186.846 48.9183ZM200.024 39.5216V43.8257H196.754V61.0664H191.188V43.8257H187.892V39.5216H200.024ZM214.237 56.0275C214.237 57.6285 214.03 58.7816 213.615 59.4816C213.205 60.1842 212.574 60.6213 211.736 60.7983C210.893 60.9753 209.557 61.0664 207.719 61.0664H201.293V39.5243H206.859V46.9043H207.719C209.429 46.9043 210.731 47.0036 211.609 47.2074C212.487 47.4112 213.144 47.8617 213.58 48.559C214.016 49.2535 214.232 50.3477 214.232 51.836V56.0248L214.237 56.0275ZM208.671 55.3785V52.2651C208.671 51.356 208.581 50.8089 208.4 50.6131C208.219 50.4174 207.705 50.3101 206.859 50.2806V57.363C207.567 57.363 208.043 57.2718 208.291 57.0922C208.543 56.9098 208.669 56.3386 208.669 55.3812L208.671 55.3785Z" fill="#00A0E3"/>
</svg>
