<svg width="250" height="100" viewBox="0 0 250 100" fill="none" xmlns="http://www.w3.org/2000/svg">
<path d="M79.9811 57.6127L84.8046 63.9162H82.1061L78.3841 59.0462L76.181 60.9981V63.9162H74.0234V53.3379H76.181V58.1695L81.6172 53.3379H84.8046L79.9811 57.6127Z" fill="#0B9791"/>
<path d="M97.1145 56.512C97.1145 54.7586 95.6674 53.3379 93.8814 53.3379H86.3398V63.9162H93.8814C95.6674 63.9162 97.1145 62.4956 97.1145 60.7421C97.1145 59.923 96.7886 59.187 96.2671 58.6239C96.7951 58.0671 97.1145 57.3248 97.1145 56.512ZM93.8814 61.798H88.4909V59.6798H93.8814C94.4681 59.6798 94.957 60.1661 94.957 60.7357C94.9635 61.3309 94.4681 61.798 93.8814 61.798ZM93.8814 57.568H88.4909V55.4497H93.8814C94.4681 55.4497 94.957 55.9361 94.957 56.5056C94.9635 57.1008 94.4681 57.568 93.8814 57.568Z" fill="#0B9791"/>
<path d="M105.288 53.3379H102.791L97.5703 63.9162H99.8973L100.94 61.798H107.133L108.182 63.9162H110.509L105.288 53.3379ZM101.99 59.6862L101.97 59.7182L104.043 55.5265L106.09 59.6862H101.99Z" fill="#0B9791"/>
<path d="M120.37 53.3379V57.568H113.904V53.3379H111.746V63.9162H113.904V59.6862H120.37V63.9162H122.521V53.3379H120.37Z" fill="#0B9791"/>
<path d="M134.962 55.4497H130.654V63.9162H128.496V55.4497H124.188V53.3379H134.962V55.4497Z" fill="#0B9791"/>
<path d="M147.415 55.4497H143.107V63.9162H140.949V55.4497H136.641V53.3379H147.415V55.4497Z" fill="#0B9791"/>
<path d="M151.46 61.798V59.6862H158.493V57.568H151.46V55.4497H158.773L160.083 53.3379H149.309V63.9162H160.083L158.773 61.798H151.46Z" fill="#0B9791"/>
<path d="M173.667 63.9162H171.34L167.2 55.5265L163.055 63.9162H160.734L165.949 53.3379H168.445L173.667 63.9162Z" fill="#0B9791"/>
<path d="M193.714 57.6127L198.531 63.9162H195.833L192.111 59.0462L189.908 60.9981V63.9162H187.75V53.3379H189.908V58.1695L195.344 53.3379H198.531L193.714 57.6127Z" fill="#0B9791"/>
<path d="M210.165 56.512V60.7421C210.165 62.4956 208.718 63.9162 206.932 63.9162H202.624C200.838 63.9162 199.391 62.4956 199.391 60.7421V56.512C199.391 54.7586 200.838 53.3379 202.624 53.3379H206.932C208.718 53.3379 210.165 54.7586 210.165 56.512ZM208.014 56.512C208.014 55.9361 207.519 55.4561 206.939 55.4561H202.63C202.031 55.4561 201.555 55.9425 201.555 56.512V60.7421C201.555 61.3309 202.031 61.798 202.63 61.798H206.939C207.525 61.798 208.014 61.3309 208.014 60.7421V56.512Z" fill="#0B9791"/>
<path d="M224.185 53.3379V63.9162H222.027V57.1456L218.253 62.7387L214.486 57.1456V63.9162H212.328V53.3379H214.486L218.253 58.931L222.027 53.3379H224.185Z" fill="#0B9791"/>
<path d="M176.931 61.798V59.6862H183.964V57.568H176.931V55.4497H184.238L185.548 53.3379H174.773V63.9162H185.548L184.238 61.798H176.931Z" fill="#0B9791"/>
<path d="M124.271 39.5804C124.271 37.8141 122.804 36.4062 121.038 36.4062H113.496V46.9846H115.654V42.7545H121.038C122.759 42.7545 124.271 41.3467 124.271 39.5804ZM115.647 38.5245H121.031C121.324 38.5245 122.107 38.7613 122.107 39.5804C122.107 40.1691 121.611 40.6363 121.031 40.6363H115.647V38.5245Z" fill="#0B9791"/>
<path d="M82.6523 40.6402V39.5843C82.6523 39.0083 82.1569 38.5284 81.5768 38.5284H77.2682C76.6685 38.5284 76.1927 39.0147 76.1927 39.5843V43.8144C76.1927 44.4031 76.6685 44.8703 77.2682 44.8703H81.5768C82.1634 44.8703 82.6523 44.4031 82.6523 43.8144V42.7584H84.8098V43.8144C84.8098 45.5678 83.3628 46.9885 81.5768 46.9885H77.2682C75.4822 46.9885 74.0352 45.5678 74.0352 43.8144V39.5843C74.0352 37.8308 75.4822 36.4102 77.2682 36.4102H81.5768C83.3628 36.4102 84.8098 37.8308 84.8098 39.5843V40.6402H82.6523Z" fill="#0B9791"/>
<path d="M98.5598 36.4023V46.9871H96.4023V40.2164L92.6347 45.8032L88.8607 40.2164V46.9871H86.7031V36.4023H88.8607L92.6347 41.9955L96.4023 36.4023H98.5598Z" fill="#0B9791"/>
<path d="M107.296 36.4043H104.799L99.5781 46.9826H101.905L102.948 44.8644H109.14L110.19 46.9826H112.517L107.296 36.4043ZM103.997 42.7526L103.978 42.791L106.044 38.5993L108.091 42.7526H103.997Z" fill="#0B9791"/>
<path d="M135.626 38.5206H131.318V46.9807H129.16V38.5206H124.852V36.4023H135.626V38.5206Z" fill="#0B9791"/>
<path d="M145.23 40.6402V39.5843C145.23 39.0083 144.735 38.5284 144.155 38.5284H139.846C139.247 38.5284 138.771 39.0147 138.771 39.5843V43.8144C138.771 44.4031 139.247 44.8703 139.846 44.8703H144.155C144.742 44.8703 145.23 44.4031 145.23 43.8144V42.7584H147.388V43.8144C147.388 45.5678 145.941 46.9885 144.155 46.9885H139.846C138.06 46.9885 136.613 45.5678 136.613 43.8144V39.5843C136.613 37.8308 138.06 36.4102 139.846 36.4102H144.155C145.941 36.4102 147.388 37.8308 147.388 39.5843V40.6402H145.23Z" fill="#0B9791"/>
<path d="M63.2517 60.7542V39.5592L52.9008 33.7228L34.2716 44.2436V56.0634L44.5965 61.919L54.9671 56.0634L54.9605 44.2372L52.9268 43.1301L42.5368 48.9536V51.3406L44.5965 52.4861L49.6156 49.7599V53.0173L44.59 55.7819L39.6362 53.0109V47.2897L52.9399 39.8471L57.8807 42.5669L57.8612 57.7081L44.5965 65.2211L31.3775 57.7209V42.0742L49.3744 31.6686L44.6617 29L26 39.5528V60.7542L44.5965 71.3198L63.2517 60.7542Z" fill="#0B9791"/>
</svg>
