<svg width="250" height="100" viewBox="0 0 250 100" fill="none" xmlns="http://www.w3.org/2000/svg">
<path fill-rule="evenodd" clip-rule="evenodd" d="M124.809 59.6561C124.975 59.4671 125.061 59.2556 125.07 59.0217L125.07 59.0215V73.5212C125.071 73.5487 125.072 73.5763 125.073 73.6039C125.082 73.797 125.086 73.9925 125.086 74.1904C125.086 74.3116 125.084 74.4321 125.081 74.5519C125.036 76.3487 124.652 77.9816 123.929 79.4505C123.883 79.5469 123.835 79.6421 123.785 79.736C123.045 81.1452 121.999 82.2811 120.646 83.1438C120.469 83.2557 120.287 83.3607 120.101 83.4586C118.795 84.1441 117.261 84.4868 115.498 84.4868C113.608 84.4868 111.929 84.0392 110.462 83.1438C108.994 82.2236 107.838 80.9925 106.992 79.4505C106.172 77.9086 105.761 76.1925 105.761 74.3023C105.761 72.2132 106.172 70.3852 106.992 68.8183C107.813 67.2515 108.945 66.0328 110.387 65.1623C111.854 64.2919 113.558 63.8566 115.498 63.8566C117.264 63.8566 118.868 64.2919 120.311 65.1623C120.383 65.2053 120.455 65.2492 120.526 65.2939C121.59 65.9645 122.484 66.8262 123.207 67.8792V59.0564C123.208 59.0702 123.21 59.0839 123.211 59.0975C123.234 59.3015 123.319 59.4877 123.466 59.6561C123.491 59.6779 123.516 59.6983 123.542 59.7173C123.721 59.8506 123.92 59.9172 124.138 59.9172C124.411 59.9172 124.635 59.8302 124.809 59.6561ZM114.766 65.1834C117.212 65.1834 119.416 66.3069 120.958 68.102C121.016 68.1649 121.074 68.229 121.131 68.2942C121.529 68.7504 121.877 69.2609 122.176 69.8256C122.263 69.9841 122.344 70.1456 122.421 70.31C122.954 71.4606 123.22 72.7541 123.22 74.1904C123.22 74.2883 123.219 74.3857 123.217 74.4826C123.182 75.9355 122.885 77.2681 122.325 78.4806C122.305 78.5228 122.285 78.5648 122.264 78.6065C121.957 79.2317 121.577 79.7917 121.127 80.2864C120.933 80.5255 120.728 80.7536 120.513 80.9697C119.006 82.4825 116.986 83.4077 114.766 83.4077C110.103 83.4077 106.324 79.328 106.324 74.2955C106.324 69.263 110.103 65.1834 114.766 65.1834Z" fill="#505050"/>
<path d="M95.1967 80.1997C96.2299 81.5127 97.1429 82.7055 97.9357 83.778C97.9792 83.8402 98.0328 83.8946 98.0965 83.9412C98.2877 84.0811 98.5699 84.1511 98.9429 84.1511C99.1916 84.1511 99.403 84.064 99.5771 83.8899C99.7512 83.691 99.8383 83.4671 99.8383 83.2184V65.125C99.8383 64.8515 99.7512 64.6276 99.5771 64.4535C99.403 64.2794 99.1792 64.1924 98.9056 64.1924C98.6569 64.1924 98.4331 64.2794 98.2341 64.4535C98.2123 64.4753 98.1919 64.4978 98.1729 64.5211C98.0396 64.6844 97.973 64.8857 97.973 65.125V80.7562C96.9533 79.4132 95.8341 77.9832 94.6154 76.4661C93.4216 74.9241 92.2278 73.407 91.0341 71.9147C89.8651 70.3976 88.7833 69.0049 87.7884 67.7365C86.7936 66.4432 85.9854 65.3863 85.3636 64.5655L85.3635 64.5654C85.2828 64.45 85.1672 64.3614 85.0167 64.2995C84.843 64.2281 84.6229 64.1924 84.3563 64.1924C84.2444 64.1924 84.1356 64.2141 84.0299 64.2577C83.9242 64.3012 83.8216 64.3665 83.7221 64.4535C83.548 64.6276 83.4609 64.8515 83.4609 65.125V83.2184L83.4609 83.2185C83.4609 83.3429 83.4827 83.461 83.5262 83.5728C83.5697 83.6848 83.635 83.7905 83.7221 83.8899C83.747 83.9117 83.7722 83.9321 83.7979 83.9512C83.9774 84.0844 84.176 84.1511 84.3936 84.1511C84.6672 84.1511 84.891 84.064 85.0651 83.8899C85.2392 83.691 85.3262 83.4671 85.3262 83.2184V67.5872C85.4319 67.7209 85.5394 67.8571 85.6486 67.9958C86.413 68.967 87.263 70.0619 88.1988 71.2805C88.3356 71.4546 88.473 71.6295 88.6109 71.8051C89.5766 73.0347 90.5708 74.3023 91.5936 75.608C91.6667 75.6997 91.7396 75.7913 91.8124 75.8829C92.9039 77.2556 93.9626 78.6065 94.9885 79.9355C95.0584 80.0241 95.1278 80.1122 95.1967 80.1997Z" fill="#505050"/>
<path fill-rule="evenodd" clip-rule="evenodd" d="M124.809 59.6561C124.975 59.4671 125.061 59.2556 125.07 59.0217L125.07 59.0215V73.5212C125.071 73.5487 125.072 73.5763 125.073 73.6039C125.082 73.797 125.086 73.9925 125.086 74.1904C125.086 74.3116 125.084 74.4321 125.081 74.5519C125.036 76.3487 124.652 77.9816 123.929 79.4505C123.883 79.5469 123.835 79.6421 123.785 79.736C123.045 81.1452 121.999 82.2811 120.646 83.1438C120.469 83.2557 120.287 83.3607 120.101 83.4586C118.795 84.1441 117.261 84.4868 115.498 84.4868C113.608 84.4868 111.929 84.0392 110.462 83.1438C108.994 82.2236 107.838 80.9925 106.992 79.4505C106.172 77.9086 105.761 76.1925 105.761 74.3023C105.761 72.2132 106.172 70.3852 106.992 68.8183C107.813 67.2515 108.945 66.0328 110.387 65.1623C111.854 64.2919 113.558 63.8566 115.498 63.8566C117.264 63.8566 118.868 64.2919 120.311 65.1623C120.383 65.2053 120.455 65.2492 120.526 65.2939C121.59 65.9645 122.484 66.8262 123.207 67.8792V59.0564C123.208 59.0702 123.21 59.0839 123.211 59.0975C123.234 59.3015 123.319 59.4877 123.466 59.6561C123.491 59.6779 123.516 59.6983 123.542 59.7173C123.721 59.8506 123.92 59.9172 124.138 59.9172C124.411 59.9172 124.635 59.8302 124.809 59.6561ZM114.766 65.1834C117.212 65.1834 119.416 66.3069 120.958 68.102C121.016 68.1649 121.074 68.229 121.131 68.2942C121.529 68.7504 121.877 69.2609 122.176 69.8256C122.263 69.9841 122.344 70.1456 122.421 70.31C122.954 71.4606 123.22 72.7541 123.22 74.1904C123.22 74.2883 123.219 74.3857 123.217 74.4826C123.182 75.9355 122.885 77.2681 122.325 78.4806C122.305 78.5228 122.285 78.5648 122.264 78.6065C121.957 79.2317 121.577 79.7917 121.127 80.2864C120.933 80.5255 120.728 80.7536 120.513 80.9697C119.006 82.4825 116.986 83.4077 114.766 83.4077C110.103 83.4077 106.324 79.328 106.324 74.2955C106.324 69.263 110.103 65.1834 114.766 65.1834Z" fill="#505050"/>
<path d="M95.1967 80.1997C96.2299 81.5127 97.1429 82.7055 97.9357 83.778C97.9792 83.8402 98.0328 83.8946 98.0965 83.9412C98.2877 84.0811 98.5699 84.1511 98.9429 84.1511C99.1916 84.1511 99.403 84.064 99.5771 83.8899C99.7512 83.691 99.8383 83.4671 99.8383 83.2184V65.125C99.8383 64.8515 99.7512 64.6276 99.5771 64.4535C99.403 64.2794 99.1792 64.1924 98.9056 64.1924C98.6569 64.1924 98.4331 64.2794 98.2341 64.4535C98.2123 64.4753 98.1919 64.4978 98.1729 64.5211C98.0396 64.6844 97.973 64.8857 97.973 65.125V80.7562C96.9533 79.4132 95.8341 77.9832 94.6154 76.4661C93.4216 74.9241 92.2278 73.407 91.0341 71.9147C89.8651 70.3976 88.7833 69.0049 87.7884 67.7365C86.7936 66.4432 85.9854 65.3863 85.3636 64.5655L85.3635 64.5654C85.2828 64.45 85.1672 64.3614 85.0167 64.2995C84.843 64.2281 84.6229 64.1924 84.3563 64.1924C84.2444 64.1924 84.1356 64.2141 84.0299 64.2577C83.9242 64.3012 83.8216 64.3665 83.7221 64.4535C83.548 64.6276 83.4609 64.8515 83.4609 65.125V83.2184L83.4609 83.2185C83.4609 83.3429 83.4827 83.461 83.5262 83.5728C83.5697 83.6848 83.635 83.7905 83.7221 83.8899C83.747 83.9117 83.7722 83.9321 83.7979 83.9512C83.9774 84.0844 84.176 84.1511 84.3936 84.1511C84.6672 84.1511 84.891 84.064 85.0651 83.8899C85.2392 83.691 85.3262 83.4671 85.3262 83.2184V67.5872C85.4319 67.7209 85.5394 67.8571 85.6486 67.9958C86.413 68.967 87.263 70.0619 88.1988 71.2805C88.3356 71.4546 88.473 71.6295 88.6109 71.8051C89.5766 73.0347 90.5708 74.3023 91.5936 75.608C91.6667 75.6997 91.7396 75.7913 91.8124 75.8829C92.9039 77.2556 93.9626 78.6065 94.9885 79.9355C95.0584 80.0241 95.1278 80.1122 95.1967 80.1997Z" fill="#505050"/>
<path d="M138.855 83.9502C139.035 84.0835 139.233 84.1501 139.451 84.1501C139.724 84.1501 139.948 84.0631 140.122 83.889C140.296 83.69 140.384 83.4662 140.384 83.2175V66.0567H147.509C147.783 66.0567 148.006 65.9697 148.18 65.7956L148.18 65.7956C148.355 65.5966 148.442 65.3728 148.442 65.1241V65.1241C148.442 64.8505 148.355 64.6267 148.181 64.4526L148.18 64.4525C148.006 64.2785 147.783 64.1914 147.509 64.1914H131.542C131.293 64.1914 131.069 64.2785 130.871 64.4525C130.849 64.4743 130.828 64.4968 130.809 64.5202C130.676 64.6834 130.609 64.8847 130.609 65.1241C130.609 65.1396 130.61 65.155 130.61 65.1704C130.621 65.4006 130.707 65.609 130.871 65.7956C130.895 65.8173 130.921 65.8377 130.946 65.8568C131.126 65.9901 131.324 66.0567 131.542 66.0567H138.518V83.2175C138.518 83.233 138.519 83.2485 138.519 83.2638C138.529 83.4941 138.616 83.7024 138.779 83.889C138.804 83.9107 138.83 83.9311 138.855 83.9502Z" fill="#505050"/>
<path d="M153.699 83.9502C153.879 84.0835 154.077 84.1501 154.295 84.1501H164.703C164.977 84.1501 165.201 84.0631 165.375 83.889L165.375 83.889C165.549 83.69 165.636 83.4662 165.636 83.2175C165.636 82.9439 165.549 82.7201 165.375 82.546L165.375 82.546C165.201 82.3719 164.977 82.2848 164.703 82.2848H155.228V74.4132H163.024C163.298 74.4132 163.522 74.3262 163.696 74.1521L163.696 74.1521C163.87 73.9531 163.957 73.7293 163.957 73.4806C163.957 73.2072 163.87 72.9834 163.696 72.8093C163.696 72.8093 163.696 72.8092 163.696 72.8091C163.522 72.635 163.298 72.5479 163.024 72.5479H155.228V66.0567H164.629C164.902 66.0567 165.126 65.9697 165.3 65.7956L165.3 65.7956C165.474 65.5966 165.561 65.3728 165.561 65.1241C165.561 64.8505 165.474 64.6267 165.3 64.4526L165.3 64.4525C165.126 64.2785 164.902 64.1914 164.629 64.1914H154.183C153.959 64.1914 153.76 64.2909 153.586 64.4899C153.567 64.5116 153.55 64.534 153.534 64.5569C153.419 64.7174 153.362 64.9064 153.362 65.1241V83.2175C153.362 83.233 153.363 83.2485 153.363 83.2638C153.373 83.4941 153.46 83.7024 153.623 83.889C153.648 83.9107 153.674 83.9311 153.699 83.9502Z" fill="#505050"/>
<path d="M138.855 83.9502C139.035 84.0835 139.233 84.1501 139.451 84.1501C139.724 84.1501 139.948 84.0631 140.122 83.889C140.296 83.69 140.384 83.4662 140.384 83.2175V66.0567H147.509C147.783 66.0567 148.006 65.9697 148.18 65.7956L148.18 65.7956C148.355 65.5966 148.442 65.3728 148.442 65.1241C148.442 64.8505 148.355 64.6267 148.181 64.4526L148.18 64.4525C148.006 64.2785 147.783 64.1914 147.509 64.1914H131.542C131.293 64.1914 131.069 64.2785 130.871 64.4525C130.849 64.4743 130.828 64.4968 130.809 64.5202C130.676 64.6834 130.609 64.8847 130.609 65.1241C130.609 65.1396 130.61 65.155 130.61 65.1704C130.621 65.4006 130.707 65.609 130.871 65.7956C130.895 65.8173 130.921 65.8377 130.946 65.8568C131.126 65.9901 131.324 66.0567 131.542 66.0567H138.518V83.2175C138.518 83.233 138.519 83.2485 138.519 83.2638C138.529 83.4941 138.616 83.7024 138.779 83.889C138.804 83.9107 138.83 83.9311 138.855 83.9502Z" fill="#505050"/>
<path d="M153.699 83.9502C153.879 84.0835 154.077 84.1501 154.295 84.1501H164.703C164.977 84.1501 165.201 84.0631 165.375 83.889L165.375 83.889C165.549 83.69 165.636 83.4662 165.636 83.2175C165.636 82.9439 165.549 82.7201 165.375 82.546L165.375 82.546C165.201 82.3719 164.977 82.2848 164.703 82.2848H155.228V74.4132H163.024C163.298 74.4132 163.522 74.3262 163.696 74.1521L163.696 74.1521C163.87 73.9531 163.957 73.7293 163.957 73.4806C163.957 73.2072 163.87 72.9834 163.696 72.8093C163.696 72.8093 163.696 72.8092 163.696 72.8091C163.522 72.635 163.298 72.5479 163.024 72.5479H155.228V66.0567H164.629C164.902 66.0567 165.126 65.9697 165.3 65.7956L165.3 65.7956C165.474 65.5966 165.561 65.3728 165.561 65.1241C165.561 64.8505 165.474 64.6267 165.3 64.4526L165.3 64.4525C165.126 64.2785 164.902 64.1914 164.629 64.1914H154.183C153.959 64.1914 153.76 64.2909 153.586 64.4899C153.567 64.5116 153.55 64.534 153.534 64.5569C153.419 64.7174 153.362 64.9064 153.362 65.1241V83.2175C153.362 83.233 153.363 83.2485 153.363 83.2638C153.373 83.4941 153.46 83.7024 153.623 83.889C153.648 83.9107 153.674 83.9311 153.699 83.9502Z" fill="#505050"/>
<path fill-rule="evenodd" clip-rule="evenodd" d="M140.363 23.071C141.023 20.7502 141.547 18.3905 141.754 16C139.392 16.4199 137.135 17.1945 134.882 18.0587C132.676 18.9659 130.525 20.0952 128.663 21.6609C126.75 23.0941 125.087 25.1002 124.205 27.4759C123.719 28.6657 123.595 29.9292 123.562 31.1887C123.528 32.4482 123.763 33.6957 124.131 34.8924C124.186 35.1146 124.374 35.286 124.6 35.3208C124.712 35.3365 124.825 35.3525 124.938 35.3686C126.054 35.5272 127.203 35.6906 128.339 35.5584C129.591 35.4127 130.834 35.0877 131.98 34.5873C134.268 33.4968 136.028 31.666 137.375 29.6291C138.722 27.5921 139.655 25.349 140.363 23.071ZM135.086 18.5888C137.241 17.5492 139.494 16.6849 141.754 16C141.32 18.3557 140.66 20.6765 139.766 22.7831C138.922 25.0223 137.848 27.1369 136.54 29.0373C135.185 30.8949 133.464 32.5891 131.437 33.4883C130.424 33.9378 129.313 34.212 128.194 34.3069C127.44 34.3708 126.66 34.3338 125.899 34.2351L129.819 29.717C130.484 29.7573 131.145 29.7214 131.803 29.6091C132.517 29.4875 133.183 29.3229 133.893 29.1116C134.602 28.9002 135.218 28.6032 135.83 28.2165C136.441 27.8297 136.959 27.3573 137.431 26.8421C136.917 27.4042 136.352 27.8337 135.736 28.1308C135.12 28.4278 134.458 28.682 133.791 28.8465C133.082 29.0579 132.411 29.1327 131.694 29.1647C131.521 29.1609 131.345 29.1602 131.168 29.1595C130.886 29.1583 130.6 29.1571 130.317 29.1434L141.027 16.7977L125.021 33.4017C124.848 32.65 124.702 31.8972 124.638 31.1407C124.633 30.0177 124.807 28.8867 125.165 27.8374C125.922 25.6919 127.414 23.8732 129.143 22.3583C130.963 20.8395 132.931 19.6285 135.086 18.5888Z" fill="#222222"/>
<path fill-rule="evenodd" clip-rule="evenodd" d="M140.363 23.071C141.023 20.7502 141.547 18.3905 141.754 16C139.392 16.4199 137.135 17.1945 134.882 18.0587C132.676 18.9659 130.525 20.0952 128.663 21.6609C126.75 23.0941 125.087 25.1002 124.205 27.4759C123.719 28.6657 123.595 29.9292 123.562 31.1887C123.528 32.4482 123.763 33.6957 124.131 34.8924C124.186 35.1146 124.374 35.286 124.6 35.3208C124.712 35.3365 124.825 35.3525 124.938 35.3686C126.054 35.5272 127.203 35.6906 128.339 35.5584C129.591 35.4127 130.834 35.0877 131.98 34.5873C134.268 33.4968 136.028 31.666 137.375 29.6291C138.722 27.5921 139.655 25.349 140.363 23.071ZM135.086 18.5888C137.241 17.5492 139.494 16.6849 141.754 16C141.32 18.3557 140.66 20.6765 139.766 22.7831C138.922 25.0223 137.848 27.1369 136.54 29.0373C135.185 30.8949 133.464 32.5891 131.437 33.4883C130.424 33.9378 129.313 34.212 128.194 34.3069C127.44 34.3708 126.66 34.3338 125.899 34.2351L129.819 29.717C130.484 29.7573 131.145 29.7214 131.803 29.6091C132.517 29.4875 133.183 29.3229 133.893 29.1116C134.602 28.9002 135.218 28.6032 135.83 28.2165C136.441 27.8297 136.959 27.3573 137.431 26.8421C136.917 27.4042 136.352 27.8337 135.736 28.1308C135.12 28.4278 134.458 28.682 133.791 28.8465C133.082 29.0579 132.411 29.1327 131.694 29.1647C131.521 29.1609 131.345 29.1602 131.168 29.1595C130.886 29.1583 130.6 29.1571 130.317 29.1434L141.027 16.7977L125.021 33.4017C124.848 32.65 124.702 31.8972 124.638 31.1407C124.633 30.0177 124.807 28.8867 125.165 27.8374C125.922 25.6919 127.414 23.8732 129.143 22.3583C130.963 20.8395 132.931 19.6285 135.086 18.5888Z" fill="#222222"/>
<path d="M94.5729 41.0474C93.976 40.7987 93.3169 40.5997 92.5956 40.4505C91.8993 40.3012 90.979 40.2266 89.835 40.2266C88.5666 40.2266 87.5593 40.5499 86.8132 41.1966C86.0671 41.8183 85.694 42.5272 85.694 43.323C85.694 44.1189 86.0422 44.8401 86.7386 45.4868C87.435 46.1334 88.7904 46.693 90.8049 47.1655C92.5956 47.5635 93.976 48.0733 94.9459 48.6951C95.9407 49.3169 96.6371 50.0257 97.035 50.8215C97.433 51.5925 97.6319 52.4506 97.6319 53.3956C97.6319 54.3159 97.3957 55.1988 96.9231 56.0444C96.4755 56.8651 95.7293 57.549 94.6848 58.0962C93.6651 58.6185 92.2972 58.8796 90.5811 58.8796C88.1438 58.8796 85.893 58.3076 83.8287 57.1635C83.5054 56.9646 83.3438 56.691 83.3438 56.3428C83.3438 56.119 83.4308 55.9076 83.6049 55.7086C83.779 55.5096 84.0028 55.4102 84.2764 55.4102C84.4256 55.4102 84.5748 55.4475 84.7241 55.5221C86.4899 56.5169 88.4422 57.0143 90.5811 57.0143C92.2723 57.0143 93.5532 56.6661 94.4236 55.9698C95.319 55.2485 95.7666 54.3905 95.7666 53.3956C95.7666 52.3511 95.3438 51.4806 94.4982 50.7842C93.6775 50.0878 92.3221 49.5034 90.4319 49.0308C88.6661 48.5832 87.2982 48.0733 86.3282 47.5013C85.3831 46.9293 84.7241 46.2826 84.351 45.5614C84.0028 44.8401 83.8287 44.0443 83.8287 43.1738C83.8287 42.3779 84.0526 41.6194 84.5002 40.8981C84.9728 40.152 85.6567 39.5427 86.5521 39.0701C87.4474 38.5976 88.5417 38.3613 89.835 38.3613C91.2029 38.3613 92.2972 38.4732 93.1179 38.6971C93.9635 38.896 94.8464 39.1821 95.7666 39.5551C96.1646 39.7043 96.3635 39.9904 96.3635 40.4132C96.3635 40.6619 96.2641 40.8857 96.0651 41.0847C95.891 41.2588 95.6796 41.3458 95.4309 41.3458C95.3811 41.3458 95.3065 41.3334 95.2071 41.3085C95.1076 41.2588 94.8962 41.1717 94.5729 41.0474Z" fill="#222222"/>
<path d="M104.958 58.5439C104.71 58.5439 104.486 58.4568 104.287 58.2827C104.113 58.0838 104.026 57.8599 104.026 57.6112V39.5178C104.026 39.2442 104.113 39.0204 104.287 38.8463C104.486 38.6722 104.71 38.5852 104.958 38.5852H110.293C111.761 38.5852 113.041 38.8836 114.136 39.4805C115.23 40.0525 116.076 40.836 116.673 41.8308C117.294 42.8256 117.605 43.9697 117.605 45.2629C117.605 46.4567 117.332 47.5635 116.784 48.5832C116.262 49.6029 115.454 50.4236 114.36 51.0454C113.29 51.6671 111.935 51.978 110.293 51.978H105.891V57.6112C105.891 57.8599 105.804 58.0838 105.63 58.2827C105.456 58.4568 105.232 58.5439 104.958 58.5439ZM105.891 40.4505V50.1127H110.293C112.059 50.1127 113.402 49.6526 114.322 48.7324C115.267 47.7873 115.74 46.6308 115.74 45.2629C115.74 43.8204 115.23 42.664 114.21 41.7935C113.191 40.8981 111.885 40.4505 110.293 40.4505H105.891Z" fill="#222222"/>
<path d="M125.095 58.9823C125.095 59.231 125.008 59.4549 124.834 59.6538C124.66 59.8279 124.436 59.915 124.162 59.915C123.914 59.915 123.69 59.8279 123.491 59.6538C123.317 59.4549 123.23 59.231 123.23 58.9823V39.294C123.23 39.0204 123.317 38.7966 123.491 38.6225C123.69 38.4484 123.914 38.3613 124.162 38.3613C124.436 38.3613 124.66 38.4484 124.834 38.6225C125.008 38.7966 125.095 39.0204 125.095 39.294V58.9823Z" fill="#222222"/>
<path d="M158.324 58.5439C158.075 58.5439 157.852 58.4568 157.653 58.2827C157.479 58.0838 157.391 57.8599 157.391 57.6112V51.3438C156.969 50.7967 156.409 50.0257 155.713 49.0308C155.016 48.036 154.283 46.9666 153.512 45.8225C152.766 44.6785 152.044 43.5842 151.348 42.5396C150.676 41.495 150.154 40.6494 149.781 40.0028C149.706 39.8536 149.669 39.6919 149.669 39.5178C149.669 39.294 149.744 39.095 149.893 38.9209C150.042 38.722 150.266 38.6225 150.564 38.6225C150.938 38.6225 151.199 38.7593 151.348 39.0328C151.696 39.6049 152.156 40.351 152.728 41.2712C153.325 42.1665 153.959 43.1241 154.631 44.1438C155.327 45.1635 155.999 46.1458 156.645 47.0909C157.317 48.036 157.889 48.8443 158.361 49.5158C158.884 48.7946 159.456 47.9614 160.077 47.0163C160.724 46.0464 161.371 45.064 162.017 44.0691C162.664 43.0494 163.261 42.1044 163.808 41.2339C164.38 40.3385 164.828 39.6049 165.151 39.0328C165.3 38.7593 165.561 38.6225 165.935 38.6225C166.531 38.6225 166.83 38.9209 166.83 39.5178C166.83 39.6919 166.793 39.8536 166.718 40.0028C166.345 40.6246 165.835 41.4453 165.188 42.465C164.567 43.4598 163.883 44.5293 163.137 45.6733C162.39 46.7925 161.669 47.8619 160.973 48.8816C160.301 49.9013 159.729 50.7469 159.257 51.4184V57.6112C159.257 57.8599 159.17 58.0838 158.996 58.2827C158.822 58.4568 158.598 58.5439 158.324 58.5439Z" fill="#222222"/>
<path d="M145.196 41.184C143.982 40.541 142.447 40.2196 140.589 40.2196C139.103 40.2196 137.728 40.5781 136.465 41.2953C135.226 42.0124 134.223 43.014 133.455 44.2999C132.687 45.5611 132.303 47.0448 132.303 48.7512C132.303 50.3091 132.638 51.7187 133.307 52.9799C133.975 54.2163 134.941 55.2055 136.205 55.9474C137.493 56.6645 139.028 57.0231 140.812 57.0231C141.704 57.0231 142.533 56.9365 143.301 56.7634C144.094 56.5903 144.8 56.343 145.419 56.0216C145.543 55.9474 145.679 55.9103 145.828 55.9103C146.1 55.9103 146.323 55.9968 146.497 56.1699C146.67 56.343 146.757 56.5656 146.757 56.8376C146.757 57.2333 146.583 57.5053 146.236 57.6537C145.493 58.0494 144.664 58.3461 143.747 58.5439C142.831 58.7665 141.852 58.8778 140.812 58.8778C138.632 58.8778 136.762 58.4327 135.202 57.5424C133.666 56.6522 132.489 55.4404 131.672 53.9072C130.854 52.374 130.446 50.6553 130.446 48.7512C130.446 46.6739 130.916 44.8563 131.858 43.2983C132.799 41.7404 134.037 40.5287 135.573 39.6631C137.109 38.7976 138.781 38.3649 140.589 38.3649C142.818 38.3649 144.651 38.7605 146.088 39.5519C146.41 39.7497 146.571 40.0217 146.571 40.3679C146.571 40.5905 146.484 40.8007 146.311 40.9985C146.137 41.1964 145.914 41.2953 145.642 41.2953C145.493 41.2953 145.345 41.2582 145.196 41.184Z" fill="#222222"/>
</svg>
