<svg width="250" height="100" viewBox="0 0 250 100" fill="none" xmlns="http://www.w3.org/2000/svg">
<path d="M105.292 42.1406C98.7731 42.1406 93.4844 47.6263 93.4844 54.3621C93.4844 61.1236 98.7731 66.5838 105.292 66.5838C111.81 66.5838 117.099 61.098 117.099 54.3621C117.099 47.6263 111.835 42.1406 105.292 42.1406ZM105.292 61.2766C101.626 61.2766 98.6501 58.1894 98.6501 54.3877C98.6501 50.5859 101.626 47.4988 105.292 47.4988C108.957 47.4988 111.933 50.5859 111.933 54.3877C111.933 58.1894 108.981 61.2766 105.292 61.2766Z" fill="#373F55"/>
<path d="M158.945 66.5838V45.196C158.945 43.5155 160.344 42.1406 162.053 42.1406C163.761 42.1406 165.16 43.5155 165.16 45.196V66.5838H158.945Z" fill="#373F55"/>
<path d="M210.734 66.5838V45.196C210.734 43.5155 212.133 42.1406 213.842 42.1406C215.551 42.1406 216.949 43.5155 216.949 45.196V66.5838H210.734Z" fill="#373F55"/>
<path d="M91.3342 32.1992H74.9283C73.2877 32.1992 71.9453 33.5777 71.9453 35.2626C71.9453 36.9474 73.2877 38.3259 74.9283 38.3259H80.1483V66.5853H86.114V38.3259H91.3342C92.9748 38.3259 94.317 36.9474 94.317 35.2626C94.317 33.5777 92.9748 32.1992 91.3342 32.1992Z" fill="#373F55"/>
<path d="M152.703 51.3068C152.503 46.2145 148.405 42.1406 143.357 42.1406C140.883 42.1406 138.659 43.1082 136.985 44.7122C135.311 43.1336 133.087 42.1406 130.613 42.1406C125.565 42.1406 121.467 46.2145 121.267 51.3068H121.242V66.5838H127.239V50.9249C127.239 49.0153 128.739 47.4876 130.613 47.4876C132.487 47.4876 133.986 49.0153 133.986 50.9249V66.5838H139.984V51.3068H139.959C139.959 51.1795 139.959 51.0522 139.934 50.9249H139.984C139.984 49.0153 141.483 47.4876 143.357 47.4876C145.231 47.4876 146.731 49.0153 146.731 50.9249V66.5838H152.728L152.703 51.3068Z" fill="#373F55"/>
<path d="M204.071 51.3323C203.873 46.2399 199.796 42.1406 194.775 42.1406C189.753 42.1406 185.652 46.2145 185.478 51.3068H185.453V66.5838H191.42V60.6003C192.463 61.0077 193.582 61.2368 194.775 61.2368C195.968 61.2368 197.086 61.0077 198.131 60.6003V66.5838H204.096L204.071 51.3323ZM194.75 55.8899C192.488 55.8899 190.649 54.0058 190.649 51.6887C190.649 49.3717 192.488 47.4876 194.75 47.4876C197.012 47.4876 198.851 49.3717 198.851 51.6887C198.851 54.0058 197.037 55.8899 194.75 55.8899Z" fill="#373F55"/>
<path d="M174.896 66.5855C176.612 66.5855 178.003 65.1943 178.003 63.4783C178.003 61.7622 176.612 60.3711 174.896 60.3711C173.179 60.3711 171.789 61.7622 171.789 63.4783C171.789 65.1943 173.179 66.5855 174.896 66.5855Z" fill="#373F55"/>
<path d="M56.1953 63.9472V43.1479C56.1953 41.4552 57.5003 40.0703 59.0953 40.0703C60.6903 40.0703 61.9954 41.4552 61.9954 43.1479V63.8959C61.9954 65.6142 60.6903 66.9992 59.0712 66.9992C57.4762 66.9992 56.1953 65.6399 56.1953 63.9472Z" fill="#373F55"/>
<path d="M44.6016 63.9989V52.6257C44.6016 50.9613 45.9066 49.5996 47.5017 49.5996C49.0967 49.5996 50.4016 50.9613 50.4016 52.6257V63.9485C50.4016 65.638 49.0967 66.9998 47.4775 66.9998C45.8824 66.9998 44.6016 65.6633 44.6016 63.9989Z" fill="#373F55"/>
<path d="M33 63.9481V59.3062C33 57.6135 34.305 56.2285 35.9 56.2285C37.4951 56.2285 38.8001 57.6135 38.8001 59.3062V63.8968C38.8001 65.6151 37.4951 67.0001 35.8759 67.0001C34.2809 67.0001 33 65.6408 33 63.9481Z" fill="#373F55"/>
<path d="M33 51.0522V43.2005C33 41.4789 34.305 40.0703 35.9 40.0703C37.4951 40.0703 38.8001 41.4789 38.8001 43.2005V51C38.8001 52.7477 37.4951 54.1562 35.8759 54.1562C34.2809 54.1562 33 52.7738 33 51.0522Z" fill="#0075FF"/>
<path d="M44.6016 44.2961V42.9136C44.6016 41.3485 45.7809 40.0703 47.2249 40.0703H47.7784C49.2224 40.0703 50.4016 41.3485 50.4016 42.9136V44.27C50.4016 45.8351 49.2224 47.1133 47.7784 47.1133H47.2249C45.7568 47.1133 44.6016 45.8611 44.6016 44.2961Z" fill="#0075FF"/>
<path d="M165.156 39.2417C165.156 39.2417 164.094 38.439 161.971 38.439C159.847 38.439 158.941 39.2417 158.941 39.2417V33.0273H165.156V39.2417Z" fill="#0075FF"/>
<path d="M216.949 39.2417C216.949 39.2417 215.887 38.439 213.764 38.439C211.641 38.439 210.734 39.2417 210.734 39.2417V33.0273H216.949V39.2417Z" fill="#0075FF"/>
</svg>
