<svg width="250" height="100" viewBox="0 0 250 100" fill="none" xmlns="http://www.w3.org/2000/svg">
<path d="M97.5018 79.2297C97.5018 79.5239 97.4773 79.8001 97.4282 80.058C97.3793 80.3161 97.2906 80.5419 97.1628 80.7361C97.0347 80.93 96.86 81.0825 96.6382 81.1935C96.4165 81.3044 96.1329 81.3598 95.7874 81.3598H94.5914C94.5401 81.3598 94.5049 81.3513 94.4858 81.3343C94.4666 81.3172 94.457 81.2895 94.457 81.251V77.2276C94.457 77.1593 94.4953 77.1251 94.5721 77.1251H95.7874C96.1286 77.1251 96.41 77.1796 96.6317 77.2882C96.8535 77.397 97.0283 77.5461 97.1563 77.736C97.2842 77.9257 97.3737 78.1485 97.425 78.4044C97.4762 78.6603 97.5018 78.9353 97.5018 79.2295V79.2297ZM96.9774 79.2809C96.9774 78.9227 96.9443 78.6328 96.8783 78.4111C96.8121 78.1894 96.7236 78.0167 96.6129 77.893C96.5019 77.7693 96.3751 77.6862 96.2323 77.6436C96.0894 77.6009 95.9414 77.5795 95.7878 77.5795H94.9562V80.8993H95.743C95.888 80.8993 96.0329 80.8811 96.178 80.8448C96.323 80.8086 96.4551 80.734 96.5746 80.6209C96.694 80.5079 96.7909 80.3447 96.8655 80.1315C96.9402 79.9184 96.9776 79.6349 96.9776 79.2809H96.9774ZM108.457 81.2575C108.444 81.3001 108.427 81.3278 108.406 81.3406C108.384 81.3533 108.356 81.3598 108.322 81.3598H107.99C107.93 81.3598 107.913 81.3256 107.939 81.2575L109.276 77.2213C109.293 77.1573 109.333 77.1253 109.397 77.1253H109.755C109.798 77.1253 109.827 77.1337 109.842 77.1508C109.857 77.1679 109.868 77.1913 109.877 77.2211L111.214 81.2701C111.227 81.3298 111.209 81.3596 111.163 81.3596H110.772C110.738 81.3596 110.714 81.3531 110.699 81.3404C110.684 81.3276 110.672 81.3064 110.664 81.2764L110.35 80.2272H108.789L108.457 81.2571V81.2575ZM109.89 78.7053L109.583 77.6691H109.563L109.263 78.6862L108.936 79.7737H110.209L109.89 78.7055V78.7053ZM122.226 78.0146H122.207V81.2512C122.207 81.3237 122.17 81.36 122.098 81.36H121.836C121.759 81.36 121.721 81.3238 121.721 81.2512V77.215C121.721 77.151 121.755 77.119 121.823 77.119H122.085C122.132 77.119 122.165 77.1287 122.184 77.1478C122.204 77.167 122.224 77.1915 122.245 77.2213L123.978 79.8951L124.317 80.4324H124.337V77.2343C124.337 77.1873 124.345 77.1564 124.362 77.1415C124.379 77.1265 124.407 77.119 124.445 77.119H124.714C124.748 77.119 124.774 77.1265 124.791 77.1415C124.808 77.1564 124.816 77.1873 124.816 77.2343V81.2577C124.816 81.3258 124.782 81.36 124.714 81.36H124.471C124.424 81.36 124.39 81.3515 124.369 81.3344C124.347 81.3174 124.326 81.2918 124.305 81.2577L122.597 78.6222L122.226 78.0146ZM137.243 77.0742C137.307 77.0742 137.386 77.0764 137.479 77.0807C137.573 77.085 137.673 77.0935 137.78 77.1062C137.887 77.119 137.993 77.1361 138.1 77.1573C138.206 77.1787 138.302 77.2064 138.388 77.2404C138.435 77.2618 138.462 77.283 138.471 77.3044C138.479 77.3258 138.479 77.3513 138.471 77.3812L138.433 77.5603C138.424 77.5817 138.412 77.6008 138.397 77.6179C138.382 77.6349 138.354 77.6393 138.311 77.6308C138.17 77.6094 138.005 77.5893 137.815 77.57C137.625 77.5508 137.435 77.5412 137.243 77.5412C136.995 77.5412 136.799 77.5882 136.654 77.6821C136.509 77.7759 136.398 77.9027 136.321 78.0626C136.245 78.2224 136.196 78.4079 136.174 78.6192C136.153 78.8303 136.142 79.0529 136.142 79.2876C136.142 79.5009 136.155 79.7075 136.181 79.908C136.206 80.1083 136.259 80.2855 136.338 80.4389C136.417 80.5925 136.528 80.7151 136.673 80.8068C136.818 80.8985 137.008 80.9442 137.243 80.9442C137.439 80.9442 137.627 80.9347 137.805 80.9154C137.985 80.8962 138.151 80.8759 138.304 80.8547C138.351 80.8462 138.382 80.8514 138.397 80.8707C138.412 80.8899 138.424 80.91 138.432 80.9314L138.464 81.0978C138.473 81.1318 138.474 81.1596 138.468 81.1809C138.461 81.2023 138.437 81.2213 138.394 81.2384C138.317 81.2726 138.226 81.3003 138.119 81.3217C138.012 81.3429 137.905 81.36 137.796 81.3728C137.687 81.3855 137.584 81.3952 137.486 81.4015C137.388 81.408 137.307 81.4111 137.243 81.4111C136.906 81.4111 136.632 81.3524 136.421 81.2352C136.21 81.1179 136.045 80.9611 135.925 80.7649C135.806 80.5687 135.725 80.3427 135.682 80.087C135.639 79.831 135.618 79.5645 135.618 79.2874C135.618 79.006 135.638 78.7321 135.679 78.4654C135.719 78.1989 135.797 77.9633 135.912 77.7587C136.027 77.554 136.191 77.3887 136.405 77.2629C136.618 77.137 136.897 77.0742 137.243 77.0742ZM151.504 81.2575C151.504 81.3001 151.496 81.3278 151.479 81.3406C151.462 81.3533 151.434 81.3598 151.396 81.3598H149.151C149.074 81.3598 149.035 81.3256 149.035 81.2575V77.2278C149.035 77.1553 149.074 77.119 149.151 77.119H151.357C151.43 77.119 151.466 77.1532 151.466 77.2213V77.4707C151.466 77.5432 151.428 77.5795 151.351 77.5795H149.534V78.9292H151.166C151.238 78.9292 151.274 78.9634 151.274 79.0317V79.2811C151.274 79.3493 151.238 79.3834 151.166 79.3834H149.534V80.9059H151.402C151.47 80.9059 151.505 80.9421 151.505 81.0147V81.2577L151.504 81.2575Z" fill="#2B2A29"/>
<path fill-rule="evenodd" clip-rule="evenodd" d="M121.95 67.1556C119.293 68.0027 117.569 66.2518 118.07 63.4953C118.374 61.8254 122.804 41.9189 122.804 41.9189C123.314 39.9965 125.362 38.9813 127.172 39.7287C127.7 39.947 128.126 40.4414 128.229 40.568C128.333 40.6944 128.482 40.6255 128.632 40.5565C130.555 39.6684 132.893 39.0779 134.919 39.9884C136.866 40.864 137.731 42.9259 137.389 45.3253C137.298 45.9554 135.736 52.5015 135.644 53.2816C135.447 54.9574 135.213 57.2963 137.523 56.9814C138.209 56.8879 138.454 56.2236 138.516 55.889C138.578 55.5541 142.262 38.602 142.262 38.602C142.584 36.6156 144.136 35.5559 146.083 35.8727C147.703 36.1364 148.447 37.7372 148.304 39.2556C148.247 39.8593 145.623 51.5656 145.623 51.5656C144.966 53.9574 146.682 54.9278 148.794 54.8298C152.214 54.671 152.38 57.4082 150.809 58.4377C150.432 58.685 148.64 59.4295 147.154 59.9992C145.799 60.5184 144.116 61.1331 142.641 60.8011C141.553 60.5565 141.802 60.5596 141.073 61.089C135.842 64.8892 127.53 65.1989 128.822 56.1591C129.072 54.4082 130.439 50.2976 129.668 49.0749C129.287 48.4709 128.51 48.2074 127.487 48.4529C126.398 53.4082 125.309 58.3635 124.219 63.3186C123.918 64.691 123.493 66.6638 121.95 67.1558V67.1556ZM96.8344 33.9429C96.458 34.0307 94.6258 34.3069 93.8979 34.2818C92.3136 34.2271 91.6147 32.2707 92.2114 30.9802C93.0796 29.1028 100.241 26.4596 102.022 26.3323C106.323 25.6507 108.413 27.0332 107.765 31.5733C107.66 32.3041 107.155 34.1098 106.908 35.2401C106.662 36.3701 101.461 58.5025 101.461 58.5025C100.851 61.6616 102.654 63.427 104.711 63.6097C108.388 63.9363 109.443 60.2873 110.106 57.4472C112.263 48.1965 114.566 38.1107 116.685 28.8506C116.685 28.8506 117.376 25.4757 118.964 23.747C121.385 21.1114 125.186 19.3348 128.757 19.0275C130.351 18.8903 131.823 19.2337 132.442 20.8181C133.171 22.6435 132.218 23.957 130.694 24.7713C129.165 25.589 127.504 25.6002 125.918 26.2758C124.216 27.0016 123.448 28.1577 122.727 30.8853C122.48 31.8204 116.101 60.8335 116.101 60.8335C114.958 67.2362 111.096 71.7527 104.266 71.468C98.5676 71.2306 94.2326 66.9638 94.4183 61.2048C94.5014 58.6287 95.4862 55.1948 95.737 53.9959C95.9879 52.7969 100.271 36.3049 100.271 36.3049C100.905 33.745 98.6019 33.6392 96.8344 33.9428V33.9429Z" fill="#2B2A29"/>
<path fill-rule="evenodd" clip-rule="evenodd" d="M147.936 20.7109C149.925 20.7109 151.692 21.6623 152.807 23.1344C156.177 23.755 158.48 25.0048 158.48 26.4456C158.48 27.808 156.421 28.9996 153.347 29.65C152.326 31.5964 150.286 32.9244 147.936 32.9244C145.578 32.9244 143.532 31.5876 142.514 29.6306C139.491 28.976 137.473 27.7945 137.473 26.4456C137.473 25.0185 139.732 23.7787 143.051 23.1523C144.165 21.6698 145.938 20.7109 147.935 20.7109H147.936ZM153.951 25.7592C154.011 26.103 154.043 26.4566 154.043 26.8177C154.043 26.9164 154.04 27.0144 154.035 27.1119C154.816 26.9214 155.272 26.6922 155.272 26.4456C155.272 26.1902 154.783 25.9534 153.951 25.7592ZM141.836 27.0914C141.832 27.0006 141.829 26.9094 141.829 26.8177C141.829 26.4638 141.859 26.1169 141.917 25.7795C141.137 25.97 140.681 26.1991 140.681 26.4456C140.681 26.6835 141.105 26.9051 141.836 27.0914ZM150.062 30.1002C149.388 30.1484 148.691 30.1737 147.977 30.1737C147.23 30.1737 146.502 30.146 145.8 30.0933C146.414 30.4945 147.148 30.7281 147.936 30.7281C148.72 30.7281 149.45 30.4974 150.062 30.1002ZM144.078 27.4563C145.206 27.5733 146.543 27.6411 147.977 27.6411C149.376 27.6411 150.683 27.5766 151.793 27.4647C151.828 27.2541 151.846 27.0382 151.846 26.8175C151.846 24.6579 150.095 22.9071 147.936 22.9071C145.776 22.9071 144.025 24.6577 144.025 26.8175C144.025 27.0351 144.043 27.2484 144.078 27.4563H144.078Z" fill="#2B2A29"/>
</svg>
