<svg width="250" height="100" viewBox="0 0 250 100" fill="none" xmlns="http://www.w3.org/2000/svg">
<path d="M55.0137 58.0192H51.7048L44.5068 50.7936L37.3089 58.0192H34L42.616 49.5096L34 41H37.4808L44.5068 48.182L51.5329 41H55.0137L46.3976 49.5096L55.0137 58.0192Z" fill="#105CAD"/>
<path d="M77.4566 58.0192H74.9427V43.2417L60.6543 58.0192H56.8727V41H59.3651V55.9299L73.7825 41H77.4566V58.0192Z" fill="#105CAD"/>
<path d="M107.333 58.0192H104.841V43.3069H104.347L94.9358 58.0192H93.3673L83.9563 43.3069H83.4836V58.0192H80.9912V41H85.4604L94.1623 54.9723L102.864 41H107.333V58.0192Z" fill="#105CAD"/>
<path d="M127.758 43.3069H120.238V58.0192H117.724V43.3069H110.203V41H127.758V43.3069Z" fill="#105CAD"/>
<path d="M145.564 58.0192H129.493V41H145.564V43.3069H131.985V48.2473H145.092V50.5325H131.985V55.734H145.564V58.0192Z" fill="#105CAD"/>
<path d="M168.78 58.0192H165.471L158.273 50.7936L151.075 58.0192H147.767L156.383 49.5096L147.767 41H151.247L158.273 48.182L165.299 41H168.78L160.164 49.5096L168.78 58.0192Z" fill="#105CAD"/>
<path d="M215.538 46.4409C215.538 48.1095 215.144 49.408 214.356 50.3366C213.525 51.3232 212.293 51.8165 210.66 51.8165H199.573V58.0192H197.059V41H210.768C213.948 41 215.538 42.8136 215.538 46.4409ZM213.024 46.4409C213.024 44.3516 212.229 43.3069 210.639 43.3069H199.573V49.5313H210.66C212.236 49.5313 213.024 48.5012 213.024 46.4409Z" fill="#105CAD"/>
<path d="M182.617 43.9714L183.903 47.9807H188.065L184.698 50.4586L185.984 54.4679L182.617 51.99L179.25 54.4679L180.536 50.4586L177.169 47.9807H181.331L182.617 43.9714Z" fill="#105CAD"/>
</svg>
