<svg width="250" height="100" viewBox="0 0 250 100" fill="none" xmlns="http://www.w3.org/2000/svg">
<path d="M44.6657 33.0137C44.6772 42.6554 44.6983 52.136 44.716 61.7781L54.0975 61.7798L54.0764 41.3447H58.1874L58.2128 65.9341L46.9914 65.9264C44.0876 65.9292 42.7149 65.9303 41.605 64.8141C40.5296 63.7326 40.5453 62.5546 40.575 60.3203C40.6943 51.1978 40.5656 42.1504 40.5547 33.014H44.6657V33.0137Z" fill="#1D2431"/>
<path d="M84.1094 37.2167V33.0898H88.2366V37.2167H84.1094Z" fill="#1D2431"/>
<path d="M88.2325 41.3438V65.9482H84.1055V41.3438H88.2325Z" fill="#1D2431"/>
<path d="M92.3398 33.0977H109.988V37.2247H92.3398V33.0977Z" fill="#1D2431"/>
<path d="M103.149 45.4598H109.947C109.947 50.3261 109.952 55.5245 110.015 60.3986C110.045 62.6327 110.061 63.8109 108.985 64.8924C107.875 66.0087 106.503 66.0073 103.599 66.0045L94.4297 66.0124L94.4551 41.3535H98.5661L98.545 61.8579L105.874 61.8562C105.891 52.884 105.836 56.731 105.838 49.5866H103.149V45.4594V45.4598Z" fill="#1D2431"/>
<path d="M191.645 59.8477H209.258V63.9746H191.645V59.8477Z" fill="#1D2431"/>
<path d="M193.703 45.4805H207.19V49.6075H193.703V45.4805Z" fill="#1D2431"/>
<path d="M191.645 33.0938H209.258V37.2207H191.645V33.0938Z" fill="#1D2431"/>
<path d="M69.7344 46.9624L76.2558 33.0098L79.9798 34.751L73.4585 48.7036L69.7344 46.9624Z" fill="#1D2431"/>
<path d="M75.8608 65.9916C75.8493 56.3497 75.8947 69.4698 75.8768 59.8281L66.4241 59.8264V63.9754H62.2969C62.2969 53.6524 62.2969 43.3339 62.2969 33.0078H66.4241V55.6749L73.6014 55.6798C76.5052 55.677 77.8776 55.6759 78.9878 56.7921C80.0629 57.8736 80.0475 59.0514 80.0175 61.2857C80.0175 61.2857 80.0175 60.9792 79.9718 65.9914H75.8608V65.9916Z" fill="#1D2431"/>
<path d="M148.077 45.5158H161.575L161.57 49.6428C161.505 61.497 150.286 65.985 139.977 65.985L139.977 61.8578C147.857 61.8578 157.373 59.0028 157.443 49.6426H148.077V45.5156V45.5158Z" fill="#1D2431"/>
<path d="M161.619 37.1108C151.977 37.1223 153.591 37.1434 143.949 37.1611L143.948 49.8835L139.797 49.8882L139.801 39.4367C139.799 36.5329 139.797 35.1603 140.913 34.0503C141.995 32.9749 143.173 32.9906 145.407 33.0203C154.53 33.1396 152.482 33.0109 161.619 33V37.111V37.1108Z" fill="#1D2431"/>
<path d="M226.938 63.9716C226.926 54.3299 226.905 46.8565 226.887 37.2146L217.506 37.2129L217.527 65.9873H213.416L213.391 33.0586L224.612 33.0663C227.516 33.0635 228.888 33.0624 229.998 34.1786C231.074 35.2601 231.058 36.4381 231.028 38.6724C230.909 47.7948 231.038 54.835 231.049 63.9714H226.938V63.9716Z" fill="#1D2431"/>
<path d="M114.086 33.1016H135.659V37.2286H118.215V66.0356H114.088C114.088 55.0568 114.086 44.0779 114.086 33.1016H114.086Z" fill="#1D2431"/>
<path d="M118.207 37.114C118.733 50.6845 123.341 56.8817 132.819 65.8562L135.656 62.8735C126.999 54.6762 122.8 49.4063 122.318 36.9688L118.207 37.114H118.207Z" fill="#1D2431"/>
<path d="M120.281 63.9748V59.8477H124.408V63.9748H120.281Z" fill="#1D2431"/>
<path d="M173.975 45.5158H187.474L187.468 49.6428C187.403 61.497 176.185 65.985 165.875 65.985L165.875 61.8578C173.756 61.8578 183.271 59.0028 183.341 49.6426H173.975V45.5156V45.5158Z" fill="#1D2431"/>
<path d="M187.513 37.1108C177.871 37.1223 179.486 37.1434 169.844 37.1611L169.842 49.8835L165.691 49.8882L165.696 39.4367C165.693 36.5329 165.692 35.1603 166.808 34.0503C167.889 32.9749 169.068 32.9906 171.302 33.0203C180.424 33.1396 178.377 33.0109 187.513 33V37.111V37.1108Z" fill="#1D2431"/>
<path d="M36.4486 37.1881C35.9227 50.7587 31.3147 56.9557 21.8373 65.9302L19 62.9477C27.6568 54.7504 31.856 49.4803 32.3378 37.043L36.4488 37.1881H36.4486Z" fill="#1D2431"/>
<path d="M25.615 48.7036L19.0938 34.751L22.8175 33.0098L29.339 46.9624L25.615 48.7036Z" fill="#1D2431"/>
</svg>
