<svg width="250" height="100" viewBox="0 0 250 100" fill="none" xmlns="http://www.w3.org/2000/svg">
<g style="mix-blend-mode:luminosity" opacity="0.7">
<g clip-path="url(#clip0_8840_44810)">
<path d="M96.7584 48.5428L97.2813 46.8677L95.5514 46.9219C95.4053 46.9219 94.3429 46.8918 93.3123 46.1439C93.3891 46.1514 93.4659 46.1619 93.5443 46.1619C94.6051 46.1619 95.6312 45.5226 96.0427 44.6088L96.7871 42.9578C95.8543 42.9699 95.0014 42.8523 95.0014 42.8523C94.9938 42.8507 94.3218 42.7648 93.5443 41.9701C92.9867 41.4002 92.2966 41.0985 91.5491 41.0985C91.2222 41.0985 90.9298 41.1573 90.6782 41.2373C90.7174 41.1031 90.755 40.9674 90.7763 40.8271C91.0142 39.2816 90.0198 38.1024 90.0198 38.104L88.7194 36.4921L87.9132 38.3859C87.9101 38.392 87.7067 38.8353 87.3421 39.0524C87.2321 38.496 86.9624 37.8703 86.3852 37.2716C85.2972 36.1437 83.9728 35.9764 83.2796 35.9764C82.9586 35.9764 82.7296 36.0111 82.6738 36.0201L81.1037 36.3293C81.1941 35.978 81.387 35.3672 81.7396 34.8168L82.6061 33.4659L80.4256 33.7146L79.7309 32.2384L78.3869 32.9321L77.1437 31.7031L75.9035 32.9321L74.5549 32.2384L73.8617 33.7146L71.6829 33.4659L72.5507 34.8168C72.9034 35.3672 73.0963 35.9764 73.1852 36.3277L71.6873 36.0322L71.6361 36.0232C71.5607 36.0111 71.3333 35.9764 71.0108 35.9764C70.3176 35.9764 68.9931 36.1452 67.9081 37.2716C67.3294 37.8688 67.0598 38.496 66.9483 39.0524C66.5867 38.8383 66.3847 38.401 66.3847 38.401L65.577 36.4966L64.2556 38.1191C64.0943 38.3286 63.2972 39.437 63.5141 40.8302C63.5368 40.9689 63.5729 41.1046 63.6121 41.2389C63.362 41.1589 63.0696 41.1001 62.7427 41.1001C61.9953 41.1001 61.3051 41.4017 60.7461 41.9717C59.9715 42.7633 59.3025 42.8523 59.3086 42.8523C59.3086 42.8523 58.6018 42.9789 57.5078 42.9592L58.2477 44.6104C58.6591 45.5257 59.6867 46.1635 60.7461 46.1635C60.826 46.1635 60.9028 46.1529 60.9812 46.1454C59.9535 46.8933 58.8911 46.9234 58.763 46.9249L57 46.8677L57.5334 48.5413C57.8017 49.4039 58.6982 50.8333 60.4161 50.987C60.2292 51.7712 59.8148 52.6488 58.9047 53.0272L57.5922 53.5685L58.3079 54.8155C58.7118 55.488 59.6596 56.2751 61.0097 56.2751C61.3021 56.2736 61.5838 56.2449 61.8551 56.1877C61.9245 56.4953 62.0118 56.8029 62.1143 57.1074C62.5166 58.3047 62.17 59.14 62.1655 59.1491L61.5176 60.5076L62.9642 60.8892C62.9823 60.8952 63.4192 61.0143 63.9662 61.0143C64.2149 61.0143 64.4514 60.9887 64.6745 60.936C64.8432 60.8967 65.0045 60.8439 65.1596 60.7806C65.3465 61.1168 65.574 61.4229 65.8393 61.6973C66.766 62.6488 68.0785 63.1313 69.742 63.1313H69.748L70.9355 63.1162L68.4822 64.1355L70.3448 65.0358C71.0213 65.366 71.8244 65.7564 72.6412 66.055L72.4091 66.6914L73.0511 66.9839C73.1083 67.0095 74.3424 67.5629 76.3948 67.6805C76.3948 67.6805 76.8906 67.7031 77.1632 67.7031C77.436 67.7031 77.9257 67.6791 77.9257 67.6791C79.9646 67.5584 81.1895 67.011 81.2469 66.9839L81.8902 66.6899L81.6552 66.0521C82.4961 65.7444 83.3278 65.3388 83.9757 65.0222L85.8036 64.134L83.3579 63.1133L84.5498 63.1284C86.215 63.1284 87.5289 62.6458 88.4541 61.6929C88.7178 61.4199 88.9454 61.1139 89.1338 60.7776C89.289 60.8409 89.4516 60.8937 89.6204 60.9329C89.8419 60.9856 90.0785 61.0113 90.3272 61.0113C90.865 61.0113 91.3066 60.8922 91.3186 60.8892L92.7713 60.5047L92.1384 59.1717C92.1233 59.137 91.7768 58.3032 92.1791 57.1044C92.2815 56.7983 92.3674 56.4908 92.4367 56.1846C92.7095 56.2419 92.9943 56.2721 93.2882 56.2721C95.0074 56.2721 95.8317 55.0613 95.9914 54.7989L96.6996 53.5655L95.3872 53.0257C94.4755 52.6472 94.0627 51.7681 93.8773 50.9856C95.571 50.8408 96.4811 49.4114 96.7584 48.5428ZM73.2996 36.9052L73.2816 36.9098L73.2967 36.8902L73.2996 36.9052Z" fill="white"/>
<path d="M77.1464 36.832C75.757 36.8335 74.7159 37.2889 74.4883 37.8242L77.1464 38.8737L79.8045 37.8242C79.5785 37.2889 78.5372 36.8335 77.1464 36.832Z" fill="white"/>
<path d="M77.1718 64.6134H77.1687H77.1461H77.1205H77.119C76.2766 64.6195 75.1179 64.446 74.5588 64.2832L73.8867 66.1032C74.3298 66.2616 75.8306 66.5631 77.1461 66.5631C78.4586 66.5631 79.9609 66.2601 80.4024 66.1032L79.7318 64.2832C79.1714 64.4475 78.014 64.6195 77.1718 64.6134Z" fill="white"/>
<path d="M82.2585 62.8047C81.7583 63.0882 80.6417 63.5134 79.9922 63.7109L80.5377 65.2142C81.5427 64.9397 82.3714 64.6186 83.0572 64.2748L81.9255 63.8978L82.2585 62.8047Z" fill="white"/>
<path d="M72.033 62.8047L72.3675 63.8978L71.2344 64.2748C71.9185 64.6186 72.7518 64.9397 73.7523 65.2142L74.2978 63.7109C73.6513 63.5134 72.5332 63.0866 72.033 62.8047Z" fill="white"/>
<path d="M77.147 35.0908C78.1943 35.0908 79.2219 35.3411 80.0115 35.7815C80.0839 35.5386 80.1848 35.2446 80.3219 34.937L80.0236 34.9732L79.7102 35.0064L79.5775 34.7214L79.1782 33.8771L78.4504 34.2569L78.1672 34.4017L77.9411 34.1786L77.15 33.3945L76.3604 34.1786L76.1344 34.4017L75.8511 34.2569L75.1188 33.8771L74.724 34.7214L74.5884 35.0064L74.2749 34.9732L73.9766 34.937C74.1138 35.2461 74.2132 35.5386 74.287 35.7815C75.0781 35.3411 76.1027 35.0908 77.147 35.0908Z" fill="white"/>
<path d="M93.1342 44.8498C93.2699 44.8965 93.4084 44.9176 93.5456 44.9176C94.1378 44.9176 94.7104 44.5347 94.9078 44.0958C94.9078 44.0958 93.8214 44.0295 92.6535 42.8428C92.2814 42.4583 91.8881 42.3438 91.5506 42.3438C91.0261 42.3438 90.6328 42.6212 90.6328 42.6212C92.0433 43.3721 92.331 44.5784 93.1342 44.8498Z" fill="white"/>
<path d="M60.7435 44.9176C60.8806 44.9176 61.0193 44.8965 61.1519 44.8498C61.958 44.5784 62.2474 43.3721 63.6578 42.6212C63.6578 42.6212 63.2629 42.3438 62.7416 42.3438C62.4026 42.3438 62.0093 42.4583 61.6355 42.8428C60.4693 44.0295 59.3828 44.0958 59.3828 44.0958C59.5772 44.5347 60.1513 44.9176 60.7435 44.9176Z" fill="white"/>
<path d="M93.5157 49.7529C93.5399 49.7544 93.5609 49.7544 93.5866 49.7544C95.0648 49.7544 95.5666 48.1695 95.5666 48.1695H95.5379C95.2668 48.1695 93.0682 48.1063 91.5146 46.1295C90.4915 44.8298 89.6536 43.6868 87.9975 43.2374L87.8349 43.2087L87.7987 43.0429C87.7535 42.7896 87.9268 42.5529 88.3201 42.2965C90.6045 40.7993 89.0539 38.8903 89.0539 38.8903C89.0539 38.8903 88.4014 40.4178 86.9413 40.4178C86.9066 40.4178 86.8689 40.4162 86.8328 40.4162C86.6671 40.4072 86.5073 40.4011 86.346 40.3665L86.0763 40.3137C86.0763 40.3137 86.4923 39.1813 85.4887 38.1409C84.7322 37.3553 83.8115 37.2227 83.2796 37.2227C83.0113 37.2227 82.8411 37.2573 82.8411 37.2573C83.3459 37.9177 83.7106 39.0124 83.1275 39.6879C82.6242 40.2684 81.3945 40.2971 81.3945 41.1626C81.3945 41.529 81.7366 41.9573 82.3514 42.3417C84.2003 43.5073 86.0357 45.0528 86.7981 47.1247C87.752 49.7091 86.6776 51.4236 85.1436 52.4067C85.1436 52.4067 85.6243 52.85 86.322 52.9058C86.4636 52.9194 86.6023 52.9254 86.7319 52.9254C88.2041 52.9254 88.965 52.2348 88.965 52.2348C88.965 52.2348 88.8399 53.1892 88.0729 54.0759C87.3662 54.8946 86.438 55.3757 85.023 55.3968C85.023 55.3968 84.9778 56.0541 85.6047 56.6226C86.0055 56.9815 86.9322 57.0991 86.9322 57.0991C86.9322 57.0991 85.1978 57.4504 85.0065 60.0138C84.9025 61.4025 84.5484 61.885 84.5484 61.885H84.5801C88.6048 61.885 88.5009 58.4306 88.5009 58.4306C88.5009 58.4306 88.7811 59.4528 89.9038 59.7198C90.0393 59.756 90.184 59.7696 90.3226 59.7696C90.6844 59.7696 90.9977 59.6851 90.9977 59.6851C90.9977 59.6851 90.4101 58.4442 90.9932 56.7086C91.4769 55.2686 91.3986 54.201 91.3986 54.201C91.3986 54.201 91.941 55.0213 93.2852 55.0289H93.2987C94.4184 55.0289 94.9065 54.18 94.9065 54.18C92.2228 53.0656 92.4881 49.4679 92.4881 49.4679C92.4881 49.4679 92.8362 49.7272 93.5157 49.7529ZM92.708 53.5104C91.617 52.9722 90.9269 51.5427 90.7597 51.027C90.5788 53.8617 89.1955 55.8295 87.5787 57.7233C86.7393 58.7049 86.4471 59.6594 86.4471 59.6594C86.4471 59.6594 86.6083 58.5783 87.3345 57.6978C88.843 55.8837 90.276 53.6265 90.383 51.0165C90.4568 49.1949 89.9882 47.7173 89.2574 46.5005C89.6657 47.7686 89.6085 49.3216 88.2206 50.7706C88.2206 50.7706 90.9827 47.4579 87.1206 44.0622C85.5746 42.7701 83.8839 41.9724 83.013 41.4069C86.1592 42.4338 87.6948 41.3028 87.6948 41.3028C86.6896 42.1743 85.3893 42.1593 84.583 42.0342C84.8015 42.1413 85.0291 42.2528 85.2747 42.384C87.9268 43.8255 90.3106 46.1973 90.7175 49.483V49.4573C91.3353 52.6826 92.708 53.5104 92.708 53.5104Z" fill="white"/>
<path d="M67.3569 57.0991C67.3569 57.0991 68.2837 56.983 68.6845 56.6226C69.3098 56.0541 69.2662 55.3968 69.2662 55.3968C67.8498 55.3771 66.923 54.8946 66.2118 54.0774C65.4508 53.1908 65.3242 52.2363 65.3242 52.2363C65.3242 52.2363 66.0851 52.9269 67.5559 52.9269C67.6885 52.9269 67.8256 52.9209 67.9672 52.9073C68.665 52.8515 69.1471 52.4082 69.1471 52.4082C67.6131 51.4251 66.5373 49.7091 67.4896 47.1247C68.2536 45.0543 70.0874 43.5073 71.9364 42.3417C72.5512 41.9573 72.8932 41.5305 72.8932 41.1626C72.8932 40.2971 71.6651 40.2684 71.1617 39.6879C70.5787 39.0124 70.9449 37.9162 71.4481 37.2573C71.4481 37.2573 71.2808 37.2227 71.0111 37.2227C70.4807 37.2227 69.56 37.3553 68.8036 38.1409C67.797 39.1813 68.2144 40.3137 68.2144 40.3137L67.9447 40.3665C67.7835 40.4011 67.6222 40.4072 67.4579 40.4162C67.4203 40.4162 67.3871 40.4178 67.351 40.4178C65.8878 40.4178 65.2384 38.8918 65.2384 38.8918C65.2384 38.8918 63.6878 40.8008 65.9707 42.298C66.364 42.5544 66.5358 42.7911 66.4906 43.0444L66.4543 43.2103L66.2886 43.239C64.6356 43.6883 63.7963 44.8312 62.7731 46.131C61.2226 48.1048 59.027 48.1695 58.7529 48.1695H58.7227C58.7227 48.1695 59.2245 49.7544 60.7027 49.7544C60.7268 49.7544 60.7479 49.7544 60.7735 49.7529C61.4531 49.7287 61.8027 49.4679 61.8027 49.4679C61.8027 49.4679 62.0649 53.064 59.3842 54.18C59.3842 54.18 59.8725 55.0289 60.992 55.0289H61.0056C62.3512 55.0213 62.8922 54.201 62.8922 54.201C62.8922 54.201 62.8138 55.2686 63.296 56.7086C63.8791 58.4442 63.2945 59.6851 63.2945 59.6851C63.2945 59.6851 63.6079 59.7696 63.968 59.7696C64.1082 59.7696 64.2514 59.756 64.3855 59.7198C65.5065 59.4528 65.7883 58.4306 65.7883 58.4306C65.7883 58.4306 65.6858 61.885 69.7107 61.885H69.7393C69.7393 61.885 69.3867 61.4025 69.2843 60.0138C69.0914 57.4504 67.3569 57.0991 67.3569 57.0991ZM66.7106 57.7233C65.0937 55.8295 63.7119 53.8617 63.5295 51.027C63.3623 51.5412 62.6752 52.9722 61.5843 53.5104C61.5843 53.5104 62.9554 52.6826 63.5718 49.4573V49.483C63.9802 46.1989 66.3625 43.8255 69.016 42.384C69.2586 42.2513 69.4891 42.1398 69.7062 42.0342C68.9 42.1593 67.5996 42.1743 66.5945 41.3028C66.5945 41.3028 68.13 42.4338 71.2748 41.4069C70.4039 41.9724 68.7146 42.7701 67.1686 44.0622C63.305 47.4579 66.0686 50.7706 66.0686 50.7706C64.6793 49.32 64.6236 47.7686 65.0319 46.5005C64.2996 47.7188 63.8324 49.1949 63.9078 51.0165C64.0132 53.6265 65.4462 55.8837 66.9516 57.6978C67.6795 58.5768 67.8437 59.6594 67.8437 59.6594C67.8437 59.6594 67.5483 58.7049 66.7106 57.7233Z" fill="white"/>
<path d="M74.1702 44.4694C74.2364 44.5402 74.3012 44.6173 74.3631 44.6941C74.3781 44.7122 74.3916 44.7288 74.4067 44.7499C74.464 44.8267 74.5228 44.9083 74.5786 44.9911C74.5906 45.0077 74.6027 45.0274 74.6162 45.0469C74.684 45.1495 74.7473 45.2551 74.8106 45.3637C75.3907 46.3663 76.3205 46.9649 77.1447 46.9664C77.9705 46.9649 78.8972 46.3663 79.4804 45.3637C79.5452 45.252 79.61 45.1435 79.6777 45.0424C79.6883 45.0274 79.6989 45.0138 79.7078 44.9987C79.7651 44.9128 79.8254 44.8283 79.8888 44.7469C79.9022 44.7288 79.9143 44.7137 79.9264 44.6986C79.9912 44.6187 80.0575 44.5403 80.1253 44.4679C80.1373 44.4559 80.1463 44.4453 80.1569 44.4363C80.4522 44.1332 80.8049 43.9024 81.2659 43.7743L81.061 43.6552H81.049L80.2322 43.1803L79.3929 42.6992L77.1507 43.9206L77.1447 43.916L77.1402 43.9206L74.8965 42.6992L74.0587 43.1787L73.2405 43.6537H73.2314L73.0234 43.7728C73.486 43.9009 73.8371 44.1286 74.134 44.4317C74.1475 44.4438 74.1566 44.4574 74.1702 44.4694ZM76.2375 44.3714H77.1869H78.1347V45.0228C77.9118 44.7499 77.4778 44.8057 77.4778 44.8057V45.7451C77.4778 45.7451 77.4943 46.2065 77.6555 46.407H77.1869H76.7167C76.881 46.208 76.8961 45.7451 76.8961 45.7451V44.8057C76.8961 44.8057 76.4636 44.7499 76.2375 45.0228V44.3714Z" fill="white"/>
<path d="M76.9495 43.1074V39.2941L74.5234 38.4707L75.1638 42.1665L76.9495 43.1074ZM76.4281 40.2305V40.8426L76.3106 40.7883C76.3045 40.7838 76.1328 40.7446 75.8314 40.5063C75.3341 40.1204 75.3251 39.7645 75.3251 39.7645L76.4281 40.2305Z" fill="white"/>
<path d="M79.127 42.1665L79.7644 38.4707L77.3398 39.2941V43.1074L79.127 42.1665ZM77.8613 40.2305L78.9642 39.766C78.9642 39.766 78.9552 40.1219 78.4564 40.5078C78.1566 40.7461 77.9833 40.7852 77.9772 40.7898L77.8596 40.844V40.2305H77.8613Z" fill="white"/>
<path d="M73.5212 51.9473C73.7578 52.0331 74.0441 52.0513 74.1903 52.0513C74.1964 52.0331 74.2038 52.0105 74.2114 51.9834C74.2249 51.9397 74.237 51.8975 74.2461 51.8492C74.2868 51.6382 74.3018 51.3984 74.3048 51.2446C74.2053 51.1827 74.0652 51.0726 73.9869 50.9083C73.8965 50.7183 73.7684 50.6309 73.58 50.6309C73.3359 50.6309 73.0737 50.7771 72.9622 50.8466C72.8734 51.3727 73.2605 51.8507 73.5212 51.9473Z" fill="white"/>
<path d="M78.8863 49.9238C78.4358 50.4139 77.5542 51.2674 77.5105 51.3111L77.4578 51.3654L74.6717 51.3216C74.6701 51.5976 74.6249 51.8328 74.5812 52.0047C74.5737 52.0334 74.5662 52.0635 74.5586 52.0937L77.8737 52.6893C78.2188 52.448 79.1681 51.7544 79.5358 51.483C79.2675 51.091 79.2419 50.6265 79.3021 50.2994C79.1274 50.1863 78.9933 50.0596 78.8863 49.9238Z" fill="white"/>
<path d="M79.2655 46.571C78.6235 47.2088 78.0073 47.444 77.4573 47.4983C77.3578 47.5089 77.2569 47.5148 77.1544 47.5148H77.1468H77.1408C77.0384 47.5148 76.9359 47.5089 76.8364 47.4983C76.74 47.4892 76.6391 47.4741 76.5381 47.4516C76.5019 47.5947 76.4567 47.8948 76.5863 48.1783C76.7023 48.4362 76.9389 48.6276 77.284 48.7544L77.4 48.7995L77.4015 48.9247C77.4015 48.9624 77.4286 49.7736 78.3131 49.9983C78.4578 49.849 78.5889 49.7148 78.6854 49.6032C78.5045 49.178 78.5994 48.7437 78.8616 48.5311C78.8496 48.5763 78.7351 49.641 79.588 50.0359L79.7281 50.1024L79.6859 50.2516C79.6723 50.2968 79.3875 51.3267 80.4197 51.7097L80.6021 51.7791L80.5207 51.957C80.5026 51.9962 80.0973 52.9311 81.0512 53.4618H83.12V51.8183C82.3847 51.7278 82.0727 51.1368 81.9929 50.7175C81.6509 50.6587 81.3857 50.511 81.2048 50.2697C80.7708 49.6982 81.1445 49.175 81.149 49.1463C81.1476 49.1509 81.149 49.7088 81.4926 50.0526C81.6629 50.2184 81.8649 50.3466 82.1707 50.3753L82.3214 50.3889L82.335 50.5427C82.3379 50.5758 82.4209 51.3297 83.1215 51.4488L83.12 48.0924C83.12 47.5722 83.2722 47.049 83.4546 46.5664H79.2655V46.571Z" fill="white"/>
<path d="M73.6963 48.1082L73.6406 50.2464L73.8831 50.2826L74.4769 48.2319L74.1755 47.6016L73.6963 48.1082Z" fill="white"/>
<path d="M80.2438 57.9146C80.2619 57.9146 80.283 57.9176 80.3026 57.9221C80.6718 58.0277 80.7652 59.3606 81.4131 59.4797C81.4764 59.4933 81.5352 59.4963 81.5864 59.4963C81.7733 59.4963 81.8848 59.4164 82.0053 59.2747C82.0053 59.2747 81.6798 58.762 81.4358 58.4168C81.1118 57.9644 80.8602 57.4169 80.2574 57.4169C80.2438 57.4169 80.2258 57.4169 80.2107 57.4186C80.0118 57.4291 79.8897 57.5255 79.8897 57.5255C79.6456 57.3718 79.4181 57.319 79.2116 57.319C78.8335 57.319 78.5396 57.4925 78.3934 57.4925H78.3874L77.0402 57.3598C76.8293 57.3401 76.6636 57.1275 76.6033 57.0446C76.5882 57.0219 76.5807 57.0084 76.5807 57.0084C76.5807 56.9722 76.5807 56.9345 76.5777 56.9013C76.5325 55.7991 75.6796 55.3271 75.3767 55.3196C75.3767 55.3196 75.4128 55.11 75.33 55.0301L75.0331 55.3904L74.0582 54.9004L74.7529 55.7132L74.1636 56.375C74.0898 56.4506 74.0989 56.5531 74.129 56.5952L74.3837 56.8199L74.7062 56.6239C74.7227 56.6119 74.7514 56.6088 74.7875 56.6088C74.8764 56.6088 75.0106 56.6314 75.1311 56.6314C75.2621 56.6314 75.3767 56.6027 75.3903 56.4791C75.3496 56.8877 74.9714 57.5979 75.22 58.1558L75.4039 58.5766L74.2134 58.4046L73.6558 59.3471C73.4841 59.6607 73.457 59.9999 73.6227 60.1839L73.8306 60.4448C73.8306 60.4448 74.123 60.1341 74.1893 59.9306L74.0943 59.8265C74.0145 59.7391 74.019 59.6607 74.0673 59.5658L74.4168 58.9851L75.8227 59.3169L75.8965 59.1902C75.9915 59.0319 76.1286 58.9836 76.2793 58.9836C76.3411 58.9836 76.4044 58.9912 76.4707 59.0018C76.7314 59.0531 77.1609 59.1224 77.5903 59.1224C78.0619 59.1224 78.5291 59.038 78.7776 58.7591C79.287 59.5145 80.3192 59.6351 80.2378 60.018L79.9666 61.3118C80.1459 61.3043 80.3192 61.2922 80.4834 61.2695L80.7411 59.923C80.7698 59.7767 80.7968 59.5792 80.7968 59.5792C80.6974 59.4782 80.4563 59.2641 80.3207 59.0048C80.1383 58.6549 80.2378 58.4725 80.0675 58.0171C80.0735 58.0202 80.1248 57.9146 80.2438 57.9146ZM74.9849 56.0237C74.9156 56.0222 74.8658 55.9634 74.8688 55.8941C74.8749 55.8278 74.9306 55.775 74.9984 55.781C75.0678 55.784 75.1175 55.8443 75.1145 55.9107C75.1084 55.977 75.0512 56.0283 74.9849 56.0237Z" fill="white"/>
<path d="M73.0628 59.1378C73.0628 59.1378 73.5284 58.9463 73.5705 58.809L73.5088 58.6537C73.4651 58.5527 73.4711 58.4426 73.5555 58.3824L74.0588 58.034L74.8996 58.1953C74.8996 58.1953 74.7474 58.0053 74.7625 57.7505L73.9609 57.5801L73.2044 58.0415C72.8804 58.2843 72.8563 58.6808 72.9633 58.916L73.0628 59.1378Z" fill="white"/>
<path d="M79.0078 61.3304C79.1585 61.3244 79.3242 61.3214 79.5066 61.3214C79.5066 61.3214 79.9391 60.0563 79.9631 60.0157C79.7206 59.9086 79.2172 59.6416 79.0229 59.5195C79.151 59.711 79.4629 59.9311 79.4011 60.1L79.0078 61.3304Z" fill="white"/>
<path d="M83.1219 53.8281H71.168V58.3275C71.168 60.1671 72.4986 61.3192 74.462 61.3192C76.103 61.3192 76.5353 61.3824 77.1457 61.9887C77.5661 61.5695 77.9143 61.4126 78.6285 61.3538L78.645 61.2845L79.0217 60.1189C79.0006 60.0933 78.3844 59.3922 78.3844 59.3922C78.1402 59.4736 77.9353 59.4872 77.5903 59.4872C77.2361 59.4872 76.8368 59.4464 76.4043 59.365C76.3606 59.3545 76.32 59.3514 76.2792 59.3514C76.2265 59.3514 76.222 59.3559 76.2085 59.3816L76.1331 59.5052L75.996 59.7314L75.7383 59.6726L74.5916 59.4027L74.4348 59.6621L74.4589 59.6891L74.5991 59.843L74.5374 60.0435C74.4529 60.3059 74.1787 60.6119 74.0958 60.6965L73.8095 61.0041L73.5489 60.6738L73.353 60.4281C73.1464 60.1974 73.0983 59.843 73.2143 59.4721C73.2112 59.475 73.2067 59.4765 73.2023 59.4765L72.8783 59.6108L72.732 59.2941L72.6296 59.0695C72.4534 58.6744 72.5181 58.0969 72.9929 57.7485L73.9166 57.2268L74.7951 57.4003C74.8161 57.3158 74.8477 57.0142 74.8733 56.9374C74.8568 56.9359 74.8403 56.9313 74.8236 56.9313L74.3173 57.1198L73.8291 56.7821C73.8291 56.7821 73.6377 56.598 73.811 56.4141L74.2841 55.6979L73.0862 54.193L74.9276 54.9501L75.0497 54.7977L75.2982 54.5007L75.5801 54.7691C75.6599 54.846 75.7051 54.9409 75.7277 55.0359C76.2355 55.2335 77.1441 55.817 77.224 56.7654L76.9393 56.88V56.8876C77.0041 56.9645 77.0583 56.9962 77.0748 56.9991L78.3889 57.1289C78.422 57.1228 78.4642 57.1077 78.5109 57.0942C78.6737 57.0384 78.9193 56.9585 79.2101 56.9585C79.4467 56.9585 79.6756 57.0127 79.8957 57.1153C79.9771 57.0852 80.0766 57.0625 80.1911 57.055L80.2543 57.0535C80.958 57.0535 81.3076 57.5796 81.588 57.999C81.6346 58.0712 81.6813 58.1406 81.7296 58.2084C81.9751 58.5553 82.2961 59.0634 82.3097 59.0846L82.4543 59.3108L82.2765 59.5173C82.1394 59.6756 81.9345 59.8611 81.5819 59.8611C81.5096 59.8611 81.4297 59.8535 81.3438 59.8369C81.2685 59.8234 81.2007 59.8007 81.1344 59.7736C81.1238 59.843 81.1103 59.9259 81.0966 59.9967L80.8661 61.2C82.2449 60.8608 83.1204 59.8188 83.1204 58.3291L83.1219 53.8281Z" fill="#FFDD2D"/>
<path d="M71.1674 53.4668H80.4632C79.999 52.9873 80.0051 52.3797 80.1242 51.9846C79.9885 51.9197 79.877 51.8412 79.7776 51.7569C79.4144 52.0252 78.3054 52.8335 78.0161 53.0355L77.9543 53.0778L74.3062 52.4173H74.2324C74.145 52.4173 74.0169 52.4142 73.8767 52.3977C73.8375 52.5621 73.696 52.6752 73.5331 52.6752C73.515 52.6752 73.494 52.6737 73.4744 52.6691C73.3794 52.6525 73.2967 52.6042 73.2409 52.5243C73.1836 52.446 73.161 52.3524 73.1776 52.256L73.1911 52.1775C72.8144 51.9122 72.4679 51.3195 72.6215 50.6953L72.6366 50.629L72.6894 50.5913C72.6969 50.5853 72.7601 50.5431 72.8536 50.4888L72.5884 50.448C72.4889 50.43 72.4227 50.3379 72.4378 50.24C72.4543 50.1405 72.5477 50.0695 72.6456 50.0892L73.277 50.1887L73.3343 47.9631L74.2746 46.9679L74.8607 48.2029L74.2414 50.344L74.799 50.4315C74.8969 50.4465 74.9647 50.5385 74.9497 50.6395C74.9346 50.7285 74.8593 50.7903 74.7703 50.7903C74.7612 50.7903 74.7507 50.7903 74.7417 50.7888L74.2881 50.715C74.2942 50.7285 74.3031 50.736 74.3092 50.751C74.3574 50.8506 74.4644 50.923 74.5277 50.9532L77.3094 50.9969C77.4269 50.8823 77.7193 50.5958 78.0191 50.2927C77.335 50.0334 77.0864 49.4423 77.0441 49.0502C76.6614 48.8874 76.3977 48.6432 76.2516 48.3249C76.0737 47.9315 76.137 47.5379 76.1837 47.3464C75.813 47.2107 75.4228 46.9635 75.025 46.5684H70.8359C71.0153 47.0508 71.1674 47.5741 71.1674 48.0943V53.4668Z" fill="#FFDD2D"/>
<path d="M74.9971 55.7798C74.9292 55.7737 74.872 55.8264 74.8675 55.8928C74.8629 55.9621 74.9142 56.0209 74.9835 56.0224C75.0497 56.0285 75.1086 55.9772 75.1145 55.9094C75.1145 55.843 75.0664 55.7813 74.9971 55.7798Z" fill="black"/>
<path d="M83.1057 63.9396L82.4171 63.6757L82.6069 62.9641L82.8164 62.1875C82.8164 62.1875 81.5958 62.8495 79.8765 63.3472C79.3883 63.4873 79.0191 63.5506 79.0191 63.5506V64.0783C79.0191 64.0783 78.1 64.2382 77.1702 64.2382H77.1596H77.1461H77.128H77.1174C76.1878 64.2382 75.2685 64.0783 75.2685 64.0783V63.5506C75.2685 63.5506 74.8978 63.4873 74.4111 63.3472C72.6918 62.8495 71.4728 62.1875 71.4728 62.1875L71.6791 62.9641L71.8735 63.6757L71.1834 63.9396L70.418 64.2261C71.2965 64.6498 72.5124 65.2681 73.6261 65.5726L73.3639 66.2904C73.3639 66.2904 74.7758 66.9342 77.128 66.9403V66.9418H77.1356H77.1461H77.1552H77.1611V66.9403C79.5164 66.9342 80.9268 66.2904 80.9268 66.2904L80.663 65.5726C81.7766 65.2681 82.9957 64.6498 83.8697 64.2261L83.1057 63.9396ZM71.2346 64.2744L72.3678 63.8975L72.0333 62.8042C72.532 63.0877 73.6517 63.5129 74.2996 63.7104L73.7526 65.2138C72.752 64.9379 71.9187 64.6167 71.2346 64.2744ZM77.1461 66.5633C75.8306 66.5633 74.3282 66.2602 73.8868 66.1035L74.5587 64.2834C75.1163 64.4463 76.2766 64.6197 77.1189 64.6136H77.1205H77.1461H77.1687H77.1717C78.0141 64.6197 79.1713 64.4463 79.7319 64.2834L80.4023 66.1035C79.9609 66.2617 78.4601 66.5633 77.1461 66.5633ZM80.5365 65.2138L79.9911 63.7104C80.6405 63.5129 81.757 63.0877 82.2573 62.8042L81.9243 63.8975L83.056 64.2744C82.3703 64.6167 81.5415 64.9379 80.5365 65.2138Z" fill="black"/>
<path d="M77.1463 35.5313C78.5477 35.5313 79.6687 35.9957 80.2881 36.4919C80.2881 36.4919 80.4719 35.3835 81.1003 34.405L79.9716 34.5331L79.381 33.2771L78.2463 33.8622L77.1463 32.7734L76.0493 33.8622L74.9132 33.2771L74.324 34.5331L73.1953 34.405C73.8236 35.3835 74.0075 36.4919 74.0075 36.4919C74.6283 35.9957 75.7464 35.5313 77.1463 35.5313ZM74.2727 34.9734L74.5861 35.0066L74.7218 34.7216L75.1165 33.8772L75.8489 34.2556L76.1322 34.4004L76.3582 34.1773L77.1478 33.3932L77.9389 34.1773L78.165 34.4004L78.4482 34.2556L79.1761 33.8772L79.5754 34.7216L79.708 35.0066L80.0214 34.9734L80.3197 34.9372C80.1826 35.2464 80.0816 35.5388 80.0092 35.7816C79.2197 35.3414 78.192 35.091 77.1448 35.091C76.1021 35.091 75.0759 35.3414 74.2832 35.7816C74.2095 35.5388 74.11 35.2448 73.9728 34.9372L74.2727 34.9734Z" fill="black"/>
<path d="M93.5882 50.2366C95.401 50.2366 96.0067 48.3911 96.0323 48.3126L96.2342 47.6627L95.5546 47.6838H95.5517C95.3121 47.6838 93.3125 47.631 91.8945 45.8277L91.7604 45.6603C90.8337 44.4812 89.9552 43.3608 88.385 42.8496C88.4303 42.809 88.4951 42.7577 88.584 42.7004C89.4173 42.1515 89.9024 41.485 90.0245 40.7115C90.2023 39.5475 89.461 38.6201 89.4278 38.5824L88.923 37.9582L88.6081 38.6985C88.587 38.7453 88.0565 39.9305 86.9415 39.9305H86.8586C86.7818 39.9259 86.7094 39.9229 86.6371 39.9168C86.6763 39.3876 86.5798 38.5688 85.8385 37.8013C84.9479 36.877 83.8539 36.7383 83.2814 36.7383C82.9754 36.7383 82.772 36.776 82.7509 36.779L81.9885 36.9298L82.4586 37.5495C82.8278 38.0275 83.1623 38.9097 82.7659 39.3711C82.6394 39.5173 82.3788 39.6364 82.1286 39.7555C81.6148 39.9922 80.9141 40.3209 80.9141 41.1594C80.9141 41.7022 81.3345 42.2691 82.0969 42.7516C84.3543 44.172 85.7465 45.6543 86.3478 47.2902C87.2775 49.8069 86.0645 51.2424 84.8861 51.9978L84.3572 52.3386L84.8199 52.7637C84.8816 52.8181 85.4482 53.3171 86.2845 53.3896C86.4427 53.4001 86.5949 53.4091 86.7366 53.4091C87.273 53.4091 87.7296 53.3247 88.1002 53.2115C87.9978 53.391 87.8727 53.5735 87.7145 53.7575C87.041 54.5385 86.2122 54.8944 85.0203 54.9125L84.5772 54.92L84.5426 55.3648C84.538 55.4538 84.505 56.2786 85.2854 56.9798C85.4045 57.0882 85.5492 57.1773 85.6998 57.2512C85.171 57.7277 84.6329 58.5569 84.5291 59.9789C84.4416 61.1655 84.1583 61.6043 84.1553 61.6088L83.6656 62.3567L84.5502 62.3688C86.0118 62.3688 87.1313 61.9647 87.9073 61.1655C88.3655 60.692 88.6277 60.1583 88.7829 59.6849C89.0376 59.9019 89.3661 60.0919 89.7939 60.1929C89.9567 60.2306 90.1346 60.2517 90.3259 60.2517C90.7388 60.2517 91.0839 60.1643 91.1231 60.1553L91.6881 60.0044L91.438 59.4767C91.4199 59.4345 90.9483 58.376 91.456 56.8651C91.6745 56.2122 91.786 55.6271 91.8402 55.1718C92.1959 55.3572 92.6721 55.511 93.2884 55.5125C94.6867 55.5125 95.303 54.4676 95.3317 54.4239L95.6074 53.9444L95.0966 53.7333C93.43 53.0412 93.0609 51.182 92.987 50.1748C93.1377 50.2035 93.3095 50.2306 93.5038 50.2366H93.5882ZM94.9097 54.1781C94.9097 54.1781 94.4215 55.0271 93.3019 55.0271H93.2884C91.9442 55.0195 91.4018 54.1992 91.4018 54.1992C91.4018 54.1992 91.4801 55.2668 90.995 56.7068C90.4118 58.4423 90.9994 59.6834 90.9994 59.6834C90.9994 59.6834 90.686 59.7677 90.3244 59.7677C90.1857 59.7677 90.0411 59.7542 89.9055 59.7179C88.7829 59.4511 88.5027 58.4288 88.5027 58.4288C88.5027 58.4288 88.6066 61.8833 84.5817 61.8833H84.5502C84.5502 61.8833 84.9042 61.4007 85.0097 60.0119C85.201 57.4487 86.9355 57.0974 86.9355 57.0974C86.9355 57.0974 86.0102 56.9813 85.6094 56.6209C84.9825 56.0524 85.0262 55.3949 85.0262 55.3949C86.4427 55.3754 87.3694 54.8929 88.0761 54.0741C88.8417 53.1875 88.9682 52.233 88.9682 52.233C88.9682 52.233 88.2072 52.9236 86.7351 52.9236C86.6055 52.9236 86.4668 52.9176 86.3252 52.904C85.629 52.8483 85.1468 52.4049 85.1468 52.4049C86.6792 51.4218 87.7552 49.7058 86.8014 47.1213C86.0374 45.0511 84.202 43.5041 82.3547 42.3385C81.7398 41.954 81.3977 41.5273 81.3977 41.1594C81.3977 40.2939 82.6274 40.2667 83.1322 39.6846C83.7138 39.0091 83.3491 37.913 82.8444 37.254C82.8444 37.254 83.0146 37.2193 83.2828 37.2193C83.8147 37.2193 84.7355 37.3535 85.4919 38.1376C86.497 39.178 86.0795 40.3104 86.0795 40.3104L86.3493 40.3632C86.5105 40.3979 86.6703 40.404 86.836 40.4115C86.8721 40.4115 86.9083 40.413 86.9445 40.413C88.4046 40.413 89.0572 38.8855 89.0572 38.8855C89.0572 38.8855 90.6092 40.796 88.3248 42.2917C87.9315 42.5481 87.7582 42.7848 87.8034 43.0381L87.8396 43.204L88.0023 43.2327C89.6584 43.682 90.4962 44.825 91.5193 46.1247C93.0729 48.1015 95.2714 48.1649 95.5426 48.1649H95.5713C95.5713 48.1649 95.0695 49.7496 93.5913 49.7496C93.5671 49.7496 93.546 49.7496 93.5204 49.7481C92.8409 49.7239 92.4928 49.4631 92.4928 49.4631C92.4928 49.4631 92.226 53.0623 94.9097 54.1781Z" fill="black"/>
<path d="M90.4033 43.0507C91.0798 43.411 91.4731 43.8935 91.8182 44.3217C92.1572 44.7394 92.4797 45.142 92.9829 45.3094C93.1622 45.3712 93.3521 45.3999 93.545 45.3999C94.3014 45.3999 95.0609 44.9369 95.3487 44.2961L95.638 43.6538L94.9374 43.6115C94.9042 43.61 94.0031 43.5286 92.9996 42.5018C92.5866 42.0812 92.0879 41.8594 91.5499 41.8594C90.893 41.8594 90.4062 42.1881 90.352 42.2213L89.707 42.6752L90.4033 43.0507ZM91.5514 42.345C91.8889 42.345 92.2822 42.4595 92.6545 42.844C93.8222 44.0308 94.9087 44.0971 94.9087 44.0971C94.7113 44.5343 94.1387 44.9188 93.5465 44.9188C93.4094 44.9188 93.2722 44.8978 93.1351 44.8511C92.332 44.5796 92.0441 43.3733 90.6322 42.6224C90.6322 42.6224 91.0271 42.345 91.5514 42.345Z" fill="black"/>
<path d="M90.7202 49.4567V49.481C90.3134 46.1969 87.9295 43.825 85.2774 42.382C85.0319 42.2507 84.8058 42.1392 84.5858 42.0321C85.3935 42.1573 86.6939 42.1724 87.6974 41.3008C87.6974 41.3008 86.1619 42.4317 83.0156 41.4049C83.8867 41.9703 85.5788 42.768 87.1233 44.0602C90.9855 47.4558 88.2218 50.7686 88.2218 50.7686C89.6097 49.3196 89.6669 47.7665 89.2586 46.4984C89.9894 47.7152 90.4565 49.1929 90.3841 51.0144C90.2773 53.6245 88.8442 55.8818 87.3357 57.6957C86.611 58.5763 86.4483 59.6574 86.4483 59.6574C86.4483 59.6574 86.7406 58.703 87.5799 57.7213C89.1968 55.8275 90.5785 53.8597 90.7594 51.0249C90.9266 51.5392 91.6153 52.9701 92.7077 53.5084C92.7107 53.5099 91.338 52.6821 90.7202 49.4567Z" fill="black"/>
<path d="M70.1381 61.6088C70.1366 61.6043 69.8563 61.1655 69.766 59.9787C69.6605 58.5569 69.124 57.7275 68.5936 57.2511C68.7473 57.1787 68.8889 57.0897 69.008 56.9797C69.7871 56.2785 69.7538 55.4538 69.7493 55.3648L69.7192 54.92L69.2732 54.9124C68.0843 54.8928 67.2539 54.537 66.5804 53.7573C66.4237 53.5734 66.2972 53.391 66.1947 53.2116C66.5653 53.3246 67.0189 53.4091 67.5568 53.4091C67.7016 53.4091 67.8507 53.4 68.0089 53.3895C68.8452 53.3171 69.4118 52.8195 69.4751 52.7637L69.9377 52.3386L69.4088 51.9977C68.2259 51.2408 67.0174 49.8053 67.9456 47.2902C68.5468 45.6542 69.9377 44.172 72.198 42.7515C72.9605 42.269 73.3778 41.7021 73.3778 41.1593C73.3778 40.3209 72.6787 39.9907 72.1648 39.7554C71.9147 39.6363 71.654 39.5172 71.5275 39.371C71.1296 38.911 71.4656 38.0275 71.8333 37.5494L72.3065 36.9298L71.541 36.7789C71.5184 36.776 71.318 36.7383 71.0106 36.7383C70.4379 36.7383 69.347 36.877 68.4549 37.8013C67.7121 38.5703 67.6142 39.3891 67.6518 39.9168C67.5795 39.9228 67.5072 39.9259 67.4318 39.9303H67.3505C66.2324 39.9303 65.7035 38.7452 65.6824 38.6984L65.3674 37.9581L64.8581 38.5823C64.8295 38.6201 64.0851 39.5489 64.2659 40.7115C64.3864 41.4849 64.8716 42.1514 65.7049 42.7003C65.7953 42.7576 65.8586 42.8088 65.9038 42.8496C64.3352 43.3607 63.4582 44.4826 62.5315 45.6617L62.3973 45.8291C60.981 47.6325 58.9768 47.6853 58.7372 47.6853L58.0547 47.6642L58.2626 48.314C58.2867 48.3924 58.8909 50.238 60.7051 50.238L60.7926 50.2351C60.9839 50.229 61.1558 50.2034 61.3095 50.1732C61.2341 51.1789 60.8649 53.0382 59.1968 53.7318L58.6875 53.9429L58.9633 54.4223C58.9904 54.4661 59.6082 55.5111 61.0095 55.5111C61.6214 55.5095 62.0975 55.3557 62.4547 55.1703C62.5089 55.6256 62.6204 56.2107 62.8389 56.8635C63.3467 58.3744 62.8736 59.4329 62.8555 59.4752L62.6053 60.003L63.172 60.1537C63.2096 60.1627 63.5577 60.2502 63.969 60.2502C64.1619 60.2502 64.3398 60.2291 64.4995 60.1914C64.929 60.0903 65.2604 59.9004 65.512 59.6832C65.6657 60.1566 65.9295 60.6905 66.3861 61.164C67.1635 61.9631 68.2816 62.3672 69.7433 62.3672L70.6294 62.3552L70.1381 61.6088ZM69.7101 61.8847C65.6853 61.8847 65.7879 58.4302 65.7879 58.4302C65.7879 58.4302 65.5076 59.4525 64.385 59.7195C64.2508 59.7556 64.1077 59.7693 63.9675 59.7693C63.6059 59.7693 63.294 59.6847 63.294 59.6847C63.294 59.6847 63.8786 58.4438 63.2954 56.7083C62.8133 55.2682 62.8917 54.2007 62.8917 54.2007C62.8917 54.2007 62.3507 55.021 61.0051 55.0285H60.9915C59.8719 55.0285 59.3837 54.1796 59.3837 54.1796C62.0659 53.0653 61.8022 49.4676 61.8022 49.4676C61.8022 49.4676 61.4542 49.7269 60.773 49.7526C60.7489 49.7541 60.7263 49.7541 60.7022 49.7541C59.2224 49.7541 58.7222 48.1693 58.7222 48.1693H58.7523C59.0251 48.1693 61.2206 48.1059 62.7741 46.1292C63.7973 44.8294 64.6366 43.6879 66.2896 43.2372L66.4553 43.2085L66.4916 43.0426C66.5368 42.7893 66.3649 42.5526 65.9717 42.2962C63.6873 40.7989 65.2393 38.8899 65.2393 38.8899C65.2393 38.8899 65.8888 40.416 67.3519 40.416C67.3881 40.416 67.4213 40.4144 67.4589 40.4144C67.6231 40.4053 67.7859 40.3993 67.9456 40.3647L68.2154 40.3119C68.2154 40.3119 67.7979 39.1795 68.8045 38.1391C69.561 37.3535 70.4817 37.2208 71.012 37.2208C71.2818 37.2208 71.4491 37.2554 71.4491 37.2554C70.9458 37.9158 70.5812 39.0106 71.1627 39.6861C71.666 40.2666 72.8941 40.2953 72.8941 41.1608C72.8941 41.5272 72.5521 41.9555 71.9374 42.3399C70.0883 43.5055 68.2531 45.0525 67.4906 47.1228C66.5383 49.7073 67.6126 51.4217 69.1481 52.4064C69.1481 52.4064 68.6659 52.8496 67.9683 52.9055C67.8266 52.9191 67.6895 52.9251 67.5568 52.9251C66.0862 52.9251 65.3252 52.2344 65.3252 52.2344C65.3252 52.2344 65.4517 53.189 66.2128 54.0756C66.924 54.8943 67.8507 55.3768 69.2672 55.3965C69.2672 55.3965 69.3124 56.0539 68.6855 56.6222C68.2832 56.9811 67.3579 57.0987 67.3579 57.0987C67.3579 57.0987 69.0939 57.4501 69.2837 60.0135C69.3877 61.4021 69.7388 61.8847 69.7388 61.8847H69.7101Z" fill="black"/>
<path d="M60.7463 45.4003C60.9407 45.4003 61.1305 45.3716 61.3098 45.3097C61.8161 45.1424 62.1371 44.7398 62.4761 44.3221C62.8227 43.8938 63.213 43.4114 63.8895 43.051L64.5857 42.677L63.9392 42.2231C63.885 42.1885 63.3998 41.8613 62.7443 41.8613C62.2049 41.8613 61.7046 42.0815 61.2932 42.5036C60.2897 43.529 59.3901 43.6118 59.3569 43.6134L58.6562 43.6541L58.9441 44.2979C59.2333 44.9357 59.9913 45.4003 60.7463 45.4003ZM61.6383 42.8444C62.012 42.4598 62.4053 42.3453 62.7443 42.3453C63.2657 42.3453 63.6605 42.6227 63.6605 42.6227C62.2501 43.3751 61.9608 44.58 61.1546 44.8514C61.022 44.8981 60.8834 44.9192 60.7463 44.9192C60.1541 44.9192 59.5814 44.5362 59.3856 44.0975C59.3856 44.096 60.4705 44.0295 61.6383 42.8444Z" fill="black"/>
<path d="M63.9071 51.0164C63.8318 49.1948 64.299 47.7171 65.0312 46.5003C64.6229 47.7684 64.6787 49.3215 66.068 50.7706C66.068 50.7706 63.3044 47.4578 67.1679 44.0621C68.714 42.7699 70.4047 41.9722 71.2742 41.4068C68.1294 42.4336 66.5938 41.3027 66.5938 41.3027C67.5974 42.1743 68.8979 42.1592 69.7056 42.0326C69.4871 42.1396 69.258 42.2512 69.0153 42.3824C66.3603 43.8254 63.9779 46.1972 63.5696 49.4813V49.4558C62.9533 52.6811 61.582 53.5088 61.582 53.5088C62.673 52.9705 63.3602 51.5411 63.5274 51.0254C63.7098 53.8602 65.0915 55.8279 66.7084 57.7218C67.5477 58.7033 67.8431 59.6579 67.8431 59.6579C67.8431 59.6579 67.6788 58.5767 66.951 57.6961C65.4456 55.8852 64.0126 53.6264 63.9071 51.0164Z" fill="black"/>
<path d="M76.2383 44.3711V45.0225C76.4628 44.7495 76.8968 44.8054 76.8968 44.8054V45.7448C76.8968 45.7448 76.8817 46.2062 76.7175 46.4067H77.1876H77.6562C77.4951 46.2077 77.4784 45.7448 77.4784 45.7448V44.8054C77.4784 44.8054 77.9124 44.7495 78.1354 45.0225V44.3711H77.1876H76.2383Z" fill="black"/>
<path d="M75.8344 40.5074C76.1342 40.7458 76.3075 40.785 76.3136 40.7895L76.4311 40.8438V40.23L75.3281 39.7656C75.3281 39.7671 75.3386 40.1214 75.8344 40.5074Z" fill="black"/>
<path d="M78.4545 40.5074C78.9533 40.1214 78.9623 39.7656 78.9623 39.7656L77.8594 40.23V40.8438L77.9753 40.7895C77.9829 40.785 78.1547 40.7458 78.4545 40.5074Z" fill="black"/>
<path d="M80.4435 38.0094C80.4435 37.079 78.8779 36.2422 77.1495 36.2422H77.148H77.1435H77.139C75.4106 36.2422 73.845 37.079 73.845 38.0094L73.8797 38.2385L74.5698 42.2027L73.8767 42.6053L72.0835 43.6533H72.0896C72.0896 43.6533 71.6857 43.8598 71.4988 43.988C70.8163 44.463 70.6716 45.1551 71.0679 45.4416C71.1659 44.8776 71.6119 44.2866 72.4466 44.2866C73.0479 44.2866 73.506 44.5971 73.8767 45.0631C73.9716 45.1807 74.062 45.3059 74.1464 45.4416C74.2503 45.6119 74.3543 45.7613 74.4583 45.906H69.8398C70.1789 46.5891 70.5013 47.3129 70.5013 48.0984V58.3277C70.5013 60.8036 72.4045 61.9857 74.4628 61.9857C76.0541 61.9857 76.2681 61.9134 77.1466 62.7879C78.0205 61.9119 78.2345 61.9857 79.8273 61.9857C81.8871 61.9857 83.7873 60.8036 83.7873 58.3277V48.0984C83.7873 47.3129 84.1098 46.5891 84.4503 45.906H79.8303C79.9327 45.7627 80.0367 45.6119 80.1406 45.4416C80.2266 45.3059 80.3154 45.1807 80.4089 45.0631C80.7826 44.5957 81.2391 44.2866 81.8404 44.2866C82.6752 44.2866 83.1197 44.8761 83.2192 45.4416C83.6155 45.1551 83.4723 44.463 82.7852 43.988C82.6014 43.8598 82.1974 43.6533 82.1974 43.6533H82.2036L80.4104 42.6053L79.7203 42.2027L80.4104 38.2385L80.4435 38.0094ZM74.5245 38.4708L76.9506 39.294V43.1074L75.1651 42.165L74.5245 38.4708ZM75.0264 46.5709C75.4243 46.9674 75.8145 47.2133 76.1851 47.349C76.1369 47.5405 76.0737 47.9356 76.253 48.3291C76.3991 48.6457 76.6643 48.8901 77.0455 49.0529C77.0878 49.445 77.3349 50.0345 78.0205 50.2954C77.7207 50.5984 77.4283 50.8834 77.3093 50.9995L74.5291 50.9558C74.4659 50.9241 74.3588 50.8533 74.3107 50.7522C74.3046 50.7387 74.2956 50.7311 74.2911 50.716L74.7446 50.7899C74.7552 50.7914 74.7641 50.7914 74.7732 50.7914C74.8607 50.7914 74.9375 50.7311 74.9526 50.6406C74.9676 50.5396 74.8998 50.4476 74.8019 50.4325L74.2444 50.3451L74.8637 48.2054L74.2775 46.9705L73.3373 47.9658L73.2799 50.1912L72.6486 50.0918C72.5506 50.0721 72.4572 50.1446 72.4407 50.2425C72.4256 50.3406 72.4918 50.4325 72.5913 50.4507L72.8565 50.4913C72.7616 50.5457 72.6999 50.5878 72.6923 50.5938L72.638 50.6316L72.6229 50.698C72.4693 51.3222 72.8173 51.9148 73.1926 52.1802L73.179 52.2585C73.1639 52.3551 73.185 52.4485 73.2423 52.527C73.2965 52.6069 73.3809 52.6551 73.4743 52.6717C73.494 52.6747 73.515 52.6762 73.5331 52.6762C73.6958 52.6762 73.8375 52.5631 73.8782 52.3989C74.0183 52.4154 74.1464 52.4184 74.2338 52.4184H74.3077L77.9558 53.0773L78.0175 53.0367C78.3083 52.833 79.4159 52.0249 79.779 51.7579C79.8784 51.8439 79.9899 51.9224 80.1256 51.9871C80.008 52.3821 80.0005 52.9899 80.4662 53.4694H71.1689V48.0999C71.1689 47.5797 71.0167 47.0565 70.8374 46.574H75.0264V46.5709ZM79.5349 51.4836C79.1657 51.755 78.2164 52.4485 77.8729 52.6898L74.5578 52.0942C74.5654 52.0641 74.5728 52.0354 74.5804 52.0053C74.624 51.8333 74.6678 51.5981 74.6708 51.3222L77.457 51.3675L77.5097 51.3131C77.5519 51.2709 78.435 50.4174 78.8855 49.9259C78.9924 50.0601 79.1265 50.1883 79.3013 50.3013C79.241 50.6271 79.2667 51.0915 79.5349 51.4836ZM73.9852 50.909C74.0635 51.0734 74.2051 51.1835 74.3031 51.2453C74.3001 51.399 74.285 51.6388 74.2444 51.8499C74.2353 51.8967 74.2233 51.9404 74.2096 51.9841C74.2022 52.0113 74.1946 52.0339 74.1886 52.052C74.0424 52.052 73.7546 52.0339 73.5195 51.948C73.2589 51.8514 72.8701 51.3735 72.9605 50.8473C73.0735 50.7778 73.3342 50.6316 73.5784 50.6316C73.7667 50.6301 73.8947 50.719 73.9852 50.909ZM73.6401 50.2471L73.6958 48.1104L74.175 47.6023L74.4764 48.2326L73.8827 50.2833L73.6401 50.2471ZM79.5048 61.3238C79.3239 61.3238 79.1567 61.3268 79.006 61.3329L79.4008 60.1039C79.4626 59.9335 79.1506 59.7149 79.0225 59.5234C79.2169 59.6456 79.7203 59.9124 79.9629 60.0195C79.9373 60.0587 79.5048 61.3238 79.5048 61.3238ZM80.7434 59.9275L80.4858 61.2726C80.3215 61.2951 80.1467 61.3071 79.9674 61.3147L80.2386 60.021C80.32 59.6364 79.2878 59.5173 78.7785 58.7619C78.5298 59.0424 78.0612 59.1254 77.5911 59.1254C77.1616 59.1254 76.7322 59.0559 76.4714 59.0047C76.4052 58.9942 76.3419 58.9866 76.2801 58.9866C76.1294 58.9866 75.9922 59.0334 75.8974 59.1932L75.822 59.3199L74.4162 58.9881L74.0666 59.5671C74.0168 59.6607 74.0138 59.7406 74.0937 59.8279L74.1886 59.9321C74.1238 60.1371 73.8315 60.4462 73.8315 60.4462L73.6221 60.1853C73.4562 59.9999 73.4834 59.6622 73.6567 59.3485L74.2142 58.4061L75.4047 58.578L75.2193 58.1558C74.9707 57.5979 75.3489 56.8877 75.3896 56.479C75.376 56.6027 75.2629 56.6298 75.1304 56.6298C75.0099 56.6298 74.8757 56.6072 74.7868 56.6072C74.7522 56.6072 74.722 56.6102 74.7055 56.6223L74.383 56.8183L74.1283 56.5936C74.0981 56.5499 74.0876 56.4489 74.1629 56.3735L74.7522 55.713L74.0561 54.9003L75.0309 55.3904L75.3277 55.03C75.4092 55.11 75.3745 55.3195 75.3745 55.3195C75.6789 55.327 76.5317 55.7991 76.577 56.8998C76.58 56.9328 76.58 56.9706 76.58 57.0067C76.58 57.0067 76.5876 57.0204 76.6026 57.0429C76.6629 57.126 76.8286 57.3385 77.0395 57.3581L78.3867 57.4908H78.3926C78.5404 57.4908 78.8342 57.3174 79.2109 57.3174C79.4159 57.3174 79.6449 57.3702 79.889 57.524C79.889 57.524 80.011 57.4275 80.21 57.4169C80.225 57.4154 80.2417 57.4154 80.2567 57.4154C80.861 57.4154 81.1111 57.9613 81.4351 58.4151C81.6792 58.7604 82.0047 59.2731 82.0047 59.2731C81.8841 59.4163 81.7725 59.4948 81.5857 59.4948C81.5346 59.4948 81.4757 59.4902 81.4124 59.4782C80.7645 59.359 80.6711 58.0261 80.3019 57.9205C80.2823 57.9145 80.2613 57.913 80.2432 57.913C80.1241 57.913 80.0714 58.0186 80.0714 58.0186C80.24 58.4724 80.1422 58.6564 80.323 59.0062C80.4586 59.2656 80.6997 59.4797 80.7992 59.5807C80.7992 59.5837 80.7721 59.7798 80.7434 59.9275ZM73.509 58.6548L73.5708 58.8102C73.5301 58.9459 73.063 59.1389 73.063 59.1389L72.962 58.9187C72.855 58.6835 72.8776 58.287 73.2031 58.0442L73.9595 57.5828L74.7612 57.7531C74.7461 58.008 74.8983 58.198 74.8983 58.198L74.0575 58.0367L73.5542 58.385C73.4698 58.4438 73.4638 58.5539 73.509 58.6548ZM80.87 61.1987L81.1006 59.9953C81.1126 59.9245 81.1276 59.8416 81.1382 59.7722C81.203 59.7994 81.2723 59.822 81.3476 59.8356C81.4335 59.8521 81.5134 59.8596 81.5857 59.8596C81.9384 59.8596 82.1433 59.6742 82.2804 59.5158L82.4583 59.3093L82.3136 59.0832C82.3 59.0605 81.9806 58.5539 81.7334 58.207C81.6852 58.1392 81.6384 58.0713 81.5918 57.9975C81.3115 57.5782 80.9604 57.0521 80.2567 57.0521L80.1934 57.0536C80.0774 57.0611 79.978 57.0837 79.8981 57.1138C79.6765 57.0098 79.449 56.9571 79.2124 56.9571C78.9216 56.9571 78.676 57.037 78.5132 57.0927C78.4665 57.1063 78.4244 57.1214 78.3912 57.1275L77.0757 56.9977C77.0592 56.9948 77.0049 56.9631 76.9401 56.8847V56.8786L77.2249 56.764C77.145 55.8156 76.2349 55.2321 75.7271 55.0345C75.7045 54.9395 75.6593 54.8445 75.5795 54.7677L75.2962 54.4992L75.0475 54.7978L74.9255 54.9501L73.0841 54.1931L74.282 55.698L73.8089 56.4142C73.6356 56.5982 73.827 56.7822 73.827 56.7822L74.3151 57.1184L74.8215 56.9299C74.8395 56.9299 74.8546 56.9345 74.8712 56.9359C74.8471 57.0128 74.8155 57.3144 74.7943 57.3988L73.9158 57.2254L72.9921 57.7472C72.5175 58.0955 72.4527 58.673 72.629 59.0681L72.7314 59.2926L72.8776 59.6094L73.2001 59.4751C73.2046 59.4736 73.2092 59.4721 73.2121 59.4692C73.0961 59.8401 73.1429 60.1929 73.3507 60.4251L73.5466 60.6724L73.8074 61.0026L74.0937 60.695C74.1781 60.6105 74.4508 60.3045 74.5352 60.0421L74.5969 59.8415L74.4568 59.6877L74.4342 59.6607L74.591 59.4012L75.7376 59.6712L75.9953 59.73L76.1324 59.5038L76.2078 59.3801C76.2213 59.3545 76.2258 59.3499 76.2786 59.3499C76.3193 59.3499 76.3599 59.3545 76.4037 59.3636C76.8361 59.445 77.2354 59.4858 77.5895 59.4858C77.9331 59.4858 78.138 59.4721 78.3836 59.3907C78.3836 59.3907 79 60.0903 79.021 60.1175L78.6444 61.2816L78.6278 61.3524C77.9135 61.4097 77.5655 61.5666 77.145 61.9872C76.5348 61.381 76.1022 61.3178 74.4614 61.3178C72.4979 61.3178 71.1674 60.1658 71.1674 58.3262V53.8283H83.1197L83.1228 58.3262C83.1242 59.8189 82.2488 60.8593 80.87 61.1987ZM83.4542 46.5709C83.272 47.0535 83.1197 47.5767 83.1197 48.0969L83.1213 51.4534C82.4205 51.3358 82.3377 50.5803 82.3346 50.5472L82.3211 50.3934L82.1704 50.3798C81.866 50.3511 81.6641 50.2214 81.4938 50.0556C81.1503 49.7118 81.1487 49.1539 81.1503 49.1493C81.1458 49.178 80.7721 49.7012 81.206 50.2727C81.3883 50.514 81.652 50.6618 81.9941 50.7206C82.074 51.1398 82.3859 51.7308 83.1213 51.8213V53.4648H81.0538C80.0999 52.9341 80.5038 51.9992 80.5234 51.96L80.6048 51.7821L80.4224 51.7127C79.3902 51.3297 79.6736 50.2983 79.6886 50.2546L79.7308 50.1038L79.5907 50.0375C78.7377 49.6424 78.8538 48.5764 78.8644 48.5327C78.6022 48.7452 78.5072 49.1795 78.688 49.6047C78.5901 49.7163 78.4591 49.852 78.3159 49.9998C77.4328 49.7752 77.4058 48.9624 77.4058 48.9248L77.4042 48.7995L77.2882 48.7543C76.9431 48.6261 76.7065 48.4347 76.5905 48.1767C76.4595 47.8919 76.5061 47.5933 76.5423 47.45C76.6433 47.4726 76.7442 47.4893 76.8406 47.4968C76.9401 47.5073 77.0426 47.5134 77.145 47.5134H77.1511H77.1586C77.2611 47.5134 77.3621 47.5073 77.4615 47.4968C78.0115 47.4425 78.6278 47.2058 79.2697 46.5694H83.4542V46.5709ZM80.2326 43.1782L81.0493 43.6533H81.0613L81.2663 43.7724C80.8052 43.9005 80.4526 44.1312 80.1573 44.4343C80.1467 44.4434 80.1362 44.4555 80.1256 44.466C80.0578 44.5383 79.9899 44.6168 79.9267 44.6967C79.9146 44.7118 79.9026 44.7284 79.889 44.745C79.8257 44.8263 79.767 44.9094 79.7097 44.9967C79.7007 45.0119 79.6901 45.027 79.6796 45.0405C79.6117 45.1415 79.547 45.2501 79.4822 45.3616C78.9005 46.3644 77.9723 46.963 77.1466 46.9645C76.3223 46.963 75.3941 46.3644 74.8124 45.3616C74.7491 45.253 74.6859 45.1476 74.618 45.045C74.6045 45.0254 74.5924 45.0058 74.5804 44.9892C74.5231 44.9063 74.4659 44.8248 74.4071 44.748C74.392 44.7269 74.3784 44.7102 74.3634 44.6922C74.3001 44.6152 74.2353 44.5383 74.1705 44.4675C74.157 44.457 74.1479 44.4434 74.1343 44.4313C73.8375 44.1282 73.4864 43.899 73.0238 43.7724L73.2317 43.6533H73.2407L74.0575 43.1782L74.8968 42.6973L77.139 43.9186L77.1435 43.9141L77.1495 43.9186L79.3917 42.6973L80.2326 43.1782ZM79.1265 42.1665L77.3394 43.1089V39.294L79.764 38.4708L79.1265 42.1665ZM77.145 38.8749L74.4869 37.8239C74.713 37.2887 75.7557 36.8332 77.145 36.8317C78.5359 36.8332 79.5786 37.2887 79.8031 37.8239L77.145 38.8749Z" fill="black"/>
<path d="M110.061 54.8327V48.795H113.6V46.598H103.945V48.795H107.484V54.8327H110.061ZM117.123 51.39V46.598H114.632V54.8327H116.831L121.126 50.0406V54.8327H123.617V46.598H121.418L117.123 51.39ZM131.997 51.7706V54.8327H134.489V46.598H131.997V49.6081H127.994V46.598H125.503V54.8327H127.994V51.7706H131.997ZM141.426 54.8327C141.993 54.8327 142.508 54.7808 142.989 54.6424C144.278 54.2792 145.119 53.2238 145.119 51.7879C145.119 50.4212 144.398 49.4698 143.248 49.0372C142.696 48.8297 142.045 48.8123 141.426 48.8123H138.866V46.598H136.375V54.8327H141.426ZM140.996 50.75C141.34 50.75 141.666 50.75 141.958 50.8538C142.371 50.9921 142.612 51.3381 142.612 51.7533C142.612 52.1858 142.371 52.5491 141.975 52.7221C141.701 52.8432 141.426 52.8432 140.996 52.8432H138.866V50.75H140.996ZM149.586 51.7187L152.558 54.8327H155.873L151.734 50.5423L155.719 46.598H152.593L149.586 49.6946H148.899V46.598H146.409V54.8327H148.899V51.7187H149.586ZM160.999 46.3731C157.649 46.3731 155.64 48.276 155.64 50.7326C155.64 53.1893 157.649 55.0922 160.999 55.0922C164.333 55.0922 166.343 53.1893 166.343 50.7326C166.343 48.276 164.333 46.3731 160.999 46.3731ZM160.999 53.0855C159.333 53.0855 158.269 52.082 158.269 50.7326C158.269 49.3833 159.333 48.3971 160.999 48.3971C162.649 48.3971 163.731 49.3833 163.731 50.7326C163.731 52.082 162.649 53.0855 160.999 53.0855ZM174.639 46.1309H172.148V46.9612C169.021 47.0304 167.148 48.3625 167.148 50.7153C167.148 53.0681 169.021 54.2964 172.148 54.3656V55.196H174.639V54.3656C177.782 54.2964 179.656 53.0681 179.656 50.7153C179.656 48.3625 177.782 47.0304 174.639 46.9612V46.1309ZM172.148 52.601C170.43 52.5318 169.674 51.8225 169.674 50.7153C169.674 49.6081 170.43 48.8123 172.148 48.7432V52.601ZM174.639 48.7432C176.375 48.8123 177.113 49.6081 177.113 50.7153C177.113 51.8225 176.375 52.5318 174.639 52.601V48.7432ZM187.943 46.1309H185.452V46.9612C182.325 47.0304 180.453 48.3625 180.453 50.7153C180.453 53.0681 182.325 54.2964 185.452 54.3656V55.196H187.943V54.3656C191.087 54.2964 192.96 53.0681 192.96 50.7153C192.96 48.3625 191.087 47.0304 187.943 46.9612V46.1309ZM185.452 52.601C183.734 52.5318 182.978 51.8225 182.978 50.7153C182.978 49.6081 183.734 48.8123 185.452 48.7432V52.601ZM187.943 48.7432C189.678 48.8123 190.417 49.6081 190.417 50.7153C190.417 51.8225 189.678 52.5318 187.943 52.601V48.7432Z" fill="#4A4A4A"/>
</g>
</g>
<defs>
<clipPath id="clip0_8840_44810">
<rect width="136" height="36" fill="white" transform="translate(57 31.7031)"/>
</clipPath>
</defs>
</svg>
