<svg width="250" height="100" viewBox="0 0 250 100" fill="none" xmlns="http://www.w3.org/2000/svg">
<path d="M120.014 26.1814C120.235 26.0966 120.463 26.0248 120.665 25.9465C123.151 25.1255 125.241 23.4034 126.525 21.1181C127.003 20.3939 127.227 19.5311 127.162 18.6653C127.097 17.7995 126.747 16.9799 126.167 16.3353C125.993 16.1557 125.861 15.9395 125.781 15.7025C125.701 15.4655 125.675 15.2136 125.704 14.9651C125.762 14.736 125.885 14.5283 126.056 14.3665C126.228 14.2046 126.443 14.0954 126.675 14.0516C126.96 13.9627 127.27 13.9894 127.536 14.126C127.802 14.2625 128.005 14.4981 128.1 14.7824C128.514 15.6631 128.629 16.6556 128.426 17.6077C127.384 21.7967 125.138 24.9808 120.893 26.4294C120.665 26.5077 120.431 26.5664 120.203 26.6251C119.975 26.6838 119.923 26.6251 119.864 26.4946C119.806 26.3641 119.877 26.2336 120.014 26.1814Z" fill="#66675D"/>
<path d="M124.226 22.9453C124.35 20.7725 124.35 20.7725 123.191 18.7171C123.084 18.5701 123.011 18.401 122.978 18.2222C122.944 18.0434 122.951 17.8593 122.998 17.6835C123.045 17.5078 123.13 17.3447 123.248 17.2063C123.366 17.0679 123.513 16.9577 123.679 16.8836C123.829 16.7925 123.998 16.737 124.173 16.7214C124.348 16.7057 124.524 16.7303 124.688 16.7932C124.852 16.8562 124.999 16.9558 125.119 17.0846C125.239 17.2133 125.327 17.3678 125.378 17.5361C126.003 18.8868 125.743 21.8752 124.226 22.9453Z" fill="#66675D"/>
<path d="M127.547 21.8948C127.792 21.3648 128.161 20.9016 128.622 20.544C129.083 20.1863 129.623 19.9447 130.197 19.8394C130.378 19.775 130.576 19.7749 130.757 19.839C130.938 19.9031 131.092 20.0277 131.193 20.1918C131.274 20.3035 131.318 20.4383 131.318 20.5767C131.318 20.7151 131.274 20.85 131.193 20.9617C131.112 21.1373 130.967 21.2758 130.789 21.3495C130.61 21.4233 130.41 21.4269 130.229 21.3597C129.324 21.0465 128.517 21.3663 127.547 21.8948Z" fill="#66675D"/>
<path d="M129.128 22.9257C129.25 22.9238 129.37 22.9516 129.479 23.0067C129.588 23.0617 129.682 23.1424 129.753 23.2418C129.824 23.3412 129.87 23.4564 129.887 23.5774C129.904 23.6985 129.891 23.8219 129.85 23.937C129.83 24.0582 129.78 24.1723 129.703 24.2685C129.627 24.3646 129.527 24.4397 129.414 24.4867C129.301 24.5337 129.177 24.551 129.055 24.5371C128.934 24.5231 128.817 24.4783 128.718 24.4068C127.96 23.94 127.08 23.7126 126.191 23.7543C126.574 23.3829 127.042 23.1127 127.555 22.9681C128.068 22.8234 128.608 22.8088 129.128 22.9257Z" fill="#66675D"/>
<path d="M122.904 23.8775C122.892 23.4434 122.794 23.0161 122.615 22.6206C122.436 22.2251 122.181 21.8693 121.863 21.5742C121.706 21.4645 121.594 21.3018 121.547 21.116C121.501 20.9302 121.523 20.7339 121.609 20.5629C121.675 20.4218 121.785 20.3058 121.922 20.2319C122.059 20.1579 122.216 20.1299 122.371 20.1518C122.56 20.1654 122.74 20.2411 122.882 20.3673C123.025 20.4935 123.122 20.6631 123.158 20.85C123.364 21.3374 123.449 21.8677 123.404 22.3952C123.36 22.9226 123.189 23.4314 122.904 23.8775Z" fill="#66675D"/>
<path d="M128.824 19.0873C128.941 18.5971 129.176 18.1432 129.508 17.7655C129.841 17.3877 130.261 17.0977 130.732 16.921C131.142 16.7905 131.598 16.8362 131.715 17.3647C131.743 17.4637 131.747 17.5678 131.727 17.6687C131.707 17.7695 131.663 17.8642 131.6 17.945C131.536 18.0258 131.455 18.0904 131.362 18.1335C131.268 18.1767 131.166 18.1972 131.064 18.1934C130.236 18.2202 129.444 18.5365 128.824 19.0873Z" fill="#66675D"/>
<path d="M126.525 24.9475C126.857 24.9932 127.13 25.1107 127.215 25.4565C127.261 25.587 127.264 25.7288 127.224 25.8614C127.185 25.9939 127.104 26.1103 126.994 26.1938C126.875 26.2966 126.724 26.3533 126.567 26.3533C126.411 26.3533 126.259 26.2966 126.141 26.1938C125.802 25.9523 125.418 25.7831 125.011 25.6967C124.605 25.6102 124.185 25.6084 123.777 25.6914C124.147 25.3627 124.587 25.1245 125.064 24.9954C125.541 24.8663 126.041 24.8499 126.525 24.9475Z" fill="#66675D"/>
<path d="M101.583 32.9265C101.579 32.7082 101.619 32.4914 101.701 32.2891C101.783 32.0868 101.905 31.9031 102.059 31.749C102.214 31.5949 102.398 31.4736 102.6 31.3923C102.802 31.3109 103.018 31.2713 103.236 31.2757C103.474 31.2725 103.709 31.3211 103.926 31.4179C104.143 31.5148 104.336 31.6578 104.493 31.8369C104.504 31.8454 104.512 31.8563 104.518 31.8687C104.524 31.8812 104.528 31.8948 104.528 31.9086C104.528 31.9225 104.524 31.9361 104.518 31.9485C104.512 31.961 104.504 31.9719 104.493 31.9804L104.447 32.0196C104.438 32.0305 104.427 32.0394 104.414 32.0454C104.401 32.0515 104.387 32.0546 104.372 32.0546C104.358 32.0546 104.344 32.0515 104.331 32.0454C104.318 32.0394 104.307 32.0305 104.298 32.0196C104.166 31.8729 104.006 31.7553 103.826 31.6744C103.647 31.5935 103.452 31.5511 103.256 31.5498C102.9 31.5741 102.567 31.7328 102.324 31.9938C102.08 32.2548 101.945 32.5987 101.945 32.9559C101.945 33.3131 102.08 33.657 102.324 33.918C102.567 34.179 102.9 34.3377 103.256 34.362C103.453 34.3619 103.649 34.3194 103.828 34.2372C104.008 34.155 104.168 34.0352 104.298 33.8857C104.307 33.8747 104.318 33.8659 104.331 33.8598C104.344 33.8538 104.358 33.8506 104.372 33.8506C104.387 33.8506 104.401 33.8538 104.414 33.8598C104.427 33.8659 104.438 33.8747 104.447 33.8857L104.493 33.9248C104.504 33.9327 104.512 33.943 104.518 33.9549C104.524 33.9668 104.528 33.98 104.528 33.9933C104.528 34.0067 104.524 34.0199 104.518 34.0318C104.512 34.0437 104.504 34.054 104.493 34.0619C104.268 34.3196 103.97 34.5017 103.638 34.5833C103.307 34.6649 102.958 34.6421 102.64 34.518C102.322 34.3939 102.05 34.1745 101.86 33.8897C101.671 33.6049 101.574 33.2686 101.583 32.9265Z" fill="#66675D"/>
<path d="M105.879 32.9283C105.874 32.5943 105.968 32.2663 106.149 31.986C106.331 31.7058 106.591 31.4859 106.898 31.3545C107.204 31.2231 107.543 31.186 107.87 31.248C108.198 31.31 108.5 31.4682 108.737 31.7026C108.975 31.9369 109.137 32.2368 109.204 32.564C109.271 32.8913 109.239 33.2311 109.113 33.5402C108.987 33.8493 108.772 34.1138 108.495 34.3C108.218 34.4861 107.892 34.5856 107.559 34.5856C107.339 34.5927 107.119 34.5549 106.914 34.4744C106.709 34.394 106.522 34.2726 106.365 34.1176C106.208 33.9627 106.084 33.7773 106 33.5729C105.917 33.3684 105.875 33.1491 105.879 32.9283ZM108.946 32.9283C108.944 32.6511 108.861 32.3805 108.707 32.1507C108.552 31.9208 108.333 31.742 108.077 31.6369C107.821 31.5317 107.54 31.5048 107.269 31.5597C106.998 31.6146 106.749 31.7487 106.554 31.9451C106.359 32.1416 106.226 32.3916 106.173 32.6635C106.119 32.9355 106.147 33.2172 106.253 33.4731C106.359 33.7291 106.539 33.9478 106.769 34.1017C106.999 34.2555 107.269 34.3376 107.546 34.3377C107.731 34.3422 107.916 34.3087 108.088 34.2394C108.261 34.1701 108.417 34.0663 108.548 33.9345C108.679 33.8026 108.782 33.6454 108.85 33.4724C108.919 33.2994 108.951 33.1143 108.946 32.9283Z" fill="#66675D"/>
<path d="M110.899 33.2884V31.4484C110.898 31.4344 110.9 31.4204 110.905 31.4073C110.91 31.3942 110.917 31.3823 110.927 31.3724C110.937 31.3625 110.949 31.3549 110.962 31.35C110.975 31.3451 110.989 31.343 111.003 31.344H111.074C111.088 31.343 111.102 31.3451 111.115 31.35C111.129 31.3549 111.14 31.3625 111.15 31.3724C111.16 31.3823 111.168 31.3942 111.173 31.4073C111.178 31.4204 111.18 31.4344 111.179 31.4484V33.2754C111.179 33.5505 111.288 33.8144 111.482 34.0089C111.676 34.2035 111.939 34.3128 112.214 34.3128C112.488 34.3128 112.752 34.2035 112.946 34.0089C113.14 33.8144 113.249 33.5505 113.249 33.2754V31.4484C113.248 31.435 113.25 31.4216 113.255 31.4089C113.259 31.3963 113.266 31.3847 113.275 31.3749C113.284 31.3651 113.295 31.3573 113.308 31.352C113.32 31.3467 113.333 31.344 113.347 31.344H113.412C113.426 31.343 113.44 31.3451 113.453 31.35C113.466 31.3549 113.478 31.3625 113.488 31.3724C113.497 31.3823 113.505 31.3942 113.51 31.4073C113.515 31.4204 113.517 31.4344 113.516 31.4484V33.2884C113.516 33.6345 113.379 33.9664 113.135 34.2112C112.89 34.4559 112.559 34.5934 112.214 34.5934C111.868 34.5934 111.537 34.4559 111.293 34.2112C111.049 33.9664 110.912 33.6345 110.912 33.2884H110.899Z" fill="#66675D"/>
<path d="M117.878 31.4469V34.481C117.878 34.5017 117.87 34.5217 117.855 34.5363C117.84 34.551 117.821 34.5593 117.8 34.5593C117.761 34.5593 117.722 34.5201 117.683 34.4679L115.651 31.8906V34.4223C115.653 34.4367 115.652 34.4515 115.648 34.4654C115.643 34.4793 115.636 34.492 115.626 34.5027C115.616 34.5133 115.603 34.5216 115.59 34.5268C115.576 34.5321 115.562 34.5343 115.547 34.5332H115.456C115.442 34.5332 115.428 34.5303 115.415 34.5247C115.401 34.519 115.39 34.5107 115.38 34.5003C115.37 34.4899 115.363 34.4776 115.358 34.4642C115.353 34.4508 115.351 34.4365 115.352 34.4223V31.3882C115.353 31.3696 115.361 31.3522 115.374 31.3391C115.388 31.3259 115.405 31.3179 115.423 31.3164C115.462 31.3164 115.502 31.3164 115.541 31.4078L117.572 33.9851V31.4469C117.571 31.4329 117.573 31.4189 117.578 31.4058C117.583 31.3927 117.59 31.3808 117.6 31.3709C117.61 31.361 117.622 31.3534 117.635 31.3485C117.648 31.3436 117.662 31.3415 117.676 31.3425H117.741C117.757 31.3352 117.775 31.3324 117.792 31.3344C117.81 31.3364 117.827 31.3431 117.841 31.3538C117.855 31.3645 117.866 31.3788 117.872 31.3952C117.879 31.4116 117.881 31.4295 117.878 31.4469Z" fill="#66675D"/>
<path d="M120.483 34.4235V31.5852H119.513C119.441 31.5852 119.402 31.5525 119.402 31.4873V31.4416C119.402 31.3764 119.441 31.3438 119.513 31.3438H121.733C121.805 31.3438 121.844 31.3764 121.844 31.4416V31.4873C121.844 31.5525 121.805 31.5852 121.733 31.5852H120.757V34.4235C120.759 34.438 120.757 34.4527 120.753 34.4666C120.748 34.4805 120.741 34.4933 120.731 34.5039C120.721 34.5146 120.709 34.5228 120.695 34.5281C120.682 34.5334 120.667 34.5355 120.652 34.5344H120.587C120.573 34.5345 120.559 34.5316 120.546 34.5259C120.533 34.5203 120.521 34.512 120.511 34.5016C120.501 34.4912 120.494 34.4789 120.489 34.4655C120.484 34.452 120.482 34.4378 120.483 34.4235Z" fill="#66675D"/>
<path d="M125.874 34.5216C125.799 34.5667 125.714 34.5914 125.627 34.5934C125.347 34.5934 125.197 34.3846 125.08 34.104L124.819 33.4906C124.748 33.321 124.683 33.1514 124.455 33.1514H123.667V34.4237C123.668 34.438 123.666 34.4522 123.661 34.4657C123.656 34.4791 123.649 34.4914 123.639 34.5018C123.629 34.5122 123.617 34.5205 123.604 34.5261C123.591 34.5318 123.577 34.5347 123.563 34.5346H123.491C123.477 34.5347 123.463 34.5318 123.45 34.5261C123.437 34.5205 123.425 34.5122 123.415 34.5018C123.405 34.4914 123.398 34.4791 123.393 34.4657C123.388 34.4522 123.386 34.438 123.387 34.4237V31.4484C123.387 31.4341 123.39 31.4199 123.395 31.4068C123.401 31.3937 123.409 31.3819 123.42 31.3721C123.43 31.3623 123.442 31.3548 123.456 31.3499C123.469 31.3451 123.483 31.3431 123.498 31.344H124.572C125.262 31.344 125.646 31.6832 125.646 32.2444C125.655 32.4647 125.579 32.6801 125.434 32.8455C125.288 33.0109 125.084 33.1134 124.865 33.1318C124.943 33.1318 125.002 33.2623 125.06 33.4058L125.314 33.9931C125.399 34.1953 125.49 34.3454 125.633 34.3454C125.677 34.3428 125.719 34.3293 125.757 34.3063C125.815 34.3063 125.854 34.3063 125.887 34.3454V34.3976C125.895 34.4064 125.901 34.4167 125.904 34.4279C125.908 34.439 125.909 34.4508 125.908 34.4625C125.906 34.4741 125.903 34.4854 125.897 34.4955C125.891 34.5057 125.883 34.5146 125.874 34.5216ZM124.617 32.9295C124.79 32.9295 124.956 32.8608 125.078 32.7384C125.2 32.616 125.269 32.4501 125.269 32.277C125.269 32.104 125.2 31.938 125.078 31.8156C124.956 31.6933 124.79 31.6245 124.617 31.6245H123.647V32.9295H124.617Z" fill="#66675D"/>
<path d="M129.778 31.4463L128.625 33.3124V34.4217C128.627 34.4356 128.626 34.4497 128.622 34.4632C128.618 34.4766 128.611 34.489 128.602 34.4995C128.593 34.51 128.581 34.5184 128.568 34.5241C128.556 34.5298 128.542 34.5327 128.528 34.5326H128.476C128.462 34.5327 128.448 34.5298 128.435 34.5241C128.422 34.5184 128.411 34.51 128.401 34.4995C128.392 34.489 128.385 34.4766 128.381 34.4632C128.377 34.4497 128.376 34.4356 128.378 34.4217V33.3255L127.414 31.766C127.336 31.6421 127.271 31.5572 127.186 31.5377C127.126 31.5268 127.063 31.5384 127.011 31.5703C127 31.5782 126.988 31.5835 126.975 31.5858C126.962 31.5881 126.948 31.5874 126.936 31.5836C126.923 31.5798 126.911 31.573 126.902 31.5639C126.892 31.5548 126.885 31.5436 126.88 31.5311V31.4855C126.874 31.475 126.87 31.4632 126.868 31.451C126.866 31.4387 126.867 31.4262 126.871 31.4144C126.875 31.4025 126.881 31.3917 126.889 31.3825C126.898 31.3734 126.908 31.3662 126.92 31.3615C126.995 31.3111 127.083 31.2838 127.173 31.2832C127.414 31.2832 127.551 31.4529 127.694 31.6812L128.476 33.071L129.465 31.4398C129.511 31.3746 129.543 31.3419 129.615 31.3419H129.706C129.778 31.3419 129.83 31.4007 129.778 31.4463Z" fill="#66675D"/>
<path d="M133.282 32.9267C133.278 32.7078 133.319 32.4904 133.401 32.2877C133.483 32.0849 133.606 31.9009 133.761 31.7467C133.916 31.5926 134.1 31.4714 134.303 31.3905C134.506 31.3095 134.723 31.2706 134.942 31.2759C135.179 31.2727 135.415 31.3212 135.632 31.4181C135.849 31.515 136.042 31.6579 136.198 31.837C136.208 31.8462 136.216 31.8573 136.221 31.8696C136.227 31.882 136.23 31.8953 136.23 31.9088C136.23 31.9223 136.227 31.9356 136.221 31.9479C136.216 31.9603 136.208 31.9714 136.198 31.9806L136.146 32.0197C136.138 32.0306 136.127 32.0393 136.114 32.0454C136.102 32.0514 136.088 32.0545 136.075 32.0545C136.061 32.0545 136.047 32.0514 136.035 32.0454C136.022 32.0393 136.012 32.0306 136.003 32.0197C135.871 31.8722 135.709 31.7542 135.529 31.6733C135.348 31.5923 135.153 31.5503 134.955 31.5499C134.599 31.5742 134.266 31.7329 134.023 31.9939C133.779 32.255 133.644 32.5988 133.644 32.956C133.644 33.3132 133.779 33.6571 134.023 33.9181C134.266 34.1792 134.599 34.3379 134.955 34.3621C135.153 34.3622 135.349 34.3197 135.53 34.2375C135.711 34.1554 135.872 34.0355 136.003 33.8858C136.012 33.875 136.022 33.8662 136.035 33.8602C136.047 33.8541 136.061 33.851 136.075 33.851C136.088 33.851 136.102 33.8541 136.114 33.8602C136.127 33.8662 136.138 33.875 136.146 33.8858L136.198 33.925C136.208 33.9335 136.216 33.9441 136.221 33.9559C136.226 33.9677 136.229 33.9805 136.229 33.9935C136.229 34.0064 136.226 34.0193 136.221 34.0311C136.216 34.0429 136.208 34.0534 136.198 34.062C135.973 34.3185 135.674 34.4995 135.342 34.5804C135.011 34.6613 134.663 34.6383 134.345 34.5145C134.026 34.3907 133.754 34.1721 133.564 33.8881C133.374 33.6042 133.275 33.2686 133.282 32.9267Z" fill="#66675D"/>
<path d="M137.853 34.4303V31.4484C137.852 31.4344 137.854 31.4204 137.859 31.4073C137.864 31.3942 137.871 31.3823 137.881 31.3724C137.891 31.3625 137.903 31.3549 137.916 31.35C137.929 31.3451 137.943 31.343 137.957 31.344H138.028C138.042 31.343 138.056 31.3451 138.069 31.35C138.083 31.3549 138.094 31.3625 138.104 31.3724C138.114 31.3823 138.122 31.3942 138.127 31.4073C138.132 31.4204 138.134 31.4344 138.133 31.4484V34.2867H139.643C139.657 34.2848 139.671 34.286 139.685 34.2901C139.698 34.2941 139.71 34.301 139.721 34.3103C139.731 34.3196 139.74 34.331 139.745 34.3439C139.751 34.3567 139.754 34.3706 139.754 34.3846V34.4368C139.754 34.502 139.708 34.5347 139.643 34.5347H137.957C137.943 34.5369 137.928 34.5357 137.914 34.5313C137.901 34.5268 137.888 34.5192 137.878 34.509C137.868 34.4988 137.86 34.4864 137.856 34.4727C137.852 34.459 137.85 34.4445 137.853 34.4303Z" fill="#66675D"/>
<path d="M141.102 33.2885V31.4485C141.101 31.4351 141.103 31.4216 141.107 31.409C141.112 31.3964 141.119 31.3848 141.128 31.375C141.137 31.3652 141.148 31.3574 141.161 31.3521C141.173 31.3468 141.186 31.344 141.199 31.3441H141.278C141.292 31.3431 141.305 31.3451 141.319 31.35C141.332 31.3549 141.344 31.3626 141.353 31.3725C141.363 31.3824 141.371 31.3943 141.376 31.4074C141.381 31.4205 141.383 31.4345 141.382 31.4485V33.2754C141.382 33.5506 141.491 33.8145 141.685 34.009C141.879 34.2036 142.142 34.3129 142.417 34.3129C142.692 34.3129 142.955 34.2036 143.149 34.009C143.343 33.8145 143.452 33.5506 143.452 33.2754V31.4485C143.45 31.4348 143.451 31.421 143.455 31.4078C143.459 31.3947 143.466 31.3827 143.476 31.3726C143.485 31.3626 143.497 31.3548 143.51 31.3499C143.522 31.3449 143.536 31.3429 143.55 31.3441H143.615C143.629 31.3429 143.642 31.3449 143.655 31.3499C143.668 31.3548 143.68 31.3626 143.689 31.3726C143.698 31.3827 143.705 31.3947 143.709 31.4078C143.714 31.421 143.715 31.4348 143.713 31.4485V33.2885C143.713 33.6346 143.575 33.9665 143.331 34.2112C143.087 34.456 142.756 34.5935 142.41 34.5935C142.065 34.5935 141.734 34.456 141.49 34.2112C141.245 33.9665 141.108 33.6346 141.108 33.2885H141.102Z" fill="#66675D"/>
<path d="M147.858 33.657C147.858 34.179 147.415 34.5313 146.758 34.5313H145.703C145.688 34.5322 145.673 34.53 145.659 34.5248C145.645 34.5197 145.632 34.5116 145.621 34.5013C145.61 34.4909 145.601 34.4783 145.595 34.4644C145.589 34.4505 145.586 34.4355 145.586 34.4204V31.4451C145.586 31.4302 145.589 31.4154 145.595 31.4018C145.601 31.3883 145.61 31.3761 145.621 31.3662C145.632 31.3563 145.645 31.3489 145.659 31.3445C145.673 31.3401 145.688 31.3388 145.703 31.3407H146.706C147.357 31.3407 147.734 31.6408 147.734 32.1693C147.735 32.3186 147.691 32.4647 147.607 32.5882C147.524 32.7117 147.405 32.8068 147.266 32.861C147.437 32.9117 147.587 33.0167 147.694 33.1602C147.801 33.3037 147.858 33.478 147.858 33.657ZM145.866 31.5821V32.7696H146.745C147.188 32.7696 147.442 32.5478 147.442 32.1759C147.442 31.8039 147.181 31.5821 146.725 31.5821H145.866ZM147.578 33.644C147.578 33.2525 147.266 32.9915 146.803 32.9915H145.866V34.2964H146.758C147.279 34.2834 147.578 34.0485 147.578 33.644Z" fill="#66675D"/>
<path d="M66.3328 61.793C67.2993 61.3921 68.1761 60.8018 68.9118 60.0567C69.6474 59.3116 70.2272 58.4267 70.6169 57.4539C71.0457 56.4199 71.2669 55.3112 71.2679 54.1915C71.2817 53.1114 71.0797 52.0394 70.6738 51.0387C70.2679 50.038 69.6664 49.1289 68.9045 48.3647C68.1575 47.6196 67.2706 47.0301 66.2951 46.6303C65.3195 46.2305 64.2746 46.0283 63.2207 46.0353C61.3187 46.0263 59.4745 46.6893 58.0121 47.908C56.5932 49.071 55.6276 50.697 55.2841 52.5015H53.8908V46.4529H51V62.1127H53.8908V55.4051H55.232C55.3537 56.3133 55.6242 57.1952 56.0328 58.015C56.8978 59.7869 58.3937 61.1697 60.2257 61.8908C62.195 62.6568 64.3837 62.6288 66.3328 61.8125V61.793ZM63.1686 48.9259C63.864 48.9236 64.5534 49.0543 65.1999 49.3108C65.828 49.5603 66.4026 49.928 66.8927 50.394C67.3956 50.8816 67.7936 51.4671 68.0623 52.1145C68.3311 52.762 68.4648 53.4577 68.4553 54.1588C68.4607 54.8848 68.3258 55.6049 68.0581 56.2794C67.7973 56.9084 67.4195 57.4819 66.9448 57.9694C66.4533 58.465 65.8676 58.8566 65.2223 59.1211C64.577 59.3856 63.8853 59.5176 63.1881 59.5092C62.4987 59.511 61.8162 59.3711 61.1828 59.0982C60.5438 58.8343 59.9605 58.4512 59.464 57.9694C58.9708 57.4774 58.5734 56.8976 58.292 56.2599C57.9966 55.5992 57.8457 54.8828 57.8493 54.1588C57.8398 53.4235 57.9771 52.6936 58.253 52.0121C58.5048 51.3918 58.8841 50.8315 59.3663 50.3679C59.8505 49.9054 60.4214 49.5439 61.0461 49.3043C61.7237 49.0462 62.4437 48.9178 63.1686 48.9259Z" fill="#66675D"/>
<path d="M76.8061 56.2096C77.1547 56.0425 77.5252 55.9261 77.9065 55.8637C78.3652 55.7923 78.8291 55.7596 79.2932 55.7659H81.8975C82.5495 55.7739 83.1976 55.6657 83.8117 55.4461C84.3909 55.2369 84.9159 54.9002 85.3482 54.4609C85.768 54.0391 86.0961 53.5348 86.3118 52.9797C86.7544 51.7371 86.7544 50.3792 86.3118 49.1366C86.0966 48.5869 85.7683 48.0889 85.3482 47.675C84.9168 47.2628 84.4015 46.9489 83.8377 46.755C83.2248 46.5403 82.5793 46.4343 81.9301 46.4418H73.9219V62.1015H76.8061V56.2096ZM81.9171 49.3715C82.4173 49.332 82.916 49.4655 83.3299 49.7499C83.4883 49.9252 83.6078 50.1321 83.6808 50.357C83.7537 50.5819 83.7784 50.8198 83.7531 51.0549C83.7531 52.2685 83.1867 52.8166 81.9171 52.8166H79.3128C78.812 52.8163 78.3118 52.849 77.8153 52.9145C77.4795 52.9676 77.1515 53.0618 76.8387 53.195V49.3715H81.9171Z" fill="#66675D"/>
<path d="M98.8716 61.8976C99.5137 61.7784 100.128 61.5394 100.682 61.1929C101.247 60.8267 101.714 60.3271 102.042 59.7378C102.414 59.008 102.594 58.1948 102.563 57.3758C102.607 56.7021 102.491 56.0276 102.225 55.4073C101.96 54.787 101.551 54.2385 101.033 53.8067C99.8589 52.9802 98.4425 52.5713 97.0095 52.6453H94.4638C94.0005 52.6362 93.5388 52.5881 93.0835 52.5017C92.7139 52.4411 92.3545 52.3291 92.0158 52.1689V46.4531H89.1055V62.1129H97.003C97.6313 62.1011 98.257 62.029 98.8716 61.8976ZM97.2244 59.1702H92.0158V55.1704C92.3278 55.3045 92.6562 55.3967 92.9924 55.4444C93.4865 55.5123 93.9846 55.5472 94.4833 55.5488H97.0356C97.3698 55.5466 97.7034 55.5772 98.0317 55.6402C98.3238 55.6912 98.6054 55.7904 98.8651 55.9338C99.09 56.0647 99.2799 56.2483 99.4185 56.4688C99.5658 56.7405 99.6356 57.0475 99.6203 57.3562C99.6351 57.6587 99.5652 57.9593 99.4185 58.224C99.2835 58.4482 99.0985 58.6381 98.8781 58.7787C98.6418 58.9235 98.3816 59.0252 98.1098 59.0788C97.8183 59.1379 97.5218 59.1684 97.2244 59.1702Z" fill="#66675D"/>
<path d="M117.01 59.1702H107.83V55.9664C108.183 55.802 108.558 55.6899 108.943 55.6337C109.395 55.563 109.852 55.5281 110.31 55.5293H113.924V52.6126H110.284C109.79 52.6132 109.297 52.6437 108.806 52.704C108.471 52.7471 108.142 52.8349 107.83 52.965V49.3698H116.105V46.4531H104.945V62.1129H117.01V59.1702Z" fill="#66675D"/>
<path d="M129.616 61.852C130.245 61.7081 130.843 61.4517 131.381 61.0951C131.913 60.7439 132.359 60.2752 132.683 59.7249C133.031 59.0926 133.204 58.3785 133.184 57.6565C133.191 57.1495 133.125 56.6441 132.989 56.1558C132.869 55.7436 132.701 55.3471 132.488 54.9748C132.288 54.6359 132.033 54.3336 131.732 54.0809C131.617 53.9776 131.495 53.8817 131.368 53.7938C131.664 53.506 131.901 53.1622 132.064 52.7824C132.312 52.1852 132.437 51.5436 132.429 50.8967C132.44 50.2501 132.319 49.6082 132.071 49.011C131.849 48.4757 131.511 47.9966 131.081 47.6082C130.639 47.2192 130.123 46.924 129.564 46.7404C128.963 46.546 128.334 46.449 127.702 46.4533H119.785V62.113H127.696C128.344 62.1036 128.989 62.016 129.616 61.852ZM127.911 59.1703H122.702V56.0057C123.049 55.8416 123.417 55.7253 123.796 55.6599C124.25 55.5841 124.709 55.547 125.17 55.549H127.715C128.052 55.5469 128.387 55.5775 128.718 55.6403C129.01 55.6914 129.292 55.7906 129.551 55.9339C129.776 56.0648 129.966 56.2484 130.105 56.469C130.252 56.7406 130.322 57.0476 130.307 57.3564C130.316 57.6294 130.246 57.8992 130.105 58.1328C129.962 58.3586 129.773 58.552 129.551 58.7005C129.312 58.8595 129.048 58.9785 128.77 59.0528C128.49 59.1302 128.201 59.1697 127.911 59.1703ZM129.069 52.2082C128.677 52.5148 128.186 52.6657 127.689 52.6323H125.143C124.645 52.6309 124.146 52.6658 123.653 52.7367C123.317 52.7844 122.989 52.8743 122.676 53.0043V49.3699H127.689C128.179 49.3457 128.665 49.4709 129.082 49.7288C129.255 49.8712 129.389 50.0559 129.47 50.265C129.551 50.4742 129.577 50.7007 129.545 50.9228C129.566 51.159 129.534 51.3968 129.452 51.6192C129.369 51.8415 129.239 52.0427 129.069 52.2082Z" fill="#66675D"/>
<path d="M137.448 59.9986C138.206 60.7561 139.104 61.3588 140.092 61.7734C141.176 62.2212 142.341 62.4428 143.514 62.4249C144.687 62.4069 145.844 62.1497 146.915 61.669C147.986 61.1839 148.946 60.4819 149.734 59.6071L149.929 59.3918L148.145 56.958L147.852 57.3299C147.327 57.9993 146.66 58.5432 145.899 58.922C145.121 59.3173 144.259 59.5187 143.386 59.5092C142.667 59.5131 141.953 59.3803 141.283 59.1177C140.645 58.8585 140.056 58.4898 139.545 58.0281C139.037 57.5599 138.626 56.9969 138.334 56.3707C138.036 55.7199 137.885 55.0116 137.891 54.2958C137.884 53.5552 138.026 52.8207 138.308 52.1361C138.578 51.4974 138.972 50.9186 139.466 50.4331C139.967 49.949 140.561 49.5717 141.211 49.3239C141.91 49.0573 142.652 48.9224 143.399 48.9258C144.172 48.9232 144.938 49.0763 145.652 49.3761C146.339 49.6707 146.964 50.0936 147.494 50.6223L147.768 50.8964L149.63 48.7105L149.395 48.4756C148.611 47.6905 147.678 47.0688 146.652 46.6466C145.627 46.2244 144.527 46.01 143.419 46.0157C141.248 46.0079 139.154 46.8238 137.559 48.2995C136.786 49.0212 136.162 49.888 135.723 50.8507C135.266 51.8541 135.033 52.9451 135.039 54.0479C135.037 55.168 135.258 56.2772 135.69 57.3103C136.094 58.3138 136.691 59.2274 137.448 59.9986Z" fill="#66675D"/>
<path d="M162.882 61.696C163.208 61.8627 163.561 61.973 163.924 62.0222C164.265 62.0645 164.609 62.0863 164.952 62.0875H166.092V59.1513H165.734H165.46C165.232 59.1703 165.002 59.1571 164.777 59.1121C164.615 59.0794 164.461 59.0175 164.321 58.9294C164.112 58.799 163.919 58.6434 163.748 58.4662C163.499 58.2164 163.281 57.9382 163.097 57.6375L160.558 53.8074L165.701 46.4277H162.211L158.383 52.0913C158.012 52.2846 157.612 52.4168 157.198 52.4828C156.748 52.5498 156.293 52.5847 155.837 52.5872H155.186V46.4538H152.309V62.1136H155.173V55.5887H156.072C156.453 55.5862 156.834 55.5578 157.211 55.5039C157.506 55.4583 157.796 55.3863 158.077 55.2885L160.773 59.6146C161.071 60.112 161.425 60.5739 161.827 60.9913C162.141 61.2791 162.496 61.5167 162.882 61.696Z" fill="#66675D"/>
<path d="M182.211 60.0906C182.979 59.3585 183.6 58.4859 184.041 57.5198C184.486 56.5024 184.708 55.4009 184.692 54.29C184.706 53.1688 184.484 52.0572 184.041 51.0276C183.616 50.0509 183.008 49.165 182.25 48.4176C180.67 46.8728 178.546 46.0147 176.339 46.0295C174.168 46.0217 172.074 46.8376 170.479 48.3132C169.701 49.0316 169.074 49.8991 168.636 50.8644C168.191 51.8704 167.969 52.9612 167.985 54.0616C167.983 55.1817 168.205 56.2909 168.636 57.3241C169.046 58.3188 169.647 59.2228 170.405 59.9842C171.164 60.7455 172.065 61.3494 173.057 61.761C174.1 62.1986 175.221 62.4205 176.352 62.4135C177.456 62.4069 178.548 62.1853 179.568 61.761C180.542 61.3683 181.438 60.8024 182.211 60.0906ZM174.242 59.1184C173.592 58.8626 172.993 58.4937 172.471 58.0288C171.964 57.5606 171.552 56.9976 171.26 56.3714C170.963 55.7206 170.812 55.0123 170.817 54.2965C170.81 53.5559 170.952 52.8214 171.234 52.1368C171.505 51.4981 171.898 50.9193 172.393 50.4338C172.894 49.9497 173.487 49.5724 174.138 49.3246C174.836 49.058 175.578 48.9231 176.326 48.9265C177.053 48.9231 177.774 49.0536 178.455 49.3115C179.102 49.56 179.696 49.9298 180.206 50.4012C180.708 50.8726 181.112 51.4379 181.397 52.065C181.694 52.7228 181.843 53.4378 181.834 54.1595C181.839 54.8851 181.69 55.6034 181.397 56.267C181.113 56.9012 180.714 57.4765 180.219 57.9635C179.715 58.4506 179.123 58.8361 178.474 59.0989C177.116 59.6405 175.605 59.6475 174.242 59.1184Z" fill="#66675D"/>
<path d="M190.267 59.1702V55.9664C190.612 55.8044 190.978 55.6924 191.354 55.6337C191.809 55.5627 192.268 55.5278 192.728 55.5293H196.335V52.6126H192.728C192.232 52.613 191.736 52.6435 191.244 52.704C190.908 52.7482 190.58 52.836 190.267 52.965V49.3698H198.568V46.4531H187.383V62.1129H199.447V59.1702H190.267Z" fill="#66675D"/>
<path d="M60.5625 83.5881H63.4468V70.871H70.6737V83.5881H73.5645V67.9609H60.5625V83.5881Z" fill="#66675D"/>
<path d="M92.3379 72.5275C91.682 71.0283 90.6026 69.7543 89.2327 68.8627C87.8629 67.9711 86.2625 67.5008 84.6292 67.5099C82.4603 67.513 80.3706 68.3274 78.7695 69.7936C77.9981 70.5166 77.3745 71.3831 76.9335 72.3448C76.4855 73.3523 76.2633 74.4458 76.2824 75.5486C76.2808 76.6686 76.5022 77.7777 76.9335 78.811C77.3438 79.8062 77.9455 80.7108 78.7044 81.4732C79.892 82.6301 81.3898 83.4157 83.0152 83.7343C84.6407 84.0529 86.3234 83.8907 87.8585 83.2675C88.846 82.8677 89.751 82.2881 90.5279 81.558C91.2986 80.8284 91.9201 79.9551 92.3574 78.9872C92.8083 77.96 93.0305 76.8467 93.0085 75.7247C93.0035 74.6245 92.7753 73.5367 92.3379 72.5275ZM82.5197 80.6184C81.8687 80.3651 81.2687 79.996 80.7488 79.5288C80.2381 79.066 79.8262 78.5044 79.5378 77.878C79.2405 77.2271 79.0894 76.5188 79.095 75.803C79.0852 75.06 79.227 74.3229 79.5117 73.6368C79.782 72.9999 80.1759 72.4232 80.6706 71.9403C81.1712 71.4543 81.7648 71.0748 82.4155 70.8245C83.1144 70.5602 83.8561 70.4275 84.6031 70.4331C85.3283 70.4286 86.048 70.5592 86.7256 70.818C87.373 71.0637 87.9675 71.4314 88.477 71.9012C88.9812 72.3718 89.3882 72.9371 89.675 73.565C89.9677 74.2263 90.1165 74.9426 90.1112 75.666C90.1152 76.3914 89.9666 77.1096 89.675 77.7736C89.3895 78.4084 88.9875 78.9839 88.49 79.47C87.988 79.9544 87.3979 80.3376 86.7517 80.5988C85.3947 81.1437 83.8816 81.1507 82.5197 80.6184Z" fill="#66675D"/>
<path d="M108.177 67.9609H96.6916L97.9091 70.871H99.361C99.0467 72.6766 98.5493 74.4453 97.8766 76.1497C97.2332 77.7782 96.3558 79.3037 95.2723 80.678H92.8828V85.8653H95.7671V83.5881H106.588V85.8653H109.472V80.678H108.17L108.177 67.9609ZM105.292 70.871V80.6584H98.7815C99.1614 80.0463 99.5092 79.4147 99.8233 78.7662C100.261 77.8679 100.65 76.9465 100.989 76.0061C101.321 75.0665 101.64 74.1204 101.848 73.1874C102.043 72.4177 102.195 71.6379 102.304 70.8515L105.292 70.871Z" fill="#66675D"/>
<path d="M124.643 76.4826C124.367 76.0102 123.989 75.6064 123.536 75.3016C123.832 75.0151 124.067 74.671 124.226 74.2902C124.712 73.0803 124.712 71.7288 124.226 70.5188C123.998 69.9801 123.653 69.4987 123.217 69.1094C122.773 68.7238 122.258 68.431 121.7 68.2482C121.098 68.0538 120.47 67.9568 119.838 67.9611H111.953V83.6208H119.864C120.521 83.6215 121.177 83.5448 121.817 83.3924C122.445 83.2457 123.042 82.9895 123.581 82.6356C124.113 82.2802 124.558 81.8097 124.883 81.2588C125.23 80.6262 125.401 79.9118 125.378 79.1904C125.384 78.6856 125.319 78.1824 125.183 77.6962C125.059 77.2688 124.877 76.8605 124.643 76.4826ZM120.085 80.6781H114.876V77.5135C115.222 77.3456 115.591 77.2291 115.97 77.1677C116.424 77.0897 116.884 77.0505 117.344 77.0503H119.89C120.226 77.0515 120.561 77.0821 120.892 77.1416C121.185 77.1959 121.466 77.2973 121.726 77.4417C121.952 77.5692 122.14 77.7537 122.273 77.9768C122.423 78.2475 122.495 78.5547 122.481 78.8642C122.49 79.1351 122.42 79.4028 122.279 79.6341C122.136 79.8636 121.945 80.0594 121.719 80.2083C121.483 80.3685 121.221 80.4876 120.944 80.5606C120.662 80.6353 120.371 80.6747 120.079 80.6781H120.085ZM121.244 73.7095C120.851 74.0162 120.361 74.1693 119.864 74.1401H117.318C116.819 74.1394 116.321 74.1721 115.827 74.238C115.491 74.2849 115.162 74.3771 114.85 74.5121V70.8712H119.864C120.353 70.8502 120.838 70.9751 121.257 71.23C121.426 71.3756 121.557 71.5607 121.637 71.769C121.718 71.9773 121.746 72.2023 121.719 72.4241C121.74 72.6608 121.708 72.8993 121.624 73.1218C121.541 73.3443 121.409 73.5451 121.237 73.7095H121.244Z" fill="#66675D"/>
<path d="M141.501 69.911C139.92 68.3611 137.794 67.4983 135.582 67.5099C133.413 67.513 131.324 68.3274 129.723 69.7936C128.951 70.5166 128.328 71.3831 127.887 72.3448C127.439 73.3523 127.216 74.4458 127.236 75.5486C127.234 76.6686 127.455 77.7777 127.887 78.811C128.297 79.8062 128.899 80.7108 129.658 81.4732C130.845 82.6301 132.343 83.4157 133.968 83.7343C135.594 84.0529 137.277 83.8907 138.812 83.2675C139.799 82.8677 140.704 82.2881 141.481 81.558C142.252 80.8283 142.873 79.9551 143.311 78.9872C143.761 77.96 143.984 76.8467 143.962 75.7247C143.972 74.6039 143.75 73.493 143.311 72.4623C142.874 71.5048 142.259 70.6391 141.501 69.911ZM133.479 80.6184C132.828 80.3651 132.228 79.9959 131.708 79.5287C131.198 79.066 130.786 78.5044 130.497 77.8779C130.2 77.2271 130.049 76.5188 130.055 75.803C130.045 75.06 130.187 74.3229 130.471 73.6368C130.742 72.9999 131.136 72.4232 131.63 71.9403C132.131 71.4543 132.724 71.0748 133.375 70.8245C134.074 70.5602 134.816 70.4275 135.563 70.433C136.288 70.4286 137.008 70.5592 137.685 70.818C138.333 71.0637 138.927 71.4314 139.437 71.9011C139.941 72.3718 140.348 72.9371 140.635 73.565C140.927 74.2263 141.076 74.9426 141.071 75.666C141.075 76.3914 140.926 77.1096 140.635 77.7735C140.349 78.4084 139.947 78.9839 139.45 79.47C138.948 79.9543 138.358 80.3375 137.711 80.5988C136.352 81.1455 134.837 81.1525 133.473 80.6184H133.479Z" fill="#66675D"/>
<path d="M158.029 69.1879C157.6 68.7766 157.087 68.4629 156.525 68.2679C155.911 68.0585 155.266 67.9549 154.618 67.9612H146.609V83.621H149.494V77.7486C149.848 77.5695 150.224 77.4399 150.613 77.3636C151.07 77.2913 151.532 77.2542 151.994 77.2527H154.637C155.289 77.2586 155.938 77.1482 156.551 76.9264C157.108 76.7266 157.614 76.4082 158.036 75.9934C158.457 75.5741 158.783 75.069 158.993 74.5122C159.444 73.2734 159.444 71.9144 158.993 70.6756C158.785 70.1145 158.456 69.6065 158.029 69.1879ZM154.605 70.8713C155.105 70.835 155.602 70.9683 156.017 71.2498C156.176 71.4251 156.295 71.632 156.368 71.8569C156.441 72.0818 156.466 72.3196 156.441 72.5547C156.441 73.7749 155.874 74.3165 154.605 74.3165H152C151.499 74.3181 150.999 74.353 150.503 74.4209C150.167 74.4686 149.838 74.5608 149.526 74.6949V70.8713H154.605Z" fill="#66675D"/>
<path d="M173.723 75.3014C172.55 74.4722 171.133 74.0631 169.7 74.14H167.154C166.691 74.1401 166.23 74.1008 165.774 74.0226C165.395 73.9549 165.027 73.8364 164.68 73.6702V67.9609H161.789V83.6207H169.693C170.32 83.6198 170.946 83.5586 171.562 83.438C172.204 83.3169 172.818 83.0756 173.372 82.7268C173.938 82.3663 174.404 81.868 174.726 81.2783C175.102 80.5497 175.284 79.736 175.253 78.9162C175.305 78.235 175.193 77.5513 174.927 76.9223C174.661 76.2934 174.248 75.7375 173.723 75.3014ZM169.914 80.678H164.706V76.6456C165.018 76.7806 165.346 76.8728 165.682 76.9196C166.176 76.991 166.675 77.0259 167.173 77.024H169.726C170.06 77.0253 170.393 77.0559 170.722 77.1154C171.014 77.1686 171.296 77.27 171.555 77.4155C171.779 77.5453 171.967 77.7292 172.102 77.9506C172.25 78.2219 172.32 78.5291 172.304 78.8379C172.318 79.1403 172.248 79.4406 172.102 79.7058C171.965 79.9284 171.777 80.1161 171.555 80.2538C171.325 80.4033 171.069 80.5074 170.8 80.5605C170.51 80.6324 170.213 80.6718 169.914 80.678Z" fill="#66675D"/>
<path d="M180.516 77.4742C180.86 77.3093 181.226 77.195 181.603 77.1349C182.055 77.0643 182.513 77.0294 182.97 77.0305H186.584V74.1139H182.97C182.476 74.1132 181.982 74.1459 181.492 74.2118C181.157 74.2549 180.828 74.3427 180.516 74.4728V70.871H188.817V67.9609H177.625V83.6207H189.676V80.7106H180.496L180.516 77.4742Z" fill="#66675D"/>
</svg>
