<svg width="250" height="100" viewBox="0 0 250 100" fill="none" xmlns="http://www.w3.org/2000/svg">
<path d="M80.6393 44.7473C80.62 44.6741 80.596 44.6021 80.5675 44.5319L71.8282 29.6362C71.7693 29.5363 71.6853 29.4534 71.5845 29.3958C71.4838 29.3382 71.3698 29.3079 71.2538 29.3079C71.1377 29.3079 71.0237 29.3382 70.923 29.3958C70.8222 29.4534 70.7382 29.5363 70.6793 29.6362L68.9151 32.6318L62.6888 22.0242L62.3093 21.3472C62.2442 21.2411 62.1529 21.1535 62.0443 21.0927C61.9356 21.0319 61.8132 21 61.6887 21C61.5642 21 61.4418 21.0319 61.3332 21.0927C61.2246 21.1535 61.1333 21.2411 61.0682 21.3472L52.1135 36.6327L51.5801 36.8994L50.1133 34.4065C50.0563 34.3108 49.9772 34.2301 49.8826 34.1712C49.788 34.1123 49.6807 34.0769 49.5696 34.068H49.4568C49.3457 34.0769 49.2384 34.1123 49.1438 34.1712C49.0492 34.2301 48.9701 34.3108 48.9131 34.4065L43.4562 43.7112C40.9869 47.0457 39.479 50.9936 39.0966 55.1254C38.7142 59.2572 39.4718 63.4148 41.2872 67.146C43.1026 70.8772 45.9061 74.0391 49.3929 76.2879C52.8797 78.5367 56.9163 79.7863 61.0637 79.9007C65.211 80.0151 69.3104 78.99 72.9159 76.9369C76.5213 74.8838 79.4949 71.8812 81.5132 68.2558C83.5314 64.6304 84.5171 60.5209 84.3631 56.3743C84.209 52.2277 82.921 48.2027 80.6393 44.7371V44.7473ZM71.2538 31.2571L76.2388 39.7616L78.8134 44.1626H63.6941L71.2538 31.2571ZM52.9853 37.9766L54.288 35.7607L57.3652 30.5493V33.4935H59.3244V27.1536L60.7502 24.7326V38.9409H62.7093V24.8351L63.9915 27.0202V33.4935H65.9507V30.4159L68.1047 34.0885L67.4072 35.2785L66.5764 36.7045L61.9606 44.5729C61.8986 44.676 61.8652 44.7937 61.8638 44.9139C61.8625 45.0341 61.8931 45.1526 61.9526 45.257C62.0122 45.3615 62.0984 45.4482 62.2026 45.5083C62.3067 45.5684 62.425 45.5996 62.5452 45.5988H74.8541L78.0852 51.1078H45.3231L48.9131 44.9525H55.0676C55.1829 44.9449 55.2943 44.9079 55.3913 44.8451C55.4882 44.7822 55.5675 44.6956 55.6215 44.5935L55.683 44.4806C55.736 44.383 55.7637 44.2737 55.7637 44.1626C55.7637 44.0515 55.736 43.9422 55.683 43.8446L52.6058 38.6126L52.9853 37.9766ZM47.5694 39.4641L49.5183 36.1608L50.3492 37.5765L50.9544 38.6024L51.139 38.9204L51.7852 40.0181L53.8367 43.5163H45.1589L47.5694 39.4641ZM61.6939 78.3139C57.8138 78.3155 54.0084 77.2471 50.6961 75.226C47.3838 73.205 44.6929 70.3096 42.9192 66.8582C41.1455 63.4068 40.3577 59.5331 40.6425 55.663C40.9272 51.7929 42.2735 48.0763 44.5332 44.9217H47.2617L43.4562 51.4053C43.3932 51.5144 43.36 51.6383 43.36 51.7643C43.36 51.8904 43.3932 52.0142 43.4562 52.1234C43.5171 52.233 43.6063 52.3242 43.7146 52.3874C43.8229 52.4506 43.9463 52.4834 44.0717 52.4824H79.3058C79.4313 52.4813 79.5543 52.4473 79.6626 52.3838C79.7709 52.3204 79.8606 52.2296 79.9229 52.1206C79.9851 52.0116 80.0177 51.8882 80.0175 51.7627C80.0172 51.6372 79.984 51.514 79.9212 51.4053L76.485 45.5475H79.275C81.3835 48.7268 82.5908 52.4184 82.7684 56.2294C82.946 60.0404 82.0872 63.8282 80.2835 67.1899C78.4797 70.5515 75.7985 73.3613 72.5251 75.3201C69.2516 77.2789 65.5085 78.3135 61.6939 78.3139Z" fill="#574C00"/>
<path d="M48.0844 59.3767C47.9061 59.2107 47.6921 59.0878 47.4587 59.0177C47.6711 58.9179 47.8521 58.7618 47.9819 58.5663C48.1607 58.3233 48.2512 58.0265 48.2383 57.7251C48.2419 57.5335 48.2055 57.3433 48.1313 57.1666C48.0571 56.9899 47.9468 56.8307 47.8075 56.6992C47.6006 56.5149 47.3585 56.3744 47.0958 56.2863C46.8331 56.1981 46.5553 56.1641 46.2791 56.1863C45.8693 56.1837 45.4624 56.2567 45.079 56.4017C44.8053 56.5062 44.5439 56.6403 44.2995 56.8018L44.8636 57.8892C45.0093 57.7669 45.1674 57.6603 45.3355 57.5712C45.5428 57.4691 45.771 57.4165 46.0022 57.4173C46.1937 57.4095 46.3832 57.4595 46.5458 57.5609C46.6131 57.6042 46.6688 57.6633 46.7082 57.733C46.7475 57.8028 46.7692 57.881 46.7715 57.961C46.7724 58.0274 46.7602 58.0933 46.7356 58.1549C46.7109 58.2165 46.6743 58.2727 46.6279 58.3201C46.3658 58.4977 46.0511 58.5809 45.7355 58.556H45.3662V59.705H45.9201C46.164 59.6797 46.4099 59.7261 46.6279 59.8384C46.7033 59.883 46.7663 59.9458 46.8111 60.0211C46.8559 60.0964 46.8811 60.1817 46.8843 60.2692C46.8823 60.3624 46.8568 60.4536 46.8102 60.5342C46.7635 60.6149 46.6973 60.6826 46.6176 60.7309C46.4246 60.831 46.2093 60.8805 45.9919 60.8745C45.7242 60.877 45.46 60.8136 45.2226 60.6898C45.0015 60.5637 44.8009 60.4046 44.6277 60.2179L43.8789 61.2438C44.1535 61.4944 44.4693 61.6957 44.8123 61.8388C45.2522 61.9978 45.7201 62.0641 46.1868 62.0337C46.747 62.0646 47.3038 61.929 47.787 61.6439C48.0078 61.4944 48.1881 61.2925 48.3116 61.0561C48.4352 60.8198 48.4981 60.5564 48.4947 60.2897C48.491 60.1178 48.4528 59.9484 48.3823 59.7915C48.3119 59.6347 48.2105 59.4936 48.0844 59.3767Z" fill="#574C00"/>
<path d="M54.5547 56.9846C53.937 56.4359 53.1396 56.1328 52.3134 56.1328C51.4873 56.1328 50.6898 56.4359 50.0722 56.9846C49.7869 57.2594 49.5607 57.5894 49.4072 57.9545C49.2538 58.3196 49.1764 58.7122 49.1798 59.1082C49.1782 59.504 49.2564 59.896 49.4097 60.2609C49.5631 60.6258 49.7884 60.956 50.0722 61.2318C50.6928 61.7743 51.4891 62.0734 52.3134 62.0734C53.1377 62.0734 53.9341 61.7743 54.5547 61.2318C54.8329 60.9534 55.0526 60.622 55.2005 60.2573C55.3485 59.8925 55.4219 59.5018 55.4163 59.1082C55.4237 58.7144 55.3511 58.3231 55.203 57.9581C55.0549 57.5931 54.8344 57.262 54.5547 56.9846ZM53.4571 60.2059C53.3061 60.3513 53.1277 60.4652 52.9322 60.5409C52.7367 60.6167 52.5281 60.6527 52.3186 60.647C52.1052 60.6518 51.8929 60.6144 51.694 60.537C51.4951 60.4595 51.3134 60.3435 51.1595 60.1956C50.8801 59.9262 50.718 59.5577 50.7081 59.1698C50.7071 58.7524 50.869 58.3512 51.1595 58.0516C51.3144 57.8971 51.4984 57.7749 51.7009 57.6921C51.9034 57.6093 52.1203 57.5676 52.3391 57.5694C52.7614 57.5734 53.1672 57.7343 53.4776 58.0208C53.6233 58.162 53.7392 58.331 53.8185 58.5178C53.8978 58.7045 53.9388 58.9053 53.9392 59.1082C53.9301 59.5235 53.7567 59.9182 53.4571 60.2059Z" fill="#574C00"/>
<path d="M57.8151 61.5425C58.2593 60.9909 58.4725 60.2886 58.4101 59.5831V57.5314H59.8358V61.9734H61.3232V56.2695H56.9433V59.4087C56.9433 60.1576 56.7381 60.4346 56.6458 60.4346C56.5089 60.5516 56.3335 60.6137 56.1534 60.609C56.0348 60.6052 55.9174 60.5845 55.8047 60.5474V61.9118C56.0127 61.9713 56.2255 62.0125 56.4406 62.0349C56.6911 62.05 56.9421 62.0142 57.1783 61.9295C57.4146 61.8449 57.6312 61.7132 57.8151 61.5425Z" fill="#574C00"/>
<path d="M65.3966 62.0339C66.225 62.0491 67.0282 61.7483 67.643 61.1927C67.9249 60.9155 68.149 60.585 68.3022 60.2205C68.4554 59.856 68.5346 59.4646 68.5354 59.0692C68.5364 58.6735 68.4579 58.2816 68.3046 57.9168C68.1513 57.552 67.9263 57.2218 67.643 56.9456C67.0292 56.3872 66.2262 56.0828 65.3966 56.0941C64.5697 56.0813 63.7694 56.3861 63.1605 56.9456C62.8739 57.2198 62.646 57.5495 62.4908 57.9146C62.3357 58.2796 62.2564 58.6725 62.2578 59.0692C62.2581 59.4656 62.3382 59.8579 62.4933 60.2227C62.6484 60.5876 62.8753 60.9174 63.1605 61.1927C63.7705 61.7495 64.571 62.0506 65.3966 62.0339ZM64.2478 57.9817C64.5568 57.6866 64.9693 57.5245 65.3966 57.5304C65.8193 57.5324 66.2258 57.6935 66.5352 57.9817C66.6809 58.123 66.7968 58.2919 66.876 58.4787C66.9553 58.6655 66.9964 58.8663 66.9967 59.0692C66.9969 59.2765 66.9552 59.4818 66.874 59.6726C66.7929 59.8634 66.674 60.0359 66.5246 60.1796C66.3751 60.3234 66.1981 60.4354 66.0043 60.509C65.8105 60.5826 65.6038 60.6163 65.3966 60.608C65.1847 60.6131 64.9739 60.5759 64.7766 60.4983C64.5793 60.4208 64.3995 60.3046 64.2478 60.1566C64.1076 60.0246 63.9955 59.8657 63.9179 59.6895C63.8404 59.5133 63.7991 59.3232 63.7964 59.1307C63.795 58.9254 63.8342 58.7219 63.9116 58.5317C63.9891 58.3416 64.1033 58.1686 64.2478 58.0228V57.9817Z" fill="#574C00"/>
<path d="M70.1337 61.9529H71.6108V57.5211H72.8314V56.2695H68.9336V57.5211H70.1337V61.9529Z" fill="#574C00"/>
<path d="M76.363 56.1332C75.5361 56.1204 74.7358 56.4252 74.1269 56.9847C73.8416 57.2594 73.6154 57.5894 73.4619 57.9545C73.3085 58.3197 73.2311 58.7122 73.2345 59.1083C73.2329 59.504 73.3111 59.8961 73.4644 60.261C73.6177 60.6258 73.8431 60.956 74.1269 61.2318C74.7475 61.7744 75.5438 62.0734 76.3681 62.0734C77.1924 62.0734 77.9887 61.7744 78.6094 61.2318C78.8932 60.956 79.1185 60.6258 79.2718 60.261C79.4251 59.8961 79.5033 59.504 79.5017 59.1083C79.5051 58.7122 79.4277 58.3197 79.2743 57.9545C79.1209 57.5894 78.8946 57.2594 78.6094 56.9847C77.9967 56.4245 77.193 56.1199 76.363 56.1332ZM77.5118 60.2367C77.198 60.5236 76.7882 60.6827 76.363 60.6827C75.9378 60.6827 75.528 60.5236 75.2142 60.2367C75.074 60.1047 74.9618 59.9459 74.8843 59.7696C74.8068 59.5934 74.7655 59.4034 74.7628 59.2109C74.7601 59.0038 74.7986 58.7983 74.876 58.6064C74.9535 58.4144 75.0685 58.2397 75.2142 58.0927C75.5238 57.7984 75.9359 57.6365 76.363 57.6413C76.7887 57.6437 77.1983 57.8046 77.5118 58.0927C77.7894 58.3611 77.9575 58.723 77.9837 59.1083C77.9729 59.5211 77.804 59.9141 77.5118 60.206V60.2367Z" fill="#574C00"/>
<path d="M50.6067 64.5449L48.4219 70.2385H49.981L50.3605 69.2845H52.412L52.7608 70.2385H54.3917L52.2581 64.5552L50.6067 64.5449ZM50.7708 68.1868L51.3965 66.3505L52.0325 68.1868H50.7708Z" fill="#574C00"/>
<path d="M55.7768 67.6738C55.7768 68.433 55.5716 68.6997 55.4793 68.6997C55.3424 68.8167 55.167 68.8789 54.9869 68.8741C54.8716 68.8713 54.7574 68.8506 54.6484 68.8126V70.2385C54.8678 70.2839 55.0911 70.3079 55.3152 70.3103C55.5582 70.3218 55.8012 70.2851 56.03 70.2024C56.2589 70.1196 56.4691 69.9925 56.6486 69.8282C57.0928 69.2765 57.306 68.5743 57.2436 67.8687V65.817H58.6693V70.2385H60.1567V64.5449H55.7768V67.6738Z" fill="#574C00"/>
<path d="M64.7206 64.5449H60.8125V65.7965H62.0126V70.2283H63.4897V65.7965H64.7206V64.5449Z" fill="#574C00"/>
<path d="M66.4856 64.5449L64.3008 70.2385H65.8599L66.2394 69.2845H68.2909L68.6397 70.2385H70.2193L68.0858 64.5552L66.4856 64.5449ZM66.701 68.1868L67.3267 66.3505L67.9114 68.1868H66.701Z" fill="#574C00"/>
<path d="M71.1731 65.1109C70.8583 65.4863 70.6938 65.9651 70.7115 66.4548C70.6994 66.6728 70.7323 66.891 70.8082 67.0957C70.8841 67.3004 71.0013 67.4873 71.1526 67.6448C71.3753 67.8823 71.6717 68.0377 71.9937 68.0859L70.4141 70.2402H72.1168L73.3374 68.3013H73.481V70.2402H74.9581V64.5466H72.7733C72.4825 64.5298 72.1912 64.571 71.9165 64.6679C71.6418 64.7648 71.3891 64.9153 71.1731 65.1109ZM73.481 65.7879V67.1626H73.0605C72.8258 67.1748 72.594 67.106 72.404 66.9677C72.2843 66.8323 72.2218 66.6558 72.2296 66.4753C72.2256 66.3856 72.241 66.2962 72.2746 66.213C72.3082 66.1298 72.3594 66.0548 72.4245 65.9931C72.6054 65.8523 72.8317 65.7829 73.0605 65.7982L73.481 65.7879Z" fill="#574C00"/>
<path d="M111.401 37.465C110.833 36.9359 110.151 36.5444 109.408 36.3209C110.084 36.003 110.661 35.5055 111.075 34.8825C111.644 34.1082 111.933 33.1624 111.892 32.2019C111.903 31.5914 111.787 30.9852 111.551 30.4222C111.314 29.8592 110.963 29.3519 110.519 28.9328C109.859 28.3455 109.088 27.898 108.251 27.617C107.414 27.3361 106.529 27.2277 105.649 27.2983C104.342 27.29 103.046 27.5227 101.824 27.9848C100.952 28.3177 100.119 28.7453 99.3401 29.2597L101.138 32.7249C101.602 32.3352 102.106 31.9956 102.641 31.7115C103.302 31.3863 104.03 31.2184 104.766 31.2211C105.376 31.1962 105.98 31.3556 106.498 31.6788C106.713 31.8169 106.89 32.0051 107.016 32.2273C107.141 32.4494 107.21 32.6988 107.218 32.9537C107.221 33.1652 107.182 33.3752 107.103 33.5716C107.025 33.768 106.908 33.9469 106.76 34.0979C105.925 34.664 104.922 34.9292 103.916 34.8498H102.74V38.5111H104.505C105.282 38.4306 106.065 38.5783 106.76 38.9361C107 39.0782 107.201 39.2784 107.344 39.5183C107.486 39.7582 107.567 40.0301 107.577 40.3091C107.571 40.606 107.489 40.8965 107.341 41.1536C107.192 41.4108 106.981 41.6263 106.727 41.7802C106.112 42.0994 105.426 42.2569 104.733 42.2379C103.88 42.2459 103.038 42.0438 102.282 41.6494C101.577 41.2475 100.938 40.7404 100.386 40.1457L98 43.4147C98.8751 44.2131 99.8813 44.8546 100.974 45.3108C102.376 45.8173 103.867 46.0288 105.354 45.9319C107.139 46.0304 108.914 45.5981 110.453 44.6896C111.157 44.2134 111.732 43.5697 112.125 42.8166C112.519 42.0634 112.72 41.2243 112.709 40.3745C112.697 39.8266 112.575 39.2867 112.351 38.7869C112.126 38.2871 111.803 37.8375 111.401 37.465Z" fill="#574C00"/>
<path d="M132.022 29.8434C130.054 28.0947 127.513 27.1289 124.881 27.1289C122.248 27.1289 119.707 28.0947 117.739 29.8434C116.83 30.7188 116.109 31.7703 115.62 32.9338C115.131 34.0973 114.884 35.3483 114.895 36.6103C114.89 37.8715 115.139 39.1208 115.628 40.2835C116.116 41.4461 116.834 42.4984 117.739 43.3773C119.716 45.1062 122.254 46.0591 124.881 46.0591C127.507 46.0591 130.045 45.1062 132.022 43.3773C132.909 42.4902 133.609 41.4342 134.081 40.2719C134.552 39.1096 134.786 37.8645 134.768 36.6103C134.792 35.3553 134.56 34.1086 134.089 32.9455C133.617 31.7824 132.914 30.7271 132.022 29.8434ZM128.525 40.1082C128.044 40.5716 127.475 40.9345 126.852 41.1758C126.229 41.4172 125.565 41.5321 124.897 41.5139C124.217 41.5292 123.54 41.41 122.907 41.1632C122.273 40.9164 121.694 40.5467 121.203 40.0755C120.313 39.2171 119.797 38.0428 119.765 36.8065C119.762 35.4766 120.278 34.198 121.203 33.2432C121.697 32.7508 122.283 32.3615 122.929 32.0977C123.574 31.834 124.265 31.7011 124.962 31.7067C126.308 31.7195 127.601 32.2322 128.59 33.1451C129.055 33.5951 129.424 34.1336 129.677 34.7288C129.929 35.3239 130.06 35.9637 130.061 36.6103C130.032 37.9337 129.48 39.1915 128.525 40.1082Z" fill="#574C00"/>
<path d="M142.414 44.3615C143.83 42.6036 144.509 40.3658 144.31 38.1176V31.5795H148.854V45.7345H153.593V27.5586H139.636V37.5619C139.636 39.9483 138.982 40.8309 138.688 40.8309C138.252 41.2038 137.693 41.4018 137.119 41.3867C136.741 41.3748 136.367 41.3087 136.008 41.1905V45.5384C136.671 45.7278 137.349 45.859 138.034 45.9307C138.833 45.9787 139.632 45.8645 140.385 45.5948C141.138 45.3251 141.828 44.9055 142.414 44.3615Z" fill="#574C00"/>
<path d="M166.58 45.9291C169.22 45.9773 171.779 45.0188 173.738 43.2484C174.637 42.3651 175.351 41.312 175.839 40.1503C176.327 38.9887 176.58 37.7416 176.582 36.4815C176.585 35.2206 176.335 33.9719 175.847 32.8094C175.358 31.647 174.641 30.5946 173.738 29.7146C171.783 27.9351 169.224 26.9653 166.58 27.0012C163.945 26.9604 161.395 27.9315 159.455 29.7146C158.541 30.5883 157.815 31.6389 157.321 32.8022C156.826 33.9656 156.574 35.2174 156.578 36.4815C156.579 37.7447 156.834 38.9949 157.329 40.1574C157.823 41.32 158.546 42.3712 159.455 43.2484C161.398 45.0225 163.949 45.9822 166.58 45.9291ZM162.919 33.0163C163.904 32.0757 165.219 31.5592 166.58 31.5779C167.927 31.5844 169.223 32.0979 170.208 33.0163C170.673 33.4663 171.042 34.0048 171.295 34.6C171.547 35.1951 171.678 35.8349 171.679 36.4815C171.68 37.1423 171.547 37.7964 171.288 38.4045C171.03 39.0125 170.651 39.5621 170.175 40.0201C169.698 40.4781 169.134 40.8351 168.517 41.0697C167.899 41.3042 167.24 41.4115 166.58 41.3851C165.905 41.4015 165.233 41.2827 164.604 41.0357C163.976 40.7887 163.403 40.4184 162.919 39.9467C162.473 39.526 162.115 39.0199 161.868 38.4583C161.621 37.8967 161.49 37.2911 161.481 36.6776C161.477 36.0234 161.601 35.3748 161.848 34.7689C162.095 34.1631 162.459 33.6119 162.919 33.1471V33.0163Z" fill="#574C00"/>
<path d="M181.672 45.6691H186.379V31.5468H190.268V27.5586H177.848V31.5468H181.672V45.6691Z" fill="#574C00"/>
<path d="M201.517 27.1303C198.882 27.0894 196.331 28.0605 194.391 29.8436C193.482 30.719 192.761 31.7705 192.272 32.934C191.783 34.0975 191.536 35.3485 191.547 36.6105C191.542 37.8717 191.791 39.121 192.28 40.2837C192.769 41.4463 193.486 42.4986 194.391 43.3775C196.369 45.1064 198.906 46.0593 201.533 46.0593C204.16 46.0593 206.697 45.1064 208.675 43.3775C209.579 42.4986 210.297 41.4463 210.786 40.2837C211.274 39.121 211.524 37.8717 211.519 36.6105C211.529 35.3485 211.283 34.0975 210.794 32.934C210.305 31.7705 209.584 30.719 208.675 29.8436C206.723 28.0584 204.161 27.0877 201.517 27.1303ZM205.177 40.2065C204.177 41.1207 202.871 41.6277 201.517 41.6277C200.162 41.6277 198.856 41.1207 197.856 40.2065C197.409 39.7858 197.052 39.2796 196.805 38.718C196.558 38.1565 196.426 37.5509 196.417 36.9374C196.409 36.2777 196.531 35.6229 196.778 35.0111C197.025 34.3993 197.391 33.8429 197.856 33.3741C198.842 32.4365 200.156 31.9205 201.517 31.9358C202.873 31.9436 204.178 32.4564 205.177 33.3741C206.062 34.2295 206.598 35.3827 206.681 36.6105C206.647 37.9262 206.108 39.1784 205.177 40.1084V40.2065Z" fill="#574C00"/>
<path d="M104.962 53.9336L98 72.0768H102.968L104.178 69.0366H110.715L111.826 72.0768H117.023L110.225 53.9663L104.962 53.9336ZM105.485 65.5387L107.479 59.6871L109.506 65.5387H105.485Z" fill="#574C00"/>
<path d="M121.443 63.9042C121.443 66.3233 120.789 67.1733 120.495 67.1733C120.059 67.5462 119.5 67.7441 118.926 67.729C118.559 67.7202 118.195 67.654 117.848 67.5329V72.0768C118.547 72.2214 119.258 72.298 119.972 72.3057C120.747 72.3423 121.521 72.2254 122.25 71.9617C122.979 71.698 123.649 71.2927 124.221 70.7692C125.637 69.0113 126.316 66.7735 126.117 64.5253V57.9872H130.661V72.0768H135.4V53.9336H121.443V63.9042Z" fill="#574C00"/>
<path d="M149.946 53.9336H137.492V57.9218H141.316V72.0442H146.023V57.9218H149.946V53.9336Z" fill="#574C00"/>
<path d="M155.572 53.9336L148.609 72.0768H153.578L154.787 69.0366H161.324L162.436 72.0768H167.469L160.671 53.9663L155.572 53.9336ZM156.258 65.5387L158.252 59.6871L160.115 65.5387H156.258Z" fill="#574C00"/>
<path d="M170.505 55.7394C169.501 56.9357 168.977 58.4615 169.034 60.0218C168.995 60.7166 169.1 61.4118 169.342 62.0642C169.584 62.7166 169.957 63.3122 170.439 63.8139C171.149 64.5709 172.093 65.0662 173.12 65.2196L168.086 72.0846H173.512L177.402 65.9061H177.859V72.0846H182.566V53.9414H175.604C174.677 53.8877 173.749 54.0191 172.874 54.3277C171.998 54.6364 171.193 55.1163 170.505 55.7394ZM177.859 57.8969V62.2775H176.519C175.771 62.3162 175.033 62.097 174.427 61.6564C174.046 61.225 173.846 60.6625 173.871 60.0872C173.859 59.8016 173.908 59.5165 174.015 59.2514C174.122 58.9863 174.285 58.7474 174.492 58.5508C175.069 58.1019 175.79 57.8808 176.519 57.9296L177.859 57.8969Z" fill="#574C00"/>
</svg>
