<svg width="1003" height="1088" viewBox="0 0 1003 1088" fill="none" xmlns="http://www.w3.org/2000/svg">
<g opacity="0.05">
<path d="M95.1503 706.079C92.8476 725.234 87.9586 741.87 80.4831 755.988C73.0076 770.105 63.5974 782.085 52.2525 791.926C41.104 801.79 28.3898 809.762 14.11 815.84C-0.169861 821.918 -15.2655 826.494 -31.1768 829.569C-46.868 832.47 -63.0059 834.115 -79.5906 834.504C-96.1515 834.695 -112.299 833.934 -128.034 832.222L-144.627 970.252L-281.898 953.567C-276.462 908.347 -270.952 863.336 -265.367 818.535C-259.782 773.734 -254.051 728.549 -248.175 682.982C-244.886 658.939 -241.892 634.86 -239.192 610.745C-236.492 586.63 -233.081 562.401 -228.959 538.058C-202.92 533.61 -177.107 531.037 -151.519 530.341C-125.931 529.644 -99.7826 530.919 -73.0745 534.165C-57.953 536.003 -42.9858 539.125 -28.1729 543.53C-13.3363 547.737 0.634949 553.342 13.7408 560.345C27.0431 567.371 39.099 575.649 49.9088 585.177C60.9386 594.532 70.1092 605.263 77.4207 617.372C84.7322 629.48 89.9882 642.942 93.1885 657.756C96.6091 672.397 97.263 688.505 95.1503 706.079ZM-36.8515 700.253C-35.3085 687.418 -38.0373 676.968 -45.0381 668.904C-51.8187 660.667 -61.3951 655.797 -73.7672 654.293C-77.8912 653.792 -82.2591 653.661 -86.8709 653.902C-91.2625 653.97 -95.4815 654.258 -99.5279 654.768L-113.46 740.829C-110.758 741.558 -108.131 742.078 -105.578 742.388C-103.025 742.699 -100.374 743.021 -97.6244 743.355C-90.5546 744.214 -83.637 743.853 -76.8715 742.271C-69.9096 740.713 -63.6146 738.072 -57.9864 734.349C-52.3344 730.427 -47.6795 725.684 -44.0216 720.118C-40.1436 714.378 -37.7535 707.757 -36.8515 700.253Z" fill="#666666"/>
<path d="M420.393 1008.87L272.005 1010.07L262.378 940.983L195.215 932.82L172.439 997.971L23.9864 964.901L188.657 584.611L229.852 587.514L246.986 622.696L271.047 590.417L353.437 596.224L420.393 1008.87ZM262.669 849.056L252.673 743.257L218.483 843.686L262.669 849.056Z" fill="#666666"/>
<path d="M981.965 685.843L863.682 1088L695.937 1071.22L685.565 854.176L625.912 1047.08L457.882 1032.67L452.662 929.4L450.052 877.768L448.747 851.951L459.289 838.908L447.442 826.135L437.002 619.605L584.678 624.331L584.581 873.758L653.608 632.709L768.492 646.673L784.536 901.067L838.012 655.122L981.965 685.843Z" fill="#666666"/>
<path d="M-499.151 212.002C-495.926 231.476 -495.966 249.225 -499.269 265.251C-502.571 281.276 -508.389 295.762 -516.72 308.707C-524.852 321.619 -535.065 333.126 -547.359 343.226C-559.654 353.326 -573.18 362.188 -587.938 369.812C-602.53 377.201 -617.921 383.486 -634.111 388.667C-650.334 393.647 -666.424 397.573 -682.38 400.445L-659.143 540.777L-798.849 564.117C-806.461 518.143 -813.941 472.353 -821.287 426.747C-828.633 381.141 -835.946 335.116 -843.225 288.674C-846.881 264.114 -850.836 239.605 -855.092 215.145C-859.347 190.686 -862.936 165.909 -865.859 140.814C-841.54 128.911 -816.905 118.915 -791.953 110.827C-767.002 102.738 -740.936 96.4232 -713.754 91.8819C-698.365 89.3108 -682.759 88.0446 -666.937 88.0833C-651.149 87.9213 -635.81 89.3819 -620.922 92.465C-605.834 95.5148 -591.613 100.153 -578.258 106.381C-564.737 112.375 -552.648 120.258 -541.992 130.032C-531.337 139.805 -522.314 151.502 -514.924 165.122C-507.367 178.508 -502.11 194.134 -499.151 212.002ZM-630.566 244.48C-632.726 231.43 -638.403 221.959 -647.594 216.068C-656.619 209.942 -667.427 207.931 -680.018 210.034C-684.215 210.736 -688.546 211.872 -693.01 213.443C-697.307 214.78 -701.371 216.284 -705.202 217.956L-694.24 306.49C-691.375 306.424 -688.644 306.174 -686.045 305.74C-683.447 305.306 -680.749 304.855 -677.951 304.387C-670.756 303.185 -664.06 300.829 -657.863 297.318C-651.467 293.773 -646.036 289.359 -641.571 284.074C-637.139 278.588 -633.923 272.583 -631.922 266.06C-629.755 259.302 -629.303 252.108 -630.566 244.48Z" fill="#666666"/>
<path d="M-92.7155 415.196L-238.224 459.312L-267.481 394.26L-335.835 405.68L-339.555 476.242L-494.945 486.729L-468.495 276.202L-461.882 223.57L-458.576 197.254L-440.269 184.853L-455.269 170.938L-442.044 65.6745L-276.753 29.3941L-184.734 222.295L-181 285.665L-138.725 318.746L-92.7155 415.196ZM-293.532 303.914L-333.669 202.923L-338.501 311.427L-293.532 303.914Z" fill="#666666"/>
<path d="M366.708 -64.4922L365.666 364.61L195.98 396.673L123.602 186.564L120.236 393.235L35.5923 410.471L-6.72955 419.089L-57.7306 402.736L-66.4098 377.765L-83.7679 327.823L-118.484 227.938L-187.918 28.1691L-41.412 -9.92434L29.9546 235.014L28.7406 -21.6447L145.662 -41.1787L234.316 203.966L216.414 -52.9993L366.708 -64.4922Z" fill="#666666"/>
<path d="M824.715 380.589C824.715 364.309 844.665 353.856 854.64 350.664C866.609 345.235 872.595 337.5 880.974 330.318C889.353 323.136 891.747 303.984 904.914 288.423C918.081 272.863 926.46 271.665 937.233 270.469C948.006 269.271 951.597 266.877 961.173 264.484C970.749 262.09 987.507 262.09 997.083 257.302C1006.66 252.514 1001.87 244.135 994.689 235.756C987.507 227.377 957.582 230.968 944.415 227.377C931.248 223.786 921.672 202.24 922.869 193.861C924.066 185.482 915.687 150.769 909.702 136.405C903.717 122.041 900.126 122.041 896.535 112.465C892.944 102.889 909.702 98.1007 918.081 84.9337C926.46 71.7668 913.293 76.5548 904.914 80.1457C896.535 83.7367 878.58 83.7367 872.595 83.7367C866.61 83.7367 858.231 72.9638 854.64 68.1758C851.049 63.3878 843.867 62.1908 834.291 56.2058C824.715 50.2208 827.109 41.8418 824.715 32.2658C822.8 24.605 826.311 -0.452162 828.306 -12.0231C825.912 -7.63414 821.124 2.58025 821.124 8.32585C821.124 15.5078 811.548 27.4778 809.154 33.4628C806.76 39.4478 799.578 44.2358 784.017 33.4628C768.456 22.6898 764.865 10.7198 758.88 1.14385C752.895 -8.43214 749.304 -34.7661 745.713 -55.1151C742.84 -71.3942 729.354 -67.4841 722.97 -63.4941C724.566 -56.7111 727.758 -40.2723 727.758 -28.7811C727.758 -14.4171 731.349 10.7198 727.758 22.6898C724.167 34.6598 719.379 40.6448 696.636 43.0388C673.893 45.4328 671.499 57.4028 663.12 57.4028C654.741 57.4028 653.544 51.4178 659.529 22.6898C665.514 -6.03812 663.12 -27.5841 659.529 -21.5991C655.938 -15.6141 648.756 16.7048 642.771 37.0538C636.786 57.4028 635.589 64.5848 633.195 75.3578C630.801 86.1308 623.619 90.9188 611.649 93.3127C599.679 95.7068 591.3 87.3278 563.769 69.3728C536.238 51.4178 555.39 72.9638 566.163 87.3278C576.936 101.692 588.906 111.268 597.285 123.238C605.664 135.208 584.118 185.482 576.936 193.861C569.754 202.24 570.951 215.407 573.345 221.392C575.739 227.377 593.694 242.938 594.891 254.908C596.088 266.878 587.709 271.666 576.936 278.848C566.163 286.029 536.238 309.969 519.48 324.333C502.722 338.697 515.889 332.712 523.071 331.515C530.253 330.318 545.814 321.939 560.178 309.969C574.542 297.999 597.285 294.408 602.073 294.408C606.86 294.408 614.043 307.575 618.831 318.348C623.619 329.121 617.634 330.318 614.043 348.273C610.452 366.228 603.27 384.183 597.285 397.35C591.3 410.517 598.482 410.517 611.649 404.532C624.816 398.547 639.18 380.589 648.756 372.213C658.332 363.838 660.726 365.031 675.09 366.228C689.454 367.425 713.394 384.183 722.97 388.971C732.546 393.759 751.698 378.198 758.88 380.589C766.062 382.979 787.608 387.774 797.184 397.35C806.76 406.926 817.533 424.881 821.124 439.245C824.715 453.609 836.685 469.167 841.473 477.546C846.261 485.925 860.625 494.304 859.428 491.91C858.231 489.516 851.049 476.349 847.458 463.182C843.867 450.015 841.473 442.833 836.685 433.257C831.897 423.681 824.715 400.938 824.715 380.589Z" fill="#E9E9E9"/>
<g filter="url(#filter0_f_3739_2225)">
<circle cx="751.664" cy="208.231" r="138.852" transform="rotate(-90 751.664 208.231)" fill="url(#paint0_linear_3739_2225)"/>
</g>
<path d="M806.742 251.327C809.614 249.412 811.929 252.125 812.727 253.721C817.516 256.115 813.923 247.726 813.923 245.332C813.923 242.938 817.514 233.362 817.514 229.771C817.514 226.18 816.317 222.589 815.12 215.407C813.923 208.225 816.317 207.028 818.711 204.634C821.105 202.24 818.711 197.452 818.711 191.467C818.711 185.482 816.317 181.891 815.12 174.709C813.923 167.527 807.938 173.512 804.347 171.118C800.756 168.724 799.56 165.134 800.756 161.543C801.952 157.952 801.953 155.558 800.756 151.967C799.559 148.376 797.165 151.967 793.574 151.967C789.983 151.967 789.983 150.77 783.998 149.573C778.013 148.376 781.604 144.785 778.013 138.8C774.422 132.815 775.619 137.603 779.21 131.618C782.801 125.633 779.21 126.83 776.816 122.042C774.422 117.254 775.619 129.224 772.028 132.815C768.437 136.406 762.452 134.012 755.27 137.603C748.088 141.194 745.694 132.815 740.906 130.421C736.118 128.027 737.315 136.406 734.921 141.194C732.527 145.982 727.739 142.391 722.951 143.588C718.163 144.785 713.375 145.982 706.193 150.77C699.011 155.558 704.996 153.164 702.602 156.755C700.208 160.346 697.814 163.937 695.42 162.74C693.026 161.543 687.041 160.346 687.041 162.74C687.041 165.134 688.238 167.528 690.632 171.118C693.026 174.709 690.632 178.3 687.041 183.088C683.449 187.876 684.647 185.482 682.253 187.876C679.859 190.27 678.662 192.664 675.071 193.861C671.48 195.058 666.692 196.255 664.298 196.255C661.904 196.255 672.677 203.437 675.071 205.831C677.465 208.225 676.268 210.619 679.859 216.604C683.45 222.589 681.056 223.786 679.859 230.968C678.662 238.15 684.647 239.347 688.238 244.135C691.83 248.923 693.026 250.12 694.223 253.711C695.42 257.302 690.632 259.696 688.238 262.09C685.844 264.484 688.238 266.878 690.632 265.681C693.026 264.484 694.223 263.287 699.011 264.484C703.799 265.681 703.799 265.681 712.178 265.681C720.557 265.681 713.375 268.075 718.163 272.865C722.951 277.654 721.754 281.244 726.542 282.446C731.33 283.648 739.71 280.045 743.3 283.638C746.891 287.23 742.104 287.234 739.71 287.234C737.316 287.234 739.71 290.825 742.104 293.219C744.498 295.613 746.892 289.628 746.892 287.234C746.892 284.84 748.089 281.244 750.483 282.446C752.877 283.648 754.074 281.244 757.665 278.855C761.256 276.466 763.65 277.653 766.044 281.244C768.438 284.835 769.635 284.835 774.423 283.638C779.211 282.441 776.817 277.653 779.211 272.865C781.605 268.077 786.393 270.479 792.378 266.888C798.363 263.297 798.363 268.085 800.757 266.888C803.151 265.691 799.56 262.1 799.56 258.509C799.56 254.918 803.151 253.721 806.742 251.327Z" fill="#666666"/>
</g>
<defs>
<filter id="filter0_f_3739_2225" x="611.948" y="68.5143" width="279.433" height="279.433" filterUnits="userSpaceOnUse" color-interpolation-filters="sRGB">
<feFlood flood-opacity="0" result="BackgroundImageFix"/>
<feBlend mode="normal" in="SourceGraphic" in2="BackgroundImageFix" result="shape"/>
<feGaussianBlur stdDeviation="0.432302" result="effect1_foregroundBlur_3739_2225"/>
</filter>
<linearGradient id="paint0_linear_3739_2225" x1="694.966" y1="77.4786" x2="819.933" y2="336.669" gradientUnits="userSpaceOnUse">
<stop offset="0.439187" stop-color="#BFC6CE"/>
<stop offset="0.498125" stop-color="#FBFBFB"/>
</linearGradient>
</defs>
</svg>
