<svg width="126" height="78" viewBox="0 0 126 78" fill="none" xmlns="http://www.w3.org/2000/svg">
<path d="M64.7885 52.0619C64.6351 53.3375 64.3095 54.4454 63.8117 55.3857C63.3138 56.3259 62.6871 57.1237 61.9316 57.7791C61.1891 58.436 60.3424 58.9669 59.3914 59.3717C58.4403 59.7765 57.435 60.0813 56.3753 60.2861C55.3303 60.4793 54.2556 60.5888 53.1511 60.6147C52.0481 60.6274 50.9727 60.5768 49.9249 60.4627L48.8198 69.6553L39.6777 68.5441C40.0398 65.5325 40.4068 62.5349 40.7787 59.5512C41.1507 56.5675 41.5323 53.5583 41.9237 50.5236C42.1427 48.9224 42.3421 47.3188 42.5219 45.7128C42.7017 44.1068 42.9289 42.4932 43.2034 40.872C44.9375 40.5757 46.6567 40.4044 48.3608 40.358C50.0649 40.3116 51.8063 40.3965 53.585 40.6127C54.5921 40.7351 55.5889 40.943 56.5754 41.2364C57.5635 41.5166 58.4939 41.8899 59.3668 42.3562C60.2527 42.8242 61.0556 43.3754 61.7755 44.01C62.5101 44.633 63.1208 45.3477 63.6077 46.1541C64.0947 46.9605 64.4447 47.857 64.6578 48.8436C64.8856 49.8187 64.9292 50.8914 64.7885 52.0619ZM55.9974 51.6738C56.1002 50.819 55.9184 50.1231 55.4522 49.5861C55.0006 49.0375 54.3629 48.7131 53.5389 48.613C53.2642 48.5796 52.9733 48.5709 52.6662 48.587C52.3737 48.5914 52.0928 48.6107 51.8233 48.6446L50.8954 54.3761C51.0754 54.4247 51.2503 54.4593 51.4204 54.48C51.5904 54.5006 51.7669 54.5221 51.95 54.5444C52.4209 54.6016 52.8816 54.5775 53.3322 54.4722C53.7958 54.3684 54.215 54.1925 54.5899 53.9445C54.9663 53.6834 55.2763 53.3675 55.5199 52.9968C55.7782 52.6146 55.9373 52.1736 55.9974 51.6738Z" fill="#666666"/>
<path d="M86.4491 72.2275L76.5667 72.3073L75.9256 67.706L71.4526 67.1624L69.9358 71.5013L60.0491 69.2989L71.0158 43.9723L73.7594 44.1656L74.9005 46.5087L76.5029 44.359L81.9899 44.7457L86.4491 72.2275ZM75.945 61.5839L75.2792 54.5378L73.0022 61.2262L75.945 61.5839Z" fill="#666666"/>
<path d="M123.849 50.7141L115.971 77.497L104.8 76.3794L104.109 61.9249L100.136 74.7718L88.9457 73.8119L88.5981 66.9346L88.4243 63.496L88.3374 61.7767L89.0394 60.908L88.2505 60.0573L87.5552 46.3028L97.3901 46.6175L97.3837 63.229L101.981 47.1755L109.632 48.1055L110.7 65.0477L114.262 48.6682L123.849 50.7141Z" fill="#666666"/>
<path d="M25.2092 19.1581C25.424 20.4551 25.4214 21.6372 25.2014 22.7044C24.9814 23.7717 24.594 24.7364 24.0391 25.5985C23.4976 26.4585 22.8174 27.2248 21.9986 27.8974C21.1799 28.5701 20.279 29.1603 19.2961 29.668C18.3244 30.1601 17.2994 30.5787 16.2211 30.9237C15.1407 31.2554 14.0692 31.5168 13.0065 31.7081L14.554 41.0539L5.2499 42.6084C4.74292 39.5466 4.24481 36.497 3.75556 33.4598C3.26632 30.4225 2.77931 27.3573 2.29452 24.2643C2.05105 22.6287 1.78761 20.9964 1.5042 19.3675C1.2208 17.7385 0.981768 16.0884 0.787109 14.4172C2.40674 13.6244 4.04741 12.9587 5.70911 12.4201C7.37081 11.8814 9.10678 11.4608 10.917 11.1584C11.9419 10.9871 12.9813 10.9028 14.035 10.9054C15.0864 10.8946 16.1079 10.9919 17.0995 11.1972C18.1043 11.4003 19.0514 11.7092 19.9408 12.124C20.8413 12.5232 21.6464 13.0482 22.3561 13.6991C23.0657 14.35 23.6666 15.1289 24.1588 16.036C24.662 16.9275 25.0122 17.9682 25.2092 19.1581ZM16.4572 21.3211C16.3133 20.452 15.9353 19.8213 15.3232 19.4289C14.7222 19.0209 14.0024 18.887 13.1638 19.0271C12.8843 19.0738 12.5959 19.1495 12.2986 19.2541C12.0124 19.3431 11.7417 19.4433 11.4866 19.5546L12.2167 25.4509C12.4074 25.4465 12.5893 25.4298 12.7624 25.4009C12.9354 25.372 13.1151 25.342 13.3015 25.3109C13.7807 25.2308 14.2266 25.0738 14.6393 24.84C15.0653 24.604 15.4269 24.31 15.7243 23.958C16.0195 23.5927 16.2337 23.1928 16.3669 22.7583C16.5113 22.3082 16.5414 21.8292 16.4572 21.3211Z" fill="#666666"/>
<path d="M52.2771 32.6905L42.5865 35.6286L40.638 31.2962L36.0858 32.0567L35.838 36.756L25.4893 37.4545L27.2509 23.4337L27.6913 19.9286L27.9115 18.176L29.1306 17.3501L28.1316 16.4234L29.0124 9.41301L40.0205 6.9968L46.1488 19.8437L46.3975 24.064L49.2129 26.2671L52.2771 32.6905ZM38.9031 25.2793L36.23 18.5535L35.9082 25.7797L38.9031 25.2793Z" fill="#666666"/>
<path d="M82.8738 0.744141L82.8045 29.3216L71.5037 31.4569L66.6834 17.4641L66.4593 31.2279L60.8222 32.3758L58.0036 32.9498L54.607 31.8607L54.029 30.1977L52.873 26.8716L50.5609 20.2195L45.9368 6.91521L55.6938 4.37826L60.4467 20.6907L60.3658 3.5977L68.1526 2.29677L74.0568 18.623L72.8645 1.50954L82.8738 0.744141Z" fill="#666666"/>
<path d="M7.475 66.3449C8.44198 66.3449 9.06293 67.5299 9.25254 68.1224C9.575 68.8334 10.0344 69.189 10.461 69.6867C10.8877 70.1844 12.0253 70.3266 12.9496 71.1087C13.8739 71.8908 13.945 72.3886 14.0161 73.0285C14.0872 73.6684 14.2294 73.8817 14.3716 74.4505C14.5138 75.0193 14.5138 76.0147 14.7982 76.5835C15.0826 77.1524 15.5804 76.868 16.0781 76.4413C16.5758 76.0147 16.3625 74.2372 16.5758 73.4551C16.7891 72.673 18.0689 72.1041 18.5666 72.1752C19.0643 72.2463 21.1263 71.7486 21.9795 71.3931C22.8327 71.0376 22.8327 70.8243 23.4015 70.611C23.9703 70.3977 24.2547 71.3931 25.0369 71.8908C25.819 72.3886 25.5346 71.6064 25.3213 71.1087C25.108 70.611 25.108 69.5445 25.108 69.189C25.108 68.8335 25.7479 68.3358 26.0323 68.1225C26.3167 67.9092 26.3878 67.4825 26.7433 66.9137C27.0988 66.3449 27.5965 66.4871 28.1653 66.3449C28.6204 66.2312 30.1088 66.4397 30.7961 66.5582C30.5354 66.416 29.9287 66.1316 29.5874 66.1316C29.1608 66.1316 28.4497 65.5628 28.0942 65.4206C27.7387 65.2784 27.4543 64.8518 28.0942 63.9275C28.7341 63.0031 29.4452 62.7898 30.014 62.4343C30.5828 62.0788 32.147 61.8655 33.3557 61.6522C34.3227 61.4816 34.0905 60.6805 33.8535 60.3013C33.4506 60.3961 32.4741 60.5857 31.7915 60.5857C30.9383 60.5857 29.4452 60.799 28.7341 60.5857C28.0231 60.3724 27.6676 60.088 27.5254 58.737C27.3832 57.3861 26.6722 57.2439 26.6722 56.7462C26.6722 56.2485 27.0277 56.1774 28.7341 56.5329C30.4406 56.8884 31.7204 56.7462 31.3649 56.5329C31.0094 56.3196 29.0897 55.893 27.8809 55.5375C26.6722 55.182 26.2456 55.1109 25.6057 54.9687C24.9658 54.8265 24.6814 54.3999 24.5392 53.6888C24.397 52.9778 24.8947 52.4801 25.9612 50.8448C27.0277 49.2094 25.7479 50.3471 24.8947 50.987C24.0414 51.6269 23.4726 52.3379 22.7616 52.8356C22.0506 53.3333 19.0643 52.0535 18.5666 51.6269C18.0689 51.2003 17.2868 51.2714 16.9313 51.4136C16.5758 51.5558 15.6515 52.6223 14.9404 52.6934C14.2294 52.7645 13.945 52.2668 13.5184 51.6269C13.0918 50.987 11.6698 49.2094 10.8166 48.214C9.96333 47.2186 10.3188 48.0007 10.3899 48.4273C10.461 48.8539 10.9588 49.7782 11.6698 50.6314C12.3808 51.4847 12.5941 52.8356 12.5941 53.12C12.5941 53.4044 11.812 53.831 11.1721 54.1154C10.5321 54.3998 10.461 54.0443 9.39452 53.831C8.328 53.6177 7.26147 53.1911 6.47936 52.8356C5.69724 52.4801 5.69724 52.9067 6.05275 53.6888C6.40825 54.4709 7.475 55.3242 7.97249 55.893C8.46998 56.4618 8.3991 56.604 8.328 57.4572C8.2569 58.3104 7.26147 59.7325 6.97707 60.3013C6.69266 60.8701 7.61698 62.0077 7.475 62.4343C7.33301 62.8609 7.04817 64.1408 6.47936 64.7096C5.91054 65.2784 4.84402 65.9183 3.9908 66.1316C3.13758 66.3449 2.21348 67.0559 1.71577 67.3403C1.21806 67.6247 0.720348 68.478 0.862551 68.4068C1.00475 68.3357 1.78687 67.9091 2.56899 67.6958C3.35111 67.4825 3.77772 67.3403 4.34653 67.0559C4.91534 66.7715 6.26627 66.3449 7.475 66.3449Z" fill="#E9E9E9"/>
<g filter="url(#filter0_f_4023_1914)">
<circle cx="17.7146" cy="62.0075" r="8.24778" fill="url(#paint0_linear_4023_1914)"/>
</g>
<path d="M15.1561 65.2785C15.2698 65.4491 15.1087 65.5866 15.0139 65.634C14.8717 65.9185 15.37 65.7051 15.5122 65.7051C15.6544 65.7051 16.2232 65.9184 16.4365 65.9184C16.6498 65.9184 16.8631 65.8473 17.2897 65.7762C17.7163 65.7051 17.7874 65.8473 17.9296 65.9895C18.0718 66.1317 18.3562 65.9895 18.7117 65.9895C19.0672 65.9895 19.2805 65.8473 19.7072 65.7762C20.1338 65.7051 19.7783 65.3495 19.9205 65.1362C20.0627 64.9229 20.276 64.8519 20.4893 64.9229C20.7026 64.994 20.8448 64.994 21.0581 64.9229C21.2714 64.8518 21.0581 64.7096 21.0581 64.4963C21.0581 64.283 21.1292 64.283 21.2003 63.9275C21.2714 63.572 21.4847 63.7853 21.8402 63.572C22.1957 63.3587 21.9113 63.4298 22.2668 63.6431C22.6223 63.8564 22.5512 63.6431 22.8356 63.5009C23.12 63.3587 22.409 63.4298 22.1957 63.2165C21.9824 63.0032 22.1246 62.6477 21.9113 62.2211C21.698 61.7945 22.1957 61.6523 22.3379 61.3679C22.4801 61.0835 21.9824 61.1546 21.698 61.0124C21.4136 60.8701 21.6269 60.5857 21.5558 60.3013C21.4847 60.0169 21.4136 59.7325 21.1292 59.3059C20.8448 58.8793 20.987 59.2348 20.7737 59.0926C20.5604 58.9504 20.3471 58.8082 20.4182 58.666C20.4893 58.5238 20.5604 58.1683 20.4182 58.1683C20.276 58.1683 20.1338 58.2394 19.9205 58.3816C19.7072 58.5238 19.4938 58.3816 19.2094 58.1683C18.925 57.955 19.0672 58.0261 18.925 57.8839C18.7828 57.7417 18.6406 57.6706 18.5695 57.4573C18.4984 57.244 18.4273 56.9596 18.4273 56.8174C18.4273 56.6752 18.0007 57.3151 17.8585 57.4573C17.7163 57.5995 17.5741 57.5284 17.2186 57.7417C16.8631 57.955 16.792 57.8128 16.3654 57.7417C15.9388 57.6706 15.8677 58.0261 15.5833 58.2394C15.2989 58.4527 15.2278 58.5238 15.0144 58.5949C14.8011 58.666 14.6589 58.3816 14.5167 58.2394C14.3745 58.0972 14.2323 58.2394 14.3034 58.3816C14.3745 58.5238 14.4456 58.5949 14.3745 58.8793C14.3034 59.1637 14.3034 59.1637 14.3034 59.6615C14.3034 60.1592 14.1612 59.7326 13.8767 60.017C13.5923 60.3014 13.379 60.2303 13.3076 60.5147C13.2362 60.7991 13.4502 61.2968 13.2368 61.5101C13.0235 61.7234 13.0232 61.439 13.0232 61.2968C13.0232 61.1546 12.8099 61.2968 12.6677 61.439C12.5255 61.5812 12.881 61.7234 13.0232 61.7234C13.1654 61.7234 13.379 61.7945 13.3076 61.9367C13.2362 62.0789 13.379 62.15 13.5209 62.3633C13.6628 62.5766 13.5923 62.7188 13.379 62.861C13.1657 63.0032 13.1657 63.0743 13.2368 63.3588C13.3079 63.6432 13.5923 63.501 13.8767 63.6432C14.1612 63.7854 14.0185 64.0698 14.2318 64.4253C14.4451 64.7808 14.1607 64.7808 14.2318 64.923C14.3029 65.0652 14.5162 64.8519 14.7295 64.8519C14.9428 64.8519 15.0139 65.0652 15.1561 65.2785Z" fill="#666666"/>
<path d="M113.376 30.3848C113.376 29.3006 114.705 28.6044 115.369 28.3918C116.166 28.0303 116.565 27.5152 117.123 27.0369C117.681 26.5585 117.84 25.2831 118.717 24.2467C119.594 23.2104 120.152 23.1307 120.87 23.051C121.587 22.9712 121.826 22.8118 122.464 22.6524C123.102 22.4929 124.218 22.4929 124.855 22.1741C125.493 21.8552 125.174 21.2972 124.696 20.7391C124.218 20.1811 122.225 20.4203 121.348 20.1811C120.471 19.942 119.833 18.507 119.913 17.949C119.993 17.391 119.435 15.0792 119.036 14.1225C118.637 13.1659 118.398 13.1659 118.159 12.5282C117.92 11.8904 119.036 11.5716 119.594 10.6947C120.152 9.81778 119.275 10.1367 118.717 10.3758C118.159 10.615 116.963 10.615 116.565 10.615C116.166 10.615 115.608 9.8975 115.369 9.57863C115.13 9.25976 114.652 9.18004 114.014 8.78145C113.376 8.38286 113.536 7.82484 113.376 7.18709C113.249 6.6769 113.482 5.00814 113.615 4.23753C113.456 4.52983 113.137 5.21009 113.137 5.59273C113.137 6.07104 112.499 6.86822 112.34 7.26681C112.18 7.6654 111.702 7.98427 110.666 7.26681C109.629 6.54935 109.39 5.75217 108.992 5.11443C108.593 4.47668 108.354 2.72289 108.115 1.36769C107.923 0.283523 107.025 0.543933 106.6 0.809661C106.706 1.26139 106.919 2.35619 106.919 3.12148C106.919 4.07809 107.158 5.75217 106.919 6.54935C106.68 7.34653 106.361 7.74512 104.846 7.90455C103.332 8.06399 103.172 8.86117 102.614 8.86117C102.056 8.86117 101.976 8.46258 102.375 6.54935C102.774 4.63612 102.614 3.2012 102.375 3.59979C102.136 3.99838 101.658 6.15076 101.259 7.50596C100.86 8.86117 100.781 9.33948 100.621 10.0569C100.462 10.7744 99.9835 11.0933 99.1863 11.2527C98.3891 11.4121 97.8311 10.8541 95.9976 9.65835C94.1641 8.46258 95.4395 9.8975 96.157 10.8541C96.8745 11.8107 97.6716 12.4485 98.2297 13.2457C98.7877 14.0428 97.3528 17.391 96.8745 17.949C96.3962 18.507 96.4759 19.3839 96.6353 19.7825C96.7947 20.1811 97.9905 21.2174 98.0702 22.0146C98.1499 22.8118 97.5919 23.1307 96.8745 23.609C96.157 24.0873 94.164 25.6816 93.048 26.6383C91.9319 27.5949 92.8088 27.1963 93.2871 27.1166C93.7654 27.0369 94.8018 26.4788 95.7584 25.6816C96.715 24.8845 98.2297 24.6453 98.5485 24.6453C98.8674 24.6453 99.3457 25.5222 99.6646 26.2397C99.9834 26.9571 99.5848 27.0369 99.3457 28.2326C99.1065 29.4284 98.6282 30.6242 98.2297 31.5011C97.8311 32.378 98.3094 32.378 99.1863 31.9794C100.063 31.5808 101.02 30.3848 101.658 29.827C102.295 29.2692 102.455 29.3487 103.411 29.4284C104.368 29.5081 105.962 30.6242 106.6 30.943C107.238 31.2619 108.513 30.2256 108.992 30.3848C109.47 30.5439 110.905 30.8633 111.543 31.5011C112.18 32.1388 112.898 33.3346 113.137 34.2912C113.376 35.2478 114.173 36.2839 114.492 36.8419C114.811 37.3999 115.768 37.958 115.688 37.7985C115.608 37.6391 115.13 36.7622 114.891 35.8853C114.652 35.0084 114.492 34.5301 114.173 33.8923C113.854 33.2546 113.376 31.74 113.376 30.3848Z" fill="#E9E9E9"/>
<g filter="url(#filter1_f_4023_1914)">
<circle cx="108.511" cy="18.9051" r="9.24728" transform="rotate(-90 108.511 18.9051)" fill="url(#paint1_linear_4023_1914)"/>
</g>
<path d="M112.183 21.7767C112.375 21.6491 112.529 21.8298 112.582 21.9361C112.901 22.0955 112.662 21.5369 112.662 21.3774C112.662 21.218 112.901 20.5803 112.901 20.3411C112.901 20.1019 112.821 19.8628 112.741 19.3845C112.662 18.9062 112.821 18.8265 112.98 18.667C113.14 18.5076 112.98 18.1887 112.98 17.7901C112.98 17.3915 112.821 17.1524 112.741 16.6741C112.662 16.1958 112.263 16.5944 112.024 16.4349C111.785 16.2755 111.705 16.0363 111.785 15.7972C111.864 15.558 111.864 15.3986 111.785 15.1594C111.705 14.9203 111.545 15.1594 111.306 15.1594C111.067 15.1594 111.067 15.0797 110.669 15C110.27 14.9203 110.509 14.6811 110.27 14.2825C110.031 13.8839 110.111 14.2028 110.35 13.8042C110.589 13.4056 110.35 13.4854 110.19 13.1665C110.031 12.8476 110.111 13.6448 109.871 13.8839C109.632 14.1231 109.234 13.9637 108.755 14.2028C108.277 14.442 108.118 13.8839 107.799 13.7245C107.48 13.5651 107.56 14.1231 107.4 14.442C107.241 14.7608 106.922 14.5217 106.603 14.6014C106.284 14.6811 105.965 14.7608 105.487 15.0797C105.009 15.3986 105.407 15.2392 105.248 15.4783C105.088 15.7175 104.929 15.9566 104.769 15.8769C104.61 15.7972 104.211 15.7175 104.211 15.8769C104.211 16.0363 104.291 16.1958 104.451 16.4349C104.61 16.6741 104.451 16.9132 104.211 17.2321C103.972 17.551 104.052 17.3915 103.893 17.551C103.733 17.7104 103.653 17.8698 103.414 17.9496C103.175 18.0293 102.856 18.109 102.697 18.109C102.537 18.109 103.255 18.5873 103.414 18.7467C103.574 18.9062 103.494 19.0656 103.733 19.4642C103.972 19.8628 103.813 19.9425 103.733 20.4208C103.653 20.8991 104.052 20.9788 104.291 21.2977C104.53 21.6166 104.61 21.6963 104.69 21.9355C104.769 22.1746 104.451 22.334 104.291 22.4935C104.132 22.6529 104.291 22.8124 104.451 22.7326C104.61 22.6529 104.69 22.5732 105.009 22.6529C105.328 22.7326 105.328 22.7326 105.886 22.7326C106.444 22.7326 105.965 22.8921 106.284 23.211C106.603 23.53 106.523 23.7691 106.842 23.8491C107.161 23.9292 107.719 23.6893 107.958 23.9285C108.197 24.1677 107.879 24.168 107.719 24.168C107.56 24.168 107.719 24.4071 107.879 24.5666C108.038 24.726 108.197 24.3274 108.197 24.168C108.197 24.0085 108.277 23.7691 108.437 23.8491C108.596 23.9292 108.676 23.7691 108.915 23.61C109.154 23.4509 109.313 23.5299 109.473 23.7691C109.632 24.0082 109.712 24.0082 110.031 23.9285C110.35 23.8488 110.19 23.5299 110.35 23.211C110.509 22.8922 110.828 23.0521 111.227 22.813C111.625 22.5738 111.625 22.8927 111.785 22.813C111.944 22.7333 111.705 22.4941 111.705 22.255C111.705 22.0158 111.944 21.9361 112.183 21.7767Z" fill="#666666"/>
<defs>
<filter id="filter0_f_4023_1914" x="8.60219" y="52.8952" width="18.2248" height="18.2253" filterUnits="userSpaceOnUse" color-interpolation-filters="sRGB">
<feFlood flood-opacity="0" result="BackgroundImageFix"/>
<feBlend mode="normal" in="SourceGraphic" in2="BackgroundImageFix" result="shape"/>
<feGaussianBlur stdDeviation="0.432302" result="effect1_foregroundBlur_4023_1914"/>
</filter>
<filter id="filter1_f_4023_1914" x="98.3991" y="8.7936" width="20.2238" height="20.2234" filterUnits="userSpaceOnUse" color-interpolation-filters="sRGB">
<feFlood flood-opacity="0" result="BackgroundImageFix"/>
<feBlend mode="normal" in="SourceGraphic" in2="BackgroundImageFix" result="shape"/>
<feGaussianBlur stdDeviation="0.432302" result="effect1_foregroundBlur_4023_1914"/>
</filter>
<linearGradient id="paint0_linear_4023_1914" x1="14.3467" y1="54.2409" x2="21.7697" y2="69.6367" gradientUnits="userSpaceOnUse">
<stop offset="0.439187" stop-color="#BFC6CE"/>
<stop offset="0.498125" stop-color="#FBFBFB"/>
</linearGradient>
<linearGradient id="paint1_linear_4023_1914" x1="104.735" y1="10.1972" x2="113.058" y2="27.4588" gradientUnits="userSpaceOnUse">
<stop offset="0.439187" stop-color="#BFC6CE"/>
<stop offset="0.498125" stop-color="#FBFBFB"/>
</linearGradient>
</defs>
</svg>
